<svg xmlns="http://www.w3.org/2000/svg" xmlns:xlink="http://www.w3.org/1999/xlink" viewBox="0 0 175.95 198.49"><defs><style>.cls-1{fill:#d7d7d7;}.cls-2{clip-path:url(#clip-path);}.cls-3{fill:#f1d8af;}.cls-4{fill:#1e7fc1;}.cls-5{fill:#a08e73;}.cls-6{fill:#452e13;}.cls-7{fill:#fff;}.cls-8{fill:#104866;}.cls-9{fill:none;}</style><clipPath id="clip-path"><circle class="cls-1" cx="87.97" cy="100.57" r="75.38"/></clipPath></defs><g id="Calque_2" data-name="Calque 2"><g id="Calque_1-2" data-name="Calque 1"><circle class="cls-1" cx="87.97" cy="100.57" r="75.38"/><g class="cls-2"><path class="cls-3" d="M73.42,95.9l-2.07,18.61a12.91,12.91,0,0,0,.2,5.54,12.37,12.37,0,0,0,3.64,4.78c2,1.82,4,3.61,6,5.35a7.67,7.67,0,0,0,4,2.17c2.05.2,3.87-1.21,5.45-2.53l7.55-6.34c2.21-1.86,4.48-3.79,5.77-6.36a17.91,17.91,0,0,0,1.56-6.5,55.77,55.77,0,0,0,0-9.67,2,2,0,0,0-.37-1.17,2,2,0,0,0-1.69-.36c-10,.69-19.41-5.65-29.38-5"/><path class="cls-4" d="M20.75,144.69c.08-1.73,3.52-8.9,4.66-11.45a9.27,9.27,0,0,1,2.15-3.16,12.13,12.13,0,0,1,4.61-2.3l35.22-11.66a7,7,0,0,1,2.42-.49,7.8,7.8,0,0,1,2.56.73c11.37,4.59,22.54,5.38,32.59-1.64.8-.55.7-2.6,1.66-2.71a11.88,11.88,0,0,1,3.33.53c9.35,3.06,21.08,5.11,30.43,8.17a30.25,30.25,0,0,1,7.9,3.44s7.7,6.18,10.08,19.3c6.14,34-15.51,59.35-73.84,54.43C43.39,194.41,18.76,184.84,20.75,144.69Z"/></g><path class="cls-3" d="M53.61,41.24A62.28,62.28,0,0,1,51.08,59c-2.17-2.49-6.54-1.88-8.75.58S39.72,65.67,40.15,69c.34,2.64,1.28,5.38,3.4,7s5.64,1.53,7.08-.71c4.26,10.08,10.63,19.63,19.84,25.55s21.6,7.62,31.21,2.38c4.44-2.42,8-6.12,11.36-10,4.07-4.72,8-10,8.74-16.22a8.21,8.21,0,0,0,11.88-11.13,8.48,8.48,0,0,0-10.57-2.4q.42-11.26-.2-22.52a7.39,7.39,0,0,0-.92-3.81,6.64,6.64,0,0,0-2.25-1.85c-7.24-4.19-15.92-5.16-24.29-4.95s-16.69,1.49-25.06,1.39c-4-.05-8.11-.38-11.76,1.19s-6.52,5.85-5,9.51"/><path class="cls-5" d="M52.11,41.15a63.72,63.72,0,0,1-2.53,17.78l3,.08c-2.23-2.38-6.6-2.48-9.42-1.18-3.47,1.59-4.68,5.54-4.61,9.11s1.14,7.87,4.53,9.6c2.61,1.33,7.17,1.53,9-1.12l-2.94-.27c5.12,12,13.36,23.7,25.86,28.75a37.09,37.09,0,0,0,19.23,2.4c6.8-1,12.4-4.6,17.12-9.46,5.29-5.44,10.87-12,11.94-19.76l-3-.08a11.94,11.94,0,0,0,10.26,1.73,8.2,8.2,0,0,0,6-7.36c.61-7.77-8.82-11.23-14.94-8.08l2.94.27a189,189,0,0,0-.25-23.32,5.69,5.69,0,0,0-1.65-3.92,16.24,16.24,0,0,0-4-2.33,39.3,39.3,0,0,0-9.53-3c-7.06-1.33-14.26-1.15-21.39-.63-3.93.29-7.85.67-11.79.88-3.79.2-7.57,0-11.37.1-3.43.1-7.18.6-9.88,2.92-2.29,2-3.78,5.11-2.64,8.09.29.74,3,.31,3,.17a6.88,6.88,0,0,1,1.74-7.15c2.16-2.32,5.2-3.14,8.28-3.29,3.33-.17,6.68.08,10,0,3.57-.13,7.12-.42,10.68-.71,6.65-.53,13.38-1.07,20-.11a36.73,36.73,0,0,1,9.27,2.54,22.25,22.25,0,0,1,4.07,2.14,5,5,0,0,1,2.09,3.77,109.83,109.83,0,0,1,.44,11.48q.08,6.12-.15,12.24c0,.66,2.59.45,2.94.27,5-2.55,9.43,2.78,9.07,7.55a7.92,7.92,0,0,1-3.23,5.93,5.65,5.65,0,0,1-7.14-.14c-.33-.26-2.86-.72-3-.08-.9,6.54-5,11.93-9.24,16.76s-9,9.22-15.15,11.15c-12.23,3.81-24.77-2.66-32.84-11.69a64.57,64.57,0,0,1-10.93-17.8c-.22-.52-2.61-.73-2.93-.27a3.45,3.45,0,0,1-2.58,1.63c-1.08,0-2.19-1.16-2.81-1.93a12.64,12.64,0,0,1-2.3-7.64,10.52,10.52,0,0,1,2.27-7.34,6.22,6.22,0,0,1,3-1.85A2.79,2.79,0,0,1,49.63,59c.33.35,2.77.68,2.94.07a63.26,63.26,0,0,0,2.54-17.78c0-.56-3-.65-3-.17Z"/><path class="cls-6" d="M50.56,65.51c-.88-8.4-1.76-16.94-.19-25.25S56.28,23.73,63.79,19.2c4.13-2.49,8.94-3.73,13.67-4.87,6.3-1.53,12.71-3,19.21-2.91s13.2,1.69,18.15,5.7c5.44,4.42,8.17,11.15,9.7,17.79,1.91,8.37,3.69,20.08-1.43,28.56-5.45-6.16-7.67-16-11.25-23.31a2.86,2.86,0,0,0-1.33-1.58,3.09,3.09,0,0,0-1.94.11C102.4,40.47,96.23,43,89.82,42.51c-9.38-.73-17.33-7.89-26.74-8A269,269,0,0,1,50.69,67"/><path class="cls-6" d="M69.94,62.13C68.82,64.44,71.63,67,74.21,67A5.47,5.47,0,0,0,79,64a4.11,4.11,0,0,0-1.47-5.19,4.47,4.47,0,0,0-5,.88,8.29,8.29,0,0,0-2.25,4.89"/><path class="cls-6" d="M95.54,62.13C94.42,64.44,97.23,67,99.81,67A5.45,5.45,0,0,0,104.63,64a4.11,4.11,0,0,0-1.47-5.19,4.47,4.47,0,0,0-5,.88,8.29,8.29,0,0,0-2.25,4.89"/><path class="cls-7" d="M78.51,84.61l15.54.54c.42,0,.91.07,1.12.42a1.32,1.32,0,0,1,.11.76c-.16,2.12-.56,4.62-2.48,5.55a6.24,6.24,0,0,1-4,0c-3.41-.76-7.1-1.69-9.25-4.44"/><path class="cls-5" d="M65,98.79a26.32,26.32,0,0,0,4.12,3.4,5.46,5.46,0,0,1,2.32,2.46c.68,1.8.23,4.08,0,5.92a19.83,19.83,0,0,0-.51,3.5c0,.7.88-1.08.3-.83a3.2,3.2,0,0,0-.5.41,12.49,12.49,0,0,1-1.52,1.06c-4.74,2.78-10.2,3.47-15.4,4.91-3.1.85-6.18,1.68-9.34,2.26a43.23,43.23,0,0,0-9.35,2.88,28.15,28.15,0,0,0-8.1,5.1,16,16,0,0,0-4.38,7.93c-.08.28-.32,1.14.15,1.15s.79-1.42.85-1.66c1.49-5.94,8.67-9.1,13.91-10.93A94,94,0,0,1,47.28,124c3.28-.77,6.48-1.8,9.76-2.56,4.62-1.07,10-2.1,13.6-5.47,1.52-1.42,1.48-3.86,1.78-5.77a22.69,22.69,0,0,0,.45-7,4.81,4.81,0,0,0-2-3.3,38.31,38.31,0,0,1-4.73-3.79c-.38-.39-1.6,2.17-1.12,2.68Z"/><path class="cls-8" d="M70.16,117.11c6.86,2,13.76,4.5,21,3.87a31.08,31.08,0,0,0,17.52-7.3c1.12-1-1.67-1.83-2.49-1.13a27.84,27.84,0,0,1-16,6.73c-6.54.49-12.85-1.94-19-3.73-.53-.15-1.6-.18-1.9.41s.47,1,.94,1.15Z"/><circle class="cls-9" cx="87.97" cy="87.97" r="87.97"/></g></g></svg>