<svg xmlns="http://www.w3.org/2000/svg" width="120" height="120" viewBox="0 0 120 120">
  <defs>
    <linearGradient id="linearGradient-8" x1="41.681" x2="64.231" y1="68.62" y2="68.62" gradientUnits="userSpaceOnUse">
      <stop offset="0" stop-color="rgb(27,102,174)"/>
      <stop offset="1" stop-color="rgb(28,102,173)"/>
    </linearGradient>
  </defs>
  <g>
    <g>
      <g>
        <path fill="rgb(255,255,255)" fill-rule="evenodd" d="M38.01858451 47.88736605c5.4516456-5.68818314 14.05142458-7.27677483 21.88336614-6.4312341 7.83194156.84554074 15.25436984 3.7408772 22.85596019 5.81629538 7.60159034 2.07541817 15.8174506 3.20280582 23.23987889.58931627-.15356749 10.30022353-.33272955 20.60044705-.48629703 30.87504813-.02559458 1.1530101-.05118916 2.33164264-.61426993 3.33091806-.48629702.84554074-1.279729 1.40923456-2.073161 1.97292839-7.80634698 5.32946889-17.09717962 9.0191012-26.49039058 8.3016727-6.8849421-.53807139-13.33477633-3.35654051-19.93817804-5.3294689-6.6034017-1.97292839-13.92345167-3.12593848-20.245313-.3843367 1.8172152-13.16993754 3.07134964-26.39111998 3.78799788-39.6635473"/>
        <path fill="rgb(93,182,125)" fill-rule="evenodd" d="M75.90270996 43.31774902c9.32641602 2.83935547 19.36437988 5.89538575 28.99450684 2.5966797 1.40771484-.46118165 3.30163574 1.0505371 3.27612304 2.48535155-.12805175 8.7373047-.2816162 17.4744873-.4095459 26.211792-.02563476 1.81921386 0 3.63830566-.10241699 5.45751953-.07678222 1.58862304-.40942383 3.12597656-1.53564453 4.30456543-1.17736816 1.2298584-2.76416015 2.12670898-4.19750976 2.99780273-1.40771485.87121582-2.84094239 1.66552734-4.32543946 2.40856934-6.04040527 2.97216797-12.69494629 4.8939209-19.47753906 4.6376953C70.85644531 94.13586427 64.125 91.34301759 57.265625 89.19067384c-6.50097656-2.02416992-13.53942871-3.38208008-20.04052734-.64050293-1.66357422.71740723-3.40405274-1.48608399-3.19934082-2.94665527 1.63806152-11.94006348 2.81542968-23.93127442 3.53210449-35.9482422-.20471192-.07690429-.4095459-.20495605-.61425781-.35876464-.69104004-.53796387-1.63806153-1.99853516-.8190918-2.84399414 3.32739258-3.40783692 7.60168457-5.5345459 12.20861816-6.50817871 9.34204102-1.9729004 18.6072998.640625 27.51416016 3.35656738l.05541992.0168457zm24.3618164 39.64672852c1.04943848-.69177246 2.3803711-1.35803223 2.84106446-2.58789063.40979004-1.06298828.35864258-2.39733886.31030273-3.6574707-.0180664-.4711914-.0357666-.9321289-.02880859-1.36450195l.07678223-5.61132813.3071289-19.08874511c-4.24865722.87121582-8.65100097.79431152-12.95080566.17944335-9.80273438-1.38366699-18.91442871-5.68823242-28.69152832-7.19995117-6.73144531-1.02490234-14.4354248-.35876465-20.04052734 3.7664795v.0769043c-.63989258 12.04248046-1.74047852 24.05944823-3.30175782 35.99951171 6.06591797-1.3067627 12.54138184 0 18.40246582 1.81921387 6.60339356 2.07543945 13.15563965 4.94506836 20.1685791 5.09887695 6.39868165.15368652 12.66931153-1.76794433 18.27453614-4.7145996 1.58679199-.81982423 3.14807129-1.74230958 4.63256836-2.7159424z"/>
      </g>
      <g>
        <path fill="rgb(255,255,255)" fill-rule="evenodd" d="M29.23964348 42.6347645c5.4516456-5.71380559 14.05142457-7.30239728 21.88336614-6.45685654 7.83194156.84554074 15.25436984 3.7408772 22.85596018 5.81629537 7.60159034 2.07541818 15.81745061 3.22842827 23.2398789.61493872-.15356749 10.30022353-.33272955 20.60044706-.48629703 30.87504814-.02559458 1.1530101-.05118916 2.33164263-.61426993 3.33091805-.48629703.84554074-1.27972901 1.40923456-2.073161 1.97292839-7.80634699 5.32946889-17.09717963 9.0191012-26.49039059 8.3016727-6.8849421-.53807139-13.33477632-3.35654051-19.93817803-5.3294689-6.60340171-1.99855083-13.92345167-3.12593848-20.245313-.3843367 1.84280978-13.16993754 3.09694421-26.41674242 3.78799788-39.6635473"/>
        <path fill="rgb(93,182,125)" fill-rule="evenodd" d="M67.14941406 38.06518555c9.32641602 2.83935547 19.36437989 5.89538574 28.99450684 2.59667968 1.40771484-.4868164 3.27612305 1.05053711 3.27612305 2.48535157-.12805176 8.73730468-.28161622 17.4744873-.4095459 26.21179199-.02563477 1.81921387 0 3.63830566-.102417 5.45751953-.07678222 1.58862305-.4095459 3.12597656-1.53564453 4.30456543-1.17736816 1.2298584-2.76416015 2.12670898-4.19750976 2.99780273-1.40771485.87121582-2.84094239 1.66552735-4.32543946 2.40856934-6.04040527 2.97216797-12.69494628 4.8939209-19.47753906 4.63769531-7.26879883-.28186035-14.00024414-3.07470703-20.85961914-5.22705078-6.50097656-2.02416992-13.5394287-3.38208008-20.04052734-.64050293-1.66357422.71740723-3.40405274-1.48608398-3.19934082-2.94665527 1.63806152-11.94006348 2.81542969-23.93127442 3.53210449-35.94824219-.20471191-.0769043-.4095459-.20495605-.61425781-.35876465-.69104004-.53796386-1.63806153-1.99853515-.8190918-2.84399414 3.32739258-3.40783691 7.5760498-5.56018066 12.23425293-6.5081787 9.34204102-1.9729004 18.58166504.640625 27.4885254 3.35656737l.05541991.0168457zM91.4855957 77.71191406c1.04943848-.69177246 2.3803711-1.35791015 2.84106446-2.58789062.41540527-1.09667969.37109375-2.44445801.32946777-3.70373535-.01464844-.44714356-.02905273-.88305664-.02233887-1.29260254l.07678223-5.61132813.3071289-19.08874512c-4.2487793.87121583-8.65100097.79431153-12.95092773.17944336-9.8026123-1.38366699-18.91430664-5.68823242-28.69152832-7.19995117-6.73132324-1.02490234-14.43530273-.35876465-20.04052734 3.7664795v.0769043c-.63989258 12.04248046-1.76599121 24.03381347-3.32727051 35.97387694 6.06591797-1.3067627 12.54138183 0 18.40246582 1.81921387 6.60339355 2.07543945 13.15563965 4.94519043 20.1685791 5.09887695 6.39868164.15368653 12.66931152-1.76794433 18.27453613-4.7145996 1.586792-.81982422 3.1480713-1.74230957 4.63256836-2.71594239z"/>
      </g>
      <g>
        <path fill="rgb(255,255,255)" fill-rule="evenodd" d="M23.99275452 49.62969242c5.4516456-5.68818315 14.05142457-7.27677483 21.88336614-6.4312341 7.83194156.84554074 15.25436984 3.7408772 22.85596019 5.81629538 7.60159034 2.07541817 15.8174506 3.22842827 23.23987889.61493872-.15356749 10.30022352-.33272955 20.60044705-.48629703 30.87504813-.02559458 1.1530101-.05118916 2.33164264-.61426993 3.33091805-.48629702.84554074-1.27972901 1.40923457-2.073161 1.9729284-7.80634698 5.32946888-17.09717962 9.01910119-26.49039058 8.30167268-6.8849421-.53807137-13.33477633-3.3565405-19.93817804-5.32946888-6.60340171-1.99855084-13.92345167-3.12593849-20.245313-.3843367 1.8172152-13.1443151 1.6892423-26.3398751 2.38029597-39.58667997"/>
        <path fill="rgb(93,182,125)" fill-rule="evenodd" d="M20.02563477 87.34594727c1.68920898-12.27319336 1.66363525-24.70007325 2.22668457-37.0756836l.10241699-1.33239746c.07678222-1.10180664.63983154-2.12670898 1.5612793-2.76721191 2.99450683-2.07543946 7.03845214-3.7664795 10.41699218-4.4840088 9.34204102-1.94726562 18.6072998.66625977 27.53979492 3.3565674l.05529786.0168457c9.32629394 2.83935546 19.36437988 5.8955078 28.99450683 2.59667968 1.38208008-.46118164 3.27612305 1.05053711 3.25048828 2.48535156-.12792968 8.7373047-.28149414 17.4744873-.4095459 26.211792-.0255127 1.81921386 0 3.63830566-.10229492 5.45751953-.07678222 1.58862304-.4095459 3.12597656-1.5357666 4.30456543-1.1772461 1.22998047-2.76416015 2.12670898-4.19750976 2.9979248-1.40759278.87109375-2.84094239 1.66540527-4.32543946 2.40844727-6.0402832 2.97216797-12.69494629 4.8939209-19.47741699 4.63769531-7.2689209-.28186035-14.00024414-3.07470703-20.85961914-5.22705078-6.50097656-2.02416992-13.53955078-3.38208008-20.04058838-.64050293-1.66363525.71740723-3.40405273-1.48608399-3.19927978-2.9465332zm66.21313476-2.61340332c1.0493164-.69189454 2.38024902-1.35803223 2.84094238-2.58789063.42553711-1.12304687.36865235-2.50964355.3154297-3.80566406-.01708985-.41894531-.03393556-.82836914-.03393556-1.2163086l.07678223-5.61132812.3071289-19.08874512c-4.24865722.87109375-8.6508789.79431153-12.95080566.1793213-9.80273437-1.38354493-18.9144287-5.68811036-28.69152832-7.19995118-7.32006836-1.1529541-15.8173828-.23059082-21.49938965 4.94519043-.56311035 11.65820312-.6142578 23.31640625-1.89404296 34.89782715 6.09155273-1.3067627 12.5925293 0 18.45373535 1.8190918 6.60339355 2.07543945 13.15551758 4.94519042 20.16845703 5.09887695 6.39868164.1538086 12.66931152-1.76794434 18.27453613-4.71447754 1.58691406-.8199463 3.14819336-1.74230957 4.63269043-2.71594238z"/>
      </g>
      <path fill="url(#linearGradient-8)" fill-rule="evenodd" d="M62.71735448 57.13706926c-6.04032094-2.45975487-13.02764136-.12811223-16.2269639 5.6113158-.07678374.12811224-.1279729.25622447-.20475664.3843367-1.4332965.0512449-2.8409984.15373468-4.24870032.28184692-.87021573.07686734.1279729 1.58859169.33272954 1.84481615.53748619.61493872 1.4332965 1.5373468 2.35470139 1.46047946.10237832 0 .17916206-.02562245.28154038-.02562245-.1279729.58931627-.23035122 1.17863254-.28154038 1.79357126-.89581031.0512449-1.79162062.12811223-2.68743093.20497957-.87021573.07686734.1279729 1.5885917.33272954 1.84481616.53748619.61493872 1.4332965 1.5373468 2.35470139 1.46047945h.05118916c.48629702 3.38216295 2.27791764 6.45685654 5.65640224 8.04544823 3.83918704 1.79357126 7.98550904 1.05052031 11.97826357.17935713 1.07497237-.23060202.97259405-1.76794882.58867534-2.51099977-.53748618-.99927542-1.53567481-1.5373468-2.63624177-1.30674477-3.04575505.64056116-6.88494209 1.5373468-9.75153508-.23060202-1.51008024-.94803053-2.09875558-2.66473445-2.2011339-4.40706082 2.63624176-.12811223 5.29807811-.12811223 7.93431988.02562245.9214049.0512449.61426993-.87116318.28154038-1.38361211-.46070244-.69180606-1.4332965-1.84481616-2.35470138-1.89606105-1.84280978-.10248979-3.68561956-.15373468-5.52842934-.12811223.15356748-.66618362.3839187-1.30674478.6398645-1.9216835 2.32910681-.07686734 4.63261904-.0512449 6.96172584.07686734.9214049.0512449.61426993-.87116318.28154038-1.38361211-.46070244-.69180606-1.4332965-1.84481616-2.35470138-1.89606105-.89581031-.0512449-1.79162062-.07686734-2.66183635-.10248979.61426993-.64056116 1.3053236-1.20425499 2.09875558-1.63983658 2.43148513-1.40923456 5.60521308-1.84481615 8.24145485-.7686734.89581031.35871426 1.99637726.20497958 2.25232307-.87116318.23035122-1.07614276-.53748619-2.35726509-1.48448566-2.74160179z"/>
    </g>
    <rect width="120" height="120" x="0" y="0" fill="none"/>
  </g>
</svg>
