<svg xmlns="http://www.w3.org/2000/svg" width="120" height="120" viewBox="0 0 120 120">
  <defs>
    <linearGradient id="linearGradient-2" x1="29.092" x2="84.844" y1="51.354" y2="51.354" gradientUnits="userSpaceOnUse">
      <stop offset="0" stop-color="rgb(27,102,174)"/>
      <stop offset="1" stop-color="rgb(28,102,173)"/>
    </linearGradient>
    <linearGradient id="linearGradient-4" x1="39.634" x2="50.414" y1="35.436" y2="35.436" gradientUnits="userSpaceOnUse">
      <stop offset="0" stop-color="rgb(27,102,174)"/>
      <stop offset="1" stop-color="rgb(28,102,173)"/>
    </linearGradient>
    <linearGradient id="linearGradient-6" x1="54.31" x2="65.786" y1="35.472" y2="35.472" gradientUnits="userSpaceOnUse">
      <stop offset="0" stop-color="rgb(27,102,174)"/>
      <stop offset="1" stop-color="rgb(28,102,173)"/>
    </linearGradient>
    <linearGradient id="linearGradient-8" x1="66.151" x2="75.308" y1="35.322" y2="35.322" gradientUnits="userSpaceOnUse">
      <stop offset="0" stop-color="rgb(27,102,174)"/>
      <stop offset="1" stop-color="rgb(28,102,173)"/>
    </linearGradient>
    <linearGradient id="linearGradient-10" x1="46.826" x2="74.646" y1="54.523" y2="54.523" gradientUnits="userSpaceOnUse">
      <stop offset="0" stop-color="rgb(27,102,174)"/>
      <stop offset="1" stop-color="rgb(28,102,173)"/>
    </linearGradient>
    <linearGradient id="linearGradient-12" x1="46.686" x2="74.849" y1="65.891" y2="65.891" gradientUnits="userSpaceOnUse">
      <stop offset="0" stop-color="rgb(27,102,174)"/>
      <stop offset="1" stop-color="rgb(28,102,173)"/>
    </linearGradient>
    <linearGradient id="linearGradient-14" x1="42.827" x2="71.081" y1="77.242" y2="77.242" gradientUnits="userSpaceOnUse">
      <stop offset="0" stop-color="rgb(27,102,174)"/>
      <stop offset="1" stop-color="rgb(28,102,173)"/>
    </linearGradient>
  </defs>
  <g>
    <g>
      <g>
        <path fill="url(#linearGradient-2)" fill-rule="evenodd" d="M58.51013184 9.26879883C68.34594727 8.50305176 78.18170166 7.76574707 88.01751709 7c1.1939087-.085083 2.61529541 1.07763672 2.01831055 2.29711914-5.08843994 9.897583-6.85095215 21.4116211-5.05999756 32.38684082.79595947 4.82104492 2.55841064 9.35864258 3.29754638 14.17980957.73907471 4.79272461 1.05181885 9.78405762.79595948 14.63354492-.4263916 7.62878418-4.2925415 14.80383301-7.87432862 21.3548584-1.22235107 2.18371582-2.44476318 3.74353027-5.11688232 3.8569336-1.67596436.0736084-3.38769531-.09106446-5.08886719-.25463868-.92462158-.08886718-1.84613037-.17749023-2.75708008-.22741699-5.5717163-.31201172-11.14343261-.65234375-16.65826416-1.50305176-4.178833-.62390136-8.3291626-1.44641113-12.56481933-1.67321777-3.86608887-.1986084-8.15863037-.0567627-11.51300049 2.15527344-.76751709.51049804-1.73406982.51049804-2.5300293.02844238-.6253662-.36877441-1.25079345-1.21948242-.7390747-1.9284668 3.35437011-4.65100097 5.94122314-9.8125 7.56158447-15.31433105 1.42138672-4.87780762 2.16046142-9.92590332 2.07519531-15.00219727-.1137085-5.55859375-1.30767822-10.97521972-2.50158691-16.36364746-2.2173462-9.95422363-4.23565674-20.98608398 1.30761718-30.28808594.17059327-.28356933.42645264-.45373535.71069336-.56726074.02844239-.22680664.17059327-.48205566.39801026-.70898437 1.05181885-1.04931641 1.64874267-2.55236817 3.18383789-3.06286621.99493408-.34020997 2.21728515-.25512696 3.269104-.34020997 1.22235108-.085083 2.44476319-.1986084 3.66711426-.2836914 4.86102295-.36865235 9.75048828-.73730469 14.61157227-1.10595703zm24.6463623 40.9230957c-1.30761719-4.67944336-2.44470215-9.27368164-2.7290039-14.17993164-.48327637-8.84814453 1.16552734-17.69641113 4.8326416-25.77893066-8.24389649.62390136-16.51617432 1.27624511-24.7600708 1.90014648-4.60522461.34020996-9.23883057.70898438-13.84405518 1.0493164-2.27416992.17004395-4.51989746.34020997-6.79406738.51037598-1.10864258.08508301-.99493409 0-1.70562744.90759278-.4263916.56713867-.85284424 1.13439941-1.36450196 1.64477539-.1137085.11352539-.25585937.2269287-.39801025.2836914-.02838135.14172364-.08526612.28356934-.17053223.42529297-2.9564209 4.93469238-3.55340576 10.8334961-3.09857178 16.47705078.45483399 5.55847168 1.90460205 10.94689942 3.04168702 16.3918457 1.1087036 5.27490235 1.7625122 10.54992676 1.50665283 15.93823243-.4263916 8.33776855-2.87115479 16.5053711-7.04992676 23.70874023 5.82678223-1.27307129 12.3060913-.16589355 18.19439697.84033203 1.0637207.18188477 2.1081543.36035157 3.12597657.52087403 5.42956542.85083008 10.91601562 1.13439941 16.37402343 1.44628906 1.53509522.08520508 3.04174805.17016602 4.57678223.2836914.18981934.01831055.40600586.0498047.63665771.08337403.84014893.12231445 1.87194825.272583 2.5187378-.08337402.85284424-.51049805 1.39294433-2.0135498 1.84777832-2.86437989.54016113-1.02087402 1.08026123-2.0135498 1.59191894-3.03442382 1.6772461-3.34643555 3.32598877-6.72131348 4.43463135-10.29455567 1.19396973-3.82861328 1.3361206-7.68554687 1.19396973-11.65588379-.17059326-4.87792969-.6538086-9.8125-1.96148682-14.5201416z"/>
        <path fill="url(#linearGradient-4)" fill-rule="evenodd" d="M40.80004883 45.05871582c1.1654663-2.66589356 2.35943603-5.35998535 3.52496338-8.02575684 1.5065918.05664063 3.01324463.14172364 4.49145508.31188965.14215087.02832031.34112548-.02832031.51171875-.085083-.05688477.85083007-.14215088 1.67321777-.227417 2.52404785-.17059326 1.55981445-.42645263 3.09118652-.73913574 4.62255859-.05682373.34033203.08526611.79406738.227417 1.07775879.14215087.31188965.4263916.680542.73913574.8223877.22741699.11340331.5401001.25524902.82440185.085083.25579834-.17016601.34112549-.39709472.39794922-.70898437 1.16552734-5.6435547 1.39294434-11.48571778.71069336-17.21435547-.17059326-1.41796875-.59698486-3.09118653-1.93304443-3.8852539-.56854249-.34033204-1.30767823-.42541505-1.8762207-.0567627-.5401001.34033203-.8812256.90759277-1.16552735 1.47473144-.62536621 1.30456543-1.16546631 2.66577149-1.76245117 3.97033692-.59698487 1.36132812-1.19396973 2.72253418-1.79089356 4.05541992-1.3361206 3.0345459-2.67218017 6.04064941-4.00823974 9.07519531-.14215088.28356934-.08526612.70898438 0 1.02087402.1137085.34033203.34112548.76574707.6253662.99255371.48327637.45385743 1.13708497.62402344 1.4498291-.05664062zm8.1017456-18.12182617v-.02832031c-.02844238 0 0 .0283203 0 .0283203zm.00701905.07434082c0-.00354004.00714111-.00354004.0213623.01062012-.01422119 0-.0213623-.00708008-.0213623-.01062012zm.0213623.01062012c.02844238.05676269.02844238.11352539.05682373.17016601-.02838135-.02832031-.05682373-.085083-.05682373-.17016601zm-.82434082 1.41809082c-.31274414.68054199-.59698486 1.36120605-.90966797 2.04187011-.73913574 1.7298584-1.50665283 3.45983887-2.33105469 5.16137696 1.50665284 0 3.01330567.0567627 4.49151612.17016601v-.11340332c.02838135-.73730469.02838135-1.44628906.02838135-2.15527344v-.82250976c0-.31188965 0-.65222168-.02838135-.9642334-.05688477-1.36120606-.17059326-2.72253418-.34112549-4.08374023-.02844238-.1418457-.02844238-.25524903-.05688477-.39709473-.02844238-.02832031-.02844238-.05664063-.02844238-.085083v-.02832032l-.17053223.085083c-.05688476.08508301-.14215087.1418457-.1989746.22692872-.02844239.05664062-.08532715.11340332-.1137085.17004394 0 0 0 .02844239-.02844238.0567627 0 .0567627-.05688477.1418457-.05688477.1418457-.02838135.05664063-.02838135.085083-.05682373.14172363-.05688477.1418457-.14215088.31201172-.1989746.45385743zm.9664917-1.27624512h.02844238c.02844239.02832031.02844239.0567627-.02844238 0z"/>
        <path fill="url(#linearGradient-6)" fill-rule="evenodd" d="M55.24102783 34.48046875c.5401001 3.43151855.51165772 7.00488281 1.84777832 10.23791504.227417.56713867.88122559.850708 1.44976807.850708.9664917 0 1.76245117-.51037597 2.13201904-1.38952636.227417-.56726074.4263916-1.1628418.62542725-1.72998047l1.36450195-3.74353027c.90966797-2.46728516 1.81933594-4.96289063 2.7290039-7.43017578l1.53503419-4.16894532c.25585937-.68054199-.39794922-1.27612304-1.05175782-1.38952636-.65386962-.1135254-1.62036132.0283203-1.8762207.73730468l-5.03161621 13.69775391c-.227417-1.53149414-.34112549-3.09118652-.5401001-4.62268066-.22741699-1.7866211-.56854248-3.54492188-1.19396972-5.24658204-.3411255-.9074707-.68225098-1.78662109-.88122559-2.72253418-.05682373-.36865234-.05682373-.70898437-.05682373-1.07763671.02838135-.7373047-.88128662-1.16271973-1.50665283-1.13439942-.6538086 0-1.50665283.31201172-1.53509522 1.0777588-.08526611 1.44628905.42645264 2.8642578.93811035 4.19714355.48327637 1.27624511.82440186 2.52404785 1.05181885 3.85693359zm2.44470215 9.16027832c0-.02844238 0-.02844238.02844238-.0567627 0 0-.02844238.02832032-.02844238.0567627z"/>
        <path fill="url(#linearGradient-8)" fill-rule="evenodd" d="M70.53485107 27.4473877c-.22741699-.02844239-.4263916-.02844239-.6253662-.0567627-.76757813-.0567627-1.36450196-.68066406-1.50665284-1.44641113-.1989746-.53881836.02844238-1.36120606.7390747-1.30444336 1.81933595.19848633 3.66711427.36865234 5.51489259.53881836.7390747.085083 1.33605957.68066406 1.59191894 1.38964843.19897461.53881836-.02844238 1.36120606-.73913574 1.30444336-.71063232-.05664062-1.3928833-.14172363-2.10357666-.19848632-.08526611 1.21948242-.14215088 2.43896484-.227417 3.63000488-.17059325 2.52404785-.36956786 5.0480957-.59698486 7.57214355-.0852661 1.21948242-.22741699 2.46728516-.34112548 3.68676758 0 .14172363-.02844239.25512695-.02844239.39697266.39801026.02832031.79595948.02832031 1.19396973.02832031.76751709.02844238 1.44976807.73742676 1.44976807 1.50317383 0 .8223877-.8527832 1.27612304-1.56347657 1.24780273-1.05181884-.02844238-2.13201904-.02844238-3.21228027 0h-.17053223c-.14215088.02832031-.25585937.02832031-.39801025.02832031-.25585938.02832032-.5401001.02832032-.79595947.0567627-.5401001.02832031-1.05181885.05664062-1.59191895.11340332-.82440185.085083-1.59191894-.34033203-1.81933594-1.13439941-.22741699-.70898438.36956788-1.53137207 1.10864258-1.58813477.79595947-.085083 1.5635376-.1418457 2.33105469-.17016602.14215088-.1418457.34112549-.2269287.56854248-.25524902 0-.11340332.02844238-.19848633.02844238-.28356933l.08526612-.93591309c.05682373-.62390137.1137085-1.21948242.17053222-1.84338379.36956787-4.08374023.68225098-8.16760254.93811035-12.27966309zM69.88098145 42.875c.14215087.02832031.25585937.085083.36956787.1418457-.14215088-.085083-.25585938-.1418457-.36956787-.1418457z"/>
        <path fill="url(#linearGradient-10)" fill-rule="evenodd" d="M45.00723661 52.60240146c-1.13708653-.0850791-.19899014 1.1343881.14213582 1.50306423.7675334.76571196 2.04675576 1.64486273 3.1838423 1.72994184 9.3809639.59555375 18.79035497.76571197 28.19974604.48211494 1.10865937-.0283597.28427164-1.07766869-.14213581-1.50306422-.71067909-.70899256-2.07518293-1.75830155-3.1838423-1.72994185-9.40939107.28359702-18.81878214.1134388-28.19974605-.48211494z"/>
        <path fill="url(#linearGradient-12)" fill-rule="evenodd" d="M76.30554347 66.0165407c-.99495072-.53883435-2.30260024-1.1060284-3.43968677-1.049309-9.26725525.25523733-18.5345105.11343881-27.7733386-.45375523-.90966923-.0567194-1.0802322.28359702-.3126988.85079107.90966923.65227315 2.35945456 1.2478269 3.46811393 1.33290601 9.52309973.59555375 19.07462661.79407167 28.6261535.51047464 1.13708654-.0567194-.28427163-1.02094928-.56854326-1.1911075z"/>
        <path fill="url(#linearGradient-14)" fill-rule="evenodd" d="M71.4729257 75.37524249c-9.21040093.25523732-18.42080186.0850791-27.60277562-.48211495-1.27922236-.0850791-2.70058052.56719405-3.2691238 1.75830155-.51168893 1.02094929.02842717 2.2404165 1.2507952 2.3254956 9.57995405.59555375 19.21676243.76571196 28.82514364.48211494 1.19394086-.0283597 2.6437262-1.07766869 2.84271634-2.2971359.2274173-1.3045463-.9380964-1.81502095-2.04675577-1.78666124z"/>
      </g>
      <g>
        <ellipse cx="74.486" cy="84.592" fill="rgb(93,182,125)" rx="22.77" ry="22.716"/>
        <path fill="rgb(255,255,255)" fill-rule="evenodd" d="M51.17590332 84.56384277c0 12.81848145 10.46118164 23.25488282 23.31030273 23.25488282 12.84906006 0 23.3102417-10.40795899 23.3102417-23.25488282 0-12.81860351-10.46118164-23.25500488-23.3102417-23.25500488-12.84912109 0-23.31030273 10.43640137-23.31030273 23.25500488zm1.05181885.02832032c0-12.25146485 10.00634765-22.20568848 22.25848388-22.20568848 12.28051758 0 22.25842286 9.95422363 22.25842286 22.20568848 0 12.25134277-10.00634766 22.2055664-22.25842286 22.2055664-12.2805786 0-22.25848388-9.98254394-22.25848388-22.2055664z"/>
      </g>
      <path fill="rgb(255,255,255)" fill-rule="evenodd" d="M89.4673201 65.47770635c-8.15859588 7.77055846-13.5029026 17.724814-18.47765618 27.70742924-1.93304711-4.33903446-4.29250167-8.47955102-7.02150935-12.39318995-.51168894-.73735226-1.62034831-2.24041649-2.72900768-1.95681946-1.05180505.25523732-.3979803 1.84338065-.02842717 2.382215 3.52496826 5.07638673 6.3676846 10.52144959 8.47129468 16.33518858.28427164.79407167 2.72900769 3.74348072 3.52496826 2.12697768 5.28745238-10.7483272 10.74546775-21.72353204 19.55788839-30.11800395 1.30764951-1.2478269-2.10361009-5.24654494-3.29755095-4.08379714z"/>
    </g>
    <rect width="120" height="120" x="0" y="0" fill="none"/>
  </g>
</svg>
