<svg xmlns="http://www.w3.org/2000/svg" width="80" height="120" viewBox="0 0 80 120">
  <g>
    <path fill="rgb(96,173,128)" fill-rule="evenodd" d="M42.755 12.06275c-.56587396-.0031638-1.02244638-.45532997-1.020825-1.01097333V1.72325c0-.55517274.45834849-1.00522917 1.02375-1.00522917.56540151 0 1.02375.45005643 1.02375 1.00522917v9.3227825c.00313331.26908693-.10374352.52817225-.29670868.71926588-.19296515.19109362-.45590486.29823808-.72996632.29745162z"/>
    <path fill="rgb(96,173,128)" fill-rule="evenodd" d="M41.30096436 44.85864258l.06134033.00219726c.54193115.01818848 1.00378418-.38146972 1.05328369-.91162109.55566406-6.0213623 1.02197266-12.16662598 1.42596435-18.79101563.03308106-.55444335-.3977661-1.03076171-.9623413-1.06396484-.5645752-.03320312-1.0491333.38928223-1.08221436.94360352-.4119873 6.60119629-.86584473 12.72680664-1.42077637 18.72802734-.05090332.55200195.36273194 1.04077149.92474366 1.09277344zm-5.71563721 37.40319824c-.05072022.0008545-.10150147-.0008545-.15203858-.0053711-.26800537-.04895019-.50512695-.20092773-.65893554-.42211913-.1538086-.22106934-.21154785-.49316407-.1604004-.75598145 1.10290528-5.85290527 2.10205079-12.08581543 2.96795655-18.52746582.07427978-.55285645.59100342-.94140625 1.1541748-.86779785.5631714.0736084.9595337.58154297.88525391 1.13439941-.86993408 6.47314453-1.8762207 12.74316407-2.99188232 18.62719727-.09387207.48876953-.5378418.83618164-1.04412842.81713867zM24.9923706 118.83105469c-.10699463-.00646973-.21246338-.02844239-.31292725-.06530762-.52709961-.20043945-.79119873-.78100586-.59094238-1.2993164 2.1231079-5.46826172 4.10028076-11.45031739 5.87921142-17.78491212.15014649-.53540039.71411133-.84899902 1.25952149-.70056152.54547119.14855957.86590576.70300293.71569824 1.23828125-1.79956055 6.39404297-3.79467774 12.4383545-5.94134522 17.96582031-.15826416.40734864-.56549072.66796875-1.0092163.6459961z"/>
    <rect width="80" height="120" x="0" y="0" fill="none" rx="0" ry="0"/>
  </g>
</svg>
