<svg xmlns="http://www.w3.org/2000/svg" width="320" height="120" viewBox="0 0 320 120">
  <g>
    <path fill="rgb(96,173,128)" fill-rule="evenodd" d="M261.3895 66.108c-.3501499-.00051262-.68527057-.13138815-.9295-.363-.49996676-.47416172-.48978957-1.23241766.02275-1.695l17.68975-15.93-18.9475-14.733c-.54924718-.4274684-.61909076-1.1850026-.156-1.692.46309076-.5069974 1.28375282-.5714684 1.833-.144l20.0525 15.6c.28154329.21802225.44996603.5358552.46359054.8748483.01362451.3389931-.12882223.667472-.39209054.9041517l-18.71675 16.854c-.24871574.21512083-.57900794.33147274-.91975.324z"/>
    <path fill="rgb(96,173,128)" fill-rule="evenodd" d="M230.66894531 50.62646484c.02246094.49707032.47717285.88330079 1.015625.86254883l.08117676-.0090332c6.21728516-.47998047 12.34680176-.7229004 18.2196045-.7229004.53845214 0 .97497558-.40307616.97497558-.90014648 0-.4970703-.43652344-.89990234-.97497559-.89990234-5.92480468 0-12.10949707.24609375-18.38208008.7319336-.53845214.02075195-.9567871.44042968-.93432617.9375zm-37.49035644 6.43359375c-.49816895.00097657-.91687012-.3449707-.97106934-.80200195-.05432129-.45703125.27331543-.87817383.75976563-.97705078 6.51953125-1.34082031 12.98046875-2.48388672 19.21069336-3.39892578.53222656-.07788086 1.03210449.25732422 1.11645507.74853515.08435059.49121094-.27868652.95263672-.81091308 1.03051758-6.17504883.89990235-12.61328125 2.04296875-19.0904541 3.375-.0703125.01513672-.14233399.02319336-.21447754.02392578zm-38.4798584 9.00439454c.07287598.43847656.48120117.7626953.961792.76342773.100708.00146484.2001953-.01367188.29577636-.04199219l.3737793-.11108398c6.33740234-1.8569336 12.32714843-3.6118164 18.2388916-5.2019043.50134277-.1496582.7833252-.63989258.63659668-1.1069336-.14672852-.46728515-.66894532-.7421875-1.1793213-.62109374-5.93774413 1.59301757-11.93725585 3.3540039-18.28771972 5.21704101l-.3704834.10791016c-.45825195.1340332-.74230957.55615234-.66931152.9946289zM118.12316895 76.6171875h.01293945c.06738281.00463867.1348877.0012207.20141601-.0090332 5.56079102-1.09204102 11.76184082-2.55908203 18.9572754-4.5.33435058-.0900879.59143066-.33789063.67407226-.65039063.08276367-.31225586-.02124023-.64160156-.27294922-.86401367-.25170898-.22216797-.6126709-.30371094-.94714355-.21362305-7.14672852 1.9260254-13.28918457 3.3840332-18.81420899 4.45483399-.4921875.09228515-.82800293.5144043-.7758789.97558593.05163574.45703126.46801757.80395508.96447754.80664063zm-96.8729248-.18920898c-.05828858.00585937-.1171875.00585937-.17547608 0-5.56402588-.93286133-11.82678223-2.07592774-19.14898682-3.49804688-.51293945-.11352539-.83496094-.58300781-.72680664-1.05957031.10821533-.4765625.60736084-.78735352 1.12652588-.70141602 7.30603027 1.41601563 13.55249023 2.55908203 19.09698486 3.48901367.49468994.08447266.83862305.50244141.79400635.96484375-.04467774.46264649-.4631958.8178711-.96624756.8203125v-.01513671zm38.66204833 4.27197265h-.03900146c-6.33428956-.22802734-12.7140503-.7199707-19.5-1.5-.3557129-.02856445-.66607666-.23413086-.80908204-.53613281-.1430664-.30175781-.09588623-.65185547.12286377-.91210938.21881104-.26049804.57434082-.38964843.92669678-.33691406 6.73400879.77416992 13.05847168 1.2631836 19.33752442 1.5.53845214.01000977.96624755.42114258.95544433.91796875-.01074219.49707031-.45599365.89208985-.9944458.88208008v-.01489258zm19.49993897-.08691406c-.53845215.01074219-.98449707-.38354492-.99609375-.88061523-.01171875-.49707032.41540527-.90869141.95385742-.9194336 5.94750976-.25195312 12.288208-.70507812 19.37976074-1.38305664.53845215-.05126953 1.02001953.3100586 1.0756836.8071289.05566406.49707032-.33569337.9416504-.87426758.99291993-7.13049317.68115234-13.50695801 1.13696289-19.5 1.38916015l-.03894043-.00610351z"/>
    <rect width="320" height="120" x="0" y="0" fill="none" rx="0" ry="0"/>
  </g>
</svg>
