<svg xmlns="http://www.w3.org/2000/svg" width="200" height="240" viewBox="0 0 200 240">
  <g>
    <path fill="rgb(96,173,128)" fill-rule="evenodd" d="M11.49899292 20.6130371c.1253357.45336915.53762817.76745606 1.0079956.76806642V21.375c.10021973.00256348.20028687-.00964355.29699708-.03588867.55822753-.15600586.88452148-.73474121.7290039-1.29309082-1.60794067-5.70507813-2.61343384-11.56311035-3-17.47790528-.03643799-.57995605-.5361023-1.0205078-1.11599731-.98400878-.57989502.03637695-1.02044678.53601074-.9840088 1.1159668.3935547 6.0616455 1.4211731 12.06542968 3.06600953 17.91296386zm16.34402466 33.16796876c-.35214234.0012207-.68127442-.17456055-.87600708-.46801758-3.35244751-5.03430176-6.35934448-10.29040527-9-15.7319336-.18896485-.34179687-.17266846-.76013183.04229736-1.08618163.21496582-.32592774.59310913-.5057373.98165894-.4666748.38851928.0390625.72329712.29052734.86904907.65283202 2.60144043 5.35461426 5.56323242 10.52648926 8.86499023 15.47998047.1532898.23266602.2077942.5168457.1515503.78967285-.05627442.27294922-.21871949.5123291-.45153809.66540528-.17486572.10705566-.37701416.16125488-.58200073.15588379v.0090332zm21.90899658 27.5760498c.19888306.20776368.47433472.32495118.7619934.32397461.4206543.00183106.80157472-.24829101.96710206-.63500976.16555786-.38671875.08358765-.83496094-.20809937-1.13806153C46.95599365 75.37805176 42.9510193 70.86901855 39.375 66.50695801c-.23532104-.29821778-.61346436-.446167-.98873901-.38671875-.37527466.05957031-.68914795.31713867-.82070923.67358398-.13153076.35644531-.0602417.75622559.1864624 1.04516602 3.6000061 4.40100097 7.64700317 8.9489746 12 13.5180664zm26.90698242 25.05895996c-.25350952-.00048828-.49841308-.09204101-.69000244-.25805664-4.86898804-4.24194336-9.24899292-8.1989746-13.38900757-12.09594726-.27328491-.25732422-.38861084-.64074707-.30249023-1.00610352.0861206-.36523437.36056518-.65686035.72000122-.76501465.35940552-.10803222.74920654-.01611328 1.02249145.24108887 4.11901856 3.87902832 8.48101807 7.81799317 13.32901001 12.04199219.33041382.28759766.4475708.75012207.2939148 1.16027832-.15368653.41027832-.54586792.68200684-.98391724.6817627zm26.9790039 22.83300782c.18701173.15551758.4227295.24047851.66601563.23999023v-.0090332c.44473267.00195312.84243775-.27648926.99273682-.69506836.15029907-.4185791.02059936-.88647461-.32376099-1.16796875l-6.83398437-5.6040039-2.24398804-1.8359375c-2.4300232-1.97998048-4.83001709-3.98095704-4.83001709-3.98095704-.4465332-.37036133-1.10870361-.30859375-1.4790039.13793945-.3703003.4465332-.3085022 1.10864258.13800048 1.47900391 2.42102051 2.00402832 4.83901978 3.98706055 4.83901978 3.98706055l2.24398804 1.84790039c3.41101074 2.79003906 6.83099365 5.60107422 6.83099365 5.60107422zm28.11297608 23.5559082c-.25891113.00061035-.50891113-.09448242-.70196533-.26696777-4.1040039-3.67492676-8.54400635-7.5300293-13.57800293-11.78393555-.4432373-.37451172-.4989624-1.03735352-.12451172-1.48059082.37445069-.44311523 1.03729248-.49890137 1.48046875-.12451172 5.04901123 4.26904297 9.50402832 8.1361084 13.62304688 11.82299805.324646.29016113.43658447.7503662.28149414 1.15722656-.15515137.40673828-.54516602.67553711-.98052979.67578125zm24.85198975 24.91210938c.19873047.22155761.48236084.34814453.7800293.34790039.41497802.00256347.79223632-.24035645.96179199-.61914063.1696167-.37878418.09942627-.82189941-.17883301-1.12976074-3.77996826-4.20910645-7.9920044-8.59204102-12.52197266-13.02600098-.26409912-.28125-.6611328-.39489746-1.03399658-.29614258-.3729248.09863282-.66168213.3939209-.7520752.7689209-.09039306.375.0321045.76940918.31903077 1.02722168 4.49700928 4.40393067 8.67602539 8.75390625 12.42602539 12.92700196zm22.16400146 29.22888183c-.37164306-.00390625-.71368408-.20336914-.89996338-.52490234-2.98736572-5.15649414-6.2822876-10.12854004-9.86700439-14.88903809-.34796143-.46472168-.2532959-1.12353515.21148682-1.47155762.46472168-.34790039 1.12353515-.25317382 1.47149658.21154786 3.6328125 4.82922363 6.97381592 9.87121582 10.00500488 15.09899902.13891602.24145508.17614746.52819824.10357666.79711914-.0725708.26904297-.24902344.49804688-.49060058.63684082-.16192627.09448242-.34649659.14331055-.53399659.14099121zm11.92803955 29.95202637c-.49169921.00024414-.9173584-.3416748-1.02301025-.82202149-1.03497314-4.62683105-2.409729-9.17114257-4.11297607-13.59594726-.20794678-.54174805.0626831-1.14953613.60449218-1.35754395.54180909-.20788574 1.14953614.06274414 1.35748291.6044922 1.73864746 4.52185058 3.14239502 9.16540526 4.20001221 13.8930664.06072998.27209472.01074219.55725097-.13891601.79248047-.14971924.23522949-.38684083.40124511-.65905762.46154785-.07507324.01538086-.15142822.0234375-.22802735.02392578z"/>
    <rect width="200" height="240" x="0" y="0" fill="none" rx="0" ry="0"/>
  </g>
</svg>
