<svg xmlns="http://www.w3.org/2000/svg" width="120" height="120" viewBox="0 0 120 120">
  <defs>
    <linearGradient id="linearGradient-4" x1="33.031" x2="78.101" y1="57.348" y2="57.348" gradientUnits="userSpaceOnUse">
      <stop offset="0" stop-color="rgb(27,102,174)"/>
      <stop offset="1" stop-color="rgb(28,102,173)"/>
    </linearGradient>
    <linearGradient id="linearGradient-6" x1="43.755" x2="51.102" y1="29.856" y2="29.856" gradientUnits="userSpaceOnUse">
      <stop offset="0" stop-color="rgb(27,102,174)"/>
      <stop offset="1" stop-color="rgb(28,102,173)"/>
    </linearGradient>
    <linearGradient id="linearGradient-9" x1="44.583" x2="46.969" y1="81.425" y2="81.425" gradientUnits="userSpaceOnUse">
      <stop offset="0" stop-color="rgb(27,102,174)"/>
      <stop offset="1" stop-color="rgb(28,102,173)"/>
    </linearGradient>
  </defs>
  <g>
    <g>
      <path fill="rgb(93,182,125)" fill-rule="evenodd" d="M36.29160029 28.28885688c1.62606467-3.09942116-.38584586-7.4858901 2.14971261-9.9811868 1.8189876-1.7861071 5.12623778-2.6266281 7.71691708-2.86302462 9.3981026-.86678728 20.53251153 1.68104198 28.46991195 3.25701884 1.46070217.2889291-.08268125 3.8874096 1.12997715 4.70166431 1.2126584.81425471.19292293 2.39023157-.19292293 3.78234447-.22048334.78798843-.79925212 1.41837917-1.40558132 1.96997108-2.75604182 2.4952967-6.33889618 3.96620843-9.48078385 6.04124463-4.05138147 2.65289439-8.43348795 8.5890739-10.55564015 12.81794515-.9094938-2.25890017-2.01191053-3.41461654-3.41749185-5.43712018-2.2875147-3.25701884-3.74821687-5.64725042-6.31133576-6.33017373-2.56311889-.6829233-5.20891903-1.31331405-7.38619206-2.78422578-2.14971262-1.47091174-3.74821687-4.07127356-3.08676684-6.54030398"/>
      <path fill="rgb(93,182,125)" fill-rule="evenodd" d="M55.2807284 62.09356057c-1.15753757 2.18010133 1.18509797 6.61910282 3.41749184 7.85361803 2.20483346 1.2345152 4.8506336 1.5234443 7.2759504 2.3639653 3.9687002 1.39211289 6.91766495-1.96997108 8.6539713 1.70730826.63388961 1.36584661 1.48826257 9.21946464 1.18509798 10.69037638-.24804377 1.2345152 2.92140432 6.69790166 2.20483345 7.7485529-1.59850426 2.41649786-4.18918356 2.99435604-6.8349837 4.33393638-2.39775638 1.20824892-13.22900072 2.15383504-15.9299217 2.18010132-5.7876878.05253256-6.58693993-3.20448628-12.37462775-3.17822-3.05920641.02626628-6.58693993-.15759769-8.37836711-2.4952967-1.07485631-1.3921129-1.24021882-3.17822-1.3504605-4.91179455-.33072501-4.46526778-.4685271-9.32452977 2.28751471-12.94927655 4.29942523-5.6735167 12.34706733-6.25137489 17.55598637-11.18943572"/>
      <path fill="url(#linearGradient-4)" fill-rule="evenodd" d="M74.82104492 66.1385498c2.64575195 3.38830567 4.18920899 7.35461426 4.85058594 11.50463868.66149902 4.25512695.46850586 8.58911132-.02746582 12.79162597-.27563477 2.2064209-1.0197754 3.7298584-3.03173828 4.99060059-2.01184082 1.26086426-4.3269043 2.10131836-6.58691406 2.836792-8.37841797 2.70544433-17.5834961 2.6529541-26.12731934.7092285-2.12207031-.47277831-4.2166748-1.10327148-6.25610352-1.83862304-1.8741455-.65673828-4.10656738-1.36584473-5.48461914-2.78430176-1.43310547-1.44458008-1.21264648-3.62475586-1.01965332-5.4633789.1928711-1.9699707.44091797-3.93994141.77160645-5.90991211.66149902-3.83483887 1.70874023-7.64343262 3.83093262-11.00549317 1.0472412-1.62854004 2.39770507-2.8894043 3.69311523-4.30773926 1.21264648-1.3395996 2.03942871-2.99438476 3.00402832-4.49157714.9921875-1.57592774 2.26000977-2.88928223 2.81115723-4.70166016.57885742-1.86486816.60632324-3.8873291.27563476-5.80480957-.68896484-4.01867676-2.67333984-7.45959473-5.48449707-10.48022461-1.32287597-1.41833496-2.64575195-2.81054687-3.66552734-4.46533203-1.1850586-1.9173584-1.92919922-4.09753418-2.39782715-6.2775879-.88183594-4.1763916-.66137695-8.53649902.66149902-12.60778808-.49609375.05249024-.93701172-.0526123-.60632324-.6303711.49609375-.8930664 2.0119629-1.41845702 2.9765625-1.73364257 2.34265137-.76171875 4.74035645-1.3395996 7.16564941-1.7335205 9.75634766-1.62854005 19.73327637-.31518555 29.32434083 1.7335205 1.62597656.34143066 4.76794433.47277832 5.45690918 2.25891113.26074218.6628418.26452636 1.4888916.26794433 2.24645996.00097656.203125.00183106.40148926.00769043.59033204.0275879.94555664.05505371 1.9173584.0275879 2.8630371-.1102295 3.99243165-1.04736329 7.8536377-3.94116212 10.87426758-3.1418457 3.25695801-6.39404297 6.43518067-8.76428222 10.27001953-1.12988282 1.83862305-2.20483399 3.88745118-1.98425293 6.06750489.19287109 2.04882812 1.18505859 3.9925537 2.42529296 5.64733886 1.21264649 1.57592774 2.72851563 2.94177247 4.0789795 4.43896485 1.29528808 1.41833496 2.56311035 2.88928222 3.74816894 4.41271972zm.13781738 26.68664551c.13781739-.91931152.24804688-1.86499023.33081055-2.81054687.1928711-2.07507324.2755127-4.17626953.1652832-6.25134278-.1652832-4.01879882-.9921875-8.03747558-2.83874511-11.66223144-1.68115235-3.2833252-4.2442627-6.12011719-6.77978516-8.85180664-2.70092773-2.91552735-5.67749023-5.75231934-5.89794922-9.87609863-.1928711-3.8873291 2.83874512-7.74853516 5.26403809-10.63781739 1.37805176-1.62854004 2.83874512-3.20446777 4.32702637-4.72790527 1.43310546-1.47094727 2.92138671-2.836792 3.74816894-4.70166016 1.54333496-3.4934082 1.59851074-7.6697998 1.26782227-11.39953613-.08276368-.94567871-.33081055-1.65478516-1.29541016-2.022583-.9645996-.3939209-2.0670166-.55151368-3.086792-.76171876-2.25988769-.49902344-4.54736327-.94555664-6.86254882-1.3395996-7.99243164-1.33959962-16.3708496-1.86486817-24.30822754-.07873536-.49609375 1.60217285-.7993164 3.28320313-.93701172 4.96435547-.30322265 4.28137207.52355957 8.930542 2.67333985 12.68652344 1.90161132 3.23083496 5.0986328 5.5159912 6.97277832 8.77294922 1.79138183 3.12573242 2.81115722 6.90808105 2.42529296 10.4802246-.38586425 3.54602051-2.81115722 6.1201172-4.65771484 9.08813477-1.8741455 3.046875-4.76794433 5.2532959-6.36645508 8.48400879-1.68115234 3.38842773-2.45288086 7.14453125-2.9765625 10.84802246-.24804687 1.83862305-.52355957 3.70349121-.60632324 5.54223633-.0826416 2.33764648.93713379 3.83483887 3.11437988 4.83288574 3.66552735 1.70739746 7.66174317 2.836792 11.63049317 3.57226563 4.18920898.76171875 8.48864746 1.02441406 12.76049804.70922851 2.0670166-.13134765 4.1340332-.4465332 6.1184082-.91931152.93701173-.21020508 1.87402345-.4729004 2.78356934-.78808594.65966797-.20947265 1.86755371-.47131348 2.39343262-.94165039-.05407715.04638672.0432129-.15576172.147583-.3725586.079834-.16601562.16394044-.34069824.1875-.41931152.16528321-.47277832.220459-.94555664.3031006-1.41833496z"/>
      <path fill="url(#linearGradient-6)" fill-rule="evenodd" d="M42.8509798 20.69790166c-.24804376 1.78610711.05512084 3.5984805.3031646 5.38458762.24804377 1.70730826.6063292 3.44088281 1.29533966 5.06939223 1.24021882 2.9155572 4.18918356 4.88552828 5.20891903 7.9061506.38584585 1.15571636 2.81116265.86678727 2.37019596-.52532563-.93705422-2.86302463-3.6379752-4.67539802-4.93331485-7.3282924-.71657087-1.47091174-1.0748563-3.07315488-1.32290007-4.64913175-.27560418-1.73357454-.66145004-3.57221422-.41340627-5.33205505.1653625-1.28704777-2.31507513-1.7861071-2.50799805-.52532562z"/>
      <path fill="rgb(93,182,125)" fill-rule="evenodd" d="M53.18613661 44.23248947c.41340627 1.81237339.16536251 3.7298119.35828544 5.56845158.22048334 2.2063676 1.10241672 4.30767009 1.10241672 6.56657026 0 2.4952967-1.10241672 4.33393637-2.67336056 6.25137488-1.76386676 2.15383505-3.5001731 4.28140381-5.26403986 6.40897257-.68901046.840521 1.73630634 1.5234443 2.37019596.73545587 1.79142718-2.2063676 3.61041478-4.38646893 5.40184196-6.59283654 1.59850425-1.96997107 2.67336056-3.93994215 2.67336056-6.48777141.02756041-2.25890017-.71657088-4.3076701-1.07485631-6.5140377-.33072502-1.99623736.02756042-4.04500728-.41340627-6.04124464-.22048335-.91931983-2.75604182-.99811867-2.48043764.10506513z"/>
      <path fill="url(#linearGradient-9)" fill-rule="evenodd" d="M45.52434037 72.46874158c-2.31507513 5.35832133-1.87410844 11.37329969-1.87410844 17.04681639 0 .63039074 2.34263554 1.07691752 2.34263554.94558612 0-5.6735167-.44096669-11.68849506 1.87410844-17.0468164.19292293-.3939942-2.17727303-1.33958033-2.34263554-.94558611z"/>
    </g>
    <rect width="120" height="120" x="0" y="0" fill="none"/>
  </g>
</svg>
