<svg xmlns="http://www.w3.org/2000/svg" width="120" height="120" viewBox="0 0 120 120">
  <defs>
    <linearGradient id="linearGradient-2" x1="26.555" x2="66.44" y1="57.328" y2="57.328" gradientUnits="userSpaceOnUse">
      <stop offset="0" stop-color="rgb(27,102,174)"/>
      <stop offset="1" stop-color="rgb(28,102,173)"/>
    </linearGradient>
    <linearGradient id="linearGradient-4" x1="34.397" x2="54.764" y1="48.357" y2="48.357" gradientUnits="userSpaceOnUse">
      <stop offset="0" stop-color="rgb(27,102,174)"/>
      <stop offset="1" stop-color="rgb(28,102,173)"/>
    </linearGradient>
    <linearGradient id="linearGradient-6" x1="34.395" x2="55.58" y1="60.795" y2="60.795" gradientUnits="userSpaceOnUse">
      <stop offset="0" stop-color="rgb(27,102,174)"/>
      <stop offset="1" stop-color="rgb(28,102,173)"/>
    </linearGradient>
    <linearGradient id="linearGradient-8" x1="33.416" x2="55.75" y1="73.498" y2="73.498" gradientUnits="userSpaceOnUse">
      <stop offset="0" stop-color="rgb(27,102,174)"/>
      <stop offset="1" stop-color="rgb(28,102,173)"/>
    </linearGradient>
    <linearGradient id="linearGradient-11" x1="67.497" x2="83.985" y1="58.425" y2="58.425" gradientUnits="userSpaceOnUse">
      <stop offset="0" stop-color="rgb(27,102,174)"/>
      <stop offset="1" stop-color="rgb(28,102,173)"/>
    </linearGradient>
    <linearGradient id="linearGradient-15" x1="76.377" x2="94.716" y1="70.415" y2="70.415" gradientUnits="userSpaceOnUse">
      <stop offset="0" stop-color="rgb(27,102,174)"/>
      <stop offset="1" stop-color="rgb(28,102,173)"/>
    </linearGradient>
    <linearGradient id="linearGradient-17" x1="88.326" x2="106.956" y1="98.197" y2="98.197" gradientUnits="userSpaceOnUse">
      <stop offset="0" stop-color="rgb(27,102,174)"/>
      <stop offset="1" stop-color="rgb(28,102,173)"/>
    </linearGradient>
  </defs>
  <g>
    <g>
      <g>
        <path fill="url(#linearGradient-2)" fill-rule="evenodd" d="M70.6052246 82.98986816c-.104187-2.06018066-.39068603-4.14648437-.62512206-6.2067871-.46887207-3.93786622-1.01586914-7.8758545-1.4586792-11.81384278-.88562012-8.00622558-1.25030518-16.16894531.91168213-24.01879883.31256103-1.14746093-.18237305-2.42529297-1.09399414-3.18164062l-.23443604-.15649414c-1.82336425-7.51074219-7.26739502-13.74365235-14.612854-16.32543946-.33862305-.10437011-.5991211-.07824707-.8334961.07824707-.46887206-.18261718-.96380615-.2869873-1.4847412-.33911132-1.25244141-.1044922-2.53839112.04223632-3.79180909.18530273-.30999756.0354004-.61798095.07055664-.92285156.1015625-2.0838623.20861817-4.14160156.41723633-6.19940186.62597656-1.74517822.18249512-3.49041748.3651123-5.20953369.54760743-1.84942627.20861816-3.75091552.26074218-5.57427978.62585449-1.74517822.33911133-2.34429932 1.51257324-2.52661133 3.15563965-.23443604 1.90380859-.33862305 3.83361816-.52093506 5.76342773-.7033081 7.69335938-1.40661621 15.3605957-2.10992432 23.05395508-.67724609 7.51074219-1.38049316 15.04760742-2.05773925 22.5583496l-.02789307.30847169c-.30584717 3.37280273-.62139893 6.85253906 1.14794922 9.91455078 1.48468018 2.5817871 4.01135254 4.14660644 6.79846191 4.92895508 2.8036499.78393554 5.8032837.78320312 8.69006348.78234863h.27038574c3.5164795 0 7.03289795-.18249512 10.52331543-.57373047 3.64672852-.39123535 7.26733399-.9909668 10.8359375-1.79943848 1.71911621-.39123535 3.43829346-.78234863 5.10534668-1.30395507 1.3805542-.41723633 2.73504639-.93884278 3.75091553-2.0341797 1.19818115-1.33007812 1.35443115-3.15551757 1.25024414-4.87683105zm-6.27752685 2.321167c1.22424317-.44335938 2.44848633-1.06933594 2.63079834-2.47753907.1239624-1.0546875-.04693603-2.17504882-.21392822-3.26989746-.0435791-.2857666-.08691406-.56982422-.12469482-.85058593-.26330567-2.5020752-.57989502-5.01330567-.89709473-7.52990723-1.28308105-10.17919922-2.5772705-20.446167-.40527344-30.54553223-5.54821777-.39123535-10.34100342-4.9029541-11.46105957-10.35339355-.260437-1.22570801-.28649902-2.50366211-.57305908-3.72937012-.23443603-1.01708984-.70324707-1.14746094-2.05773926-1.09533691-3.88116455.18261718-7.78833008.7302246-11.64337158 1.14746093-1.82336426.20874024-3.64672851.39123536-5.47009277.59985352-.8595581.10437012-1.74517823.18261719-2.60473633.28686523-.1060791.01269532-.19970703.02062989-.28271484.02770996-.42651368.03588868-.57208252.04821778-.68109131.57214356-.31256104 1.7211914-.31256104 3.57287598-.46887207 5.29406738-.15625 1.77331543-.31256104 3.52062988-.46881104 5.29406738-.65124512 7.22387696-1.3024292 14.42163086-1.95361328 21.61950684-.65118408 7.01525879-1.32843018 14.03051758-1.92755127 21.04577637l-.0100708.13232422c-.17999268 2.35766601-.3640747 4.7689209 1.91156006 6.07458496 2.00567627 1.14746094 4.50628662 1.40820312 6.77246094 1.4864502 6.87664795.26074218 13.77929687-.28686524 20.5256958-1.51257325 3.12573242-.57373047 6.40777588-1.14746094 9.40325927-2.2166748zm-.078125-49.13293457c-1.87542724-.15649414-3.6987915-.93884278-5.05322265-2.29504395-1.84942627-1.8515625-1.74523926-4.09436035-2.21411133-6.4675293l-.078125-.31298828c3.43829346 2.00805664 6.12121582 5.29406739 7.34545898 9.07556153z"/>
        <path fill="url(#linearGradient-4)" fill-rule="evenodd" d="M34.84157829 50.20856664H54.5858305c1.04191305 0 2.34430436-.88668863 2.26616088-2.03416803-.1041913-1.2778748-1.51077392-1.64298188-2.55268696-1.64298188H34.5550522c-1.04191305 0-2.34430435.88668863-2.26616087 2.03416804.1041913 1.25179571 1.51077391 1.64298187 2.55268696 1.64298187z"/>
        <path fill="url(#linearGradient-6)" fill-rule="evenodd" d="M33.90385655 60.66627666c.46886087.39118616 1.32843913 1.35611202 2.00568261 1.35611202h18.85862613c.36466956 0 .78143478-.02607907 1.22424783-.05215815.33862174.28686985.7032913.52158155 1.04191304.67805601.23443044.10431631.5991.2347117.72933913-.13039539.1041913-.31294892-.39071739-.73021416-.57305217-.93884678-.8856261-.93884679-2.2922087-2.39927512-3.62064784-2.6600659-1.22424782-.23471169-2.73502174-.02607907-3.9853174-.02607907h-17.3478522c-.07814348 0 .44281304.59981878.44281304.59981878.36466956.44334432.8074826.8084514 1.22424783 1.17355848z"/>
        <path fill="url(#linearGradient-8)" fill-rule="evenodd" d="M55.0807392 72.1410707c-7.42363045-.28686985-14.87330873-.5737397-22.29693918-.83453048-1.01586522-.02607907-1.95358696.8084514-1.5889174 1.8516145.41676523 1.17355848 1.79730001 1.64298187 2.89130871 1.69514002 7.42363045.28686985 14.87330873.5737397 22.29693918.83453048 1.01586522.02607908 1.95358696-.8084514 1.5889174-1.8516145-.41676523-1.1474794-1.77125219-1.64298187-2.89130871-1.69514002z"/>
      </g>
      <ellipse cx="73.783" cy="68.542" fill="rgb(255,255,255)" rx="21.359" ry="21.385"/>
      <g>
        <g>
          <path fill="url(#linearGradient-11)" fill-rule="evenodd" d="M68.67770445 53.54668854c-.8856261 2.06024711-1.82334783 4.30304777-1.61496522 6.59800657.15628695 1.6169028.88562608 3.05125206 2.05777826 4.17265238 2.37035218 2.2949588 6.09519132 3.15556836 9.22093046 2.11240527 3.07364348-.99100494 5.60028262-3.72930806 6.01704783-6.96311366.46886087-3.41635913-1.7973-6.49369026-4.66256088-8.11059306-3.17783478-1.79945633-8.23111306-2.1906425-10.80984784.88668863-.4949087.59981878.33862174 1.25179572.8074826.67805602 2.03173045-2.4253542 5.93890437-2.1906425 8.5697348-.99100494 2.5787348 1.17355848 4.92303915 3.65107083 5.00118263 6.59800657.07814347 2.84261943-1.90149131 5.45052717-4.45417827 6.59800657-2.6829261 1.19963756-5.93890436.67805601-8.23111307-1.12140033-1.22424782-.96492586-2.13592174-2.26887973-2.34430435-3.83362437-.31257391-2.24280065.67724348-4.45952223 1.53682174-6.46761118.31257392-.67805601-.83353043-.75629325-1.0940087-.15647447z"/>
          <path fill="rgb(93,182,125)" fill-rule="evenodd" d="M76.5962436 61.29217452c-2.96945219-.339028-6.38171741-.31294893-8.67392611 1.82553541-2.9955 2.79046128-4.55836958 8.16275122-3.41226523 11.83990112 1.1982 3.9118616 3.93322175 6.96311366 7.99668263 8.47570014 3.02154783 1.12140033 8.6739261 1.2778748 10.60146524-1.64298187 1.1982-1.79945634-1.38053479-4.01617791-2.57873479-2.1906425-1.40658261 2.13848435-7.44967828.96492587-9.11673915-.26079077-2.03173044-1.51258649-2.83921305-3.46851729-3.54250435-5.81563425-.75538696-2.50359143.33862174-6.38937395 2.73502174-8.0584349 1.4847261-1.0431631 3.5946-1.01708402 5.36585219-.8084514 2.16196957.20863262 2.7871174-3.1034102.62514782-3.36420098z"/>
          <path fill="rgb(93,182,125)" fill-rule="evenodd" d="M72.79326098 82.02504102s1.43263043 7.17174627 0 7.17174627c-1.43263044 0-2.86526088 0-2.86526088 1.43434926 0 1.43434925 2.86526088 1.43434925 2.86526088 1.43434925v10.04044478c0 1.43434926-2.6829261 1.0431631-3.4904087 1.25179572-.80748262.18255354-2.24011305 1.6169028-.80748262 3.05125205 1.43263044 1.43434925 7.1631522 0 7.1631522 0l1.43263043-22.94958808"/>
          <path fill="url(#linearGradient-15)" fill-rule="evenodd" d="M80.633667 57.92797852c6.74639892-1.22570801 12.91973876.91271972 15.75897216 7.90197753 2.16192627 5.26794434 2.00567627 14.65637207-4.4020996 16.79492188-5.6524048 1.9038086-15.21191407.41723633-17.97302247-5.50268555-2.55267334-5.45056152-.7553711-14.18701172 3.95928955-18.09887695.20837402-.28686523.54699707-.54760742.96374512-.70410156.02606201-.02612305.05212402-.02612305.07818603-.0522461.57299805-.33898925 1.12005616-.4432373 1.6149292-.33898925zM78.70611571 75.3227539c1.79730225 3.02514648 7.44970703 3.75537109 10.75775147 2.94689941 4.58441162-1.12133789 3.75091552-8.475708 1.97961426-11.65734863-2.34429932-4.17260742-6.19934082-4.7463379-10.4451294-3.80749512-3.04760742 2.45141602-4.19372559 9.28417969-2.29223633 12.51794434z"/>
        </g>
        <path fill="url(#linearGradient-17)" fill-rule="evenodd" d="M88.31776536 83.12036227l7.16315219 12.90914329s-2.86526088 1.43434925-2.86526088 2.8686985c0 1.43434926 1.43263044 1.43434926 1.43263044 1.43434926l2.86526087-1.43434925s4.0895087 8.24098844 3.4904087 9.85789124c-.62514782 1.6169028-3.28202609 2.03416803-3.3862174 2.55574958-.1041913.52158155-.1041913 3.39028006 1.32843914 3.39028006s8.59578263-2.86869851 8.59578263-4.30304777c0-1.43434925-12.89367394-25.81828658-12.89367394-28.6869851"/>
      </g>
    </g>
    <rect width="120" height="120" x="0" y="0" fill="none"/>
  </g>
</svg>
