<svg width="20" height="14" viewBox="0 0 20 14" fill="none" xmlns="http://www.w3.org/2000/svg">
<path d="M0 13C0 13.5522 0.447812 14 1 14H19C19.5522 14 20 13.5522 20 13V3H0V13ZM14 6.5C14 6.22375 14.2238 6 14.5 6H17.5C17.7763 6 18 6.22375 18 6.5V7.5C18 7.77625 17.7763 8 17.5 8H14.5C14.2238 8 14 7.77625 14 7.5V6.5ZM14 10.25C14 10.1119 14.1119 10 14.25 10H17.75C17.8881 10 18 10.1119 18 10.25V10.75C18 10.8881 17.8881 11 17.75 11H14.25C14.1119 11 14 10.8881 14 10.75V10.25ZM2 7.25C2 7.11188 2.11188 7 2.25 7H11.75C11.8881 7 12 7.11188 12 7.25V7.75C12 7.88812 11.8881 8 11.75 8H2.25C2.11188 8 2 7.88812 2 7.75V7.25ZM2 10.25C2 10.1119 2.11188 10 2.25 10H7.75C7.88812 10 8 10.1119 8 10.25V10.75C8 10.8881 7.88812 11 7.75 11H2.25C2.11188 11 2 10.8881 2 10.75V10.25ZM19.5 0H0.5C0.22375 0 0 0.22375 0 0.5V2H20V0.5C20 0.22375 19.7763 0 19.5 0Z" fill="white"/>
</svg>
