<svg width="113" height="113" viewBox="0 0 113 113" fill="none" xmlns="http://www.w3.org/2000/svg">
<circle cx="50.5" cy="53.5" r="21" stroke="white" stroke-width="7"/>
<circle cx="99.874" cy="49.5" r="9" stroke="white" stroke-width="7"/>
<circle cx="19.5" cy="12.5" r="9" stroke="white" stroke-width="7"/>
<rect x="24" y="22.7351" width="6" height="17.8636" transform="rotate(-38.5 24 22.7351)" fill="white"/>
<rect x="74" y="53.138" width="6" height="14.711" transform="rotate(-90 74 53.138)" fill="white"/>
<rect x="21.3379" y="93.9851" width="6" height="26.1629" transform="rotate(-142 21.3379 93.9851)" fill="white"/>
<circle cx="12.5" cy="100.5" r="9" stroke="white" stroke-width="7"/>
<path d="M41 59C41 59.5522 41.4478 60 42 60H60C60.5522 60 61 59.5522 61 59V49H41V59ZM55 52.5C55 52.2238 55.2238 52 55.5 52H58.5C58.7763 52 59 52.2238 59 52.5V53.5C59 53.7762 58.7763 54 58.5 54H55.5C55.2238 54 55 53.7762 55 53.5V52.5ZM55 56.25C55 56.1119 55.1119 56 55.25 56H58.75C58.8881 56 59 56.1119 59 56.25V56.75C59 56.8881 58.8881 57 58.75 57H55.25C55.1119 57 55 56.8881 55 56.75V56.25ZM43 53.25C43 53.1119 43.1119 53 43.25 53H52.75C52.8881 53 53 53.1119 53 53.25V53.75C53 53.8881 52.8881 54 52.75 54H43.25C43.1119 54 43 53.8881 43 53.75V53.25ZM43 56.25C43 56.1119 43.1119 56 43.25 56H48.75C48.8881 56 49 56.1119 49 56.25V56.75C49 56.8881 48.8881 57 48.75 57H43.25C43.1119 57 43 56.8881 43 56.75V56.25ZM60.5 46H41.5C41.2237 46 41 46.2237 41 46.5V48H61V46.5C61 46.2237 60.7763 46 60.5 46Z" fill="white"/>
</svg>
