<svg xmlns="http://www.w3.org/2000/svg" xmlns:xlink="http://www.w3.org/1999/xlink" viewBox="0 0 4000 1998.72"><defs><style>.cls-1{fill:#b53955;}.cls-2{fill:#fff;}</style></defs><g id="Calque_2" data-name="Calque 2"><g id="Calque_1-2" data-name="Calque 1"><rect class="cls-1" width="4000" height="1998.72"/><path class="cls-2" d="M484.34,1610.7H607.67a0,0,0,0,1,0,0v47.38a2,2,0,0,1-2,2H486.29a2,2,0,0,1-2-2V1610.7a0,0,0,0,1,0,0Z" transform="translate(225.18 -58.63) rotate(7.74)"/><path d="M602.12,1668a1.37,1.37,0,0,1-.28,0L483.5,1651.89a2.07,2.07,0,0,1-1.78-2.34l6.4-47.07,122.46,16.64,0,.12-6.38,47A2.08,2.08,0,0,1,602.12,1668Zm-.24-.26a1.83,1.83,0,0,0,2-1.57l6.36-46.83-122-16.57L482,1649.59a1.81,1.81,0,0,0,1.56,2.05Z"/><path class="cls-2" d="M493,1576.61H612.29a2,2,0,0,1,2,2v17.7a0,0,0,0,1,0,0H491a0,0,0,0,1,0,0v-17.7A2,2,0,0,1,493,1576.61Z" transform="translate(218.66 -59.97) rotate(7.74)"/><path d="M612.54,1604.7l-122.46-16.64v-.12l2.39-17.54a2.15,2.15,0,0,1,2.42-1.85l118.19,16.06a2.11,2.11,0,0,1,1.42.83,2.14,2.14,0,0,1,.42,1.6Zm-122.18-16.85,122,16.57,2.37-17.42a1.89,1.89,0,0,0-1.64-2.14L494.87,1568.8a1.87,1.87,0,0,0-1.41.37,1.9,1.9,0,0,0-.74,1.26Z"/><path class="cls-1" d="M435,1635.8a277.38,277.38,0,0,0,2.55,62.15c.44,2.85,1,5.91,3.13,7.89,1.67,1.58,4,2.18,6.24,2.7a247,247,0,0,0,113-.31c2.55-.61,5.23-1.35,7-3.26,2.29-2.43,2.52-6.09,2.62-9.42q.9-31.32.67-62.64c0-1.56-.06-3.25-1-4.49-1.15-1.51-3.24-1.88-5.13-2.11-11.68-1.44-23.45-2-35.2-2.61l-85.92-4.29c-2.46-.12-5.31-.08-6.87,1.82-2.93,3.57,1.39,10.14-2.1,13.16"/><path class="cls-2" d="M572.14,1626c-1-2.5-3.33-3-5.78-3.35-4.19-.6-8.43-.93-12.64-1.26-15.61-1.25-31.28-1.79-46.91-2.57l-53-2.64c-3.78-.19-7.79-.8-11.56-.4-2.87.31-4.59,1.86-6.22,4.13-1.46,2.06-2.39,3.06-2.81,5.59a21.86,21.86,0,0,0-.31,5c.06.57,0,1.79,0,2.37l-.38,6.49a282,282,0,0,0,.68,47.39q.56,5.64,1.35,11.26c.42,3,.66,6.24,1.94,9,2.83,6.07,12.39,6.36,18.12,7.44a247.93,247.93,0,0,0,89.71.35q5.42-1,10.77-2.19c3.18-.73,6.66-1.29,9.27-3.41,4.09-3.31,6.82-9.07,7.33-14.24.75-7.5.49-15.22.62-22.75q.21-11.75.25-23.49c0-3.79,0-7.59,0-11.39C572.62,1633.89,573.44,1629.14,572.14,1626Zm-5.08,76.81c.05-.11.11-.16.17-.1S567.17,1702.71,567.06,1702.76Zm.47-20.82c-.13,7-.66,14-.77,21-.55.26-1.39.63-1.55.7a35.25,35.25,0,0,1-4.61,1.24q-5.36,1.26-10.75,2.26a246.59,246.59,0,0,1-84.48.91q-5.76-.93-11.47-2.15c-3.23-.68-7.29-1.07-10-3-2.94-2.09-3.52-5.72-4-9.06q-.92-6-1.55-11.94c-1.77-16.45-1.4-32-1-48.58.05-1,.11-7.23.1-9.84a22.11,22.11,0,0,1,2.74-.31c2.07,0,4.14.2,6.2.3l43.68,2.18c14.52.73,29.05,1.41,43.57,2.18,7,.38,14.1.81,21.13,1.49,3,.29,6.47.27,9.39,1.21,3.81,1.23,3.67,4.6,3.69,8Q567.94,1660.23,567.53,1681.94Z"/><path class="cls-2" d="M435.2,1660.63c24.36,2.52,49,2.14,73.44,3.19,16,.7,32.09,1.47,48.11,1,3-.1,6.81.15,9.67-1,3.21-1.33,4.89-6.28,5.74-9.33.26-.93,1.71-8.18-1.18-7-2.29,1-5.19.85-7.62,1-5.75.27-11.52.19-17.27.1-21.24-.34-42.45-1.64-63.68-2.11-13.68-.31-27.36-.68-41-2.09-5-.52-9.31,16-6.23,16.34Z"/><path class="cls-2" d="M451.72,1692.26l9.32,0c.4,0,.81-.79.94-1a17.08,17.08,0,0,0,1.35-2.79,18.4,18.4,0,0,0,1-2.94c0-.17.31-1.38,0-1.38l-9.32,0c-.39,0-.81.79-.94,1a23.85,23.85,0,0,0-2.31,5.74c0,.16-.32,1.37,0,1.37Z"/><path class="cls-2" d="M537.16,1660.76l4.18,96.54q103.6,6.2,207.33,9.74c3,.1,6.2.13,8.6-1.62,2.93-2.13,3.64-6.14,4.12-9.74,3.71-27.85,4-59.09,4.05-91.15-77.46-8.2-148.06-6.72-225.85-10.72"/><path class="cls-1" d="M534.49,1661.66l4.19,96.54a1.86,1.86,0,0,0,1.89,2q66.64,4,133.36,6.88,33.35,1.44,66.71,2.61c8.33.3,17.8,1.62,21.71-7.57,1.48-3.48,1.74-7.44,2.19-11.15.62-5.13,1.12-10.28,1.53-15.43,1.91-23.93,2-48,2-72,0-.75-.33-1.89-1.26-2-58.33-6.13-117-7-175.52-8.75-17-.53-34-1.16-51-2-2.82-.14-5.22,5.72-1.55,5.91,58.09,3,116.3,2.92,174.37,6.48,17,1,33.93,2.4,50.84,4.18l-1.26-2c0,20.24-.13,40.5-1.27,60.71-.53,9.34-1.29,18.66-2.45,27.94-.52,4.16-.5,9.32-5.65,10s-10.51-.17-15.55-.35q-62.39-2.22-124.72-5.4-35.5-1.82-71-3.94l1.89,2.05-4.18-96.54c-.18-4-5.47-1.12-5.34,1.81Z"/><path class="cls-1" d="M651.46,1683.05c-1.11-1-4.68-.56-6-.39L635.17,1684l-4.81.64-2.74.36c.71-.1.76-.52.13-1.24-.24-1.31-4.83-1-5.53-1-8.38.67-17.22,2.24-25.6,1.1-8.11-1.1-16.11-3.51-24-5.44a12,12,0,0,0-6.19,0c-1.3.46-1.72,1,0,1.41,9.41,2.29,18.85,5.09,28.51,6.08,8.22.85,16.54,0,24.77-.76,2,2.43,7.41,2.08,9.94,1.89,6.77-.54,13.55-1.76,20.28-2.65C650.93,1684.27,652.63,1684.07,651.46,1683.05Z"/><path class="cls-1" d="M651.4,1708.93c-1.11-1-4.68-.56-6-.39l-10.31,1.37-4.81.64-2.74.36c.71-.1.76-.51.13-1.24-.24-1.31-4.83-1-5.53-1-8.38.67-17.22,2.24-25.59,1.1-8.12-1.1-16.12-3.51-24.06-5.44a12,12,0,0,0-6.18,0c-1.31.46-1.73,1,0,1.41,9.41,2.29,18.85,5.09,28.51,6.08,8.22.85,16.54,0,24.78-.76,1.95,2.43,7.4,2.09,9.93,1.89,6.77-.54,13.55-1.76,20.28-2.65C650.87,1710.15,652.57,1710,651.4,1708.93Z"/><path class="cls-1" d="M651.34,1734.81c-1.11-1-4.68-.56-6-.39l-10.31,1.37-4.81.64-2.74.36c.71-.1.76-.51.13-1.24-.24-1.31-4.83-1-5.53-1-8.38.67-17.22,2.24-25.59,1.1-8.12-1.1-16.12-3.51-24.06-5.44a12,12,0,0,0-6.18,0c-1.31.46-1.73,1,0,1.41,9.41,2.29,18.85,5.09,28.51,6.08,8.22.85,16.54,0,24.78-.76,2,2.43,7.4,2.09,9.93,1.89,6.77-.54,13.55-1.76,20.28-2.65C650.81,1736,652.51,1735.83,651.34,1734.81Z"/><path class="cls-1" d="M748,1744c-3.61-4.85-9.34-5.8-14.91-7a27.61,27.61,0,0,0-4.85-1.1c-1.45,0-2.68.42-4.17.1a8.54,8.54,0,0,1-5.87-4.63,2.31,2.31,0,0,0-3.66-.36c-3.42,3.58-8,8.67-13.47,8.23a6.86,6.86,0,0,1-4.61-2.66c-.58-.74-2-2.81-1.07-3.75,1.11-1.13,1.87-3,1-4.47a2.31,2.31,0,0,0-3.66-.36c-5.15,5.24-2.86,13.39,3.46,16.56,6.85,3.44,13.91-1.78,18.93-6.64a13.19,13.19,0,0,0,11.06,4.49c3.16-.15,6.83,1.11,9.91,1.91,2.58.67,5.56,1.59,7.23,3.84C745.67,1751.17,750,1746.55,748,1744Z"/><path class="cls-1" d="M726.28,1679.75c-8.51-.5-15,7.06-16.47,14.92a18,18,0,0,0,10.73,19.94A21,21,0,0,0,733.8,1716c2.5-.57,3.1-7.06.25-6.41-7.55,1.72-17.17-1.77-19.95-9.51a9.48,9.48,0,0,1,1.59-9.21,10.94,10.94,0,0,1,9.27-4.7c1.5.09,2.34-1.53,2.6-2.81.19-.93.2-3.53-1.28-3.61Z"/><path class="cls-1" d="M704.78,1698a60.76,60.76,0,0,0,22.9-1.58c.72-.2,2.28-1,1.05-1.72s-3.2-.44-4.51-.1a42.66,42.66,0,0,1-8.1,1.34,44.69,44.69,0,0,1-8.2-.25c-1.37-.17-3.3-.13-4.44.77s.58,1.45,1.3,1.54Z"/><path class="cls-1" d="M702.14,1707.42c9.53,1.6,19-1,27.07-6.14,1.11-.72,2.66-2.11,2.83-3.51s-1.35-.82-2-.37a33.81,33.81,0,0,1-23.88,5.06c-1.28-.22-2.76,1.37-3.46,2.25-.34.42-1.77,2.5-.51,2.71Z"/><path class="cls-2" d="M1756,1992h0a4,4,0,0,1-4-4c0-10.5.59-21,1.62-31.26a4,4,0,0,1,8,.8c-1,10-1.54,20.25-1.58,30.5A4,4,0,0,1,1756,1992Zm13.33-77.53a4.3,4.3,0,0,1-1.17-.17,4,4,0,0,1-2.66-5,316.32,316.32,0,0,1,23.24-56,4,4,0,0,1,7.06,3.76,306.89,306.89,0,0,0-22.64,54.55A4,4,0,0,1,1769.36,1914.47ZM1825,1809a4,4,0,0,1-3.15-6.45,419.46,419.46,0,0,1,40.6-44.85,4,4,0,1,1,5.54,5.77,412.68,412.68,0,0,0-39.83,44A4,4,0,0,1,1825,1809Zm85.92-83.24a4,4,0,0,1-2.42-7.19c15.45-11.69,32.23-23.13,49.88-34a4,4,0,0,1,4.2,6.81c-17.43,10.74-34,22-49.25,33.57A4,4,0,0,1,1910.89,1725.78Zm1089.23-34.73h-.34a562.71,562.71,0,0,1-59.81-8.49,4,4,0,1,1,1.5-7.85,560.17,560.17,0,0,0,59,8.37,4,4,0,0,1-.32,8Zm59.88-.49a4,4,0,0,1-.48-8c1.2-.15,2.4-.3,3.58-.47,19-2.63,37.53-5.9,55.13-9.73a4,4,0,0,1,1.7,7.82c-17.8,3.87-36.55,7.18-55.72,9.84-1.24.17-2.48.33-3.73.48Zm-177.84-21.07a4.11,4.11,0,0,1-1-.12c-17.13-4.31-36.13-9.43-58.08-15.64a4,4,0,1,1,2.18-7.7c21.88,6.19,40.8,11.29,57.85,15.58a4,4,0,0,1-1,7.88Zm294.84-4.66a4,4,0,0,1-1.23-7.81,509.64,509.64,0,0,0,55.48-21.42,4,4,0,1,1,3.32,7.28,517.87,517.87,0,0,1-56.35,21.75A4,4,0,0,1,3177,1664.83Zm-1164.23-2.21a4,4,0,0,1-1.83-7.56c17.31-8.87,35.66-17.51,54.53-25.66a4,4,0,0,1,3.18,7.34c-18.72,8.09-36.9,16.65-54.06,25.44A4,4,0,0,1,2012.77,1662.62Zm753.76-25.45a4.08,4.08,0,0,1-1.13-.17l-10.63-3.13c-15.32-4.5-31.16-9.17-47-13.74a4,4,0,0,1,2.23-7.69c15.81,4.58,31.66,9.25,47,13.76l10.63,3.13a4,4,0,0,1-1.13,7.84Zm-643.72-22.32a4,4,0,0,1-1.38-7.76c18.39-6.75,37.58-13.26,57.06-19.34a4,4,0,0,1,2.39,7.63c-19.35,6-38.43,12.52-56.69,19.22A4,4,0,0,1,2122.81,1614.85Zm1162.8-.12a4,4,0,0,1-2.15-7.38,389.24,389.24,0,0,0,47.5-35.49,4,4,0,0,1,5.27,6,397,397,0,0,1-48.48,36.22A3.92,3.92,0,0,1,3285.61,1614.73ZM2651.17,1604a3.79,3.79,0,0,1-1.05-.14c-20.87-5.66-39.85-10.54-58-14.91a4,4,0,0,1,1.87-7.78c18.26,4.39,37.32,9.29,58.26,15a4,4,0,0,1-1,7.86Zm-413.8-25.08a4,4,0,0,1-1-7.86c9-2.38,18.14-4.71,27.26-6.95,10.24-2.5,20.86-4.66,31.57-6.43a4,4,0,1,1,1.3,7.89c-10.51,1.74-20.93,3.86-31,6.32-9.07,2.21-18.19,4.54-27.11,6.9A4,4,0,0,1,2237.37,1578.94Zm297-2.72a4.11,4.11,0,0,1-.77-.08c-20.42-4-40.25-7.31-59-9.86a4,4,0,1,1,1.08-7.92c18.86,2.56,38.85,5.91,59.42,9.93a4,4,0,0,1-.77,7.93Zm-118.89-15.82h-.24c-12.7-.75-25.26-1.13-37.34-1.13-7.49,0-15,.15-22.23.44a4,4,0,0,1-.32-8c7.37-.29,15-.44,22.55-.44,12.23,0,25,.39,37.82,1.15a4,4,0,0,1-.24,8ZM3375.4,1536a4,4,0,0,1-2.55-.92,4,4,0,0,1-.52-5.64,395,395,0,0,0,34.31-48.37,4,4,0,0,1,6.85,4.13,402.36,402.36,0,0,1-35,49.36A4,4,0,0,1,3375.4,1536Zm62-102.19a4,4,0,0,1-3.67-5.59,527.09,527.09,0,0,0,20.41-55.89,4,4,0,1,1,7.65,2.33,537.08,537.08,0,0,1-20.71,56.74A4,4,0,0,1,3437.41,1433.79Zm28.79-115.43a4,4,0,0,1-4-3.93c-.31-17.2-2.25-36.54-5.93-59.11a4,4,0,0,1,7.9-1.29c3.74,23,5.71,42.67,6,60.26a4,4,0,0,1-3.92,4.07Zm-17.85-118.52a4,4,0,0,1-3.89-3.1c-4-17.14-8.79-36.13-14.68-58.07a4,4,0,1,1,7.72-2.08c5.92,22,10.74,41.11,14.75,58.34a4,4,0,0,1-3,4.8A4.13,4.13,0,0,1,3448.35,1199.84Zm-30.7-116.1a4,4,0,0,1-3.85-2.92l-.67-2.41c-5.43-19.35-10.56-37.64-15.36-55.5a4,4,0,1,1,7.73-2.07c4.78,17.82,9.91,36.08,15.33,55.41l.67,2.41a4,4,0,0,1-3.85,5.08Zm-30.44-116.15a4,4,0,0,1-3.91-3.15c-1.41-6.54-2.67-12.79-3.73-18.57-2.19-11.93-5.29-24.92-9.47-39.72a4,4,0,1,1,7.7-2.18c4.25,15,7.4,28.28,9.64,40.46,1,5.7,2.28,11.86,3.68,18.31a4,4,0,0,1-3.06,4.76A4.17,4.17,0,0,1,3387.21,967.59ZM3457.15,873c-12,0-24.54-.11-37.23-.33a4,4,0,1,1,.14-8c12.64.22,25.12.33,37.09.33,7.74,0,15.42,0,22.82-.13h.05a4,4,0,0,1,0,8C3472.63,873,3464.92,873,3457.15,873Zm82.84-2.1a4,4,0,0,1-.23-8c22.58-1.28,42.56-3.16,59.39-5.59a4,4,0,0,1,1.15,7.92c-17.07,2.46-37.28,4.36-60.08,5.66Zm-180,0h-.17c-20.33-.84-40.52-1.91-60-3.19a4,4,0,1,1,.52-8c19.44,1.27,39.58,2.34,59.84,3.18a4,4,0,0,1-.16,8Zm-119.77-8-.4,0-3.83-.4c-18-1.88-36.8-4.68-55.86-8.3a4,4,0,0,1,1.49-7.86c18.85,3.58,37.42,6.34,55.21,8.21l3.79.39a4,4,0,0,1-.4,8Zm115.38-11a4,4,0,0,1-3.77-2.69c-5.51-15.86-11.29-31.81-17.39-48.69l-2.82-7.79a4,4,0,0,1,7.52-2.72l2.82,7.79c6.12,16.91,11.9,32.88,17.42,48.78a4,4,0,0,1-2.46,5.1A4.06,4.06,0,0,1,3355.62,851.9Zm302.4-.44a4,4,0,0,1-1.22-7.82,452.67,452.67,0,0,0,55.38-21.49,4,4,0,1,1,3.42,7.23,460.1,460.1,0,0,1-56.37,21.89A3.92,3.92,0,0,1,3658,851.46Zm-535.6-10.54a4,4,0,0,1-1-.13c-18.54-4.9-37.43-10.45-57.77-17a4,4,0,0,1,2.45-7.62c20.2,6.49,39,12,57.36,16.86a4,4,0,0,1-1,7.87Zm-114.33-36.37a3.79,3.79,0,0,1-1.36-.24c-17-6.15-35.44-13.06-56.31-21.12a4,4,0,0,1,2.88-7.47c20.82,8,39.18,14.94,56.15,21.07a4,4,0,0,1-1.36,7.76Zm757.38-5.2a4,4,0,0,1-2.38-7.21,223.44,223.44,0,0,0,42.46-40.63,4,4,0,0,1,6.25,5,231.55,231.55,0,0,1-44,42.07A4,4,0,0,1,3765.47,799.35ZM2896,761.53a4,4,0,0,1-1.47-.29l-7.87-3.11c-15.72-6.23-32-12.67-48-18.91a4,4,0,0,1,2.91-7.45c16,6.25,32.26,12.69,48,18.92l7.88,3.12a4,4,0,0,1-1.48,7.72Zm419.42-22.76a4,4,0,0,1-3.78-2.72c-7.29-21.45-13.19-40.24-18.05-57.46a4,4,0,0,1,7.7-2.17c4.82,17.08,10.68,35.74,17.92,57.06a4,4,0,0,1-2.5,5.07A3.84,3.84,0,0,1,3315.39,738.77Zm-531.31-20.66a4,4,0,0,1-1.39-.25c-20.33-7.53-38.79-14.05-56.43-20a4,4,0,1,1,2.53-7.58c17.73,5.92,36.26,12.47,56.68,20a4,4,0,0,1-1.39,7.75Zm1055.73-11.22a4,4,0,0,1-1.7-.38,4,4,0,0,1-1.92-5.32c9-19.14,14.92-37.43,18.11-55.9a4,4,0,0,1,7.88,1.36c-3.31,19.19-9.44,38.14-18.75,57.94A4,4,0,0,1,3839.81,706.89Zm-1169.56-26.5a4.09,4.09,0,0,1-1.09-.15c-20-5.64-39.48-10.51-57.95-14.46a4,4,0,1,1,1.67-7.82c18.64,4,38.31,8.89,58.45,14.58a4,4,0,0,1-1.08,7.85ZM2552.94,655.7a4.49,4.49,0,0,1-.51,0,580.85,580.85,0,0,0-59.31-4.6,4,4,0,0,1,.19-8,588.46,588.46,0,0,1,60.14,4.65,4,4,0,0,1-.51,8Zm730.76-32.61a4,4,0,0,1-3.94-3.3c-3.82-21.52-5.68-40.71-5.68-58.66,0-.58,0-1.15,0-1.73a4,4,0,0,1,4-4h0a4,4,0,0,1,4,4c0,.55,0,1.11,0,1.67,0,17.47,1.82,36.2,5.56,57.26a4,4,0,0,1-3.24,4.64A4.23,4.23,0,0,1,3283.7,623.09Zm574.76-32.83a4,4,0,0,1-3.93-3.32,178.78,178.78,0,0,0-19.44-55.09,4,4,0,1,1,7-3.82,186.23,186.23,0,0,1,20.3,57.56,4,4,0,0,1-3.27,4.61A3.82,3.82,0,0,1,3858.46,590.26Zm-570.95-85.8a3.9,3.9,0,0,1-1.34-.23,4,4,0,0,1-2.43-5.11c.84-2.38,1.76-4.76,2.72-7.06a210.39,210.39,0,0,1,26.89-46.25,4,4,0,1,1,6.37,4.84,202.52,202.52,0,0,0-25.88,44.49c-.9,2.17-1.77,4.41-2.56,6.66A4,4,0,0,1,3287.51,504.46Zm521-22.36a4,4,0,0,1-3.4-1.89,515,515,0,0,0-33.84-48.88,4,4,0,0,1,6.27-5A524,524,0,0,1,3811.9,476a4,4,0,0,1-3.39,6.11ZM3358,409a4,4,0,0,1-2.59-7,422.22,422.22,0,0,1,49-35.55,4,4,0,0,1,4.26,6.77,415.67,415.67,0,0,0-48.1,34.88A4,4,0,0,1,3358,409Zm375.39-19.77a4,4,0,0,1-2.68-1c-12-10.87-25.88-22.1-46.25-37.57a4,4,0,0,1,4.84-6.37c20.55,15.61,34.54,27,46.77,38a4,4,0,0,1-2.68,7Zm-274.86-45.53a4,4,0,0,1-2-7.48c2.2-1.24,4.25-2.42,6.17-3.55,13.67-8.06,30.74-14.2,50.74-18.25a4,4,0,1,1,1.58,7.84c-18.85,3.82-35.54,9.8-48.26,17.3-1.95,1.15-4.05,2.36-6.28,3.62A3.93,3.93,0,0,1,3458.54,343.72Zm174.71-18.12a4.06,4.06,0,0,1-1-.14,254.21,254.21,0,0,0-58.38-8,4,4,0,1,1,.2-8,262.62,262.62,0,0,1,60.25,8.32,4,4,0,0,1-1,7.87Z"/><path class="cls-2" d="M405.66,857.75h0c-17.57-.11-34.9-.89-51.5-2.32-2.92-.25-5.85-.53-8.77-.82a4,4,0,0,1,.8-8c2.89.29,5.77.56,8.66.81,16.39,1.41,33.5,2.18,50.86,2.29a4,4,0,0,1,0,8Zm59.94-2a4,4,0,0,1-.28-8c18.84-1.32,38.29-3.25,59.48-5.92a4,4,0,0,1,1,7.94c-21.33,2.68-40.92,4.63-59.91,6Zm-179.15-9.92a3.91,3.91,0,0,1-.76-.07c-18.9-3.66-38.64-8.29-58.7-13.74a4,4,0,0,1,2.1-7.72c19.87,5.4,39.42,10,58.12,13.61a4,4,0,0,1-.76,7.92Zm298.21-4.66a4,4,0,0,1-.64-7.95c20.81-3.37,41.54-7,59.07-10.16a4,4,0,1,1,1.41,7.88c-17.57,3.13-38.34,6.79-59.2,10.18A4.6,4.6,0,0,1,584.66,841.17Zm118.21-20.7a4,4,0,0,1-.69-8c23.1-4,41.94-7.15,59.29-9.78a4,4,0,0,1,1.21,7.91c-17.3,2.62-36.08,5.72-59.12,9.75A3.3,3.3,0,0,1,702.87,820.47Zm-532.22-5.8a4,4,0,0,1-1.27-.2c-17.91-6-36.43-12.64-56.63-20.32a4,4,0,0,1,2.85-7.48c20.09,7.64,38.51,14.25,56.32,20.21a4,4,0,0,1-1.27,7.79Zm650.91-11.81a4,4,0,0,1-.43-8c21.26-2.3,40.9-3.84,60.06-4.69a4,4,0,0,1,.36,8c-19,.85-38.47,2.37-59.56,4.66Zm175.47-.2a3.23,3.23,0,0,1-.53,0c-17.82-2.39-36.42-4-55.31-4.71a4,4,0,1,1,.31-8c19.14.74,38,2.35,56.06,4.77a4,4,0,0,1-.53,8ZM61.38,772.32a3.87,3.87,0,0,1-1.51-.3C41.74,764.61,24,757.21,4.43,749a4,4,0,1,1,3.09-7.38c19.59,8.2,37.28,15.6,55.38,23a4,4,0,0,1-1.52,7.7Z"/><path class="cls-2" d="M886.84,642.31s1.92-64.35,93.51-121.06c65.86-40.78,96.64-67.57,96.64-67.57,44.86-42.61,95.4-82.46,155.46-98.23,76.07-20,156.19,1.13,232.47,20.35,195.75,49.33,405.22,86.21,597,23.44,143.13-46.86,219.63-86.75,369-66.76,48.91,6.54,210.5,44.79,255.84,64.12,109.82,46.82,170.24,20,227.34,124.17,50.85,92.78,7.34,205.08,40.65,305.38,36.21,109,98.95,198.19,79.71,311.36-17.61,103.62-57.59,183-141.37,247.32-80.35,61.65-121.12,23.81-186.41,101-42.4,50.13-91.16,130-151.08,157.34-44.11,20.16-111.61,24.41-160.17,23-92.3-2.74-137.09-5-223.65-37-108.76-40.09-212-74-318.93-92.85-114.11-20.15-277.74-61.35-389.47-30.46-39.4,10.89-76.66,28.89-116.56,37.82-121.66,27.22-258-44.61-303.47-159.87-52.61-133.4,10.76-288.09-29.46-425.67-17-58-29.67-59.73-53.14-115.48-10.22-24.28-26.61-65-51.92-100.64-14.38-20.24-28.77-73.73-22-99.73"/><path class="cls-2" d="M397.7,403c22.16-4.31,47.26-14.11,69.41-18.41-5.27-11.8,1.77-29,20.26-42.44s43.92-26.06,66.46-29.78c17.23-2.84,28.42-3.94,41,5.18,13.32,9.66,25.34,32.1,31,47.52-11.12-10.53-33.87-7.22-49.59-1.76-14.45,5-51.1,19.79-64.49,27.18-22.21,12.26-26.43,19.85-24.64,29.23a76.35,76.35,0,0,1-20-35.13"/><path class="cls-2" d="M402,405.48A1149.35,1149.35,0,0,1,471,274.73l-4.32,2.47a1269.13,1269.13,0,0,0,195.69,7.24l-3.53-8.54a540.53,540.53,0,0,0-44.89,56.22c-3.68,5.3,5,10.3,8.63,5.05A522.8,522.8,0,0,1,665.87,283c2.78-3,1-8.72-3.54-8.53a1269.13,1269.13,0,0,1-195.69-7.24,4.91,4.91,0,0,0-4.32,2.48,1149.35,1149.35,0,0,0-68.94,130.75c-2.6,5.83,6,10.92,8.64,5.05Z"/><path class="cls-2" d="M480.31,416.32c1.24,16.65,18.08,22.37,32.55,20.62,16.42-2,33-4.37,48.53-10.13,21.66-8,45.71-18.45,61-36.51,5.9-7,16-20.34,7-28.8-4.68-4.41-11.77,2.65-7.07,7.07,4.23,4-10.09,18.29-12.81,20.81-8.11,7.54-18.72,13.58-28.61,18.48a174.33,174.33,0,0,1-45.13,15.59,250.8,250.8,0,0,1-25.42,3.76c-7.64.63-19.33-1.2-20.05-10.89-.47-6.38-10.48-6.43-10,0Z"/><path class="cls-2" d="M434,378.07l37.15,87,8.64-5.05c-4.09-9.13-18.21-8.64-22.88-.31-6.06,10.8,5,22.93,16.08,21.9,10.08-.93,18-9.08,17.26-19.25-.63-8.62-6.12-17.53-15.88-15.22-6.26,1.47-3.61,11.12,2.66,9.64,2.26-.54,3,3.93,3.23,5.48.42,3.47-.4,5.54-3.33,7.58-3.71,2.59-10.47,2.79-11.49-2.87a3,3,0,0,1,5.71-1.9c2.65,5.9,11.13.77,8.64-5.05l-37.16-87c-2.52-5.9-11.14-.82-8.63,5Z"/><path class="cls-2" d="M459.69,380.67q-30.66,6.76-60.56,16.42c-6.1,2-3.49,11.63,2.66,9.64q29.88-9.64,60.55-16.42c6.29-1.38,3.63-11-2.65-9.64Z"/><image width="599" height="385" transform="translate(3239.08 1394.58) rotate(8.44) scale(0.62)" xlink:href="../../../../Downloads/carte%20bancaire%20(2).png"/><path class="cls-2" d="M3449.8,507.25l-4.87,94-.59,11.44c-.2,3.86-.53,7.75-.54,11.62,0,3.24.66,6.61,2.86,9.11s5.33,3.29,8.31,4.07c14.57,3.79,29.31,7,44.13,9.57a584.47,584.47,0,0,0,89.82,8.76q22.57.45,45.15-.85c3.71-.22,7.42-.46,11.13-.75,3.32-.25,6.91-.28,8.93-3.39,1.92-3,1.54-7.06,1.68-10.42q.26-5.93.42-11.87a723.31,723.31,0,0,0-3.49-93.2q-.59-5.65-1.26-11.31a2.57,2.57,0,0,0-1.82-2.44,496.19,496.19,0,0,0-76.54-15.19,586.39,586.39,0,0,0-76.11-3.64c-14.9.18-29.8.82-44.68,1.72a2.82,2.82,0,0,0-2.53,2.72c-.12,1,.33,3.33,1.81,3.24,26.06-1.59,52.2-2.33,78.31-1.33a517.5,517.5,0,0,1,75.61,8.27q21.91,4.1,43.4,10.17l-1.82-2.44a717.77,717.77,0,0,1,5,90.35q-.09,11.22-.55,22.45-.11,2.71-.24,5.43c-.05,1,.15,3-.39,3.76s-2.19.89-3.08,1c-1.83.2-3.67.3-5.5.43q-21.87,1.57-43.82,1.45a582.36,582.36,0,0,1-87.57-7q-21.72-3.39-43.14-8.43-5.37-1.26-10.73-2.63c-2.56-.65-5.83-1.2-7.62-3.35-1.65-2-1.33-5-1.21-7.36q.28-5.6.58-11.2l4.72-91.06.58-11.2c.06-1.24-.29-3-1.81-3.24s-2.46,1.49-2.53,2.72Z"/><path class="cls-2" d="M3451.77,536.42c62.47,3.65,122.45,8.33,184.93,12,7.64.45,14,3.33,15.48,10.85,1,5,.48,9.11-4.1,11.28s-9.84,2.22-14.91,2.21c-54.48-.15-109.06-2.89-162.9-11.22-6.2-1-12.74-2.15-17.47-6.27s-3.28-12.28-2.13-16.64"/><path class="cls-2" d="M3634.05,635.48l0-15.28a1.36,1.36,0,0,0-1.39-1.34l-8.32,0-4.16,0c-1.88,0-3.5.06-4.93,1.52s-1.42,3.07-1.55,4.92l-.28,4.13-.57,8.4a1.36,1.36,0,0,0,1.38,1.35c5.37-.41,10.9-.87,16.25,0,2.35.36,5.4-4.58,2.22-5.07-5.35-.81-10.88-.36-16.25,0l1.39,1.35.48-7.14.24-3.49.12-1.75.06-.95c.05-.79.06.16-.66.83l-1.24.91c-.12.07-.67,0-.15.06h2.72l3.68,0,7.36,0-1.39-1.34,0,15.28c0,1.4,1.66,1.54,2.63,1a4,4,0,0,0,2.36-3.42Z"/></g></g></svg>