<svg xmlns="http://www.w3.org/2000/svg" viewBox="0 0 235.69 244.31"><defs><style>.cls-1{fill:#0066ad;}.cls-2{fill:#fff;}</style></defs><title>Fichier 10</title><g id="Calque_2" data-name="Calque 2"><g id="Calque_1-2" data-name="Calque 1"><path class="cls-1" d="M1.45,29.85c5.69-1,12.59-3.53,18.28-4.53,16.33-2.86,32.86-4.42,49.37-6,13.45-1.27,27-2.54,40.45-1.92"/><path class="cls-1" d="M111.49,17.38l37.64-1.69c2.64-.12,5.88.1,7,2.48-10,4.24-46.42,5.15-57.21,6.21C57.26,28.5,32.44,30.93,16.66,33.1c-.67.09-15.07-2.58-15.21-3.25"/><path class="cls-2" d="M89.13,41.59,94.92,4.11c22.85,1.56,42.6,6.34,65.58,9.08,20.67,2.47,46.56,5.91,68.44,10.36-4.22,49.77-15.2,99.94-22.56,149.34-2.75,18.49-4.6,37.15-8.78,55.36a7.79,7.79,0,0,1-1.57,3.69,5.76,5.76,0,0,1-4.08,1.79c-19.24,0-29.88-3.41-42-4.85"/><path class="cls-1" d="M230.54,19.48c-21.58-4.36-43.41-7.32-65.25-10-23-2.79-45.67-7.83-68.77-9.47-3.27-.24-7.74.57-8.34,4.4L82.39,41.92c-.47,3,5,3.89,6.94,3.8,2.88-.14,6.06-1.36,6.54-4.47l5-32.41c20.51,2.06,40.76,6.33,61.22,8.81,20,2.43,40,5.14,59.86,8.93-3.09,34.1-9.1,67.83-14.92,101.55-2.89,16.72-5.77,33.46-8.14,50.26-1.22,8.61-2.3,17.24-3.58,25.85-.65,4.35-1.35,8.7-2.16,13-.36,1.92-.73,3.84-1.13,5.75s-1.4,4.37-1.54,6.43l0,.05c-1-.1-2.21.07-3.16,0-1.89-.06-3.78-.19-5.66-.34-3.64-.29-7.26-.73-10.87-1.28-6.43-1-12.81-2.32-19.27-3.12-2.63-.32-7.11.38-8.15,3.3s2.69,4.57,5,4.85c13.86,1.7,27.23,4.69,41.27,4.89,4.21.07,8.51-.47,11.69-3.5s3.45-7.68,4.25-11.68c1.79-8.89,3.14-17.86,4.38-26.84C215,159,221.69,122.39,227.62,85.66c3.34-20.73,6.26-41.52,8.06-62.45C235.89,20.75,232.21,19.82,230.54,19.48Z"/><path class="cls-1" d="M0,31.62C1.45,91.94,2.26,154.09,1,205.88c-.12,5-.84,10.5,2.38,14.28A16.34,16.34,0,0,0,9,224c22.53,10.52,48.89,7.28,73.22,12.44,7.08,1.5,17.06,1.83,24.25,2.59,11.08,1.17,19.48.75,30.27,3.52,2.68.69,5.32,1.69,8.09,1.78s5.79-1,7.07-3.45c.92-1.77.56-3.89.6-5.89.52-22-1-31.57.35-57.92.52-10.43-.36-42-.1-52.46.49-19.48-.89-38.94-2.26-58.38-.35-5-.83-10.38-3.93-14.34-3.54-4.51-9.58-6.1-15.22-7.11A813.21,813.21,0,0,0,39.7,34C27.4,33.3,17.06,31.26,4.82,29.8c-1.62-.2-3.42-.31-4.71.68"/><path class="cls-2" d="M114.67,115.16a69.16,69.16,0,0,0-5.47-13.44,25.9,25.9,0,0,0-5.65-7.21,104.09,104.09,0,0,0-9.33-7A31.11,31.11,0,0,0,86.05,83a45.53,45.53,0,0,0-13.57-2,27.22,27.22,0,0,0-6.3.63A45,45,0,0,0,41.61,94.4,42.52,42.52,0,0,0,30,117.81c-.21.6-.34,1-.37,1.11-1.32,4.55-.84,5.89-.08,7.72a42.75,42.75,0,0,0,1.3,8.64,50.17,50.17,0,0,0,5,13c2.54,4.24,6.59,7.71,10.53,10.62a67.13,67.13,0,0,0,11.07,6.44c4,1.91,7.91,3.62,12.36,4.32a38,38,0,0,0,15.54-.61,43.13,43.13,0,0,0,13.43-6.52,44.83,44.83,0,0,0,9.75-9.1,30.34,30.34,0,0,0,5-10A59.64,59.64,0,0,0,116,129.85,41.82,41.82,0,0,0,114.67,115.16Zm-4.64,21a45.5,45.5,0,0,1-3.26,10.9c-3.44,7.18-10.44,12.78-17.37,16.37-7.6,3.93-16.71,5-24.79,1.75A62.37,62.37,0,0,1,44,152.12a22.76,22.76,0,0,1-4.28-5.87,30.64,30.64,0,0,1-.24-8.11,12.24,12.24,0,0,1,4.55-8.44c-1.74-2.62-3.51-5.31-4.23-8.37s-.16-6.62,2.19-8.71c.56-.5,1.26-1,1.25-1.77a2.53,2.53,0,0,0-.87-1.49,9.88,9.88,0,0,1-2.4-5c.6-1,1.24-2,1.93-3a41.21,41.21,0,0,1,20.25-15.1,37.85,37.85,0,0,1,6-1.51,29.75,29.75,0,0,1,11.63,0A30.34,30.34,0,0,1,85.05,86l.92.35c-.7-.25-.09,0,.11.07.56.31,1.12.64,1.68,1,2.91,1.8,5.73,3.79,8.45,5.87A33,33,0,0,1,102,98.38C91.89,102.19,86.4,96.19,82,103c-1,1.49-5.4,4.22-7,5.09s-4.22-.41-6.06.09-1.89,4.56-7.18,8.54c0,0-2.89.55-4,2.23s-.87,1.09-4,6.65c-1.63,1.62-.59,1.69,1.85,1,1.79,1.08,4,1.38,6.07,1.93,2.43.64,5.06,2,5.51,4.53a14.18,14.18,0,0,1-.14,3.31,3.36,3.36,0,0,0,1.08,3,4.59,4.59,0,0,0,1.57.59,28.46,28.46,0,0,1,13.56,8.45c3.16,2.42,3,.37,4.35-1.3.83-1,.85-5,2.17-5s1.59-2.46,0-3.25c-3.69-2.7-5.2-2.93-5.93-7.44a4.66,4.66,0,0,0-.71-2.22c-1-1.18-2.82-.95-4.16-1.66a3,3,0,0,1-.54-.36,6.14,6.14,0,0,0,3.28-.37c.86-.36,1.8-.93,2.65-.55a2.69,2.69,0,0,1,1.07,1.12l3.82,6c5.34,0,5.41-12.57,10.43-14.79,2.5-1.11,4.53,1.49,7,.38a8.06,8.06,0,0,0,3.11-3.12,37.24,37.24,0,0,1,1.15,6.59A51.49,51.49,0,0,1,110,136.18Z"/><path class="cls-1" d="M132.33,18.62c-.15-.17-2.3-2.3-2.47-2a88.4,88.4,0,0,1-5.48,9.29q-1.47,2.18-3.07,4.25c-.42.55-.85,1.08-1.28,1.61l-1-3.55q-1.44-4.91-2.89-9.83a8.67,8.67,0,0,0-2.34-3.05,6.38,6.38,0,0,0-1.43-1.22c-.1-.05-.59-.36-.48,0q1.77,6,3.56,12.1.88,3,1.78,6.05A7.55,7.55,0,0,0,118.43,35a10.85,10.85,0,0,0,3.3,3.24c.71.31,1,0,1.5-.58.61-.7,1.19-1.43,1.76-2.15,1.15-1.46,2.26-3,3.31-4.5a87.44,87.44,0,0,0,5.78-9.73C134.39,20.63,132.69,19,132.33,18.62Z"/><path class="cls-1" d="M143.74,21.84c0,.31,0,.63.08.94s0,.18,0,0c0,.14,0,.27,0,.41,0,.58,0,1.16.06,1.75,0,1.12,0,2.25-.09,3.37a38.78,38.78,0,0,1-.94,6.48,4.58,4.58,0,0,0,1.4,4.08c.7.65,2.29,1.38,2.62-.09a48.67,48.67,0,0,0,1-15.5,4.43,4.43,0,0,0-2.5-3.51c-1.42-.46-1.7,1-1.6,2.08Z"/><path class="cls-1" d="M174.3,39.62a14.79,14.79,0,0,0-3-5.35,13,13,0,0,0-3.78-3.5c-1.14-.67-2.38-1.17-3.55-1.79a2.07,2.07,0,0,1,.1-.33c.57-1.33,2.06-1.58,3.34-1.51,1.82.09,3.65.48,5.45.74.18,0-.37-1.08-.28-.92a15,15,0,0,0-1.19-1.86A16.24,16.24,0,0,0,170,23.38c-.22-.22-.46-.52-.78-.56-1.58-.23-3.15-.49-4.74-.68a4.61,4.61,0,0,0-3.34.52,3,3,0,0,0-.7,3.45,16.64,16.64,0,0,0,4,5.86c1.79,1.77,4.14,2.49,6.24,3.73a2.76,2.76,0,0,1-.19,1.06A3.68,3.68,0,0,1,168,38.81c-3,.86-6.4-.3-9-1.68-.34-.18-.1.41-.08.45a7.38,7.38,0,0,0,.92,1.62,21,21,0,0,0,1.44,1.93,4.16,4.16,0,0,0,1,1,14.68,14.68,0,0,0,8.2,2C172.89,43.82,174.87,42.16,174.3,39.62Zm-10.42-9.93v-.06C164.43,30.59,163.92,30.82,163.88,29.69Z"/><path class="cls-1" d="M202,46.87c-.36-3-.83-6.07-1.43-9.07-.3-1.53-.63-3.06-1-4.57a19,19,0,0,0-1.26-4,7.67,7.67,0,0,0-3.8-3.59c-1.61-.66-3.48-.62-4.21,1.17-1,2.52-1.76,5.18-2.68,7.75a34.49,34.49,0,0,1-4.13,8.42c-.79,1.11.84,2.66,1.68,3.17s2.77,1.32,3.58.17a27.3,27.3,0,0,0,2-3.33l.06,0a4.73,4.73,0,0,0,1.59.16l2.9,0a3.61,3.61,0,0,0,.86-.15c.12.83.25,1.66.35,2.5C196.76,47.69,202.37,50,202,46.87Zm-7-7.61h-2.68c.12-.32.25-.63.37-.94.53-1.47,1-2.94,1.52-4.42l.15-.49c.17.71.35,1.42.49,2.14.26,1.24.47,2.49.69,3.73A4.87,4.87,0,0,0,195,39.26Z"/></g></g></svg>