<svg xmlns="http://www.w3.org/2000/svg" viewBox="0 0 42.63 33.26"><defs><style>.cls-1{fill:#1c66ad;}</style></defs><title>Fichier 8</title><g id="Calque_2" data-name="Calque 2"><g id="Calque_1-2" data-name="Calque 1"><path class="cls-1" d="M0,19.26c.87-.36,1.74-.75,2.62-1.08.3-.11.47-.22.46-.56a18.44,18.44,0,0,0-.05-2,2.31,2.31,0,0,0-1.61-2.16,1.44,1.44,0,0,1-.49-.29c-.4-.34-.34-.73.16-.91s1-.33,1.61-.51A7.22,7.22,0,0,1,1.39,6.19a3.39,3.39,0,0,1,3-3.07c7.45-1,14.89-2.06,22.34-3.1a2.45,2.45,0,0,1,.93.07q6.81,2,13.61,4.11c.24.08.6.34.6.51a1,1,0,0,1-.49.65c-.67.3-1.42.57-1.57,1.36a22.59,22.59,0,0,0-.27,3.08c0,.12.28.31.47.39.64.26,1.31.47,2,.73a3.83,3.83,0,0,1,.63.45l0,.19-2.21.6a5.77,5.77,0,0,1,.86,4.1,5.22,5.22,0,0,1-1.75,3.81l.68.22c.54.2.61.57.16.94a1.85,1.85,0,0,1-.6.33A1.86,1.86,0,0,0,38.45,23a23.59,23.59,0,0,0-.23,2.52c0,.45.22.62.61.74a17.78,17.78,0,0,1,1.85.67,5.4,5.4,0,0,1,.79.53,8.65,8.65,0,0,1-.81.32q-11.2,2.73-22.4,5.43a1.76,1.76,0,0,1-.91,0C12.47,31.6,7.61,30,2.73,28.44,1,27.89.47,26.54.14,25c0-.21-.09-.41-.14-.62v-2l1-2.45-1-.36ZM17.87,31.1c.06-1.6.09-3.09.18-4.57,0-.46-.15-.62-.55-.75C12.75,24.24,8,22.67,3.27,21.12A1.18,1.18,0,0,0,1.53,22a6.07,6.07,0,0,0,.23,3.81A1.8,1.8,0,0,0,3.05,27c3.39.92,6.76,1.89,10.14,2.83Zm1.45-16c0-1.63,0-3.12,0-4.6,0-.43-.09-.62-.52-.76C14.06,8.22,9.33,6.65,4.59,5.1A1.21,1.21,0,0,0,2.81,6,6.13,6.13,0,0,0,3,9.8a1.79,1.79,0,0,0,1.27,1.13c2.74.75,5.46,1.51,8.19,2.28Zm4,8,.86-.22q7.08-2,14.17-4a1.69,1.69,0,0,0,1.21-1,6,6,0,0,0,.24-4,1.12,1.12,0,0,0-1.62-.82l-4.77,1.55-9.52,3.11c-.26.08-.59.07-.58.53C23.3,19.87,23.28,21.44,23.28,23.12Zm-.8-.06c0-1.5,0-3,0-4.43,0-.5-.16-.68-.66-.78-4.87-1-9.74-2-14.61-3l-3.54-.73L4,18.47Zm16.7-17L20.1,10v5.07l18.68-4.67A7.93,7.93,0,0,1,39.18,6.06ZM37.64,22.14,33.36,23c-1.85.38-3.68.82-5.54,1.11s-3.55,1.15-5.47,1.18a14.13,14.13,0,0,0-3,.61c-.18,0-.44.25-.44.39,0,1.57,0,3.14,0,4.76L37.3,26.46Z"/></g></g></svg>