<svg xmlns="http://www.w3.org/2000/svg" viewBox="0 0 261.98 565.4"><defs><style>.cls-1{fill:#196cb5;}</style></defs><title>Objects</title><g id="Calque_2" data-name="Calque 2"><g id="Calque_1-2" data-name="Calque 1"><g id="Objects"><path class="cls-1" d="M261.72,560.1A411.74,411.74,0,0,1,212,457a7.17,7.17,0,0,0,1.08-2.4c.87-2.9.76-6.2,1-9.1.33-3.5.65-7.1,1-10.6.54-1.5.33-3.1-1.52-3-4.57.4-9,.7-13.59,1a2.22,2.22,0,0,0,0-1.2c-5.87-14.2-11.09-28.6-15.77-43.2.55-1.5.11-3-1-3.1-2.72-8.8-5.22-17.6-7.51-26.6.55,0,1.09.1,1.63.1a2.32,2.32,0,0,0,.87.1,4.4,4.4,0,0,0,2.94-3.4c.87-4,1.74-8.1,2.61-12.1.22-1.2-.33-2.5-1.85-2.2-.11,0-.11,0-.22.1a1.35,1.35,0,0,0-1.3-1.1c-2.72-.3-5.55-.5-8.26-.7,0-.1.1-.1.1-.2.55-.9,1.09-2.3.33-3.3a.51.51,0,0,1-.22-.4,1.29,1.29,0,0,0-1.41-.5,21.75,21.75,0,0,1-.54-4.4c-.33-1.9-.55-3.8-.87-5.7-.66-4.3-1.31-8.7-2-13-1.31-8.4-2.61-16.8-3.81-25.2-2.5-16.4-5-32.9-7.5-49.3-5-33.2-9-66.4-10.44-99.9-.76-18.8-.76-37.7-.1-56.6a6.7,6.7,0,0,0,1.3-1.6c1.85-5,3.59-10.1,5.22-15.2,1.2-3.8,3.91-9.2,1.74-13.1-1.2-2-3.26-3.7-4.89-5.4-2-2.1-3.81-4.2-5.87-6.2-2.72-2.6-6-2.6-9.57-2.4a2.7,2.7,0,0,0,.22-.9c-.11-11.6-.11-23.2.1-34.8.11-3.6-4.78.1-4.89,2.5-.22,11.2-.22,22.3-.11,33.5-3.69.2-6.74.5-9.24,3.5-3.37,4.2-5.76,9.2-8.59,13.6-2.17,3.5-4.45,6.6-3,10.8,1.85,5.6,5,11.1,7.5,16.4.11.2.22.3.22.4a2,2,0,0,0-.11.8,1.17,1.17,0,0,0-.11.6c.33,28-.11,55.9-1.52,83.9a3.08,3.08,0,0,0-.11,2.2q-.81,15.75-2,31.5c-.87,1-1.74,2.4-1.19,3.5a1.59,1.59,0,0,0,.87.8q-1.47,17.7-3.27,35.4a3.79,3.79,0,0,0-.21,2.4q-2.13,19.8-4.9,39.6c-2.06,14.9-4.45,29.8-7.06,44.7a3.43,3.43,0,0,0-.55,3.3c-.43,2.5-.87,5-1.3,7.5-2.28.1-4.57.2-6.85.4-2.61.2-5.11,5.9-2.28,5.7h.11c-.87,1.2-1.31,2.7-.66,3.6a42.27,42.27,0,0,0,4.79,5.7c-.22,1.1,0,2,1.19,2h1.42c0,.1-.11.2-.11.3q-11.42,32.7-20.33,66c-1.42,1.1-2.29,4-1.31,4.9-.54,2.2-1.19,4.5-1.74,6.7-5.32-.3-10.54-.6-15.87-1-2.39-.2-4.78,4.5-2.94,5.5a1.57,1.57,0,0,0,.11,1c2.29,6.1,4.57,12.3,6.85,18.4.22.5.55,1,1.2,1s1.3.1,2,.1A1082.31,1082.31,0,0,0,1.55,558.9a1.35,1.35,0,0,0-.22.7c-1.41,1.7-2.06,4.4-.1,4.4,11.63.2,23.15.3,34.79.5,3.48.1,18.26,1.9,17.28-4.8a5.25,5.25,0,0,0,1.2-2.9c2.17-25.3,21.74-48.3,48-56.2,16.74-5.1,35.22-5.3,52.51-3.1,16.63,2.1,31.53,7.1,42.62,19.1,12,13,17.61,29.5,22.94,45.5,0,.1.11.2.11.3-.22,1,.1,1.8,1.19,1.7a185.1,185.1,0,0,1,34.9.8,2.12,2.12,0,0,0,1.09-.2l.11.1C259,567.1,263,562.2,261.72,560.1Zm-16.43-16.4h0c-3.6-2.5-7.3-4.9-10.9-7.3l3-7.8C239.89,533.8,242.59,538.8,245.29,543.7Zm-14.8-29.4c-2.9-1.7-5.8-3.4-8.7-5,.8-3.2,1.5-6.5,2.3-9.7C226.19,504.5,228.29,509.5,230.49,514.3Zm-16.4-41.6c1.5,4.5,3.1,8.9,4.7,13.3-3.6-1.6-7.3-3.3-10.9-4.9C209.89,478.2,212,475.4,214.09,472.7Zm-9.7,6.8c-3.6-1.6-7.3-3.3-10.9-4.9,5.1-.3,10.1-.7,15.2-1.1C207.29,475.5,205.79,477.5,204.39,479.5Zm-20.3-9.9c-1.8-4.1-3.5-8.2-5-12.4,8.7-.1,17.3-.4,25.9-.7a16.11,16.11,0,0,0,3.9-.4c1.1,3.9,2.3,7.7,3.5,11.6C203.09,468.5,193.59,469.1,184.09,469.6Zm4.7,5.3a4.87,4.87,0,0,0-1.1,2.3c-.4-.7-.7-1.5-1.1-2.2C187.39,475,188.09,474.9,188.79,474.9Zm-89.7-3.8c1.6-4.7,3.3-9.3,4.9-14,.1-.2.1-.4.2-.6,18.9.7,37.7,1,56.6.9,4.3,0,8.6-.1,12.9-.1a2.77,2.77,0,0,0,.1.9c1.4,3.9,2.9,7.8,4.6,11.7C151.89,471.1,125.49,471.6,99.09,471.1Zm26.1,5.8a67.88,67.88,0,0,0-34.4,17.5l6.3-17.7C106.39,476.9,115.79,477,125.19,476.9Zm-22.5-26.2c-1.7-.1-3.5-.1-5.2-.2v-.4A127.89,127.89,0,0,1,95,436.6l7.8.3v13.8Zm38.5-177.9c1.4,8.7,2.7,17.3,3.9,26,.9,6.9,1.8,13.9,2.6,20.8.4,3.7.8,7.5,1.2,11.2a12.16,12.16,0,0,0,.6,3.2c-5.3-.2-10.6-.2-15.9-.2,0-.1.1-.3.1-.4Q138.79,303.4,141.19,272.8Zm-7.1,26.3q-2.55-5-5.4-9.6c2.2-2.4,4.5-4.8,6.7-7.2a3.75,3.75,0,0,0,.7-1.2c-.5,6.2-1.2,12.4-1.9,18.6A.61.61,0,0,0,134.09,299.1Zm29.2,63.7c.7.9,1.5,1.7,2.2,2.6-1.5,1.7-2.9,3.4-4.4,5.1-.9-4.3-1.9-8.7-2.8-13C159.79,359.5,162.09,361.4,163.29,362.8ZM157,347.6a.35.35,0,0,0-.1.2c-1.6-.1-3.1-.2-4.7-.2l1-7.5c2.4.1,4.8.2,7.1.4A30.6,30.6,0,0,1,157,347.6Zm7.7,7.6a13.26,13.26,0,0,0-1.2-1.2c3.5.2,7,.4,10.5.7-1.5,2.1-3.1,4.1-4.7,6.1l-.7-.8C167.39,358.3,166,356.8,164.69,355.2Zm1.2-6.9-4.8-.3a39.45,39.45,0,0,0,3.2-7.3l4.7.3C168,343.5,166.89,345.9,165.89,348.3Zm-11.1-13.9v-.1l.6-.6c1.8-2.6,3.6-5.3,5.3-7.9,2.1,3.1,4.2,6.3,6.4,9.4C162.89,334.8,158.79,334.6,154.79,334.4Zm-1.4-4.5c-.9-3.5-.7-7.6-1.1-11.1l-.9-7.5c2.3,3.7,4.6,7.3,7,11C156.79,324.9,155.09,327.5,153.39,329.9Zm-6.2-49.7c2.9,3.4,5.6,6.9,8.3,10.4-1.8,3.5-3.6,6.9-5.4,10.4-.2-1.6-.4-3.1-.6-4.7C148.79,291,148.09,285.6,147.19,280.2Zm1.9,59.8c0,.1-.1.2-.1.3l-1,7.2-6.9-.3a4,4,0,0,0,.3-1.5v-5.9C144,339.8,146.49,339.9,149.09,340Zm-12.1-.3V347c-1.8-.1-3.6-.1-5.4-.2v-.1c-.3-2.4-.6-4.7-.8-7.1C132.79,339.6,134.89,339.6,137,339.7Zm16.6,13.7a3.82,3.82,0,0,0-.7,2.6c5.3,25.1,11,50,16.9,75-18.6.7-37.3.9-55.9.4a4.19,4.19,0,0,0,1.3-2.2q7.35-38.4,14.6-76.7C137.69,352.7,145.69,353,153.59,353.4ZM169,451.7c-2.5,0-5.1.1-7.6.1a4.63,4.63,0,0,0,2.2-3.8V436.8c1.6-.1,3.3-.1,4.9-.2v13.8A1.73,1.73,0,0,0,169,451.7ZM153.69,437c1.8,0,3.6-.1,5.4-.1v13.5a1.49,1.49,0,0,0,.6,1.3h-5.9a4.53,4.53,0,0,0,.3-1.6A72,72,0,0,0,153.69,437Zm-10.8.2c2.1,0,4.3-.1,6.4-.1a5.16,5.16,0,0,0-.2,1.1,85.89,85.89,0,0,1,.6,13.4c-2.7,0-5.5,0-8.2-.1.9-.8,1.8-2.1,1.7-3.1C143.09,444.7,143,441,142.89,437.2Zm-4.1,14.4c-2.8,0-5.5-.1-8.3-.1a6.69,6.69,0,0,0,.5-1.9c.2-4.1.5-8.2.7-12.3h6.7c.1,4.6.3,9.1.4,13.7C138.69,451.2,138.79,451.4,138.79,451.6Zm-19.5-14.4c2.7,0,5.3.1,8,.1-.3,4.7-.5,9.4-.8,14.1-3.1-.1-6.3-.2-9.4-.2a4.13,4.13,0,0,0,1.7-3.2A64.62,64.62,0,0,1,119.29,437.2Zm-4.2-.1a73.7,73.7,0,0,0-.8,13.3,1.27,1.27,0,0,0,.1.6c-2.4-.1-4.8-.1-7.2-.2V436.9C109.79,437,112.39,437.1,115.09,437.1Zm63.3-6.5c1.1-1.2,2.8-3.3,4.7-5.7,2,1.7,4,3.4,6.1,5.1Zm12.2,4.8c-.5,5.1-1,10.3-1.4,15.4v.5c-1.5,0-3,.1-4.5.1a4.33,4.33,0,0,0,.4-1.9V435.7C187,435.7,188.79,435.5,190.59,435.4Zm-15.4-7.1a4.13,4.13,0,0,0-.7,1.1c-1.2-4.9-2.3-9.7-3.4-14.6,3,2.5,6,5.1,9,7.6C178.59,424.4,176.89,426.4,175.19,428.3ZM173,447.9V436.4c2.6-.1,5.2-.2,7.7-.4,0,.2-.1.4-.1.6v14.9c-3.2,0-6.5.1-9.7.1A4.24,4.24,0,0,0,173,447.9Zm7.7,27.4c1.5,3.3,3.1,6.5,4.7,9.7a135.55,135.55,0,0,0-31.1-8.6C163.09,476.1,171.89,475.8,180.69,475.3Zm27.6-41.2,3.6-.3-.8,8.7c-.1,1.6-.3,3.3-.4,4.9-.1.9-.1,1.7-.2,2.6.2,1,0,1.2-.8.8-1,.4-3.9.1-4.9.2C205.89,445.3,207.09,439.7,208.29,434.1Zm-4.2.4c-1.2,5.5-2.3,11.1-3.5,16.6h-.8c-2.3.1-4.6.1-6.9.2a4.71,4.71,0,0,0,.6-1.5c.5-4.9.9-9.7,1.4-14.6C197.89,435,201,434.7,204.09,434.5Zm-6.8-5a17.7,17.7,0,0,1-2.3.1,3,3,0,0,0,.1-2.6,8.34,8.34,0,0,1-.8-1.2,1,1,0,0,0-1.2-.5c-2.1-1.8-4.2-3.5-6.3-5.3a55.83,55.83,0,0,0,4.5-7.3Q194.14,421.1,197.29,429.5Zm-8.1-22.9c-1.2,1.1-2.1,3.1-1.6,4.2a4.33,4.33,0,0,0-.4,1.1l-1.5,2.4c-.7,1.1-1.4,2.1-2.1,3.2-3.6-3.1-7.3-6.1-10.9-9.2-.9-.8-2.1.1-2.9,1.4-.4-1.6-.7-3.2-1.1-4.8,2.2-2,4.4-4.1,6.6-6.2,2.1,3,4.2,6,6.2,9.1,1.5,2.2,5.2-2.7,3.9-4.7-2-2.9-3.9-5.7-5.9-8.6,1.5-1.6,3-3.1,4.4-4.7C185.59,395.4,187.39,401,189.19,406.6Zm-9.4-64.7a21.05,21.05,0,0,0,2.5.2,1.27,1.27,0,0,0,.6-.1c-.5,2.4-1,4.8-1.4,7.2l-4.2-.3A30.87,30.87,0,0,1,179.79,341.9Zm2.9,43.5c-1.8,2-3.5,3.9-5.4,5.8-3.2-4.7-6.4-9.4-9.7-14-1.5-2.2-5.2,2.7-3.9,4.7l9.3,13.5c-1.7,1.7-3.5,3.4-5.3,5-1.9-8.4-3.8-16.9-5.7-25.3.2-.1.3-.3.5-.5,1.9-2,3.7-4.1,5.5-6.2l5.3,6.2c1.8,2.1,5.4-2.9,3.9-4.7l-5.3-6.2c1.3-1.6,2.5-3.3,3.8-4.9C177.79,367.7,180.19,376.6,182.69,385.4ZM173,341.3a28.25,28.25,0,0,0,2.9.2,44.4,44.4,0,0,0-2.7,7.2c-1.1-.1-2.2-.2-3.3-.2C170.89,346.1,171.89,343.7,173,341.3Zm-1.6-5.9c-.6,0-1.1-.1-1.7-.1a5.18,5.18,0,0,0,1.4-2.1C171.19,333.8,171.19,334.6,171.39,335.4Zm-1.5-11.1.8,6c-2.3-3.3-4.6-6.7-6.9-10.1,1.5-2.7,2.9-5.4,4.3-8.1C168.79,316.1,169.39,320.2,169.89,324.3Zm-2.6-19a.76.76,0,0,0-.2.5,110.37,110.37,0,0,1-5.4,10.9c-2.7-4.1-5.3-8.3-7.8-12.5a1.16,1.16,0,0,0-.8-.6c1.7-3.2,3.3-6.5,5-9.7l3.9,5.4c1.4,2,4-1.4,4-3.7C166.39,298.9,166.79,302.1,167.29,305.3Zm-1.7-11.9c.1.5.1,1,.2,1.5,0-.1,0-.1-.1-.2a11.94,11.94,0,0,1-.8-1.6,1.34,1.34,0,0,0-.7-.6c-1-1.5-2.1-2.9-3.1-4.3a17.1,17.1,0,0,1,1.3-2.3c.5-1,1.1-2.1,1.7-3.2C164.59,286.3,165.09,289.8,165.59,293.4Zm-2.3-16.4a67.14,67.14,0,0,0-4,6.8,7.46,7.46,0,0,1-.7,1.2c-3.1-4-6.3-8-9.6-11.9-.8-.9-1.9-.5-2.8.4,0-.2-.1-.3-.1-.5a3.92,3.92,0,0,0,1.3-1.5c1.2-2.3,2.4-4.7,3.6-7,2.3,3.9,4.6,7.9,6.9,11.9,1.3,2.3,5-2.6,3.9-4.7-2.5-4.4-5-8.8-7.6-13.2,1.7-3.2,3.4-6.5,5-9.7C160.49,258.2,161.89,267.6,163.29,277ZM124.19,63c-.6-1.5-1.8-3.3-2.1-5-.4-2.5,1.3-4.5,2.5-6.5,1.7-3,3.2-6.5,5.3-9.3,2.6-3.5,6.2-2.8,10.3-3,4.5-.2,5.6.9,8.4,4.1,2,2.3,5.5,5.2,6.9,8,1.7,3.4-1.1,9.3-2.1,12.6-.9,2.9-1.8,5.9-2.8,8.8l-.9,1.2h-.1c-6.9.3-13.7.7-20.6,1a.75.75,0,0,0-.1-.5C127.39,70.6,125.79,66.8,124.19,63Zm5.1,20.5c1.4,2,2.9,4,4.3,6-1.5,1.4-2.9,2.9-4.3,4.4Zm4.9-3.2c3.5-.2,7-.3,10.5-.5-2.3,1.8-4.5,3.6-6.7,5.6C136.69,83.7,135.39,82.1,134.19,80.3Zm1.9,12.3c2.6,3.2,5.4,6.4,8.3,9.4-2.1,2.5-4.2,5.1-6.2,7.7-2.4-2.2-4.9-4.3-7.5-6.4a1.39,1.39,0,0,0-1.4-.1V99.6l.2-.2C131.59,97,133.79,94.8,136.09,92.6Zm11.8-10.1c-.1,4.7-.3,9.4-.3,14.1-2.5-2.6-4.8-5.3-7.1-8,2.2-2,4.6-3.8,7-5.6C147.59,82.8,147.79,82.7,147.89,82.5Zm-.3,36.2c-2.1-2.2-4.3-4.3-6.6-6.4,2-2.5,4-5,6.1-7.5a1.61,1.61,0,0,0,.4-.7C147.49,108.9,147.49,113.8,147.59,118.7Zm-13.1-4.2-5.4,7.5c.1-4,.1-7.9.2-11.9C131,111.5,132.79,113,134.49,114.5Zm-6,29.4c1.2,1.3,2.1,2.9,3.1,4.2.8,1,1.7,2,2.5,3.1-2.1,2.3-4.1,4.7-6.2,7C128.19,153.4,128.39,148.6,128.49,143.9Zm5.2-2.9c-1.3-1.7-2.4-3.4-4.4-4.2a1.09,1.09,0,0,0-.5-.1,14.77,14.77,0,0,1,.1-2.1c.1-1.9.1-3.8.1-5.7,2.7-4,5.5-7.9,8.3-11.7,3.1,2.8,6,5.7,8.9,8.8a1.42,1.42,0,0,0,1.6.4c.1,3,.2,6.1.3,9.1l-.4.4c-3.1,3.6-6.3,7.1-9.4,10.7C136.59,144.7,135.19,142.9,133.69,141Zm14.5-.1c.2,5.7.5,11.3.9,17-2.9-2.7-5.8-5.5-8.4-8.4C143.19,146.6,145.69,143.7,148.19,140.9Zm-21.4,39.5c1.7,2.2,3.4,4.4,5.1,6.5l-5.9,5.9C126.29,188.7,126.59,184.5,126.79,180.4Zm1.6-7.8a1.38,1.38,0,0,0-1.1-.6c.1-2.6.3-5.2.4-7.7l9-10.3a5,5,0,0,0,.7.8,132.61,132.61,0,0,0,12.1,11.6.31.31,0,0,0,.2.1c.1,1.2.2,2.5.3,3.7a1.71,1.71,0,0,0-1.8.6l-12,12C133.49,179.4,130.89,176.1,128.39,172.6Zm-4,41.5c2.9,3.5,5.9,6.9,9,10.3-3.6,2.7-7.1,5.5-10.7,8.4C123.29,226.5,123.89,220.3,124.39,214.1Zm-2.2,24.4c4.6-3.7,9.3-7.4,14.1-11q8,8.7,16.5,16.8c2.1,2,5.5-3,3.9-4.7a4.35,4.35,0,0,1-.6-.7l-.2-.2c-5-4.8-9.9-9.8-14.7-14.9,3.8-2.8,7.7-5.7,11.6-8.4,2.2-1.6,2.1-6.7-1.2-4.3-4.5,3.1-8.9,6.4-13.2,9.6-3.9-4.3-7.8-8.7-11.5-13.3a1.42,1.42,0,0,0-1.7-.4c.2-2.8.4-5.6.6-8.3l8.8-8.8c4,4.8,8.2,9.5,12.6,14,2,2,5.5-3,3.9-4.7-4.3-4.4-8.3-8.9-12.2-13.5,3.6-3.6,7.2-7.1,10.8-10.7a10.63,10.63,0,0,0,.9-1.1c.4,4.9.9,9.7,1.3,14.6,1.8,18.4,4.2,36.7,6.8,55a3,3,0,0,0-1.6,1.7c-1.6,3.2-3.3,6.3-4.9,9.5-2.7-4.5-5.5-8.9-8.3-13.3-1.5-2.3-5.2,2.7-3.9,4.7,3.1,4.8,6.1,9.6,9.1,14.5l-3.6,6.9c-.9-5.5-1.8-11-2.8-16.5-.6-3.2-4.3,1.6-4.4,3.1-.2,5.3-.6,10.6-.9,15.9l-7.3-13.9c2.9-3.8,5.9-7.5,8.9-11.2,2-2.4.4-6.4-2.3-3.2-2.9,3.5-5.8,7.1-8.6,10.7l-4.5-8.6a1.08,1.08,0,0,0-1.6-.4A20.53,20.53,0,0,1,122.19,238.5Zm-1.4,12.9,3.2,6.2c-1.6,2.1-3.2,4.3-4.7,6.5C119.89,259.8,120.39,255.6,120.79,251.4Zm-2.4,20.6h0c2.5-3.7,5-7.2,7.6-10.7l7.9,15c.6,1.1,1.8.6,2.7-.6-.1,1.1-.2,2.3-.3,3.4-.3-1.3-1.6-1.9-3.2-.1-2.2,2.3-4.3,4.7-6.5,7-1.6-2.6-3.2-5.2-4.9-7.8-1.5-2.3-5.2,2.7-3.9,4.7,1.6,2.5,3.2,5,4.7,7.5-.9,1-1.8,1.9-2.7,2.9-1.3,1.4-3.3,3.1-5,4.9C116.19,289.4,117.29,280.7,118.39,272Zm-5.6,40.5c1.1,1.5,2.1,3.1,3.2,4.6l-4.4,3.2Zm-2.1,13.7c2.6-1.8,5.2-3.7,7.7-5.5a5.55,5.55,0,0,0,.6.8c1.7,2.5,3.9,5.1,5.5,7.8a2.49,2.49,0,0,0,.3,1.7,1.36,1.36,0,0,0,1.3.7c1.7-.1,3-1.8,3.3-3.4.6-3.2-3-6.5-4.7-8.9l-1.4-2,6.6-4.8c2.2-1.6,2.1-6.7-1.2-4.3-2.6,1.9-5.2,3.7-7.8,5.6-1.6-2.3-3.2-4.7-4.8-7-.6-.8-1.5-.7-2.3,0,0-.3.1-.6.1-.9a4.59,4.59,0,0,0,1.4-.7,4.29,4.29,0,0,0,1.6-3.1c2.4-2.9,5.3-5.5,7.8-8.2,1.9,3.3,3.8,6.6,5.6,10,.9,1.7,3.1-.4,3.8-2.5-1.3,10.9-2.9,21.8-4.7,32.6-3.4,0-6.9.1-10.3.2-.5-.9-1.9-.5-2.6.1h0l-7.2.3C109.79,331.8,110.19,329,110.69,326.2Zm16.1,20.5c-2,0-4.1-.1-6.1-.1-.1-2.3-.3-4.6-.6-6.8,1.9,0,3.9-.1,5.8-.1C126.19,342,126.49,344.4,126.79,346.7Zm-10.7-.2h-3.3c-.4-2.1-.8-4.3-1.3-6.4,1.3-.1,2.5-.1,3.8-.1C115.59,342.1,115.89,344.3,116.09,346.5Zm-15.5-5.9,6.1-.3a2.85,2.85,0,0,0,0,1.3c.3,1.6.6,3.3,1,4.9h-2.2A34.13,34.13,0,0,1,100.59,340.6Zm6.2,12.2c.1-.2.1-.4.2-.6h2a1.64,1.64,0,0,0,2,0c5,0,10,.1,14.9.2a5.36,5.36,0,0,0-.5,1.1l-.6,3.3c-.3-.4-.9-.4-1.8-.1-3.4,1.4-6.7,3-10,4.6l-.2-.3c-.2-.4-1.5-2.2-2.2-3.4.3-.8.5-1.9-.1-2.5a2,2,0,0,0-2-.7c-1.4.2-2.4,2.2-2.7,3.4-.5,2.1.7,4.2,1.9,6.1-1.8.9-3.5,1.9-5.3,2.9-.1,0-.1.1-.2.1C103.79,362.2,105.29,357.5,106.79,352.8Zm-5.9,19.1c.3.5.9.6,1.8.1,2.5-1.4,5-2.7,7.6-4,1.8,3.3,3.6,6.5,5.4,9.8l-8.7,5.7c-1.3-2-2.5-4.1-3.8-6.1-1.3-2.3-5.1,2.6-3.9,4.7.9,1.6,1.8,3.1,2.8,4.6-.1.1-.2.1-.3.2-2,1.3-4.7,2.6-6.5,4.4C97.09,384.8,99,378.3,100.89,371.9Zm-15.4,57.8c.6-2.6,1.2-5.2,1.9-7.9,3.4-1.8,6.8-3.6,10.2-5.5,2.6,3.6,5.3,7.2,8,10.7a1.8,1.8,0,0,0,.7,2.1c1,.6,1.6.4,2.7-.1,1.4-.7,3-3.4,1.9-4.9q-4.2-5.4-8.1-10.8c2.3-1.3,4.5-2.7,6.8-4.1,2-1.2,3-7.1-.1-5.1s-6.2,3.8-9.3,5.6c-1.2-1.7-2.4-3.4-3.6-5.2-1.5-2.2-5.2,2.7-3.9,4.7a40.47,40.47,0,0,1,2.3,3.4c-2,1.1-4,2.2-6.1,3.3,1.6-6.3,3.2-12.6,4.9-18.8h0a2.49,2.49,0,0,0,2.7-.6,4.5,4.5,0,0,0,1.4-1.9c2.1-1.6,4.4-2.9,6.6-4.3,2.4,3.7,4.9,7.3,7.6,10.8,1.7,2.2,5.3-2.8,3.9-4.7-2.3-3-4.5-6.1-6.6-9.2,2.7-1.8,5.3-3.5,8-5.3,1.1-.8,2.4-2.3,2.2-3.8a3.34,3.34,0,0,0-.5-1.2c.8-1.1,1.2-2.6.7-3.5-1.4-2.6-2.9-5.2-4.3-7.8,2.6-1.2,5.2-2.4,7.8-3.5a2.41,2.41,0,0,0,.8-.6q-6.6,34.5-13.2,69.1a3.75,3.75,0,0,0-.1,1c-8.5-.2-16.9-.6-25.4-1A7.75,7.75,0,0,1,85.49,429.7Zm4.6,6.6a129.93,129.93,0,0,0,2.3,13.9l-6.7-.3a2.77,2.77,0,0,0-.1-.9,59,59,0,0,1-2.9-13.1C85.09,436.1,87.59,436.2,90.09,436.3Zm-20.6-1.2,8.4.6v.4a61.66,61.66,0,0,0,2.4,13.5l-6-.3C72.69,444.6,71.09,439.8,69.49,435.1Zm7.6,20.8.3-.6c7.6.4,15.2.8,22.8,1.1-.1.1-.1.2-.2.4-1.7,4.8-3.4,9.5-5,14.3q-13.2-.3-26.4-.9C71.39,465.3,74.19,460.6,77.09,455.9Zm-43.7,79.2c2.6,2.6,5.3,5.2,8,7.7-1.4.5-2.7,1-4.1,1.5-2.7,1-7.2,2.3-10.6,4.3C29,544.1,31.19,539.6,33.39,535.1Zm5.3-3.3.6-.3c5.6-3.7,11.4-7.1,17.3-10.3l7.8,13.5c-5.6,1.8-11.1,3.8-16.6,5.8C44.69,537.7,41.69,534.8,38.69,531.8Zm14.7,23.3-10.7-.2-16.6-.3a.35.35,0,0,1,.1-.2c4.6-3.5,11.8-5.1,16.8-7l2.4-.9,9.9,8.7C54.39,555.2,53.59,555.1,53.39,555.1Zm10.4-.3a5.55,5.55,0,0,0-.6.8h-2.9c.8-1.3,1.3-2.9.6-3.7a9.43,9.43,0,0,0-1-1,1.37,1.37,0,0,0-.8-.5c-2.4-2-4.8-4-7.1-6.1,3.8-1.3,7.6-2.7,11.5-3.9,1-.3,1.9-1.8,2.3-3.1a2.09,2.09,0,0,0,.4.6,1.08,1.08,0,0,0,1.1.6A68.63,68.63,0,0,0,63.79,554.8Zm15.3-39.3c-.1.2-.1.5-.2.7a78.07,78.07,0,0,0-9.4,16c0-.1-.1-.1-.1-.2a1.79,1.79,0,0,0-.5-.7c-2.4-4.3-4.8-8.5-7.3-12.7,4.4-2.3,8.9-4.4,13.5-6.4,2.2-1,3.3-6.6-.1-5.1-5.3,2.4-10.6,4.9-15.7,7.6-2.2-3.7-4.5-7.5-6.7-11.2-1.4-2.3-5.1,2.6-3.9,4.7,1.9,3,3.7,6.1,5.6,9.2-5.1,2.8-10.2,5.9-15.1,9.1a5.8,5.8,0,0,0-1.8,4.1l-1-1h-.1q13.5-26.7,28.4-52.5a2.77,2.77,0,0,0,.1.9,92.58,92.58,0,0,0,5.1,11.1c-3.6,2.3-7.3,4.7-10.9,7-2,1.3-3,7.1.1,5.1,4.3-2.8,8.6-5.5,12.9-8.3,2.5,4.5,5.2,8.9,7.6,13.3.8,1.5,2.7-.1,3.6-2C81.89,507.8,80.49,511.7,79.09,515.5Zm4.4-14.2c-2.1-3.9-4.4-7.8-6.7-11.7,3.5-2.3,7-4.5,10.6-6.8,2-1.3,3-7.1-.1-5.1l-12.6,8.1a75.22,75.22,0,0,1-4.8-9.9c7.7.3,15.5.6,23.2.8-3.1,8.8-6.3,17.6-9.4,26.4A5.24,5.24,0,0,0,83.49,501.3Zm81.7-12.9c-17.3-2.7-36.4-2.6-53.1,3.3a71,71,0,0,0-26.3,16.8c.6-1.8,1.3-3.5,1.9-5.3a4.84,4.84,0,0,0,1.2-1c24.8-29.2,67.5-23,98.8-9.6a2,2,0,0,0,1.7-.2c1.2,2.1,2.3,4.1,3.6,6.2C184.79,493.1,175.39,490,165.19,488.4Zm31.5,5.3c-2.8-4.7-5.5-9.6-8-14.5,4.1,1.9,8.3,3.7,12.4,5.6A56.64,56.64,0,0,0,196.69,493.7Zm8.3,16a50,50,0,0,0-5.4-5.8c1-1.2,1.6-3,.9-4-.5-.8-1-1.6-1.6-2.5a3.55,3.55,0,0,0,1.1-1.6,54.1,54.1,0,0,1,4.5-9.4c4.1,1.8,8.1,3.7,12.2,5.5a1,1,0,0,0,.6.5c.5.2,1,.3,1.5.5a2.4,2.4,0,0,0,2.3-.8c.4,1.1.9,2.2,1.3,3.3a5.12,5.12,0,0,0-2,2.6c-.7,3.1-1.5,6.2-2.2,9.3-4.6-2.7-9.2-5.5-13.8-8.3-2.2-1.3-5.3,4-3.1,5.4,5.1,3.1,10.2,6.2,15.4,9.2-.9,3.6-1.7,7.2-2.6,10.8A76.67,76.67,0,0,0,205,509.7Zm11.2,19.1a4.88,4.88,0,0,1-.3-.7,3.84,3.84,0,0,0,1.5-1.3.76.76,0,0,0,.2-.4,3.18,3.18,0,0,0,.6-2.3c.7-2.8,1.4-5.7,2-8.5,3.7,2.2,7.4,4.3,11.1,6.4a2,2,0,0,0,2.4-.7c.5,1.1,1.1,2.2,1.6,3.3a3,3,0,0,0-.9,1.3,4.32,4.32,0,0,0-1.4,3.3c-.7,1.8-1.4,3.5-2.1,5.3-3.9-2.4-7.9-4.8-11.9-7.1C218.19,526.8,217,527.6,216.19,528.8Zm9.1,25.7c-2.1-6.8-4.3-13.7-6.9-20.4,3.5,2,7,4.1,10.4,6.3-.9,2.5-1.9,5.1-2.7,7.6l-.3.6c-.2.5-.3,1-.5,1.5-1.3,3.9,2.9,3.4,3.9.4.9-2.7,1.9-5.3,2.8-7.9,4.5,2.9,8.9,5.8,13.2,8.9,1,.7,2.4-.4,3.2-1.8,1,1.8,2,3.5,3.1,5.3A143,143,0,0,0,225.29,554.5Z"/></g></g></g></svg>