<svg xmlns="http://www.w3.org/2000/svg" xmlns:xlink="http://www.w3.org/1999/xlink" viewBox="0 0 4001.03 2000"><defs><style>.cls-1{fill:#5db37d;}.cls-2{fill:#fff;}</style></defs><g id="Calque_2" data-name="Calque 2"><g id="Calque_1-2" data-name="Calque 1"><rect class="cls-1" x="1.03" width="4000" height="2000"/><path class="cls-2" d="M2078.52,1999.57a4,4,0,0,1-2.89-6.76,545.65,545.65,0,0,1,43.66-41,4,4,0,1,1,5.15,6.12,536.61,536.61,0,0,0-43,40.37A4,4,0,0,1,2078.52,1999.57Zm91-77a4,4,0,0,1-2.28-7.29c16.06-11.12,33.2-22,50.95-32.28a4,4,0,1,1,4,6.92c-17.56,10.19-34.52,20.93-50.4,31.94A4,4,0,0,1,2169.56,1922.52Zm103.63-60.33a4,4,0,0,1-1.77-7.59c17.68-8.66,36.16-17,54.93-24.76a4,4,0,1,1,3.06,7.39c-18.62,7.71-36.95,16-54.47,24.55A3.9,3.9,0,0,1,2273.19,1862.19Zm110.78-46a4,4,0,0,1-1.32-7.78c18.78-6.53,38.09-12.65,57.41-18.2a4,4,0,1,1,2.21,7.68c-19.18,5.51-38.35,11.59-57,18.08A4,4,0,0,1,2384,1816.21ZM2499.22,1783a4,4,0,0,1-.92-7.9c19.41-4.6,39.14-9,58.64-13.08a4,4,0,0,1,1.63,7.83c-19.43,4.06-39.09,8.45-58.42,13A4.22,4.22,0,0,1,2499.22,1783Zm117.38-24.56a4,4,0,0,1-.71-7.94c19.07-3.47,38.44-6.77,59.21-10.07a4,4,0,1,1,1.25,7.9c-20.7,3.29-40,6.58-59,10A3.68,3.68,0,0,1,2616.6,1758.46Zm118.41-19a4,4,0,0,1-.56-8q16.35-2.37,32.09-4.59,13.85-2,27.27-3.89a4,4,0,0,1,1.14,7.92q-13.44,1.93-27.28,3.89-15.75,2.23-32.08,4.59A3.77,3.77,0,0,1,2735,1739.45Zm118.63-17.51a4,4,0,0,1-.64-7.94c21.74-3.58,41-7.16,58.76-10.92a4,4,0,0,1,1.66,7.82c-17.92,3.8-37.26,7.39-59.12,11A3.67,3.67,0,0,1,2853.64,1721.94Zm117.14-25.26a4,4,0,0,1-1.09-7.85c19.57-5.57,38.09-11.66,56.61-18.61a4,4,0,1,1,2.82,7.48c-18.73,7-37.46,13.2-57.24,18.82A3.85,3.85,0,0,1,2970.78,1696.68Zm112.18-42a4,4,0,0,1-1.67-7.64c19.16-8.78,36.73-17.38,53.72-26.29a4,4,0,0,1,3.72,7.08c-17.12,9-34.81,17.65-54.11,26.48A3.93,3.93,0,0,1,3083,1654.67Zm106.1-56a4,4,0,0,1-2.1-7.41c17.44-10.75,34.08-22,49.47-33.35a4,4,0,0,1,4.76,6.43c-15.57,11.52-32.4,22.87-50,33.73A4,4,0,0,1,3189.06,1598.64Zm96.12-71.6a4,4,0,0,1-2.7-7,481.47,481.47,0,0,0,41.4-42.7,4,4,0,1,1,6.08,5.19,487.68,487.68,0,0,1-42.08,43.42A4,4,0,0,1,3285.18,1527Zm77.27-91.33a3.92,3.92,0,0,1-2.12-.62,4,4,0,0,1-1.27-5.51,367,367,0,0,0,27.36-52.56,4,4,0,1,1,7.37,3.09,373.34,373.34,0,0,1-27.95,53.72A4,4,0,0,1,3362.45,1435.71Zm45.86-110.19a4.43,4.43,0,0,1-.8-.08,4,4,0,0,1-3.12-4.72c3.42-16.79,5.68-36.62,6.74-59a4,4,0,1,1,8,.38c-1.08,22.74-3.39,43-6.89,60.16A4,4,0,0,1,3408.31,1325.52Zm7-119.56a4,4,0,0,1-4-3.86c-.61-18.6-1.81-38.69-3.57-59.71a4,4,0,0,1,8-.66c1.77,21.15,3,41.37,3.59,60.1a4,4,0,0,1-3.87,4.13Zm-9.74-119.61a4,4,0,0,1-4-3.52c-2.3-19.08-5-39-8.07-59.35a4,4,0,1,1,7.91-1.19c3.06,20.38,5.79,40.42,8.1,59.58a4,4,0,0,1-3.49,4.45Zm-17.76-118.7a4,4,0,0,1-3.93-3.31c-1.08-6.13-2.2-12.35-3.32-18.47-2.19-11.93-5.29-24.92-9.47-39.72a4,4,0,1,1,7.69-2.18c4.26,15,7.41,28.28,9.65,40.46,1.12,6.14,2.24,12.37,3.33,18.53a4,4,0,0,1-3.25,4.63A4.23,4.23,0,0,1,3387.85,967.65ZM3458.17,873c-12,0-24.54-.11-37.22-.33a4,4,0,0,1,.07-8h.07c12.63.22,25.11.33,37.08.33,7.73,0,15.41,0,22.82-.13h.05a4,4,0,0,1,.05,8C3473.65,873,3465.94,873,3458.17,873Zm82.85-2.1a4,4,0,0,1-.23-8c22.58-1.28,42.56-3.16,59.39-5.59a4,4,0,1,1,1.14,7.92c-17.06,2.46-37.27,4.36-60.07,5.66Zm-180,0h-.17c-20.33-.84-40.52-1.91-60-3.19a4,4,0,1,1,.52-8c19.44,1.27,39.58,2.34,59.85,3.18a4,4,0,0,1-.17,8Zm-119.76-8-.41,0-3.82-.4c-18-1.88-36.8-4.67-55.87-8.3a4,4,0,1,1,1.5-7.86c18.84,3.58,37.42,6.34,55.2,8.21l3.8.39a4,4,0,0,1-.4,8Zm115.38-11a4,4,0,0,1-3.78-2.69c-5.5-15.84-11.26-31.76-17.36-48.62l-2.85-7.86a4,4,0,0,1,7.53-2.72l2.84,7.85c6.11,16.89,11.88,32.84,17.4,48.72a4,4,0,0,1-2.47,5.1A4,4,0,0,1,3356.65,851.9Zm302.39-.44a4,4,0,0,1-1.21-7.82,452.67,452.67,0,0,0,55.38-21.49,4,4,0,1,1,3.42,7.23,460.1,460.1,0,0,1-56.37,21.89A4.25,4.25,0,0,1,3659,851.46Zm-535.59-10.54a3.7,3.7,0,0,1-1-.14c-18.53-4.89-37.43-10.45-57.76-17a4,4,0,0,1,2.45-7.62c20.19,6.48,39,12,57.36,16.86a4,4,0,0,1-1,7.87Zm-114.33-36.37a4,4,0,0,1-1.36-.24c-17-6.15-35.44-13.06-56.31-21.12a4,4,0,0,1,2.88-7.47c20.82,8,39.19,14.94,56.15,21.07a4,4,0,0,1-1.36,7.76Zm757.38-5.2a4,4,0,0,1-2.38-7.22,223.38,223.38,0,0,0,42.46-40.62,4,4,0,0,1,6.25,5,231.55,231.55,0,0,1-43.95,42.07A4,4,0,0,1,3766.5,799.35ZM2897,761.53a4,4,0,0,1-1.47-.29l-7.86-3.11c-15.72-6.23-32-12.66-48-18.91a4,4,0,1,1,2.91-7.45c16,6.25,32.27,12.69,48,18.92l7.85,3.12a4,4,0,0,1-1.47,7.72Zm419.42-22.76a4,4,0,0,1-3.79-2.72c-7.29-21.45-13.19-40.25-18.05-57.46a4,4,0,0,1,7.7-2.17c4.82,17.07,10.69,35.74,17.93,57.06a4,4,0,0,1-2.5,5.07A3.89,3.89,0,0,1,3316.42,738.77ZM2785.1,718.11a3.91,3.91,0,0,1-1.38-.25c-20.35-7.53-38.81-14.06-56.44-20a4,4,0,0,1,2.54-7.59c17.7,5.92,36.24,12.47,56.67,20a4,4,0,0,1-1.39,7.75Zm1055.74-11.22a4,4,0,0,1-3.62-5.7c9-19.14,14.92-37.43,18.11-55.9a4,4,0,0,1,7.88,1.36c-3.31,19.19-9.44,38.14-18.75,57.94A4,4,0,0,1,3840.84,706.89Zm-1169.56-26.5a4.09,4.09,0,0,1-1.09-.15c-20-5.64-39.47-10.51-58-14.46a4,4,0,0,1,1.67-7.82c18.66,4,38.32,8.89,58.46,14.58a4,4,0,0,1-1.08,7.85ZM2554,655.7a4.36,4.36,0,0,1-.51,0,580.63,580.63,0,0,0-59.31-4.6,4,4,0,1,1,.19-8,588.24,588.24,0,0,1,60.14,4.65,4,4,0,0,1-.51,8Zm730.75-32.61a4,4,0,0,1-3.93-3.3c-3.82-21.53-5.68-40.72-5.68-58.66V559.4a4,4,0,0,1,8,.06v1.67c0,17.47,1.82,36.2,5.56,57.26a4,4,0,0,1-3.24,4.64A4.25,4.25,0,0,1,3284.72,623.09Zm574.77-32.83a4,4,0,0,1-3.93-3.32,178.78,178.78,0,0,0-19.44-55.09,4,4,0,1,1,7-3.82,186.23,186.23,0,0,1,20.3,57.56,4,4,0,0,1-3.27,4.61A3.91,3.91,0,0,1,3859.49,590.26Zm-571-85.8a3.88,3.88,0,0,1-1.33-.23,4,4,0,0,1-2.43-5.11c.84-2.38,1.76-4.76,2.72-7.06a210.39,210.39,0,0,1,26.89-46.25,4,4,0,1,1,6.37,4.84,202.92,202.92,0,0,0-25.88,44.49c-.9,2.17-1.77,4.41-2.57,6.66A4,4,0,0,1,3288.53,504.46Zm521-22.36a4,4,0,0,1-3.41-1.89,516.36,516.36,0,0,0-33.83-48.88,4,4,0,0,1,6.27-5A524,524,0,0,1,3812.93,476a4,4,0,0,1-1.29,5.51A4,4,0,0,1,3809.54,482.1ZM3359,409a4,4,0,0,1-2.59-7,422.22,422.22,0,0,1,49-35.55,4,4,0,0,1,4.26,6.77,414.81,414.81,0,0,0-48.1,34.88A4,4,0,0,1,3359,409Zm375.39-19.77a4,4,0,0,1-2.68-1c-12.06-10.87-25.89-22.11-46.25-37.57a4,4,0,1,1,4.84-6.37c20.55,15.61,34.53,27,46.77,38a4,4,0,0,1-2.68,7Zm-274.86-45.53a4,4,0,0,1-2-7.48c2.19-1.24,4.25-2.42,6.16-3.55,13.68-8.06,30.75-14.2,50.75-18.25a4,4,0,1,1,1.58,7.84c-18.85,3.82-35.54,9.8-48.26,17.3-2,1.15-4.05,2.36-6.28,3.62A3.9,3.9,0,0,1,3459.57,343.72Zm174.71-18.12a4.19,4.19,0,0,1-1-.14,254,254,0,0,0-58.37-8,4,4,0,0,1,.1-8h.1a262.46,262.46,0,0,1,60.24,8.32,4,4,0,0,1-1,7.87Z"/><path class="cls-2" d="M406.69,857.75h0c-17.57-.11-34.9-.89-51.5-2.32-2.93-.25-5.85-.53-8.77-.82a4,4,0,0,1,.8-8q4.32.44,8.66.81c16.39,1.41,33.5,2.18,50.86,2.29a4,4,0,0,1,0,8Zm59.94-2a4,4,0,0,1-.28-8c18.85-1.32,38.3-3.25,59.47-5.92a4,4,0,0,1,1,7.94c-21.32,2.68-40.92,4.63-59.91,6Zm-179.15-9.92a4.08,4.08,0,0,1-.77-.07C267.82,842.1,248.07,837.48,228,832a4,4,0,0,1,2.1-7.72c19.87,5.4,39.42,10,58.11,13.6a4,4,0,0,1-.75,7.93Zm298.21-4.66a4,4,0,0,1-.64-7.95c20.79-3.37,41.53-7,59.07-10.16a4,4,0,0,1,1.41,7.88c-17.58,3.14-38.36,6.8-59.2,10.17A3.47,3.47,0,0,1,585.69,841.17Zm118.21-20.7a4,4,0,0,1-.69-8c23.11-4,41.95-7.15,59.29-9.78a4,4,0,0,1,1.21,7.91c-17.29,2.62-36.07,5.72-59.12,9.75A4.14,4.14,0,0,1,703.9,820.47Zm-532.22-5.8a4,4,0,0,1-1.27-.2c-17.91-6-36.44-12.64-56.63-20.32a4,4,0,0,1,2.84-7.48c20.09,7.64,38.52,14.25,56.33,20.21a4,4,0,0,1-1.27,7.79Zm650.91-11.81a4,4,0,0,1-.43-8c21.27-2.3,40.91-3.84,60.06-4.69a4,4,0,0,1,.36,8c-19,.85-38.46,2.37-59.56,4.66Zm175.47-.2a3.27,3.27,0,0,1-.54,0c-17.81-2.39-36.42-4-55.3-4.71a4,4,0,1,1,.31-8c19.14.74,38,2.35,56.06,4.77a4,4,0,0,1-.53,8ZM59.41,772.32a3.84,3.84,0,0,1-1.51-.3C39.74,764.6,22.05,757.2,2.46,749a4,4,0,1,1,3.09-7.38c19.57,8.2,37.25,15.59,55.38,23a4,4,0,0,1-1.52,7.7Z"/><path class="cls-2" d="M882.42,732.5S879,668.22,965.55,604.1c62.25-46.12,90.7-75.37,90.7-75.37,41.17-46.19,88.22-90.1,146.76-110.8,74.15-26.22,155.74-11.85,233.36,1,199.17,32.89,411,52.25,596.85-26.24C2172,334.08,2244.88,288,2395.43,295.48c49.29,2.46,213.49,27.15,260.29,42.65C2769,375.66,2827,343.92,2892.58,443c58.39,88.23,24.36,203.76,65.88,300.94,45.14,105.63,115.07,189.29,105.3,303.66-8.94,104.73-42.19,187.2-120.34,258.22-75,68.11-118.72,33.78-177.37,116.13C2728,1475.42,2686,1559,2628.56,1591.29c-42.29,23.75-109.2,33.59-157.71,36.19-92.21,4.93-137,6.38-225.95-18.24-111.71-30.92-217.45-56.12-325.54-66-115.39-10.6-281.87-38.07-390.65,2-38.36,14.13-74,35.17-113,47.38-119,37.23-260.84-23-315.7-134.11-63.51-128.57-13.21-288-64.71-421.75-21.73-56.42-34.54-57.06-62.55-110.67-12.21-23.35-31.92-62.55-60.11-96-16-19-34.8-71.1-30.2-97.57"/><path class="cls-2" d="M3471.79,582.3Q3483,651.75,3487.57,722c.16,2.48,2.17,5.3,5,5l179-18.76c2.45-.25,5.33-2.09,5-5A666,666,0,0,0,3643.32,557c-2.11-6-11.77-3.44-9.64,2.65a654.76,654.76,0,0,1,32.9,143.63l5-5-179,18.76,5,5q-4.62-71.53-16.14-142.39c-1-6.33-10.66-3.64-9.64,2.66Z"/><path class="cls-2" d="M3442.55,593.41a748.85,748.85,0,0,1,80.12-97.2c7.11-7.28,14.3-14.56,21.82-21.41,6.71-6.1,15.6-13.18,25.29-11,9.24,2.09,17.93,10.76,25.28,16.33q12.87,9.76,25.39,20,28.22,23,54.57,48.14l2.21-8.36c-31.3,7.94-62.62,15.89-94.31,22.18-16.32,3.24-32.74,6.07-49.25,8.16-15.39,2-30.86,2.91-46.3,4.38-16.83,1.6-33.63,4.14-49.37,10.56-5.88,2.4-3.31,12.08,2.66,9.64,28.49-11.62,60.05-10.57,90.13-14.22,32.17-3.91,63.95-10.35,95.48-17.78,17.92-4.22,35.77-8.75,53.62-13.28a5,5,0,0,0,2.2-8.36q-25-23.79-51.68-45.77-13.47-11.07-27.34-21.64c-8.25-6.31-16.68-14-26.31-18.08-20.5-8.7-37.69,10.14-50.89,23.14q-24,23.61-45.8,49.32-24.56,28.94-46.16,60.21c-3.67,5.3,5,10.31,8.64,5Z"/><path class="cls-2" d="M3553.13,712.29c-3.9-16.54-7.05-36.22-7.47-44.45-.25-4.76,0-13.62,3.16-17.21a26.22,26.22,0,0,1,8.11-6.35c9.75-3.91,13.09-4.9,32-6.22,4.31-.3,11,3.12,11.94,3.91,3.22,2.71,4.64,8.12,5,9.64,3.41,13.58,4.26,19.77,4.82,24.39.69,5.75,1.93,17.19,3,29.07"/><path class="cls-2" d="M417.55,403c22.16-4.31,47.25-14.11,69.41-18.41-5.27-11.8,1.77-29,20.26-42.44s43.92-26.06,66.46-29.78c17.23-2.84,28.42-3.94,41,5.18,13.31,9.66,25.33,32.1,31,47.52-11.12-10.53-33.87-7.22-49.59-1.76-14.45,5-51.1,19.79-64.49,27.18C509.42,402.71,505.2,410.3,507,419.68a76.35,76.35,0,0,1-20-35.13"/><path class="cls-2" d="M421.87,405.48A1149.27,1149.27,0,0,1,490.8,274.73l-4.31,2.47a1269.13,1269.13,0,0,0,195.69,7.24l-3.53-8.54a540.53,540.53,0,0,0-44.89,56.22c-3.68,5.3,5,10.3,8.63,5.05A521.47,521.47,0,0,1,685.72,283c2.78-3,1-8.72-3.54-8.53a1269.13,1269.13,0,0,1-195.69-7.24,4.91,4.91,0,0,0-4.32,2.48,1149.35,1149.35,0,0,0-68.94,130.75c-2.6,5.83,6,10.92,8.64,5.05Z"/><path class="cls-2" d="M500.16,416.32c1.24,16.65,18.08,22.37,32.55,20.62,16.42-2,33-4.37,48.53-10.13,21.66-8,45.71-18.45,61-36.51,5.9-7,16-20.34,7-28.8-4.69-4.41-11.77,2.65-7.07,7.07,4.23,4-10.09,18.29-12.81,20.81-8.11,7.54-18.72,13.58-28.61,18.48a174.33,174.33,0,0,1-45.13,15.59,250.8,250.8,0,0,1-25.42,3.76c-7.65.63-19.33-1.2-20.05-10.89-.48-6.38-10.48-6.43-10,0Z"/><path class="cls-2" d="M453.87,378.07l37.15,87,8.64-5.05c-4.09-9.13-18.21-8.64-22.88-.31-6.06,10.8,5,22.93,16.08,21.9,10.08-.93,18-9.08,17.26-19.25-.63-8.62-6.12-17.53-15.88-15.22-6.26,1.47-3.61,11.12,2.66,9.64,2.26-.54,3,3.93,3.22,5.48.43,3.47-.39,5.54-3.32,7.58-3.71,2.59-10.48,2.79-11.49-2.87a3,3,0,0,1,5.71-1.9c2.64,5.9,11.12.77,8.64-5.05L462.5,373c-2.52-5.9-11.14-.82-8.63,5Z"/><path class="cls-2" d="M479.53,380.67q-30.64,6.76-60.55,16.42c-6.1,2-3.49,11.63,2.66,9.64q29.88-9.64,60.55-16.42c6.28-1.38,3.63-11-2.66-9.64Z"/><image width="800" height="800" transform="translate(187.78 1250.64) scale(0.79)" xlink:href="../../../../Downloads/carton%20-%20min.png"/><path class="cls-1" d="M640.38,1557a400,400,0,0,1-25.6,60.42,132.25,132.25,0,0,1,44.05-27,5.78,5.78,0,0,0,3.14-2,5.21,5.21,0,0,0,.56-2.5,33.87,33.87,0,0,0-5.35-20.57c-4.06-5.95-9.6-7.92-16.8-8.38"/><path class="cls-1" d="M631.34,1586a17.47,17.47,0,0,1,10.55,10.57"/><path class="cls-1" d="M640.38,1557c49.58-48.25,92.76-97.49,136.21-142.68,15.12,0,24.11,3.72,27.85,17.24.6,2.16,1.09,4.49.36,6.6a12.11,12.11,0,0,1-3,4.17L661.34,1589.14"/><path class="cls-2" d="M639.64,1557a403,403,0,0,1-19,47.32q-3.17,6.62-6.56,13.1c-.24.47,2.54.64,2.61.64.89,0,2.57.13,3.29-.53a131.54,131.54,0,0,1,35.39-23.39q2.35-1.05,4.74-2c1.63-.66,3.34-1.16,4.92-1.92a4.39,4.39,0,0,0,2.54-2.51,15.49,15.49,0,0,0,.27-5.22c-.27-6.67-2.29-13.61-6.58-18.83-4.41-5.39-11.14-6.91-17.79-7.36-.76,0-3.2-.24-3.69.52s1.87.8,2.11.82c5.18.35,9.94,2.15,13.37,6.18,4.26,5,6.22,11.85,6.56,18.32a27.77,27.77,0,0,1,0,4.56c-.21,1.86-1.27,2.67-2.92,3.3-3.05,1.17-6.09,2.35-9.07,3.7a135.56,135.56,0,0,0-17.64,9.61,133,133,0,0,0-18,13.94l5.89.1a402.27,402.27,0,0,0,20.75-46.59q2.55-6.87,4.85-13.83c.13-.39-5.53-1.33-6,.08Z"/><path class="cls-2" d="M632,1587.46l.88.34.44.19c.15.07.61.34,0,0,.55.31,1.11.59,1.64.93l.78.53.38.29c.06,0,.4.34.14.1l.19.17.36.32.68.65q.63.64,1.2,1.35l.58.75c0,.06.33.51.06.09l.26.4a17.18,17.18,0,0,1,1.64,3.4,2.31,2.31,0,0,0,1.35,1.08,4.86,4.86,0,0,0,2.3.25c1-.17,2.63-.77,2.16-2.09a19.68,19.68,0,0,0-11.89-11.66,5.17,5.17,0,0,0-2.31-.24,3.18,3.18,0,0,0-1.81.75c-.93,1-.07,2,1,2.42Z"/><path class="cls-2" d="M644,1557.43c19-18.52,37.49-37.57,55.72-56.86,17.48-18.49,34.72-37.2,52.09-55.79q14.1-15.1,28.39-30l-3,1.58c5.48,0,11.2.39,16.25,2.72a19.29,19.29,0,0,1,9.59,10.43,29.39,29.39,0,0,1,1.44,4.4c.45,1.81.85,3.91.05,5.68-.68,1.51-2.16,2.73-3.29,3.9l-4.66,4.87-18.46,19.31L741,1506.42l-37.1,38.79-36.93,38.6-4.66,4.87c-.47.49-1.85,1.89-.79,2.45s2.9-.94,3.47-1.53L731.55,1520l66.62-69.63c2.86-3,5.8-5.92,8.57-9,2.51-2.78,3.67-5.81,2.91-9.55-1-4.72-3-9.57-6.5-13a22.45,22.45,0,0,0-11.53-5.65,51.41,51.41,0,0,0-7.82-.87c-1.7-.07-3.5-.32-5,.56-1.7,1-3,2.78-4.38,4.19-20.45,21.36-40.47,43.13-60.64,64.75-21,22.48-42.16,44.79-64,66.42q-4.2,4.15-8.44,8.28c-.49.47-1.83,1.89-.78,2.45s2.87-1,3.46-1.53Z"/><path class="cls-2" d="M3454.45,1762.44c-2-52.3-6.83-105.47-8.81-157.77-.16-4.31-.32-8.7.84-12.85,2.24-8.06,8.95-13.92,14.48-20.19,19.07-21.62,25.74-54.47,13.54-80.59s-44.17-42.32-71.7-33.76c-8.64,2.69-16.52,7.49-23.55,13.2a88.52,88.52,0,0,0-22.06,26c-12.76,23.32-12.4,53.52,1.73,76s41.75,36.07,68.1,32.53l7.15,91c.51,6.47.95,13.31-1.93,19.12-6.65,13.38-26.61,14.22-35.44,26.27a7.92,7.92,0,0,0-1.83,4.63c.05,4.29,5.36,6.41,9.65,6.37,12.55-.1,23.3-8.51,33-16.5a37.7,37.7,0,0,1,3,13.23,9.83,9.83,0,0,1-.87,5.21c-1.38,2.5-4.36,3.54-7.05,4.49a102.63,102.63,0,0,0-30.47,17.13c-3.23,2.62-6.57,6.14-6.05,10.26.8,6.45,9.49,7.87,16,7.16a141.77,141.77,0,0,0,40.54-10.67c1.37-.58,2.83-1.29,3.48-2.63a6.47,6.47,0,0,0,.22-3.68l-1.92-14"/><path class="cls-2" d="M3401.13,1488c-4.09,3.46-7,8.72-3.78,13.84a7.51,7.51,0,0,0,7.85,3.43c2.88-.64,4.88-2.71,6.44-5.11,3.14-4.82,2.89-11.92-2.57-15a7.88,7.88,0,0,0-8.54.55,7.77,7.77,0,0,0-3,8.06c.46,2.66,3.73,4.16,6.15,3.49,2.81-.77,4-3.48,3.49-6.15.53,3.06-1.1,2.74-2.87,2.82,2.39-.11-1-.37-.53-.58,0,0-1.15,2.21-1.18,2.29-.48,1.09,2.07-1.11,3,.61,0,.1,1.37,1.65.21,1.23a28,28,0,0,1,2.36-2.42c2.07-1.74,1.8-5.27,0-7.07-2-2-5-1.74-7.07,0Z"/><path class="cls-2" d="M3444.31,1459.12c7.27-27.92,41.73-39.51,67.5-34.4,26.78,5.3,45.91,26.94,49.7,53.77a64.08,64.08,0,0,1-5.76,37.46c-3.34,6.67-7.5,12.89-10.22,19.87-2.83,7.28-3,14.71-1.62,22.34,3.05,16.89,9.33,33.59,15.17,49.68s12.11,31.76,18.16,47.64c3.41,8.94,6.74,17.92,9.84,27,3.05,8.89,6.71,18.17,8.48,27.41.58,3,.32,4.32-1.9,6.44a57.48,57.48,0,0,1-4.62,3.91,76,76,0,0,1-11.25,7.08,74,74,0,0,1-26,7.83l4.31,7.52a31.78,31.78,0,0,1,10-12.71c4.58-3.38,10-4.86,15.09-7.29,8.09-3.88,14.05-11.71,11.32-21a11.55,11.55,0,0,0-7.6-8c-6-1.74-11.87,2.16-17,4.68l-17.13,8.41c-2.4,1.18-5.61,3.47-8.28,3.59-6.17.27.15-4.12,2.18-5.61a82.38,82.38,0,0,1,14.63-8.42c4.28-1.94,8.7-3.85,11.76-7.57,7.26-8.83.08-22.35-3.11-31.53a413.58,413.58,0,0,0-30.81-68.13c-3.53-6.24-7.2-12.43-11.11-18.44-3.45-5.29-7.29-9.86-13.47-11.9s-13.5-2.06-20-2.7l-23.56-2.29c-6.4-.63-6.36,9.38,0,10l19.63,1.91c6.08.59,12.43.71,18.41,2,5.77,1.21,8.33,4.81,11.36,9.58q4.8,7.57,9.26,15.37a399.61,399.61,0,0,1,29.8,64.75c1.9,5.36,3.7,10.75,5.36,16.19.69,2.25,2,5.15,1.3,7.48s-3.1,3.45-5.06,4.48c-9,4.74-18.87,8.46-26.05,16-7,7.39-2.6,18.38,7.66,18.93,5.12.28,9.89-2.46,14.33-4.64l18-8.84c3.43-1.68,11.63-7,10,.65-1,4.85-7.27,6.7-11.26,8.31-10.7,4.33-19.35,11-24.24,21.75-1.39,3,.16,8,4.32,7.52a86.26,86.26,0,0,0,45.9-19.11c7.14-5.89,9.51-11.45,7-20.6s-5.48-18.34-8.61-27.37c-12.52-36.17-28.47-71.15-38.92-108-2.61-9.2-5.95-19-3.08-28.52,2.44-8.06,7.73-14.89,11.23-22.47a75.08,75.08,0,0,0,6-41.81c-4-29.24-24.41-54.11-53.39-61.36-31.76-7.94-74.25,5.88-83.29,40.61-1.63,6.23,8,8.89,9.64,2.66Z"/><path class="cls-2" d="M3470.53,1452.9a8.09,8.09,0,0,0,11.09,5c4.6-2.09,6.42-7.88,4.93-12.52-1.39-4.35-5.24-7.9-10-7.72a9.43,9.43,0,0,0-9.05,8.77c-.28,2.69,2.5,5,5,5,2.94,0,4.72-2.3,5-5a1.36,1.36,0,0,1-.53,1.3l.35-.36c.17.28-1,.26.06.18a7.1,7.1,0,0,1-.77,0s.39.58.21.22c.16.32.46,1.38.19,1.38.24,0,.69-.47,1.07-.51a2.15,2.15,0,0,1,2.09,1.58c-1.89-6.13-11.54-3.51-9.64,2.66Z"/><path class="cls-2" d="M3473,1447.69l-15.34,14.54c-4.68,4.44,2.4,11.5,7.07,7.08l15.34-14.55c4.68-4.43-2.4-11.49-7.07-7.07Z"/><path class="cls-2" d="M3398.7,1494.19a271.44,271.44,0,0,1-27.95.06c-7.85-.4-16.42-1.07-22.8-6.18-10.87-8.69-13.28-25.08-12.22-38.1,1.39-17.23,13.71-28,28.25-35.45,14.92-7.63,32.32-11.76,49.08-9.36s32.42,11.36,41.58,25.67c3.46,5.4,12.12.4,8.64-5-21.39-33.39-64.91-37.54-98.82-22.53-16.53,7.32-32.93,19.14-37.38,37.65-3.86,16.07-1.38,36.19,9.12,49.38,6.37,8,15.34,11.86,25.3,13.18,12.25,1.63,24.89,1.37,37.2.73,6.4-.33,6.44-10.33,0-10Z"/><path class="cls-1" d="M3361.75,1502.71a124.45,124.45,0,0,0,51.06-5.46c6.1-2,3.49-11.63-2.66-9.64a117.08,117.08,0,0,1-48.4,5.1c-6.4-.66-6.35,9.34,0,10Z"/></g></g></svg>