<svg xmlns="http://www.w3.org/2000/svg" xmlns:xlink="http://www.w3.org/1999/xlink" viewBox="0 0 4000 2000"><defs><style>.cls-1{fill:#b53955;}.cls-2{fill:#fff;}.cls-3,.cls-4{fill:none;}.cls-3{stroke:#fff;stroke-linecap:round;stroke-linejoin:round;stroke-width:8px;stroke-dasharray:60;}</style></defs><g id="Calque_2" data-name="Calque 2"><g id="Calque_1-2" data-name="Calque 1"><rect class="cls-1" width="4000" height="2000"/><path class="cls-2" d="M816.62,643s1.92-64.35,93.51-121.06c65.86-40.78,96.64-67.56,96.64-67.56,44.86-42.62,95.4-82.47,155.46-98.24,76.07-20,156.19,1.13,232.47,20.35,195.75,49.33,405.22,86.21,597,23.44,143.13-46.86,219.63-86.75,369-66.76,48.91,6.54,210.49,44.79,255.84,64.12,109.82,46.82,170.24,20,227.34,124.17,50.85,92.78,7.34,205.08,40.65,305.38,36.21,109,98.95,198.19,79.71,311.36-17.61,103.62-57.59,183-141.37,247.32-80.35,61.65-121.12,23.81-186.41,101-42.4,50.13-91.16,130-151.08,157.34-44.11,20.16-111.61,24.41-160.17,23-92.3-2.74-137.09-5-223.66-37-108.75-40.09-212-74-318.92-92.85-114.11-20.15-277.74-61.35-389.47-30.46-39.4,10.89-76.66,28.89-116.56,37.82-121.67,27.22-258-44.61-303.47-159.87-52.61-133.4,10.76-288.09-29.46-425.67-17-58-29.67-59.73-53.14-115.48-10.22-24.28-26.61-65-51.93-100.64-14.37-20.24-28.77-73.73-22-99.73"/><path class="cls-2" d="M1740.7,1999.34a299.88,299.88,0,0,1,1.62-30,4,4,0,0,1,8,.8c-1,10-1.54,19-1.58,29.22m9.33-84.27a4,4,0,0,1-3.82-5.17,314.78,314.78,0,0,1,23.23-56,4,4,0,0,1,7.06,3.76,307.1,307.1,0,0,0-22.64,54.54A4,4,0,0,1,1758,1915.11Zm55.61-105.45a4,4,0,0,1-3.15-6.45,421.61,421.61,0,0,1,40.6-44.85,4,4,0,1,1,5.55,5.77,411.83,411.83,0,0,0-39.84,44A4,4,0,0,1,1813.64,1809.66Zm85.92-83.24a4,4,0,0,1-2.42-7.19c15.45-11.69,32.23-23.12,49.88-34a4,4,0,1,1,4.2,6.81c-17.44,10.74-34,22-49.25,33.57A4,4,0,0,1,1899.56,1726.42Zm1089.23-34.73h-.33a563.23,563.23,0,0,1-59.82-8.49,4,4,0,1,1,1.5-7.85,560.17,560.17,0,0,0,59,8.37,4,4,0,0,1-.32,8Zm59.88-.49a4,4,0,0,1-.48-8c1.2-.15,2.4-.3,3.59-.47,19-2.63,37.51-5.9,55.13-9.73a4,4,0,1,1,1.7,7.82c-17.82,3.87-36.57,7.18-55.73,9.84l-3.72.48Zm-177.84-21.07a4.17,4.17,0,0,1-1-.12c-17.11-4.31-36.11-9.42-58.08-15.64a4,4,0,1,1,2.18-7.69c21.89,6.19,40.82,11.28,57.85,15.57a4,4,0,0,1-1,7.88Zm294.84-4.67a4,4,0,0,1-1.22-7.8,510.26,510.26,0,0,0,55.47-21.42,4,4,0,1,1,3.33,7.27,516.64,516.64,0,0,1-56.35,21.76A4,4,0,0,1,3165.67,1665.46Zm-1164.23-2.2a4,4,0,0,1-1.83-7.56c17.31-8.87,35.66-17.5,54.53-25.66a4,4,0,0,1,3.18,7.34c-18.72,8.09-36.91,16.65-54.06,25.44A4,4,0,0,1,2001.44,1663.26Zm753.77-25.45a4,4,0,0,1-1.13-.17l-10.6-3.11c-15.33-4.52-31.18-9.18-47-13.76a4,4,0,0,1,2.23-7.69c15.83,4.59,31.69,9.26,47,13.77l10.59,3.12a4,4,0,0,1-1.12,7.84Zm-643.73-22.32a4,4,0,0,1-1.38-7.76c18.38-6.74,37.58-13.25,57.07-19.34a4,4,0,1,1,2.38,7.63c-19.36,6-38.44,12.52-56.69,19.22A3.91,3.91,0,0,1,2111.48,1615.49Zm1162.8-.12a4,4,0,0,1-2.15-7.38,389.24,389.24,0,0,0,47.5-35.49,4,4,0,1,1,5.27,6,396.91,396.91,0,0,1-48.47,36.22A4,4,0,0,1,3274.28,1615.37Zm-634.44-10.71a3.79,3.79,0,0,1-1.05-.14c-20.86-5.66-39.85-10.54-58-14.91a4,4,0,0,1,1.87-7.78c18.27,4.39,37.33,9.29,58.26,15a4,4,0,0,1-1,7.86ZM2226,1579.58a4,4,0,0,1-1-7.86c9-2.38,18.13-4.72,27.25-7,10.23-2.5,20.85-4.66,31.57-6.43a4,4,0,1,1,1.3,7.89c-10.52,1.74-20.94,3.86-31,6.32-9.07,2.21-18.19,4.54-27.1,6.9A4.1,4.1,0,0,1,2226,1579.58Zm297-2.72a4.11,4.11,0,0,1-.78-.07c-20.4-4-40.24-7.32-59-9.87a4,4,0,1,1,1.08-7.92c18.87,2.57,38.86,5.91,59.42,9.93a4,4,0,0,1-.76,7.93ZM2404.14,1561h-.24c-12.71-.75-25.28-1.13-37.35-1.13-7.49,0-15,.15-22.23.44a4,4,0,1,1-.32-8c7.37-.29,14.95-.44,22.55-.44,12.23,0,24.95.39,37.82,1.15a4,4,0,0,1-.23,8Zm959.93-24.42a3.94,3.94,0,0,1-2.55-.93,4,4,0,0,1-.52-5.63,393.17,393.17,0,0,0,34.31-48.37,4,4,0,0,1,6.86,4.13,402.74,402.74,0,0,1-35,49.36A4,4,0,0,1,3364.07,1536.62Zm62-102.19a4,4,0,0,1-1.59-.33,4,4,0,0,1-2.08-5.26,529.29,529.29,0,0,0,20.4-55.89,4,4,0,1,1,7.65,2.33,537.71,537.71,0,0,1-20.71,56.73A4,4,0,0,1,3426.09,1434.43ZM3454.88,1319a4,4,0,0,1-4-3.93c-.31-17.2-2.24-36.54-5.92-59.11a4,4,0,1,1,7.89-1.29c3.74,23,5.72,42.67,6,60.26A4,4,0,0,1,3455,1319ZM3437,1200.47a4,4,0,0,1-3.9-3.09c-4-17.14-8.79-36.14-14.68-58.08a4,4,0,1,1,7.72-2.07c5.92,22,10.74,41.11,14.75,58.34a4,4,0,0,1-3,4.8A4.09,4.09,0,0,1,3437,1200.47Zm-30.71-116.09a4,4,0,0,1-3.85-2.92l-.68-2.44c-5.43-19.35-10.55-37.62-15.35-55.47a4,4,0,1,1,7.73-2.07c4.78,17.8,9.9,36,15.32,55.38l.68,2.44a4,4,0,0,1-3.85,5.08Zm-30.44-116.15a4,4,0,0,1-3.91-3.16c-1.41-6.53-2.67-12.77-3.73-18.56-2.19-11.93-5.29-24.92-9.47-39.72a4,4,0,1,1,7.7-2.18c4.25,15,7.4,28.28,9.64,40.46,1,5.7,2.28,11.86,3.68,18.31a4,4,0,0,1-3.06,4.76A4.09,4.09,0,0,1,3375.88,968.23Zm69.94-94.55c-12,0-24.55-.11-37.23-.33a4,4,0,0,1,.07-8h.07c12.64.22,25.11.33,37.09.33,7.73,0,15.4,0,22.82-.13h.05a4,4,0,0,1,0,8C3461.29,873.64,3453.58,873.68,3445.82,873.68Zm82.84-2.1a4,4,0,0,1-.23-8c22.58-1.28,42.56-3.16,59.39-5.59a4,4,0,0,1,1.15,7.92c-17.06,2.46-37.28,4.36-60.08,5.66Zm-180,0h-.16c-20.34-.84-40.53-1.92-60-3.19a4,4,0,1,1,.52-8c19.44,1.27,39.57,2.34,59.84,3.18a4,4,0,0,1-.17,8Zm-119.76-8-.41,0-3.81-.4c-18-1.88-36.81-4.67-55.87-8.3a4,4,0,0,1,1.49-7.86c18.85,3.59,37.42,6.35,55.21,8.21l3.79.39a4,4,0,0,1-.4,8Zm115.38-11a4,4,0,0,1-3.78-2.69c-5.51-15.87-11.28-31.83-17.4-48.72l-2.8-7.76a4,4,0,0,1,7.52-2.72l2.8,7.76c6.13,16.91,11.91,32.9,17.44,48.81a4,4,0,0,1-2.46,5.1A4.06,4.06,0,0,1,3344.29,852.54Zm302.4-.44a4,4,0,0,1-1.22-7.82,452.84,452.84,0,0,0,55.39-21.49,4,4,0,0,1,3.41,7.23,460.1,460.1,0,0,1-56.37,21.89A4.24,4.24,0,0,1,3646.69,852.1Zm-535.6-10.54a3.58,3.58,0,0,1-1-.14c-18.54-4.89-37.44-10.45-57.77-17a4,4,0,0,1,2.45-7.62c20.19,6.48,39,12,57.36,16.86a4,4,0,0,1-1,7.87Zm-114.33-36.37a3.83,3.83,0,0,1-1.36-.24c-17-6.15-35.44-13.06-56.31-21.12a4,4,0,0,1,2.89-7.47c20.81,8,39.17,14.93,56.14,21.07a4,4,0,0,1-1.36,7.76Zm757.38-5.2a4,4,0,0,1-2.38-7.21,223.44,223.44,0,0,0,42.46-40.63,4,4,0,0,1,6.26,5,231.91,231.91,0,0,1-44,42.07A4,4,0,0,1,3754.14,800Zm-869.5-37.83a4,4,0,0,1-1.47-.28l-7.84-3.1c-15.73-6.23-32-12.67-48-18.92a4,4,0,0,1,2.91-7.45c16,6.25,32.28,12.7,48,18.93l7.85,3.11a4,4,0,0,1-1.48,7.71Zm419.42-22.75a4,4,0,0,1-3.78-2.72c-7.29-21.45-13.19-40.24-18.05-57.46a4,4,0,0,1,7.69-2.17c4.83,17.08,10.69,35.74,17.93,57.06a4,4,0,0,1-2.5,5.07A3.89,3.89,0,0,1,3304.06,739.41Zm-531.31-20.66a4,4,0,0,1-1.39-.25c-20.35-7.53-38.81-14.06-56.43-20a4,4,0,1,1,2.53-7.59c17.71,5.92,36.25,12.47,56.68,20a4,4,0,0,1-1.39,7.76Zm1055.73-11.22a4,4,0,0,1-3.61-5.7c9-19.14,14.92-37.43,18.1-55.9a4,4,0,1,1,7.89,1.36c-3.31,19.19-9.45,38.14-18.75,57.94A4,4,0,0,1,3828.48,707.53ZM2658.92,681a4.09,4.09,0,0,1-1.09-.15c-20-5.64-39.47-10.51-57.95-14.46a4,4,0,1,1,1.67-7.82c18.65,4,38.32,8.89,58.45,14.58a4,4,0,0,1-1.08,7.85Zm-117.3-24.69-.52,0a580.63,580.63,0,0,0-59.31-4.6,4,4,0,0,1,.09-8h.1a588.24,588.24,0,0,1,60.14,4.65,4,4,0,0,1-.5,8Zm730.75-32.61a4,4,0,0,1-3.94-3.3c-3.82-21.53-5.68-40.72-5.68-58.66V560a4,4,0,0,1,4-4h0a4,4,0,0,1,4,4v1.67c0,17.47,1.82,36.2,5.56,57.26a4,4,0,0,1-3.24,4.64A4.23,4.23,0,0,1,3272.37,623.73Zm574.76-32.83a4,4,0,0,1-3.93-3.32,178.78,178.78,0,0,0-19.44-55.09,4,4,0,0,1,7-3.82,186.46,186.46,0,0,1,20.29,57.56,4,4,0,0,1-3.26,4.62A5.34,5.34,0,0,1,3847.13,590.9Zm-571-85.8a3.9,3.9,0,0,1-1.34-.23,4,4,0,0,1-2.43-5.11c.84-2.38,1.76-4.76,2.72-7.06A210.79,210.79,0,0,1,3302,446.45a4,4,0,1,1,6.37,4.84,202.92,202.92,0,0,0-25.88,44.49c-.9,2.17-1.76,4.41-2.56,6.66A4,4,0,0,1,3276.18,505.1Zm521-22.36a4,4,0,0,1-3.4-1.89A516.31,516.31,0,0,0,3759.94,432a4,4,0,0,1,6.27-5,525.84,525.84,0,0,1,34.37,49.63,4,4,0,0,1-1.3,5.51A3.92,3.92,0,0,1,3797.18,482.74Zm-450.5-73.08a4,4,0,0,1-2.59-7.05,421.88,421.88,0,0,1,49-35.54,4,4,0,1,1,4.26,6.76,415.67,415.67,0,0,0-48.1,34.88A4,4,0,0,1,3346.68,409.66Zm375.39-19.77a4,4,0,0,1-2.68-1c-12-10.87-25.88-22.1-46.25-37.57a4,4,0,0,1,4.84-6.37c20.55,15.61,34.54,27,46.77,38a4,4,0,0,1-2.68,7Zm-274.86-45.53a4,4,0,0,1-2-7.48c2.19-1.24,4.25-2.42,6.16-3.55,13.67-8.06,30.74-14.2,50.74-18.25a4,4,0,0,1,1.59,7.84c-18.86,3.82-35.55,9.8-48.27,17.3q-2.92,1.72-6.28,3.62A3.9,3.9,0,0,1,3447.21,344.36Zm174.72-18.12a4.07,4.07,0,0,1-1-.14,254.21,254.21,0,0,0-58.38-8.05,4,4,0,1,1,.2-8,262,262,0,0,1,60.25,8.32,4,4,0,0,1-1,7.87Z"/><path class="cls-3" d="M6.64,746C120,793.43,235.8,841.55,358.15,852.09c215.76,18.58,427.78-81.62,642.55-52.79"/><rect class="cls-4" x="3.67" y="597.75" width="500" height="500"/><rect class="cls-4" x="503.67" y="597.75" width="500" height="500"/><path class="cls-2" d="M386.37,403.6c22.16-4.31,47.26-14.11,69.41-18.41-5.27-11.8,1.77-29,20.26-42.44S520,316.69,542.5,313c17.23-2.84,28.42-3.94,41,5.18,13.32,9.66,25.34,32.1,31,47.52-11.12-10.53-33.87-7.22-49.59-1.76-14.44,5-51.1,19.79-64.49,27.18-22.21,12.26-26.43,19.85-24.63,29.23a76.28,76.28,0,0,1-20-35.13"/><path class="cls-2" d="M390.69,406.12a1149.35,1149.35,0,0,1,68.94-130.75l-4.32,2.47A1269.21,1269.21,0,0,0,651,285.08l-3.54-8.54a541.86,541.86,0,0,0-44.89,56.22c-3.68,5.3,5,10.3,8.64,5.05a521.38,521.38,0,0,1,43.32-54.2c2.78-3,1-8.72-3.53-8.53a1269.21,1269.21,0,0,1-195.7-7.24,4.94,4.94,0,0,0-4.32,2.48,1149.27,1149.27,0,0,0-68.93,130.75c-2.61,5.83,6,10.92,8.63,5.05Z"/><path class="cls-2" d="M469,417c1.24,16.65,18.08,22.37,32.55,20.62,16.42-2,33-4.37,48.53-10.13,21.66-8,45.71-18.45,61-36.51,5.9-7,16-20.34,7-28.8-4.68-4.41-11.77,2.65-7.07,7.07,4.23,4-10.09,18.29-12.81,20.81-8.11,7.54-18.72,13.58-28.61,18.48a174.33,174.33,0,0,1-45.13,15.59A250.8,250.8,0,0,1,499,427.85c-7.64.63-19.32-1.2-20-10.89-.47-6.38-10.48-6.43-10,0Z"/><path class="cls-2" d="M422.69,378.71l37.15,87,8.64-5.05c-4.09-9.13-18.21-8.64-22.88-.31-6.06,10.8,5,22.93,16.09,21.9,10.07-.93,18-9.08,17.25-19.25-.63-8.62-6.11-17.53-15.88-15.22-6.26,1.47-3.61,11.12,2.66,9.64,2.26-.54,3,3.93,3.23,5.48.42,3.47-.4,5.54-3.33,7.58-3.71,2.59-10.47,2.79-11.49-2.87a3,3,0,0,1,5.71-1.9c2.65,5.9,11.13.77,8.64-5.05l-37.16-87c-2.52-5.9-11.13-.81-8.63,5Z"/><path class="cls-2" d="M448.36,381.31q-30.66,6.76-60.56,16.42c-6.09,2-3.49,11.63,2.66,9.64Q420.34,397.73,451,391c6.28-1.38,3.62-11-2.66-9.64Z"/><path class="cls-2" d="M450.51,1648.44a330.49,330.49,0,0,1-4-37.29c-.69-11.31-1-23.46-5.89-33.93-2-4.35-5.06-8.37-9.33-10.72-4.56-2.5-9.75-2.45-14.78-2.94-11.57-1.12-23.32-2.53-34.64-5.25-12.53-3-25.23-5.24-37.86-7.77l.15,6,49.26-12,49.25-12,49.25-12,49.25-12,49.25-12,6.12-1.49-.5-5.88A530.47,530.47,0,0,1,463,1553q-19.95,6.32-40.35,11c-2,.46-1.45,6.37.16,6a532,532,0,0,0,138.45-53.31q18.28-10.17,35.72-21.76c.93-.63,1-2.36.87-3.32,0-.55-.39-2.8-1.38-2.56l-49.25,12-49.25,12-49.25,12-49.25,12-49.25,12-6.13,1.49c-1.9.46-1.75,5.62.15,6,11.23,2.25,22.53,4.18,33.69,6.77,5,1.16,10,2.3,15.12,3.15,5.95,1,11.93,1.8,17.92,2.49q4.21.48,8.45.86a42.46,42.46,0,0,1,7.55.93,18,18,0,0,1,10.39,7.86c2.55,4,3.84,8.83,4.65,13.3a139,139,0,0,1,1.72,16.28c.42,6.52.76,13,1.32,19.54.65,7.5,1.67,15,3,22.38.13.75.57,2.59,1.7,2.05s1-2.85.83-3.71Z"/><path class="cls-2" d="M594.22,1490.67c-17.76,13.91-36.16,27-54.83,39.61-18.9,12.82-38.08,25.22-57.28,37.59q-16,10.29-31.87,20.64c-.85.55-1.7,1.77-1.08,2.81,7,11.82,17.86,20.83,26.66,31.22,4.52,5.32,8.59,11,13.17,16.27a205.92,205.92,0,0,0,14.78,15.35,182.94,182.94,0,0,0,19,15.54,3.33,3.33,0,0,0,4.87-1.58c4.5-14,9.12-27.95,14.14-41.77,3.82-10.52,7.88-20.95,12.35-31.2,4-9.23,8.36-18.3,13-27.25q3.6-7,7.34-13.9a149.63,149.63,0,0,0,8.14-17.63c4.94-12.94,8.5-26.47,14.43-39q1-2.19,2.19-4.32c1.69-3.13-4-4.47-5.41-1.83-6.63,12.28-10.4,25.91-15.06,39a137.11,137.11,0,0,1-7.75,18.37c-2.54,4.78-5.15,9.53-7.65,14.34-4.66,9-9.1,18-13.21,27.27-4.52,10.17-8.65,20.52-12.52,31-5,13.33-9.49,26.8-13.88,40.32l-2,6,4.87-1.59a185.05,185.05,0,0,1-31-28.07c-4.69-5.27-8.9-10.87-13.33-16.34-4.28-5.3-9.07-10.17-13.73-15.13-5-5.27-10.07-10.66-13.78-16.92l-1.08,2.82c19.09-12.47,38.33-24.73,57.44-37.19s38.25-25.21,56.89-38.53q15.63-11.16,30.78-23a2.09,2.09,0,0,0-.36-3.33,3.64,3.64,0,0,0-4.22.45Z"/><path class="cls-2" d="M452.25,1649.22c1.62-6.29,5.23-12,8.81-17.39s7.66-10.64,11.77-15.74c.55-.69-1.85-.84-2.11-.85-.83,0-3.06-.23-3.69.55-4.18,5.2-8.27,10.5-12,16.06-3.57,5.36-7.19,11.16-8.81,17.46-.15.56,5.64,1.3,6-.09Z"/><image width="800" height="800" transform="translate(3177.17 1259.75) scale(0.69)" xlink:href="../../../../Downloads/assurance.png"/><path class="cls-2" d="M3490.87,659.62c38,1.21,82.77-1.91,120.53-6.06L3605,588.39c-.28-2.82-.58-5.73-2.06-8.19a21,21,0,0,0-5.38-5.33c-21.38-16.76-38.44-35.36-59.45-55.38-18,23-33.2,44-51.14,67a20.17,20.17,0,0,0-3.73,6.22c-.76,2.52-.46,5.2-.15,7.8l6,51.44a31.2,31.2,0,0,0,1.46,7.3"/><path class="cls-2" d="M3486,587.57l-32.78-3.23-.26,11.54c27.35-39.24,61.49-73.08,92.49-109.35l-5.27,1.81c31.4,34.49,64.86,67,97.18,100.6l4.45-13.42c-10.58-.52-20.93,2.51-31.52,2-4.93-.24-8.66,13.78-2.46,14.08,10.58.52,20.93-2.51,31.51-2,4.73.24,7.19-10.58,4.45-13.42-32.32-33.6-65.78-66.1-97.18-100.6-1.77-1.95-4.16.52-5.26,1.81-31,36.26-65.13,70.09-92.49,109.35-1.15,1.65-4.75,11.09-.25,11.53l32.78,3.23c5.67.56,9.47-13.44,4.61-13.92Z"/><path class="cls-1" d="M3540.35,656.93c-2.45,11.8.87-25.78,0-35.45-1.17-12.89-4-20.57,6.84-28.4,3.09-2.25,7.18-3.55,10.94-2.56,7.48,2,9.51,11,10.18,18.37l4.27,47.29"/><path class="cls-1" d="M3369.81,627.93c26.68-6,53.52-12,78.71-22.63,7.46-3.15,15-6.76,23.14-6.82,13.1-.09,24.18,8.93,35.36,15.75a118.91,118.91,0,0,0,45.69,16.27c8.86,1.21,20.35,3.64,21.37,12.53.67,5.81-4.38,11-10,12.65s-11.62.53-17.36-.57l-75.66-14.44c22.53-2.52,68.81,10.43,90.38,17.39,23.64,7.62,37.17.78,54.78-11,21.91-14.61,30-18.61,40.17-21.91,8.49-2.75,10.3-1.49,14.61,7.3,5.81,11.87-11.69,13.12-29.22,40.17-3.59,5.54-21.94,19.35-29.21,25.57-2.18,1.85-69.8,8.47-80.35,7.3"/><path class="cls-2" d="M3366.53,631.4c21.67-4.85,43.41-9.71,64.38-17.1,10.3-3.62,20.39-9.42,31.1-11.62,10.23-2.1,19.63,1.87,28.25,7.07s16.87,11,26.18,15.08a120.7,120.7,0,0,0,29.15,8.76c7.24,1.2,17,1.53,22,7.72,2,2.42,3.44,7.72,1.27,10.32-1.35,1.62-6,1.31-7.94,1.27a54.76,54.76,0,0,1-8.75-1.07c-25.78-4.69-51.49-9.83-77.23-14.74l-7.8,7.15c14-1.43,28.62,1.53,42.3,4.44,14.74,3.13,29.32,7.09,43.7,11.56,8,2.49,15.88,4.87,24.33,4.59a52.55,52.55,0,0,0,20.26-5.17c14.76-6.86,27.31-17.69,41.71-25.25a84.53,84.53,0,0,1,13-5.52c2.41-.79,5.48-2,8-1.17s4.18,4.13,5.39,6.44c2,3.83,2.89,7.2-.33,10.56-4.25,4.44-9.26,8.15-13.59,12.55a113.17,113.17,0,0,0-7.82,8.85c-2.55,3.21-4.57,6.93-7.31,10-4.4,4.91-10.07,8.94-15.18,13.07-2.53,2-5.08,4.07-7.58,6.14a9.88,9.88,0,0,0-1.36,1.12c-1.31,1.53,1.83-1.68,2.69-1.46-.27-.07-.94.26-1.25.32q-5,.86-10,1.49c-12.8,1.62-25.65,2.83-38.5,3.87-9.61.77-19.84,2.26-29.48,1.3-2-.19-4.54,2.31-5.83,3.51-.37.34-3.49,3.5-2,3.65,8.87.88,18.25-.43,27.08-1.12,12.5-1,25-2.15,37.43-3.63,7.3-.86,15.22-.83,21.15-5.62,5.77-4.67,11.57-9.31,17.25-14.08,4.91-4.13,10.11-8.32,14-13.48,5.61-7.45,10.85-14.47,17.86-20.72,4.11-3.66,9.05-7.24,11.88-12.06,2.42-4.13,1.29-7.64-.86-11.65-3.23-6-6.78-7.3-13.27-5.4-11.68,3.42-22.28,9.67-32.49,16.16-15.26,9.72-29.76,21.73-49,20-8.94-.82-17.4-4.16-25.94-6.68q-13.14-3.88-26.46-7.09c-16.64-4-34.79-8.38-52-6.63-2,.2-9.37,6.85-7.8,7.15,25.74,4.92,51.44,10.09,77.23,14.75,10.84,2,19.93.76,28.12-7.07,5.89-5.62,8.86-14.44,1-19.87-7.52-5.18-17.89-4.94-26.48-6.85a117.57,117.57,0,0,1-34.31-13.56c-8.94-5.29-17.28-12-27.31-15.17-10.74-3.39-20.71-.13-30.67,4.09-26.29,11.13-53.85,17.68-81.63,23.89-2.27.51-4.61,2.66-6.13,4.33-.6.65-2.64,3.12-.42,2.62Z"/><path class="cls-2" d="M3381.44,681.69c37,7.44,73.48,16.95,110.51,24.1,8.49,1.64,17,3.22,25.58,4.38,4.88.66,10.15,1.54,15,.63,20.61-3.8,41.29-8.72,61.51-14.19,11.2-3,21.3-6.29,30.79-13.14,15.71-11.35,28.65-26.12,45.27-36.27,3.83-2.34,3.25-13-1.77-10-14.54,8.88-26.32,21.16-39.48,31.83-5,4-10.31,8.28-16.2,10.91a93,93,0,0,1-11.51,3.95c-21.08,6.24-42.71,10.56-64.17,15.21a34.59,34.59,0,0,1-13.55.77c-7.95-.88-15.84-2.31-23.7-3.77-21.55-4-43-8.74-64.35-13.53-17.28-3.87-34.5-8.16-51.86-11.65-4.78-1-6.92,9.78-2.11,10.75Z"/></g></g></svg>