<svg xmlns="http://www.w3.org/2000/svg" xmlns:xlink="http://www.w3.org/1999/xlink" width="305" height="311" viewBox="0 0 305 311">
  <defs>
    <rect id="rect-1" width="305" height="311" x="0" y="0"/>
    <mask id="mask-2" maskContentUnits="userSpaceOnUse" maskUnits="userSpaceOnUse">
      <rect width="305" height="311" x="0" y="0" fill="black"/>
      <use fill="white" xlink:href="#rect-1"/>
    </mask>
  </defs>
  <g>
    <use fill="none" xlink:href="#rect-1"/>
    <g mask="url(#mask-2)">
      <path fill="rgb(184,57,85)" fill-rule="evenodd" d="M47.59736771 300.1454257s-12.8619393-3.20703332-21.46387322-18.99550502c-6.2261617-11.43019567-10.65001343-17.10417769-10.65001343-17.10417769-7.29116304-8.46985722-13.76309428-17.59756742-15.15578834-27.05420412-1.72038678-11.9235854 4.83346763-22.61369646 10.89578297-32.81041777 15.64732743-26.14965627 29.16465216-54.84849286 22.28310502-85.52088842-5.16116035-22.86039133-21.5457964-47.03648863-13.18963201-67.75885775 2.78538813-6.82522474 8.02847166-12.58143839 13.18963201-18.33765203C46.12275047 18.74881015 60.37738383 4.11158117 82.9062584.57562136c20.07117916-3.20703331 41.28928284 8.22316235 62.34354016 7.89423586 22.93849046-.3289265 42.60005372-5.42728715 64.71931238 2.4669487 20.23502552 7.23638287 34.98119796 16.61078795 45.38544185 31.65917504 9.99462799 14.47276573 21.87348912 28.28767848 35.39081386 41.28027499 8.76578028 8.3876256 8.6838571 14.47276573 12.4523234 24.34056055 2.70346494 7.31861449 1.88423314 14.7194606.16384636 21.7091486-3.27692721 13.23929138-9.50308891 25.82072977-18.43271556 36.92199894-11.22347569 13.979376-16.63040558 28.0409836-28.83695944 41.44473823-12.20655385 13.40375463-21.46387322 29.60338446-18.51463873 47.20095188.98307816 6.16737176 3.52269675 12.41697515 4.1780822 18.5843469 1.88423314 18.9132734-16.54848241 35.44182973-40.96159012 36.83976733-28.26349718 1.64463247-57.42814935-14.55499736-86.10126243-14.96615548-12.12463067-.16446324-12.8619393 1.64463247-24.65887725 2.4669487-5.16116035.41115813-13.76309427.90454787-21.70964276 2.96033845-4.58769809 1.23347436-15.7292506.90454786-20.7265646-1.23347435"/>
    </g>
  </g>
</svg>
