<svg xmlns="http://www.w3.org/2000/svg" xmlns:xlink="http://www.w3.org/1999/xlink" viewBox="0 0 346.26 190.59"><defs><style>.cls-1{fill:url(#Dégradé_sans_nom_12);}.cls-2{fill:#fff;}.cls-3{fill:#b73955;}.cls-4{fill:#1d66af;}</style><linearGradient id="Dégradé_sans_nom_12" x1="43.8" y1="95.38" x2="291.04" y2="95.38" gradientUnits="userSpaceOnUse"><stop offset="0" stop-color="#1b66ae"/><stop offset="1" stop-color="#1c66ad"/></linearGradient></defs><title>contact direct</title><g id="Calque_2" data-name="Calque 2"><g id="Calque_1-2" data-name="Calque 1"><path class="cls-1" d="M43.8,102.12V29.74C52,29.16,74.42,32,82.63,32.32c7.43.27,14.15-3.77,20.49-7.41C126,11.76,153.46,8.51,180.32,9.48a19.58,19.58,0,0,1,9.31,2.89c6.65,3.87,6.22,5.23,4.91,12.44s-3.43,15.14.55,21.44c2.78,4.39,7.9,6.89,12.53,9.6,20.78,12.14,35.48,32,56.63,43.54,5.7,3.12,11.84,5.61,17.06,9.41s9.54,9.27,9.72,15.44c.27,9.48-4.4,14.6-14.53,15.51s-25.41-6.68-34.13-11.58c-13-7.28-21.71-11.58-34.63-21.07l56.35,32.65c1.81,5,4.91,15.2,1.72,19.54s-8.49,6.29-14.13,6.52C247,166,236.17,160,230,157.12c-16.29-7.6-23.13-15.29-37.23-26.05l54.56,36.44L243.13,171a22.49,22.49,0,0,1-6.42,4.27c-3.86,1.46-8.21.84-12.32.19-10.8-1.7-21.86-8-31.66-12.57-6.2-2.89-11.1-8.64-18.61-14.47l41,26.62c-8.15,9-23.3,6.75-35.48,3.74-8.27-2.05-16.63-4.13-24.22-7.82-15.41-7.51-26.27-20.93-37.65-33.19s-24.88-24.3-42-27.23c-10.94-1.87-23.72-.25-31.77-7.42"/><path class="cls-2" d="M46.29,102.36V30l-1.93,1c10.26-.6,20.78,1.17,31,2.06,4.88.42,9.73.93,14.55-.24,6.48-1.59,12-5.35,17.83-8.45,13.63-7.29,28.86-11.12,44.16-12.77a196.06,196.06,0,0,1,23.12-1c4.56,0,8.7.18,12.78,2.5,2.33,1.32,4.79,2.71,5,5.6.52,6-2.53,12.25-2.53,18.35a17.26,17.26,0,0,0,7,14.27c5.31,4.07,11.51,6.89,16.94,10.83,5.89,4.26,11.36,9.07,16.79,13.89,10.24,9.08,20.49,18.35,32.67,24.79,11.14,5.88,29.76,13.85,23.9,30-5.59,15.36-28.32,4.57-37.7-.21-13.92-7.1-27.72-14.93-40.35-24.14l-3.68,1.36,40.67,23.57,10.75,6.23c1.28.74,3.93,1.65,4.88,2.83a17.38,17.38,0,0,0,.49,2.48c.49,1.56.93,3.14,1.28,4.73.76,3.49,1.49,7.92-.53,11.12-2.36,3.74-8,6-12.31,5.85-3.36-.16-7-2.23-10-3.62-8.25-3.84-16.58-7.75-24.09-12.94-7.71-5.33-14.69-11.65-22.12-17.36l-4.05,1.08,54.56,36.44-.25-1.49a86.58,86.58,0,0,1-7.19,5.92c-3.38,2.29-6.81,2.52-10.74,2.06-7-.8-13.49-3.36-19.81-6.26-5.59-2.57-11.79-5-16.87-8.51s-9.43-8-14.27-11.87l-4,1.08,41,26.63-.52-1.23c-8.9,9.18-23.66,5.36-34.53,2.64-14.35-3.59-26.82-8.63-37.93-18.62-17.81-16-31.21-38.11-54.68-46.63a69.14,69.14,0,0,0-18.47-3.51c-7.24-.58-15.07-.79-20.91-5.66-1.16-1-6-.52-4.41.8,9.81,8.18,22.84,6,34.54,8.37,14.81,3,26.77,13.26,36.93,23.87,9.5,9.93,18.17,20.74,29.24,29,11.57,8.69,25.31,12.64,39.24,15.76,11.7,2.62,26.53,4.51,35.72-5,.43-.44-.21-1-.53-1.23l-41-26.62c-1-.64-5.69-.22-4.05,1.08,5.65,4.47,10.7,10,17,13.69a165.54,165.54,0,0,0,21.46,10.14c6.6,2.64,13.71,4.62,20.86,4.72,7.81.11,12.53-4.28,18.19-9.07.63-.53.36-1.08-.25-1.49l-54.56-36.44c-1-.69-5.66-.16-4,1.08,7.06,5.42,13.74,11.36,20.95,16.57s15.26,9.08,23.3,13c5.89,2.87,12.3,6.45,19.06,5.86s15.13-4,15.8-11.57c.31-3.52-.55-7.23-1.48-10.61-.53-1.93-.9-4.42-2.41-5.77-1.76-1.57-4.54-2.63-6.57-3.81l-28.51-16.52-21.08-12.21c-1.2-.7-6-.34-3.68,1.36,12.33,9,25.77,16.58,39.31,23.61,10.67,5.54,23.54,11.66,35.86,9,4.63-1,9-3.36,11.05-7.85a17.88,17.88,0,0,0-1.29-16.49c-3.87-6.22-10.34-10-16.7-13.24a136.73,136.73,0,0,1-20.49-12.23c-12.22-9.21-22.8-20.4-35.14-29.45-6-4.39-13.66-7.34-18.94-12.53-6.47-6.37-4-15.7-2.53-23.56.79-4.32,1.63-8-2.08-11-5-4.13-11-5.64-17.38-5.81-16.21-.44-32.63.65-48.38,4.69a115.48,115.48,0,0,0-23.74,8.83c-8.13,4.14-15.53,9.9-25.11,9.28-12.27-.8-24.77-3.19-37.09-2.47-.51,0-1.93.2-1.93,1v72.37c0,1.75,5,2.09,5,.48Z"/><path class="cls-2" d="M87.24,116.59c-3.1,2.9-6.2,5.79-6.55,10a5.85,5.85,0,0,0,.39,3.59c.83,1.36,2.61,2,4.28,2.15,7,.82,13.41-3.41,19-7.42,4.78-3.42,10.12-8.24,8.58-13.68-4-6.27-19.68.44-27.13,6.12"/><path class="cls-3" d="M87.64,115.3c-2.77,2.58-5.56,5.34-7.28,8.76-1.23,2.47-2.57,7.05,0,9.08s7.35,1.46,10.38.56a36.59,36.59,0,0,0,9.84-5,52.7,52.7,0,0,0,8.82-7.07c2.29-2.41,4.63-5.4,5.25-8.75.23-1.26.32-2.91-.51-4a5.13,5.13,0,0,0-2.46-1.65,13.56,13.56,0,0,0-6.9,0,46.27,46.27,0,0,0-18.22,8.58,7.38,7.38,0,0,0-2.2,2.78c-.33.78-.12,1.07.64.5a46.59,46.59,0,0,1,12.65-6.67c3.49-1.21,8.45-2.72,12-.77,2.08,1.16,2.35,3.42,1.6,5.57-.86,2.42-3.31,4.1-5.29,5.57-4.89,3.64-10.51,7.49-16.81,7.74a9.86,9.86,0,0,1-4.89-.8c-1.65-.83-2.11-2.27-2-4a8.21,8.21,0,0,1,1.29-4.37,23.56,23.56,0,0,1,3.32-3.38c.66-.61,1.9-1.85,2-2.81s-.79-.14-1.17.22Z"/><path class="cls-2" d="M109,125.28A38.54,38.54,0,0,0,96.2,135.5c-3.34,4.16-4.41,10.4-.93,14.46,3.25,3.78,9.37,4.44,14.27,2.86s8.88-4.92,12.71-8.19l13.25-11.31a51.22,51.22,0,0,0,7.91-7.8,7.21,7.21,0,0,0,1.63-3.41c.37-3.34-3.4-5.88-6.95-6.43-6.28-1-12.47,1.72-18.17,4.34l-20.68,9.52"/><path class="cls-3" d="M108.19,123.12c-8.06,4.1-18.62,12.29-17.29,22.57,1.36,10.55,13.75,12.06,21.79,8.37,5.07-2.33,9.24-6.23,13.44-9.81,4.65-4,9.42-7.83,13.92-11.95,3.27-3,8.38-7.46,7.13-12.46-1.09-4.36-6-6.4-10-6.71-6.51-.49-12.69,2.29-18.45,4.94l-20.23,9.31c-2.69,1.23-1.41,5.68,1.54,4.32,8.77-4,17.48-8.66,26.53-12,4-1.48,9.11-2.81,13.2-.94,1.21.55,3,1.69,3,3.23,0,2-2.79,4.31-4.05,5.54-3.27,3.2-6.91,6.06-10.39,9s-7,6.1-10.6,9c-3.25,2.59-6.91,5-11.12,5.58-3.45.46-7.67-.27-9.83-3.28-5.9-8.19,6.94-17.31,13-20.38,2.62-1.34,1.35-5.79-1.54-4.32Z"/><path class="cls-2" d="M115.17,151.33c-4.53,6.26-6.21,8.69-3.11,17.37.67,1.88,4.82,2.66,6.21,2.9,8.68,1.49,15-2.14,22.21-6.89a85.09,85.09,0,0,0,26-26.8c1.66-2.75,3.18-6.06,1.84-9s-5.35-4.21-8.76-3.69-6.37,2.4-9.21,4.22l-20.52,13.2c-7.71,5-14.66,8.65-14.66,8.65"/><path class="cls-3" d="M115.31,148.92c-2.63,3.64-4.75,7-5.2,11.56-.33,3.39-.22,9.88,2.87,12,3.9,2.67,10.41,2.32,14.68,1.16,5.76-1.58,11-5.21,15.82-8.67a86.6,86.6,0,0,0,14.31-13c3.93-4.47,8.32-9.73,10.42-15.38,1.48-4,2.23-10-2-12.62-5.23-3.25-11.16.18-15.65,3-11.62,7.42-23,15.36-35.18,21.85-1.17.62-.25,4.82-.53,5,7.63-4.06,14.87-8.78,22.13-13.45,5.12-3.3,10.17-6.77,15.41-9.88,3.77-2.23,8.44-4,12.67-1.91,3.26,1.63,3.27,3.95,1.51,6.92a73.82,73.82,0,0,1-4.7,6.92,84.32,84.32,0,0,1-10.43,11.43,92.32,92.32,0,0,1-13.12,9.91c-4,2.53-8.31,4.84-13.08,5.49-3.21.44-10.37.58-12.65-2.52a10.56,10.56,0,0,1-1.48-6.81c.57-2.2,2.56-4.38,3.86-6.18a6.11,6.11,0,0,0,.61-3c0-.21-.07-2.13-.32-1.79Z"/><path class="cls-2" d="M149.66,159.37c-5.68,6.65-14.45,12.69-15.84,21.1-.31,1.86,1.63,5.65,3.34,6.66a22.93,22.93,0,0,0,5.8,1.05c13-.12,23.6-10.35,28.37-21.58,1.44-3.39,2.45-7.38.53-10.55-2.66-4.41-9.79-4.73-14.33-2s-9.05,4.26-11.34,8.83"/><path class="cls-3" d="M148,157.8c-5.83,6.74-15,12.81-16.48,22.23-.53,3.31,1.66,8.08,4.83,9.45s7.62,1.28,11.05.65c9.18-1.71,16.78-7.78,22-15.32,4.46-6.41,10.34-19.3.34-23.78-4.31-1.94-9.35-1.22-13.36,1.06-4.63,2.62-9.64,4.89-12.26,9.8-1.51,2.85,2.66,4.8,4.12,2.05,1.78-3.35,5.16-4.9,8.34-6.67,2.94-1.63,5.62-3.06,9.1-2.39,8.79,1.68,3.21,12.4.23,17-4,6-9.86,11.12-16.9,13.11a18.14,18.14,0,0,1-8.81.45c-1.16-.21-1.76-.21-2.46-1.1a6.16,6.16,0,0,1-1.53-3.92c.3-3.76,3.55-7.36,6-10,3-3.22,6.27-6.14,9.14-9.47,2.07-2.4-1.23-5.55-3.32-3.13Z"/><path class="cls-2" d="M307.87,27.25c-17,9.22-40.31,7-55-5.29-8.33-7-14.83-17.21-25.8-19.32-6.5-1.25-13.15.73-19.69,1.81-8.76,1.44-17.79,1.25-26.48,3-21.6,4.41-38.2,20-53.47,35-1.59,1.55-3.23,3.19-3.91,5.24-1.55,4.62,2.65,9.58,7.65,10.88s10.32-.09,15.14-1.88a88.46,88.46,0,0,0,29.94-18.51L166.17,46.8c15.5.18,31-6,41.57-16.52A62.5,62.5,0,0,1,194.4,44.85c21.81,32.69,50.92,58.49,91.41,65.95,0,0,9.55,8.75,4.71,9.66,15.51-2.9,35.12-10.23,53.56-11.91Q332.35,70.26,320.61,32a8.33,8.33,0,0,0-2.12-4c-3.76-3.29-8-4.18-11.3-.85"/><path class="cls-3" d="M307,25c-16.12,8.45-37.36,7.13-51.81-4.25-6.69-5.27-11.71-12.42-19-17-8.82-5.54-17.91-3.71-27.58-2C198.05,3.6,187.11,3.1,176.67,6A81,81,0,0,0,151.6,18.27,187.28,187.28,0,0,0,130,36.74c-5.38,5.19-12.47,11.4-6.82,19.16,6.21,8.55,17.8,5.56,26,2.28a91.86,91.86,0,0,0,28.43-18.07c2.07-1.93-.22-6-2.67-3.9l-10.12,8.64c-1.29,1.1-1.16,4.43,1,4.43a61.74,61.74,0,0,0,43.22-17L206,28.79A64.47,64.47,0,0,1,193.07,42.9a2.74,2.74,0,0,0-.45,3.51c12.61,18.78,28,36,47,48.45A124.41,124.41,0,0,0,270,109.39q3.93,1.24,7.92,2.24c1.95.49,5.21.58,6.73,1.35a10.61,10.61,0,0,1,2.39,2.43,19.6,19.6,0,0,1,1.63,2q.4.56.75,1.14c.24.9.52.71.86-.57-2.64.76-2.45,5.51.56,4.93,18-3.46,35.23-10.09,53.56-11.91,1.62-.16,2.17-2.18,1.78-3.48L329.37,52.85q-2-6.65-4.07-13.28c-1.12-3.68-1.83-7.93-3.7-11.31a10.29,10.29,0,0,0-15.74-3.11c-2.18,1.86.23,6,2.66,3.91,8.61-7.36,11.87,9.91,13.39,14.87q3.34,10.93,6.7,21.88L342,109.56l1.78-3.48c-18.33,1.81-35.57,8.44-53.56,11.91l.56,4.93c7.44-2.14.13-11.68-3.56-14.07-2-1.29-5.18-1.32-7.48-1.87-3.11-.75-6.18-1.61-9.22-2.61a121,121,0,0,1-18.18-7.69C229,84.49,210.71,64.94,196.18,43.29l-.45,3.51a68.42,68.42,0,0,0,13.75-15c1.34-2-.93-5.53-3.07-3.45a57.3,57.3,0,0,1-39.93,16l1,4.43,10.13-8.64L175,36.21a88.25,88.25,0,0,1-22.84,15.43,54.11,54.11,0,0,1-12.86,4.55c-4.66.84-11.94.29-13.58-5.29-1.25-4.21,5.25-8.61,7.94-11.19,3.27-3.13,6.58-6.21,10-9.16a106.93,106.93,0,0,1,21.63-15,71.4,71.4,0,0,1,26.05-7c4.95-.45,9.93-.7,14.85-1.42s9.57-2,14.45-2.34c9.29-.61,15.85,4.41,22.11,10.63C248.08,20.78,253.2,26,260,29.57a53.56,53.56,0,0,0,48.71,0c2.49-1.31,1.07-6-1.68-4.57Z"/><rect class="cls-4" x="3.8" y="7.1" width="36.67" height="106.69" rx="5.5" transform="matrix(1, 0.08, -0.08, 1, 4.92, -1.58)"/></g></g></svg>