<svg xmlns="http://www.w3.org/2000/svg" viewBox="0 0 336.55 246.71"><defs><style>.cls-1{fill:#1d66af;}.cls-2{fill:#fff;}.cls-3{fill:#b73955;}</style></defs><title>ressources</title><g id="Calque_2" data-name="Calque 2"><g id="Calque_1-2" data-name="Calque 1"><rect class="cls-1" x="13.11" width="310.52" height="233.95" rx="6.08"/><rect class="cls-2" x="29.54" y="17.01" width="274.19" height="196.36" rx="6.08"/><rect class="cls-3" x="0.35" y="208.37" width="336.2" height="38.34" rx="4" transform="translate(336.9 455.08) rotate(-180)"/><path class="cls-1" d="M55.61,162.24H99.82a10.72,10.72,0,0,0,6.69-2.29c1.34-1.19,1.17-2.48-.85-2.48H61.45a10.64,10.64,0,0,0-6.69,2.3c-1.35,1.18-1.18,2.47.85,2.47Z"/><path class="cls-1" d="M55.13,145.94H99.35c2.09,0,4.59-1.78,6.14-3.05.73-.6,2.71-2.46.64-2.46H61.92c-2.1,0-4.6,1.78-6.15,3-.73.61-2.71,2.46-.64,2.46Z"/><path class="cls-1" d="M156.35,148H272.57c5.95,0,6.41-9.6,0-9.6H156.37c-6,0-6.41,9.6,0,9.6Z"/><path class="cls-3" d="M57.12,181.24a327.4,327.4,0,0,1,48.27-2.91c2.64,0,2.54-10-.31-10a327.4,327.4,0,0,0-48.27,2.91c-2.89.39-2.22,10.34.31,10Z"/><path class="cls-3" d="M56.13,61.7q.21,27.19-1.7,54.33a193.5,193.5,0,0,0,46.79-1.82c-.63-17-.85-28.37-.85-52C85.75,58.73,75,58.32,60.13,58.82"/><path class="cls-1" d="M151.5,159.32q60,3,120.15,2.78c.86,0,5.87,0,6.1-1.1s-2.82-1-3.57-1q-58.91.16-117.76-2.74c-1.65-.08-5.49-.42-6.8.8s.66,1.2,1.88,1.27Z"/><path class="cls-1" d="M151.44,175.17q59.43,2.94,119,2.76c2.51,0,6.59-8.26,5-8.25q-59.5.16-119-2.77c-2.43-.12-6.72,8.18-5,8.26Z"/><path class="cls-1" d="M153.7,187q59.43,2.94,119,2.76c1.85,0,5.05-.34,5.25-2.78.18-2.21-2.91-3.61-4.72-3.61q-59.51.18-119-2.76c-1.85-.09-5,.41-5.25,2.78s2.92,3.52,4.72,3.61Z"/><path class="cls-3" d="M151.51,118.81q57.74,1.35,115.5.42c2.35,0,4.74-2.3,4.5-4.69-.28-2.74-3.16-3.59-5.45-3.55q-56.4.9-112.82-.44c-2.4,0-5.23.93-5.78,3.58-.5,2.37,1.73,4.62,4,4.68Z"/><path class="cls-3" d="M3.64,234.58q124.07,5.52,248.31,3,34.77-.72,69.51-2.07c4.92-.19,5-10.19.08-10q-124.11,4.8-248.34,1.55-34.74-.93-69.48-2.48c-4.88-.21-5,9.79-.08,10Z"/><path class="cls-3" d="M175.13,86.4H157a6,6,0,0,0,2.1,3.81,6.62,6.62,0,0,0,4.35,1.42,7.48,7.48,0,0,0,5.43-2.22l4.75,2.24a11.23,11.23,0,0,1-4.25,3.73,13.43,13.43,0,0,1-5.89,1.2,11.62,11.62,0,0,1-8.61-3.33,11.34,11.34,0,0,1-3.33-8.36,11.7,11.7,0,0,1,3.32-8.54,11.14,11.14,0,0,1,8.31-3.4,11.55,11.55,0,0,1,8.63,3.4,12.29,12.29,0,0,1,3.33,9ZM169.49,82a5.71,5.71,0,0,0-2.2-3.06,6.43,6.43,0,0,0-3.82-1.17,6.75,6.75,0,0,0-4.14,1.32A7.36,7.36,0,0,0,157.26,82Zm-5.27-20.64h6.67l-7.56,8.1h-4Z"/><path class="cls-3" d="M201.69,78.08,197,80.66a8,8,0,0,0-2.62-1.92,7.81,7.81,0,0,0-3-.54,7.08,7.08,0,0,0-5.12,1.89,6.42,6.42,0,0,0-1.95,4.83,6.25,6.25,0,0,0,1.88,4.69,6.87,6.87,0,0,0,5,1.81A7.19,7.19,0,0,0,197,88.84l4.45,3q-3.62,4.71-10.21,4.7-5.93,0-9.28-3.51a11.67,11.67,0,0,1,2.83-18.55A13.61,13.61,0,0,1,191.32,73a13.39,13.39,0,0,1,6,1.33A11.39,11.39,0,0,1,201.69,78.08Z"/><path class="cls-3" d="M217.33,73a12,12,0,0,1,6,1.59,11.67,11.67,0,0,1,5.94,10.21,11.86,11.86,0,0,1-1.58,6A11.25,11.25,0,0,1,223.36,95a11.77,11.77,0,0,1-6,1.56,11.21,11.21,0,0,1-8.25-3.43A11.92,11.92,0,0,1,209.54,76,11.29,11.29,0,0,1,217.33,73Zm.1,5.31a5.8,5.8,0,0,0-4.38,1.83,6.48,6.48,0,0,0-1.75,4.68A6.62,6.62,0,0,0,213,89.52a6.18,6.18,0,0,0,8.78,0,7.24,7.24,0,0,0,0-9.43A5.85,5.85,0,0,0,217.43,78.26Z"/><path class="cls-3" d="M233.24,64.86h5.64V96h-5.64Z"/><path class="cls-3" d="M266.52,86.4H248.4a6,6,0,0,0,2.1,3.81,6.58,6.58,0,0,0,4.35,1.42,7.52,7.52,0,0,0,5.43-2.22L265,91.65a11.18,11.18,0,0,1-4.26,3.73,13.35,13.35,0,0,1-5.88,1.2,11.66,11.66,0,0,1-8.62-3.33A11.37,11.37,0,0,1,243,84.89a11.74,11.74,0,0,1,3.31-8.54,11.16,11.16,0,0,1,8.32-3.4,11.56,11.56,0,0,1,8.63,3.4,12.29,12.29,0,0,1,3.33,9ZM260.88,82a5.68,5.68,0,0,0-2.21-3.06,6.38,6.38,0,0,0-3.81-1.17,6.73,6.73,0,0,0-4.14,1.32A7.26,7.26,0,0,0,248.65,82Z"/></g></g></svg>