<svg xmlns="http://www.w3.org/2000/svg" width="120" height="160" viewBox="0 0 120 160">
  <defs>
    <linearGradient id="linearGradient-3" x1="24.001" x2="80.615" y1="149.791" y2="148.691" gradientUnits="userSpaceOnUse">
      <stop offset="0" stop-color="rgb(27,102,173)"/>
      <stop offset="1" stop-color="rgb(28,102,172)"/>
    </linearGradient>
    <linearGradient id="linearGradient-5" x1="31.358" x2="34.11" y1="150.538" y2="150.538" gradientUnits="userSpaceOnUse">
      <stop offset="0" stop-color="rgb(27,102,173)"/>
      <stop offset="1" stop-color="rgb(28,102,172)"/>
    </linearGradient>
    <linearGradient id="linearGradient-7" x1="42.528" x2="45.13" y1="152.201" y2="152.201" gradientUnits="userSpaceOnUse">
      <stop offset="0" stop-color="rgb(27,102,173)"/>
      <stop offset="1" stop-color="rgb(28,102,172)"/>
    </linearGradient>
    <linearGradient id="linearGradient-9" x1="55.07" x2="57.158" y1="152.166" y2="152.166" gradientUnits="userSpaceOnUse">
      <stop offset="0" stop-color="rgb(27,102,173)"/>
      <stop offset="1" stop-color="rgb(28,102,172)"/>
    </linearGradient>
    <linearGradient id="linearGradient-11" x1="65.412" x2="67.08" y1="150.946" y2="150.946" gradientUnits="userSpaceOnUse">
      <stop offset="0" stop-color="rgb(27,102,173)"/>
      <stop offset="1" stop-color="rgb(28,102,172)"/>
    </linearGradient>
    <linearGradient id="linearGradient-13" x1="72.831" x2="75.368" y1="149.349" y2="149.349" gradientUnits="userSpaceOnUse">
      <stop offset="0" stop-color="rgb(27,102,173)"/>
      <stop offset="1" stop-color="rgb(28,102,172)"/>
    </linearGradient>
    <linearGradient id="linearGradient-15" x1="24.138" x2="80.491" y1="143.683" y2="142.614" gradientUnits="userSpaceOnUse">
      <stop offset="0" stop-color="rgb(27,102,173)"/>
      <stop offset="1" stop-color="rgb(28,102,172)"/>
    </linearGradient>
    <linearGradient id="linearGradient-18" x1="11.247" x2="67.86" y1="140.839" y2="139.738" gradientUnits="userSpaceOnUse">
      <stop offset="0" stop-color="rgb(27,102,173)"/>
      <stop offset="1" stop-color="rgb(28,102,172)"/>
    </linearGradient>
    <linearGradient id="linearGradient-20" x1="18.604" x2="21.356" y1="141.585" y2="141.585" gradientUnits="userSpaceOnUse">
      <stop offset="0" stop-color="rgb(27,102,173)"/>
      <stop offset="1" stop-color="rgb(28,102,172)"/>
    </linearGradient>
    <linearGradient id="linearGradient-22" x1="29.774" x2="32.376" y1="143.248" y2="143.248" gradientUnits="userSpaceOnUse">
      <stop offset="0" stop-color="rgb(27,102,173)"/>
      <stop offset="1" stop-color="rgb(28,102,172)"/>
    </linearGradient>
    <linearGradient id="linearGradient-24" x1="42.316" x2="44.404" y1="143.213" y2="143.213" gradientUnits="userSpaceOnUse">
      <stop offset="0" stop-color="rgb(27,102,173)"/>
      <stop offset="1" stop-color="rgb(28,102,172)"/>
    </linearGradient>
    <linearGradient id="linearGradient-26" x1="52.658" x2="54.326" y1="141.993" y2="141.993" gradientUnits="userSpaceOnUse">
      <stop offset="0" stop-color="rgb(27,102,173)"/>
      <stop offset="1" stop-color="rgb(28,102,172)"/>
    </linearGradient>
    <linearGradient id="linearGradient-28" x1="60.077" x2="62.614" y1="140.396" y2="140.396" gradientUnits="userSpaceOnUse">
      <stop offset="0" stop-color="rgb(27,102,173)"/>
      <stop offset="1" stop-color="rgb(28,102,172)"/>
    </linearGradient>
    <linearGradient id="linearGradient-30" x1="11.283" x2="67.736" y1="134.625" y2="133.536" gradientUnits="userSpaceOnUse">
      <stop offset="0" stop-color="rgb(27,102,173)"/>
      <stop offset="1" stop-color="rgb(28,102,172)"/>
    </linearGradient>
    <linearGradient id="linearGradient-33" x1="29.104" x2="85.716" y1="133.165" y2="132.065" gradientUnits="userSpaceOnUse">
      <stop offset="0" stop-color="rgb(27,102,173)"/>
      <stop offset="1" stop-color="rgb(28,102,172)"/>
    </linearGradient>
    <linearGradient id="linearGradient-35" x1="36.459" x2="39.211" y1="133.911" y2="133.911" gradientUnits="userSpaceOnUse">
      <stop offset="0" stop-color="rgb(27,102,173)"/>
      <stop offset="1" stop-color="rgb(28,102,172)"/>
    </linearGradient>
    <linearGradient id="linearGradient-37" x1="47.629" x2="50.232" y1="135.574" y2="135.574" gradientUnits="userSpaceOnUse">
      <stop offset="0" stop-color="rgb(27,102,173)"/>
      <stop offset="1" stop-color="rgb(28,102,172)"/>
    </linearGradient>
    <linearGradient id="linearGradient-39" x1="60.172" x2="62.26" y1="135.54" y2="135.54" gradientUnits="userSpaceOnUse">
      <stop offset="0" stop-color="rgb(27,102,173)"/>
      <stop offset="1" stop-color="rgb(28,102,172)"/>
    </linearGradient>
    <linearGradient id="linearGradient-41" x1="70.513" x2="72.182" y1="134.319" y2="134.319" gradientUnits="userSpaceOnUse">
      <stop offset="0" stop-color="rgb(27,102,173)"/>
      <stop offset="1" stop-color="rgb(28,102,172)"/>
    </linearGradient>
    <linearGradient id="linearGradient-43" x1="77.933" x2="80.47" y1="132.722" y2="132.722" gradientUnits="userSpaceOnUse">
      <stop offset="0" stop-color="rgb(27,102,173)"/>
      <stop offset="1" stop-color="rgb(28,102,172)"/>
    </linearGradient>
    <linearGradient id="linearGradient-45" x1="29.139" x2="85.593" y1="127.061" y2="125.993" gradientUnits="userSpaceOnUse">
      <stop offset="0" stop-color="rgb(27,102,173)"/>
      <stop offset="1" stop-color="rgb(28,102,172)"/>
    </linearGradient>
    <linearGradient id="linearGradient-48" x1="35.193" x2="89.466" y1="124.144" y2="107.834" gradientUnits="userSpaceOnUse">
      <stop offset="0" stop-color="rgb(27,102,173)"/>
      <stop offset="1" stop-color="rgb(28,102,172)"/>
    </linearGradient>
    <linearGradient id="linearGradient-50" x1="43.855" x2="46.418" y1="122.174" y2="122.174" gradientUnits="userSpaceOnUse">
      <stop offset="0" stop-color="rgb(27,102,173)"/>
      <stop offset="1" stop-color="rgb(28,102,172)"/>
    </linearGradient>
    <linearGradient id="linearGradient-52" x1="55.251" x2="57.529" y1="121.853" y2="121.853" gradientUnits="userSpaceOnUse">
      <stop offset="0" stop-color="rgb(27,102,173)"/>
      <stop offset="1" stop-color="rgb(28,102,172)"/>
    </linearGradient>
    <linearGradient id="linearGradient-54" x1="63.856" x2="66.443" y1="119.082" y2="119.082" gradientUnits="userSpaceOnUse">
      <stop offset="0" stop-color="rgb(27,102,173)"/>
      <stop offset="1" stop-color="rgb(28,102,172)"/>
    </linearGradient>
    <linearGradient id="linearGradient-56" x1="72.259" x2="75.668" y1="114.853" y2="114.853" gradientUnits="userSpaceOnUse">
      <stop offset="0" stop-color="rgb(27,102,173)"/>
      <stop offset="1" stop-color="rgb(28,102,172)"/>
    </linearGradient>
    <linearGradient id="linearGradient-58" x1="79.378" x2="83.835" y1="109.306" y2="109.306" gradientUnits="userSpaceOnUse">
      <stop offset="0" stop-color="rgb(27,102,173)"/>
      <stop offset="1" stop-color="rgb(28,102,172)"/>
    </linearGradient>
    <linearGradient id="linearGradient-60" x1="62.743" x2="57.25" y1="115.591" y2="98.783" gradientUnits="userSpaceOnUse">
      <stop offset="0" stop-color="rgb(27,102,173)"/>
      <stop offset="1" stop-color="rgb(28,102,172)"/>
    </linearGradient>
    <linearGradient id="linearGradient-66" x1="39.362" x2="78.868" y1="91.739" y2="51.013" gradientUnits="userSpaceOnUse">
      <stop offset="0" stop-color="rgb(27,102,173)"/>
      <stop offset="1" stop-color="rgb(28,102,172)"/>
    </linearGradient>
    <linearGradient id="linearGradient-68" x1="44.511" x2="49.677" y1="85.168" y2="85.168" gradientUnits="userSpaceOnUse">
      <stop offset="0" stop-color="rgb(27,102,173)"/>
      <stop offset="1" stop-color="rgb(28,102,172)"/>
    </linearGradient>
    <linearGradient id="linearGradient-70" x1="54.18" x2="59.383" y1="79.404" y2="79.404" gradientUnits="userSpaceOnUse">
      <stop offset="0" stop-color="rgb(27,102,173)"/>
      <stop offset="1" stop-color="rgb(28,102,172)"/>
    </linearGradient>
    <linearGradient id="linearGradient-72" x1="60.541" x2="65.616" y1="72.702" y2="72.702" gradientUnits="userSpaceOnUse">
      <stop offset="0" stop-color="rgb(27,102,173)"/>
      <stop offset="1" stop-color="rgb(28,102,172)"/>
    </linearGradient>
    <linearGradient id="linearGradient-74" x1="65.746" x2="71.642" y1="64.687" y2="64.687" gradientUnits="userSpaceOnUse">
      <stop offset="0" stop-color="rgb(27,102,173)"/>
      <stop offset="1" stop-color="rgb(28,102,172)"/>
    </linearGradient>
    <linearGradient id="linearGradient-76" x1="69.608" x2="75.915" y1="56.15" y2="56.15" gradientUnits="userSpaceOnUse">
      <stop offset="0" stop-color="rgb(27,102,173)"/>
      <stop offset="1" stop-color="rgb(28,102,172)"/>
    </linearGradient>
    <linearGradient id="linearGradient-78" x1="59.311" x2="46.332" y1="70.877" y2="58.845" gradientUnits="userSpaceOnUse">
      <stop offset="0" stop-color="rgb(27,102,173)"/>
      <stop offset="1" stop-color="rgb(28,102,172)"/>
    </linearGradient>
  </defs>
  <g>
    <g>
      <g>
        <g>
          <path fill="rgb(255,255,255)" fill-rule="evenodd" d="M25.5564856 143.07476278l-.0674836 6.8348113c.0674836 2.80836307 12.07956392 4.87234074 26.89221354 4.60165514 14.81264961-.2706856 26.72350454-2.80836306 26.68976275-5.65056182v-5.85357602"/>
          <path fill="url(#linearGradient-3)" fill-rule="evenodd" d="M24.0043335 149.94348145C24.10552979 155.49243165 43.20343018 156 50.15423584 156c1.07971191 0 1.85577393-.03381348 2.1932373-.06762695 7.25445557-.13537598 14.0703125-.8121338 19.19903565-1.8947754 6.14105225-1.2857666 8.9753418-2.97753906 8.94158935-5.21081542v-5.85351563h-2.93554687v5.78588867c-.91101074 1.31958008-9.2789917 3.95874024-25.23883057 4.26330567-15.89239502.30456543-24.3953247-1.96240235-25.37384033-3.24816895l.10119629-6.66564941-2.93554687-.03381348-.1011963 6.86865235z"/>
        </g>
        <path fill="url(#linearGradient-5)" fill-rule="evenodd" d="M33.35084109 148.9621745c0-.2368499 0-.4398641-.0337418-.676714-.91102856.2030142-1.85579893.3721927-2.76682749.5752069l1.72083173 4.26329814c.1349672.3721927.30367619.6428783.67483598.84589249.30367618.1691785.74231957.2030142 1.07973755.0676714.33741799-.1353428.67483598-.3721927.84354497-.7443854.168709-.33835699.26993439-.77822108.1349672-1.11657808l-1.72083174-4.26329814c-.1349672-.338357-.30367619-.67671399-.67483597-.84589249-.30367619-.1353428-.57361058-.1691785-.87728677-.1015071-.70857777.1353428-1.21470475.8120568-1.21470475 1.52260648 0 .2368499 0 .4398641.0337418.676714.0337418.74438538.67483597 1.45493507 1.45089734 1.35342798.74231957-.1015071 1.34967195-.7782211 1.34967195-1.55644218z"/>
        <path fill="url(#linearGradient-7)" fill-rule="evenodd" d="M41.88751615 150.95848077c.33741799 1.52260648.91102857 2.97754156 1.68708994 4.36480524.33741798.57520689 1.07973755.2368499 1.45089734-.1015071.26993439-.2368499.53986878-.5413712.67483597-.91356389.1012254-.2368499.2024508-.60904259.0674836-.84589249-.77606137-1.35342798-1.34967195-2.80836306-1.68708993-4.36480523-.0674836-.2368499-.37115979-.338357-.57361058-.3045213-.30367619.0338357-.64109418.2030142-.87728677.4060284-.47238518.43986409-.87728676 1.08274238-.74231957 1.75945637z"/>
        <path fill="url(#linearGradient-9)" fill-rule="evenodd" d="M54.57443245 151.39834486c.40490159 1.04890669.77606137 2.09781337 1.18096296 3.14672006.1012254.2706856.23619259.5413712.53986877.6090426.2699344.06767139.57361058-.0338357.77606137-.2030142.2699344-.2368499.47238518-.5752069.57361058-.9135639.1012254-.33835699.168709-.74438538.0337418-1.08274238-.40490158-1.04890668-.77606137-2.09781337-1.18096295-3.14672005-.1012254-.2706856-.2361926-.5413712-.53986878-.6090426-.2699344-.0676714-.57361058.0338357-.77606137.2030142-.2699344.2368499-.47238518.5752069-.57361058.91356389-.1012254.3045213-.168709.74438539-.0337418 1.08274238z"/>
        <path fill="url(#linearGradient-11)" fill-rule="evenodd" d="M64.46077946 148.9621745c-.1012254 1.48877078.2024508 3.04521296.77606137 4.43247664.2699344.67671399 1.21470475.91356388 1.85579893.71054969.60735237-.2030142 1.24844655-.7782211.94477036-1.48877078-.2024508-.5075355-.37115978-1.04890669-.50612698-1.55644218.0337418.1015071.0337418.2030142.0674836.3045213-.168709-.8458925-.2361926-1.69178498-.2024508-2.53767747.0337418-.3045213-.23619258-.6428783-.47238518-.81205679-.26993438-.2030142-.70857777-.3045213-1.04599575-.2706856-.74231957.0338357-1.38341375.4398641-1.41715555 1.21808519z"/>
        <path fill="url(#linearGradient-13)" fill-rule="evenodd" d="M72.25513495 148.5223104c.0337418.0338357.0674836.1015071.1349672.1353428-.0674836-.1015071-.1349672-.1691785-.2361926-.2706856.4049016.4736998.70857778 1.015071.97851217 1.59027788-.0337418-.1015071-.1012254-.2030142-.1349672-.338357.2361926.5413712.40490159 1.0827424.50612699 1.65794929-.0337418-.1353428-.0337418-.2368499-.0674836-.3721927.0337418.1691785.0337418.338357.0674836.5075355.0337418.37219269.16870899.71054968.43864338.94739958.23619259.2368499.64109417.3721927.97851216.3045213.74231957-.1353428 1.38341374-.8458925 1.28218835-1.62411358-.0674836-.84589249-.2699344-1.69178498-.60735238-2.47000607-.168709-.43986409-.37115978-.84589248-.64109417-1.25192088-.2699344-.4060284-.57361058-.77822109-.87728677-1.15041378-.20245079-.2368499-.67483597-.338357-.97851216-.3045213-.33741799.0338357-.70857777.2706856-.94477036.5413712-.2361926.30452129-.40490159.71054968-.37115979 1.08274238.1012254.4398641.2361926.74438539.47238518 1.01507098z"/>
        <path fill="url(#linearGradient-15)" fill-rule="evenodd" d="M24.0043335 143.54846191c.10125732 5.54907227 19.19909668 6.05664063 26.14990234 6.05664063.40814209 0 .77288818-.00488281 1.08874512-.0090332.51983642-.00683594.90740967-.0119629 1.13824463.0090332 7.25445556-.13537598 14.0703125-.81201172 19.19903564-1.8947754 6.14105225-1.2857666 8.9753418-2.97753905 8.94158936-5.24450683-.1011963-6.428833-25.47503663-6.12426758-28.37683106-6.05664062-2.90179443.06762695-28.27563476.74438476-28.14068603 7.13928222zm28.34313964 3.07910157c-15.45373535.30444336-23.88916015-1.86096192-25.272583-3.14672852 1.31591797-1.35339355 9.65014648-3.82348633 25.13763427-4.12792969 15.41998291-.30456543 23.8892212 1.86096192 25.27258301 3.14672852-1.31591797 1.35339355-9.68383789 3.82336426-25.13763428 4.12792969z"/>
      </g>
      <g>
        <g>
          <path fill="rgb(255,255,255)" fill-rule="evenodd" d="M12.8020857 134.1421381l-.1012254 6.80097561c.0674836 2.80836306 12.07956393 4.87234073 26.89221354 4.60165514 14.81264962-.2706856 26.72350455-2.80836306 26.68976275-5.65056182V134.040631"/>
          <path fill="url(#linearGradient-18)" fill-rule="evenodd" d="M11.24993896 140.97705078c.1011963 5.5489502 19.19909668 6.05651856 26.14990235 6.05651856 1.07971191 0 1.85577392 0 2.1932373-.06762696 7.25445557-.13537597 14.0703125-.81213379 19.19903565-1.89477539 6.14105224-1.2857666 8.9753418-2.97753906 8.94158935-5.21081543v-5.85351562h-2.93554687v5.78588867c-.91101074 1.31958008-9.2789917 3.95874023-25.23883057 4.26330566-15.89239502.30456543-24.3953247-1.96240234-25.37384033-3.24816894l.10119629-6.66564942-2.93554688-.03381347-.10119629 6.86865234z"/>
        </g>
        <path fill="url(#linearGradient-20)" fill-rule="evenodd" d="M20.5964412 139.99571412c0-.2368499 0-.43986409-.0337418-.67671399-.91102857.2030142-1.85579893.3721927-2.7668275.5752069l1.72083173 4.26329814c.1349672.3721927.3036762.64287829.67483598.84589248.30367619.1691785.74231957.2030142 1.07973756.0676714.33741798-.1353428.67483597-.3721927.84354496-.74438539.168709-.338357.2699344-.77822109.1349672-1.11657808l-1.72083174-4.26329814c-.13496719-.338357-.30367618-.676714-.67483597-.84589249-.30367619-.1353428-.57361058-.1691785-.87728676-.1015071-.70857778.1353428-1.21470476.8120568-1.21470476 1.52260648 0 .2368499 0 .4398641.0337418.676714.0337418.74438538.67483598 1.45493507 1.45089735 1.35342797.74231957-.0676714 1.34967194-.74438539 1.34967194-1.55644218z"/>
        <path fill="url(#linearGradient-22)" fill-rule="evenodd" d="M29.13311626 141.9920204c.33741798 1.52260647.91102856 2.97754155 1.68708993 4.36480523.33741799.5752069 1.07973756.2368499 1.45089734-.1015071.2699344-.23684989.53986878-.54137119.67483598-.91356388.1012254-.2368499.20245079-.6090426.0674836-.84589249-.77606138-1.35342798-1.34967195-2.80836306-1.68708994-4.36480524-.0674836-.2368499-.37115979-.338357-.57361058-.3045213-.30367619.0338357-.64109417.2030142-.87728676.4060284-.47238519.4398641-.87728677 1.08274239-.74231957 1.75945638z"/>
        <path fill="url(#linearGradient-24)" fill-rule="evenodd" d="M41.82003256 142.43188449c.40490158 1.04890669.77606136 2.09781337 1.18096295 3.14672006.1012254.2706856.23619259.54137119.53986878.60904259.26993439.0676714.57361057-.0338357.77606137-.2030142.26993439-.2368499.47238518-.5752069.57361057-.91356389.1012254-.338357.168709-.74438539.0337418-1.08274238-.40490158-1.04890669-.77606137-2.09781337-1.18096295-3.14672006-.1012254-.2706856-.2361926-.54137119-.53986878-.60904259-.26993439-.0676714-.57361058.0338357-.77606137.2030142-.26993439.2368499-.47238518.57520689-.57361058.91356389-.1012254.338357-.16870899.74438538-.0337418 1.08274238z"/>
        <path fill="url(#linearGradient-26)" fill-rule="evenodd" d="M51.70637957 139.99571412c-.1012254 1.48877078.20245079 3.04521296.77606136 4.43247664.2699344.676714 1.21470476.91356389 1.85579893.7105497.60735238-.2030142 1.24844655-.7782211.94477036-1.48877079-.20245079-.50753549-.37115978-1.04890668-.50612698-1.55644218.0337418.1015071.0337418.2030142.0674836.3045213-.168709-.84589249-.23619259-1.69178498-.2024508-2.53767746.0337418-.3045213-.23619258-.6428783-.47238517-.8120568-.2699344-.20301419-.70857777-.30452129-1.04599576-.27068559-.74231957.0676714-1.38341375.4736998-1.41715554 1.21808518z"/>
        <path fill="url(#linearGradient-28)" fill-rule="evenodd" d="M59.50073506 139.58968573c.0337418.0338357.0674836.1015071.1349672.1353428-.0674836-.1015071-.1349672-.1691785-.2361926-.2706856.40490159.4736998.70857777 1.01507099.97851216 1.59027788-.0337418-.1015071-.1012254-.2030142-.1349672-.338357.2361926.5413712.4049016 1.08274239.50612699 1.65794928-.0337418-.1353428-.0337418-.2368499-.0674836-.3721927.0337418.1691785.0337418.338357.0674836.5075355.0337418.3721927.168709.71054969.43864338.94739959.2361926.2368499.64109418.3721927.97851216.3045213.74231957-.1353428 1.38341375-.8458925 1.28218835-1.62411359-.0674836-.84589248-.26993439-1.69178497-.60735237-2.47000606-.168709-.4398641-.37115979-.84589249-.64109418-1.25192088-.26993439-.4060284-.57361058-.7782211-.87728676-1.15041379-.2024508-.2368499-.67483598-.338357-.97851217-.3045213-.33741798.0338357-.70857777.2706856-.94477036.5413712-.23619259.3045213-.40490158.71054969-.37115978 1.08274238.1012254.4398641.23619259.7105497.47238518 1.01507099z"/>
        <path fill="url(#linearGradient-30)" fill-rule="evenodd" d="M11.25 134.58203125c.10119629 5.54907227 19.19909668 6.05664063 26.14990234 6.05664063h2.22692871c7.2545166-.13537598 14.0703125-.8121338 19.19909668-1.8947754 6.14099122-1.2857666 8.9753418-2.97753906 8.94158936-5.2446289-.03375244-2.30078125-2.93554688-3.85717774-9.14404297-4.90612793-5.16247558-.87976074-11.97833252-1.2857666-19.23284912-1.15039063-7.25445557.13525391-14.0703125.81201172-19.19903564 1.8947754-6.14105225 1.2857666-8.9753418 2.97753906-8.94158936 5.24450683zm28.34307861 3.07910156c-15.45373535.30444336-23.88916015-1.86096191-25.272583-3.14672851 1.31591796-1.35339356 9.65014648-3.82348633 25.13763427-4.1279297 15.45373535-.30456542 23.8892212 1.86096192 25.27258301 3.14672852-1.31591797 1.35339356-9.68383789 3.82336426-25.13763428 4.1279297z"/>
      </g>
      <g>
        <g>
          <path fill="rgb(255,255,255)" fill-rule="evenodd" d="M30.685239 126.46143432l-.1012254 6.8009756c.0674836 2.80836306 12.07956392 4.87234073 26.89221354 4.60165513 14.77890781-.2706856 26.72350454-2.80836306 26.68976274-5.65056182v-5.85357601"/>
          <path fill="url(#linearGradient-33)" fill-rule="evenodd" d="M29.09936523 133.29626465c.1011963 5.5489502 19.19909668 6.05651855 26.14990235 6.05651855 1.07971191 0 1.85577392 0 2.1932373-.06762695 7.25445557-.13537598 14.0703125-.81213379 19.19903565-1.8947754 6.14105224-1.2857666 8.9753418-2.97753905 8.94158935-5.21081542v-5.85351563h-2.93554687v5.78588868c-.91101074 1.31958007-9.2789917 3.95874023-25.23883057 4.26330566-15.89239502.30456543-24.3953247-1.96240234-25.37384033-3.24816894l.10119629-6.66564942-2.93554688-.03381348-.10119629 6.86865235z"/>
        </g>
        <path fill="url(#linearGradient-35)" fill-rule="evenodd" d="M38.44585269 132.31501033c0-.2368499 0-.4398641-.0337418-.67671399-.91102856.2030142-1.85579893.3721927-2.7668275.5752069l1.72083174 4.26329813c.1349672.3721927.30367619.6428783.67483597.8458925.3036762.16917849.74231957.20301419 1.07973756.0676714.33741799-.1353428.67483597-.3721927.84354497-.7443854.168709-.338357.26993439-.77822109.1349672-1.11657808l-1.72083174-4.26329814c-.1349672-.338357-.30367619-.676714-.67483597-.8458925-.3036762-.13534279-.57361058-.16917849-.87728677-.10150709-.70857777.1353428-1.21470475.81205679-1.21470475 1.52260648 0 .2368499 0 .4398641.0337418.67671399.0337418.74438539.67483597 1.45493508 1.45089734 1.35342798.74231957-.0676714 1.38341375-.74438539 1.34967195-1.55644218z"/>
        <path fill="url(#linearGradient-37)" fill-rule="evenodd" d="M47.01626955 134.3113166c.33741799 1.52260648.91102856 2.97754156 1.68708993 4.36480524.33741799.5752069 1.07973756.2368499 1.45089735-.1015071.26993439-.2368499.53986877-.54137119.67483597-.91356388.1012254-.2368499.2024508-.6090426.0674836-.8458925-.77606137-1.35342797-1.34967195-2.80836305-1.68708994-4.36480523-.0674836-.2368499-.37115978-.338357-.57361057-.3045213-.3036762.0338357-.64109418.2030142-.87728677.4060284-.50612698.4736998-.91102856 1.08274238-.74231957 1.75945637z"/>
        <path fill="url(#linearGradient-39)" fill-rule="evenodd" d="M59.66944405 134.7511807c.40490158 1.04890668.77606137 2.09781337 1.18096295 3.14672005.1012254.2706856.2361926.5413712.53986878.6090426.2699344.0676714.57361058-.0338357.77606137-.2030142.2699344-.2368499.47238518-.5752069.57361058-.91356389.1012254-.338357.168709-.74438539.0337418-1.08274238-.40490159-1.04890669-.77606137-2.09781337-1.18096296-3.14672006-.1012254-.2706856-.23619259-.5413712-.53986877-.6090426-.2699344-.06767139-.57361058.0338357-.77606137.2030142-.2699344.2368499-.47238518.5752069-.57361058.9135639-.1012254.33835699-.168709.74438538-.0337418 1.08274238z"/>
        <path fill="url(#linearGradient-41)" fill-rule="evenodd" d="M69.55579106 132.34884603c-.1012254 1.48877078.2024508 3.04521296.77606137 4.43247664.26993439.67671399 1.21470475.91356389 1.85579893.71054969.60735237-.2030142 1.24844655-.77822109.94477036-1.48877078-.2024508-.5075355-.37115979-1.04890668-.50612698-1.55644218.0337418.1015071.0337418.2030142.0674836.3045213-.168709-.84589249-.2361926-1.69178498-.2024508-2.53767747.0337418-.3045213-.23619259-.64287829-.47238518-.81205678-.26993439-.2030142-.70857777-.3045213-1.04599576-.2706856-.74231957.0338357-1.38341374.4398641-1.41715554 1.21808518z"/>
        <path fill="url(#linearGradient-43)" fill-rule="evenodd" d="M77.38388835 131.90898194c.0337418.0338357.0674836.1015071.1349672.1353428-.0674836-.1015071-.1349672-.1691785-.2361926-.2706856.40490159.4736998.70857778 1.01507099.97851217 1.59027788-.0337418-.1015071-.1012254-.2030142-.1349672-.338357.2361926.5413712.40490159 1.08274239.50612698 1.65794928-.0337418-.1353428-.0337418-.2368499-.0674836-.3721927.0337418.1691785.0337418.338357.0674836.5075355.0337418.3721927.168709.71054969.43864339.94739958.23619259.2368499.64109417.3721927.97851216.3045213.74231957-.1353428 1.38341374-.84589249 1.28218835-1.62411358-.0674836-.84589249-.2699344-1.69178497-.60735238-2.47000606-.168709-.4398641-.37115979-.8458925-.64109417-1.25192088-.2699344-.4060284-.57361058-.7782211-.87728677-1.15041379-.2024508-.2368499-.67483597-.338357-.97851216-.3045213-.33741799.0338357-.70857777.2706856-.94477036.5413712-.2361926.3045213-.40490159.71054969-.37115979 1.08274238.0674836.4398641.2024508.7105497.47238518 1.01507099z"/>
        <path fill="url(#linearGradient-45)" fill-rule="evenodd" d="M29.09936523 126.90124512c.1011963 5.54907226 19.19909668 6.05664062 26.14990235 6.05664062h2.2269287c7.25451661-.13537597 14.0703125-.81201172 19.19909669-1.89477539 6.14099121-1.2857666 8.9753418-2.97753906 8.94158935-5.24450683-.10064697-6.38867188-25.15863037-6.09448243-28.31982421-6.05725098l-.05706788.00061035c-7.25445556.13537598-14.0703125.81201172-19.19903564 1.8947754-6.14105225 1.2857666-8.9753418 2.97753905-8.94158936 5.24450683zm28.34307862 3.07910156c-15.45373535.30444336-23.88916016-1.86096191-25.27258301-3.14672852 1.31591797-1.35339355 9.68389893-3.82348632 25.13763428-4.12792968 15.45373535-.30456543 23.88922119 1.86096191 25.272583 3.14672851-1.31591796 1.35339356-9.68383789 3.82336426-25.13763427 4.12792969z"/>
      </g>
      <g>
        <g>
          <path fill="rgb(255,255,255)" fill-rule="evenodd" d="M34.29561145 115.39716057l2.19321692 7.88371799c1.28218834 4.26329814 13.80039565 5.54905472 27.9719511 1.28575658 14.17155543-4.26329814 24.63151302-12.45153742 23.34932467-16.71483556l-2.3619259-8.35741778"/>
          <path fill="url(#linearGradient-48)" fill-rule="evenodd" d="M34.43057865 115.36332487l1.01225396 2.19932047.94477036 2.23315617c.33741799.74438539.60735238 1.48877078.91102856 2.23315617l.2361926.54137119c.0674836.1691785.16870899.4060284.20245079.4398641.1012254.1691785.26993439.33835699.47238518.47369979.84354496.67671399 2.2607005 1.04890668 3.64411425 1.25192088 1.41715555.2030142 2.90179469.3045213 4.42017563.2706856 3.00302008-.1015071 6.03978196-.3721927 9.04280204-.9812353 3.00302008-.50753548 5.97229837-1.28575657 8.90783485-2.19932046 2.93553649-.84589249 5.80358937-1.96247057 8.60415866-3.18055575 2.8005693-1.21808519 5.49991318-2.67302027 8.06428988-4.26329814 1.24844655-.8120568 2.4294095-1.72562068 3.50914707-2.67302027 1.04599575-.94739958 1.95702432-2.09781337 2.1932169-3.04521295.0337418-.1015071.0337418-.2368499.0337418-.338357v-.1691785l-.06748359-.3045213-.2024508-1.18424948c-.13496719-.77822109-.26993438-1.59027787-.40490158-2.36849896-.26993439-1.59027788-.47238518-3.18055576-.67483597-4.80466933l.26993439-.0676714 1.31593015 4.60165513.67483597 2.30082757.33741799 1.15041378c.1012254.3721927.23619259.8120568.20245079 1.21808519-.0337418.84589248-.37115979 1.62411357-.77606137 2.33466326-.40490158.7105497-.91102856 1.35342798-1.45089734 1.96247057-1.07973756 1.18424949-2.29444231 2.23315617-3.57663066 3.21439146-5.1624952 3.82343405-11.06730996 6.4964543-17.17457552 8.45892488-6.10726556 1.86096347-12.51820731 2.97754156-18.92914906 2.67302026-1.58586453-.0676714-3.20547087-.2706856-4.7575936-.64287829-1.55212275-.4060284-3.13798729-.94739958-4.31895024-2.13164907-.26993439-.3045213-.53986878-.64287829-.67483597-1.04890668-.168709-.4060284-.2361926-.7782211-.33741799-1.15041379l-.64109417-2.30082756-1.24844655-4.63549084.23619259-.0676714z"/>
        </g>
        <path fill="url(#linearGradient-50)" fill-rule="evenodd" d="M45.936532 119.52511591c-.1012254-.338357-.168709-.64287829-.2699344-.98123528-.20245079-.7105497-1.01225396-1.18424949-1.72083173-.91356389-.74231957.3045213-1.18096295 1.08274238-.97851216 1.86096347l1.61960634 6.29344011c.20245079.7105497 1.04599575 1.18424949 1.72083173.9135639.74231957-.3045213 1.18096295-1.0827424.97851216-1.86096348l-1.61960634-6.29344011c-.91102856.3045213-1.78831533.60904259-2.69934389.94739958.1012254.338357.168709.6428783.26993439.98123529.2024508.71054969 1.01225396 1.18424948 1.72083173.91356389.74231957-.2706856 1.21470475-1.08274239.97851216-1.86096348z"/>
        <path fill="url(#linearGradient-52)" fill-rule="evenodd" d="M54.64191605 119.38977311c.50612698 2.16548477.91102856 4.36480524 1.24844655 6.56412571.1012254.6428783.70857777.6428783 1.21470475.338357.50612698-.3045213 1.21470475-1.04890669 1.11347936-1.72562068-.37115979-2.36849896-.84354497-4.70316223-1.34967195-7.0378255-.0674836-.2368499-.37115978-.338357-.57361058-.3045213-.30367618.0338357-.64109417.2030142-.87728676.4060284-.53986878.4398641-.94477036 1.04890668-.77606137 1.75945637z"/>
        <path fill="url(#linearGradient-54)" fill-rule="evenodd" d="M63.3810419 116.85209565c.53986878 2.03014197 1.07973756 4.02644824 1.65334814 6.05659022.168709.60904259.80980317.84589248 1.31593015.40602839.53986878-.4736998.80980317-1.28575658.60735237-1.99630627-.53986878-2.03014197-1.07973755-4.02644825-1.65334813-6.05659022-.168709-.60904259-.80980317-.84589249-1.31593015-.4060284-.53986878.4736998-.80980317 1.2857566-.60735238 1.99630628z"/>
        <path fill="url(#linearGradient-56)" fill-rule="evenodd" d="M71.34410639 112.04742632c.53986878 2.23315617 1.34967195 4.39864094 2.4968931 6.3611115.37115979.6428783 1.14722116.9473996 1.85579893.7105497.53986878-.1691785 1.34967195-.81205679.94477036-1.48877078-1.14722115-1.99630627-1.95702432-4.12795534-2.4968931-6.36111151-.0674836-.3045213-.47238518-.5413712-.70857777-.6428783-.33741799-.13534279-.80980317-.16917849-1.14722116-.0676714-.33741798.1015071-.67483597.2706856-.84354496.5752069-.2024508.3045213-.2024508.5752069-.1012254.91356389z"/>
        <path fill="url(#linearGradient-58)" fill-rule="evenodd" d="M78.7673021 107.68262108c.40490158.338357.77606137.71054969 1.11347935 1.08274238.0337418.0338357.0674836.1015071.1012254.1353428.0337418.0338357.2024508.2368499.0674836.0676714-.1349672-.1691785 0 0 .0337418.0338357.0337418.0676714.1012254.1015071.13496719.1691785.168709.2030142.33741799.4398641.47238518.67671399.30367619.4398641.57361058.91356389.80980317 1.38726368.0674836.1353428.1349672.2368499.168709.3721927.0337418.0338357.13496719.30452129.0337418.1015071-.0674836-.1691785 0 0 .03374179.0676714.1012254.27068559.2361926.54137118.33741799.84589248.23619259.676714.97851216 1.15041378 1.68708993.81205679.67483597-.3045213 1.14722116-1.15041379.91102856-1.89479917-.84354496-2.33466327-2.15947511-4.50014804-4.04901584-6.12426162-.57361057-.5075355-1.48463914-.3721927-1.92328252.2368499-.43864338.57520689-.53986878 1.48877078.0674836 2.03014197z"/>
        <path fill="url(#linearGradient-60)" fill-rule="evenodd" d="M64.59570313 98.17480469C62.26751709 98.75 59.9730835 99.4267578 57.6786499 100.20495605c-2.26068115.74438477-4.55511474 1.55639649-6.88330078 2.4699707-2.22698974.87976075-4.42022705 1.82714845-6.57965088 2.9437256-2.15948486 1.08276367-4.28521728 2.26696777-6.24224853 3.72192382-.97851563.74438477-1.92327881 1.52258301-2.7668457 2.50390625-.43865967.5074463-.80981446 1.04882813-1.07971192 1.69177246-.2699585.64282227-.43865967 1.42102051-.20245361 2.2331543.23620605.77819824.84350586 1.38720703 1.41711425 1.79321289.60736084.40612793 1.21472168.67675781 1.85583497.87976074 1.28216552.40600586 2.53063964.57519532 3.77905273.67675782 2.4968872.16918945 4.99383545.03381347 7.42321777-.23693848 4.89257813-.54125977 9.65014649-1.72558594 14.30651856-3.21435547 2.32818603-.77819824 4.58886719-1.65795898 6.84960937-2.60534668 2.26068116-.98120117 4.45391846-2.06396484 6.57965088-3.2821045 2.12573242-1.21801757 4.18395996-2.57141112 6.10723877-4.19555663.94476318-.81201172 1.85583496-1.72558594 2.63183594-2.77453614.40490723-.50756836.7423706-1.11657714.97851562-1.79333496.23620606-.67663574.33746338-1.522583.06750489-2.30078125-.3036499-.77819824-.8772583-1.35339355-1.48461914-1.69177246-.60736084-.3383789-1.24847413-.57519531-1.85583496-.71057129-1.2484131-.30456543-2.49688721-.37219238-3.71154786-.37219238-2.42944336 0-4.82513427.30456543-7.22076416.71057129-2.36193847.37219238-4.72387695.91357422-7.05206299 1.522583zm-6.91705323 2.03015136C62.26757812 98.75 66.9576416 97.5657959 71.74902344 97.02441406c2.39562988-.27062988 4.7913208-.37219238 7.15325927-.20300293 1.1472168.06762696 2.32818604.27062989 3.40789795.6090088 1.07971192.3383789 2.05822754.94738769 2.26068116 1.72558593.1687622.74438477-.33740235 1.725708-1.04595948 2.53771973-.70861816.84594726-1.6196289 1.59033203-2.53063964 2.26696777-1.85583497 1.3873291-3.9140625 2.53771973-6.00604249 3.58666992-2.12573242 1.04882813-4.28521728 1.99621582-6.47845458 2.87597656-2.19317627.91357422-4.42016602 1.69177246-6.68084717 2.43615723-2.26068116.74438477-4.52142334 1.42114258-6.81585694 1.9963379-2.29443359.5751953-4.58886718 1.11657714-6.91705322 1.48876952-2.32818603.37219239-4.69012451.67675781-6.9845581.67675781-1.1472168 0-2.2944336-.06774902-3.37420655-.30456543-1.04595947-.2368164-2.0244751-.71057128-2.32818603-1.42114257-.3036499-.7105713.1687622-1.7932129.80981445-2.70678711.67486572-.91357422 1.51837158-1.75952149 2.39569092-2.53771973 1.78833008-1.522583 3.77905273-2.87597656 5.87109375-4.06030273 4.18395996-2.40234375 8.63787842-4.26330567 13.19299316-5.78588868z"/>
      </g>
      <g>
        <path fill="rgb(182,57,85)" fill-rule="evenodd" d="M66.35032019 106.227686c.74231957-2.40233467-2.4294095-3.92494114-6.03978196-3.75576265-3.57663066.1353428-8.40170787 2.06397767-9.38022003 4.70316224-.60735238 1.55644217-.37115979 2.50384176 0 3.01137725.30367618.3721927 1.21470475.9812353 1.65334813.676714.47238518-.3045213.70857777-.7782211.47238518-1.08274239-.70857777-.81205679-.60735237-2.06397767.1012254-3.31589855.60735237-1.08274239 2.5981185-1.79329208 4.08275764-2.13164907 1.72083173-.3721927 3.47540526-.3721927 4.62262641.1353428 1.07973756.47369979 1.65334814 1.38726368 1.34967195 2.43617036-.1012254.338357 1.14722116.4736998 1.78831533.338357.60735238-.1691785 1.24844655-.6428783 1.34967195-1.01507099z"/>
        <path fill="rgb(182,57,85)" fill-rule="evenodd" d="M54.87810864 103.75767994c.64109417 1.15041378 1.11347936 2.33466326 1.41715554 3.62041984.0674836.3045213.57361058 0 .80980317-.2030142.33741799-.27068559.87728677-.81205678.80980317-1.11657808-.33741799-1.31959228-.80980317-2.60534886-1.48463914-3.78959834-.1349672-.2706856-.87728677.3721927-1.01225396.47369979-.2699344.2706856-.67483597.74438539-.53986878 1.01507099z"/>
        <path fill="rgb(182,57,85)" fill-rule="evenodd" d="M57.88112872 102.67493755c.64109418 1.15041378 1.11347936 2.33466327 1.41715555 3.62041985.0674836.3045213.57361057 0 .80980316-.2030142.33741799-.2706856.87728677-.81205679.80980317-1.11657808-.33741799-1.31959228-.80980317-2.60534887-1.48463914-3.78959835-.1349672-.2706856-.87728677.3721927-1.01225396.4736998-.26993439.30452129-.70857777.77822108-.53986878 1.01507098z"/>
      </g>
      <g>
        <g>
          <path fill="rgb(255,255,255)" fill-rule="evenodd" d="M34.32935325 84.5390026l5.73610577 5.81974032c3.17172908 3.11288436 14.74516602-1.89479917 25.07015642-12.51920882 10.32499039-10.62440965 15.48748558-22.90676858 12.28201471-25.98581723l-6.10726556-6.15809732"/>
          <path fill="url(#linearGradient-66)" fill-rule="evenodd" d="M34.46432045 84.4374955l1.95702432 1.42109939 1.88954072 1.48877078c.64109418.47369979 1.24844655 1.01507098 1.88954073 1.48877078l.47238518.37219269c.1349672.1353428.33741799.2706856.40490158.3045213.168709.1015071.40490159.1691785.64109418.2030142 1.04599576.16917849 2.4968931-.1691785 3.81282325-.676714 1.34967195-.50753549 2.6993439-1.15041378 3.98153224-1.92863487 2.5643767-1.55644218 5.0950116-3.28206285 7.4231957-5.24453343 2.39566771-1.92863487 4.62262643-4.02644824 6.71461794-6.2596044 2.15947512-2.19932048 4.11649944-4.56781944 5.97229837-7.00398981 1.85579892-2.43617037 3.50914706-5.00768353 4.9600444-7.6468681.70857777-1.31959227 1.28218835-2.70685595 1.75457353-4.06028393.47238518-1.31959229.70857778-2.80836307.43864339-3.72192695l-.1012254-.3045213c-.0337418-.0338357-.0674836-.1015071-.0674836-.1353428l-.20245079-.2368499-.77606137-.94739958c-.50612698-.6090426-1.01225396-1.25192088-1.51838094-1.89479917-1.01225396-1.25192089-1.95702432-2.53767747-2.90179468-3.85726975l.20245079-.2030142 3.37417986 3.38356996 1.68708994 1.69178497.84354496.8458925c.2699344.27068559.60735238.60904258.77606137.98123528.37115979.77822109.47238519 1.62411357.43864339 2.43617036-.0337418.8120568-.1349672 1.62411358-.33741799 2.40233467-.37115979 1.59027788-.91102856 3.07904866-1.58586454 4.56781943-2.6656021 5.85357602-6.51216714 11.09810945-10.89860097 15.73360028-4.45391742 4.60165514-9.48144542 8.69577478-15.2175512 11.57180924-1.45089734.71054969-2.93553648 1.31959228-4.48765922 1.75945638-1.55212274.40602839-3.20547087.71054969-4.82507721.2368499-.40490158-.1353428-.77606137-.3045213-1.11347936-.6090426-.33741798-.2706856-.57361057-.5752069-.87728676-.84589249l-1.68708993-1.72562067-3.34043807-3.41740566.30367619-.1691785z"/>
        </g>
        <path fill="url(#linearGradient-68)" fill-rule="evenodd" d="M46.54388437 82.44118924l-.70857777-.7105497c-.53986878-.54137119-1.51838094-.43986409-1.99076612.1353428-.50612698.6090426-.53986878 1.48877078 0 2.06397767 1.48463914 1.55644218 2.96927828 3.14672006 4.45391742 4.70316224.53986878.54137119 1.51838094.4398641 1.99076612-.1353428.50612698-.6090426.53986878-1.48877078 0-2.06397767-1.48463914-1.55644218-2.96927828-3.14672006-4.45391742-4.70316223-.67483598.71054969-1.31593015 1.45493507-1.99076612 2.16548476l.70857777.7105497c.53986878.54137119 1.51838094.43986409 1.99076612-.1353428.53986878-.5752069.57361058-1.45493508 0-2.03014197z"/>
        <path fill="url(#linearGradient-70)" fill-rule="evenodd" d="M53.5621785 77.8733698c1.55212273 1.72562068 3.03676187 3.48507705 4.45391742 5.31220482.1349672.2030142.53986877.1353428.74231957.0676714.33741798-.1015071.64109417-.3721927.87728676-.60904259.37115979-.4398641.77606137-1.11657808.33741799-1.65794927-1.41715555-1.82712778-2.90179469-3.58658415-4.45391743-5.31220483-.16870899-.1691785-.53986877-.1353428-.74231957-.0676714-.33741798.1015071-.64109417.3721927-.87728676.6090426-.33741799.40602839-.77606137 1.15041378-.33741799 1.65794927z"/>
        <path fill="url(#linearGradient-72)" fill-rule="evenodd" d="M60.20931283 71.74910819c1.45089734 1.48877077 2.90179469 3.01137725 4.38643383 4.50014803.20245079.2030142.53986878.1691785.74231957.0676714.30367619-.1353428.53986878-.4398641.67483597-.71054969.30367619-.60904259.40490158-1.42109938-.1012254-1.92863487-1.45089734-1.48877078-2.90179468-3.01137726-4.38643382-4.50014804-.2024508-.2030142-.53986878-.1691785-.74231957-.0676714-.3036762.1353428-.53986878.4398641-.67483598.7105497-.26993439.57520689-.40490158 1.38726367.1012254 1.92863487z"/>
        <path fill="url(#linearGradient-74)" fill-rule="evenodd" d="M64.86568105 63.1548405c1.61960633 1.75945638 3.47540526 3.34973426 5.53365498 4.56781944.60735237.3721927 1.51838094.4060284 2.09199152-.1015071.23619259-.2030142.43864338-.50753549.40490158-.84589248-.0337418-.3045213-.2024508-.6428783-.47238518-.8120568-.94477037-.57520688-1.85579893-1.21808518-2.7330857-1.92863487l-.60735237-.50753549c-.0674836-.0676714-.26993439-.2030142-.30367619-.2706856l.0674836.0676714-.0674836-.0676714-.1349672-.1353428c-.43864338-.40602839-.84354496-.81205678-1.24844654-1.25192087-.50612698-.5413712-1.41715555-.676714-2.02450792-.3045213-.60735238.3045213-1.01225396 1.04890668-.50612698 1.59027788z"/>
        <path fill="url(#linearGradient-76)" fill-rule="evenodd" d="M69.42082387 56.0831793c.23619259.0676714.50612698.1015071.74231957.1691785.0674836 0 .1349672.0338357.16870899.0676714-.0674836 0-.23619259-.0676714-.0674836-.0338357.1349672.0338357.2361926.0676714.37115979.1353428.50612698.1691785 1.01225396.4060284 1.48463914.6428783.23619259.1353428.47238518.23684989.70857777.40602839.1012254.0676714.2361926.1353428.33741799.2030142.0674836.0338357.1012254.0676714.168709.1015071.16870899.1015071-.2024508-.1353428-.0337418-.0338357.47238517.33835699.91102856.67671398 1.34967194 1.04890668.57361058.5075355 1.48463914.3721927 1.92328252-.2368499.43864339-.57520689.53986878-1.52260648-.0674836-2.03014197-1.85579892-1.62411358-4.08275763-2.80836306-6.51216714-3.31589855-.74231957-.1691785-1.51838094.54137119-1.61960633 1.25192088-.1349672.74438539.26993439 1.45493508 1.04599576 1.62411358z"/>
        <path fill="url(#linearGradient-78)" fill-rule="evenodd" d="M52.48242188 54.69592285c-1.75457764 1.62402344-3.4416504 3.34973145-5.0612793 5.14294434-1.65332031 1.75952148-3.23919678 3.58666992-4.69006348 5.58288574-1.51843262 1.86096191-2.96929931 3.78967285-4.31896973 5.78588867-1.3496704 1.9963379-2.63189697 4.06030274-3.644104 6.29345703-.50616455 1.11657715-.94476318 2.26696778-1.21472168 3.5189209-.13494873.64294434-.20245361 1.2857666-.13494873 1.9963379.06744385.71057128.33740234 1.48876952.91101074 2.06396484.5736084.5751953 1.38342285.81201171 2.09197998.87976074.74230957.06762695 1.4171753 0 2.05822754-.13537598 1.28222657-.27062988 2.4631958-.71057129 3.6104126-1.25195312 2.26068115-1.08276368 4.35266113-2.3684082 6.34344482-3.82336426 4.0152588-2.84228516 7.59191895-6.1920166 10.93237305-9.77856445 1.65332031-1.82714844 3.23919678-3.68811036 4.72381592-5.61669922q2.22692871-2.94372559 4.15026855-6.0904541c1.24841309-2.1315918 2.39562989-4.33093262 3.27294922-6.66564942.40490723-1.1842041.77606201-2.40234375.94476319-3.72192383.06750488-.67663574.10119629-1.35339355-.03375245-2.06396484-.10119628-.71057129-.43865966-1.48876953-1.0460205-2.03015137-.64105225-.54138183-1.4508667-.74438476-2.12573242-.74438476-.6748047-.03381348-1.34967041.1015625-1.95697022.27075195-1.21472168.37219238-2.32818603.91357422-3.40795898 1.48876953-2.12573243 1.1842041-4.08276368 2.63916016-5.97229004 4.12792969-1.88952637 1.48876953-3.67785645 3.11291504-5.43243408 4.77087402zm-5.06121827 5.1430664c3.27294922-3.5189209 6.8157959-6.80102538 10.7298584-9.64318847 1.95703125-1.42114258 4.0152588-2.67297363 6.14099121-3.68811035 1.07977295-.47363281 2.1932373-.87963867 3.30670166-1.11657715 1.07977295-.2368164 2.26074219-.16918945 2.80059815.40600586.53985595.57531738.5736084 1.69189453.33740234 2.74072266-.23620605 1.08276367-.64111328 2.16552734-1.11346435 3.21435547-.94476319 2.09790039-2.1932373 4.09423828-3.50915528 6.05664062-1.31591797 1.96252441-2.7668457 3.8572998-4.25146484 5.68444824-1.48461914 1.86096192-3.03674317 3.6541748-4.65637207 5.37988282-1.58587647 1.7593994-3.23919678 3.45117187-4.96002197 5.07531738-1.7208252 1.65795898-3.47540284 3.24816894-5.3312378 4.703125-1.85577392 1.45495605-3.74530029 2.87609863-5.76983642 3.99267578-1.01226807.54138184-2.05822754 1.04882812-3.10424805 1.35339355-1.0460205.30456543-2.12573242.37219239-2.73309326-.1015625-.60736084-.50744629-.74230957-1.65783691-.60736084-2.77441406.10125732-1.11657715.43865967-2.26708984.8435669-3.383667.84356689-2.23315429 1.9232788-4.36474608 3.17175292-6.42871093 2.46313477-4.0941162 5.4661255-7.91760254 8.7053833-11.47033691z"/>
      </g>
      <g>
        <path fill="rgb(182,57,85)" fill-rule="evenodd" d="M57.88112872 60.85401294c-.50612698-2.43617037-4.01527404-2.23315617-7.08577772-.338357-3.07050368 1.86096348-6.30971635 5.88741172-5.93855656 8.69577478.23619259 1.65794928.87728676 2.36849897 1.45089734 2.63918456.43864338.2030142 1.51838094.2706856 1.78831533-.2030142.26993439-.50753549.23619259-1.04890668-.1349672-1.18424948-1.01225396-.3721927-1.51838094-1.48877077-1.51838094-2.94370585 0-1.21808519 1.41715555-2.84219876 2.5306349-3.85726975 1.31593015-1.18424948 2.8343111-2.03014197 4.08275764-2.13164907 1.18096296-.1015071 2.12573332.4060284 2.3619259 1.45493508.0674836.3721927 1.21470476-.1353428 1.72083174-.5752069.50612698-.40602839.84354497-1.15041378.74231957-1.55644217z"/>
        <path fill="rgb(182,57,85)" fill-rule="evenodd" d="M46.67885156 64.3052543c1.11347936.67671398 2.09199152 1.52260647 2.96927829 2.47000606.20245079.2368499.50612698-.2706856.64109417-.5752069.168709-.40602839.37115979-1.15041378.168709-1.38726368-.91102857-1.01507098-1.95702433-1.86096347-3.13798728-2.60534886-.2361926-.1691785-.60735238.74438539-.64109418.91356389-.1349672.4060284-.26993439 1.04890668 0 1.18424948z"/>
        <path fill="rgb(182,57,85)" fill-rule="evenodd" d="M48.77084308 61.93675532c1.11347936.676714 2.09199152 1.52260648 2.96927828 2.47000607.2024508.2368499.50612698-.2706856.64109418-.5752069.168709-.40602839.37115978-1.15041378.168709-1.38726367-.91102857-1.01507099-1.95702433-1.86096348-3.13798728-2.60534887-.2361926-.1691785-.60735238.7443854-.64109418.9135639-.1012254.40602839-.26993439 1.01507098 0 1.18424947z"/>
      </g>
    </g>
    <rect width="120" height="160" x="0" y="0" fill="none"/>
  </g>
</svg>
