<svg xmlns="http://www.w3.org/2000/svg" xmlns:xlink="http://www.w3.org/1999/xlink" width="120" height="120" viewBox="0 0 120 120">
  <defs>
    <rect id="rect-1" width="93" height="107.2" x="20" y="10"/>
    <mask id="mask-2" maskContentUnits="userSpaceOnUse" maskUnits="userSpaceOnUse">
      <rect width="120" height="120" x="0" y="0" fill="black"/>
      <use fill="white" xlink:href="#rect-1"/>
    </mask>
  </defs>
  <g>
    <g>
      <use fill="none" xlink:href="#rect-1"/>
      <g mask="url(#mask-2)">
        <path fill="rgb(0,102,179)" fill-rule="evenodd" d="M72.69250488 47.45629883c2.81469727 2.022583 4.61621094 5.24389648 5.6295166 8.50256347 2.36437989 7.64111329 1.38867188 17.34228516-4.16589355 23.41015625-1.95153809 2.13500977-4.5411377 3.9329834-7.46850586 4.3449707-3.52783203.4494629-7.09320068-.86145019-9.79534912-3.03393554-2.55206299-2.17248535-4.39105225-5.31884766-5.36688232-8.50256348-1.27600098-4.19519043-1.20092774-8.91467285 0-13.1472168.86322021-2.99645995 2.36444091-5.84313964 4.42858886-8.24035644 2.1392212-2.47216797 4.9539795-3.85803222 8.06896973-4.68200683 3.07751465-.82409668 6.04248047-.56188965 8.66955566 1.34838867zm-4.84143066 34.1977539c3.07751465-.56188964 5.77966308-2.734375 7.46850586-5.31884765C77.4588623 73.11401368 78.171875 69.03125 78.171875 65.24816895c0-3.63330079-.6755371-7.30407715-2.32678223-10.56274415-1.31359863-2.62194824-3.30273437-5.01916503-6.0048828-6.25524902-2.85229493-1.31091308-5.81713868-.67419433-8.66949464.37463379-11.67193603 4.3449707-11.89709472 22.51123047-3.19006347 29.9276123 2.70214843 2.20996094 6.34259033 3.55834961 9.87042236 2.92163086z"/>
        <path fill="rgb(0,102,179)" fill-rule="evenodd" d="M65.5992736 78.4327044h11.37167071c1.08837772 0 2.40193705.1498253 3.07748184-.9364081.52542373-.82403914.4503632-2.02264151.48789346-2.95904962.03753027-1.16114605 0-2.35974843-.1125908-3.52089448-.18765133-2.35974843-.52542373-4.71949685-.93825666-7.04178896-.1125908-.59930119-.86319612-.9364081-1.38861985-.7865828-.63801453.18728161-.9007264.7865828-.7881356 1.38588399.37530267 1.94772886.6755448 3.93291405.82566587 5.91809923.07506053 1.01132076.15012106 2.02264151.15012106 3.03396227 0 .48693221 0 1.01132075-.03753026 1.49825297 0 .33710691.03753026.9364081-.1125908 1.2360587-.03753027.07491264 0 .03745632.1125908-.11236898H65.56174334c-1.42615012 0-1.42615012 2.28483578.03753027 2.28483578z"/>
        <path fill="rgb(0,102,179)" fill-rule="evenodd" d="M70.89104116 81.65394829c-1.08837772 2.69685534.07506053 5.58099231 2.40193705 7.19161425 2.73970944 1.91027254 6.23002421 1.76044724 9.38256658 2.35974843 5.06658596.97386443 9.87046005 6.1802935 9.23244552 11.61146052-.07506053.52438854.07506054 1.16114605.6755448 1.34842767.52542373.1498253 1.12590799-.33710692 1.20096852-.89895178.63801453-5.16897275-2.47699758-10.56268344-7.0181598-13.03480084-2.77723971-1.49825297-5.92978209-1.385884-8.96973366-2.0226415-1.50121065-.2996506-3.07748184-.82403914-4.20338983-1.94772887-.86319613-.89895178-1.53874092-2.3222921-1.0133172-3.5583508.2251816-.52438854.18765134-1.19860238-.33777239-1.5357093-.48789346-.2996506-1.12590799-.03745632-1.35108959.48693222z"/>
        <path fill="rgb(0,102,179)" fill-rule="evenodd" d="M92.35835351 102.70440252c-12.34745763.1498253-24.69491525-.07491265-37.04237288-.07491265-3.3401937 0-6.68038741 0-10.02058111.07491265-.07506054-2.73431167-.4503632-5.65590497.562954-8.27784766.60048425-1.61062195 1.7639225-2.24737946 3.41525423-2.58448638 1.72639225-.33710691 3.52784503-.41201956 5.25423729-.67421383 1.65133172-.26219427 3.30266343-.67421384 4.87893462-1.27351503.9007264-.33710692 1.98910412-.59930119 2.36440678-1.57316562.6755448-1.68553459.03753027-3.67071977 0-5.43116701 0-.4494759-2.28934625-.52438854-2.28934625-.18728162.03753027 1.72299091.71307506 3.74563242 0 5.43116701-.2251816.52438854-.562954.67421384-1.08837772.89895178-.75060533.33710692-1.50121065.5993012-2.28934625.86149546-1.76392252.56184487-3.5653753.82403914-5.44188862 1.01132076-1.57627118.1498253-3.2276029.26219427-4.72881356.82403913-1.23849879.4494759-1.95157385 1.27351503-2.40193704 2.4721174-1.0133172 2.73431167-.60048426 5.84318658-.52542373 8.68986723 0 .1498253.30024213.2996506.6755448.33710692-.37530267.6367575-.4503632 1.61062194.18765132 1.57316561 12.34745763-.1498253 24.69491526.07491265 37.04237289.07491265 3.64043583 0 7.2433414 0 10.88377724-.07491265.82566586.03745633 1.50121065-2.09755415.562954-2.09755415z"/>
        <path fill="rgb(0,102,179)" fill-rule="evenodd" d="M60.72033898 54.011181c3.26513317.18728161 5.47941889 3.2587002 8.031477 5.31879804 3.86561743 3.1088749 8.594431 4.30747728 13.47336562 5.16897274-.3377724-5.05660377-.7881356-13.70901467-4.87893463-16.70552061-4.09079903-2.99650594-10.05811138-4.49475891-15.12469733-4.34493362-2.58958838.07491265-7.6937046 2.771768-10.28329298 5.91809924-1.80145279 2.20992313-2.02663438 4.30747728-2.58958838 7.1167016s-.30024213 5.73081761.2251816 8.54004193c.97578692-2.58448637 3.82808717-3.74563242 6.11743341-5.31879804 2.02663439-1.385884 3.75302664-3.25870021 4.95399516-5.3937107"/>
        <path fill="rgb(0,102,179)" fill-rule="evenodd" d="M67.25060533 30.60097834c-9.68280872-2.771768-20.5290557-.52438854-28.18523003 6.0304682-7.61864407 6.4799441-11.8220339 16.25604472-12.00968523 26.18197065-.07506053 4.75695318.6755448 9.47645004 2.13922518 13.97120895-2.4394673-1.6855346-4.99152542-3.18378757-7.6937046-4.49475891-.82566586-.41201957-2.06416465 1.19860237-1.27602905 1.83535988 3.3401937 2.80922432 7.0181598 5.20642907 10.9213075 7.19161426.15012107.07491265.26271187.07491265.41283293.07491265.562954.37456324 1.20096853-.18728162 1.50121066-.63675751 2.17675545-3.10887492 4.31598063-6.21774983 6.49273608-9.36408107.26271186-.37456324.26271186-1.04877708-.26271187-1.2360587-.562954-.22473794-1.08837772.2996506-1.35108959.71167016-1.87651331 2.69685535-3.75302663 5.43116702-5.62953995 8.12802237-3.7905569-9.06443047-4.61622276-19.47728861-1.0133172-28.7290007 3.34019371-8.54004193 10.32082325-15.35709294 19.25302664-17.79175402 5.10411623-1.385884 10.50847458-1.385884 15.57506054.07491265 1.01331719.2996506 2.21428571-1.61062194 1.12590799-1.94772886z"/>
        <path fill="rgb(0,102,179)" fill-rule="evenodd" d="M108.3087167 50.7899371c-2.6646489-1.76044723-5.8922518-1.8728162-9.00726392-1.7229909-1.50121065.07491264-2.85230024.14982529-3.60290556 1.64807826-.75060533 1.49825297-1.20096853 3.18378756-1.5762712 4.7944095-.26271186 1.0862334 1.08837773 1.31097135 1.76392253.86149546 1.27602905-.86149546 2.28934624-2.06009783 2.96489104-3.4085255 4.16585956 8.42767295 2.36440678 18.95290006-4.65375303 25.39538783-1.98910411 1.8353599-4.27845036 3.22124389-6.75544794 4.23256464-1.31355932.52438854-.562954 2.4721174.82566586 1.94772887 10.35835351-4.08273935 16.62590799-15.132355 14.7118644-26.107058-.45036319-2.54703006-1.31355932-4.98169113-2.51452784-7.22907059 2.25181598-.03745632 4.5786925.1498253 6.49273608 1.42334033 1.12590799.71167016 2.51452784-1.0862334 1.35108959-1.8353599z"/>
        <path fill="rgb(197,41,83)" fill-rule="evenodd" d="M58.9564209 108.73486328c1.83898926-.37451172 3.75305176 0 4.42858887 1.9477539 1.16345214 3.29614259-2.4019165 5.46862794-5.1416626 6.14282227-3.37768555.82397461-6.9430542.18725586-10.05810547-1.1986084-3.2276001-1.42333984-5.96728516-3.78308105-8.33172607-6.33007812-2.43945313-2.58447266-4.80383301-5.39379883-6.6803589-8.42773438-1.80145263-2.92163085-3.6779785-6.74206543-2.28936767-10.18811035.56298828-1.42333984 1.61383057-2.62194824 3.07751465-3.18383789 1.53869629-.59924316 3.34014893-.4119873 4.9539795-.14978027 1.42614745.22473144 2.96490478.7491455 3.75299072 2.02270508 1.0133667 1.57312011.52545166 3.37097168-.03747559 4.98168945-.07092285.2241211-.15301514.46313477-.23864746.71252441-.45819092 1.33398438-1.01794434 2.96350098-.5119629 4.19421387.2251587.48693848.67553712.89892578 1.01330567 1.31091309.487854.56188965.93823242 1.1237793 1.35107422 1.72302246 1.2385254 1.16113281 2.28936768 2.54699707 3.56536865 3.67077637 1.46368409 1.2734375 3.30267334 2.17248535 5.1416626 2.69677734 2.06414795.56188965 3.9031372.48693848 6.00482178.07495117zm-7.76879883 5.58105469c2.70220947.78649902 5.89227295.93640137 8.44433594-.41210938.86322021-.44946289 2.06414795-1.42333984 1.5012207-2.58447265-.293396-.69543457-1.16009521-.5324707-1.75982666-.4197998l-.04162598.0078125c-.71307373.14978027-1.46368408.29968261-2.21429443.37451171-3.03997803.29968262-6.15496826-.67419433-8.74456787-2.17236328-2.36437988-1.34851074-3.86560059-3.4835205-5.8171997-5.31884766-.11254884-.11242675-.18762208-.18725586-.2251587-.29968261-.75061035-1.04870606-1.83898926-1.98510742-2.43945312-3.18371582-.67553711-1.31103516-.52545166-2.88415528-.1876831-4.30749512.22521972-.89892578.52545165-1.76049805.82568358-2.62194824l.05291748-.15014649c.25213624-.71264648.53515625-1.51245117.35992432-2.24707031-.33776855-1.38586426-2.43945312-1.49829102-3.60290527-1.57312012-1.38861084-.11242675-2.85229492-.07495117-3.79058838 1.08618164-.86315918 1.08618164-.97576904 2.58447266-.71307373 3.93286133.63806152 3.07141113 2.66467285 5.9555664 4.54119873 8.3902588 3.60290527 4.64453124 7.9564209 9.77612304 13.81109619 11.4991455z"/>
        <path fill="rgb(197,41,83)" fill-rule="evenodd" d="M79.59806295 43.78560447c2.32687652-1.83535989 4.3535109-4.30747729 5.96731235-7.19161425.4503632-.78658281.86319613-1.64807827 1.0133172-2.6219427.60048426-4.08273934-3.5653753-6.51740042-4.27845037-10.56268344-.37530266-2.13501048.30024213-4.41984626 1.38861986-6.0304682 1.08837772-1.61062195 2.58958837-2.6219427 4.09079903-3.44598183 5.70460048-3.22124389 12.00968523-4.53221524 18.1646489-3.7081761 1.95157386.26219427 4.09079904.86149545 5.3668281 2.92159329 1.12590798 1.8728162 1.31355932 4.45730258 1.42615012 6.85450733.07506053 2.02264151.18765133 4.0078267.26271186 6.0304682.03753027.86149547.07506053 1.79790357-.30024213 2.50957373-.26271187.52438854-.71307506.82403914-1.16343826 1.04877708-4.87893462 2.73431167-10.43341404 1.04877708-15.6125908 2.28483578-5.25423728 1.27351503-9.90799031 5.50607967-13.62348668 10.71250874"/>
        <path fill="rgb(255,255,255)" fill-rule="evenodd" d="M88.94309927 20.22557652h16.2881356c1.08837772 0 1.42615012-2.24737946.37530266-2.24737946h-16.2881356c-1.12590798 0-1.42615011 2.24737946-.37530266 2.24737946z"/>
        <path fill="rgb(255,255,255)" fill-rule="evenodd" d="M90.031477 25.35709294c5.06658595-.2996506 10.13317191-.37456324 15.19975787-.18728162.4503632 0 1.12590799-.22473794 1.12590799-.7865828 0-.56184487-.71307506-.7491265-1.125908-.78658282-5.06658595-.18728162-10.1331719-.1498253-15.19975786.18728162-.4503632.03745633-1.125908.22473795-1.125908.78658281-.03753026.52438854.6755448.78658281 1.125908.78658281z"/>
        <path fill="rgb(0,102,179)" fill-rule="evenodd" d="M59.3692494 89.51977638c2.62711864 2.06009783 5.77966101 3.5583508 9.11985472 4.0078267 3.15254237.41201956 6.7929782-.52438854 8.2566586-3.63326346.48789345-1.01132075-1.72639226-.71167016-2.06416466.03745633-1.16343825 2.50957372-3.97820823 2.43466107-6.342615 1.91027253-2.55205812-.56184486-4.95399517-1.79790356-7.01815982-3.4085255-.67554479-.52438854-2.6646489.52438854-1.95157385 1.0862334z"/>
      </g>
    </g>
    <rect width="120" height="120" x="0" y="0" fill="none"/>
  </g>
</svg>
