<svg xmlns="http://www.w3.org/2000/svg" width="120" height="120" viewBox="0 0 120 120">
  <defs>
    <linearGradient id="linearGradient-15" x1="64.164" x2="71.198" y1="41.502" y2="41.502" gradientUnits="userSpaceOnUse">
      <stop offset="0" stop-color="rgb(27,102,173)"/>
      <stop offset="1" stop-color="rgb(28,102,172)"/>
    </linearGradient>
    <linearGradient id="linearGradient-17" x1="63.106" x2="68.588" y1="42.052" y2="42.052" gradientUnits="userSpaceOnUse">
      <stop offset="0" stop-color="rgb(27,102,173)"/>
      <stop offset="1" stop-color="rgb(28,102,172)"/>
    </linearGradient>
    <linearGradient id="linearGradient-19" x1="63.106" x2="68.588" y1="40.153" y2="40.153" gradientUnits="userSpaceOnUse">
      <stop offset="0" stop-color="rgb(27,102,173)"/>
      <stop offset="1" stop-color="rgb(28,102,172)"/>
    </linearGradient>
  </defs>
  <g>
    <g>
      <path fill="rgb(29,102,174)" fill-rule="evenodd" d="M99.41107607 87.16239707H11.0961182c-1.12394663 0-2.07759831-.9263495-2.07759831-2.09286368V19.09286368C9.01851989 17.96065874 9.93811259 17 11.0961182 17h88.31495787c1.12394663 0 2.07759831.9263495 2.07759831 2.09286368v66.01097895c0 1.13220494-.95365168 2.05855444-2.07759831 2.05855444z"/>
      <path fill="rgb(255,255,255)" fill-rule="evenodd" d="M93.48481202 81.021043H15.9665536c-1.12394663 0-2.07759832-.9263495-2.07759832-2.09286368V24.20494053c0-1.13220494.9195927-2.09286368 2.07759832-2.09286368h77.51825842c1.12394663 0 2.07759832.9263495 2.07759832 2.09286368v54.7232388c0 1.13220493-.9195927 2.09286367-2.07759832 2.09286367z"/>
      <g>
        <path fill="rgb(255,255,255)" fill-rule="evenodd" d="M6.5662727 79.51143641H99.649489c.74929774 0 1.36235954.61756633 1.36235954 1.37236963v8.74885636c0 .75480329-.6130618 1.37236962-1.36235955 1.37236962H6.5662727c-.74929774 0-1.36235954-.61756633-1.36235954-1.37236962v-8.74885636c0-.7548033.6130618-1.37236963 1.36235955-1.37236963z"/>
        <path fill="rgb(29,102,174)" fill-rule="evenodd" d="M11.2744751 79.5114746c-.69519043.00524903-1.3904419.00549317-2.08563233 0 .69519043-.00549315 1.39038086-.00524901 2.08563233 0zm0 0c4.53533935-.03417968 9.07061767-.28100585 13.60595703-.52783202 3.42041016-.18603516 6.84088135-.37219238 10.26135254-.46716309H96.7545166c.23840332 0 .61303711 0 .95361328.03430176.34057617.03430176.68121338.13720703.98773194.2401123.64709472.24023438 1.22613525.58337403 1.7029419 1.06359864.98773192.9263916 1.60076903 2.2644043 1.60076903 3.63684082v3.25939941c0 .2401123 0 .61755371-.06811523.9605713-.03405762.34313964-.13623047.68627929-.23840332.9949951-.23840332.65185548-.57904053 1.23510743-1.05584717 1.71545411C99.71765137 91.41674805 98.38934326 92 97.02697753 92h-77.8248291l-6.4711914-.27441406-3.2355957-.17163086c-1.15802002 0-2.4182129-.48034668-3.2355957-1.3380127-.85150147-.85778808-1.2942505-2.02429199-1.22613526-3.1907959l.10217285-3.25939941c-.03405761-1.09790039.4086914-2.23010254 1.15802002-3.01916504.71520996-.7890625 1.80511475-1.26940918 2.89501953-1.23510742-1.08990478 0-2.14575195.48034668-2.86096191 1.30371094-.74932861.78918457-1.08990479 1.88708496-.98773193 2.98498535l.10217285 3.25939941c.03405761 1.0291748.54492187 1.98986817 1.3283081 2.64172364.78338623.65185546 1.7029419.89208984 2.72473145.78918457l3.2355957-.17163086 6.4711914-.27441407h77.85888673c.8173828 0 1.60076904-.34313964 2.17974853-.96069336.27246094-.30871582.51086426-.65185546.64715576-1.02929687.06811524-.20581055.13623047-.37731934.13623047-.58325195.03405762-.20581055.03405762-.37731934.03405762-.68615723v-3.25939941c0-.82336426-.37469483-1.61254883-.95367432-2.16149903-.30651855-.27441406-.64715576-.4802246-1.02178955-.6175537-.2043457-.06860352-.37463379-.10290528-.57897949-.13720704-.2043457-.03430176-.37463379-.03430176-.68121338-.03430176H35.2098999c-3.20495605-.11352539-6.4006958-.29650879-9.5906372-.47924804-4.79089356-.27441407-9.56866456-.5480957-14.3447876-.5843506z"/>
      </g>
      <path fill="rgb(29,102,174)" fill-rule="evenodd" d="M22.06311259 66.09652333h13.18082865c.68117977 0 1.46453651-.61756633 1.70294944-1.23513266.23841292-.65187557-.13623596-1.06358646-.78335675-1.06358646H22.98270528c-.68117977 0-1.46453651.61756633-1.70294944 1.23513266-.23841292.65187557.13623596 1.06358646.78335675 1.06358646z"/>
      <path fill="rgb(29,102,174)" fill-rule="evenodd" d="M22.06311259 61.12168344h13.18082865c.68117977 0 1.46453651-.61756633 1.70294944-1.23513266.23841292-.65187557-.13623596-1.06358646-.78335675-1.06358646H22.98270528c-.68117977 0-1.46453651.61756633-1.70294944 1.23513266-.23841292.61756633.13623596 1.06358646.78335675 1.06358646z"/>
      <path fill="rgb(29,102,174)" fill-rule="evenodd" d="M51.21760697 61.12168344h34.60393258c1.1920646 0 2.7247191-2.33302836.9195927-2.33302836H52.13719966c-1.1920646 0-2.7247191 2.33302836-.9195927 2.33302836z"/>
      <path fill="rgb(182,57,85)" fill-rule="evenodd" d="M22.0290536 71.34583714c4.66608146-.61756633 9.4002809-.9263495 14.10042135-.85773101.71523876 0 1.12394662-.61756633 1.26018258-1.2694419.10217697-.44602013.03405899-1.64684355-.64712079-1.6811528-4.90449438-.06861848-9.77492977.20585545-14.64536517.85773102-1.2261236.1715462-1.4985955 3.1221409-.06811797 2.9505947z"/>
      <path fill="rgb(182,57,85)" fill-rule="evenodd" d="M21.82469966 33.15965233c.034059 6.20997255-.13623595 12.4199451-.51088483 18.62991766 4.63202248.44602013 9.33216292.24016468 13.9301264-.61756633-.20435392-5.8325709-.23841291-9.74382434-.23841291-17.84080512-4.35955057-1.20082343-7.52703652-1.33806039-11.98876405-1.16651419"/>
      <path fill="rgb(182,57,85)" fill-rule="evenodd" d="M84.86791992 31.65002441c.4086914.03430176.61303711.4116211.61303711.7890625.03387451 1.17297364.07037354 2.3458252.1069336 3.51928711.14733886 4.73046875.2949829 9.4696045.26770019 14.2529297-.03405762.7890625-.9876709 1.61254882-1.73699951 1.61254882-11.10321045.20581055-22.24053955.27441406-33.34375.44604492-.51086426 0-.91955567-.27453613-.91955567-.82348633 0-1.98498535-.10821533-3.9654541-.21636962-5.94458008-.18914795-3.460083-.37799073-6.91638183.01196289-10.38659667.03405761-.34313965.27252197-.68615723.57904052-.96069336-.06811523-.1715088-.06811523-.34301758 0-.5489502.2043457-.68615723.95361328-1.23510742 1.66888428-1.30371094.71356201-.07250976 1.42681885-.1459961 2.13983154-.21948242 6.7062378-.69091797 13.3927002-1.37988281 20.13476563-1.25585937 3.57617187.06860351 7.11828613.44604492 10.69451904.82348632zm-2.00946045 2.33312989c-3.44000244-.3774414-6.57342529-.72058106-9.97930908-.75488282-6.67681885-.09936523-13.32177734.60107422-19.9350586 1.29821778l-.7047119.07421875c-.34039307 3.38342285-.16668702 6.75170898.00732421 10.125.08709717 1.68920898.1743164 3.37963867.19702149 5.0739746 10.25177002-.13720702 20.46948242-.24023437 30.72125244-.41174316.0338745-5.11804199-.13433838-10.2022705-.30371094-15.31994629l-.00280762-.08483886z"/>
      <path fill="rgb(29,102,174)" fill-rule="evenodd" d="M51.31978393 64.8956999c11.92064607.5832571 23.84129214.85773102 35.7959972.82342178.37464887 0 .95365168-.06861848.5790028-.48032937-.34058988-.41171088-1.53265449-.37740164-2.00948033-.37740164-11.68223315.03430924-23.39852528-.24016469-35.08075843-.82342178-.27247191 0-1.15800562-.10292772-1.08988764.3430924.06811798.4117109 1.56671348.51463862 1.8051264.51463862z"/>
      <path fill="rgb(29,102,174)" fill-rule="evenodd" d="M51.31978393 68.73833486c11.92064607.58325709 23.84129214.85773101 35.7959972.82342177.37464887 0 .95365168-.06861848.5790028-.48032937-.34058988-.41171088-1.53265449-.37740164-2.00948033-.37740164-11.68223315.03430924-23.39852528-.24016469-35.08075843-.82342178-.27247191 0-1.15800562-.10292772-1.08988764.3430924.06811798.4117109 1.56671348.51463862 1.8051264.51463862z"/>
      <path fill="rgb(29,102,174)" fill-rule="evenodd" d="M51.31978393 72.54666057c11.92064607.58325709 23.84129214.85773101 35.7959972.82342177.37464887 0 .95365168-.06861848.5790028-.48032937-.34058988-.41171088-1.53265449-.37740164-2.00948033-.37740164-11.68223315.03430924-23.39852528-.24016469-35.08075843-.82342178-.27247191 0-1.15800562-.10292772-1.08988764.3430924.06811798.4117109 1.56671348.51463862 1.8051264.51463862z"/>
      <g>
        <path fill="url(#linearGradient-15)" fill-rule="evenodd" d="M70.66528955 37.34537969c-2.17977528-.89204026-4.66608146-.03430924-5.82408708 2.0242452-1.12394663 2.05855443-.9195927 5.14638609 1.39641854 6.24428179 1.39641854.65187557 2.86095506.37740164 4.29143259.06861848.37464887-.06861848.34058989-.65187557.20435393-.89204026-.20435393-.3430924-.54494382-.54894785-.95365169-.48032937-1.08988764.24016469-2.45224719.54894785-3.50807584-.10292772-.8855337-.54894785-.8855337-1.81838975-.68117977-2.74473925.23841292-1.06358646.85147472-2.0242452 1.8051264-2.57319304.8855337-.51463861 2.00948034-.65187558 2.96313202-.27447393.3065309.13723696.71523877.06861848.81741573-.30878316.10217697-.34309241-.17029494-.82342178-.51088483-.96065874z"/>
        <path fill="url(#linearGradient-17)" fill-rule="evenodd" d="M64.19408169 42.69762123c1.39641854-.13723697 2.79283708-.1715462 4.18925562-.06861849.34058988.03430924.20435393-.30878316.10217696-.5146386-.17029494-.24016469-.51088483-.65187558-.85147472-.68618482-1.46453651-.06861848-2.92907303-.06861848-4.39360955.06861848-.3065309.03430924.034059.5832571.13623596.65187558.17029494.24016468.47682584.58325709.81741573.54894785z"/>
        <path fill="url(#linearGradient-19)" fill-rule="evenodd" d="M64.19408169 40.810613c1.39641854-.13723697 2.79283708-.17154621 4.18925562-.06861849.34058988.03430924.20435393-.30878317.10217696-.51463861-.17029494-.24016468-.51088483-.65187557-.85147472-.68618481-1.46453651-.06861848-2.92907303-.06861848-4.39360955.06861848-.3065309.03430924.034059.58325709.13623596.65187557.17029494.24016469.47682584.5832571.81741573.54894785z"/>
      </g>
      <path fill="rgb(29,102,174)" fill-rule="evenodd" d="M13.5143064 83.83440073c4.8704354.27447393 9.77492978.30878317 14.64536517.13723696.78335675-.03430924 1.46453652-.58325709 1.56671349-1.37236962.10217696-.68618481-.34058989-1.50960659-1.08988764-1.47529735-4.8704354.1715462-9.77492978.13723696-14.64536517-.13723696-1.63483146-.10292772-2.31601124 2.74473925-.47682584 2.84766697z"/>
      <path fill="rgb(29,102,174)" fill-rule="evenodd" d="M77.03432045 83.83440073c4.8704354.27447393 9.77492978.30878317 14.64536517.13723696.78335674-.03430924 1.46453652-.58325709 1.56671348-1.37236962.10217697-.68618481-.34058988-1.50960659-1.08988764-1.47529735-4.8704354.1715462-9.77492977.13723696-14.64536517-.13723696-1.63483146-.10292772-2.28195224 2.74473925-.47682584 2.84766697z"/>
      <path fill="rgb(29,102,174)" fill-rule="evenodd" d="M40.31873056 83.83440073c9.05969101.27447393 18.11938203.30878317 27.21313203.13723696 1.63483146-.03430924 2.31601123-2.91628545.47682584-2.84766697-9.05969101.1715462-18.15344101.13723696-27.21313202-.13723696-1.63483146-.06861848-2.31601124 2.77904849-.47682585 2.84766697z"/>
      <path fill="rgb(29,102,174)" fill-rule="evenodd" d="M5.20391315 86.88792315c24.62464887 1.0978957 49.28335674 1.40667886 73.9420646.89204025 6.91397472-.13723696 13.79389045-.3430924 20.70786517-.61756633.47682585-.03430924 1.12394663-.82342177 1.43047753-1.13220494.10217697-.10292772.81741573-.9263495.54494382-.9263495-24.62464887.96065874-49.31741573 1.13220494-73.9420646.48032937-6.91397472-.1715462-13.79389045-.44602013-20.67380618-.7548033-.44276686-.03430923-1.15800562.85773102-1.43047753 1.13220495-.13623596.10292772-.85147472.9263495-.57900281.9263495z"/>
    </g>
    <rect width="120" height="120" x="0" y="0" fill="none"/>
  </g>
</svg>
