<svg xmlns="http://www.w3.org/2000/svg" width="160" height="240" viewBox="0 0 160 240">
  <g>
    <path fill="rgb(96,173,128)" fill-rule="evenodd" d="M121.8 12.81c-.58038354-.00335978-1.04866295-.48353625-1.047-1.0736V1.83c0-.58956397.47010101-1.0675 1.05-1.0675s1.05.47793603 1.05 1.0675v9.9003c.00321366.28575603-.10640361.56089089-.3043166.76382217-.19791297.20293129-.46759472.316713-.7486834.31587783z"/>
    <path fill="rgb(96,173,128)" fill-rule="evenodd" d="M120.68096924 48.72229004h.06298828c.5560913-.00061035 1.01525879-.4420166 1.04699707-1.00646973.3540039-6.41113281.61199951-12.95031738.78900146-19.99572754.01409913-.5895996-.44458007-1.07910156-1.0244751-1.09350586-.57989501-.01428222-1.06140136.45202637-1.07550048 1.04162598-.18603516 7.02111816-.43200684 13.53894043-.78601074 19.92871094-.03240967.58764648.40911865 1.09106445.9869995 1.1253662zm-3.81298828 39.74768066c-.05194092.00280762-.1040039.00280762-.15600586 0-.27642823-.04211425-.52496338-.19458008-.69055176-.42358398-.16552734-.2290039-.23443604-.515625-.19140625-.79650879.92095947-6.2524414 1.72198486-12.90454102 2.37896729-19.77307129.05633544-.5895996.57214355-1.02111816 1.15203857-.96386719.57989502.05725098 1.0043335.58166504.94799805 1.17126465-.66003418 6.90209961-1.46704102 13.59375-2.40002442 19.87988281-.07867431.5222168-.52130127.90734864-1.04101562.9058838zm-8.96697998 38.88439942c.1048584.03344726.21405029.05090332.3239746.05175781.45568848-.0012207.85882569-.30029297.99902344-.74108887 1.90197754-5.9810791 3.62103272-12.50195312 5.12103272-19.3828125.12506103-.5760498-.23291016-1.14611816-.79949951-1.27331543-.5666504-.12719726-1.12744141.23669434-1.25250244.81274414-1.48205567 6.81677246-3.18603516 13.27062989-5.0670166 19.18762207-.17730714.56079102.1243286 1.16186524.67498779 1.34509278zM91.3829956 163.3626709c-.20135498.00048828-.3984375-.0588379-.5670166-.17077637-.23443604-.15319824-.39935303-.39489746-.45843506-.67175293-.05908204-.27685547-.0074463-.56628418.14349365-.80444336 3.5310669-5.55700683 6.7230835-11.3293457 9.5579834-17.28442383.14575195-.36828613.48052978-.62390136.86901855-.66369629.3885498-.03967285.76672363.14306641.98168945.47448731.21496582.33154297.23126221.75683594.04229737 1.10424805-2.87084961 6.0361328-6.10601807 11.88598632-9.68701172 17.51611328-.19024658.30944824-.52313233.49829101-.88201904.50024414zM66.13409424 194.0625c.16677856.39013672.5455017.64233398.9638977.64196777.29125977.00097657.56967163-.1217041.76800537-.33850097 4.60800171-5.0234375 8.93997193-10.13220215 12.88497925-15.18908692.3604126-.46240234.28381348-1.13415527-.17095947-1.50061035-.45483398-.366333-1.11566162-.28845215-1.47601318.17382813-3.90899659 5.01123046-8.2050171 10.0772705-12.77401734 15.05786132-.28570556.31079102-.3626709.7644043-.19589233 1.15454102zm-28.67068482 27.25341797c.15048218.42285156.54534912.7043457.98757935.70422363.24099731-.0020752.47393799-.08825683.66000366-.24389648 5.09701538-4.28833008 10.07998657-8.74133301 14.80200195-13.23706055.286438-.25732422.41271973-.65258789.3296814-1.03186035-.08300781-.37927246-.36224365-.68286133-.7290039-.7923584-.36672974-.10949707-.76306153-.00769043-1.03466797.265625-4.68301392 4.46520996-9.6329956 8.88171387-14.70001221 13.15161133-.33987427.28771972-.46606445.76098633-.31558228 1.18371582z"/>
    <path fill="rgb(96,173,128)" fill-rule="evenodd" d="M15 239.89935c-.46556752.00012818-.87562592-.31144559-1.00736875-.76542676-.13174283-.45398118.046292-.94195248.43736875-1.19877324.03-.02135 3.06-2.00995 7.953-5.6303.46888975-.3470005 1.12568802-.24185457 1.46699999.23485001s.23788975 1.14444948-.231 1.49145C18.672 237.69115 15.6 239.7072 15.57 239.72855c-.1698591.11154679-.36778679.17085565-.57.1708z"/>
    <rect width="160" height="240" x="0" y="0" fill="none" rx="0" ry="0"/>
  </g>
</svg>
