<?xml version="1.0" encoding="utf-8"?>
<!-- Generator: Adobe Illustrator 25.1.0, SVG Export Plug-In . SVG Version: 6.00 Build 0)  -->
<svg version="1.1" xmlns="http://www.w3.org/2000/svg" xmlns:xlink="http://www.w3.org/1999/xlink" x="0px" y="0px"
	 viewBox="0 0 1280 640" style="enable-background:new 0 0 1280 640;" xml:space="preserve">
<style type="text/css">
	.st0{fill:#5CB77E;}
	.st1{fill-rule:evenodd;clip-rule:evenodd;fill:#FFFFFF;}
	.st2{fill-rule:evenodd;clip-rule:evenodd;fill:#5CB77E;}
	.st3{opacity:0.7;}
	.st4{fill:url(#SVGID_1_);}
	.st5{fill:#FFFFFF;}
	.st6{opacity:0.15;enable-background:new    ;}
	.st7{fill:#1E66AD;}
	.st8{opacity:0.1;enable-background:new    ;}
	.st9{opacity:7.000000e-02;enable-background:new    ;}
	.st10{opacity:0.2;fill:#FFFFFF;enable-background:new    ;}
</style>
<g id="Calque_1">
	<g>
		<g>
			<rect id="rect-2_1_" y="0" class="st0" width="1280" height="640"/>
		</g>
	</g>
	<g>
		<g>
			<path class="st1" d="M154.1,110.8c0.5-0.2,11.7-5.2,22.1-2.8c10.9,2.3,27.4,22.5,26.6,36c-0.4,3.9-2,7.4-4.5,9.7
				c-4.1,3.6-9.7,3.7-11.5,3.5c-3,1.9-7,3.1-10.4,3.9c-3.8,0.7-7,0.9-8.7,1c-0.4,0-0.7,0.1-0.9,0.1c-2,0.7-15.9,4.4-25.7-6.1
				c-4.3-4.9-3.8-14.1,2.2-27.2c4.3-9.4,9.6-17.3,10.1-17.6l0.2-0.5L154.1,110.8L154.1,110.8z M196.3,151.3c2-1.8,3.1-4.2,3.3-7.5
				c0.8-12.6-15.2-30.7-24.1-33c-8.1-1.8-17.5,1.5-19.6,2.4c-6.2,9.2-19.5,32.8-12.3,40.6c8.2,9.1,20.9,5.7,22.4,5.3
				c0.1,0,0.2,0,0.2,0l0.5,0l0.1,0c1.4,0,12.1-0.2,18.8-4.7l0.5-0.2l0.5,0C186.5,154,192.4,154.7,196.3,151.3z"/>
			<path class="st1" d="M177.6,139.4c-0.2,0.2-0.5,0.5-0.7,0.6c-1.5,1-3.4,1.7-5.2,1.9c-1.9,0.2-3.2-0.2-4.5-1.5
				c-0.5-0.5-0.8-0.8-1.3-1.5l0.5,0c1.2-0.3,2.1-0.4,3.1-0.8c1.2-0.3,2.3-0.4,3.1-0.8c0.7-0.3,1.1-0.8,0.8-1.7
				c-0.2-0.5-0.8-0.6-1.3-0.6c-2.3,0.4-4.8,0.9-7.1,1.5l-0.2,0c-0.1-0.7-0.3-1.2-0.4-1.9c0.9-0.1,1.9-0.4,2.8-0.4
				c2.1-0.4,3.8-0.8,5.9-1.2c0.7-0.1,1.1-0.8,1.1-1.5c-0.1-0.7-0.8-0.8-1.5-0.8c-2.6,0.4-5.2,1.2-7.8,1.6l-0.2,0
				c0.1-0.9,0.3-1.9,1-2.6c1.1-1.5,2.4-2.3,4-2.7c1.9-0.4,3.5-0.3,5.3-0.3c0.9,0.1,1.9-0.4,2-1.4c0.1-0.9-0.2-1.9-1.6-2.2
				c-2.7-0.7-5.4-0.4-8.1,0.5c-2.2,0.9-4,2.3-5.2,4.4c-0.8,1.5-1.3,3.1-1.2,5c0,0.2-0.2,0.5-0.5,0.5c-0.5,0-1.2,0.3-1.6,0.3
				c-0.7,0.1-0.8,0.8-0.8,1.5c0.3,0.7,0.8,0.8,1.5,0.8c0.5,0,0.9-0.1,1.4-0.3c0.1,0.7,0.3,1.4,0.4,2.1c-0.5,0-1.2,0.3-1.6,0.3
				c-0.4,0-0.7,0.3-0.6,0.8c-0.7,0.3-0.1,0.9,0.8,0.8c0.5,0,0.9-0.1,1.6-0.3c0.2,0,0.2,0,0.5,0.2l0.8,1.3c1.9,2.8,4.3,4.5,7.6,4.7
				c2.6,0.3,4.9-0.4,7.1-1.5c0.9-0.6,1.8-1.1,2.5-1.8c0.8-1,0.7-2.4-0.3-3.2C179.2,138.9,178.3,139,177.6,139.4L177.6,139.4z"/>
			<path class="st1" d="M153.3,111.3l-1.3,1l-1-1.5c-7.1-8.7-5.3-12.3-4.4-13.4c2.3-2.2,4.8-1.2,6.8-0.5l0.2,0.1
				c0.5,0.2,1.5,0.6,1.7,0.6c0.2-0.5,0.8-1.5,1.4-2.2c2.3-3.7,5.7-9.3,10.3-7.1c3.7,1.6,6.1,3.7,7.7,5.3c0.6-1,1.2-2.2,2.4-2.5
				c0.9-0.3,2.1,0,3.1,0.6c3,1.8,4.2,5.3,3.7,7.3c-0.1,1.2-0.8,1.7-1.2,2c-0.4,0.7-1.2,2.9-1.7,5.1l-0.4,1.4l-1.4-0.1
				c0,0-0.1,0-0.3-0.1C176.1,107.2,159.9,105.6,153.3,111.3z M159.2,97.2c0.2-0.2,0.3-0.4,0.4-0.7c1.7-2.6,4-6.1,5.8-5.2
				c3.9,1.8,6.2,3.9,7.5,5.4l-0.6,6l-14.1,1.2l-0.8-3.6C157.7,99.4,158.4,98.6,159.2,97.2z M178.1,94.6c0-0.2-0.2-0.2-0.2-0.2
				c-0.2,0.2-0.4,0.9-0.6,1.5c-0.1,0.7-0.6,1.5-1.2,2l-0.7,6.1c0.9,0.1,1.9,0,2.6,0.3c1.1-3.8,1.9-5.1,2.5-5.5
				C180.5,97.6,180,95.7,178.1,94.6z M152,100.1c-1.7-0.6-2.7-0.7-3-0.2c-0.5,0.2,0.3,3.5,3.5,7.8c0.9-0.6,1.8-1.1,2.9-1.5l-1.2-5.5
				C153.4,100.7,152.7,100.5,152,100.1z"/>
		</g>
	</g>
	<path class="st1" d="M291.2,193.2c0,0,0.6-19.9,30.2-37.5c21.3-12.6,31.2-21,31.2-21c14.5-13.2,30.8-25.6,50.3-30.4
		c24.6-6.2,50.5,0.3,75.2,6.3c63.3,15.3,131,26.7,193,7.3c46.3-14.5,71-26.9,119.3-20.7c15.8,2,68,13.9,82.7,19.9
		c35.5,14.5,55,6.2,73.5,38.5c16.5,28.8,2.4,63.6,13.2,94.7c11.7,33.8,32,61.4,25.8,96.5c-5.7,32.1-18.6,56.7-45.7,76.7
		c-26,19.1-39.1,7.4-60.3,31.3c-13.7,15.5-29.5,40.3-48.8,48.8c-14.3,6.3-36.1,7.6-51.8,7.1c-29.8-0.8-44.3-1.5-72.3-11.4
		c-35.2-12.4-68.5-22.9-103.1-28.8c-36.9-6.2-89.8-19-125.9-9.5c-12.7,3.4-24.8,9-37.7,11.7c-39.3,8.4-83.4-13.8-98.1-49.6
		c-17-41.4,3.5-89.3-9.5-132c-5.5-18-9.6-18.5-17.2-35.8c-3.3-7.5-8.6-20.1-16.8-31.2C293.7,217.9,289,201.3,291.2,193.2"/>
	<g>
		<g>
			<path class="st1" d="M1094.4,461.8c1.4-0.9,3.1-2.1,4.6-2.7c3.8-2.1,8-3.7,12.2-5.4c3.4-1.3,6.9-2.6,10.3-3.4"/>
			<path class="st1" d="M1122.1,450c3.2-1.1,6.4-2.4,9.6-3.4c0.8-0.4,1.5-0.4,2,0.1c-2.3,2-11.7,4.8-14.4,6.1
				c-10.3,4.2-16.7,6.8-20.5,8.6l-4.3,0.4"/>
			<g>
				<path class="st2" d="M1118.3,457.9c-0.6-3.3-0.9-6.7-1.4-10c6.2-1.5,11.5-1.8,17.8-2.9c5.5-1,12.5-2.1,18.5-2.6
					c2.7,13.2,3.7,27.1,5.6,40.7c0.7,5.1,1.7,10,2.1,15.1c0,0.3,0.1,0.8-0.2,1s-0.5,0.5-0.9,0.9c-5,1.4-8,1.5-11.3,2"/>
				<path class="st1" d="M1120,457.6c-0.5-3.1-0.7-6-1.2-9c5.5-1,11.1-1.6,16.4-2.4c5.5-1,10.9-1.7,16.4-2.2
					c1.7,9,2.8,18.3,3.8,27.6c0.7,4.6,1.1,9,1.7,13.8c0.5,2.3,0.7,4.8,1.1,7l0.4,5.1c0,0.5-0.2,1.3,0.2,1.8l0,0
					c-0.3,0.1-0.6,0.3-0.8,0.3c-0.5,0-1,0.4-1.5,0.4c-1,0.1-2,0.5-3,0.6c-1.8,0.2-3.5,0.3-5.3,0.8c-0.8,0.1-1.7,0.7-1.9,1.5
					c0.1,0.8,1.1,0.9,1.6,0.9c3.8-0.6,7.5-1,11-2c1-0.4,2.2-0.7,2.9-1.8c0.6-1.1,0.3-2.3,0.2-3.3c-0.2-2.5-0.4-4.8-0.9-7.2
					c-1.4-10-2.6-20.1-3.9-30.1c-0.8-5.8-1.5-11.3-2.8-16.7c0.2-0.8-0.9-0.7-1.4-0.7c-6.1,0.5-11.8,1.5-17.9,2.4
					c-6.2,1-12.5,1.4-18.5,2.9c-0.8,0.1-1.9,0.7-1.9,1.7c0.6,3.5,0.9,6.7,1.4,10.3c0.1,0.8,1.6,0.7,2.1,0.6
					C1119.4,458.8,1120,458.3,1120,457.6L1120,457.6z"/>
			</g>
			<path class="st1" d="M1094.3,462.3c4.9,15.5,10.1,31.6,13.6,45.3c0.4,1.3,0.7,2.7,1.8,3.4c0.5,0.5,1,0.4,1.9,0.6
				c6.7,0.9,13.3-2,20.1-2.3c2-0.2,4.5-0.9,6.5-1.1c3-0.6,5.2-1.3,8.2-1.5c0.8-0.1,1.5,0.2,2.3-0.2c0.8-0.4,1.5-0.6,1.7-1.5
				c0.3-0.5-0.1-1-0.4-1.5c-1.8-6-3-8.4-4.7-15.4c-0.7-2.7-3.3-10.9-4-13.6c-1.5-5.2-3.2-10.2-5.1-15c-0.4-1.3-1-2.7-2.1-3.3
				c-1.4-0.9-2.9-0.8-4.7-0.6c-8,1-17,2.5-24.7,4.2c-3.2,0.8-6,1-9.3,1.6c-0.5,0-1,0.1-1.3,0.6"/>
			<g>
				<path class="st2" d="M1108.7,483.2c-0.5-2.5-0.2-5.3,1.1-7.7c1-2.3,3-4,5.1-5.2c0.1-0.1,0.2-0.1,0.3-0.1
					c0.5-0.3,1.3-0.4,1.5-0.6c1.3-0.4,2.4-0.7,3.8-0.6c1-0.1,1.8,0.3,2.6,0.6c1,0.2,1.9,0.6,2.9,1.1c0.5,0.3,1.4,0.7,1.9,1.3
					c1.1,0.9,2,1.8,2.6,3.1c0.9,1.2,1.2,2.4,1.6,3.7l0.3,3.8c0.1,1-0.1,2-0.5,3.1c-0.4,1.3-1.1,2.4-1.7,3.2
					c-0.9,1.1-1.8,2.2-3.1,2.8c-1.2,0.9-2.4,1.2-3.9,1.3c-1.3,0.1-2.3-0.1-3.5-0.2c-1.3-0.2-2.3-0.3-3.6-0.7c-1-0.4-2.4-1.1-3.5-2
					c-0.9-0.9-1.7-2.2-2.3-3.1C1109.5,485.9,1109.1,484.3,1108.7,483.2z M1120.8,469.9l-1.8,0.2c-0.9,0.1-1.8,0.2-2.7,0.6
					c0.1,0.2-0.1,0.4-0.3,0.4l-1.4,0.9c-1.9,1.2-3.2,3.3-4.1,5.5c-0.8,2.4-0.9,4.9,0.1,7.3c0.4,1,1,2.2,1.8,3.4
					c0.6,1,1.5,1.7,2.5,2.3c1.9,0.8,3.9,1.5,6.3,1.8c2.3,0.3,4.8-0.7,6.4-2.4c1.7-1.5,3-3.6,3.3-5.6c0.2-1,0.1-2,0-3
					c-0.1-1.3-0.5-2.5-0.8-3.7c-0.6-1.3-1.2-2.4-2.1-3.3c-0.6-0.8-1.1-1.4-2-2.1c-0.5-0.5-1.4-0.9-2.1-1.1c-0.8-0.2-1.9-0.6-2.6-0.8
					C1121,469.8,1121,469.8,1120.8,469.9z"/>
				<path class="st2" d="M1115.9,480.5c-0.3,0.5-0.3,0.3-0.6,2.1c-0.7,1.4,1.7-0.7,3.6-2.1c0.3-0.3,0.5-0.3,1-0.1
					c0.3,0,0.3,0.3,0.5,0.5c0.5,0.5,1.6,0.7,2.3,0.1c0.3-0.3,0.5-0.3,0.8-0.4c0.3,0,0.3,0.3,0.3,0.3l1.4,1.2
					c1.5-0.4,0.5-3.6,1.6-4.8c0.5-0.5,1.3,0.2,1.8-0.5c0.5-0.5,1.1-2.1,0.3-2.5c-1.4-0.7-0.5-1.8-2.8-2.8c-2.6,2.2-4.5,0.9-5.4,3
					c-0.3,0.5-1.2,1.6-1.3,1.9c-0.5,0.3-1.3,0.1-1.5,0.4c-0.5,0.3-0.2,1.3-1.3,2.9C1116.9,479.6,1116.1,479.9,1115.9,480.5
					L1115.9,480.5z"/>
				<path class="st2" d="M1109.6,478.5c0-0.3,0.3-0.5,0.8-0.6c0.3,0.5,0.6,1.3,1.1,1.4c0.3,0,0.3,0.3,0.3,0.3c0,0.3,0,0.3-0.3,0.5
					c-0.4,0.8-0.3,1.8,0.2,2.5c0.6,0.7,1.1,1.4,1.7,1.9c-0.4,0.8-0.7,1.6-0.6,2.6c0.1,1,0.5,1.8,1,2.4c-1.4-0.7-3-1.7-3.3-3.2
					c-0.7-2.2-1.4-1.4-1.6-3.7c0-0.3,0.2-3.3,0.2-3.5C1108.9,479,1109.4,478.3,1109.6,478.5"/>
				<path class="st2" d="M1116.9,479.8c0.3,0.5-0.2,1.3-0.6,1.9l-0.7,0.9c0.8,0.4,1.5,0.2,2.3,0.3c0.8-0.1,1.5,0.2,1.9,0.8
					c0,0.3,0,0.5,0.4,1c0.3,0.5,0.3,0.5,0.6,0.8l0.5,0c1.5-0.1,3.1,0.5,4.1,1.1c1,0.4,0.8-0.1,1-0.6c0.3-0.3-0.1-1.3,0.2-1.5
					c0.3,0,0.2-0.8-0.4-0.8c-1-0.4-1.5-0.4-2.1-1.6c0-0.3-0.3-0.5-0.3-0.5c-0.3-0.3-0.8,0.1-1.3-0.2c-0.8-0.2-0.9-1.2-1.5-1.7
					l-0.3-0.3l-1,0.1c-1,0.3-0.8-0.4-1.5,0.1c-0.1-0.1-0.8-0.1-0.8,0.1C1117.4,479.8,1117.4,480.1,1116.9,479.8"/>
			</g>
			<path class="st1" d="M1122,449.3l1.8,2.9l0.9,1.4c0.3,0.3,0.3,0.5,0.6,0.8c0.2,0.3,0.8,0.4,1.1,0.7c0.3,0,0.3,0,0.3-0.3
				s0.3-0.5,0.2-0.8c0.3-0.5,0.4-1,0.7-1.4c0.4-1,0.6-2.1,0.8-2.9c0-0.3-0.5-0.5-0.5-0.5l-0.8-0.4c-0.2,1-0.3,1.8-0.8,2.9
				c-0.3,0.5-0.4,0.8-0.4,1.3c0,0.1,0,0.2-0.1,0.2c-0.1-0.2-0.3-0.4-0.5-0.7c-0.6-0.8-0.9-1.4-1.5-2.4l-0.9-0.7
				C1122.5,449.2,1122.3,449.2,1122,449.3C1122.3,448.9,1122,449,1122,449.3L1122,449.3z"/>
			<path class="st1" d="M1130.9,448.7C1130.9,448.7,1131.1,449,1130.9,448.7C1131.1,449,1131.1,449,1130.9,448.7l0.1,0.8
				c0,0.3,0,0.5,0.4,1l0.2,1.8c0,0.5,0.4,0.8,0.6,1c0.3,0.3,0.8,0.2,0.8-0.4c-0.1-1.5-0.5-2.8-0.9-4.2c0-0.3-0.6-0.8-0.9-0.7
				C1130.8,447.9,1130.9,448.5,1130.9,448.7z"/>
			<path class="st1" d="M1136.3,447.2l1.3-0.1c0.5,0,0.8,0.2,0.8,0.2c0.3,0.3,0.3,0.5,0.1,1c-0.3,0,0,0.3,0,0.3l-1.5,0.1
				c-0.2,0-0.7,0.1-0.8,0.5c-0.2-0.2-0.4-0.5-0.6-0.7c-0.3-0.3-0.4-0.8-0.1-1C1135.6,447.3,1136.1,447.2,1136.3,447.2z
				 M1136.1,449.1c-0.1,0-0.2-0.1-0.3-0.1C1135.9,449.1,1136,449.2,1136.1,449.1z M1136.2,449.2c-0.1,0-0.1-0.1-0.1-0.1
				C1136.1,449.2,1136.2,449.2,1136.2,449.2z M1136.4,449.2C1136.3,449.2,1136.3,449.2,1136.4,449.2
				C1136.3,449.2,1136.3,449.2,1136.4,449.2C1136.3,449.2,1136.3,449.2,1136.4,449.2C1136.2,449.2,1136.3,449.3,1136.4,449.2
				l-0.1,0.3C1136.5,449.7,1136.7,449.6,1136.4,449.2L1136.4,449.2L1136.4,449.2z M1136.4,449.2c0.2,0.2,0.5,0.4,0.7,0.4
				c0.6,0.3,1.2,0.4,1.8,0.4l0,0.4c0,0.3-0.3,0.5-0.4,0.8c-0.8,0.6-1.8,0.5-2.5,0.2c0,0.3,0.3,0.3,0.3,0.5l0.5,0.5l0.3,0.3
				c0.8,0.2,1.5,0.2,2.3-0.2c0.5-0.3,0.9-0.9,0.7-1.4c-0.2-0.4-0.7-0.7-1-1c0.1,0,0.2,0.1,0.4,0.1l-0.5-0.5l0,0.3
				c-0.3-0.3-0.8-0.4-1.4-0.7S1136.8,449.2,1136.4,449.2z"/>
			<g>
				<path class="st1" d="M1144.6,451.6c0.2-0.8,0.4-1.5,0.3-2.3c0-0.5-0.1-0.8,0.2-1.3c0-0.1,0-0.2,0-0.3c0.1,0.3,0.2,0.5,0.3,0.8
					c0.4,0.8,1,1.7,1.2,2.4c0.3,0.5,1.9,0.6,1.5-0.1l-1-2.2c-0.3-0.5-0.4-0.8-0.6-1.3c-0.3-0.3-0.6-0.8-0.9-0.9
					c-0.3-0.3-0.9-0.7-1.4-0.7c-0.5,0-1,0.1-1,0.6c-0.2,0.8-0.2,1.5-0.1,2.3c0.1,0.8-0.1,1.8-0.6,2.6c-0.3,0.3,0.4,0.8,0.6,0.8
					C1143.8,451.9,1144.3,451.8,1144.6,451.6L1144.6,451.6z"/>
				<path class="st1" d="M1145.2,450.5c0.3,0,0.5,0,0.8-0.4c0,0,0.3,0,0.3-0.3c0,0,0.3,0,0.3-0.3l-0.1-0.8l-0.3-0.3l-0.8,0.1
					c-0.3,0-0.5,0-0.8,0.4c0,0-0.3,0-0.3,0.3c0,0-0.3,0-0.3,0.3l0.1,0.8l0.3,0.3L1145.2,450.5z"/>
			</g>
		</g>
	</g>
	<g class="st3">
		<g>
			<path class="st1" d="M130.3,519l4.5-1.8c0.6-0.3,0.9-0.3,0.9-0.9V513c-0.3-1.8-0.9-3-2.7-3.6c-0.3,0-0.6-0.3-0.9-0.6
				c-0.9-0.9-0.9-1.5,0-1.8l2.7-0.9c-2.4-3-2.7-6-2.4-9.6c0.3-2.4,1.8-4.8,5.2-5.4c13.3-1.5,26.4-3.3,39.1-5.1h1.5
				c7.9,2.4,15.8,4.8,23.7,6.9c0.3,0,0.9,0.6,0.9,0.9s-0.6,0.9-0.9,1.2c-1.2,0.6-2.4,0.9-2.7,2.4c-0.3,1.8-0.3,3.6-0.6,5.4
				c0,0.3,0.6,0.6,0.9,0.6c1.2,0.3,2.4,0.9,3.3,1.2c0.3,0.3,0.6,0.6,1.2,0.9v0.3c-1.2,0.3-2.4,0.6-3.9,0.9c1.5,2.1,1.8,4.5,1.5,6.9
				c-0.3,2.4-0.9,4.8-3,6.6c0.6,0.3,0.9,0.3,1.2,0.3c0.9,0.3,0.9,0.9,0.3,1.5c-0.3,0.3-0.6,0.3-0.9,0.6c-1.2,0.3-2.1,1.2-2.1,2.4
				c-0.3,1.5-0.3,3-0.3,4.2c0,0.9,0.3,1.2,1.2,1.2c1.2,0.3,2.1,0.6,3.3,1.2c0.3,0.3,0.9,0.6,1.5,0.9c-0.6,0.3-0.9,0.3-1.5,0.6
				c-13,3-26.1,6.3-38.8,9.3H161l-25.5-8.1c-3-0.9-3.9-3.3-4.5-6c-0.3,0-0.6-0.3-0.6-0.6v-3.6c0.6-1.5,1.2-2.7,1.8-4.2
				c-0.3-0.3-0.9-0.3-1.8-0.6L130.3,519L130.3,519z M164,504v7.8c-4.2-1.2-8.2-2.1-11.8-3.3c-4.9-1.2-9.7-2.4-14.6-3.9
				c-0.9-0.3-1.8-0.9-2.1-1.8c-0.6-2.1-0.9-4.2-0.3-6.6c0.3-1.5,1.5-2.1,3-1.5c8.2,2.7,16.7,5.4,24.9,8.1
				C163.7,502.8,164,503.4,164,504z M198.5,496.5c-11.2,2.1-22.1,4.5-33.4,6.6v8.7c10.9-2.7,21.5-5.4,32.5-8.1
				C197.3,501.3,197.3,498.9,198.5,496.5z M170.6,525.6c0.9-0.3,1.2-0.3,1.5-0.3c8.2-2.4,16.4-4.5,24.6-6.9c0.9-0.3,1.8-0.9,2.1-1.8
				c1.2-2.1,1.2-4.5,0.6-6.6c-0.3-1.5-1.5-1.8-2.7-1.5l-8.2,2.7c-5.5,1.8-10.9,3.6-16.7,5.4c-0.3,0-0.9,0-0.9,0.9
				C170.9,519.9,170.6,522.6,170.6,525.6z M169.4,518.1v7.5c-10.6-2.7-21.5-5.4-32.1-7.8c-0.3-2.7-0.3-5.1-0.6-7.5
				c1.8,0.3,3.9,0.9,6.1,1.2c8.5,1.8,17,3.3,25.5,5.4C169.1,516.9,169.4,517.2,169.4,518.1z M161.2,539.4c0-2.7,0.3-5.4,0.3-7.8
				c0-0.9-0.3-1.2-0.9-1.2c-8.2-2.7-16.4-5.4-24.9-8.1c-1.5-0.6-2.7,0-3,1.5c-0.6,2.1-0.6,4.5,0.3,6.6c0.3,0.9,1.2,1.5,2.1,1.8
				c5.8,1.5,11.8,3.3,17.6,4.8C155.8,537.9,158.5,538.5,161.2,539.4z M188.2,525.3c2.7-0.6,5.2-0.9,7.6-1.5
				c-0.3,2.4-0.3,4.8-0.6,7.2c-10.6,2.4-21.5,5.1-32.1,7.8v-8.1c0-0.3,0.6-0.6,0.9-0.6c1.5-0.3,3.3-0.9,5.2-0.9
				c3.3,0,6.1-1.5,9.4-2.1C181.9,526.8,184.9,525.9,188.2,525.3z"/>
		</g>
	</g>
	<g>
		
			<linearGradient id="SVGID_1_" gradientUnits="userSpaceOnUse" x1="-321.7491" y1="-273.9417" x2="-321.7491" y2="-240.7484" gradientTransform="matrix(-0.9782 0.2078 -0.2078 -0.9782 724.5553 -14.2575)">
			<stop  offset="0" style="stop-color:#808080;stop-opacity:0.25"/>
			<stop  offset="0.54" style="stop-color:#808080;stop-opacity:0.12"/>
			<stop  offset="1" style="stop-color:#808080;stop-opacity:0.1"/>
		</linearGradient>
		<path class="st4" d="M1061.1,172.8c-0.1-0.4,0.1-0.9,0.4-1.2l-0.7-3.5l0,0l0,0l2.7-0.6l26.9-13.3l31.4,2.1l0.3,1.5l-13.1,8.4
			l3.2,12.5c-5.1,5-11.8,7.9-16.9,8.4l-0.1,0l-0.1,0c-13.8,2.7-17.9-4-17.9-4c-0.1-4-1.1-8.3-1.7-10.4l-13.6-2.9l0-1.1l-0.2,0
			l0.6,2.8c0.7,0,1.3,0.5,1.3,1.2c0,0.4-0.2,0.8-0.5,1.1l1.4,2c-0.1,0.1-0.2,0.3-0.3,0.3l3.9,6.1c-0.2,0.3-0.5,0.5-0.7,0.7l-0.3,0.3
			l0-0.1c-0.6,0.4-1.4,0.8-2.3,0.6l-0.2,0l0,0c-0.2-0.1-0.4-0.2-0.5-0.3l-1.3-7.1l-0.3-2.4C1061.8,173.8,1061.3,173.4,1061.1,172.8z
			"/>
		<path class="st5" d="M1077.7,182.6c0.4,0.3,16.3,10.3,34-5.1l-3.1-11.5l-23.3,1.5l-9.7,3.5
			C1075.6,171.1,1077.6,177.1,1077.7,182.6C1077.7,182.6,1077.7,182.6,1077.7,182.6z"/>
		<polygon class="st6" points="1108.6,166 1108.9,167.2 1093.2,176.7 1077,173.6 1076.6,172.4 1092.8,174.7 		"/>
		<path class="st6" d="M1075.6,171.1l9.7-3.5l0.3,0l-9.3,3.4c0,0,1.9,6,2,11.5c0,0,4,6.6,17.6,3.9c-14.1,3.1-18.3-3.7-18.3-3.7
			C1077.5,177.1,1075.6,171.1,1075.6,171.1z"/>
		
			<rect x="1062" y="168" transform="matrix(0.9782 -0.2078 0.2078 0.9782 -12.1093 224.5171)" class="st7" width="0.8" height="3.8"/>
		
			<rect x="1062" y="168" transform="matrix(0.9782 -0.2078 0.2078 0.9782 -12.1093 224.5171)" class="st8" width="0.8" height="3.8"/>
		<path class="st7" d="M1068.8,181.7c0,0-2,2.6-4,1.3l-1.3-7l1.1-0.9L1068.8,181.7z"/>
		<path class="st5" d="M1068.8,181.7c0,0-2,2.6-4,1.3l-1.3-7l1.1-0.9L1068.8,181.7z"/>
		<polygon class="st7" points="1121.1,156.6 1121.4,158 1093.1,176.1 1062.8,169.6 1062.7,168.3 1093,174.7 		"/>
		<polygon class="st9" points="1121.1,156.6 1121.4,158 1093.1,176.1 1062.8,169.6 1062.7,168.3 1093,174.7 		"/>
		<polygon class="st5" points="1121.1,156.6 1092.9,175 1062.7,168.3 1090.4,154.6 		"/>
		
			<ellipse transform="matrix(0.9782 -0.2078 0.2078 0.9782 -9.7793 230.3465)" class="st7" cx="1091.3" cy="161.7" rx="2.1" ry="1.3"/>
		
			<ellipse transform="matrix(0.9782 -0.2078 0.2078 0.9782 -9.7793 230.3465)" class="st8" cx="1091.3" cy="161.7" rx="2.1" ry="1.3"/>
		
			<rect x="1061.4" y="165.1" transform="matrix(0.9782 -0.2078 0.2078 0.9782 -10.8878 227.2109)" class="st7" width="28.9" height="0.6"/>
		
			<rect x="1061.4" y="165.1" transform="matrix(0.9782 -0.2078 0.2078 0.9782 -10.8878 227.2109)" class="st8" width="28.9" height="0.6"/>
		<circle class="st7" cx="1063.2" cy="172.5" r="1.2"/>
		<circle class="st8" cx="1063.2" cy="172.5" r="1.2"/>
		<path class="st7" d="M1065.3,175.4c0,0-0.3,0.7-1.8,0.6l-0.4-2.7l0.6-0.1L1065.3,175.4z"/>
		<path class="st8" d="M1065.3,175.4c0,0-0.3,0.7-1.8,0.6l-0.4-2.7l0.6-0.1L1065.3,175.4z"/>
		<polygon class="st10" points="1068.2,182.3 1067.2,181.4 1067.7,182.8 		"/>
		<polygon class="st10" points="1065.9,182.1 1066.1,183.3 1065.3,183.3 		"/>
		<path class="st6" d="M1106.9,174c0,0-5.7,3.3-9.6,2.9L1106.9,174z"/>
		<path class="st6" d="M1090.6,179c0,0-6.3,1.8-10,0.3L1090.6,179z"/>
		<path class="st6" d="M1087.2,184.8c0,0-4-0.6-6.3-1.7L1087.2,184.8z"/>
		<path class="st6" d="M1109.2,176.7c0,0-6,4-7.8,3.4L1109.2,176.7z"/>
	</g>
	<g>
		<g>
			<path class="st5" d="M0.3,328.5l8.9,1c0.1,0,0.2,0.1,0.2,0.3S9.4,330,9.2,330c0,0,0,0,0,0L0.3,328.5z"/>
			<path class="st5" d="M26.3,331.2l17.1,1.1l0,0c0.5,0,0.9,0.5,0.8,1c0,0.5-0.5,0.9-1,0.8c0,0,0,0,0,0l-17.1-1.8
				c-0.3,0-0.5-0.3-0.5-0.6C25.7,331.4,26,331.2,26.3,331.2L26.3,331.2z"/>
			<path class="st5" d="M60.5,333l17.1,0.1l0,0c0.8,0,1.4,0.6,1.4,1.4s-0.6,1.4-1.4,1.4c0,0,0,0,0,0l-17.2-0.6
				c-0.6,0-1.1-0.6-1.1-1.2C59.4,333.5,59.9,333,60.5,333L60.5,333z"/>
			<path class="st5" d="M94.8,332.8l17.1-0.9l0.1,0c0.9,0,1.7,0.7,1.8,1.6c0,0.9-0.7,1.7-1.6,1.8c0,0,0,0,0,0l-17.2,0.6
				c-0.9,0-1.6-0.6-1.6-1.5C93.2,333.5,93.9,332.8,94.8,332.8L94.8,332.8z"/>
			<path class="st5" d="M128.9,330.6l17-1.9l0.1,0c1.1-0.1,2,0.6,2.1,1.7c0.1,1.1-0.6,2-1.7,2.1c0,0,0,0,0,0l-17.1,1.7
				c-1,0.1-1.9-0.6-2-1.6C127.1,331.6,127.8,330.7,128.9,330.6L128.9,330.6z"/>
			<path class="st5" d="M162.8,326.4l16.9-2.8l0.1,0c1.1-0.2,2.1,0.5,2.3,1.6c0.2,1.1-0.5,2.1-1.6,2.3l0,0l-17,2.8
				c-1.1,0.2-2.1-0.5-2.2-1.6C161,327.6,161.7,326.6,162.8,326.4L162.8,326.4z"/>
			<path class="st5" d="M196.4,320.2l16.7-3.8l0.1,0c1-0.2,2.1,0.4,2.3,1.5c0.2,1-0.4,2.1-1.5,2.3l-16.8,3.9
				c-1.1,0.2-2.1-0.4-2.4-1.5C194.6,321.5,195.3,320.5,196.4,320.2L196.4,320.2L196.4,320.2z"/>
			<path class="st5" d="M229.6,312l16.4-4.8l0.1,0c1-0.3,2,0.3,2.3,1.2c0.3,1-0.3,2-1.2,2.2l-16.5,5c-1,0.3-2.1-0.3-2.4-1.3
				C227.9,313.4,228.5,312.4,229.6,312C229.5,312.1,229.5,312.1,229.6,312L229.6,312z"/>
			<path class="st5" d="M262.2,301.9l16.2-5.6c0.8-0.3,1.7,0.1,2,1c0.3,0.8-0.1,1.7-0.9,2l0,0l-16.1,5.9c-0.9,0.3-1.9-0.1-2.2-1
				C260.9,303.2,261.3,302.3,262.2,301.9C262.2,301.9,262.2,301.9,262.2,301.9L262.2,301.9z"/>
			<path class="st5" d="M294.8,291l16.5-4.9c0.6-0.2,1.3,0.2,1.5,0.8c0.2,0.6-0.2,1.2-0.8,1.4l0,0l-16.3,5.3l0,0
				c-0.7,0.2-1.5-0.2-1.8-0.9C293.6,292,294,291.2,294.8,291C294.8,291,294.8,291,294.8,291z"/>
			<path class="st5" d="M327.8,281.5l16.7-4.1c0.3-0.1,0.6,0.1,0.7,0.4c0.1,0.3-0.1,0.6-0.4,0.7l0,0l-16.5,4.7l0,0
				c-0.5,0.1-1-0.1-1.1-0.6S327.3,281.7,327.8,281.5C327.8,281.5,327.8,281.5,327.8,281.5z"/>
			<path class="st5" d="M361.2,273.6l8.8-1.8l-8.7,2.2c-0.1,0-0.2,0-0.3-0.2C361,273.8,361.1,273.7,361.2,273.6
				C361.2,273.6,361.2,273.6,361.2,273.6z"/>
		</g>
	</g>
	<g>
		<path class="st5" d="M19.1,286.8c13.8,1.6,27.7,3.2,41.5,4.1c13.9,1.1,27.7,1.9,41.6,2.2c6.9,0.3,13.9,0.3,20.8,0.4
			c3.5,0.1,6.9,0,10.4,0c3.5,0,6.9,0,10.4-0.2c13.9-0.2,27.8-1,41.6-1.9c13.8-1.1,27.7-2.3,41.4-4.1c3.5-0.4,6.9-0.9,10.3-1.4
			c3.4-0.5,6.9-0.9,10.3-1.5l20.6-3.4c13.8-2.2,27.6-4.1,41.4-5.6c13.9-1.5,27.7-2.8,41.6-3.6c-3.5,0.4-6.9,0.8-10.4,1.3l-10.4,1.3
			c-6.9,0.9-13.8,1.9-20.7,2.9c-13.8,2-27.5,4.3-41.2,6.8l-10.3,1.9l-10.3,1.8c-3.4,0.6-6.9,1.1-10.3,1.7c-3.5,0.5-6.9,1.1-10.4,1.5
			l-10.4,1.3c-3.5,0.4-6.9,0.8-10.4,1.1l-5.2,0.6l-5.2,0.5l-10.4,0.9l-10.5,0.6c-1.7,0.1-3.5,0.2-5.2,0.3l-5.2,0.2
			c-3.5,0.1-7,0.3-10.5,0.4l-10.5,0.2c-14,0.1-27.9-0.1-41.9-0.8c-7-0.3-13.9-0.8-20.9-1.3c-3.5-0.3-6.9-0.6-10.4-1
			c-3.5-0.3-6.9-0.6-10.4-1.1l-10.4-1.3c-3.5-0.5-6.9-1-10.4-1.5C32.8,289.3,25.9,288,19.1,286.8z"/>
	</g>
	<g>
		<g>
			<path class="st5" d="M976.4,237.2l9,0.2c0.1,0,0.1,0.1,0.1,0.1c0,0.1-0.1,0.1-0.1,0.1c0,0,0,0,0,0L976.4,237.2z"/>
			<path class="st5" d="M1003.6,237.5c6.1-0.1,12.1-0.2,18.2-0.6c0.3,0,0.5,0.2,0.5,0.5c0,0.3-0.2,0.5-0.5,0.5c0,0,0,0,0,0
				c-6.1,0.2-12.2,0.3-18.2,0.2c-0.2,0-0.3-0.2-0.3-0.3C1003.3,237.6,1003.4,237.5,1003.6,237.5z"/>
			<path class="st5" d="M1039.9,235.5c6-0.7,12-1.5,18-2.6c0.5-0.1,0.9,0.2,1,0.7s-0.2,0.9-0.7,1c0,0,0,0,0,0
				c-6,1-12.1,1.7-18.1,2.3c-0.4,0-0.7-0.2-0.7-0.6C1039.3,235.8,1039.5,235.5,1039.9,235.5z"/>
			<path class="st5" d="M1075.6,228.9c5.8-1.5,11.6-3.3,17.3-5.4c0.6-0.2,1.2,0.1,1.4,0.7c0.2,0.6-0.1,1.2-0.7,1.4c0,0,0,0,0,0
				c-5.8,2-11.6,3.8-17.5,5.3c-0.5,0.1-1.1-0.2-1.2-0.7C1074.7,229.6,1075,229.1,1075.6,228.9z"/>
			<path class="st5" d="M1109.5,216.4c5.4-2.6,10.7-5.6,15.7-8.8c0.6-0.4,1.4-0.2,1.8,0.4s0.2,1.4-0.4,1.8c0,0,0,0,0,0
				c-5.2,3.3-10.6,6.2-16.1,8.8c-0.6,0.3-1.3,0-1.6-0.6C1108.6,217.5,1108.9,216.7,1109.5,216.4z"/>
			<path class="st5" d="M1139.7,196.9c4.6-3.9,8.9-8,12.8-12.6c0.6-0.6,1.5-0.7,2.2-0.2c0.6,0.6,0.7,1.5,0.2,2.2c0,0,0,0,0,0
				c-4.1,4.6-8.6,8.8-13.3,12.7c-0.6,0.5-1.5,0.4-2-0.2C1139,198.3,1139.1,197.4,1139.7,196.9L1139.7,196.9z"/>
			<path class="st5" d="M1162.5,169.6c2.6-5.3,4.5-10.9,5-16.7c0.1-0.9,0.9-1.6,1.9-1.6c0.9,0.1,1.6,0.9,1.6,1.9l0,0
				c-0.6,6.3-2.6,12.4-5.5,17.9c-0.4,0.8-1.4,1.1-2.2,0.7C1162.4,171.4,1162.1,170.4,1162.5,169.6z"/>
			<path class="st5" d="M1165.6,135.5c-1.6-5.7-4-11.2-6.9-16.3c-0.5-0.8-0.2-1.9,0.6-2.4c0.8-0.5,1.9-0.2,2.4,0.6l0,0
				c3.1,5.4,5.6,11.1,7.2,17.1c0.3,0.9-0.3,1.9-1.2,2.1C1166.8,137,1165.8,136.4,1165.6,135.5z"/>
			<path class="st5" d="M1148.1,104.9c-4-4.4-8.5-8.3-13.5-11.5c-0.9-0.6-1.1-1.7-0.5-2.5c0.6-0.9,1.7-1.1,2.5-0.5l0,0
				c5.2,3.4,9.9,7.6,14.1,12.1c0.7,0.7,0.6,1.9-0.1,2.6S1148.8,105.6,1148.1,104.9z"/>
			<path class="st5" d="M1118.7,85.9c-5.7-1.7-11.5-2.7-17.5-3.2c-1.1-0.1-1.8-1-1.8-2c0.1-1.1,1-1.8,2-1.8l0,0
				c6.2,0.5,12.3,1.5,18.3,3.4c1,0.3,1.5,1.4,1.2,2.3C1120.7,85.7,1119.6,86.2,1118.7,85.9z"/>
			<path class="st5" d="M1083.4,83.3c-5.9,0.8-11.7,2.1-17.3,4.1c-1,0.4-2.2-0.2-2.5-1.2c-0.4-1,0.2-2.2,1.2-2.5l0,0
				c5.9-2.1,11.9-3.5,18.1-4.3c1.1-0.1,2,0.6,2.2,1.7S1084.5,83.2,1083.4,83.3z"/>
			<path class="st5" d="M1051,96c-4.5,3.7-8.3,8.3-11.5,13.2c-0.6,0.9-1.8,1.2-2.7,0.6c-0.9-0.6-1.2-1.8-0.6-2.7
				c3.4-5.2,7.4-10.1,12.3-14.2c0.8-0.7,2.1-0.6,2.8,0.2C1051.9,94.1,1051.8,95.3,1051,96L1051,96z"/>
			<path class="st5" d="M1031.4,125.1c-2.2,5.6-3.9,11.3-5.3,17.1c-0.2,1-1.3,1.6-2.3,1.4c-1-0.2-1.6-1.3-1.4-2.3
				c1.4-6,3.2-11.9,5.4-17.6c0.4-1,1.5-1.5,2.5-1.1C1031.3,123,1031.8,124.1,1031.4,125.1L1031.4,125.1z"/>
			<path class="st5" d="M1022.7,160c-0.9,6-1.6,12-2.1,18c-0.1,1-0.9,1.8-1.9,1.7s-1.8-0.9-1.7-1.9c0.4-6.1,1.1-12.2,2-18.2
				c0.1-1,1.1-1.7,2.1-1.6C1022.2,158,1022.9,158.9,1022.7,160L1022.7,160z"/>
			<path class="st5" d="M1020.2,195.9c0.2,6,0.7,12,1.6,17.9c0.2,1-0.5,1.8-1.4,2c-1,0.2-1.8-0.5-2-1.4c-1-6.1-1.6-12.2-1.7-18.3
				c0-1,0.7-1.8,1.7-1.8S1020.1,194.9,1020.2,195.9L1020.2,195.9z"/>
			<path class="st5" d="M1026.1,231.2c1.9,5.7,4.4,11.1,7.2,16.4c0.4,0.8,0.1,1.8-0.7,2.2c-0.8,0.4-1.8,0.1-2.2-0.7
				c-3-5.4-5.5-11-7.5-16.9c-0.3-0.9,0.2-1.9,1.1-2.2C1024.8,229.8,1025.8,230.3,1026.1,231.2L1026.1,231.2z"/>
			<path class="st5" d="M1042.9,262.8c3.5,4.9,7.4,9.5,11.4,14c0.5,0.6,0.5,1.5-0.1,2c-0.6,0.5-1.5,0.5-2-0.1
				c-4.1-4.5-8.1-9.2-11.7-14.1c-0.5-0.7-0.4-1.7,0.3-2.2C1041.4,262,1042.3,262.1,1042.9,262.8
				C1042.9,262.8,1042.9,262.8,1042.9,262.8z"/>
			<path class="st5" d="M1066.8,289.8c4.3,4.2,8.8,8.3,13.3,12.4c0.5,0.5,0.5,1.2,0.1,1.7c-0.5,0.5-1.2,0.5-1.7,0.1
				c-4.6-4-9.1-8.1-13.5-12.3c-0.5-0.5-0.6-1.4,0-1.9C1065.4,289.4,1066.3,289.3,1066.8,289.8
				C1066.8,289.8,1066.8,289.8,1066.8,289.8z"/>
			<path class="st5" d="M1093.7,314.3c2.3,2,4.5,4,6.8,6.1l6.8,6.1c0.4,0.4,0.4,1,0.1,1.4c-0.4,0.4-1,0.4-1.4,0.1l0,0l-6.8-6
				c-2.3-2-4.5-4-6.8-6c-0.5-0.4-0.5-1.1-0.1-1.6C1092.5,314,1093.2,313.9,1093.7,314.3C1093.7,314.3,1093.7,314.3,1093.7,314.3
				L1093.7,314.3z"/>
			<path class="st5" d="M1120.3,339.3c4.2,4.4,8.3,8.9,12.1,13.7c0.2,0.3,0.2,0.7-0.1,1c-0.3,0.2-0.7,0.2-1-0.1
				c-3.9-4.6-8-9.1-12.3-13.3c-0.3-0.3-0.3-0.9,0-1.2C1119.4,339,1119.9,339,1120.3,339.3C1120.2,339.3,1120.3,339.3,1120.3,339.3z"
				/>
			<path class="st5" d="M1143.1,367.8c3.3,5.1,6.2,10.5,8.7,16c0.1,0.2,0,0.4-0.2,0.4c-0.2,0.1-0.4,0-0.4-0.2
				c-2.6-5.5-5.6-10.7-9-15.8c-0.2-0.2-0.1-0.6,0.1-0.7C1142.6,367.5,1143,367.5,1143.1,367.8
				C1143.1,367.8,1143.1,367.8,1143.1,367.8z"/>
			<path class="st5" d="M1157.7,401.1c0.7,2.9,1.2,5.9,1.6,8.9c-0.5-3-1.1-5.9-1.8-8.8c0-0.1,0-0.1,0.1-0.1
				C1157.6,401,1157.7,401,1157.7,401.1C1157.7,401.1,1157.7,401.1,1157.7,401.1z"/>
		</g>
	</g>
	<g>
		<path class="st5" d="M989.7,241.4c6.5,1,13,1.8,19.5,2.5c6.5,0.7,13.1,1.3,19.6,1.7c13.1,0.8,26.2,0.6,39.2-0.9
			c13-1.5,25.8-4.4,37.9-9c12.1-4.6,23.6-11.1,33.5-19.4c4.9-4.2,9.3-9,12.6-14.4c3.3-5.4,5.4-11.5,5.5-17.7
			c0.2-6.2-1.7-12.4-4.7-17.9c-3-5.6-7.2-10.5-11.8-15c-2.3-2.2-4.8-4.3-7.3-6.3c-2.5-2-5.2-3.9-7.8-5.6c-5.4-3.4-11.3-5.8-17.5-7.4
			c-6.2-1.5-12.6-2.1-19-1.7c-6.3,0.4-12.7,1.6-18.6,3.8c-5.9,2.2-11.3,5.7-15.7,10.2c-4.5,4.4-8.1,9.8-10.9,15.5
			c-2.9,5.7-5.1,11.8-6.9,18c-1.8,6.3-3.4,12.6-4.6,19c-1.3,6.4-2.1,12.8-2.5,19.3c-0.2,3.2-0.2,6.5-0.1,9.7
			c0.2,3.2,0.4,6.4,0.8,9.6c1.7,12.8,6.6,25,13.1,36.2c6.6,11.2,14.7,21.5,23.3,31.4c8.5,9.9,17.6,19.5,25.9,29.7
			c8.3,10.2,16,21,21.9,32.8c2.9,5.9,5.4,12.1,7.1,18.4c1.7,6.4,2.6,12.9,2.7,19.5c-0.6-13.2-4.7-25.9-10.8-37.4
			c-6.1-11.6-14-22.1-22.5-32.1c-8.4-10-17.6-19.4-26.3-29.3c-8.7-9.8-17.1-20.1-24-31.5c-6.9-11.3-12.1-23.9-14-37.2
			c-0.5-3.3-0.8-6.6-0.9-10c-0.1-3.3-0.1-6.7,0.1-10c0.3-6.7,1.2-13.3,2.4-19.8c1.2-6.5,2.8-13,4.6-19.3c1.8-6.4,4.1-12.7,7.1-18.7
			c3-6,6.8-11.7,11.6-16.6c4.8-4.8,10.7-8.7,17.1-11.1c6.4-2.4,13.1-3.7,19.8-4.1c6.7-0.4,13.5,0.3,20.1,1.9
			c6.6,1.6,12.9,4.3,18.6,7.9c5.7,3.7,10.9,7.8,15.7,12.5c4.8,4.7,9.1,9.9,12.3,16c3.2,6,5.2,12.8,5,19.7
			c-0.1,6.9-2.5,13.7-6.2,19.4c-3.6,5.8-8.3,10.7-13.4,15c-10.3,8.5-22.1,14.9-34.6,19.5c-12.4,4.6-25.5,7.3-38.6,8.6
			c-13.1,1.2-26.4,1.1-39.5,0c-6.6-0.5-13.1-1.3-19.6-2.2C1002.6,243.6,996.1,242.6,989.7,241.4z"/>
	</g>
	<g>
		<g>
			<path class="st5" d="M1074.4,526.5l-7.6,4.9c-0.1,0.1-0.2,0-0.3-0.1s0-0.2,0.1-0.3c0,0,0,0,0,0l0,0L1074.4,526.5z"/>
			<path class="st5" d="M1051.2,540.2c-5.3,2.7-10.8,5.3-16.3,7.7c-0.4,0.2-0.8,0-1-0.4s0-0.8,0.4-1c0,0,0,0,0,0
				c5.6-2.2,11-4.6,16.4-7.2c0.2-0.1,0.5,0,0.7,0.2C1051.5,539.8,1051.4,540.1,1051.2,540.2z"/>
			<path class="st5" d="M1018.1,554.5l-17.2,5.6c-0.6,0.2-1.3-0.1-1.5-0.8c-0.2-0.6,0.1-1.3,0.8-1.5c0,0,0,0,0,0l0.1,0l17.1-5.2
				l0.1,0c0.5-0.2,1.1,0.1,1.3,0.7C1018.9,553.8,1018.6,554.3,1018.1,554.5z"/>
			<path class="st5" d="M983.6,564.8l-17.6,3.9c-0.8,0.2-1.6-0.3-1.8-1.2c-0.2-0.8,0.3-1.6,1.2-1.8c0,0,0,0,0,0l0.1,0l17.6-3.5
				l0.1,0c0.7-0.1,1.5,0.3,1.6,1.1C984.7,563.9,984.3,564.6,983.6,564.8z"/>
			<path class="st5" d="M948.2,571.8l-17.9,2.5c-1,0.1-1.9-0.5-2-1.5s0.5-1.9,1.5-2l0,0l0.1,0l17.8-2.3l0.1,0
				c0.9-0.1,1.8,0.5,1.9,1.5C949.8,570.9,949.1,571.7,948.2,571.8z"/>
			<path class="st5" d="M912.4,576.3l-18,1.5c-1.1,0.1-2-0.7-2.1-1.8s0.7-2,1.8-2.1l0,0l0,0l17.9-1.3l0,0c1-0.1,1.9,0.7,2,1.7
				C914.2,575.3,913.4,576.2,912.4,576.3z"/>
			<path class="st5" d="M876.5,578.8l-18,0.8c-1.1,0-2-0.8-2.1-1.9c0-1.1,0.8-2,1.9-2.1l0,0l0,0l17.9-0.7l0,0c1.1,0,2,0.8,2,1.9
				C878.4,577.8,877.5,578.8,876.5,578.8z"/>
			<path class="st5" d="M840.5,580.1l-18,0.4c-1.1,0-2-0.8-2-1.9c0-1.1,0.8-2,1.9-2l18-0.4l0,0c1.1,0,2,0.8,2,1.9
				C842.5,579.1,841.6,580,840.5,580.1L840.5,580.1z"/>
			<path class="st5" d="M804.6,580.8l-18,0.4l0,0c-1,0-1.9-0.8-1.9-1.8c0-1,0.8-1.9,1.8-1.9l18-0.5c1.1,0,2,0.8,2,1.9
				C806.5,579.9,805.6,580.8,804.6,580.8L804.6,580.8L804.6,580.8z"/>
			<path class="st5" d="M768.6,581.7l-17.9,0.8l0,0c-0.9,0-1.7-0.7-1.8-1.6c0-0.9,0.7-1.7,1.6-1.8l18-0.9c1-0.1,1.8,0.7,1.9,1.7
				C770.4,580.8,769.7,581.7,768.6,581.7L768.6,581.7L768.6,581.7z"/>
			<path class="st5" d="M732.8,583.5l-17.9,1.4l0,0c-0.8,0.1-1.4-0.5-1.5-1.3c-0.1-0.7,0.5-1.4,1.2-1.5l17.9-1.8
				c0.8-0.1,1.6,0.5,1.7,1.4C734.3,582.7,733.7,583.4,732.8,583.5C732.9,583.5,732.9,583.5,732.8,583.5L732.8,583.5z"/>
			<path class="st5" d="M697.1,586.8l-17.8,2.5l0,0c-0.6,0.1-1.1-0.3-1.2-0.9c-0.1-0.6,0.3-1.1,0.9-1.2l17.8-2.9
				c0.7-0.1,1.3,0.3,1.4,1C698.3,586.1,697.8,586.7,697.1,586.8C697.1,586.8,697.1,586.8,697.1,586.8L697.1,586.8z"/>
			<path class="st5" d="M661.7,592.5l-17.5,3.9l0,0c-0.3,0.1-0.5-0.1-0.6-0.4c-0.1-0.3,0.1-0.5,0.4-0.6l17.4-4.4
				c0.4-0.1,0.8,0.1,0.9,0.6C662.4,592,662.1,592.4,661.7,592.5C661.7,592.5,661.7,592.5,661.7,592.5L661.7,592.5z"/>
			<path class="st5" d="M626.8,601.1l-8.6,2.7l8.5-3c0.1,0,0.2,0,0.2,0.1C627,601,626.9,601.1,626.8,601.1
				C626.8,601.1,626.8,601.1,626.8,601.1L626.8,601.1z"/>
		</g>
	</g>
	<g>
		<path class="st5" d="M1076.2,507.1c-14.6,11-30.6,19.9-47.3,27.2c-16.8,7.2-34.3,12.7-52.1,16.9c-17.8,4.2-35.9,7-54,9
			c-18.2,2-36.4,3.1-54.6,3.9c-18.2,0.7-36.4,1.2-54.6,1.9c-18.2,0.6-36.3,1.6-54.4,3.1c-18.1,1.6-36.1,3.9-53.9,7.4l-13.3,2.9
			l-13.2,3.4l-13.1,3.9l-12.9,4.5c16.7-7.2,34.3-12.5,52.1-16.6c17.8-4,35.9-6.7,54-8.6c18.1-1.9,36.4-2.9,54.6-3.8l54.6-2.1
			c18.2-0.7,36.3-1.8,54.4-3.7c18.1-1.8,36-4.5,53.8-8.3c17.7-3.8,35.2-8.9,52-15.6l12.5-5.4l12.2-6l11.9-6.7L1076.2,507.1z"/>
	</g>
</g>
<g id="Calque_2">
</g>
</svg>
