<?xml version="1.0" encoding="utf-8"?>
<!-- Generator: Adobe Illustrator 25.1.0, SVG Export Plug-In . SVG Version: 6.00 Build 0)  -->
<svg version="1.1" id="Calque_1" xmlns="http://www.w3.org/2000/svg" xmlns:xlink="http://www.w3.org/1999/xlink" x="0px" y="0px"
	 viewBox="0 0 1280 640" style="enable-background:new 0 0 1280 640;" xml:space="preserve">
<style type="text/css">
	.st0{fill:#5CB77E;}
	.st1{opacity:0.3;}
	.st2{fill-rule:evenodd;clip-rule:evenodd;fill:#FFFFFF;}
	.st3{fill-rule:evenodd;clip-rule:evenodd;fill:#5CB77E;}
</style>
<g>
	<g>
		<rect id="rect-2_1_" y="0" class="st0" width="1280" height="640"/>
	</g>
</g>
<g>
	<g class="st1">
		<path class="st2" d="M163.9,136.9c0.5-0.2,11.7-5.2,22.1-2.8c10.9,2.3,27.4,22.5,26.6,36c-0.4,3.9-2,7.4-4.5,9.7
			c-4.1,3.6-9.7,3.7-11.5,3.5c-3,1.9-7,3.1-10.4,3.9c-3.8,0.7-7,0.9-8.7,1c-0.4,0-0.7,0.1-0.9,0.1c-2,0.7-15.9,4.4-25.7-6.1
			c-4.3-4.9-3.8-14.1,2.2-27.2c4.3-9.4,9.6-17.3,10.1-17.6l0.2-0.5L163.9,136.9L163.9,136.9z M206.1,177.4c2-1.8,3.1-4.2,3.3-7.5
			c0.8-12.6-15.2-30.7-24.1-33c-8.1-1.8-17.5,1.5-19.6,2.4c-6.2,9.2-19.5,32.8-12.3,40.6c8.2,9.1,20.9,5.7,22.4,5.3
			c0.1,0,0.2,0,0.2,0l0.5,0l0.1,0c1.4,0,12.1-0.2,18.8-4.7l0.5-0.2l0.5,0C196.3,180.1,202.2,180.8,206.1,177.4z"/>
		<path class="st2" d="M187.4,165.5c-0.2,0.2-0.5,0.5-0.7,0.6c-1.5,1-3.4,1.7-5.2,1.9c-1.9,0.2-3.2-0.2-4.5-1.5
			c-0.5-0.5-0.8-0.8-1.3-1.5l0.5,0c1.2-0.3,2.1-0.4,3.1-0.8c1.2-0.3,2.3-0.4,3.1-0.8c0.7-0.3,1.1-0.8,0.8-1.7
			c-0.2-0.5-0.8-0.6-1.3-0.6c-2.3,0.4-4.8,0.9-7.1,1.5l-0.2,0c-0.1-0.7-0.3-1.2-0.4-1.9c0.9-0.1,1.9-0.4,2.8-0.4
			c2.1-0.4,3.8-0.8,5.9-1.2c0.7-0.1,1.1-0.8,1.1-1.5c-0.1-0.7-0.8-0.8-1.5-0.8c-2.6,0.4-5.2,1.2-7.8,1.6l-0.2,0
			c0.1-0.9,0.3-1.9,1-2.6c1.1-1.5,2.4-2.3,4-2.7c1.9-0.4,3.5-0.3,5.3-0.3c0.9,0.1,1.9-0.4,2-1.4c0.1-0.9-0.2-1.9-1.6-2.2
			c-2.7-0.7-5.4-0.4-8.1,0.5c-2.2,0.9-4,2.3-5.2,4.4c-0.8,1.5-1.3,3.1-1.2,5c0,0.2-0.2,0.5-0.5,0.5c-0.5,0-1.2,0.3-1.6,0.3
			c-0.7,0.1-0.8,0.8-0.8,1.5c0.3,0.7,0.8,0.8,1.5,0.8c0.5,0,0.9-0.1,1.4-0.3c0.1,0.7,0.3,1.4,0.4,2.1c-0.5,0-1.2,0.3-1.6,0.3
			s-0.7,0.3-0.6,0.8c-0.7,0.3-0.1,0.9,0.8,0.8c0.5,0,0.9-0.1,1.6-0.3c0.2,0,0.2,0,0.5,0.2l0.8,1.3c1.9,2.8,4.3,4.5,7.6,4.7
			c2.6,0.3,4.9-0.4,7.1-1.5c0.9-0.6,1.8-1.1,2.5-1.8c0.8-1,0.7-2.4-0.3-3.2C188.9,165,188,165,187.4,165.5L187.4,165.5z"/>
		<path class="st2" d="M163,137.4l-1.3,1l-1-1.5c-7.1-8.7-5.3-12.3-4.4-13.4c2.3-2.2,4.8-1.2,6.8-0.5l0.2,0.1
			c0.5,0.2,1.5,0.6,1.7,0.6c0.2-0.5,0.8-1.5,1.4-2.2c2.3-3.7,5.7-9.3,10.3-7.1c3.7,1.6,6.1,3.7,7.7,5.3c0.6-1,1.2-2.2,2.4-2.5
			c0.9-0.3,2.1,0,3.1,0.6c3,1.8,4.2,5.3,3.7,7.3c-0.1,1.2-0.8,1.7-1.2,2c-0.4,0.7-1.2,2.9-1.7,5.1l-0.4,1.4l-1.4-0.1
			c0,0-0.1,0-0.3-0.1C185.9,133.3,169.7,131.7,163,137.4z M168.9,123.2c0.2-0.2,0.3-0.4,0.4-0.7c1.7-2.6,4-6.1,5.8-5.2
			c3.9,1.8,6.2,3.9,7.5,5.4l-0.6,6l-14.1,1.2l-0.8-3.6C167.5,125.5,168.2,124.7,168.9,123.2z M187.9,120.7c0-0.2-0.2-0.2-0.2-0.2
			c-0.2,0.2-0.4,0.9-0.6,1.5c-0.1,0.7-0.6,1.5-1.2,2l-0.7,6.1c0.9,0.1,1.9,0,2.6,0.3c1.1-3.8,1.9-5.1,2.5-5.5
			C190.2,123.7,189.8,121.8,187.9,120.7z M161.8,126.2c-1.7-0.6-2.7-0.7-3-0.2c-0.5,0.2,0.3,3.5,3.5,7.8c0.9-0.6,1.8-1.1,2.9-1.5
			l-1.2-5.5C163.2,126.8,162.5,126.6,161.8,126.2z"/>
	</g>
</g>
<path class="st2" d="M291.2,193.2c0,0,0.6-19.9,30.2-37.5c21.3-12.6,31.2-21,31.2-21c14.5-13.2,30.8-25.6,50.3-30.4
	c24.6-6.2,50.5,0.3,75.2,6.3c63.3,15.3,131,26.7,193,7.3c46.3-14.5,71-26.9,119.3-20.7c15.8,2,68,13.9,82.7,19.9
	c35.5,14.5,55,6.2,73.5,38.5c16.5,28.8,2.4,63.6,13.2,94.7c11.7,33.8,32,61.4,25.8,96.5c-5.7,32.1-18.6,56.7-45.7,76.7
	c-26,19.1-39.1,7.4-60.3,31.3c-13.7,15.5-29.5,40.3-48.8,48.8c-14.3,6.3-36.1,7.6-51.8,7.1c-29.8-0.8-44.3-1.5-72.3-11.4
	c-35.2-12.4-68.5-22.9-103.1-28.8c-36.9-6.2-89.8-19-125.9-9.5c-12.7,3.4-24.8,9-37.7,11.7c-39.3,8.4-83.4-13.8-98.1-49.6
	c-17-41.4,3.5-89.3-9.5-132c-5.5-18-9.6-18.5-17.2-35.8c-3.3-7.5-8.6-20.1-16.8-31.2C293.7,217.9,289,201.3,291.2,193.2"/>
<g>
	<g class="st1">
		<path class="st2" d="M1128.5,242.8c1.4-0.9,3.1-2.1,4.6-2.7c3.8-2.1,8-3.7,12.2-5.4c3.4-1.3,6.9-2.6,10.3-3.4"/>
		<path class="st2" d="M1156.2,230.9c3.2-1.1,6.4-2.4,9.6-3.4c0.8-0.4,1.5-0.4,2,0.1c-2.3,2-11.7,4.8-14.4,6.1
			c-10.3,4.2-16.7,6.8-20.5,8.6l-4.3,0.4"/>
		<g>
			<path class="st3" d="M1152.4,238.9c-0.6-3.3-0.9-6.7-1.4-10c6.2-1.5,11.5-1.8,17.8-2.9c5.5-1,12.5-2.1,18.5-2.6
				c2.7,13.2,3.7,27.1,5.6,40.7c0.7,5.1,1.7,10,2.1,15.1c0,0.3,0.1,0.8-0.2,1c-0.3,0.2-0.5,0.5-0.9,0.9c-5,1.4-8,1.5-11.3,2"/>
			<path class="st2" d="M1154.1,238.5c-0.5-3.1-0.7-6-1.2-9c5.5-1,11.1-1.6,16.4-2.4c5.5-1,10.9-1.7,16.4-2.2
				c1.7,9,2.8,18.3,3.8,27.6c0.7,4.6,1.1,9,1.7,13.8c0.5,2.3,0.7,4.8,1.1,7l0.4,5.1c0,0.5-0.2,1.3,0.2,1.8l0,0
				c-0.3,0.1-0.6,0.3-0.8,0.3c-0.5,0-1,0.4-1.5,0.4c-1,0.1-2,0.5-3,0.6c-1.8,0.2-3.5,0.3-5.3,0.8c-0.8,0.1-1.7,0.7-1.9,1.5
				c0.1,0.8,1.1,0.9,1.6,0.9c3.8-0.6,7.5-1,11-2c1-0.4,2.2-0.7,2.9-1.8s0.3-2.3,0.2-3.3c-0.2-2.5-0.4-4.8-0.9-7.2
				c-1.4-10-2.6-20.1-3.9-30.1c-0.8-5.8-1.5-11.3-2.8-16.7c0.2-0.8-0.9-0.7-1.4-0.7c-6.1,0.5-11.8,1.5-17.9,2.4
				c-6.2,1-12.5,1.4-18.5,2.9c-0.8,0.1-1.9,0.7-1.9,1.7c0.6,3.5,0.9,6.7,1.4,10.3c0.1,0.8,1.6,0.7,2.1,0.6
				C1153.5,239.8,1154.1,239.2,1154.1,238.5L1154.1,238.5z"/>
		</g>
		<path class="st2" d="M1128.4,243.3c4.9,15.5,10.1,31.6,13.6,45.3c0.4,1.3,0.7,2.7,1.8,3.4c0.5,0.5,1,0.4,1.9,0.6
			c6.7,0.9,13.3-2,20.1-2.3c2-0.2,4.5-0.9,6.5-1.1c3-0.6,5.2-1.3,8.2-1.5c0.8-0.1,1.5,0.2,2.3-0.2c0.8-0.4,1.5-0.6,1.7-1.5
			c0.3-0.5-0.1-1-0.4-1.5c-1.8-6-3-8.4-4.7-15.4c-0.7-2.7-3.3-10.9-4-13.6c-1.5-5.2-3.2-10.2-5.1-15c-0.4-1.3-1-2.7-2.1-3.3
			c-1.4-0.9-2.9-0.8-4.7-0.6c-8,1-17,2.5-24.7,4.2c-3.2,0.8-6,1-9.3,1.6c-0.5,0-1,0.1-1.3,0.6"/>
		<g>
			<path class="st3" d="M1142.8,264.1c-0.5-2.5-0.2-5.3,1.1-7.7c1-2.3,3-4,5.1-5.2c0.1-0.1,0.2-0.1,0.3-0.1c0.5-0.3,1.3-0.4,1.5-0.6
				c1.3-0.4,2.4-0.7,3.8-0.6c1-0.1,1.8,0.3,2.6,0.6c1,0.2,1.9,0.6,2.9,1.1c0.5,0.3,1.4,0.7,1.9,1.3c1.1,0.9,2,1.8,2.6,3.1
				c0.9,1.2,1.2,2.4,1.6,3.7l0.3,3.8c0.1,1-0.1,2-0.5,3.1c-0.4,1.3-1.1,2.4-1.7,3.2c-0.9,1.1-1.8,2.2-3.1,2.8
				c-1.2,0.9-2.4,1.2-3.9,1.3c-1.3,0.1-2.3-0.1-3.5-0.2c-1.3-0.2-2.3-0.3-3.6-0.7c-1-0.4-2.4-1.1-3.5-2c-0.9-0.9-1.7-2.2-2.3-3.1
				C1143.6,266.9,1143.2,265.3,1142.8,264.1z M1154.9,250.8l-1.8,0.2c-0.9,0.1-1.8,0.2-2.7,0.6c0.1,0.2-0.1,0.4-0.3,0.4l-1.4,0.9
				c-1.9,1.2-3.2,3.3-4.1,5.5c-0.8,2.4-0.9,4.9,0.1,7.3c0.4,1,1,2.2,1.8,3.4c0.6,1,1.5,1.7,2.5,2.3c1.9,0.8,3.9,1.5,6.3,1.8
				s4.8-0.7,6.4-2.4c1.7-1.5,3-3.6,3.3-5.6c0.2-1,0.1-2,0-3c-0.1-1.3-0.5-2.5-0.8-3.7c-0.6-1.3-1.2-2.4-2.1-3.3
				c-0.6-0.8-1.1-1.4-2-2.1c-0.5-0.5-1.4-0.9-2.1-1.1c-0.8-0.2-1.9-0.6-2.6-0.8C1155.1,250.8,1155.1,250.8,1154.9,250.8z"/>
			<path class="st3" d="M1150,261.5c-0.3,0.5-0.3,0.3-0.6,2.1c-0.7,1.4,1.7-0.7,3.6-2.1c0.3-0.3,0.5-0.3,1-0.1
				c0.3,0,0.3,0.3,0.5,0.5c0.5,0.5,1.6,0.7,2.3,0.1c0.3-0.3,0.5-0.3,0.8-0.4c0.3,0,0.3,0.3,0.3,0.3l1.4,1.2c1.5-0.4,0.5-3.6,1.6-4.8
				c0.5-0.5,1.3,0.2,1.8-0.5c0.5-0.5,1.1-2.1,0.3-2.5c-1.4-0.7-0.5-1.8-2.8-2.8c-2.6,2.2-4.5,0.9-5.4,3c-0.3,0.5-1.2,1.6-1.3,1.9
				c-0.5,0.3-1.3,0.1-1.5,0.4c-0.5,0.3-0.2,1.3-1.3,2.9C1151,260.6,1150.2,260.9,1150,261.5L1150,261.5z"/>
			<path class="st3" d="M1143.7,259.4c0-0.3,0.3-0.5,0.8-0.6c0.3,0.5,0.6,1.3,1.1,1.4c0.3,0,0.3,0.3,0.3,0.3c0,0.3,0,0.3-0.3,0.5
				c-0.4,0.8-0.3,1.8,0.2,2.5c0.6,0.7,1.1,1.4,1.7,1.9c-0.4,0.8-0.7,1.6-0.6,2.6c0.1,1,0.5,1.8,1,2.4c-1.4-0.7-3-1.7-3.3-3.2
				c-0.7-2.2-1.4-1.4-1.6-3.7c0-0.3,0.2-3.3,0.2-3.5C1143,260,1143.5,259.2,1143.7,259.4"/>
			<path class="st3" d="M1151,260.8c0.3,0.5-0.2,1.3-0.6,1.9l-0.7,0.9c0.8,0.4,1.5,0.2,2.3,0.3c0.8-0.1,1.5,0.2,1.9,0.8
				c0,0.3,0,0.5,0.4,1c0.3,0.5,0.3,0.5,0.6,0.8l0.5,0c1.5-0.1,3.1,0.5,4.1,1.1c1,0.4,0.8-0.1,1-0.6c0.3-0.3-0.1-1.3,0.2-1.5
				c0.3,0,0.2-0.8-0.4-0.8c-1-0.4-1.5-0.4-2.1-1.6c0-0.3-0.3-0.5-0.3-0.5c-0.3-0.3-0.8,0.1-1.3-0.2c-0.8-0.2-0.9-1.2-1.5-1.7
				l-0.3-0.3l-1,0.1c-1,0.3-0.8-0.4-1.5,0.1c-0.1-0.1-0.8-0.1-0.8,0.1C1151.5,260.8,1151.5,261.1,1151,260.8"/>
		</g>
		<path class="st2" d="M1156.1,230.2l1.8,2.9l0.9,1.4c0.3,0.3,0.3,0.5,0.6,0.8c0.2,0.3,0.8,0.4,1.1,0.7c0.3,0,0.3,0,0.3-0.3
			c0-0.3,0.3-0.5,0.2-0.8c0.3-0.5,0.4-1,0.7-1.4c0.4-1,0.6-2.1,0.8-2.9c0-0.3-0.5-0.5-0.5-0.5l-0.8-0.4c-0.2,1-0.3,1.8-0.8,2.9
			c-0.3,0.5-0.4,0.8-0.4,1.3c0,0.1,0,0.2-0.1,0.2c-0.1-0.2-0.3-0.4-0.5-0.7c-0.6-0.8-0.9-1.4-1.5-2.4l-0.9-0.7
			C1156.6,230.2,1156.4,230.2,1156.1,230.2C1156.4,229.9,1156.1,229.9,1156.1,230.2L1156.1,230.2z"/>
		<path class="st2" d="M1165,229.7C1165,229.7,1165.2,229.9,1165,229.7C1165.2,229.9,1165.2,229.9,1165,229.7l0.1,0.8
			c0,0.3,0,0.5,0.4,1l0.2,1.8c0,0.5,0.4,0.8,0.6,1c0.3,0.3,0.8,0.2,0.8-0.4c-0.1-1.5-0.5-2.8-0.9-4.2c0-0.3-0.6-0.8-0.9-0.7
			S1165,229.5,1165,229.7z"/>
		<path class="st2" d="M1170.4,228.2l1.3-0.1c0.5,0,0.8,0.2,0.8,0.2c0.3,0.3,0.3,0.5,0.1,1c-0.3,0,0,0.3,0,0.3l-1.5,0.1
			c-0.2,0-0.7,0.1-0.8,0.5c-0.2-0.2-0.4-0.5-0.6-0.7c-0.3-0.3-0.4-0.8-0.1-1C1169.7,228.2,1170.2,228.2,1170.4,228.2z M1170.2,230.1
			c-0.1,0-0.2-0.1-0.3-0.1C1170,230,1170.1,230.1,1170.2,230.1z M1170.3,230.2c-0.1,0-0.1-0.1-0.1-0.1
			C1170.2,230.2,1170.3,230.2,1170.3,230.2z M1170.5,230.2C1170.4,230.2,1170.4,230.2,1170.5,230.2
			C1170.4,230.2,1170.4,230.2,1170.5,230.2C1170.4,230.2,1170.4,230.2,1170.5,230.2C1170.3,230.2,1170.4,230.3,1170.5,230.2
			l-0.1,0.3C1170.6,230.7,1170.8,230.6,1170.5,230.2L1170.5,230.2L1170.5,230.2z M1170.5,230.2c0.2,0.2,0.5,0.4,0.7,0.4
			c0.6,0.3,1.2,0.4,1.8,0.4l0,0.4c0,0.3-0.3,0.5-0.4,0.8c-0.8,0.6-1.8,0.5-2.5,0.2c0,0.3,0.3,0.3,0.3,0.5l0.5,0.5l0.3,0.3
			c0.8,0.2,1.5,0.2,2.3-0.2c0.5-0.3,0.9-0.9,0.7-1.4c-0.2-0.4-0.7-0.7-1-1c0.1,0,0.2,0.1,0.4,0.1l-0.5-0.5l0,0.3
			c-0.3-0.3-0.8-0.4-1.4-0.7C1171.4,230.1,1170.9,230.1,1170.5,230.2z"/>
		<g>
			<path class="st2" d="M1178.7,232.6c0.2-0.8,0.4-1.5,0.3-2.3c0-0.5-0.1-0.8,0.2-1.3c0-0.1,0-0.2,0-0.3c0.1,0.3,0.2,0.5,0.3,0.8
				c0.4,0.8,1,1.7,1.2,2.4c0.3,0.5,1.9,0.6,1.5-0.1l-1-2.2c-0.3-0.5-0.4-0.8-0.6-1.3c-0.3-0.3-0.6-0.8-0.9-0.9
				c-0.3-0.3-0.9-0.7-1.4-0.7c-0.5,0-1,0.1-1,0.6c-0.2,0.8-0.2,1.5-0.1,2.3c0.1,0.8-0.1,1.8-0.6,2.6c-0.3,0.3,0.4,0.8,0.6,0.8
				C1177.9,232.8,1178.4,232.8,1178.7,232.6L1178.7,232.6z"/>
			<path class="st2" d="M1179.3,231.4c0.3,0,0.5,0,0.8-0.4c0,0,0.3,0,0.3-0.3c0,0,0.3,0,0.3-0.3l-0.1-0.8l-0.3-0.3l-0.8,0.1
				c-0.3,0-0.5,0-0.8,0.4c0,0-0.3,0-0.3,0.3c0,0-0.3,0-0.3,0.3l0.1,0.8l0.3,0.3L1179.3,231.4z"/>
		</g>
	</g>
</g>
<g>
	<g class="st1">
		<path class="st2" d="M126,504l4.5-1.8c0.6-0.3,0.9-0.3,0.9-0.9V498c-0.3-1.8-0.9-3-2.7-3.6c-0.3,0-0.6-0.3-0.9-0.6
			c-0.9-0.9-0.9-1.5,0-1.8l2.7-0.9c-2.4-3-2.7-6-2.4-9.6c0.3-2.4,1.8-4.8,5.2-5.4c13.3-1.5,26.4-3.3,39.1-5.1h1.5
			c7.9,2.4,15.8,4.8,23.7,6.9c0.3,0,0.9,0.6,0.9,0.9s-0.6,0.9-0.9,1.2c-1.2,0.6-2.4,0.9-2.7,2.4c-0.3,1.8-0.3,3.6-0.6,5.4
			c0,0.3,0.6,0.6,0.9,0.6c1.2,0.3,2.4,0.9,3.3,1.2c0.3,0.3,0.6,0.6,1.2,0.9v0.3c-1.2,0.3-2.4,0.6-3.9,0.9c1.5,2.1,1.8,4.5,1.5,6.9
			s-0.9,4.8-3,6.6c0.6,0.3,0.9,0.3,1.2,0.3c0.9,0.3,0.9,0.9,0.3,1.5c-0.3,0.3-0.6,0.3-0.9,0.6c-1.2,0.3-2.1,1.2-2.1,2.4
			c-0.3,1.5-0.3,3-0.3,4.2c0,0.9,0.3,1.2,1.2,1.2c1.2,0.3,2.1,0.6,3.3,1.2c0.3,0.3,0.9,0.6,1.5,0.9c-0.6,0.3-0.9,0.3-1.5,0.6
			c-13,3-26.1,6.3-38.8,9.3h-1.5l-25.5-8.1c-3-0.9-3.9-3.3-4.5-6c-0.3,0-0.6-0.3-0.6-0.6v-3.6c0.6-1.5,1.2-2.7,1.8-4.2
			c-0.3-0.3-0.9-0.3-1.8-0.6L126,504L126,504z M159.7,489v7.8c-4.2-1.2-8.2-2.1-11.8-3.3c-4.9-1.2-9.7-2.4-14.6-3.9
			c-0.9-0.3-1.8-0.9-2.1-1.8c-0.6-2.1-0.9-4.2-0.3-6.6c0.3-1.5,1.5-2.1,3-1.5c8.2,2.7,16.7,5.4,24.9,8.1
			C159.4,487.8,159.7,488.4,159.7,489z M194.2,481.5c-11.2,2.1-22.1,4.5-33.4,6.6v8.7c10.9-2.7,21.5-5.4,32.5-8.1
			C193,486.3,193,483.9,194.2,481.5z M166.3,510.6c0.9-0.3,1.2-0.3,1.5-0.3c8.2-2.4,16.4-4.5,24.6-6.9c0.9-0.3,1.8-0.9,2.1-1.8
			c1.2-2.1,1.2-4.5,0.6-6.6c-0.3-1.5-1.5-1.8-2.7-1.5l-8.2,2.7c-5.5,1.8-10.9,3.6-16.7,5.4c-0.3,0-0.9,0-0.9,0.9
			C166.6,504.9,166.3,507.6,166.3,510.6z M165.1,503.1v7.5c-10.6-2.7-21.5-5.4-32.1-7.8c-0.3-2.7-0.3-5.1-0.6-7.5
			c1.8,0.3,3.9,0.9,6.1,1.2c8.5,1.8,17,3.3,25.5,5.4C164.8,501.9,165.1,502.2,165.1,503.1z M156.9,524.4c0-2.7,0.3-5.4,0.3-7.8
			c0-0.9-0.3-1.2-0.9-1.2c-8.2-2.7-16.4-5.4-24.9-8.1c-1.5-0.6-2.7,0-3,1.5c-0.6,2.1-0.6,4.5,0.3,6.6c0.3,0.9,1.2,1.5,2.1,1.8
			c5.8,1.5,11.8,3.3,17.6,4.8C151.5,522.9,154.2,523.5,156.9,524.4z M183.9,510.3c2.7-0.6,5.2-0.9,7.6-1.5c-0.3,2.4-0.3,4.8-0.6,7.2
			c-10.6,2.4-21.5,5.1-32.1,7.8v-8.1c0-0.3,0.6-0.6,0.9-0.6c1.5-0.3,3.3-0.9,5.2-0.9c3.3,0,6.1-1.5,9.4-2.1
			C177.6,511.8,180.6,510.9,183.9,510.3z"/>
	</g>
</g>
</svg>
