<?xml version="1.0" encoding="utf-8"?>
<!-- Generator: Adobe Illustrator 25.1.0, SVG Export Plug-In . SVG Version: 6.00 Build 0)  -->
<svg version="1.1" id="Calque_1" xmlns="http://www.w3.org/2000/svg" xmlns:xlink="http://www.w3.org/1999/xlink" x="0px" y="0px"
	 viewBox="0 0 1280 640" style="enable-background:new 0 0 1280 640;" xml:space="preserve">
<style type="text/css">
	.st0{opacity:0.63;}
	.st1{fill:#5CB77E;}
	.st2{filter:url(#Adobe_OpacityMaskFilter);}
	.st3{fill:#FFFFFF;}
	.st4{opacity:0.63;mask:url(#mask-3_1_);}
	.st5{fill:none;}
	.st6{filter:url(#Adobe_OpacityMaskFilter_1_);}
	.st7{mask:url(#mask-5_1_);}
	.st8{opacity:0.3;}
	.st9{fill-rule:evenodd;clip-rule:evenodd;fill:#FFFFFF;}
	.st10{filter:url(#Adobe_OpacityMaskFilter_2_);}
	.st11{mask:url(#mask-11_1_);}
	.st12{filter:url(#Adobe_OpacityMaskFilter_3_);}
	.st13{mask:url(#mask-14_1_);}
	.st14{fill-rule:evenodd;clip-rule:evenodd;fill:#5CB77E;}
</style>
<g>
	<g class="st0">
		<rect id="rect-2_1_" y="0" class="st1" width="1280" height="640"/>
	</g>
	<defs>
		<filter id="Adobe_OpacityMaskFilter" filterUnits="userSpaceOnUse">
			<feColorMatrix  type="matrix" values="1 0 0 0 0  0 1 0 0 0  0 0 1 0 0  0 0 0 1 0"/>
		</filter>
	</defs>
	<mask maskUnits="userSpaceOnUse" id="mask-3_1_">
		<rect y="0" class="st2" width="1280" height="640"/>
		<g>
			<rect id="rect-2_2_" y="0" class="st3" width="1280" height="640"/>
		</g>
	</mask>
	<g class="st4">
	</g>
</g>
<g transform="rotate(-4.999873 178.64466804 151.18986282)">
	<g>
		
			<rect id="rect-4_1_" x="146.1" y="113.7" transform="matrix(-1 2.084792e-06 -2.084792e-06 -1 357.2901 302.3797)" class="st5" width="65" height="75"/>
	</g>
	<defs>
		<filter id="Adobe_OpacityMaskFilter_1_" filterUnits="userSpaceOnUse" x="144.7" y="117.1" width="71.1" height="69.6">
			<feColorMatrix  type="matrix" values="1 0 0 0 0  0 1 0 0 0  0 0 1 0 0  0 0 0 1 0"/>
		</filter>
	</defs>
	<mask maskUnits="userSpaceOnUse" x="144.7" y="117.1" width="71.1" height="69.6" id="mask-5_1_">
		
			<rect x="-16.5" y="39.6" transform="matrix(-0.9962 -8.715146e-02 8.715146e-02 -0.9962 1213.3544 772.1068)" class="st6" width="1280" height="640"/>
		<g>
			
				<rect id="rect-4_2_" x="146.1" y="113.7" transform="matrix(-0.9962 -8.715146e-02 8.715146e-02 -0.9962 343.4336 317.374)" class="st3" width="65" height="75"/>
		</g>
	</mask>
	<g class="st7">
		<g class="st8">
			<path class="st9" d="M165.2,135.7c0.5-0.2,12.1-4.2,22.3-0.9c10.7,3.2,25.3,24.8,23.4,38.2c-0.7,3.9-2.6,7.2-5.3,9.3
				c-4.4,3.2-10,2.8-11.8,2.5c-3.2,1.6-7.2,2.5-10.7,3c-3.8,0.4-7.1,0.3-8.8,0.2c-0.4,0-0.7,0-0.9,0c-2.1,0.5-16.2,3-25.1-8.3
				c-3.9-5.3-2.6-14.4,4.6-26.9c5.1-9,11.1-16.4,11.6-16.7l0.2-0.5H165.2z M203.7,179.7c2.1-1.6,3.5-3.9,3.9-7.2
				c1.9-12.5-12.5-31.9-21.1-35c-7.9-2.5-17.6,0-19.7,0.7c-7,8.6-22.3,31-15.8,39.4c7.4,9.8,20.3,7.5,21.9,7.2c0.1,0,0.2,0,0.2,0
				h0.5c0,0,0.1,0,0.1,0c1.4,0.1,12.1,0.9,19.1-3l0.5-0.2h0.5C193.7,181.5,199.5,182.7,203.7,179.7z"/>
			<path class="st9" d="M186.1,166.2c-0.2,0.2-0.5,0.5-0.7,0.5c-1.6,0.9-3.5,1.4-5.3,1.4c-1.9,0-3.2-0.5-4.4-1.9
				c-0.5-0.5-0.7-0.9-1.2-1.6h0.5c1.2-0.2,2.1-0.2,3.2-0.5c1.2-0.2,2.3-0.2,3.2-0.5c0.7-0.2,1.2-0.7,0.9-1.6
				c-0.2-0.5-0.7-0.7-1.2-0.7c-2.3,0.2-4.9,0.5-7.2,0.9h-0.2c0-0.7-0.2-1.2-0.2-1.9c0.9,0,1.9-0.2,2.8-0.2c2.1-0.2,3.9-0.5,6-0.7
				c0.7,0,1.2-0.7,1.2-1.4s-0.7-0.9-1.4-0.9c-2.6,0.2-5.3,0.7-7.9,0.9H174c0.2-0.9,0.5-1.9,1.2-2.5c1.2-1.4,2.6-2.1,4.2-2.3
				c1.9-0.2,3.5,0,5.3,0.2c0.9,0.2,1.9-0.2,2.1-1.2c0.2-0.9,0-1.9-1.4-2.3c-2.6-0.9-5.3-0.9-8.1-0.2c-2.3,0.7-4.2,1.9-5.6,3.9
				c-0.9,1.4-1.6,3-1.6,4.9c0,0.2-0.2,0.5-0.5,0.5c-0.5,0-1.2,0.2-1.6,0.2c-0.7,0-0.9,0.7-0.9,1.4c0.2,0.7,0.7,0.9,1.4,0.9
				c0.5,0,0.9,0,1.4-0.2c0,0.7,0.2,1.4,0.2,2.1c-0.5,0-1.2,0.2-1.6,0.2s-0.7,0.2-0.7,0.7c-0.7,0.2-0.2,0.9,0.7,0.9
				c0.5,0,0.9,0,1.6-0.2c0.2,0,0.2,0,0.5,0.2l0.7,1.4c1.6,3,3.9,4.9,7.2,5.3c2.6,0.5,4.9,0,7.2-0.9c0.9-0.5,1.9-0.9,2.6-1.6
				c0.9-0.9,0.9-2.3,0-3.2C187.7,165.8,186.8,165.8,186.1,166.2L186.1,166.2z"/>
			<path class="st9" d="M164.3,136.1l-1.4,0.9l-0.9-1.6c-6.3-9.3-4.2-12.7-3.2-13.7c2.5-2,4.9-0.8,6.8,0.1l0.2,0.1
				c0.5,0.2,1.4,0.7,1.6,0.7c0.2-0.5,0.9-1.4,1.6-2.1c2.6-3.5,6.5-8.8,10.9-6.2c3.5,1.9,5.8,4.2,7.2,6c0.7-0.9,1.4-2.1,2.6-2.3
				c0.9-0.2,2.1,0.2,3,0.9c2.8,2.1,3.7,5.6,3,7.6c-0.2,1.2-0.9,1.6-1.4,1.9c-0.5,0.7-1.4,2.8-2.1,4.9l-0.5,1.4l-1.4-0.2
				c0,0-0.1,0-0.3-0.1C187.4,134,171.4,131,164.3,136.1z M171.4,122.5c0.2-0.2,0.3-0.4,0.5-0.7c1.9-2.4,4.5-5.7,6.2-4.7
				c3.7,2.1,5.8,4.4,7,6L184,129l-14.2,0l-0.5-3.7C169.8,124.6,170.5,123.9,171.4,122.5z M190.5,121.6c0-0.2-0.2-0.2-0.2-0.2
				c-0.2,0.2-0.5,0.9-0.7,1.4c-0.2,0.7-0.7,1.4-1.4,1.9l-1.2,6c0.9,0.2,1.9,0.2,2.6,0.5c1.4-3.7,2.3-4.9,3-5.3
				C192.6,124.8,192.3,122.9,190.5,121.6z M164,124.8c-1.6-0.7-2.6-0.9-3-0.5c-0.5,0.2,0,3.5,2.8,8.1c0.9-0.5,1.9-0.9,3-1.2
				l-0.7-5.6C165.4,125.5,164.7,125.3,164,124.8z"/>
		</g>
	</g>
</g>
<path class="st9" d="M291.2,193.2c0,0,0.6-19.9,30.2-37.5c21.3-12.6,31.2-21,31.2-21c14.5-13.2,30.8-25.6,50.3-30.4
	c24.6-6.2,50.5,0.3,75.2,6.3c63.3,15.3,131,26.7,193,7.3c46.3-14.5,71-26.9,119.3-20.7c15.8,2,68,13.9,82.7,19.9
	c35.5,14.5,55,6.2,73.5,38.5c16.5,28.8,2.4,63.6,13.2,94.7c11.7,33.8,32,61.4,25.8,96.5c-5.7,32.1-18.6,56.7-45.7,76.7
	c-26,19.1-39.1,7.4-60.3,31.3c-13.7,15.5-29.5,40.3-48.8,48.8c-14.3,6.3-36.1,7.6-51.8,7.1c-29.8-0.8-44.3-1.5-72.3-11.4
	c-35.2-12.4-68.5-22.9-103.1-28.8c-36.9-6.2-89.8-19-125.9-9.5c-12.7,3.4-24.8,9-37.7,11.7c-39.3,8.4-83.4-13.8-98.1-49.6
	c-17-41.4,3.5-89.3-9.5-132c-5.5-18-9.6-18.5-17.2-35.8c-3.3-7.5-8.6-20.1-16.8-31.2C293.7,217.9,289,201.3,291.2,193.2"/>
<g>
	<g>
		<rect id="rect-10_1_" x="126" y="471" class="st5" width="74" height="57"/>
	</g>
	<defs>
		<filter id="Adobe_OpacityMaskFilter_2_" filterUnits="userSpaceOnUse" x="126" y="471" width="73.7" height="56.4">
			<feColorMatrix  type="matrix" values="1 0 0 0 0  0 1 0 0 0  0 0 1 0 0  0 0 0 1 0"/>
		</filter>
	</defs>
	<mask maskUnits="userSpaceOnUse" x="126" y="471" width="73.7" height="56.4" id="mask-11_1_">
		<rect y="0" class="st10" width="1280" height="640"/>
		<g>
			<rect id="rect-10_2_" x="126" y="471" class="st3" width="74" height="57"/>
		</g>
	</mask>
	<g class="st11">
		<g class="st8">
			<path class="st9" d="M126,504l4.5-1.8c0.6-0.3,0.9-0.3,0.9-0.9V498c-0.3-1.8-0.9-3-2.7-3.6c-0.3,0-0.6-0.3-0.9-0.6
				c-0.9-0.9-0.9-1.5,0-1.8l2.7-0.9c-2.4-3-2.7-6-2.4-9.6c0.3-2.4,1.8-4.8,5.2-5.4c13.3-1.5,26.4-3.3,39.1-5.1h1.5
				c7.9,2.4,15.8,4.8,23.7,6.9c0.3,0,0.9,0.6,0.9,0.9s-0.6,0.9-0.9,1.2c-1.2,0.6-2.4,0.9-2.7,2.4c-0.3,1.8-0.3,3.6-0.6,5.4
				c0,0.3,0.6,0.6,0.9,0.6c1.2,0.3,2.4,0.9,3.3,1.2c0.3,0.3,0.6,0.6,1.2,0.9v0.3c-1.2,0.3-2.4,0.6-3.9,0.9c1.5,2.1,1.8,4.5,1.5,6.9
				s-0.9,4.8-3,6.6c0.6,0.3,0.9,0.3,1.2,0.3c0.9,0.3,0.9,0.9,0.3,1.5c-0.3,0.3-0.6,0.3-0.9,0.6c-1.2,0.3-2.1,1.2-2.1,2.4
				c-0.3,1.5-0.3,3-0.3,4.2c0,0.9,0.3,1.2,1.2,1.2c1.2,0.3,2.1,0.6,3.3,1.2c0.3,0.3,0.9,0.6,1.5,0.9c-0.6,0.3-0.9,0.3-1.5,0.6
				c-13,3-26.1,6.3-38.8,9.3h-1.5l-25.5-8.1c-3-0.9-3.9-3.3-4.5-6c-0.3,0-0.6-0.3-0.6-0.6v-3.6c0.6-1.5,1.2-2.7,1.8-4.2
				c-0.3-0.3-0.9-0.3-1.8-0.6V504z M159.7,489v7.8c-4.2-1.2-8.2-2.1-11.8-3.3c-4.9-1.2-9.7-2.4-14.6-3.9c-0.9-0.3-1.8-0.9-2.1-1.8
				c-0.6-2.1-0.9-4.2-0.3-6.6c0.3-1.5,1.5-2.1,3-1.5c8.2,2.7,16.7,5.4,24.9,8.1C159.4,487.8,159.7,488.4,159.7,489z M194.2,481.5
				c-11.2,2.1-22.1,4.5-33.4,6.6v8.7c10.9-2.7,21.5-5.4,32.5-8.1C193,486.3,193,483.9,194.2,481.5z M166.3,510.6
				c0.9-0.3,1.2-0.3,1.5-0.3c8.2-2.4,16.4-4.5,24.6-6.9c0.9-0.3,1.8-0.9,2.1-1.8c1.2-2.1,1.2-4.5,0.6-6.6c-0.3-1.5-1.5-1.8-2.7-1.5
				l-8.2,2.7c-5.5,1.8-10.9,3.6-16.7,5.4c-0.3,0-0.9,0-0.9,0.9C166.6,504.9,166.3,507.6,166.3,510.6z M165.1,503.1v7.5
				c-10.6-2.7-21.5-5.4-32.1-7.8c-0.3-2.7-0.3-5.1-0.6-7.5c1.8,0.3,3.9,0.9,6.1,1.2c8.5,1.8,17,3.3,25.5,5.4
				C164.8,501.9,165.1,502.2,165.1,503.1z M156.9,524.4c0-2.7,0.3-5.4,0.3-7.8c0-0.9-0.3-1.2-0.9-1.2c-8.2-2.7-16.4-5.4-24.9-8.1
				c-1.5-0.6-2.7,0-3,1.5c-0.6,2.1-0.6,4.5,0.3,6.6c0.3,0.9,1.2,1.5,2.1,1.8c5.8,1.5,11.8,3.3,17.6,4.8
				C151.5,522.9,154.2,523.5,156.9,524.4z M183.9,510.3c2.7-0.6,5.2-0.9,7.6-1.5c-0.3,2.4-0.3,4.8-0.6,7.2
				c-10.6,2.4-21.5,5.1-32.1,7.8v-8.1c0-0.3,0.6-0.6,0.9-0.6c1.5-0.3,3.3-0.9,5.2-0.9c3.3,0,6.1-1.5,9.4-2.1
				C177.6,511.8,180.6,510.9,183.9,510.3z"/>
		</g>
	</g>
</g>
<g transform="rotate(-4.999873 1162.29604507 258.20508403)">
	<g>
		
			<rect id="rect-13_1_" x="1129.8" y="224.7" transform="matrix(-1 2.084792e-06 -2.084792e-06 -1 2324.592 516.4085)" class="st5" width="65" height="67"/>
	</g>
	<defs>
		<filter id="Adobe_OpacityMaskFilter_3_" filterUnits="userSpaceOnUse" x="1125.5" y="225.5" width="74" height="64.2">
			<feColorMatrix  type="matrix" values="1 0 0 0 0  0 1 0 0 0  0 0 1 0 0  0 0 0 1 0"/>
		</filter>
	</defs>
	<mask maskUnits="userSpaceOnUse" x="1125.5" y="225.5" width="74" height="64.2" id="mask-14_1_">
		
			<rect x="-3.4" y="-45.8" transform="matrix(-0.9962 -8.715146e-02 8.715146e-02 -0.9962 1246.8802 602.9276)" class="st12" width="1280" height="640"/>
		<g>
			
				<rect id="rect-13_2_" x="1129.8" y="224.7" transform="matrix(-0.9962 -8.715146e-02 8.715146e-02 -0.9962 2297.6663 616.7243)" class="st3" width="65" height="67"/>
		</g>
	</mask>
	<g class="st13">
		<g class="st8">
			<path class="st9" d="M1130,239.9c1.5-0.8,3.3-1.8,4.8-2.3c4-1.8,8.3-3,12.6-4.3c3.5-1,7.1-2,10.6-2.5"/>
			<path class="st9" d="M1158.6,230.5c3.3-0.8,6.6-1.8,9.9-2.5c0.8-0.3,1.5-0.3,2,0.3c-2.5,1.8-12.1,3.8-14.9,4.8
				c-10.6,3.3-17.2,5.3-21.2,6.8h-4.3"/>
			<g>
				<path class="st14" d="M1154.1,238.1c-0.3-3.3-0.3-6.8-0.5-10.1c6.3-1,11.6-0.8,18-1.3c5.6-0.5,12.6-1,18.7-1
					c1.5,13.4,1.3,27.3,2,41c0.3,5.1,0.8,10.1,0.8,15.2c0,0.3,0,0.8-0.3,1s-0.5,0.5-1,0.8c-5.1,1-8.1,0.8-11.4,1"/>
				<path class="st9" d="M1155.8,237.9c-0.2-3.1-0.2-6-0.4-9.1c5.6-0.5,11.2-0.6,16.6-1c5.6-0.5,11-0.7,16.5-0.8
					c0.9,9.1,1.2,18.5,1.4,27.8c0.3,4.6,0.3,9.1,0.5,13.9c0.3,2.3,0.3,4.8,0.5,7.1v5.1c0,0.5-0.3,1.3,0,1.8v0
					c-0.3,0.1-0.6,0.2-0.8,0.2c-0.5,0-1,0.3-1.5,0.3c-1,0-2,0.3-3,0.3c-1.8,0-3.5,0-5.3,0.3c-0.8,0-1.8,0.5-2,1.3c0,0.8,1,1,1.5,1
					c3.8-0.3,7.6-0.3,11.1-1c1-0.3,2.3-0.5,3-1.5s0.5-2.3,0.5-3.3c0-2.5,0-4.8-0.3-7.3c-0.5-10.1-0.8-20.2-1.3-30.3
					c-0.3-5.8-0.5-11.4-1.3-16.9c0.3-0.8-0.8-0.8-1.3-0.8c-6.1,0-11.9,0.5-18,0.8c-6.3,0.5-12.6,0.3-18.7,1.3c-0.8,0-2,0.5-2,1.5
					c0.3,3.5,0.3,6.8,0.5,10.4c0,0.8,1.5,0.8,2,0.8C1155.1,239.1,1155.8,238.6,1155.8,237.9L1155.8,237.9z"/>
			</g>
			<path class="st9" d="M1129.8,240.4c3.5,15.9,7.3,32.4,9.6,46.3c0.3,1.3,0.5,2.8,1.5,3.5c0.5,0.5,1,0.5,1.8,0.8
				c6.6,1.5,13.4-0.8,20.2-0.5c2,0,4.6-0.5,6.6-0.5c3-0.3,5.3-0.8,8.3-0.8c0.8,0,1.5,0.3,2.3,0s1.5-0.5,1.8-1.3c0.3-0.5,0-1-0.3-1.5
				c-1.3-6.1-2.3-8.6-3.3-15.7c-0.5-2.8-2.3-11.1-2.8-13.9c-1-5.3-2.3-10.4-3.8-15.4c-0.3-1.3-0.8-2.8-1.8-3.5c-1.3-1-2.8-1-4.6-1
				c-8.1,0.3-17.2,1-25,2c-3.3,0.5-6.1,0.5-9.4,0.8c-0.5,0-1,0-1.3,0.5"/>
			<g>
				<path class="st14" d="M1142.4,262.4c-0.3-2.5,0.3-5.3,1.8-7.6c1.2-2.2,3.3-3.7,5.5-4.7c0.1-0.1,0.2-0.1,0.3-0.1
					c0.5-0.3,1.3-0.3,1.5-0.5c1.3-0.3,2.5-0.5,3.8-0.3c1,0,1.8,0.5,2.5,0.8c1,0.3,1.8,0.8,2.8,1.3c0.5,0.3,1.3,0.8,1.8,1.5
					c1,1,1.8,2,2.3,3.3c0.8,1.3,1,2.5,1.3,3.8v3.8c0,1-0.3,2-0.8,3c-0.5,1.3-1.3,2.3-2,3c-1,1-2,2-3.3,2.5c-1.3,0.8-2.5,1-4,1
					c-1.3,0-2.3-0.3-3.5-0.5c-1.3-0.3-2.3-0.5-3.5-1c-1-0.5-2.3-1.3-3.3-2.3c-0.8-1-1.5-2.3-2-3.3
					C1142.9,265.2,1142.7,263.6,1142.4,262.4z M1155.6,250.2h-1.8c-0.9,0-1.8,0-2.7,0.4c0.1,0.2-0.1,0.4-0.3,0.4l-1.5,0.8
					c-2,1-3.5,3-4.6,5.1c-1,2.3-1.3,4.8-0.5,7.3c0.3,1,0.8,2.3,1.5,3.5c0.5,1,1.3,1.8,2.3,2.5c1.8,1,3.8,1.8,6.1,2.3
					c2.3,0.5,4.8-0.3,6.6-1.8c1.8-1.3,3.3-3.3,3.8-5.3c0.3-1,0.3-2,0.3-3c0-1.3-0.3-2.5-0.5-3.8c-0.5-1.3-1-2.5-1.8-3.5
					c-0.5-0.8-1-1.5-1.8-2.3c-0.5-0.5-1.3-1-2-1.3c-0.8-0.3-1.8-0.8-2.5-1C1155.8,250.2,1155.8,250.2,1155.6,250.2z"/>
				<path class="st14" d="M1149.8,260.4c-0.3,0.5-0.3,0.3-0.8,2c-0.8,1.3,1.8-0.5,3.8-1.8c0.3-0.3,0.5-0.3,1,0
					c0.3,0,0.3,0.3,0.5,0.5c0.5,0.5,1.5,0.8,2.3,0.3c0.3-0.3,0.5-0.3,0.8-0.3s0.3,0.3,0.3,0.3l1.3,1.3c1.5-0.3,0.8-3.5,2-4.6
					c0.5-0.5,1.3,0.3,1.8-0.3c0.5-0.5,1.3-2,0.5-2.5c-1.3-0.8-0.3-1.8-2.5-3c-2.8,2-4.6,0.5-5.6,2.5c-0.3,0.5-1.3,1.5-1.5,1.8
					c-0.5,0.3-1.3,0-1.5,0.3c-0.5,0.3-0.3,1.3-1.5,2.8C1150.8,259.6,1150,259.8,1149.8,260.4L1149.8,260.4z"/>
				<path class="st14" d="M1143.7,257.8c0-0.3,0.3-0.5,0.8-0.5c0.3,0.5,0.5,1.3,1,1.5c0.3,0,0.3,0.3,0.3,0.3c0,0.3,0,0.3-0.3,0.5
					c-0.5,0.8-0.5,1.8,0,2.5s1,1.5,1.5,2c-0.5,0.8-0.8,1.5-0.8,2.5s0.3,1.8,0.8,2.5c-1.3-0.8-2.8-2-3-3.5c-0.5-2.3-1.3-1.5-1.3-3.8
					c0-0.3,0.5-3.3,0.5-3.5C1142.9,258.3,1143.5,257.6,1143.7,257.8"/>
				<path class="st14" d="M1150.8,259.8c0.3,0.5-0.3,1.3-0.8,1.8l-0.8,0.8c0.8,0.5,1.5,0.3,2.3,0.5c0.8,0,1.5,0.3,1.8,1
					c0,0.3,0,0.5,0.3,1c0.3,0.5,0.3,0.5,0.5,0.8h0.5c1.5,0,3,0.8,4,1.5c1,0.5,0.8,0,1-0.5c0.3-0.3,0-1.3,0.3-1.5
					c0.3,0,0.3-0.8-0.3-0.8c-1-0.5-1.5-0.5-2-1.8c0-0.3-0.3-0.5-0.3-0.5c-0.3-0.3-0.8,0-1.3-0.3c-0.8-0.3-0.8-1.3-1.3-1.8l-0.3-0.3
					h-1c-1,0.2-0.8-0.5-1.5,0c-0.1-0.1-0.8-0.2-0.8,0C1151.3,259.8,1151.3,260.1,1150.8,259.8"/>
			</g>
			<path class="st9" d="M1158.6,229.8l1.5,3l0.8,1.5c0.3,0.3,0.3,0.5,0.5,0.8s0.8,0.5,1,0.8c0.3,0,0.3,0,0.3-0.3s0.3-0.5,0.3-0.8
				c0.3-0.5,0.5-1,0.8-1.3c0.5-1,0.8-2,1-2.8c0-0.3-0.5-0.5-0.5-0.5l-0.8-0.5c-0.3,1-0.5,1.8-1,2.8c-0.3,0.5-0.5,0.8-0.5,1.3
				c0,0.1,0,0.2-0.1,0.2c-0.1-0.2-0.3-0.4-0.4-0.7c-0.5-0.8-0.8-1.5-1.3-2.5l-0.8-0.8C1159.1,229.8,1158.9,229.8,1158.6,229.8
				C1158.9,229.5,1158.6,229.5,1158.6,229.8L1158.6,229.8z"/>
			<path class="st9" d="M1167.5,230C1167.5,230,1167.7,230.3,1167.5,230C1167.7,230.3,1167.7,230.3,1167.5,230v0.8
				c0,0.3,0,0.5,0.3,1v1.8c0,0.5,0.3,0.8,0.5,1c0.3,0.3,0.8,0.3,0.8-0.3c0-1.5-0.3-2.8-0.5-4.3c0-0.3-0.5-0.8-0.8-0.8
				S1167.5,229.8,1167.5,230z"/>
			<path class="st9" d="M1173,229h1.3c0.5,0,0.8,0.3,0.8,0.3c0.3,0.3,0.3,0.5,0,1c-0.3,0,0,0.3,0,0.3h-1.5c-0.2,0-0.7,0-0.8,0.4
				c-0.2-0.2-0.4-0.5-0.5-0.7c-0.3-0.3-0.3-0.8,0-1C1172.3,229,1172.8,229,1173,229z M1172.6,230.9c-0.1,0-0.2-0.1-0.3-0.1
				C1172.4,230.8,1172.5,230.9,1172.6,230.9z M1172.7,231c-0.1,0-0.1-0.1-0.1-0.1C1172.6,231,1172.7,231,1172.7,231z M1172.9,231
				C1172.8,231,1172.8,231,1172.9,231C1172.8,231,1172.8,231,1172.9,231c-0.1,0-0.1,0-0.1,0C1172.7,231,1172.8,231.1,1172.9,231
				l-0.1,0.3C1173,231.5,1173.2,231.4,1172.9,231L1172.9,231L1172.9,231z M1172.9,231c0.2,0.2,0.5,0.4,0.7,0.5
				c0.6,0.4,1.2,0.5,1.8,0.6v0.4c0,0.3-0.3,0.5-0.5,0.8c-0.8,0.5-1.8,0.3-2.5,0c0,0.3,0.3,0.3,0.3,0.5l0.5,0.5l0.3,0.3
				c0.8,0.3,1.5,0.3,2.3,0c0.5-0.3,1-0.8,0.8-1.3c-0.2-0.4-0.6-0.8-0.9-1.1c0.1,0,0.2,0.1,0.4,0.1l-0.5-0.5v0.3
				c-0.3-0.3-0.8-0.5-1.3-0.8C1173.8,231,1173.3,231,1172.9,231z"/>
			<g>
				<path class="st9" d="M1180.9,234.1c0.3-0.8,0.5-1.5,0.5-2.3c0-0.5,0-0.8,0.3-1.3c0-0.1,0-0.2,0-0.3c0.1,0.3,0.2,0.5,0.2,0.8
					c0.3,0.8,0.8,1.8,1,2.5c0.3,0.5,1.8,0.8,1.5,0l-0.8-2.3c-0.3-0.5-0.3-0.8-0.5-1.3c-0.3-0.3-0.5-0.8-0.8-1
					c-0.3-0.3-0.8-0.8-1.3-0.8s-1,0-1,0.5c-0.3,0.8-0.3,1.5-0.3,2.3s-0.3,1.8-0.8,2.5c-0.3,0.3,0.3,0.8,0.5,0.8
					C1180.1,234.3,1180.6,234.3,1180.9,234.1L1180.9,234.1z"/>
				<path class="st9" d="M1181.6,233c0.3,0,0.5,0,0.8-0.3c0,0,0.3,0,0.3-0.3c0,0,0.3,0,0.3-0.3v-0.8l-0.3-0.3h-0.8
					c-0.3,0-0.5,0-0.8,0.3c0,0-0.3,0-0.3,0.3c0,0-0.3,0-0.3,0.3v0.8l0.3,0.3H1181.6z"/>
			</g>
		</g>
	</g>
</g>
</svg>
