<svg xmlns="http://www.w3.org/2000/svg" viewBox="0 0 222.38 254.35"><defs><style>.cls-1{fill:#0066ad;}</style></defs><title>Fichier 6</title><g id="Calque_2" data-name="Calque 2"><g id="Calque_1-2" data-name="Calque 1"><path class="cls-1" d="M167.3,80.14c.28-.45.55-.9.81-1.37a6.78,6.78,0,0,0,.69-5.62c-3.45-11.48-7.19-22.85-10.92-34.28a4.43,4.43,0,0,0-1.24-2.38L154.77,38Q132,56.72,109.39,75.61a89.29,89.29,0,0,0-11.7,3.81c-1.53-.1-3.06-.16-4.59-.27L56.55,76.47c-6.23-.47-12.46-.87-18.68-1.41-1.72-.15-2,.45-1.54,1.91.22.63.39,1.3.59,1.94,3,9.3,5.78,18.49,8.91,27.89,2.7,8.07,1.53,7.75,7.85,10.31a89.69,89.69,0,0,0-9.27,21.31c0-.09,0-.18,0-.27-.68-8.52-4-16.1-8.41-23.26-.43-.68-.76-1.61-1.72-.5a9.78,9.78,0,0,1-9.79,3.48c-1-.2-1.3.26-1.17,1.23.35,2.48.65,5,.95,7.46.53,4.39,2,8.56,2.73,12.91a103.81,103.81,0,0,0,7.63,18.47,10,10,0,0,0,2,2.79,1.48,1.48,0,0,0,1.51.32c.62-.22.68-.81.62-1.36-.09-.91-.23-1.82-.35-2.73A3.88,3.88,0,0,0,41,159c-.09,1.84-.15,3.7-.13,5.57a90.85,90.85,0,0,0,90.73,89.78h1A90.76,90.76,0,0,0,167.3,80.14ZM132.49,243.86a79.59,79.59,0,0,1-13.18-.94,21.13,21.13,0,0,0-.19-6.76c-2.22-13-11.49-19.61-22.76-23.55-11.64-4.07-19-10.26-18.14-23.8.39-6.59-4.29-9.24-10.57-7-4.32,1.55-8.57,3.31-12.82,5.05a80.05,80.05,0,0,1-3.45-22.4c0-1.81,0-3.61.14-5.41,6.28-2.33,12.57-4.66,18.82-7.09,3.14-1.23,6.2-4.16,5.4-7-2.75-9.78,4.31-14.23,9.58-19.73.6-.63,1.17-1.25,1.7-1.88a98.22,98.22,0,0,0,18.48-1.64c19.32-3.55,35.73-12.72,49.6-26.6,2-2,4-4,5.82-6.19a79.23,79.23,0,0,1,9.89,4.69l.51,2.12c3,12.41,1.54,16-9.77,20.88-6.74,2.93-11,7.32-12.86,14.66-1.83,7.07-7.65,7.89-12.3,2.38-8.41-10-9-9.85-13.83,2.88-.93,2.44-1.62,5-2.6,7.4-3.06,7.53-2,14.36,1.54,21.77,4.75,10,15.67,13,21.67,21.29,3.43,4.73,11.4,3.12,13.61,7.61,2.38,4.86-.05,11.33,1.7,17,2.62,8.54,11.37,11,18.38,4.9,4.81-4.18,7.07-9.77,7.37-16,.56-11.86,4.32-23.12,6.25-34.72.29-1.75.67-3.92,2.57-4.55,2.26-.75,3,1.43,4.1,2.88,6.6,9.11,7.74,10.66,14.45,6.33A80.36,80.36,0,0,1,132.49,243.86Z"/><path class="cls-1" d="M100.06,73.89a4.34,4.34,0,0,0,3.27-1.07c19.09-15.5,37.87-31.3,56.7-47.06L177.5,11.14l3.43-3.27L170.72,7,152.05,5.53Q116,2.82,80,0A3.49,3.49,0,0,0,77.27,1q-25.06,21-50.15,41.91L5.37,61,0,65.73c1.87.82,3.7.15,5.33.82H6.75c9.94.81,19.87,1.67,29.81,2.44Z"/><path class="cls-1" d="M25.3,115.23a5.93,5.93,0,0,0,7.57-3.62,7.16,7.16,0,0,0,.3-.89,6.28,6.28,0,0,0-4.58-7.6,3.27,3.27,0,0,1-2.45-2.52c-2.59-8.27-5.23-16.52-7.86-24.77-.72-2.27-1.75-3-3.37-2.27s-.21,2.13.07,3c2.52,8.36,5.15,16.68,7.81,25a3.27,3.27,0,0,1-.46,3.54,5.24,5.24,0,0,0-1.25,3.79,6.38,6.38,0,0,0,4,6.22Z"/></g></g></svg>