<svg xmlns="http://www.w3.org/2000/svg" viewBox="0 0 180.05 227.86"><defs><style>.cls-1{fill:none;}.cls-2{fill:#1b66aa;}.cls-3{fill:#fff;}.cls-4{fill:#30b778;}</style></defs><title>Fichier 5</title><g id="Calque_2" data-name="Calque 2"><g id="Calque_1-2" data-name="Calque 1"><path class="cls-1" d="M59.29,156.67A20.45,20.45,0,0,0,73,159.58a36.9,36.9,0,0,0,13.26-4.83l-26.39,1.17A5.71,5.71,0,0,1,59.29,156.67Z"/><path class="cls-1" d="M62.49,73.44C51,74.18,41.17,76.81,35.6,80.73a56.83,56.83,0,0,0-.33,6c0,20.85,11.25,38.42,26.43,43.35l21.85-1.9c12.84-6.65,21.92-22.72,21.92-41.45a55.8,55.8,0,0,0-1.42-12.55,19.47,19.47,0,0,0-5-4.18A39,39,0,0,1,84,54.27l-.62.27C82.49,58.63,78.32,72.41,62.49,73.44Z"/><path class="cls-1" d="M152.36,29.83A2.11,2.11,0,0,0,154.1,32c.43.11.89.14,1.35.21s.92-.11,1.37-.23a2.16,2.16,0,0,0,1.68-2.14,2.2,2.2,0,0,0-1.59-2.27,4.58,4.58,0,0,0-2.88,0A2.19,2.19,0,0,0,152.36,29.83Z"/><path class="cls-1" d="M157.1,36.27a5.82,5.82,0,0,0-3.55.07,2.45,2.45,0,0,0-1.75,2.44,2.42,2.42,0,0,0,1.69,2.49,13.52,13.52,0,0,0,1.81.39c.62-.08,1.09-.11,1.55-.2a2.56,2.56,0,0,0,2.21-2.53A2.5,2.5,0,0,0,157.1,36.27Z"/><path class="cls-2" d="M179.66,29.78c-.19-1.15-.47-2.29-.69-3.4h-5.74c2.44,8.06,1.61,15.69-3.12,22.64a25,25,0,0,1-19.78,11.37,25.81,25.81,0,0,1-27.4-25.46,24.66,24.66,0,0,1,7.74-18.66c7.49-7.2,16.4-9,26.33-6.17V4.43c-.74-.17-1.47-.38-2.21-.5-1.4-.23-2.81-.41-4.22-.61H146.9c-1.19.16-2.38.28-3.56.49a30.76,30.76,0,0,0-17.91,10,30.93,30.93,0,0,0-7.86,17.72l-.15,1.32v3.67a5.59,5.59,0,0,1,.11.59,29.79,29.79,0,0,0,1.84,8.44,31.31,31.31,0,0,0,60.29-15.72Z"/><path class="cls-2" d="M151.11,24.53A4.94,4.94,0,0,0,149,32.45a16.91,16.91,0,0,0,1.6,1.44s0,0,0,0l-.49.25a5.71,5.71,0,0,0-3.38,5.19A5.39,5.39,0,0,0,150,44.43a10.58,10.58,0,0,0,4.12,1A12.31,12.31,0,0,0,161,44.3a5.57,5.57,0,0,0,2.19-8.12,6.45,6.45,0,0,0-2.82-2.29l.27-.22A4.83,4.83,0,0,0,163,28.89a5,5,0,0,0-3.36-4.35A11.34,11.34,0,0,0,151.11,24.53Zm5.74,16.93c-.46.09-.93.12-1.55.2a13.52,13.52,0,0,1-1.81-.39,2.42,2.42,0,0,1-1.69-2.49,2.45,2.45,0,0,1,1.75-2.44,5.82,5.82,0,0,1,3.55-.07,2.5,2.5,0,0,1,2,2.66A2.56,2.56,0,0,1,156.85,41.46Zm.06-13.93a2.2,2.2,0,0,1,1.59,2.27,2.16,2.16,0,0,1-1.68,2.14c-.45.12-.92.15-1.37.23s-.92-.1-1.35-.21a2.11,2.11,0,0,1-1.74-2.13A2.19,2.19,0,0,1,154,27.49,4.58,4.58,0,0,1,156.91,27.53Z"/><path class="cls-2" d="M142.6,45.25V24h-9.26v4.28h3.91v17Z"/><path class="cls-2" d="M167.32,22h4.32V16h5.94v-4.3h-6v-6H167.3v6h-5.92v4.3h5.94Z"/><path class="cls-3" d="M85.69,131.73h0a32.55,32.55,0,0,1-15.31,3.88,31.9,31.9,0,0,1-9.71-1.52c.81,5.29,2.19,17.11-.79,21.82l26.39-1.17c.8-.46,1.49-.89,2-1.24C83.67,146.8,84.81,136.46,85.69,131.73Z"/><path class="cls-3" d="M70.37,131.49a28.49,28.49,0,0,0,13.18-3.28l-21.85,1.9A28,28,0,0,0,70.37,131.49Z"/><path class="cls-2" d="M59.29,156.67a5.71,5.71,0,0,0,.58-.75c3-4.71,1.6-16.53.79-21.82a31.9,31.9,0,0,0,9.71,1.52,32.55,32.55,0,0,0,15.31-3.88h0c-.88,4.73-2,15.07,2.61,21.78.85-.55,1.38-.94,1.46-1l1-.78,1.63.57c-5.06-5.94-3.57-18.6-2.86-23,11.23-7.89,19-22.48,19.92-39.39.61-3.86,2.77-18,2.77-24.17,0-5.1-3.18-14.27-13.08-21.32a51,51,0,0,1-6.14,4.76,58.71,58.71,0,0,1-9,5.06A39,39,0,0,0,99.06,70a19.47,19.47,0,0,1,5,4.18,55.8,55.8,0,0,1,1.42,12.55c0,18.73-9.08,34.8-21.92,41.45a28.49,28.49,0,0,1-13.18,3.28,28,28,0,0,1-8.67-1.38c-15.18-4.93-26.43-22.5-26.43-43.35a56.83,56.83,0,0,1,.33-6c5.57-3.92,15.42-6.55,26.89-7.29,15.83-1,20-14.81,20.9-18.9a52.56,52.56,0,0,1-21,4.34h-.11a57.57,57.57,0,0,1-26.25-6.35l-.09,0-.46-.28-.21.31c-11.21,16.78-3.24,45.4-4.5,36.83A7,7,0,0,1,31.16,86c0,.27,0,.53,0,.8,0,20.65,10.34,38.33,24.9,45.47l-.06,0c1.55,8.75,2.22,19.94.15,22A19,19,0,0,0,59.29,156.67Z"/><path class="cls-2" d="M140,171.93c-9.77-2.85-33.08-4.66-35.72-9.25a1.28,1.28,0,0,0-.19-.23L83.28,180l-12.13-10.8-8.6,10.91L40.27,164.16a139.94,139.94,0,0,1-26.51,8.58C-3.74,176.4.44,215.89.44,215.89s70.42,25.23,148.11,2.44C155,208.56,149.72,174.77,140,171.93Z"/><path class="cls-3" d="M68.45,164.64a25.14,25.14,0,0,1-15.83-7L45.67,162l15.92,11.39Z"/><path class="cls-3" d="M73.32,164.51l10,8.94,16-13.49-7.72-2.72c-2.78,1.88-10,6.26-18,7.24Z"/><path class="cls-4" d="M71.15,169.19,83.28,180,104,162.45l5.07-4.28L92.44,152.3l-1.63-.57-1,.78c-.08.06-.61.45-1.46,1-.55.35-1.24.78-2,1.24A36.9,36.9,0,0,1,73,159.58a20.45,20.45,0,0,1-13.71-2.91,19,19,0,0,1-3.15-2.45A13.83,13.83,0,0,1,55,153l-1.36-1.77L36.76,161.64l3.51,2.52L62.55,180.1Zm20.47-11.95L99.34,160l-16,13.49-10-8.94.28,0C81.64,163.5,88.84,159.12,91.62,157.24Zm-39,.42a25.14,25.14,0,0,0,15.83,7l-6.86,8.7L45.67,162Z"/><path class="cls-2" d="M24.92,46.83c-.17-.42-.26-1-.9-.45a5.44,5.44,0,0,1-5.72.95c-.55-.22-.74,0-.76.56-.06,1.4-.14,2.82-.22,4.19-.14,2.46.25,4.9.23,7.36a58.4,58.4,0,0,0,2.36,10.89,5.76,5.76,0,0,0,.83,1.73.82.82,0,0,0,.8.33c.36-.06.45-.38.47-.69,0-.51,0-1,.08-1.53.35,1.22,1.46,1.43,2.37,1.88.33.16.66.57,1,.35s.08-.61.1-1-.15-.84.51-.75c.48.07.92.2.8.84,0,.19-.09.37-.13.55s-.13.44.11.49a.74.74,0,0,0,.52-.13,1.21,1.21,0,0,0,.42-.77,14.37,14.37,0,0,0,.34-2.92,62.67,62.67,0,0,0-.79-6.41,7.26,7.26,0,0,1-.09-1.92A28.86,28.86,0,0,0,24.92,46.83Z"/><path class="cls-2" d="M62.43,56a50.84,50.84,0,0,0,29-9.17,39.64,39.64,0,0,0,8.42-7.24,2.26,2.26,0,0,0,.6-1.85c-.7-5.84-1.55-11.75-2.38-17.49l-1.38.65C87.18,25.37,77.35,30,67.56,34.42a4.15,4.15,0,0,1-1.84.42,4.56,4.56,0,0,1-.89-.09L30.5,28.62,31,32c.5,3.75,1,7.5,1.58,11.32.11.76.19,1.4.26,1.93.26,2.07.26,2.07,2.6,3.52l1.6,1,.21.1A54.19,54.19,0,0,0,62.43,56Z"/><path class="cls-3" d="M36.07,52.53a57.57,57.57,0,0,0,26.25,6.35h.11a52.56,52.56,0,0,0,21-4.34l.62-.27a58.71,58.71,0,0,0,9-5.06,51,51,0,0,0,6.14-4.76,31,31,0,0,0,2.84-3,5.08,5.08,0,0,0,1.29-4.1c-.73-6.06-1.62-12.2-2.48-18.14l0-.25,10.92-5.13,5.7-3.1L97.54,7.13Q77.71,3.62,57.92.07a3.77,3.77,0,0,0-2.45.32l-29.85,14-13,6L6.77,23.38l2.7,1.25a6.56,6.56,0,0,0,2,.51,3.71,3.71,0,0,1,.94.2l5.08.92,1.43.26.54.1,8.08,1.47.57,4.29c.5,3.77,1,7.54,1.59,11.37.11.74.18,1.35.25,1.86.42,3.32.78,3.65,3.94,5.61l1.64,1,.46.28Zm1.13-2.66-.21-.1-1.6-1c-2.34-1.45-2.34-1.45-2.6-3.52-.07-.53-.15-1.17-.26-1.93C32,39.5,31.45,35.75,31,32l-.45-3.38,34.33,6.13a4.56,4.56,0,0,0,.89.09,4.15,4.15,0,0,0,1.84-.42c9.79-4.43,19.62-9,29.14-13.52l1.38-.65c.83,5.74,1.68,11.65,2.38,17.49a2.26,2.26,0,0,1-.6,1.85,39.64,39.64,0,0,1-8.42,7.24,50.84,50.84,0,0,1-29,9.17A54.19,54.19,0,0,1,37.2,49.87ZM14.41,22.77,26.84,17,56.77,3a1,1,0,0,1,.62-.06Q77.2,6.44,97,10l11.71,2.11L95.47,18.3C86,22.76,76.15,27.37,66.32,31.83a1.59,1.59,0,0,1-1,.1L30.42,25.69l-11-2Z"/><path class="cls-2" d="M17.48,26.26q.72,6,1.51,12a1.81,1.81,0,0,1-.6,1.9,2.89,2.89,0,0,0-1.06,1.95,3.58,3.58,0,0,0,1.59,3.82L19,46a3.3,3.3,0,0,0,4.51-1.24,2.55,2.55,0,0,0,.25-.46A3.5,3.5,0,0,0,22,39.63,1.82,1.82,0,0,1,20.93,38q-.72-5.7-1.48-11.39l-.54-.1Z"/><path class="cls-2" d="M30.42,25.69l34.94,6.24a1.59,1.59,0,0,0,1-.1C76.15,27.37,86,22.76,95.47,18.3l13.27-6.23L97,10Q77.21,6.45,57.39,2.9a1,1,0,0,0-.62.06L26.84,17,14.41,22.77l5,.92Z"/></g></g></svg>