<svg xmlns="http://www.w3.org/2000/svg" viewBox="0 0 204.84 227.86"><defs><style>.cls-1,.cls-2,.cls-4{fill:none;}.cls-2{stroke:#fff;}.cls-2,.cls-4{stroke-linecap:round;stroke-linejoin:round;stroke-width:0;}.cls-3{fill:#fff;}.cls-4{stroke:#114d96;}.cls-5{fill:#114d96;}.cls-6{fill:#d12639;}.cls-7{fill:#1b66aa;}.cls-8{fill:#30b778;}</style></defs><title>Fichier 7</title><g id="Calque_2" data-name="Calque 2"><g id="Calque_1-2" data-name="Calque 1"><path class="cls-1" d="M179.15,99h0c0,.06-.06.09-.08.13h0A.88.88,0,0,1,179.15,99Z"/><path class="cls-1" d="M62.49,73.44C51,74.18,41.17,76.81,35.6,80.73a56.83,56.83,0,0,0-.33,6c0,20.85,11.25,38.42,26.43,43.35l21.85-1.9c12.84-6.65,21.92-22.72,21.92-41.45a55.8,55.8,0,0,0-1.42-12.55,19.47,19.47,0,0,0-5-4.18A39,39,0,0,1,84,54.27l-.62.27C82.49,58.63,78.32,72.41,62.49,73.44Z"/><path class="cls-1" d="M59.29,156.67A20.45,20.45,0,0,0,73,159.58a36.9,36.9,0,0,0,13.26-4.83l-26.39,1.17A5.71,5.71,0,0,1,59.29,156.67Z"/><path class="cls-1" d="M131,57.87h0l0,.08,0,0S131,57.87,131,57.87Z"/><path class="cls-1" d="M127.12,56.86v0a.19.19,0,0,0,0-.08c0-.06,0,0,0,0s.08,0,.08,0,0-.08,0-.07a.09.09,0,0,1-.07,0s0,0,0,0,0,0,0-.06.05,0,0-.05,0-.08,0-.07,0,0,0,0,.05,0,.07,0,0,0,0,0,0,0,0-.06l0,0s0,0,.05,0,0,0,0,.06,0,0,.06,0,0,0,.06,0l.06,0s0,0,.06,0,.08,0,.05,0l0,0-.06,0-.07,0s-.05,0-.05-.05,0,0,.05,0l.07,0h.08s.06,0,.08,0,0-.05,0-.06h-.07s-.07,0-.07,0a.07.07,0,0,0,0-.06.05.05,0,0,0-.07,0s0,0,0,.07l.06,0s0,0,0,0h-.15s-.07,0-.06,0a.11.11,0,0,0,0-.08s0-.08,0-.08l-.08,0s0,0,0,.06,0,0,.06.06a.19.19,0,0,1,0,.07s0,0,0,.07a.22.22,0,0,1,0,.08s0,0-.06,0h-.08a.06.06,0,0,0,0,0l0,.07s0,0,0,.06,0,0,0,.08a.14.14,0,0,1,0,.07.06.06,0,0,0,0,.07l0,.07A.19.19,0,0,1,127.12,56.86Z"/><path class="cls-1" d="M176.94,96.8s0,0,0,0l-.06-.08h0a.35.35,0,0,0,0,.12Z"/><path class="cls-1" d="M177.76,98.09l-.06,0h0l.06,0Z"/><path class="cls-1" d="M175.94,97.58s-.05,0-.07,0,0,0,.07,0Z"/><path class="cls-1" d="M175.76,97.44h0l0,0s0,0,0,.07,0,0,.05,0,0,0,0-.08Z"/><path class="cls-1" d="M176.3,97.33l-.09,0h0l.09,0Z"/><path class="cls-2" d="M178.24,98.27h0"/><path class="cls-3" d="M179.13,36.65h0a.44.44,0,0,0-.06.1A.44.44,0,0,1,179.13,36.65Z"/><path class="cls-3" d="M176,31.31l0,0Z"/><path class="cls-3" d="M176,33.2l0,0Z"/><path class="cls-3" d="M180.44,38l.05-.09Z"/><path class="cls-3" d="M175.88,31.45l.09-.09Z"/><path class="cls-3" d="M148,38.67h0Z"/><path class="cls-3" d="M148.15,35.88l-.08.06h0Z"/><path class="cls-3" d="M189.48,60a.33.33,0,0,1,.14,0s.07,0,.09,0,0,0-.09,0A.33.33,0,0,0,189.48,60Z"/><path class="cls-3" d="M187.75,62.27a.17.17,0,0,0-.16.07.17.17,0,0,1,.16-.07c.06,0,.12-.21.23-.27a3.83,3.83,0,0,0,.29-.28h0A2.44,2.44,0,0,1,188,62C187.87,62.05,187.82,62.27,187.75,62.27Z"/><path class="cls-3" d="M187.05,98.3a.9.9,0,0,0-.11.1h0a.9.9,0,0,1,.11-.1s.08,0,.13,0,0,0,.06,0l-.06,0S187.08,98.26,187.05,98.3Z"/><path class="cls-3" d="M184.86,66.35a3,3,0,0,1-.28.33,3,3,0,0,0,.28-.33,2.61,2.61,0,0,1,.31-.27,2.4,2.4,0,0,1,.26-.18l-.26.17Z"/><path class="cls-3" d="M186.73,98.55h0s.08,0,.12,0a.12.12,0,0,0,.05,0,.12.12,0,0,1-.05,0S186.72,98.5,186.73,98.55Z"/><path class="cls-3" d="M187.31,98.51h0s0,.08-.1.08h0C187.27,98.59,187.27,98.51,187.31,98.51Z"/><path class="cls-3" d="M188.64,59.57l0,0a.1.1,0,0,1,0-.05.1.1,0,0,0,0,.05Z"/><path class="cls-3" d="M186.88,98.63l-.07,0h0Z"/><path class="cls-3" d="M187.24,99a.43.43,0,0,1,0,0,.05.05,0,0,1,0,0,.05.05,0,0,0,0,0A.43.43,0,0,0,187.24,99Z"/><path class="cls-3" d="M187,98.58s0,0,0,0h0Z"/><path class="cls-3" d="M187.86,97.29s0-.12-.09-.06h0c0-.06.06,0,.09.07s0,.07.08.07h0C187.86,97.37,187.9,97.34,187.86,97.29Z"/><path class="cls-3" d="M188.2,97.25s-.07,0-.1,0,.07,0,.1,0,.07,0,.11.06a.08.08,0,0,0,.1,0h0a.09.09,0,0,1-.1,0S188.27,97.25,188.2,97.25Z"/><path class="cls-3" d="M185.8,65.62a1.24,1.24,0,0,0-.18.14,1.24,1.24,0,0,1,.18-.14.34.34,0,0,0,.14-.12A.34.34,0,0,1,185.8,65.62Z"/><path class="cls-3" d="M188.44,97.28s0,0,.07,0a.06.06,0,0,0,.06,0,.06.06,0,0,1-.06,0S188.45,97.26,188.44,97.28Z"/><path class="cls-3" d="M187.45,62.89a.28.28,0,0,1,.09-.07.09.09,0,0,0,0-.08.07.07,0,0,1,0,.07Z"/><path class="cls-3" d="M187.33,98a.27.27,0,0,1,.08-.07.23.23,0,0,0,.09-.08h0a.23.23,0,0,1-.09.08A.27.27,0,0,0,187.33,98Z"/><path class="cls-3" d="M187.06,63.23c-.08,0-.2.07-.31.13s-.38.1-.54.18h0c.16-.08.38-.09.54-.18l.31-.13.11,0,.09-.07-.09.07Z"/><path class="cls-3" d="M187.31,98s0,0,0,0h0S187.32,98,187.31,98Z"/><path class="cls-3" d="M187.52,97.82a.36.36,0,0,0,0-.09.43.43,0,0,1,0,0,.43.43,0,0,0,0,0A.36.36,0,0,1,187.52,97.82Z"/><path class="cls-3" d="M189.1,60.38c.07-.05.16,0,.29-.14h0C189.26,60.35,189.17,60.33,189.1,60.38Z"/><path class="cls-3" d="M194.4,46.93h0l.25-.27.31-.35h0l-.3.34C194.55,46.76,194.48,46.83,194.4,46.93Z"/><path class="cls-3" d="M183.93,100.52v-.17s0,0,0,0,0,0,0,0a.48.48,0,0,1,0,.17.26.26,0,0,1,0,.15h0A.77.77,0,0,0,183.93,100.52Z"/><path class="cls-3" d="M192.78,57.52a.32.32,0,0,1,.09,0A.32.32,0,0,0,192.78,57.52Z"/><path class="cls-3" d="M192.43,57.84a1.44,1.44,0,0,0,.21-.15A2.33,2.33,0,0,1,192.43,57.84Z"/><path class="cls-3" d="M182.67,100h0c.07,0,.05.06,0,.1s0,0,0,0-.06,0,0,0S182.74,100,182.67,100Z"/><path class="cls-3" d="M195.23,45.79a2.22,2.22,0,0,1,.31-.07.11.11,0,0,0,.06-.07.13.13,0,0,1-.06.07A2.22,2.22,0,0,0,195.23,45.79Z"/><path class="cls-3" d="M183.27,100.27c0-.06.06-.1,0-.12h0c.06,0,.06.06,0,.12s0,.07,0,.1h0S183.23,100.32,183.27,100.27Z"/><path class="cls-3" d="M183.75,100.68h0c-.07,0,0,.08,0,.1h0S183.68,100.7,183.75,100.68Z"/><path class="cls-3" d="M183,100.09l.09,0-.09,0Z"/><path class="cls-3" d="M184.85,100h0c.08,0,.05.06.08.12h0C184.91,100.05,184.93,100,184.85,100Z"/><path class="cls-3" d="M188.83,59.28v0s.1-.06.16-.15C188.93,59.22,188.84,59.24,188.83,59.28Z"/><path class="cls-3" d="M185.55,99.79l-.09.09a.24.24,0,0,0-.05.14v.17s0,0,0,0,0,0,0,0V100a.24.24,0,0,1,.05-.14l.08-.09s.09,0,.14,0h0C185.63,99.77,185.57,99.76,185.55,99.79Z"/><path class="cls-3" d="M186.71,99.4h0Z"/><path class="cls-3" d="M186.84,99.54l0-.1,0,.1s0,.06.1.08h0C186.89,99.6,186.89,99.58,186.84,99.54Z"/><path class="cls-3" d="M189,59h0a1.15,1.15,0,0,1,.27-.14s0,0,.05-.07,0,.06-.05.07A1.15,1.15,0,0,0,189,59Z"/><path class="cls-3" d="M192.15,58.39l-.11,0,.11,0a.13.13,0,0,0,.18,0A.13.13,0,0,1,192.15,58.39Z"/><path class="cls-3" d="M191.59,59a.42.42,0,0,0-.35-.12c-.06,0-.38.22-.42.14s-.3-.09-.37-.25.08-.32.08-.32-.06-.18-.29-.18-.38.08-.52,0-.08-.09-.25,0l-.07,0,.07,0c.17,0,.09,0,.25,0s.38,0,.52,0,.22,0,.29.18-.14.18-.08.32.28.06.37.25.36-.12.42-.14a.46.46,0,0,1,.35.12s.06,0,.1,0S191.61,59,191.59,59Z"/><path class="cls-3" d="M185,100.11h.13s0,.09.08.13h0s0-.12-.08-.13Z"/><path class="cls-3" d="M188.71,59.46l.09-.1Z"/><path class="cls-3" d="M188.2,74.57a.34.34,0,0,1,.17-.08.32.32,0,0,0,.13-.08.32.32,0,0,1-.13.08A.34.34,0,0,0,188.2,74.57Z"/><path class="cls-3" d="M188.64,74.35a.2.2,0,0,0-.14.06.2.2,0,0,1,.14-.06.93.93,0,0,0,.29,0,.35.35,0,0,0,.15-.07.35.35,0,0,1-.15.07A1.37,1.37,0,0,1,188.64,74.35Z"/><path class="cls-3" d="M188.7,87.73a.47.47,0,0,1,.17,0,.06.06,0,0,0,.06,0,.06.06,0,0,1-.06,0A.47.47,0,0,0,188.7,87.73Z"/><path class="cls-3" d="M182.63,100.29a.38.38,0,0,1,.15,0h0a.38.38,0,0,0-.15,0s-.06,0-.09,0h0S182.59,100.29,182.63,100.29Z"/><path class="cls-3" d="M188.77,88.53a1,1,0,0,1,.2.29l0,.05h.09c.32.06-.5-.19-.17-.43a1.69,1.69,0,0,1,.62-.21c.16,0,.38-.18.11-.18a2.7,2.7,0,0,0-.69.18c0,.09-.18.08-.23.16s0,0,0,0A.14.14,0,0,0,188.77,88.53Z"/><path class="cls-3" d="M192.63,90.3a.11.11,0,0,0,.06,0,.11.11,0,0,1-.06,0,1.73,1.73,0,0,0-.42.14c-.11.06-.17,0-.25.07.08,0,.15,0,.26-.07A1.53,1.53,0,0,1,192.63,90.3Z"/><path class="cls-3" d="M188.1,70.66a.89.89,0,0,1,.16-.25.89.89,0,0,0-.16.25Z"/><path class="cls-3" d="M188.56,71.92s0-.06.06-.1,0,0,0,0,0,0,0,0S188.56,71.89,188.56,71.92Z"/><path class="cls-3" d="M193.09,90.08s.08-.1.12-.11a.24.24,0,0,0-.12.11.4.4,0,0,0-.07.12A.4.4,0,0,1,193.09,90.08Z"/><path class="cls-3" d="M189.35,73.78l0-.06,0,.06Z"/><path class="cls-3" d="M190,80.16a.15.15,0,0,1,0-.08.15.15,0,0,0,0,.08Z"/><path class="cls-3" d="M193,92.08l-.13.1a1,1,0,0,1,.13-.09,1.12,1.12,0,0,0,.25-.28l.09-.12-.09.12A.93.93,0,0,1,193,92.08Z"/><path class="cls-3" d="M190,80.07s.08,0,.11-.09S190,80,190,80.07Z"/><path class="cls-3" d="M188.33,81.05s-.35-.27-.4-.23a.42.42,0,0,1-.37.21c-.26,0-.24.17-.41.27a.21.21,0,0,0-.11.13.24.24,0,0,1,.11-.13c.17-.09.15-.27.41-.27a.4.4,0,0,0,.37-.21s.36.19.4.23a.2.2,0,0,0,.31,0,.22.22,0,0,0,.05-.11.22.22,0,0,1-.05.11A.21.21,0,0,1,188.33,81.05Z"/><path class="cls-3" d="M189.7,80.18c-.07,0-.13,0-.25.07s-.3.1-.33.16h0c0-.06.26-.12.33-.16s.17-.09.25-.07.13.19.19.13S189.76,80.2,189.7,80.18Z"/><path class="cls-3" d="M188.47,86.84h0Z"/><path class="cls-3" d="M190.23,79a.18.18,0,0,1,.07,0s0,0,.06-.06a.09.09,0,0,1-.06.06A.18.18,0,0,0,190.23,79Z"/><path class="cls-3" d="M189,85.94l.11-.08h0Z"/><path class="cls-3" d="M190,79.26a.18.18,0,0,1,.12-.08h0A.18.18,0,0,0,190,79.26Z"/><path class="cls-3" d="M189.37,85.27a.84.84,0,0,0-.27.29h0a.84.84,0,0,1,.27-.29s.34,0,.41,0h0C189.71,85.29,189.42,85.22,189.37,85.27Z"/><path class="cls-3" d="M184.88,70.79a1.55,1.55,0,0,0-.14-.43c-.08-.17,0-.19,0-.34s0,0,0,0a.42.42,0,0,0,.11-.16h0l0,0,.12-.2-.12.2,0,0h0a.46.46,0,0,1-.11.16l0,0c0,.15-.08.17,0,.34a2.16,2.16,0,0,1,.14.43.11.11,0,0,1,0,.07S184.89,70.81,184.88,70.79Z"/><path class="cls-3" d="M190,96.07s.11,0,.12,0h0S190,96.1,190,96.07Z"/><path class="cls-3" d="M183.89,70s0,0,0,0a.08.08,0,0,0,0,0Z"/><path class="cls-3" d="M190.53,95.05a.38.38,0,0,0-.15,0h0a.38.38,0,0,1,.15,0c.05,0,.07,0,.1-.08S190.58,95.05,190.53,95.05Z"/><path class="cls-3" d="M192.42,92.85l.17-.11a.16.16,0,0,0,.07-.07.16.16,0,0,1-.07.07Z"/><path class="cls-3" d="M188.81,96.64h0a.21.21,0,0,1,.11,0,.07.07,0,0,0,.05,0,.07.07,0,0,1-.05,0A.21.21,0,0,0,188.81,96.64Z"/><path class="cls-3" d="M191,94.73s-.05-.07-.11-.07a.17.17,0,0,0-.14,0h0a.17.17,0,0,1,.14,0c.06,0,.08,0,.11.07s0,.07.09.08,0,0,0,0,0,0,0,0A.18.18,0,0,1,191,94.73Z"/><path class="cls-3" d="M189.87,95.82a.23.23,0,0,0-.14,0h0a.22.22,0,0,1,.13,0c.08,0,.09,0,.1.09a.7.7,0,0,0,0,.16h0a.7.7,0,0,1,0-.16S189.94,95.82,189.87,95.82Z"/><path class="cls-3" d="M189.27,96l-.12.05s-.08,0-.1.08h0s.07-.06.1-.08a.28.28,0,0,1,.12,0c.06,0,.1,0,.12.09a.12.12,0,0,0,.09.08h0a.12.12,0,0,1-.09-.08S189.33,96,189.27,96Z"/><path class="cls-3" d="M183.71,68.75l.07-.1h0Z"/><path class="cls-3" d="M183.51,70.61a1.15,1.15,0,0,0-.31.11l-.13.09a.42.42,0,0,1,.13-.08,1.17,1.17,0,0,1,.31-.12,1.83,1.83,0,0,0,.33-.11c.07,0,.11,0,.13-.08s-.06,0-.13.08Z"/><path class="cls-3" d="M186.08,69.33h0l-.15.08,0,0,0,0A.8.8,0,0,1,186.08,69.33Z"/><path class="cls-3" d="M192.08,94.08c0-.19-.07-.26-.14-.25s.13.06.14.25,0,.16.12.16h0C192.1,94.24,192.08,94.17,192.08,94.08Z"/><path class="cls-3" d="M191.14,94.59l0,0Z"/><path class="cls-3" d="M188,69.39s.08-.06.11-.1h0S188,69.35,188,69.39Z"/><polygon class="cls-3" points="192.3 93.99 192.31 93.98 192.3 93.99 192.3 93.99"/><path class="cls-3" d="M191.58,94.38a.39.39,0,0,0-.15,0,.33.33,0,0,1-.1.06l-.06.05.06,0,.1-.07a.26.26,0,0,1,.15,0s0,.08.07.11,0,0,.06,0a0,0,0,0,1-.06,0S191.62,94.38,191.58,94.38Z"/><path class="cls-3" d="M184.39,71.16l-.11.18h0Z"/><path class="cls-3" d="M184.21,67.06l0,0a2.65,2.65,0,0,1,.33-.34h0a2.65,2.65,0,0,0-.33.34Z"/><polygon class="cls-3" points="185.59 69.65 185.58 69.65 185.58 69.65 185.59 69.65"/><path class="cls-3" d="M177,96.77s0,0,0,0h-.07v0s.09.18.14.18S177,96.87,177,96.77Z"/><path class="cls-3" d="M172.33,98.79a1.68,1.68,0,0,1,.21-.18.94.94,0,0,0,.12-.22c0-.07.1-.13,0-.24h0a1.08,1.08,0,0,0-.11.18c0,.07-.11,0-.15.09a1.09,1.09,0,0,1-.45.43.5.5,0,0,0-.14.28c0,.25.08.16.12,0a.24.24,0,0,1,.16-.15l.1,0C172.14,99,172.3,98.85,172.33,98.79Z"/><path class="cls-3" d="M192.64,93.91Z"/><path class="cls-3" d="M176.5,97.74c-.07.08-.1,0-.15,0h0c-.08,0,0,.2-.15.2s0-.12-.09.07.11.11.16.11.22,0,.24,0a.67.67,0,0,0,.09-.21C176.61,97.75,176.57,97.66,176.5,97.74Z"/><path class="cls-3" d="M191.92,90.55l0,0Z"/><path class="cls-3" d="M189.2,74.15h0s0,0,0,0S189.19,74.17,189.2,74.15Z"/><path class="cls-3" d="M188.85,86.29l0,0Z"/><path class="cls-3" d="M168.76,103.4s-.06.07-.1.07,0-.19-.1-.23h0c-.05,0,0,.17,0,.24a1.33,1.33,0,0,1-.1.28c0,.07-.14.08-.19.18s0,.11,0,.2.11.12.19.15a.15.15,0,0,0,.18-.11c0-.17-.09-.39,0-.49S168.83,103.47,168.76,103.4Z"/><path class="cls-3" d="M148.16,103.24s-.06,0-.08,0a.73.73,0,0,1,.41.18c.06.07.09.26.21.23a.5.5,0,0,0,.31-.18c.11-.12.12-.26.27-.09a.3.3,0,0,0,.29.11c.18,0,.16-.06.31,0a1.19,1.19,0,0,0,.42,0,1.61,1.61,0,0,1,.31,0c.06,0,.35.14.39,0a.5.5,0,0,0,0-.46c-.08-.08-.19-.28-.1-.41s0-.24.06-.34a.36.36,0,0,1,.21-.25.27.27,0,0,1,.31.09.57.57,0,0,0,.33.18,1.58,1.58,0,0,1,.42.09c.12,0,.26.23.37.23a2.16,2.16,0,0,1,.36,0c.11,0,.21.14.33.14s.23.1.37.13.25.1.21.26,0,.14.14.18.31.08.36,0,.13-.09.33-.09a.6.6,0,0,1,.37.09c.17.09.21.27.34.41a1.16,1.16,0,0,1,.25.43c0,.08,0,.32.08.28s.21-.09.19-.21.06-.34.12-.27.16,0,.25,0,.16,0,.25,0,.11.16.27.16.17.07.27.07a.74.74,0,0,1,.33,0,.92.92,0,0,1,.17.29c.05.11.15.14.06.19s-.19.09-.19.23a.31.31,0,0,0,0,.11c0,.11-.07.29,0,.29s.18.2.27.16a.43.43,0,0,1,.38.07,1,1,0,0,0,.35.14c.08,0,.29.13.31.23s.05.18.08.31a.48.48,0,0,0,.17.3c.06,0,.2.12.29.05s.21,0,.27-.09.2-.13.27-.21.21-.27.29-.23.31.11.38,0,.15,0,.31,0,.12-.07.29,0,.26,0,.33.13a.72.72,0,0,0,.23.23c.1.06.17.14.27.21a2.79,2.79,0,0,0,.37.14c.09,0,.13-.3.21-.23a1.75,1.75,0,0,0,.29.18s.24.15.29,0a2.77,2.77,0,0,0,0-.41c.12-.07.16-.24.32-.32a.26.26,0,0,1,.29,0c.14.06.18,0,.29-.07l.27-.25c.08-.09.28,0,.35-.07s.14-.23.19-.21.13.17.33.12.25-.07.31,0,.19.22.19.29.23,0,.27,0h0v0a.87.87,0,0,0-.16-.17c-.05-.06,0-.18,0-.25s-.11-.1-.18-.14a2.35,2.35,0,0,0-.22-.1.28.28,0,0,1-.12-.14.44.44,0,0,1,0-.2c0-.07,0-.14,0-.21v-.41c0-.1,0-.27,0-.41v-1.25a1.45,1.45,0,0,1,.06-.3c0-.12,0-.29,0-.39s0-.12-.06-.23,0-.32,0-.34.07-.34.1-.5l0-.06s0-.1,0-.15a.51.51,0,0,1,.09-.18,1,1,0,0,0,.08-.22c.05-.1.09-.14.09-.23s-.1-.13,0-.07.1,0,.14-.09a1.24,1.24,0,0,1,.17-.27,2.75,2.75,0,0,0,.19-.28,1,1,0,0,1,.13-.16l.12-.11,0,0a.75.75,0,0,1,.18-.13l.17-.14.16-.1s0-.2.07-.12.15,0,.2,0,.18,0,.25-.07.12.09.23.09a.6.6,0,0,1,.19.06.2.2,0,0,0,.2,0s.06-.16.1-.22a.93.93,0,0,1,.16-.18c0-.06.11-.12.15-.18a1.74,1.74,0,0,0,.18-.22.69.69,0,0,1,.22-.23c.08,0,.13,0,.2,0s.1,0,.14-.1a.24.24,0,0,1,.15-.13l.21-.15a.76.76,0,0,1,.18-.09.65.65,0,0,0,.15-.18c0-.08.12-.14.17-.2a1.29,1.29,0,0,1,.17-.16l0,0a1,1,0,0,1,.2-.15l.22-.13a1.76,1.76,0,0,0,.2-.09l.28-.07a1.84,1.84,0,0,1,.33,0c.1,0,.16.09.21.15a.15.15,0,0,1,.08.15s-.1,0-.1,0a.85.85,0,0,0,0,.23.64.64,0,0,0,.41.28.78.78,0,0,0,.22,0c.08,0,.17,0,.26,0h.2l.2,0h.24a.31.31,0,0,1,.18,0,.17.17,0,0,0,.2,0h.06c.06-.05.29,0,.36,0a.51.51,0,0,1,.29.1c.07,0,.09.09.16.16a.36.36,0,0,1,.07.17c0,.13,0,.16-.09.16s-.1.07-.06.14a.51.51,0,0,0,.21.15s.1.06.16.08,0,0,0-.08.06-.07.11-.07.17-.2.1,0a.44.44,0,0,0,0,.16c0,.06.14,0,.19,0l.16,0V97.7a.2.2,0,0,0,.09,0c.17,0,.08-.12,0-.2h0l0,0s0,0-.05,0V32a.46.46,0,0,1-.07.07,3.23,3.23,0,0,0,0,.44,1.06,1.06,0,0,1-.12.43c-.06.14-.2.14-.33.14a1.07,1.07,0,0,0-.32.16,2.39,2.39,0,0,0-.33.25.56.56,0,0,1-.37.11,1.88,1.88,0,0,1-.46-.14,3.89,3.89,0,0,1-.41-.16c-.15,0-.3.06-.42.1a.33.33,0,0,1-.35-.14c-.14-.16-.2,0-.15-.23s-.09-.25-.06-.39.27-.23.31-.27.23-.18.09-.34-.08-.34-.13-.46-.24,0-.31.05,0-.27.06-.39a2.32,2.32,0,0,0,.06-.46c0-.14.2-.27.27-.38s.05-.19,0-.32-.21-.1-.25,0,0,.19-.12.05a1.27,1.27,0,0,1-.13-.32c0-.06-.21-.19-.25-.23l-.22-.25c-.1-.1-.25,0-.38.05a2.18,2.18,0,0,1-.44.11c-.13,0-.18-.15-.31-.18a1.54,1.54,0,0,0-.43-.05c-.14,0-.27.07-.27.23s-.22.2-.25.2-.16-.31-.17-.34a.77.77,0,0,1,0-.52c0-.1-.08-.24-.08-.34a.67.67,0,0,0-.12-.46.93.93,0,0,0-.29-.27H168c-.08,0,0-.2,0-.3s-.21,0-.27,0-.3.12-.41.18-.24-.05-.35-.11a.76.76,0,0,1-.3-.23,1.29,1.29,0,0,1-.06-.48,1.86,1.86,0,0,0-.08-.41,1.89,1.89,0,0,0-.1-.36c-.07-.15.1-.15.06-.32a.73.73,0,0,0-.15-.35c-.09-.1-.16-.09-.23-.27a1.23,1.23,0,0,0-.25-.48c-.13-.15-.24-.05-.31.05s-.33,0-.39,0a1.3,1.3,0,0,0-.31.21c-.12.17-.25,0-.25.25s-.14.39-.25.36a1.27,1.27,0,0,1-.27-.18c-.08-.08-.2,0-.31,0s-.06-.31-.17-.37l-.1,0s-.19-.32-.21-.34-.06-.24-.23-.28-.27,0-.37-.11a.32.32,0,0,1-.09-.41c.06-.13-.07-.29-.1-.41a.38.38,0,0,1,.08-.34.59.59,0,0,0,.06-.37c0-.13-.11-.2-.2-.25s-.17-.41-.19-.5,0-.33-.07-.43h0l0,0-.13.07-.15,0-.18,0c-.05,0-.08.1-.14.1s-.09.07-.15.08a.59.59,0,0,1-.19.05.48.48,0,0,0-.17,0c-.07,0-.11-.08-.17-.07a1.34,1.34,0,0,1-.18.07l-.13.06-.15.07a1,1,0,0,0-.15.07h0a.66.66,0,0,0-.2.06.67.67,0,0,1-.15.06l-.17.06a1.17,1.17,0,0,0-.2.06l-.16,0a1.08,1.08,0,0,1-.19,0,.4.4,0,0,1-.15,0,1,1,0,0,0-.17,0,.52.52,0,0,0-.16.06l-.16,0a.39.39,0,0,1-.15,0l0,0-.22.1-.18.06-.24,0a.44.44,0,0,0-.16.06l-.16.07a.53.53,0,0,0-.12.1l-.11.08a.57.57,0,0,0-.11.11c-.05.05-.07.16-.11.21l-.11.15a.31.31,0,0,1-.11.09l-.14.1a.25.25,0,0,1-.17,0,.13.13,0,0,0-.11.09.16.16,0,0,0,0,.15c0,.05,0,.09,0,.14s0,.12,0,.16,0,.12,0,.15,0,.07,0,.14a.91.91,0,0,1,0,.17.61.61,0,0,1,0,.15c0,.08,0,.14,0,.2a.36.36,0,0,0,0,.11l-.07.14a.89.89,0,0,1-.08.17s0,.09,0,.13a.28.28,0,0,0,.05.17l0,.12c0,.06,0,.1,0,.16v.29l0,0a.55.55,0,0,0,0,.18.31.31,0,0,0,.05.12.48.48,0,0,1,0,.17c0,.08,0,.08,0,.15l.09.07s0,.15,0,.16a.14.14,0,0,1-.09.08s0,.12,0,.16V28a.88.88,0,0,1,0,.17.4.4,0,0,0,0,.15c0,.06,0,.11,0,.16a1,1,0,0,0,0,.14.89.89,0,0,1,0,.15c0,.07,0,.09.06.12a.81.81,0,0,0,.1.09.14.14,0,0,1,.06.13c0,.08,0,.08-.09.1s-.09,0-.11.08a1.16,1.16,0,0,1,0,.18,1,1,0,0,0,0,.17c0,.07,0,.1,0,.16a.91.91,0,0,1,0,.17.5.5,0,0,0,0,.16s.07.09.1.11l.15,0s0,.08,0,.12a.26.26,0,0,0,.07.16c0,.06.08.07.11.12a.14.14,0,0,0,.08.09s.06.08.09.12l.09.13c.06.07-.06.06-.09.05a.24.24,0,0,0-.11-.06l-.13-.05c-.07,0-.08,0-.13-.07a.21.21,0,0,1,0-.16s-.09,0-.13,0a.45.45,0,0,0-.16,0c-.05,0-.08.11-.11.15a1,1,0,0,1-.1.17.75.75,0,0,0-.06.13.42.42,0,0,0,0,.16.63.63,0,0,0,0,.19.74.74,0,0,1,0,.14,1.11,1.11,0,0,1-.17.33.25.25,0,0,1-.12.08.38.38,0,0,0-.13.06l-.13.07a.35.35,0,0,0-.11.1l-.12.13a1.31,1.31,0,0,1-.11.12,1.42,1.42,0,0,1-.13.12l-.18.17a.34.34,0,0,1-.12.12s-.08.09-.12.12l-.11.12s-.08,0-.12.08a.56.56,0,0,1-.17.09l-.15.1a.42.42,0,0,1-.14.09l0,.07s-.11.08-.13.11,0,.17-.07,0-.11,0-.18,0-.09,0-.15.08-.16,0-.2,0-.1-.06-.19-.06-.13.1-.15.13a.49.49,0,0,1-.21.08c-.07,0-.14,0-.2,0l-.19,0a.48.48,0,0,0-.19.09.75.75,0,0,1-.2.1c-.08,0-.14,0-.2,0a.37.37,0,0,1-.21.06c-.09,0,0-.16-.09-.12s-.06.08-.16.08a.93.93,0,0,0-.22,0c-.06,0-.13.08-.2.1l-.19.07a.43.43,0,0,0-.13.14.73.73,0,0,1-.23.16l-.16.1c-.07,0-.1.09-.17.13s-.09.1-.13.14l-.18.13a.39.39,0,0,1-.21.08.42.42,0,0,0-.16.11,1.07,1.07,0,0,1-.16.14.42.42,0,0,1-.22,0c-.07,0-.12.07-.16.09l0,0v2.83h.73s.11,0,.14,0l.14,0,.12-.07.11-.09a.19.19,0,0,1,.1,0s-.06.07-.08.11l-.11.09a.34.34,0,0,0-.12.09l-.14.07-.15,0-.15,0-.12.06-.14,0h-.33v64.3Z"/><path class="cls-3" d="M188.2,74.57a.37.37,0,0,0-.08.19A.37.37,0,0,1,188.2,74.57Z"/><path class="cls-3" d="M168.71,102.73a.11.11,0,0,0,0,0c-.05.1-.22,0-.15.15a.26.26,0,0,0,.16.13s0-.1,0-.15a1,1,0,0,0,0-.17Z"/><path class="cls-3" d="M192.64,93.9s.07,0,0,0Z"/><path class="cls-3" d="M182.83,100.31h0Z"/><path class="cls-3" d="M182.21,100.6a.42.42,0,0,1-.12,0A.42.42,0,0,0,182.21,100.6Z"/><path class="cls-3" d="M195.65,45.46a.21.21,0,0,1,.13,0,.22.22,0,0,0,.16-.07.2.2,0,0,1-.15.06A.21.21,0,0,0,195.65,45.46Z"/><path class="cls-3" d="M184.16,100.79v0s0,0,0,0Z"/><path class="cls-3" d="M184.63,100.05h0Z"/><path class="cls-3" d="M178.35,99V99c0,.19.12-.22.12-.23s.09.1.13.13.14.15.14,0-.07-.16-.11-.24l-.1-.14a.43.43,0,0,0-.15-.2.21.21,0,0,0-.1,0h0c-.08,0-.14.08-.06.19s.3.33.18.09,0-.22,0-.08.13.11.1.22S178.35,98.64,178.35,99Z"/><path class="cls-3" d="M176.69,97.83a.36.36,0,0,0,.07.27c0,.05,0-.12,0-.19a.81.81,0,0,1,0-.22.28.28,0,0,0,0-.08h0A.51.51,0,0,0,176.69,97.83Z"/><path class="cls-3" d="M184.06,100.83Z"/><path class="cls-3" d="M191.26,94.51l0,0Z"/><path class="cls-3" d="M196.06,45.22h0l-.05.06Z"/><path class="cls-3" d="M192.94,51.89c0,.07-.05.14-.08.23C192.89,52,192.91,52,192.94,51.89Z"/><path class="cls-3" d="M193.9,49.8h0a1.22,1.22,0,0,1-.12.19A1.22,1.22,0,0,0,193.9,49.8Z"/><path class="cls-3" d="M189.46,60.14s0,0,0,0S189.45,60.15,189.46,60.14Z"/><path class="cls-3" d="M191.23,41.92s0-.05.05-.06S191.25,41.9,191.23,41.92Z"/><path class="cls-3" d="M150.37,110.21c-.09,0-.1-.09-.13-.09h0a.2.2,0,0,0,0,.09,1.16,1.16,0,0,0-.08.42c0,.2.24-.13.37-.1S150.68,110,150.37,110.21Z"/><path class="cls-3" d="M191.22,41.94l-.05.06.05-.06Z"/><path class="cls-3" d="M194.59,42.9l.11-.1Z"/><path class="cls-3" d="M194.87,42.82l0,0S194.89,42.81,194.87,42.82Z"/><path class="cls-3" d="M163.77,127.79H164l-.13,0Z"/><path class="cls-3" d="M185.67,69.57h0Z"/><path class="cls-3" d="M168.94,102s0-.09.07-.11-.14-.21-.16-.26,0-.12,0-.12l0,0s0,.16-.05.24,0,.06,0,.09S168.83,102,168.94,102Z"/><path class="cls-3" d="M186.19,69.26l.1-.1Z"/><path class="cls-3" d="M184.17,67.56h0l-.14.15Z"/><path class="cls-3" d="M185.94,65h0l0,0Z"/><path class="cls-3" d="M162.39,107.14c0,.1.17.14.24.14s.29,0,.13,0-.1-.15-.1-.22.16-.1,0-.21l0,0s-.07,0-.12.12C162.57,106.81,162.41,107,162.39,107.14Z"/><path class="cls-3" d="M189.4,73.69Z"/><path class="cls-3" d="M189.68,42.07h0Z"/><path class="cls-3" d="M181.09,99.44h0a.17.17,0,0,0-.12,0A.18.18,0,0,1,181.09,99.44Z"/><path class="cls-3" d="M189.86,41.83c0,.06-.05.15-.1.17s0,0,0,0,0,0,0,0S189.83,41.89,189.86,41.83Z"/><path class="cls-3" d="M179.22,98.89a.23.23,0,0,0,.06-.13.26.26,0,0,0,0-.15s-.1,0-.1-.1a.31.31,0,0,1,0-.13,1.09,1.09,0,0,0,.08-.15c0-.08,0-.09-.05-.14s-.05-.07-.07-.12a.47.47,0,0,0-.07-.12l-.06,0,0,0a.25.25,0,0,1,.08.12s.06.07.07.12.05.06.05.14a1.09,1.09,0,0,1-.08.15.19.19,0,0,0,0,.13c0,.06.07.07.1.1a.26.26,0,0,1,0,.15.23.23,0,0,1-.06.13s-.05.07-.07.12h0C179.17,99,179.2,98.94,179.22,98.89Z"/><path class="cls-3" d="M177.65,98.05l0,0h0Z"/><path class="cls-3" d="M179.08,99.14h0s0,0,0,0-.05,0,0,0Z"/><path class="cls-3" d="M179.15,99l0-.06a0,0,0,0,0,0,0h0l0,0s-.15.13,0,.17c0,0,.05-.07.08-.13Z"/><path class="cls-3" d="M188.39,41.3a.33.33,0,0,1,0-.2.27.27,0,0,0,0,.2c.06.12.06.17,0,.23S188.45,41.42,188.39,41.3Z"/><path class="cls-3" d="M177.93,98.09h.13s0,0,.05,0,0,0-.05,0Z"/><path class="cls-3" d="M177.76,98.09h0l-.06,0c0,.07.06.05.11,0Z"/><path class="cls-3" d="M188.35,41.62l0,0,0,0-.08.1Z"/><path class="cls-3" d="M179.62,99.13l-.07,0,.07,0c.06,0,.08.05.1.09h0S179.68,99.11,179.62,99.13Z"/><path class="cls-3" d="M181.78,99.9s0-.1,0-.11,0,.09,0,.11,0,.12.06.14l.12,0-.12,0C181.78,100,181.76,100,181.78,99.9Z"/><path class="cls-3" d="M181.94,100.36a.18.18,0,0,0,0-.14s0-.14,0-.15h0s0,.12,0,.15a.18.18,0,0,1,0,.14c-.05,0,0,.08,0,.11l0,0,0,0S181.89,100.41,181.94,100.36Z"/><path class="cls-3" d="M196.5,44l0-.06a1,1,0,0,1,.29-.32h0a1.12,1.12,0,0,0-.29.32Z"/><path class="cls-3" d="M182.57,100.42l0,0,0,0Z"/><path class="cls-3" d="M180,99.11s0,0,0,0,0,0,0,0Z"/><path class="cls-3" d="M191.63,41.46h0a1.75,1.75,0,0,0-.12.32h0A1.75,1.75,0,0,1,191.63,41.46Z"/><path class="cls-3" d="M180,99.2a.14.14,0,0,0,0-.07s0,0,0,.06,0,.09.06.12h0C180,99.28,180.05,99.26,180,99.2Z"/><path class="cls-3" d="M180.67,99.56s-.06,0-.11-.08a.31.31,0,0,1-.09-.11c0-.05-.05-.07-.08-.13l-.06-.11s0,0,0,0,0,0,0,0l.06.11a1.48,1.48,0,0,0,.08.13.31.31,0,0,0,.09.11c.05,0,.08,0,.11.08l.1.1s0,0,0,0,0,0,0,0Z"/><path class="cls-3" d="M181.19,99.66s0-.09.05-.11.06-.07,0-.09h0c.06,0,0,.07,0,.09s-.06.06-.05.11a.38.38,0,0,0,.09.09A.38.38,0,0,1,181.19,99.66Z"/><path class="cls-3" d="M188.69,80.86h0a2.1,2.1,0,0,0,.26-.13.38.38,0,0,0,.08-.11.38.38,0,0,1-.08.11A2.1,2.1,0,0,1,188.69,80.86Z"/><path class="cls-3" d="M176,97.23h0Z"/><path class="cls-3" d="M185.46,87.48c.33.06-.49-.19-.16-.44a1.51,1.51,0,0,1,.62-.2c.15,0,.38-.19.1-.19a3.28,3.28,0,0,0-.68.19c0,.09-.18.07-.23.16s-.08.23-.18.32S185.42,87.47,185.46,87.48Z"/><path class="cls-3" d="M175.94,97.58h0s-.05,0-.07,0l-.09-.08h0s0,0,0,.08a.55.55,0,0,0,.14.09l.07,0v-.09s0,0,0,0Z"/><path class="cls-3" d="M175.86,31.48a.18.18,0,0,1-.1.06.5.5,0,0,0-.1.14.5.5,0,0,1,.1-.14A.18.18,0,0,0,175.86,31.48Z"/><path class="cls-3" d="M176.11,97.24A.47.47,0,0,1,176,97a.11.11,0,0,0,0,0,.11.11,0,0,1,0,0,.42.42,0,0,0,.14.28l.1,0h0Z"/><path class="cls-3" d="M182.25,75.15a1.48,1.48,0,0,1,.09.51,4.87,4.87,0,0,0,.06.55c.11.48.2-.12.2-.32a2.65,2.65,0,0,0-.11-.74c.12,0-.18-.22-.21-.36s0-.08-.05-.08h0C182.17,74.71,182.14,74.9,182.25,75.15Z"/><path class="cls-3" d="M175.71,97.42l0,0Z"/><path class="cls-3" d="M176.46,97.26h0l-.07-.07Z"/><path class="cls-3" d="M175.67,97.88a.54.54,0,0,0-.25,0h0a.54.54,0,0,1,.25,0,1,1,0,0,1,.23.07s.11.11.14.09-.11-.07-.14-.09A.68.68,0,0,0,175.67,97.88Z"/><polygon class="cls-3" points="180.38 38.1 180.38 38.11 180.38 38.11 180.38 38.1"/><path class="cls-3" d="M177.25,98c-.05,0-.07,0-.07-.1a.88.88,0,0,0,0-.16.35.35,0,0,0-.06-.14s-.1-.09-.09-.11.05-.09,0-.11,0,.11,0,.11.09.11.09.11a.24.24,0,0,1,.05.14.45.45,0,0,1,0,.16c0,.07,0,.08.07.1l.09.08s0,0,.07,0,0,0-.07,0Z"/><path class="cls-3" d="M181.75,37.67l0,0Z"/><path class="cls-3" d="M176.3,97.33h0l-.09,0v.09a.71.71,0,0,0,.15.15c.11.06,0-.17,0-.19l0,0S176.33,97.34,176.3,97.33Z"/><path class="cls-3" d="M181.05,37.73A.73.73,0,0,0,181,38h0A1.12,1.12,0,0,1,181.05,37.73Z"/><path class="cls-3" d="M181,38s0,.06,0,.06S180.94,38,181,38Z"/><path class="cls-3" d="M176.21,96.91s.06.15.09.19h0S176.23,96.93,176.21,96.91Z"/><path class="cls-3" d="M176.32,32l.05,0-.05,0Z"/><path class="cls-3" d="M176.87,97.29a.15.15,0,0,0-.07-.12h0a.19.19,0,0,1,.07.12c0,.06,0,.11.07.13h0C176.88,97.4,176.89,97.35,176.87,97.29Z"/><path class="cls-4" d="M139.94,73.46h0"/><path class="cls-5" d="M139.88,73.49s0,0,0,0h0s0,0,0-.07a0,0,0,0,0,0,0s0,0-.05,0h0s0,0,0,.07a.12.12,0,0,0,0,.07Z"/><path class="cls-5" d="M148.2,35.85l0,0-.08.07h0c-.05,0-.15,0-.18,0a.48.48,0,0,0-.12.16.45.45,0,0,0-.1.18l-.05.21a.88.88,0,0,1-.1.22.68.68,0,0,0-.07.2,1.8,1.8,0,0,1-.08.21l-.06.19v0a.91.91,0,0,1-.07.14s0,.09,0,.14a.75.75,0,0,1-.05.16.83.83,0,0,0,0,.15.26.26,0,0,0,0,.15s.07,0,.09.08a.5.5,0,0,1,.05.13.39.39,0,0,1,.06.11s.05.06.1.06h.16s.08-.05.12-.06.15,0,.05,0a.24.24,0,0,0-.11.06c-.09,0,0,.06.06.06h.15l.16,0h.23V35.85Z"/><path class="cls-5" d="M117.58,49.7s-.07,0-.08,0,0,0,0-.05,0,0,0,.05,0,0,0,.07,0,0,.06,0,0,0,0,0,0,0,0,.07,0,0,0,0,0,0,0,.08a.22.22,0,0,0,0,.08h.14a.06.06,0,0,1,.06,0,.11.11,0,0,1,.07,0s0,0,.06,0,.06,0,.07,0,0,0,0,0a.25.25,0,0,0,0-.08s0,0,0-.06,0,0,0,0a.09.09,0,0,0,.07,0s0,0,.07,0l.06,0s0,0,.08,0l0,0s0,0,.07,0h.15a.21.21,0,0,0,.08,0l.06,0,0,0,.06,0a.18.18,0,0,0,.07,0l0,0a0,0,0,0,1,.06,0l.07,0s0,0,0-.05l.05-.06.07,0,.07,0a.12.12,0,0,0,.07,0,.09.09,0,0,1,.07,0s0,0,0,.06,0,0,.06,0,0,0,.07-.05a.24.24,0,0,0,0-.08s0,0,0,0a.06.06,0,0,1,.07,0s0,0,0,.05,0,0,0,0,0,0,0,.06,0,0-.06,0l0,0,0,.07a.1.1,0,0,1,0,0,.16.16,0,0,0,0,.07.14.14,0,0,1,0,.07s0,.06,0,.09,0,0,0,.07,0,0,0,.06a.11.11,0,0,0,.08,0s0,0,0-.06,0,0,.06,0a.07.07,0,0,0,0,0s0,0,.07,0,0,0,0,.05.06,0,.06,0,0,0,0-.06,0-.08,0-.09,0,0,0-.07,0,0,.06,0,0,0,0,0,0,0,0,0,0,0,0,0,0,0,.07,0,0,0,0,0h0a.1.1,0,0,1,.08,0s0,0,0,.06a.31.31,0,0,0-.07.09l-.1.08a.19.19,0,0,0-.1.08s0,0,0,0h.23l.09,0,.07,0,.07.06h.08c.05,0,0,.07,0,.08a.3.3,0,0,1-.1.07l0,.06-.07,0h-.08s0-.08,0-.08,0-.07,0-.08,0-.05-.07-.05h-.21s-.06,0-.08.06l-.12,0-.09,0-.07,0s-.06,0-.08,0h-.07a.11.11,0,0,1-.08,0s0,0,0-.06a.19.19,0,0,0,0-.08s-.1,0-.12,0h-.12l-.1,0-.08.05-.09,0s0,0,0,0,0-.06,0-.09a.08.08,0,0,1,.06,0s0-.08,0-.08-.07,0-.07,0a.15.15,0,0,0-.05.07.41.41,0,0,0,0,.09s0,0,0,.06,0,0,0,0,0,0-.06,0,0-.06,0-.08l0-.09a1,1,0,0,1,0-.1s0-.07,0-.1a.09.09,0,0,0,0-.1c0-.05-.07,0-.11,0a.2.2,0,0,0-.09.07l-.1.08s0,.06,0,.1a.35.35,0,0,1,.06.14,1,1,0,0,0,0,.1.14.14,0,0,1,0,.09.18.18,0,0,1,0,.07l-.07,0s0,0,0,0a.13.13,0,0,0,0-.08s0,0,0,0a.24.24,0,0,0,0,.08.09.09,0,0,0,0,.06l0,.07a.11.11,0,0,1,0,.07.17.17,0,0,0,0,.07s0,.06,0,0,0,0,0-.06l.07,0s0,0,0,0h.07s0,0,.07,0l.06,0s0,0,0,0,0,0,.06.05,0,0,0,.08,0,0-.06,0l-.06,0s0,.07,0,.08l.06,0s0,.05,0,.07l0,.09a.25.25,0,0,1,0,.08s0,.06,0,.09,0,.06,0,.09,0,0,0,.07,0,0,0,.07,0,0,0,0H119a.15.15,0,0,0,0-.1s0,0,0,0,0,0,.06,0,0-.06,0-.08,0,0,0-.07a.41.41,0,0,1,0-.08l0,0s0-.07,0-.09a.28.28,0,0,1,0-.09l.07,0h.23s0,0,.07,0,0,0,0,0l.07,0s0,0,0,0h.09l.07,0s0,0,0,0,0,.06,0,.08,0,0,.06,0h.24s0,0,0,0a.09.09,0,0,1,0,.06l0,.06a.17.17,0,0,1,0,.1v.09a0,0,0,0,0,0,.06l.07.06a.2.2,0,0,1,0,.08.17.17,0,0,1,0,.1s0,0,0,.07a.28.28,0,0,0,0,.09v.18l0,0-.07,0-.08,0-.07,0-.08,0-.07,0-.07,0H120a.09.09,0,0,0-.06,0,.11.11,0,0,1-.08,0h-.08l0,0a.21.21,0,0,0-.11,0,.28.28,0,0,1-.13,0l-.09,0c-.06,0-.09.09-.15.09l-.14,0a.08.08,0,0,0-.08,0l-.09.07a.09.09,0,0,1-.07,0s0,0-.07,0-.08,0-.11.06l-.12,0a.15.15,0,0,1-.09,0h-.18l-.09,0-.08,0H118a.08.08,0,0,0-.07,0v.09s0,0,0,.06,0,0,0,.06l-.07,0s0,0-.06,0,0,0,.06,0h.07l.07,0,.05,0h.16a.11.11,0,0,1,.07,0s0,0,.06,0l.07,0a0,0,0,0,1,0,0h0a.15.15,0,0,0,.06,0l.06,0,.08,0,0,0s0,0,.07,0h.08s0,0,.06,0l.06,0h.08a.1.1,0,0,1,.08.05s0,0,.05,0l.07,0,0,0s0,0,0,.07a.1.1,0,0,0,.05,0l.08,0a.1.1,0,0,1,0,0,.16.16,0,0,1,0,.07l.05.06,0,0s0,0,0,.05a.31.31,0,0,1,0,.08.16.16,0,0,0,0,.07.21.21,0,0,0,0,.06h0a.34.34,0,0,1,.06.06l.05.07a.43.43,0,0,0,0,.07.41.41,0,0,1,0,.09s0,.06,0,.09a.29.29,0,0,1,0,.09s0,.06,0,.09,0,.05,0,.08,0,0,0,.09,0,.06,0,.09,0,.06,0,.08,0,.06,0,.08,0,.05,0,.06h0s0,0-.07,0a.61.61,0,0,0,0,.14s0,.06,0,.08,0,.07.07.08h.29s0,0,.07-.06a.06.06,0,0,1,.07,0,.31.31,0,0,0,0,.09l.07,0h.24a.08.08,0,0,0,.07,0,.07.07,0,0,0,0,0,0,0,0,0,1,.06,0h0s0,0,.08,0,.06,0,.07-.05,0-.06,0-.08a.22.22,0,0,0,.05-.11.2.2,0,0,0,0-.11l0-.1s.06-.07.07-.08l.12-.08a.91.91,0,0,1,.13-.08l.07-.06s0,.06.06.06h.08s0-.08.1,0,0,.08.08.12a.39.39,0,0,1,.1.08s0-.08.11-.08h.14s.07,0,.09,0a.48.48,0,0,0,0-.12.61.61,0,0,0,0-.14.2.2,0,0,1,0-.15s0-.05.07,0,.06,0,.11,0l.09.13a.47.47,0,0,0,.06.15,1.39,1.39,0,0,1,.06.13s.06,0,.08.08a.93.93,0,0,1,0,.13.54.54,0,0,0,.09.12.41.41,0,0,1,.08.13s0,.08,0,.12a.09.09,0,0,0,.07,0s0,0,.06,0,.08,0,.09,0a.08.08,0,0,1,.07,0,.05.05,0,0,0,.06,0l.06,0h.17a.06.06,0,0,0,.07,0l.06-.07s0,0,.07-.06,0,0,.06,0a.11.11,0,0,0,.06.07l.06,0s0,0,0,0,0,.05.06.06l.06,0s.06,0,.08,0h.06l0,0a.13.13,0,0,0,.07,0h.32a.09.09,0,0,1,.1,0s.1,0,.14,0,0-.07,0-.09a.53.53,0,0,1,0-.12s0-.13,0-.06,0,.08,0,.13a.49.49,0,0,0,0,.12s0,0,.06.11a.69.69,0,0,0,.07.15.75.75,0,0,0,.07.12l0,.06s0,.05,0,.07a.21.21,0,0,1,0,.06l0,.08s0,0,0,.05h.09s0,0,0-.05.05,0,.07,0l.08,0H126s0-.05,0-.06a.25.25,0,0,1,0-.07s0,0,0-.06a.19.19,0,0,1,0-.08.07.07,0,0,0-.06,0h.07a.11.11,0,0,0,.08,0s0,0,0-.06,0-.07,0-.09l0,0h.09a1.17,1.17,0,0,0,0-.11l.07-.08a.86.86,0,0,1,.07-.1s0,.1,0,.14l0,.14a.93.93,0,0,0-.05.1s0,0-.07,0a.11.11,0,0,1-.08,0s0,.06,0,.08,0,0,0,.07,0,0-.05.06a.22.22,0,0,0,0,.08s0,0,0,.08a.31.31,0,0,0,0,.08s.07,0,.07,0,0,0,0,0h.08l.08,0s0,0,0,0,0-.05,0-.07h-.15s0,0,0,0a.08.08,0,0,1,.08,0h.08s0,0,.07,0a.12.12,0,0,1,.05,0s-.05,0-.08,0,0,0,0,.05,0,0,0,.07.07,0,.08,0a.09.09,0,0,1,.07,0l0,0,.05,0,.06,0,.06.06s0,0,.05.05a.08.08,0,0,0,0,0l0,0,0,.05s0,0,.06,0v0s0,0,0,.08a.21.21,0,0,0,0,.07l.06,0,.06.06,0,0s0,0,0,0,0,0,0,.06l0,.07a.19.19,0,0,0,0,.07l0,.07s0,.06,0,.08v.19a.28.28,0,0,1,0,.09s0,.07,0,.09l0,.05s0,.08,0,.1v.09a.19.19,0,0,0,0,.08l0,.08a.29.29,0,0,1,0,.09s0,.06,0,.08v.09s.06,0,.06,0,0,0,.07,0,0,0,.07,0l.06,0,.07,0s.06,0,.07,0,0-.06,0-.07l0,0s0,0-.06-.05l-.06,0a.18.18,0,0,1,0-.07.29.29,0,0,1,0-.09.29.29,0,0,0,0-.09l0-.08s0-.06,0-.09,0,0,0-.08,0-.06,0-.09,0,0,0-.06l0-.07a.28.28,0,0,0,0-.09s0,0-.05,0a.19.19,0,0,1,0-.08s0-.05,0-.07,0,0,0,0l.06,0s0,.06,0,.09a.11.11,0,0,0,0,.08.09.09,0,0,0,0,.07s.06,0,.07,0a.07.07,0,0,1,.05,0l.07,0,.09,0a.11.11,0,0,1,.06,0s0,0,0,0a0,0,0,0,0,.05,0h0v-.27a.2.2,0,0,0,0-.07s0,0,0-.07a.28.28,0,0,1,0-.09l0-.06s-.07,0,0,0,0,0,.06,0,0,.07,0,.08,0,0,0,0,0,.07,0,.08,0,.06,0,.09,0,0,0,.08a.16.16,0,0,1,0,.07v.08a.21.21,0,0,0,0,.08.11.11,0,0,0,0,.08s0,0,.06,0,0,0,.05-.06a.27.27,0,0,1,0-.09.11.11,0,0,0,0-.08l0,.05a.1.1,0,0,0,0,.07s0,0,0,0a.34.34,0,0,1,0,.1s0,0,.06,0a.11.11,0,0,0,.08,0,.08.08,0,0,1,.06,0h.06s0-.07,0-.07,0,0,0-.07a.16.16,0,0,0,0-.07l0,0-.06-.07s0-.06,0-.07,0,0,0-.08,0,0,0-.06a.29.29,0,0,0,0-.09.31.31,0,0,0,0-.07s0,0,.06,0,0,0,0,0a.08.08,0,0,1,0,.07.11.11,0,0,0,0,.08l0,.1a.14.14,0,0,1,0,.09.09.09,0,0,0,0,.07l.07,0h.06s0-.07,0-.08a.08.08,0,0,1,0-.08.11.11,0,0,1,0-.07l0,.12s.05,0,.05.06a.1.1,0,0,0,0,.05h.07s0-.09,0-.1,0-.08,0-.1.05,0,.06,0h0s0,0,0,.06,0,0,0-.08v-.09s0,0,.06-.06h.08s0,0,.06,0,.06,0,.07,0,0,0,0,0h.15s0,0,0-.07a.08.08,0,0,0,0-.07l-.07,0s0-.06,0-.07.05,0,.06,0a.1.1,0,0,0,0,.07.06.06,0,0,1,0,.07s0,0,0,.07,0,0,.05,0h0c.05,0,.05.06.12.06s.07,0,.12,0,0,.14,0,.15.09,0,.11,0,.06-.08.08-.07,0,.12,0,.12-.1,0-.15.08-.12-.07,0,0a.09.09,0,0,1,0,.1.21.21,0,0,1,0,.11c0,.05,0,.07-.09.08a.23.23,0,0,1-.16,0s-.05,0-.07-.05,0,.06-.06.08-.06,0-.06,0,0-.07,0-.08-.09,0-.1,0l-.07.09s-.11,0-.12.05-.07,0-.07,0-.06-.05-.09-.08,0-.07,0-.13-.08,0-.11,0-.08,0-.09,0a.61.61,0,0,1,0,.12.11.11,0,0,0,0,.11A.35.35,0,0,0,129,58c.06,0,.12,0,.15,0s.08.06.09.12a.41.41,0,0,1,0,.16s.06.06.09.08l0,0,.12.06a.11.11,0,0,0,.13,0s0-.08,0-.1.1,0,.13,0H130s0-.06.07-.06a.27.27,0,0,1,.12,0l.1,0h0s.07,0,.09,0a.27.27,0,0,0,0-.15s-.09-.07,0-.09a.11.11,0,0,1,.1.06s0,.05.09.05l.07-.09s0-.11,0-.12,0,0,.1,0,.07,0,.09-.07h0a.08.08,0,0,1,0,0l-.08.09-.06.08s-.15,0-.1.13.16-.06.19-.08a.11.11,0,0,1,.14,0s0,0,.07.06.09,0,.12-.06.08,0,.14-.09.07,0,.1,0a.51.51,0,0,0,.16.09.82.82,0,0,1,.19.09s0,.08,0,.09a.11.11,0,0,1-.12,0,.11.11,0,0,0-.1-.06s-.06,0-.07.07,0,.08.06.11,0,.11,0,.15l0,.13a.11.11,0,0,0,0,.12.07.07,0,0,0,.11,0l0,0s.07,0,.08,0v0a.1.1,0,0,1,0,.1s0,0-.05.06,0,.05,0,.05h.07c.05,0,0,0,0,.06h-.08l-.08,0a.11.11,0,0,0-.08,0l-.07,0s0,0-.06.05l-.06.07s0,0-.06,0l0,.06-.07,0h-.08s-.05,0-.06,0,0,.07,0,.08l.07,0,.07,0s.06,0,.07.07a.22.22,0,0,1,.05.08.29.29,0,0,1,0,.09,0,0,0,0,1,0,0v0a.41.41,0,0,1,0,.11s0,.09,0,.12,0,0-.06.06a.25.25,0,0,1-.12,0s-.06,0-.06,0a.08.08,0,0,0,0,.07h.17s0,0,.05,0,0,0,.06,0a.18.18,0,0,0,.07.05l.06,0,.07,0,.08,0,.07.05s.05,0,.07,0l.07,0a.15.15,0,0,0,.07,0s0-.05,0-.06,0-.07,0-.09,0-.06,0-.07.05,0,.08,0l.08,0,.07,0a.15.15,0,0,1,0,.06l.07.07,0,0a.23.23,0,0,1,.07.07l.05,0,.05,0,.07,0a.1.1,0,0,0,.07,0h.16s0,0,0,0l0-.06a.12.12,0,0,1,.05,0l.06,0,.07,0a.1.1,0,0,0,.05,0l0,0,.07,0s0,0,0-.06l0-.06,0-.06s0,0,.05-.05l.08,0,.07,0,.1,0a.45.45,0,0,1,.16,0H134l.09,0,.1-.05.1,0h.12l.11,0,.08.06.09,0s0,0,0,.08,0,.06,0,.07h-.15s0,0-.06,0,0,.05-.05.06-.05,0-.06,0,0,0,0,0l-.06,0s0,0-.07,0h-.09s0,.06,0,.07a.1.1,0,0,1,0,0,.12.12,0,0,1-.08,0h-.07l-.08,0-.07,0h-.23a.09.09,0,0,0-.07,0,.15.15,0,0,0,0,.07s0,.05,0,.07a.28.28,0,0,1,0,.09.13.13,0,0,1,0,.07.11.11,0,0,0,0,.08s.05,0,.05,0,0,0,0,.06a.09.09,0,0,1,0,.07.25.25,0,0,1,0,.08v.09a.38.38,0,0,1,0,.1l0,.08a.36.36,0,0,0,0,.07.43.43,0,0,1,0,.07.09.09,0,0,1-.06,0h-.15a.13.13,0,0,0-.06,0,.12.12,0,0,0,0,.05l-.05,0L133,62s0,0,0,.06h.07s0,0,0,0l.07,0h.18a.11.11,0,0,1,.08,0h0l.06,0,.07,0a.1.1,0,0,0,.07,0h.16l.06,0a.12.12,0,0,0,.1,0,.11.11,0,0,1,.07,0l.07.05a.1.1,0,0,0,0,0,.15.15,0,0,1,0,.07s0,0,.06,0l0,.05a.09.09,0,0,1,0,.06s0,.05.07.08l.06.06a.22.22,0,0,1,.05.08s0,.08,0,.12a.13.13,0,0,1,0,.09s-.06,0-.07,0a.2.2,0,0,0-.08,0l-.07.05,0,.07s0,0,0,.08a.32.32,0,0,0,0,.09.2.2,0,0,0,0,.08s0,0,0,.08,0,0,0,0,0,.05,0,.07,0,0,0,.06l-.05,0-.07.06-.05.06a.1.1,0,0,1,0,0l-.05.06,0,.07,0,.06a.09.09,0,0,0,0,.07s0,0,0,.07a.08.08,0,0,1,0,0,.08.08,0,0,1-.07,0s-.05,0-.06,0,0,0,0,.06a.13.13,0,0,0,0,.07.43.43,0,0,1,0,.07.34.34,0,0,1,0,.1s0,.07,0,.11V65a.29.29,0,0,0,0,.09.11.11,0,0,0,.06.07l.08.06.08,0,0,0,.07.06.06.05.06,0,.07.07s0,0,.07.06l.07.07.07.07a.15.15,0,0,1,.05.06l0,.07.08.08,0,.06a.11.11,0,0,1,0,.08.17.17,0,0,1,0,.07.24.24,0,0,0,0,.09l0,.07a.05.05,0,0,0,.05,0s.06,0,.07-.06.05,0,.05,0a.25.25,0,0,1,0,.07l0,.07v0a.41.41,0,0,0,0,.09.56.56,0,0,1,0,.12l0,0a.31.31,0,0,0,.05.1s0,0,.05.06a.09.09,0,0,0,0,0s0,0,.05,0a.64.64,0,0,1,0,.07s0,.06,0,.09l.06,0a.11.11,0,0,1,0,.07l0,.07a.31.31,0,0,1,0,.1s0,0,0,.08l0,.1s0,0,0,.08a283669033199.38,283669033199.38,0,0,1,0,.18.19.19,0,0,1,0,.08.3.3,0,0,0,0,.1.22.22,0,0,0,0,.08s0,.06,0,.08a.29.29,0,0,0,0,.1l.06,0s0,0,.08,0,0,0,0,0,0,0,.07,0,0,0,.06.05,0,0,0,.07a.56.56,0,0,1,.05.08s0,0,.06.07l.06,0,.08,0a.09.09,0,0,0,.07,0l.07.06.07,0s0,0,.06,0l.1,0h.14s0,0,0,0l-.06,0s0,0,0,.07a.09.09,0,0,0,.08,0l.09,0,.06,0a.11.11,0,0,0,.08,0h.19l.08,0h.15l.08,0,.07,0,.05.05,0,.06a.22.22,0,0,1,.05.08l0,.06a.24.24,0,0,1,0,.08v.1a.34.34,0,0,0,0,.1s.05,0,.07,0l.08,0h.08s0,0,.06,0a.09.09,0,0,1,.06,0,.06.06,0,0,1,.07,0s0,0,.07,0h.07s0,0,.05,0a.11.11,0,0,1,.08,0,.1.1,0,0,1,.07,0s0,0,0,0,0,.06.08.08a.19.19,0,0,1,.05.09.25.25,0,0,0,0,.12,1.17,1.17,0,0,0,.05.11.19.19,0,0,1,0,.07s0,0,0,.06,0,0,0-.06,0,0,0-.09,0-.06,0-.1a.3.3,0,0,0,0-.1v0l0,.05s.05,0,.09,0,.07.08.1.1l.08,0,.06.06a.56.56,0,0,0,.05.08l.07.06s0,0,.08.07,0,0,.05.06,0-.06,0-.09a.28.28,0,0,0,0-.09.09.09,0,0,1,0-.07.15.15,0,0,1,.06,0l.06-.08a.18.18,0,0,1,.12,0,.35.35,0,0,0,.14,0s.05,0,.07-.06l.07-.09s0,0,.08,0,0,0,0,0l-.09.06s0,.09,0,.1,0,0,0,.08a.19.19,0,0,0,0,.08l0,.07a.19.19,0,0,1,0,.07.08.08,0,0,1,0,.07l-.07,0h-.08s0,0,0,.06a.18.18,0,0,1-.05.07.25.25,0,0,0,0,.07.21.21,0,0,0,0,.06.15.15,0,0,1-.06,0l-.08,0-.06,0a.1.1,0,0,0,0,0V71s0,0,0,0v0s0,0,0,.07,0,0,0,0,0,0,0,.06l0,.06a.11.11,0,0,0,0,.08.64.64,0,0,0,0,.07l.05.07a.11.11,0,0,0,.08,0,.1.1,0,0,0,.09,0s0,0,.05,0a.14.14,0,0,1,.09,0s.06,0,.06,0,0,.06-.05.08l0,.06s.08,0,.09,0,0,0,0,0,0,0,.05,0l.08,0s0,.07,0,.1l-.07,0s-.05,0,0,.06.06,0,.07,0a.14.14,0,0,0,.09,0s0,0,0,0l.05.06a.25.25,0,0,1,0,.12s0,.06,0,.09a.2.2,0,0,0,0,.08s0,0,.05.07,0,0,.06,0,0,0,.06.07a.21.21,0,0,1,0,.08v0s0,.07,0,.11a.15.15,0,0,0,0,.07s0,.09,0,.11,0,0,0,0H140s-.07,0-.07,0a.22.22,0,0,0,0,.08s0,0,.05,0a.14.14,0,0,1,0,.06l0,.07s0,.06.05.06l.06,0h.07l.06-.05a.17.17,0,0,1,.1,0l.06,0,.05-.05h.08s0,0,0,0l-.08,0s0,0-.07,0l-.06,0a.13.13,0,0,0-.06,0l-.06,0h-.15l-.06,0h-.06a.11.11,0,0,1,0,.06s0,0,0,0l.06,0s0,.05,0,.09,0,.07,0,.1a.15.15,0,0,1,0,.09.26.26,0,0,1,0,.09L140,74l0,0a.26.26,0,0,0,0,.08.21.21,0,0,1-.09.13l-.07,0h-.09s0,0-.05,0,0,0-.06,0,0,0,0,.08a.06.06,0,0,0,0,.06l.06,0s0,0,.06.06,0,0,0,0a.19.19,0,0,1,0,.07s0,.06,0,.09v.08s0,.06,0,.06,0,0-.07,0,0,0,0-.07,0,.05,0,.05,0,0-.06.06a.11.11,0,0,1-.07,0h-.24a.09.09,0,0,0-.06,0,.12.12,0,0,0-.05,0l0,.08a.22.22,0,0,0,0,.08.37.37,0,0,0,0,.11v.29a.34.34,0,0,0,0,.1.22.22,0,0,0,0,.08v.08a.1.1,0,0,0,0,.06s.05,0,.07,0,0,0,.06,0,.05,0,.07,0,0,0,0,.06l.06.07.06,0,0,0,.06.05.07,0,.07,0a.12.12,0,0,1,0,0s0,0,0,0,0,.06.1.08l.11,0,.15.11.09.08a.14.14,0,0,0,.09,0s.06,0,.07-.06,0,.07,0,.09a.13.13,0,0,1,0,.09.06.06,0,0,0,0,.07s.05,0,.06,0a.09.09,0,0,1,0,.07.11.11,0,0,1,0,.08s0,0,0,.08.05,0,.07,0l0,.07a.13.13,0,0,0,0,.06s0,0,.06,0a.06.06,0,0,0,.07,0s0,0,.07,0l.06,0a.06.06,0,0,1,0,0,.36.36,0,0,1,0,.09s0,0,.05,0a.09.09,0,0,0,.06,0s0,0,.07,0,0,.06,0,.08.07,0,.08,0a.09.09,0,0,1,.06.06l.06.06s0,0,.05.06,0,0,.07,0l.06.06.06.08,0,.06.05.07,0,.06a.14.14,0,0,1,0,.08s0,0,0,.08a.16.16,0,0,0,0,.07l0,.08a.19.19,0,0,0,0,.08.32.32,0,0,0,0,.09.24.24,0,0,0,0,.08s0,0,0,.08,0,.06,0,.08a.25.25,0,0,1,0,.08.28.28,0,0,1,0,.09l0,.08s0,.06,0,.09,0,.06,0,.08a.28.28,0,0,0,0,.09l0,.07a.64.64,0,0,1,0,.07v0l0,.12a.94.94,0,0,1,0,.09.88.88,0,0,1,0,.16s0,.06,0,.09a.29.29,0,0,0,0,.09.22.22,0,0,1,0,.08.28.28,0,0,1,0,.09.28.28,0,0,0,0,.09.29.29,0,0,0,0,.09.19.19,0,0,0,0,.08.36.36,0,0,1,0,.1l0,.07,0,.07a.19.19,0,0,1,0,.08.3.3,0,0,1,0,.1v.08a.28.28,0,0,1,0,.09v.17a.11.11,0,0,0,0,.08l0,.07,0,.1a.42.42,0,0,1,0,.1l0,.09a.19.19,0,0,0,0,.07.24.24,0,0,0,.06.08l.05.07.06.08.07,0,.08,0h.08l.07,0,.08,0,.06,0a.27.27,0,0,1,.07.08l.05.06,0,.06s0,0,0,.06-.06,0-.06,0,0,0-.06,0a.12.12,0,0,1-.05,0,.1.1,0,0,0,0,0l-.06-.06H143s0,.05,0,.07l0,0s0,0,.05,0l0,0s0,0,0,.07,0,0-.07,0,0,0-.08,0-.05,0-.07,0a.07.07,0,0,1,0-.05s0-.06,0-.08a.18.18,0,0,0-.1-.09l-.06,0,0-.06a.43.43,0,0,1,0-.07l0-.07-.05-.07a.1.1,0,0,0,0-.05l-.05-.06a.41.41,0,0,0,0-.09.19.19,0,0,1,0-.09.24.24,0,0,1,0-.08s0,0,0-.08l0-.08a.13.13,0,0,0,0-.08l0-.08,0-.08,0-.08a.24.24,0,0,1,0-.08l0-.08s0,0,0-.08a.11.11,0,0,1,0-.08s0,0,0-.08,0-.05,0-.08a.34.34,0,0,1,0-.1s0,0,0-.08,0-.06,0-.09v-.08a.21.21,0,0,0,0-.08l0-.08s0-.06,0-.08a.14.14,0,0,1,0-.07s0-.09,0-.14a.34.34,0,0,0-.06-.15,569968964953,569968964953,0,0,1-.1-.22.84.84,0,0,0-.06-.14v0l-.08-.12a.44.44,0,0,0-.08-.11.28.28,0,0,0-.1-.09l-.1-.08a.28.28,0,0,0-.1-.09l-.12-.09a.31.31,0,0,1-.08-.11v0a.86.86,0,0,0-.1-.16.2.2,0,0,0-.11-.09l-.09,0a.21.21,0,0,1-.11-.07.81.81,0,0,0-.09-.1s-.06,0-.08-.06l-.09-.1-.09-.09a.43.43,0,0,0-.12-.11.16.16,0,0,1-.07-.09.1.1,0,0,1,0-.13s.09,0,.11-.06,0-.09,0-.13l-.08-.12a.38.38,0,0,0-.09-.09s-.07.07-.07.08a1,1,0,0,0-.08.14.6.6,0,0,1-.09.15,1.47,1.47,0,0,0-.1.13,1,1,0,0,0-.09.15.69.69,0,0,1-.05.13.28.28,0,0,0,0,.13.39.39,0,0,0,0,.15,1,1,0,0,1,0,.17.88.88,0,0,1,0,.16.59.59,0,0,0,0,.19v.74a1.23,1.23,0,0,1,0,.2,1.13,1.13,0,0,1,0,.18l0,.21a.67.67,0,0,0,0,.2c0,.06,0,.11,0,.16a.77.77,0,0,1,0,.15v0s0,.11,0,.16a.06.06,0,0,1,0,0c0,.06,0,.12,0,.18l0,.2a.61.61,0,0,0,0,.19c0,.06,0,.12,0,.18a.42.42,0,0,1,0,.16,1.48,1.48,0,0,0,0,.21v0c0,.06,0,.13,0,.2a1.1,1.1,0,0,1,0,.26,1.49,1.49,0,0,0,0,.21c0,.08,0,.15,0,.23V83a.63.63,0,0,1,0,.18s0,0,0,.08,0,.06,0,.09a.37.37,0,0,0,0,.11.19.19,0,0,0,0,.08s0,.06,0,.1v.18s0,.05,0,.08a.19.19,0,0,1,0,.08v.18a.27.27,0,0,1,0,.09s0,0,0,.08,0,.07,0,.1a.22.22,0,0,0,0,.08.28.28,0,0,1,0,.09.13.13,0,0,0,0,.06v0a.41.41,0,0,0,0,.11s0,.09,0,.13V85a.25.25,0,0,1,0,.08.19.19,0,0,1,0,.08.22.22,0,0,0,0,.08s0,.06,0,.08a.22.22,0,0,0,0,.08s0,.06,0,.09a.64.64,0,0,0,0,.07s0,0,0,.07,0,.06,0,.08,0,.06,0,.09a.14.14,0,0,0,0,.09.11.11,0,0,0,0,.08l0,.07a.11.11,0,0,0,0,.05s0,0,0-.05a.14.14,0,0,0,0-.07.28.28,0,0,0,0-.09.11.11,0,0,1,0-.08.19.19,0,0,1,0-.08.28.28,0,0,0,0-.09.28.28,0,0,0,0-.09.19.19,0,0,1,0-.08.14.14,0,0,1,0-.07l.06-.07s0-.07.06-.08a.18.18,0,0,0,.05-.07l0-.06.05-.06.06-.06a.23.23,0,0,0,.06-.12.25.25,0,0,0,0-.12.11.11,0,0,1,0-.08c0-.08.12,0,.14,0l.11.09.11.09a1.35,1.35,0,0,0,.12.12l0,0,.06.06,0,.07,0,0,0,0,.06.07s0,0,0,.06,0,.06,0,.09a.12.12,0,0,0,0,0,.27.27,0,0,1,0,.09.25.25,0,0,1,0,.08s0,0-.06,0h-.08l-.08,0h-.47s0-.08,0-.1,0,0,0-.06l0,0h-.17a.07.07,0,0,0-.06,0,.1.1,0,0,0,0,.07.19.19,0,0,1,0,.08.25.25,0,0,0,0,.09.14.14,0,0,0,0,.09.4.4,0,0,1,0,.11l0,.12s0,.05,0,.07a.41.41,0,0,0,0,.08.26.26,0,0,0,0,.08l-.05.07a.18.18,0,0,1,0,.07s0,0,0,.06a.16.16,0,0,0,0,.07.19.19,0,0,1,0,.07s0,.06,0,.08,0,0,0,.07v.19s0,.06,0,.09v.09s0,.06,0,.09a.44.44,0,0,1,0,.1.28.28,0,0,1,0,.09v.18s0,0,0,.08,0,0,0,.07a.22.22,0,0,0,0,.08.29.29,0,0,0,0,.09s0,.06,0,.08v0a.94.94,0,0,1,0,.16.53.53,0,0,1,0,.13.59.59,0,0,0,0,.14.22.22,0,0,1,0,.08.31.31,0,0,0,0,.09.11.11,0,0,0,0,.08v.18a.28.28,0,0,1,0,.09s0,0,0,.08a.28.28,0,0,0,0,.09s0,.07,0,.1,0,0,0,.08a268784560588,268784560588,0,0,1,0,.18s0,.06,0,.09a.34.34,0,0,1,0,.1.22.22,0,0,0,0,.08.28.28,0,0,1,0,.09.22.22,0,0,0,0,.08.3.3,0,0,1,0,.1.19.19,0,0,1,0,.08.28.28,0,0,1,0,.09.17.17,0,0,0,0,.07s0,.06,0,.08a.28.28,0,0,0,0,.09.19.19,0,0,1,0,.07.22.22,0,0,1,0,.08.3.3,0,0,1,0,.1h0s0,.06,0,.09a.22.22,0,0,0,0,.08.28.28,0,0,0,0,.09s0,.06,0,.08a.28.28,0,0,0,0,.09s0,.06,0,.08,0,.07,0,.1,0,.06,0,.09,0,0,0,.08a.28.28,0,0,1,0,.09.25.25,0,0,0,0,.08.29.29,0,0,1,0,.09s0,.05,0,.08a.25.25,0,0,0,0,.08.43.43,0,0,0,0,.11.25.25,0,0,0,0,.07s0,.07,0,.11,0,0,0,.08v0a.24.24,0,0,0,0,.08s0,0,0,.08,0,0,0,0,0,.08,0,.12a.8.8,0,0,1,0,.15c0,.05,0,.1,0,.14s0,.05,0,.07a.24.24,0,0,1,0,.08.14.14,0,0,1,0,.06.25.25,0,0,0,0,.08.19.19,0,0,0,0,.08.19.19,0,0,0,0,.07.29.29,0,0,0,0,.09l0,.08s0,.06,0,.09,0,0,0,.07a.41.41,0,0,0,0,.07s0,.06,0,.09a.24.24,0,0,0,0,.08s0,0,0,.08a.19.19,0,0,0,0,.08.64.64,0,0,0,0,.07v.08s0,.06,0,.08,0,.06,0,.09a.22.22,0,0,0,0,.08v.09a.38.38,0,0,1,0,.1V95s0,.06,0,.09a.28.28,0,0,0,0,.09.24.24,0,0,0,0,.08l0,.08,0,.09a.19.19,0,0,1,0,.07.15.15,0,0,1,0,.07.25.25,0,0,0,0,.07l0,.06,0,.07a.16.16,0,0,1,0,.07l0,.08s0,0,0,0a.21.21,0,0,0,0,.06l0,.07s0,0,0,.08l0,.07,0,.08,0,.07-.06.09s0,0,0,.06l0,.07,0,.05a.18.18,0,0,1-.05.07.59.59,0,0,0,0,.08.25.25,0,0,1,0,.07l0,.07a.22.22,0,0,1,0,.08l0,0-.06.07,0,0a.18.18,0,0,1-.07,0s0,0,0,0,0,0-.08.06a.18.18,0,0,0-.07,0,.36.36,0,0,0,0,.11s0,.09-.05,0,0,0,0,0h-.09l-.09.05a.18.18,0,0,0-.09.06s0,0,0,0l0,0a.53.53,0,0,1,.11.21s.09.29.12.28.29-.17.42-.14.11.14.25.3.33.24.33.11,0-.25.12-.25a.58.58,0,0,1,.38.11,2,2,0,0,0,.35.07c.21.08.19.2.19.41a2.29,2.29,0,0,1,0,.37,2.34,2.34,0,0,1-.09.38c-.07.16-.15.22-.2.35s-.13.12-.13.25,0,.22.15.25.26.14.35.07,0-.19.13-.35.08-.33.24-.29.24.05.17.2-.07.25,0,.32.32.11.5.21.29,0,.35.11.1,0,.21,0,.16.13.27.16a1.61,1.61,0,0,1,.29.09,1.5,1.5,0,0,1,.33.23c.13.15.17,0,.33.09a1,1,0,0,0,.42,0l.29-.07c.22,0,.35.05.35.3a.6.6,0,0,0,.11.39c.08.07.24,0,.31.11l.25.34a1,1,0,0,0,.29.28s.14.28.19.23.11-.23.2-.23.24.12.25.11l.36,0c.14,0,.09,0,.2-.16a.61.61,0,0,1,.36-.23.6.6,0,0,1,.37.09c.13.11.27.08.42.16s.06.16.14.27.21.22.23.32.15.18.21.3.13.12.21.2.18.09.33.09.15-.11.37-.11.16-.1.31-.14a2.77,2.77,0,0,0,.33-.09.76.76,0,0,1,.3,0s0,0,.08,0h0V39h-.14l-.13,0a.22.22,0,0,0-.13.08.83.83,0,0,0-.12.08.23.23,0,0,1-.14,0c-.08,0-.08,0-.14,0a.32.32,0,0,0-.1.13l-.1.09-.11.12-.09.13-.11.1-.11.09a1.2,1.2,0,0,1-.12.11.16.16,0,0,1-.12.06.61.61,0,0,0-.14.07l-.12.06-.13.07s-.05.05-.09.08a.42.42,0,0,1-.16,0,.32.32,0,0,0-.14,0l-.15,0h-.3s0,.1,0,.13-.09,0-.1,0,0-.13,0-.14a.15.15,0,0,0-.11-.08c-.06,0-.1,0-.14,0a.28.28,0,0,0-.11-.08l-.13-.08-.11-.07a.5.5,0,0,0-.12-.08.37.37,0,0,0-.12-.07c-.05,0-.05-.06-.11-.06h-.47s-.08-.07-.1-.09-.11,0-.13,0a.21.21,0,0,0-.11,0s-.12,0-.15,0h-.16a.22.22,0,0,0-.13.08l-.14,0c-.05,0,0-.07-.1-.07h-.47c-.07,0-.1,0-.14,0s-.08,0-.09-.06-.09,0-.14,0h-.15a.5.5,0,0,1-.24-.09l-.12-.05c-.05,0-.08,0-.12,0s-.06,0-.09-.07a.83.83,0,0,0-.12-.08l-.11-.07a.38.38,0,0,0-.15,0h-.32a.26.26,0,0,0-.15,0,.39.39,0,0,1-.15,0,.13.13,0,0,0-.12,0l-.1.1a1.13,1.13,0,0,1-.1.13s0,.12,0,.15,0,.13,0,.17-.05-.09-.05-.1a.93.93,0,0,1,0-.13s-.06,0-.09-.08-.12,0-.13,0l-.11.08s0-.1,0-.13a.26.26,0,0,0,0-.16.32.32,0,0,1,0-.17.43.43,0,0,0,0-.16.39.39,0,0,0-.08-.1,1,1,0,0,0-.06-.14.44.44,0,0,0-.08-.11.36.36,0,0,0-.08-.09s-.07-.1-.1-.13a.34.34,0,0,1-.06-.12c0-.05-.05-.07-.06-.12s-.06-.07-.08-.11a.37.37,0,0,0-.07-.12.76.76,0,0,1-.07-.13c0-.06,0-.09-.08-.15a.5.5,0,0,1-.05-.13.3.3,0,0,1,0-.16.28.28,0,0,1,.08-.11.16.16,0,0,1,.11,0c.07,0,0,.13.09,0a.17.17,0,0,0,0-.17c0-.07,0-.11,0-.15s.09,0,.14,0,0-.13,0-.16a.24.24,0,0,0-.05-.14.64.64,0,0,0,0-.07v0a.28.28,0,0,1,0-.09.07.07,0,0,0,0-.06l-.06,0,0-.06,0-.07s0,0,0-.08,0-.05,0-.08,0-.05,0,0a.15.15,0,0,1-.07,0s-.06,0-.09,0l-.08,0-.08,0s-.05,0-.08,0h-.07l-.08-.05h-.07l-.07,0s-.05,0-.06,0,0,0-.06,0h-.16s0,0-.06,0a.13.13,0,0,1-.07.06s0,0-.06,0,0,0,0,0,0,0,0,0v.09s0,0,0,0l-.05.06s0,0-.05,0,0,0-.06.06l-.08,0-.08,0-.07,0h-.08a.16.16,0,0,0-.07,0H137a.1.1,0,0,0-.05,0,.11.11,0,0,1-.08,0h-.07s-.06,0-.07,0a.26.26,0,0,0,0-.08s0,0-.07,0h-.1c-.05,0-.05,0-.09,0a.29.29,0,0,1,0-.09s-.07,0-.09,0a.08.08,0,0,1-.07,0s0,0-.05,0H136s0,0-.07,0h-.15s0,0-.06,0l-.07,0h-.09a.07.07,0,0,1,0,0l-.05,0a.56.56,0,0,0-.05-.08l0-.07a.1.1,0,0,0-.05,0s-.06,0-.07,0,0,0,0,0,0,0-.05.05,0,0-.06,0,0,0,0-.06l0-.06-.05,0s0,0-.06,0h-.16s0,0,0,.08a.22.22,0,0,1,0,.08v.08l0,0,.07,0s.06,0,0,0a.12.12,0,0,0-.05,0s0,0,0,.07,0,0,0,.06l.06.06h.08l.06,0,.08,0,.06,0,.07,0,.06,0,.06,0,.05.06,0,.06a.28.28,0,0,1,0,.09v.08l0,.08a.28.28,0,0,1,0,.09s0,0,0,.08,0,0,0,.08v.08s0,.06,0,.09a.14.14,0,0,1,0,.06.25.25,0,0,1,0,.07l0,.05,0,0a.1.1,0,0,1-.05,0s0,0-.05.05l0,.06a.09.09,0,0,0,0,.08.19.19,0,0,0,0,.08.16.16,0,0,0,0,.07l.08.06s0,0,.06,0l.06.05a.25.25,0,0,1,0,.09s0,.06,0,.1v.09a.13.13,0,0,0,0,.08l0,.07,0,0,0,.08a.38.38,0,0,1,0,.1s0,.06,0,.09V39s0,.06,0,.08a.28.28,0,0,1,0,.09v.09s0,.05,0,.08a.41.41,0,0,0,0,.11.09.09,0,0,0,0,.07s.06,0,.06,0,0,0,.07,0,0-.05,0-.06,0,0,0,0,0,0,.05,0,0,0,0,.08,0,0,0,.06l.06.09.06.08.07.12a.2.2,0,0,0,.06.07s0,0,0,0,0,0,0-.07a.07.07,0,0,0,0-.05h0a.43.43,0,0,0,0,.07s0,0,.06,0h0l0,0s0,0-.07,0h-.08s0,.07,0,.08v0l0,.07a.43.43,0,0,1,0,.11.09.09,0,0,0,.05,0h0a.32.32,0,0,1,0,.09l0,.06a.24.24,0,0,1,0,.09.37.37,0,0,1,.05.11.31.31,0,0,0,0,.13s0,.07,0,.09l0,.08,0,.07a.16.16,0,0,0,0,.07l0,.05.05.06s0,0,0,0a.19.19,0,0,1,0-.08V41a.16.16,0,0,1,0-.07.07.07,0,0,1,.06,0l.08,0a.09.09,0,0,1,.06,0,.12.12,0,0,1,.05.05l.06,0,.08,0-.07,0a0,0,0,0,1-.06,0,.07.07,0,0,0-.07,0h-.08s0,0-.06,0a.19.19,0,0,0,0,.08v.09a.22.22,0,0,0,0,.08.28.28,0,0,1,0,.09v.08s0,.06,0,.09a.14.14,0,0,1,0,.09v.09a.14.14,0,0,0,0,.07l.06,0H137s0,.08,0,.09,0,0,0,0,0,0-.06,0,0,.06,0,.07,0,.06,0,.09a.34.34,0,0,0,0,.1.45.45,0,0,1,0,.11v.09a.14.14,0,0,0,0,.06.17.17,0,0,1,0,.1.41.41,0,0,1,0,.11v.18a.19.19,0,0,0,0,.08l0,.08a.24.24,0,0,0,0,.08l0,.09s0,0,0,.07,0,0,0,0a.17.17,0,0,0,0-.1s0,0,0-.07l0-.09s0-.06,0-.08,0,0,.06,0a.06.06,0,0,0,.07,0h0l0,0s0,0,0,0a.29.29,0,0,0,0,.09v.18a.07.07,0,0,1,0,.06.41.41,0,0,0,0,.08.28.28,0,0,0,0,.09v.21s0,0,0,.08,0,.05,0,.07a.1.1,0,0,0,.07,0s0,0,0,.06,0,0,0,.08,0,0,0,0V44s0,0,0,0l0,.08a.6.6,0,0,0,0,.17v.09s0,.06,0,.09a.38.38,0,0,1,0,.1.26.26,0,0,1,0,.08s0,.05,0,.08l0,0-.05.06s0,0,0,.07a0,0,0,0,0,0,0l.06,0,0,.06s0,0,.05.06v.55a.31.31,0,0,0,0,.08v.09a.16.16,0,0,0,0,.07s0,0,0,.06l.07,0h.14s0,.07,0,.09a.37.37,0,0,1,0,.11l0,.07s0,.06,0,.09a.47.47,0,0,0,.07.12.13.13,0,0,0,.07,0l.08,0,.07,0,.08,0s0,.05,0,.08v.08a0,0,0,0,0,.05,0s0,0,0,0,0-.06,0-.09l.07,0s.05,0,.07,0,0,0,0,.07,0,0,0,.06h.15l.07,0,.05.07s0,0,0,0l-.08,0-.07,0H138a.08.08,0,0,0-.08,0,.08.08,0,0,1-.08,0l-.06,0h-.09s0,0-.05,0a.05.05,0,0,1-.06,0,.07.07,0,0,1-.07,0l-.06,0h-.28l0,0s0,0-.07,0L137,47s0,0-.06,0l-.06.07-.05.05,0,0a.12.12,0,0,1-.09,0h-.08l-.09,0-.09,0-.09,0h-.69a.15.15,0,0,1-.1,0l-.08-.05a.34.34,0,0,1-.08-.09.67.67,0,0,1-.07-.11.24.24,0,0,1-.06-.11.15.15,0,0,1,0-.09.15.15,0,0,1,.06-.09s0-.06.07-.08l.08,0-.05-.09a.19.19,0,0,1,0-.08s0-.06,0-.1,0,0,0,0l-.08.06a.53.53,0,0,1-.1.06s-.07,0-.1,0,0,.05-.07,0,0,0-.08,0-.06,0-.06,0,0,0,0,0l-.05.07s0,0-.05.06,0-.05,0-.06-.07,0-.08,0l-.06.06s0,.06,0,.08a.16.16,0,0,1,0,.07l-.06.06-.06.05-.06,0s0,0,0,.07a.17.17,0,0,0,0,.07.25.25,0,0,0,0,.07s0,.06,0,.08,0,0,0,.05a.19.19,0,0,0,0,.08.28.28,0,0,1,0,.09s0,.05,0,.06,0,0,.05.06.06,0,.09,0,0,0,0,0,.05,0,.07,0a.11.11,0,0,1,0,.06s-.07,0-.08,0,0,0-.05,0,0,0-.06,0a.14.14,0,0,0,0,.09s0,0,.05.06v.08l.06,0a.08.08,0,0,1,0,.08s0,0-.06,0,0,0-.07,0a.1.1,0,0,1,0-.05.16.16,0,0,1,0-.07.19.19,0,0,0,0-.08s0,0,0-.06,0-.07,0-.09l-.05-.06a.16.16,0,0,1,0-.07l0-.07s0-.06,0-.08a.19.19,0,0,0,0-.07.14.14,0,0,0,0-.06s0,0-.07,0h-.08a.26.26,0,0,1,0-.08s-.06,0-.07,0h-.15s0,0-.07,0h-.08l-.08,0a.1.1,0,0,0,0,0,.09.09,0,0,0,0,.06.1.1,0,0,0,0,.08s0,0,0,0-.05,0-.07.06,0,0,0,.08a.11.11,0,0,0,0,.08.13.13,0,0,0,0,.06s0,.06,0,.06-.07,0-.09,0,0,0,0-.06v-.17s0-.05,0-.05,0,0,0,.07a.29.29,0,0,0,0,.09s0,0,0,.06,0,0-.06-.06l0-.06a.19.19,0,0,1,0-.08.12.12,0,0,0,0-.07.11.11,0,0,1-.06,0,.14.14,0,0,1,0-.07s0,0-.05,0a.06.06,0,0,1,0-.06.06.06,0,0,1,0,0s0,0,0-.07,0,0-.06,0h-.08a.08.08,0,0,0-.05,0l0,.07a.23.23,0,0,1-.07.07l-.07,0s0,0,0,.07,0,0,0,0,0,0-.06,0a.27.27,0,0,1,0-.09l0,0a.12.12,0,0,1,0-.05s0,0,0,0a.33.33,0,0,0,0-.06l.05,0,0-.07a.56.56,0,0,0,0-.07.07.07,0,0,0-.06,0h-.07s0-.05,0-.07h0a.17.17,0,0,0,0-.1s-.06,0-.06,0a.22.22,0,0,1-.05.08l-.11.08,0,.06a.18.18,0,0,1-.07.05s-.06,0-.08,0,0,0-.06.05l-.05.06a.15.15,0,0,1-.07,0s0,0,0,0l0,0-.06-.05s-.05,0-.06,0a.11.11,0,0,1-.08,0l-.07,0s0,0,0,.07,0,0,0,.06a.15.15,0,0,1,0,.06s0,0-.05.07l0,.06-.05.07s0,0-.06,0l-.06.05a.08.08,0,0,1-.08,0l-.09,0s-.05,0-.06,0a.07.07,0,0,0,0,.06.25.25,0,0,0,0,.07l-.05.06-.06.07,0,0,0,0s0,0-.05.05a.15.15,0,0,1-.05.07s0,0,0,0a.13.13,0,0,1-.06,0l0,.06a.11.11,0,0,0,0,.08s0,0,0,.05h-.08a.13.13,0,0,1-.07,0l0-.07s0,0-.06,0,0,.05,0,.07a.21.21,0,0,0,0,.08s0,0,0,.07a.28.28,0,0,1,0,.09s-.05,0-.06,0,0,0,0-.07l0,0-.06-.07,0-.06s0-.06,0-.07a.14.14,0,0,0,0-.09s0,0,0-.05,0-.06,0-.08a.1.1,0,0,0-.05,0l-.08,0h-.07l-.07,0s0,0,0-.06l0-.06a.15.15,0,0,0,0-.06s-.07,0-.09,0a.13.13,0,0,1-.08,0h0s0,0,0,0,0-.06,0-.08a.38.38,0,0,0,0-.15V47l0-.1-.06-.1-.07-.09a.12.12,0,0,0-.08,0l-.07,0-.06,0,0,0v-.09l0-.06s0,0-.06,0l-.08,0-.07,0s0,0-.05-.05,0,0,0,0,0,0,0-.07,0,0,0-.06a.11.11,0,0,0,0-.08.11.11,0,0,1,0-.08l0-.07a.05.05,0,0,0,0-.07.18.18,0,0,1,0-.07l-.05,0s0,0,0,0l-.08.05h-.07a.1.1,0,0,1-.07,0l-.06,0-.07,0,0,0-.06,0s0,0,0-.06.06,0,.07,0l.06,0,.06,0s0,0,0-.08a.11.11,0,0,1,0-.06.14.14,0,0,0,0-.06s0,0,0-.06h-.07s-.05,0-.07,0l-.07,0s0,0-.05,0-.05,0-.06,0,0,0,0,0h-.06s0-.06,0-.07,0,0,0-.05,0,0,0-.06a.07.07,0,0,0,0-.06l0-.08v-.09a.11.11,0,0,1,0-.08l.05,0a.06.06,0,0,0,0-.07s0,0-.06,0l0,.06-.07,0s-.05,0-.07,0l0,0-.07,0-.08,0-.06,0-.08,0,0,.06-.06.06,0,.06a.19.19,0,0,0,0,.07s0,0,0,0,0-.05,0-.07a0,0,0,0,1,0-.05h0s0,0,0-.07,0,0-.05,0,0,0,0-.05l0-.06a.09.09,0,0,0-.13,0,.2.2,0,0,0,0,.08l0,.06,0,.08a.21.21,0,0,1,0,.06s0-.07,0-.08,0,0-.06,0a.11.11,0,0,0,0,.06s0,0-.07,0h-.07s0,0-.06,0,0,0-.06,0,0,.06,0,.07a.08.08,0,0,1,0,.05l0,.06-.08,0H126s0,0,0,.08a.1.1,0,0,1,0,.07s0,0-.06,0h-.08l-.07,0s-.05,0-.05,0a.09.09,0,0,1,0-.07.19.19,0,0,0,0-.07s0,0-.06,0h-.08s0,0-.06,0,0,0,0-.06l0,0a.25.25,0,0,0,0-.07s0,0,0,0,0,.06,0,.06-.06,0-.06,0a.06.06,0,0,0,0-.08l-.09,0s0,.05,0,.07a.05.05,0,0,1-.05.05.08.08,0,0,0,0,0l0,.08s0,0,.06.05,0,.06,0,.07a.06.06,0,0,1,0,0s0-.06,0-.07-.06,0-.07,0l-.06,0s0,0,0,.05l-.08,0a.09.09,0,0,0-.07,0s0,0,0,.06h.06a.1.1,0,0,1,.07,0s0,.06,0,.08v.08a.14.14,0,0,1,0,.07s0,0-.06,0,0,0,0,.05.06,0,.07,0,0,0,0,0a.1.1,0,0,1,0,0l0,0s0,0,.06,0a.22.22,0,0,1,0,.08V46s0,0,0,.05l-.07,0s-.05,0-.06,0l0,.06v.09s0,.05,0,.08v.09s0,0,0,0,0,0,0,0a.25.25,0,0,1,0,.09l-.06,0a.09.09,0,0,1-.07,0,.06.06,0,0,1-.06,0,.2.2,0,0,1-.06-.07l0-.06s0,0,0,0a.11.11,0,0,1,0,.08.07.07,0,0,1-.05,0s0,0,0,0,0,0,0,0a.19.19,0,0,0,0-.08s0-.05,0-.06a0,0,0,0,0-.07,0l0,0s0,0-.07,0a.12.12,0,0,0-.08,0,.09.09,0,0,1-.07,0l-.06-.06-.06,0-.07,0h-.17l-.07,0a.33.33,0,0,0,0,.06l-.07-.05s0,0,0-.06a.09.09,0,0,0-.06,0,.22.22,0,0,0-.08,0s0,0,0,.07-.05,0-.05,0a0,0,0,0,0-.06,0,.64.64,0,0,1,0,.07l-.07,0s0,.05,0,.07,0,0,0,.07a.08.08,0,0,0,0,.08.14.14,0,0,0,0,.07.14.14,0,0,1,0,.09.19.19,0,0,0,0,.08l0,.07s0,0,0,.06a.19.19,0,0,1,0,.07s0,0,0,0,0,0,0,0l-.06-.06s0,0-.06,0l-.07,0a.09.09,0,0,1,0-.09s0,0,0-.08a.25.25,0,0,0,0-.07.09.09,0,0,0-.07,0s0,0,0,.06,0,.06,0,.08,0,0,0,0,0,0-.06,0v-.09a.17.17,0,0,0,0-.07l-.07,0s0-.09,0-.09,0,0,0-.07,0,0,0-.06,0-.08,0-.1v-.09s0,0,0-.08a.09.09,0,0,0,0-.06s0,0-.06,0l-.06.07s0,0-.06,0,0,0,0,0,0,0-.06,0l0,.06s0,0-.07,0,0,0-.06,0l-.08,0a.12.12,0,0,0,0,.05v.18s-.06,0-.06,0l-.07,0,0,0h-.24l-.07,0-.1,0-.08,0h-.07a.15.15,0,0,0-.07,0s0,.05-.06.06l0,.07,0,.07s0,0,0,.06a.11.11,0,0,0,.08,0s0,0,0,0,0,0-.06,0h-.16l-.09,0a.11.11,0,0,0-.08,0l-.07,0-.06,0s0,0,0,.07a.09.09,0,0,1-.07,0s0,0,0,0a.19.19,0,0,1,0-.08l0-.05a.19.19,0,0,0,0-.08s0-.06-.06-.08a.15.15,0,0,0-.07,0l-.07,0-.07,0h-.08s0,0-.06,0l-.07,0-.07,0-.08.06-.07,0h-.08a.05.05,0,0,0-.06,0s0,.06,0,.07,0,0,0,.06l-.06,0h0l-.08,0-.07,0-.07,0a.14.14,0,0,1-.09,0h-.07s0,0,0-.06h-.08L119,47a.14.14,0,0,0,0,0s0,0,0,.07l-.06,0-.07,0s0,0,0,.07a.14.14,0,0,0,0,.07s0,0,0,0,0,0,0,.06,0,0,0,0h-.09a.07.07,0,0,0-.06,0,.07.07,0,0,1-.06,0s0-.06,0-.08,0-.05,0-.06a.28.28,0,0,0,0,.09s0,0,0,.06a.19.19,0,0,0,0,.08.1.1,0,0,1,0,.06s0,0-.07,0h-.08l-.07,0-.07,0h-.16a.15.15,0,0,1-.07,0H118s0,.07,0,.08,0,0,0,.06,0,0,0,0-.06,0-.07,0,0,0,0,.05,0,0,0,.07l0,.08s0,0,0,.07l0,0,0,.05,0,.08s0,.06,0,.08a.28.28,0,0,0,0,.09.19.19,0,0,0,0,.07.14.14,0,0,1,0,.07.14.14,0,0,0,0,.07s0,.06,0,.06,0,0,0,0a.1.1,0,0,0-.06,0s0,.07,0,.08l0,.1a.45.45,0,0,0,0,.11.19.19,0,0,0,0,.08v.09a.11.11,0,0,0,0,.07.1.1,0,0,1,0,.07.25.25,0,0,1,0,.08s0,.05,0,.07l0,.05v.09S117.62,49.7,117.58,49.7Zm13.36,8.18h0s0,0,0,.05l0,0Zm-3.84-1.24a.14.14,0,0,0,0-.07s0,0,0-.08,0,0,0-.06l0-.07a.06.06,0,0,1,0,0h.08s0,0,.06,0a.22.22,0,0,0,0-.08s0,0,0-.07a.19.19,0,0,0,0-.07s0,0-.06-.06-.07-.06,0-.06l.08,0s0,.05,0,.08a.11.11,0,0,1,0,.08s0,0,.06,0h.15s0,0,0,0l-.06,0s0-.06,0-.07a.05.05,0,0,1,.07,0,.07.07,0,0,1,0,.06s.06,0,.07,0h.07s0,0,0,.06-.06,0-.08,0h-.08l-.07,0s-.05,0-.05,0,0,.05.05.05l.07,0,.06,0,0,0s0,0-.05,0,0,0-.06,0l-.06,0s0,0-.06,0,0,0-.06,0,0,0,0-.06,0,0-.05,0l0,0s0,0,0,.06,0,0,0,0-.06,0-.07,0,0,0,0,0,0,.06,0,.07,0,.05,0,.05,0,0,0,.06,0,0,0,0a.09.09,0,0,0,.07,0s0,0,0,.07-.06,0-.08,0,0-.06,0,0a.19.19,0,0,1,0,.08v0a.19.19,0,0,0,0-.08l0-.07A.06.06,0,0,1,127.1,56.64Z"/><path class="cls-6" d="M184.62,70.09h0s0,0,0,0A.13.13,0,0,1,184.62,70.09Z"/><path class="cls-6" d="M185.1,68.76a.44.44,0,0,1,.39-.22.43.43,0,0,0,.25,0l.09-.06.15-.21a1.21,1.21,0,0,1,.19-.2l-.16.13,0,.06c-.06.08-.14.16-.21.24a.27.27,0,0,1-.19,0,1.24,1.24,0,0,1-.27,0c-.11,0-.17.12-.23.19l-.19.23c-.06.07-.08.21-.15.3s-.09.21-.16.28a.88.88,0,0,0-.1.22v0a3.38,3.38,0,0,1,.24-.41Z"/><path class="cls-6" d="M186.67,68h.06l-.12,0h.06Z"/><path class="cls-6" d="M184.33,70h0a1.51,1.51,0,0,1,.09-.18,1.27,1.27,0,0,1-.14.17.83.83,0,0,0-.1.34l-.09.3v0l0-.09c0-.12.1-.25.14-.38A1.34,1.34,0,0,1,184.33,70Z"/><path class="cls-6" d="M187.37,69h0s0,0,0,0Z"/><path class="cls-6" d="M184,70.89h0a.52.52,0,0,1,0,.11c0,.11,0,0,.13,0C184.07,71,184,71,184,70.89Z"/><path class="cls-6" d="M204.75,106.31c0-1.17-.08-1.36-.35-1.84l-.24-.43.07-.51a5.58,5.58,0,0,1,.13-.69,2.9,2.9,0,0,0,0-.83c-.14-1-.16-1.2-.3-1.19h0l-.11,0a.37.37,0,0,0-.18.47.08.08,0,0,0,0,0c.07.14,0,.47-.14.47s-.05.08,0,.18a.57.57,0,0,1,0,.34.21.21,0,0,0,0,.27c.27.33,0,1.44-.37,1.3a.74.74,0,0,1-.2-.23c-.08-.15-.16-.19-.4-.21a.42.42,0,0,0-.48.17.67.67,0,0,0-.16.27c0,.12-.5.4-.72.4a.93.93,0,0,0-.37.1,1.32,1.32,0,0,1-.35.15c-.14,0-.18.1-.18.22a.21.21,0,0,1-.34.2c-.1-.07-.13,0-.17.09a1.28,1.28,0,0,1-.25.4c-.15.17-.18.26-.13.32s.05.15,0,.35-.15.38-.29.33-.08,0-.08.07a.41.41,0,0,1-.17.23c-.09.06-.17.15-.17.2s0,.06.09,0,.31,0,.35.2a.41.41,0,0,0,.19.27c.2.1.23.38,0,.43l-.33.07c-.18,0-.31.3-.19.38a.16.16,0,0,1,0,.15c0,.06,0,.1,0,.1s.07,0,.05.11,0,.16.19.26.25.15.33.07a.17.17,0,0,1,.3.1.35.35,0,0,0,.1.2c.16.14.12.32-.1.47a.68.68,0,0,0-.27.31.35.35,0,0,1-.19.22c-.11,0-.12.07-.08.17a.21.21,0,0,1,0,.18s0,0,.08,0c.28,0,.47,0,.52-.12s.08-.09.25,0,.23.17.12.68c-.05.25-.12.38-.22.43a.31.31,0,0,0-.16.21.5.5,0,0,1-.12.24c-.18.15,0,.25.18.13s.26-.14.26,0,.05.15.12.15a.31.31,0,0,1,.19.06.53.53,0,0,0,.3.09c.12,0,.23.07.23.11s-.37.55-.58.59-.2.06-.16.27.07.25.11.26a.78.78,0,0,1,.2.16c.32.35,1.16.73,1.29.59s.18-.1.18.06a.26.26,0,0,0,.13.23.17.17,0,0,1,.09.19c0,.08,0,.18.15.29a.7.7,0,0,0,.31.18.14.14,0,0,0,.12-.15.14.14,0,0,0-.07-.11c-.13-.09-.06-.32.14-.48a.43.43,0,0,0,.2-.4c0-.25,0-.3.34-.58.12-.11.13-.15.06-.18a.09.09,0,0,0-.12,0,.14.14,0,0,1-.15.08c-.27,0-.08-.5.19-.51s.31-.22.34-.43,0-.62,0-1.15,0-1,0-1.13a.66.66,0,0,1,.12-.34c.2-.26.35-.55.27-.55s0-.25.13-.29a.55.55,0,0,0,.29-.23c.14-.2.14-.23.09-1.31C204.79,107.46,204.76,106.77,204.75,106.31Z"/><path class="cls-6" d="M192.65,93.91h0S192.71,93.91,192.65,93.91Z"/><path class="cls-6" d="M188.47,69.11l-.06,0h.05S188.47,69.12,188.47,69.11Z"/><path class="cls-6" d="M188.75,69h0a.31.31,0,0,1-.13.06h0l.1,0c.22.12.07-.25,0-.29s-.31-.12-.42-.23a.49.49,0,0,0-.28-.19c-.08,0-.18,0-.26,0h-.22l.09,0,.13,0c.38,0,.44.11.77.29l.18.11h0a.1.1,0,0,1,0,.07v0a.07.07,0,0,1,0,0Z"/><path class="cls-6" d="M175.4,97.58l0,0h0c0,.08.13.23,0,.2a.2.2,0,0,1-.09,0v.17h0l.06,0h0a.54.54,0,0,1,.25,0,.68.68,0,0,1,.23.07s.11.11.14.09,0,0,0-.05v-.21s0-.07-.08-.11l-.07,0a.55.55,0,0,1-.14-.09s0,0-.05,0,0-.06,0-.07l0,0h0l.09.08s0,0,.07,0h0s0,0,0,0a.1.1,0,0,0,.11,0c0-.06.08-.1.08-.19s-.11-.09-.18-.11h0s-.08-.14-.1-.19,0-.14.09-.13a.11.11,0,0,1,0,0,.47.47,0,0,0,.14.28l.1,0,.09,0h0s0,0,0,0a.3.3,0,0,0-.08-.17.46.46,0,0,1-.06-.22s0,0,0,0,.06.15.09.19h0s.06.06.09.09l.07.07h0s.13-.12.18-.14a.17.17,0,0,1,.16,0h0a.15.15,0,0,1,.07.12c0,.06,0,.11.07.13h0c.06,0,.06,0,.11,0h0s0,.11,0,.11.09.11.09.11a.35.35,0,0,1,.06.14.88.88,0,0,1,0,.16c0,.07,0,.08.07.1l.09.08s0,0,.07,0,0,0,.05-.05a.2.2,0,0,1,.13,0l.06,0,0,0,.06,0h.3s0,0,.05,0l.09,0h.15a.29.29,0,0,0,.13,0c.06,0,.09,0,.13,0l.08-.1a.35.35,0,0,1,.13-.08l.13,0a.08.08,0,0,1,.07,0l.06,0a.47.47,0,0,1,.07.12s.06.07.07.12.05.06.05.14a1.09,1.09,0,0,1-.08.15.31.31,0,0,0,0,.13c0,.06.07.07.1.1a.26.26,0,0,1,0,.15.23.23,0,0,1-.06.13s-.05.07-.07.12h0a.88.88,0,0,0-.07.13h0s0,0,0,0h.08c.06,0,.08,0,.15,0h.15l.06,0,.07,0c.06,0,.08.05.1.09h0c0,.06.11,0,.11,0s0-.06.12-.07h0s0,0,0,0h0a.14.14,0,0,1,0,.07c0,.06,0,.08.06.11h0s.09-.08.11-.1l.07-.09s0,0,0,0,0,0,0,0l.06.11c0,.06.06.08.08.13a.31.31,0,0,0,.09.11c.05,0,.08,0,.11.08l.1.1s0,0,0,0v-.07a.32.32,0,0,1,0-.14.16.16,0,0,1,.12-.07h0a.17.17,0,0,1,.12,0h0a.68.68,0,0,0,.15,0h0c.06,0,0,.08,0,.09s-.06.06-.05.11a.38.38,0,0,0,.09.09l0,0s.1,0,.13.06l.16,0c.07,0,.08,0,.12,0l0,0s0,.09,0,.11,0,.13.05.14l.12,0h0s0,.12,0,.15a.18.18,0,0,1,0,.14c-.05,0,0,.08,0,.11l0,0,.08.06h0a.42.42,0,0,0,.12,0h0a.16.16,0,0,0,.15,0,.75.75,0,0,0,.07-.12s.06-.07.13,0h0l0,0,.08,0h.15c.08,0,.07,0,.06-.11l-.05-.06h0l-.05,0h0a.38.38,0,0,0-.15,0s-.06,0-.1,0h0s0-.08.06-.11-.08-.07-.1-.08,0-.07.05-.08l.12,0h0c.07,0,.05.06,0,.1s0,0,0,0h.05a.37.37,0,0,1,.14,0h0l.09,0h.07l.15,0h0c.07,0,.06.06,0,.12s0,.08,0,.1h0a.15.15,0,0,0,.13,0c.05,0,0-.07.09-.09h.38s0,0,0,0v.17a.77.77,0,0,1,0,.15h-.16c-.07,0,0,.08,0,.1h0s.12,0,.16,0l.13,0h0c.08,0,.09,0,.1,0h0s0,0,0,0a.36.36,0,0,0-.05-.09.43.43,0,0,1,0-.16.78.78,0,0,1,0-.16.93.93,0,0,0,0-.13s.06-.06.09-.09a.65.65,0,0,1,.09-.08s.11,0,.16,0,.08,0,.12,0h0a0,0,0,0,0,.05,0,.49.49,0,0,1,.17-.06h0c.08,0,.06.06.08.12h.15s0,.09.08.13h0a.42.42,0,0,0,.16,0c.05,0,.07,0,.08,0s0,0,0,0V100a.24.24,0,0,1,.05-.14l.09-.09s.08,0,.13,0h.16c.06,0,.07,0,.1-.06a.15.15,0,0,1,.13,0l.13,0,.14,0a.2.2,0,0,0,.12-.06.85.85,0,0,0,0-.17s.11,0,.15,0h.13l0,0,0,.1s0,.06.11.08h0s.06-.08.08-.1a1,1,0,0,0,.08-.11s0-.08.08-.1.06,0,.09-.08,0-.11,0-.14,0-.06,0-.1a.43.43,0,0,1,0,0,.05.05,0,0,1,0,0l.06-.07.09-.11s0-.14,0-.16a0,0,0,0,0,0,0h-.07s0,.08-.1.08h0c-.06,0-.08,0-.13,0s-.06,0-.09,0l0,0h0s0,0-.05,0l-.07,0h0c-.05,0-.07-.05-.08-.1h0s.09,0,.12,0a.12.12,0,0,0,.05,0l0,0h0a.9.9,0,0,1,.11-.1s.09,0,.13,0l.06,0a.17.17,0,0,0,0-.08.14.14,0,0,1,.06-.11s0,0,0,0h0a.27.27,0,0,1,.08-.07.23.23,0,0,0,.09-.08h0s0,0,0,0a.36.36,0,0,0,0-.09.43.43,0,0,1,0,0s0-.07,0-.1,0,0,0-.13a.28.28,0,0,1,0-.13s.08-.06.11-.09h0c0-.06.06,0,.09.06s0,.08.08.08h0s.1-.07.12-.09h0s.07,0,.1,0,.07,0,.11.06a.09.09,0,0,0,.1,0h0s0,0,0,0,0,0,.07,0a.06.06,0,0,0,.06,0s0,0,0-.06,0-.07.08-.11a.2.2,0,0,0,.08-.1.29.29,0,0,0,0-.16.16.16,0,0,1,.05-.14h0a.21.21,0,0,1,.11,0,.07.07,0,0,0,.05,0v-.08c0-.07,0-.08-.06-.12s0-.11.05-.14l.09-.1h0s.07-.06.1-.08l.12-.05c.06,0,.1.06.12.1a.12.12,0,0,0,.09.08h0c.07,0,.06-.06.06-.12s.05-.08.08-.11a.28.28,0,0,1,.11-.08h0a.23.23,0,0,1,.14,0c.07,0,.08,0,.09.09a.7.7,0,0,0,0,.16h0s.11,0,.12,0h0s0-.09,0-.12a.64.64,0,0,0-.08-.14.86.86,0,0,1,0-.16v-.17s0-.08.06-.12a.36.36,0,0,1,.07-.1l.09-.11a.31.31,0,0,1,.09-.07h0a.38.38,0,0,1,.15,0c.05,0,.07,0,.1-.08h0a.88.88,0,0,0,.05-.15.22.22,0,0,1,.06-.13h0a.17.17,0,0,1,.14,0c.06,0,.08,0,.11.07a.18.18,0,0,0,.09.08s0,0,0,0a.18.18,0,0,0,0-.12.17.17,0,0,1,0-.08l0,0h0l0,0,0,0h0l.06-.05a.33.33,0,0,0,.1-.06.39.39,0,0,1,.15,0s0,.09.07.12a0,0,0,0,0,.06,0,.1.1,0,0,0,0,0,.24.24,0,0,0,0-.12c.06-.13,0-.1,0-.19s.05-.3.15-.31.13.06.14.25,0,.16.12.16h0s.07-.23.1-.25h0a.08.08,0,0,1,0,0,.22.22,0,0,1,.15,0h.14s0,0,0,0-.09-.27-.12-.41-.17-.24-.17-.43a.26.26,0,0,1,.08-.19l.17-.11a.16.16,0,0,0,.07-.07,1,1,0,0,0,.09-.34.24.24,0,0,1,.1-.15l.13-.1a.93.93,0,0,0,.25-.27l.09-.12a.35.35,0,0,0,.08-.27c0-.12.15-.15.21-.23a.5.5,0,0,0,0-.36c0-.06-.19-.19-.23-.25s0-.19,0-.3a.5.5,0,0,0-.08-.27c-.06-.05-.11-.06-.15,0s-.07.06-.12.11a.4.4,0,0,0-.07.12s0,0-.14,0a.34.34,0,0,0-.19,0,.11.11,0,0,1-.06,0,1.53,1.53,0,0,0-.41.14c-.11.06-.18,0-.26.07h0l0,0,0,0a.62.62,0,0,0-.27,0c-.17,0-.18-.12-.23-.23s-.25,0-.37,0-.17-.2-.25-.27-.2,0-.29-.14l-.19-.18s-.2.08-.29,0-.24-.34-.43-.23-.27-.16-.34-.3a3.06,3.06,0,0,0-.21-.29l0-.05a1,1,0,0,0-.2-.29.14.14,0,0,1-.05-.09c0-.07.05-.14-.14-.19s0-.26,0-.39a.13.13,0,0,1,.08-.13.47.47,0,0,1,.17,0,.06.06,0,0,0,.06,0s-.07-.16-.08-.17-.15-.21-.23-.3a.4.4,0,0,1-.15-.36h0c0-.17.12-.24.22-.36a.44.44,0,0,0,.12-.15l0,0a.63.63,0,0,0,.08-.23.23.23,0,0,1,.08-.12l.11-.08h0s-.05-.24,0-.3h0a.84.84,0,0,1,.27-.29s.34,0,.41,0h0c.1,0-.13-.31-.14-.32a.48.48,0,0,1-.1-.37c0-.17-.14-.25-.11-.38s.17-.16,0-.35a1.06,1.06,0,0,0-.29-.27c-.15-.08-.17,0-.31.07a.34.34,0,0,1-.31,0l-.36-.2c-.11-.07-.2-.15-.31-.21s-.1-.24-.1-.36.13-.15,0-.34,0-.32-.12-.41a.82.82,0,0,0-.38,0c-.13,0,0-.31-.08-.41l0,0c-.12-.07-.14-.14-.13-.19a.21.21,0,0,1,.11-.13c.17-.1.15-.27.41-.27a.42.42,0,0,0,.37-.21s.36.19.4.23a.21.21,0,0,0,.31,0,.22.22,0,0,0,.05-.11,0,0,0,0,0,0,0c0-.07,0-.08,0-.08h0a2.1,2.1,0,0,0,.26-.13.38.38,0,0,0,.08-.11,2.13,2.13,0,0,0,.09-.21h0c0-.06.26-.12.33-.16s.18-.09.25-.07.13.19.19.13a.31.31,0,0,0,.06-.15h0a.15.15,0,0,1,0-.08h0s.08,0,.11-.09a.17.17,0,0,0,0-.12,1.07,1.07,0,0,0-.09-.43.21.21,0,0,1,0-.17.18.18,0,0,1,.12-.08h0s0-.11.07-.18a.18.18,0,0,1,.07,0,.09.09,0,0,0,.06-.06c0-.08,0-.23.07-.3s-.15-.29-.21-.32-.22-.06-.31-.25-.25-.27-.31-.41-.21-.06-.27-.21-.05-.26-.11-.38a.73.73,0,0,1,0-.41c0-.16.07-.2,0-.32s-.24-.11-.29-.12-.19-.22-.31-.25a1,1,0,0,1-.23-.11.28.28,0,0,1-.08-.12.28.28,0,0,1-.1-.09c-.06,0-.07-.31-.07-.38a2.36,2.36,0,0,1,0-.46h0a.37.37,0,0,1,.08-.19h0a.34.34,0,0,1,.17-.08.32.32,0,0,0,.13-.08h0a.2.2,0,0,1,.14-.06,1.37,1.37,0,0,0,.29,0,.35.35,0,0,0,.15-.07s0,0,.07-.06,0,0,0,0h0c.08-.08.1-.25.15-.36h0l0-.06,0,0h0a.38.38,0,0,0,.09-.25c0-.18,0-.2-.08-.3s-.11-.3-.14-.34l-.17-.28c-.08-.08-.15-.18-.23-.27s-.2.15-.23.16-.09-.2-.08-.23,0-.18,0-.26,0-.06.06-.1,0,0,0,0c.14-.18-.19-.19-.26-.23a.48.48,0,0,0-.31-.07c-.11,0,0-.39,0-.43s0-.28.06-.41h0a.89.89,0,0,1,.16-.25l.05-.07c.06-.06,0-.38,0-.41s-.24-.25-.31-.41,0-.1,0-.13.08-.06.11-.1h0a.23.23,0,0,0,0-.14H188S188,69,188,69h-.07a1.07,1.07,0,0,1-.25,0h0a1.83,1.83,0,0,0-.47,0h-.06l-.32.06h0a.31.31,0,0,1-.13,0h-.12a.34.34,0,0,0-.19.07l-.1.1h0s-.06,0-.09.06h0a.8.8,0,0,0-.16.08l0,0a2.25,2.25,0,0,1-.21.12h0l-.07.07h-.16s0,0,0,0a.36.36,0,0,0-.07-.1l0,0-.05,0h-.07a.35.35,0,0,0-.13,0,.56.56,0,0,1-.05.08l-.12.2,0,0h0a.42.42,0,0,1-.11.16s0,0,0,0-.08.17,0,.34a1.55,1.55,0,0,1,.14.43s0,0,0,.07a2.25,2.25,0,0,1-.3.16.57.57,0,0,0-.16.14l-.11.18h0c-.05.07-.26.12-.31.13s-.15-.06-.29-.06-.22,0-.35,0-.28.14-.21,0a.38.38,0,0,0,0-.37c-.07-.14-.16-.18-.09-.25l.13-.09a1.15,1.15,0,0,1,.31-.11l.33-.11c.07,0,.11,0,.13-.08s0,0,0-.11a.48.48,0,0,1-.06-.29h0a.08.08,0,0,1,0,0,1.13,1.13,0,0,1,.14-.36.76.76,0,0,0,.13-.39c0-.1-.24-.21-.29-.27s-.21-.12-.18-.2l.07-.1h0c.07-.07-.1-.24-.06-.34s.21-.22.21-.44c0,0,0-.1.1-.16l.14-.15h0c.1-.12-.05-.23-.13-.28s.1-.16.16-.22l0,0a2.65,2.65,0,0,1,.33-.34h0a3,3,0,0,0,.28-.33l.31-.28.26-.17.12-.08s0,0,.07-.06a1.24,1.24,0,0,1,.18-.14.34.34,0,0,0,.14-.12.5.5,0,0,0,0-.2c0-.16-.1-.16,0-.28l0,0h0a1.93,1.93,0,0,0,.11-.5.68.68,0,0,0-.05-.37c-.09-.2-.19-.11,0-.31s.1-.19.21-.26h0c.16-.08.38-.09.54-.18s.23-.09.31-.13l.11,0,.09-.07.19-.22.09-.08a.07.07,0,0,0,0-.07.76.76,0,0,0,0-.27.17.17,0,0,1,.05-.13.17.17,0,0,1,.16-.07c.07,0,.12-.22.23-.28a2.44,2.44,0,0,0,.29-.27h0c.1-.08.16-.24.25-.34l.27-.32a1.21,1.21,0,0,0,.21-.28.83.83,0,0,0,0-.31l.06-.09c.07-.05.16,0,.29-.14h0a.23.23,0,0,0,.05-.07s0,0,0,0,0-.09,0-.11a.33.33,0,0,1,.14,0s.07,0,.09,0,0-.22-.09-.26-.15-.15-.31-.11l-.31.09c-.11,0-.23,0-.32,0s-.07,0,0-.12l0,0a.1.1,0,0,1,0-.05s0,0,0,0l.09-.1s0,0,0-.06v0s.1-.06.16-.15a.33.33,0,0,0,0-.12h0a1.15,1.15,0,0,1,.27-.14s0,0,.05-.07a.33.33,0,0,0-.05-.27c-.08-.09,0-.19.09-.24l.07,0c.17,0,.09,0,.25,0s.38,0,.52,0,.22,0,.29.18-.14.18-.08.32.28,0,.37.25.36-.12.42-.14a.42.42,0,0,1,.35.12s.06,0,.1,0a1.09,1.09,0,0,0,.19-.19.36.36,0,0,0,.15-.27c0-.07-.05-.18,0-.18l.11,0a.13.13,0,0,0,.18,0,.29.29,0,0,0,.09-.19c0-.12.36-.32,0-.32,0,0,0,0,0,0a2.33,2.33,0,0,0,.21-.15.39.39,0,0,0,.08-.1.11.11,0,0,1,.06-.07.32.32,0,0,1,.09,0s.07-.05,0-.19,0-.32-.19-.5a.73.73,0,0,1-.2-.26c-.09-.18,0-.25,0-.38.14-.32,0-.54.08-.87,0-.17.1-.23.13-.39a2.8,2.8,0,0,0,0-.41s.1-.31.12-.41.15-.23.19-.32a1.12,1.12,0,0,0,0-.41c0-.16-.14-.3-.23-.41s-.06-.22-.06-.36a1,1,0,0,1,0-.39.25.25,0,0,0,0-.07c0-.09,0-.16.08-.23s0,0,0-.06a2.83,2.83,0,0,0,.21-.55,1.9,1.9,0,0,1,.23-.39,1.21,1.21,0,0,0,.08-.34.6.6,0,0,1,.19-.36,1.28,1.28,0,0,0,.11-.2,1.22,1.22,0,0,0,.12-.19h0c0-.1-.12-.17-.15-.3a.46.46,0,0,1,.08-.34,1.69,1.69,0,0,0,.15-.43,2.82,2.82,0,0,0,.15-.57,2.73,2.73,0,0,0,0-.5c0-.19.1-.32.15-.46a.92.92,0,0,1,.16-.27h0c.08-.1.15-.17.25-.28l.3-.34h0a.76.76,0,0,1,.08-.11.38.38,0,0,0,.14-.37s0,0,0,0a2.22,2.22,0,0,1,.31-.07.13.13,0,0,0,.06-.07c0-.06,0-.14.05-.19a.21.21,0,0,1,.14,0,.2.2,0,0,0,.15-.06s0,0,.07-.08l.05-.06h0c.09-.13,0-.38.1-.53s.09-.24.15-.36a2.89,2.89,0,0,1,.19-.35l0-.06a1.12,1.12,0,0,1,.29-.32h0c.09-.07-.23,0-.34-.09a.61.61,0,0,0-.35-.07.44.44,0,0,1-.33-.18,1,1,0,0,0-.36-.19c-.17-.07-.34-.23-.49-.29s0,0,0,0l0,0a.09.09,0,0,1-.12,0h-.05l-.11.1-.05,0a1.7,1.7,0,0,1-.35-.19c-.09,0-.24.09-.36.09s-.17,0-.29,0-.19,0-.29-.07-.1-.25-.25-.29-.19.12-.37,0-.19-.37-.29-.48.07-.2,0-.32-.24.11-.36-.14c0-.09-.22,0-.31,0h0a1.75,1.75,0,0,0-.12.32h0c0,.06-.14,0-.23.08s0,0-.05.06v0h0l-.05.06a.27.27,0,0,1-.24.09c-.16,0-.11-.13-.32,0s-.11,0-.24,0a.58.58,0,0,1-.36-.21c-.07-.08-.11,0-.15,0s-.05.15-.1.17,0,0,0,0h0c-.05,0-.07.06-.1-.09s-.08-.29-.11-.43,0-.2-.14-.23a.82.82,0,0,1-.44-.23c-.09-.1-.21.1-.35,0s-.17,0-.19,0a.33.33,0,0,0,0,.2c.06.12.06.16,0,.23l0,0,0,0-.08.1c-.07.07-.11.05-.15-.1s-.32,0-.37,0-.15-.19-.11-.29,0-.23-.16-.23-.07-.25-.1-.32a1.23,1.23,0,0,0-.17-.32,1.72,1.72,0,0,1-.27-.27.81.81,0,0,1-.17-.39c0-.23,0-.35-.18-.48a1.66,1.66,0,0,1-.15-.39.61.61,0,0,0-.23-.25.78.78,0,0,0-.35-.18.43.43,0,0,0-.33.05c-.17.09-.3-.06-.42-.16a.88.88,0,0,0-.29-.18.66.66,0,0,0-.44,0,1.17,1.17,0,0,0-.39.15c-.15.09-.1.17-.29.21s-.18.09-.31.11a.81.81,0,0,1-.31-.06c-.11,0-.05-.27-.15-.32a1.86,1.86,0,0,0-.48-.09c-.11,0-.21-.24-.27-.33s-.16-.09-.27-.15-.14-.06-.16,0l0,0a.19.19,0,0,1-.09,0,.6.6,0,0,1-.39-.07c-.11,0-.16,0-.2.06A1.12,1.12,0,0,0,181,38h0s0,.06,0,.06-.15-.11-.24-.13a.14.14,0,0,0-.17.06l-.05.09-.06.07h0a.29.29,0,0,1-.31,0,.26.26,0,0,1-.08-.28.43.43,0,0,0-.08-.25s0-.27-.06-.36-.12-.15-.15-.18-.36-.18-.39-.19-.15.15-.23.16-.06-.15,0-.26a.44.44,0,0,1,.06-.1h0c.08-.09-.06-.22-.15-.3s-.09-.19-.22-.23-.15.19-.32.09-.2-.05-.31-.18a2,2,0,0,1-.25-.25c-.09-.13-.09-.25-.23-.36s-.28-.07-.39-.16-.1-.23-.29-.19-.23.13-.36.16-.36-.1-.33-.25a.4.4,0,0,0,0-.34c-.07-.16,0-.27.09-.41a.46.46,0,0,0,0-.41c-.07-.14-.14-.14-.17-.27s-.17-.06-.25-.14-.07-.13,0-.18l0,0a.6.6,0,0,0,.09-.13c.06-.13,0-.3.09-.41a1.65,1.65,0,0,0,.06-.32.88.88,0,0,1,.12-.32h0l.05,0s.06-.07.06-.23.08-.18,0-.32-.28,0-.33-.12a.05.05,0,0,0-.05,0h0l0,0-.06.05-.09.09,0,0a.18.18,0,0,1-.1.06.5.5,0,0,0-.1.14,1.45,1.45,0,0,1-.15.21l-.16.14h0V97.62S175.39,97.57,175.4,97.58Zm9.53-10.26c.1-.09.11-.2.18-.32s.19-.07.23-.16a3.28,3.28,0,0,1,.68-.19c.28,0,0,.16-.1.19a1.51,1.51,0,0,0-.62.2c-.33.25.49.5.16.44C185.42,87.47,184.75,87.46,184.93,87.32Zm-2.7-12.61s0,0,.05.08.33.41.21.36a2.65,2.65,0,0,1,.11.74c0,.2-.09.8-.2.32a4.87,4.87,0,0,1-.06-.55,1.48,1.48,0,0,0-.09-.51c-.11-.25-.08-.44,0-.44Zm-5.36,22.13v0a.35.35,0,0,1,0-.12h0l.06.08c.06.1.13.25,0,.25S176.89,96.88,176.87,96.84Z"/><path class="cls-3" d="M85.69,131.73h0a32.55,32.55,0,0,1-15.31,3.88,31.9,31.9,0,0,1-9.71-1.52c.81,5.29,2.19,17.11-.79,21.82l26.39-1.17c.8-.46,1.49-.89,2-1.24C83.67,146.8,84.81,136.46,85.69,131.73Z"/><path class="cls-3" d="M70.37,131.49a28.49,28.49,0,0,0,13.18-3.28l-21.85,1.9A28,28,0,0,0,70.37,131.49Z"/><path class="cls-7" d="M59.29,156.67a5.71,5.71,0,0,0,.58-.75c3-4.71,1.6-16.53.79-21.82a31.9,31.9,0,0,0,9.71,1.52,32.55,32.55,0,0,0,15.31-3.88h0c-.88,4.73-2,15.07,2.61,21.78.85-.55,1.38-.94,1.46-1l1-.78,1.63.57c-5.06-5.94-3.57-18.6-2.86-23,11.23-7.89,19-22.48,19.92-39.39.61-3.85,2.77-18,2.77-24.17,0-5.1-3.18-14.27-13.08-21.32a51,51,0,0,1-6.14,4.76,58.71,58.71,0,0,1-9,5.06A39,39,0,0,0,99.06,70a19.47,19.47,0,0,1,5,4.18,55.8,55.8,0,0,1,1.42,12.55c0,18.73-9.08,34.8-21.92,41.45a28.49,28.49,0,0,1-13.18,3.28,28,28,0,0,1-8.67-1.38c-15.18-4.93-26.43-22.5-26.43-43.35a56.83,56.83,0,0,1,.33-6c5.57-3.92,15.42-6.55,26.89-7.29,15.83-1,20-14.81,20.9-18.9a52.56,52.56,0,0,1-21,4.34h-.11a57.57,57.57,0,0,1-26.25-6.35l-.09,0-.46-.28-.21.31c-11.21,16.78-3.24,45.4-4.5,36.83A7,7,0,0,1,31.16,86c0,.27,0,.53,0,.8,0,20.65,10.34,38.33,24.9,45.47l-.06,0c1.55,8.75,2.22,19.94.15,22A19,19,0,0,0,59.29,156.67Z"/><path class="cls-7" d="M140,171.93c-9.77-2.85-33.08-4.66-35.72-9.25a1.28,1.28,0,0,0-.19-.23L83.28,180l-12.13-10.8-8.6,10.91L40.27,164.16a139.94,139.94,0,0,1-26.51,8.58C-3.74,176.4.44,215.89.44,215.89s70.42,25.23,148.11,2.44C155,208.56,149.72,174.77,140,171.93Z"/><path class="cls-3" d="M73.32,164.51l10,8.94,16-13.49-7.72-2.72c-2.78,1.88-10,6.26-18,7.24Z"/><path class="cls-3" d="M68.45,164.64a25.14,25.14,0,0,1-15.83-7L45.67,162l15.92,11.39Z"/><path class="cls-8" d="M71.15,169.19,83.28,180,104,162.45l5.07-4.28L92.44,152.3l-1.63-.57-1,.78c-.08.06-.61.45-1.46,1-.55.35-1.24.78-2,1.24A36.9,36.9,0,0,1,73,159.58a20.45,20.45,0,0,1-13.71-2.91,19,19,0,0,1-3.15-2.45A13.83,13.83,0,0,1,55,153l-1.36-1.77L36.76,161.64l3.51,2.52L62.55,180.1Zm20.47-11.95L99.34,160l-16,13.49-10-8.94.28,0C81.64,163.5,88.84,159.12,91.62,157.24Zm-39,.42a25.14,25.14,0,0,0,15.83,7l-6.86,8.7L45.67,162Z"/><path class="cls-7" d="M24.92,46.83c-.17-.42-.26-1-.9-.45a5.44,5.44,0,0,1-5.72.95c-.55-.22-.74,0-.76.56-.06,1.4-.14,2.82-.22,4.19-.14,2.46.25,4.9.23,7.36a58.4,58.4,0,0,0,2.36,10.89,5.76,5.76,0,0,0,.83,1.73.82.82,0,0,0,.8.33c.36-.06.45-.38.47-.69,0-.51,0-1,.08-1.53.35,1.22,1.46,1.43,2.37,1.88.33.16.66.57,1,.35s.08-.61.1-1-.15-.84.51-.75c.48.07.92.2.8.84,0,.19-.09.37-.13.55s-.13.44.11.49a.74.74,0,0,0,.52-.13,1.21,1.21,0,0,0,.42-.77,14.37,14.37,0,0,0,.34-2.92,62.67,62.67,0,0,0-.79-6.41,7.26,7.26,0,0,1-.09-1.92A28.86,28.86,0,0,0,24.92,46.83Z"/><path class="cls-7" d="M62.43,56a50.84,50.84,0,0,0,29-9.17,39.64,39.64,0,0,0,8.42-7.24,2.26,2.26,0,0,0,.6-1.85c-.7-5.84-1.55-11.75-2.38-17.49l-1.38.65C87.18,25.37,77.35,30,67.56,34.42a4.15,4.15,0,0,1-1.84.42,4.56,4.56,0,0,1-.89-.09L30.5,28.62,31,32c.5,3.75,1,7.5,1.58,11.32.11.76.19,1.4.26,1.93.26,2.07.26,2.07,2.6,3.52l1.6,1,.21.1A54.19,54.19,0,0,0,62.43,56Z"/><path class="cls-3" d="M36.07,52.53a57.57,57.57,0,0,0,26.25,6.35h.11a52.56,52.56,0,0,0,21-4.34l.62-.27a58.71,58.71,0,0,0,9-5.06,51,51,0,0,0,6.14-4.76,31,31,0,0,0,2.84-3,5.08,5.08,0,0,0,1.29-4.1c-.73-6.06-1.62-12.2-2.48-18.14l0-.25,10.92-5.13,5.7-3.1L97.54,7.13Q77.71,3.62,57.92.07a3.77,3.77,0,0,0-2.45.32l-29.85,14-13,6L6.77,23.38l2.7,1.25a6.56,6.56,0,0,0,2,.51,3.71,3.71,0,0,1,.94.2l5.08.92,1.43.26.54.1,8.08,1.47.57,4.29c.5,3.77,1,7.54,1.59,11.37.11.74.18,1.35.25,1.86.42,3.32.78,3.65,3.94,5.61l1.64,1,.46.28Zm1.13-2.66-.21-.1-1.6-1c-2.34-1.45-2.34-1.45-2.6-3.52-.07-.53-.15-1.17-.26-1.93C32,39.5,31.45,35.75,31,32l-.45-3.38,34.33,6.13a4.56,4.56,0,0,0,.89.09,4.15,4.15,0,0,0,1.84-.42c9.79-4.43,19.62-9,29.14-13.52l1.38-.65c.83,5.74,1.68,11.65,2.38,17.49a2.26,2.26,0,0,1-.6,1.85,39.64,39.64,0,0,1-8.42,7.24,50.84,50.84,0,0,1-29,9.17A54.19,54.19,0,0,1,37.2,49.87ZM14.41,22.77,26.84,17,56.77,3a1,1,0,0,1,.62-.06Q77.2,6.44,97,10l11.71,2.11L95.47,18.3C86,22.76,76.15,27.37,66.32,31.83a1.59,1.59,0,0,1-1,.1L30.42,25.69l-11-2Z"/><path class="cls-7" d="M17.48,26.26q.72,6,1.51,12a1.81,1.81,0,0,1-.6,1.9,2.89,2.89,0,0,0-1.06,1.95,3.58,3.58,0,0,0,1.59,3.82L19,46a3.3,3.3,0,0,0,4.51-1.24,2.55,2.55,0,0,0,.25-.46A3.5,3.5,0,0,0,22,39.63,1.82,1.82,0,0,1,20.93,38q-.72-5.7-1.48-11.39l-.54-.1Z"/><path class="cls-7" d="M30.42,25.69l34.94,6.24a1.59,1.59,0,0,0,1-.1C76.15,27.37,86,22.76,95.47,18.3l13.27-6.23L97,10Q77.21,6.45,57.39,2.9a1,1,0,0,0-.62.06L26.84,17,14.41,22.77l5,.92Z"/></g></g></svg>