<svg width="31" height="31" viewBox="0 0 31 31" fill="none" xmlns="http://www.w3.org/2000/svg">
<path d="M27.8243 5.40174H24.4909V7.90174C24.4909 8.14249 24.4435 8.38089 24.3514 8.60332C24.2592 8.82575 24.1242 9.02786 23.954 9.1981C23.7837 9.36834 23.5816 9.50338 23.3592 9.59552C23.1368 9.68765 22.8984 9.73507 22.6576 9.73507C22.4168 9.73507 22.1784 9.68765 21.956 9.59552C21.7336 9.50338 21.5315 9.36834 21.3612 9.1981C21.191 9.02786 21.056 8.82575 20.9638 8.60332C20.8717 8.38089 20.8243 8.14249 20.8243 7.90174V5.40174H11.1159V7.90174C11.1159 8.38797 10.9228 8.85428 10.579 9.1981C10.2351 9.54192 9.76883 9.73507 9.2826 9.73507C8.79637 9.73507 8.33006 9.54192 7.98624 9.1981C7.64242 8.85428 7.44927 8.38797 7.44927 7.90174V5.40174H4.11594C3.91762 5.39948 3.72087 5.43702 3.53732 5.51212C3.35376 5.58723 3.18713 5.69838 3.04728 5.83901C2.90743 5.97964 2.7972 6.14688 2.72311 6.33085C2.64903 6.51481 2.61258 6.71177 2.61594 6.91007V25.5601C2.61263 25.7549 2.64772 25.9484 2.71922 26.1297C2.79073 26.3109 2.89723 26.4763 3.03265 26.6163C3.16808 26.7564 3.32977 26.8684 3.50849 26.946C3.68721 27.0235 3.87947 27.0651 4.07427 27.0684H27.8243C28.0191 27.0651 28.2113 27.0235 28.39 26.946C28.5688 26.8684 28.7305 26.7564 28.8659 26.6163C29.0013 26.4763 29.1078 26.3109 29.1793 26.1297C29.2508 25.9484 29.2859 25.7549 29.2826 25.5601V6.91007C29.2859 6.71527 29.2508 6.52172 29.1793 6.34049C29.1078 6.15925 29.0013 5.99388 28.8659 5.85381C28.7305 5.71375 28.5688 5.60173 28.39 5.52416C28.2113 5.44659 28.0191 5.40499 27.8243 5.40174ZM9.2826 22.0684H7.61594V20.4017H9.2826V22.0684ZM9.2826 17.9017H7.61594V16.2351H9.2826V17.9017ZM9.2826 13.7351H7.61594V12.0684H9.2826V13.7351ZM14.2826 22.0684H12.6159V20.4017H14.2826V22.0684ZM14.2826 17.9017H12.6159V16.2351H14.2826V17.9017ZM14.2826 13.7351H12.6159V12.0684H14.2826V13.7351ZM19.2826 22.0684H17.6159V20.4017H19.2826V22.0684ZM19.2826 17.9017H17.6159V16.2351H19.2826V17.9017ZM19.2826 13.7351H17.6159V12.0684H19.2826V13.7351ZM24.2826 22.0684H22.6159V20.4017H24.2826V22.0684ZM24.2826 17.9017H22.6159V16.2351H24.2826V17.9017ZM24.2826 13.7351H22.6159V12.0684H24.2826V13.7351Z" fill="white"/>
<path d="M9.28255 8.73506C9.50357 8.73506 9.71553 8.64726 9.87181 8.49098C10.0281 8.3347 10.1159 8.12274 10.1159 7.90172V2.90172C10.1159 2.68071 10.0281 2.46875 9.87181 2.31247C9.71553 2.15619 9.50357 2.06839 9.28255 2.06839C9.06154 2.06839 8.84958 2.15619 8.6933 2.31247C8.53702 2.46875 8.44922 2.68071 8.44922 2.90172V7.90172C8.44922 8.12274 8.53702 8.3347 8.6933 8.49098C8.84958 8.64726 9.06154 8.73506 9.28255 8.73506Z" fill="white"/>
<path d="M22.616 8.73506C22.8371 8.73506 23.049 8.64726 23.2053 8.49098C23.3616 8.3347 23.4494 8.12274 23.4494 7.90172V2.90172C23.4494 2.68071 23.3616 2.46875 23.2053 2.31247C23.049 2.15619 22.8371 2.06839 22.616 2.06839C22.395 2.06839 22.1831 2.15619 22.0268 2.31247C21.8705 2.46875 21.7827 2.68071 21.7827 2.90172V7.90172C21.7827 8.12274 21.8705 8.3347 22.0268 8.49098C22.1831 8.64726 22.395 8.73506 22.616 8.73506Z" fill="white"/>
</svg>
