<svg width="31" height="30" viewBox="0 0 31 30" fill="none" xmlns="http://www.w3.org/2000/svg">
<path d="M15.1968 21.25L16.4468 18.75V12.3225C18.598 11.7638 20.1968 9.8225 20.1968 7.5C20.1968 4.7425 17.9543 2.5 15.1968 2.5C12.4393 2.5 10.1968 4.7425 10.1968 7.5C10.1968 9.8225 11.7955 11.7638 13.9468 12.3225V18.75L15.1968 21.25Z" fill="white"/>
<path d="M20.5305 13.2038L19.8643 15.6138C23.103 16.5088 25.1968 18.23 25.1968 20C25.1968 22.365 21.0905 25 15.1968 25C9.30303 25 5.19678 22.365 5.19678 20C5.19678 18.23 7.29053 16.5088 10.5305 15.6125L9.86428 13.2025C5.44303 14.425 2.69678 17.0288 2.69678 20C2.69678 24.205 8.18803 27.5 15.1968 27.5C22.2055 27.5 27.6968 24.205 27.6968 20C27.6968 17.0288 24.9505 14.425 20.5305 13.2038Z" fill="white"/>
</svg>
