<svg width="26" height="26" viewBox="0 0 26 26" fill="none" xmlns="http://www.w3.org/2000/svg">
<path d="M18.8655 15.5C18.9655 14.675 19.0405 13.85 19.0405 13C19.0405 12.15 18.9655 11.325 18.8655 10.5H23.0905C23.2905 11.3 23.4155 12.1375 23.4155 13C23.4155 13.8625 23.2905 14.7 23.0905 15.5H18.8655ZM16.653 22.45C17.403 21.0625 17.978 19.5625 18.378 18H22.0655C20.8545 20.0853 18.9332 21.665 16.653 22.45ZM16.3405 15.5H10.4905C10.3655 14.675 10.2905 13.85 10.2905 13C10.2905 12.15 10.3655 11.3125 10.4905 10.5H16.3405C16.453 11.3125 16.5405 12.15 16.5405 13C16.5405 13.85 16.453 14.675 16.3405 15.5ZM13.4155 22.95C12.378 21.45 11.5405 19.7875 11.028 18H15.803C15.2905 19.7875 14.453 21.45 13.4155 22.95ZM8.41553 8H4.76553C5.9641 5.90902 7.88402 4.32686 10.1655 3.55C9.41553 4.9375 8.85303 6.4375 8.41553 8ZM4.76553 18H8.41553C8.85303 19.5625 9.41553 21.0625 10.1655 22.45C7.88881 21.6646 5.97159 20.0847 4.76553 18ZM3.74053 15.5C3.54053 14.7 3.41553 13.8625 3.41553 13C3.41553 12.1375 3.54053 11.3 3.74053 10.5H7.96553C7.86553 11.325 7.79053 12.15 7.79053 13C7.79053 13.85 7.86553 14.675 7.96553 15.5H3.74053ZM13.4155 3.0375C14.453 4.5375 15.2905 6.2125 15.803 8H11.028C11.5405 6.2125 12.378 4.5375 13.4155 3.0375ZM22.0655 8H18.378C17.9868 6.45182 17.4075 4.95737 16.653 3.55C18.953 4.3375 20.8655 5.925 22.0655 8ZM13.4155 0.5C6.50303 0.5 0.915527 6.125 0.915527 13C0.915527 16.3152 2.23249 19.4946 4.57669 21.8388C5.73743 22.9996 7.11542 23.9203 8.63199 24.5485C10.1486 25.1767 11.774 25.5 13.4155 25.5C16.7307 25.5 19.9102 24.183 22.2544 21.8388C24.5986 19.4946 25.9155 16.3152 25.9155 13C25.9155 11.3585 25.5922 9.73303 24.964 8.21646C24.3358 6.69989 23.4151 5.3219 22.2544 4.16117C21.0936 3.00043 19.7156 2.07969 18.1991 1.45151C16.6825 0.823322 15.0571 0.5 13.4155 0.5Z" fill="white"/>
</svg>
