<svg width="26" height="20" viewBox="0 0 26 20" fill="none" xmlns="http://www.w3.org/2000/svg">
<path d="M25.0161 5.76V15.9375C25.0162 16.9752 24.6192 17.9735 23.9065 18.7278C23.1939 19.482 22.2196 19.935 21.1836 19.9938L20.9536 20H4.07861C3.04094 20.0001 2.04258 19.6031 1.28832 18.8904C0.534072 18.1778 0.0811116 17.2035 0.0223634 16.1675L0.0161133 15.9375V5.76L12.0811 12.08C12.2153 12.1503 12.3646 12.187 12.5161 12.187C12.6676 12.187 12.8169 12.1503 12.9511 12.08L25.0161 5.76ZM4.07861 2.95064e-08H20.9536C21.9606 -0.000121268 22.9317 0.373744 23.6787 1.04908C24.4256 1.72442 24.8951 2.6531 24.9961 3.655L12.5161 10.1925L0.0361133 3.655C0.133017 2.69289 0.569926 1.7969 1.2683 1.12808C1.96668 0.459261 2.88071 0.0614837 3.84611 0.00625017L4.07861 2.95064e-08H20.9536H4.07861Z" fill="white"/>
</svg>
