<svg xmlns="http://www.w3.org/2000/svg" viewBox="0 0 139.5 115.71">

<defs><style>.cls-1{fill:#5db67d;}.cls-2{fill:none;stroke:#1b66aa;stroke-miterlimit:10;stroke-width:2px;}</style></defs>
<title>guillemetspx</title><g id="Calque_2" data-name="Calque 2"><g id="Calque_1-2" data-name="Calque 1">
<path class="cls-1" d="M26.81,11.5a4.93,4.93,0,0,0,.73.14,22,22,0,0,1,8,1.86,46.49,46.49,0,0,1,5.74,3,55.17,55.17,0,0,1,4.87,3.78c2.27,1.82,3.7,4.29,5.19,6.71a31,31,0,0,1,3.5,7.79A63.09,63.09,0,0,1,57,43.84c.23,1.8.48,3.6.66,5.4.14,1.42.19,2.86.27,4.29A22.11,22.11,0,0,1,58,56.1q-.2,3.75-.52,7.5a47.39,47.39,0,0,1-1.82,8.89,59.37,59.37,0,0,1-4.57,11.25,63.59,63.59,0,0,1-5.86,9.05,64.53,64.53,0,0,1-6.74,7.37,56,56,0,0,1-9.65,7.34c-1.57,1-3.16,1.87-4.81,2.67a53.81,53.81,0,0,1-12.81,4.41c-1.71.34-3.45.56-5.18.8-1,.14-2,.22-3.09.33,0-1.1,0-2.12,0-3.13a.5.5,0,0,1,.3-.35,34.21,34.21,0,0,0,8-2.42,32.21,32.21,0,0,0,6.87-3.92,44.23,44.23,0,0,0,4.36-3.71,39.5,39.5,0,0,0,5.54-7,49.22,49.22,0,0,0,5.75-13.12c.62-2.29,1.22-4.59,1.69-6.91a42.31,42.31,0,0,0,.7-5.26c.23-2.89.37-5.8.54-8.7,0-.13,0-.26,0-.42-1.09.38-2.14.78-3.21,1.14A19.75,19.75,0,0,1,28.09,63c-.86,0-1.72.12-2.57.13a24.79,24.79,0,0,1-9.65-1.94,25.5,25.5,0,0,1-7.33-4.64A25.08,25.08,0,0,1,2.29,48,22.6,22.6,0,0,1,.27,41C.22,40.46.09,40,0,39.51V35.24A1.1,1.1,0,0,0,.14,35c.14-.95.23-1.91.41-2.85A24.36,24.36,0,0,1,6.36,20.32,25,25,0,0,1,16,13.48a23.9,23.9,0,0,1,8.25-1.84,2.18,2.18,0,0,0,.46-.14Z"/><path class="cls-1" d="M99.78,11.5a2.18,2.18,0,0,0,.46.14,22.47,22.47,0,0,1,8.32,1.88c1.32.58,2.53,1.38,3.85,2a29,29,0,0,1,7,5A21.24,21.24,0,0,1,123.66,26c.84,1.43,1.69,2.86,2.44,4.34a31.56,31.56,0,0,1,2.35,6.77c.43,1.77.87,3.55,1.24,5.33a40.17,40.17,0,0,1,.62,4.08c.22,2.41.39,4.82.54,7.23A31.65,31.65,0,0,1,131,58c-.22,2.75-.54,5.49-.91,8.22a47,47,0,0,1-2.38,9.28A62.18,62.18,0,0,1,123,85.62a57.34,57.34,0,0,1-6.16,8.85,78.68,78.68,0,0,1-5.92,6.19,57.8,57.8,0,0,1-10.11,7.47,48.85,48.85,0,0,1-9.18,4.29c-2.77.93-5.62,1.66-8.47,2.37a32.86,32.86,0,0,1-4.08.59c-1,.13-2,.21-3.17.33,0-1.1,0-2.11,0-3.12a.54.54,0,0,1,.36-.36,35.73,35.73,0,0,0,11.15-4,35.34,35.34,0,0,0,5.7-4,39.7,39.7,0,0,0,8.48-10.14,48.5,48.5,0,0,0,5.37-13c.64-2.53,1.23-5.08,1.71-7.64a45.61,45.61,0,0,0,.56-5c.21-2.57.36-5.14.54-7.81-1.25.44-2.33.85-3.41,1.2a19.32,19.32,0,0,1-5.32,1c-1.1.05-2.2.15-3.31.12a24.78,24.78,0,0,1-9-2,25.69,25.69,0,0,1-7.27-4.63,25.05,25.05,0,0,1-7-10.52,25.48,25.48,0,0,1-1.35-6.17,25.79,25.79,0,0,1,2.15-13.14A25.72,25.72,0,0,1,92.83,12.22a43.43,43.43,0,0,1,4.42-.58,1.9,1.9,0,0,0,.4-.14Z"/><path class="cls-2" d="M35.51,1a4.57,4.57,0,0,0,.72.14A21.49,21.49,0,0,1,44.12,3,45.72,45.72,0,0,1,49.8,6a54.35,54.35,0,0,1,4.81,3.78c2.24,1.82,3.66,4.29,5.13,6.71a31.24,31.24,0,0,1,3.46,7.79,63,63,0,0,1,2.1,9.09c.23,1.8.47,3.6.65,5.4.14,1.42.19,2.86.27,4.29a24.56,24.56,0,0,1,.12,2.57c-.14,2.5-.3,5-.52,7.5A48.16,48.16,0,0,1,64,62,59.18,59.18,0,0,1,59.5,73.24a64,64,0,0,1-5.79,9.05,63.85,63.85,0,0,1-6.66,7.37A55.56,55.56,0,0,1,37.51,97c-1.55,1-3.13,1.87-4.76,2.67a52.69,52.69,0,0,1-12.66,4.41c-1.69.34-3.41.56-5.12.8-1,.14-2,.22-3.05.33,0-1.1,0-2.12,0-3.13a.48.48,0,0,1,.3-.35,33.58,33.58,0,0,0,7.88-2.42,31.41,31.41,0,0,0,6.79-3.92,43.63,43.63,0,0,0,4.31-3.71,38.68,38.68,0,0,0,5.47-7,49.4,49.4,0,0,0,5.7-13.12c.61-2.29,1.2-4.59,1.67-6.91a46.43,46.43,0,0,0,.69-5.26c.23-2.89.36-5.8.53-8.7,0-.13,0-.26,0-.42-1.07.38-2.12.78-3.18,1.14a19.26,19.26,0,0,1-5.31,1.06c-.85,0-1.7.12-2.55.13a24.21,24.21,0,0,1-9.53-1.94A25.76,25.76,0,0,1,11.26,37.51a23.09,23.09,0,0,1-2-7.06c0-.49-.18-1-.27-1.44V24.74a1.1,1.1,0,0,0,.14-.26c.13-.95.23-1.91.4-2.85A24.44,24.44,0,0,1,15.29,9.82,24.74,24.74,0,0,1,24.78,3a23.41,23.41,0,0,1,8.16-1.84A2.18,2.18,0,0,0,33.4,1Z"/><path class="cls-2" d="M107.64,1a1.88,1.88,0,0,0,.46.14A22,22,0,0,1,116.32,3c1.3.58,2.5,1.38,3.8,2A28.83,28.83,0,0,1,127,10a21.23,21.23,0,0,1,4.2,5.45c.84,1.43,1.67,2.86,2.41,4.34A32.06,32.06,0,0,1,136,26.58c.42,1.77.86,3.55,1.22,5.33a37.52,37.52,0,0,1,.61,4.08c.23,2.41.39,4.82.54,7.23a31.65,31.65,0,0,1,.11,4.24c-.21,2.75-.54,5.49-.9,8.22A46.28,46.28,0,0,1,135.2,65a61.9,61.9,0,0,1-4.6,10.16A56.25,56.25,0,0,1,124.51,84a76,76,0,0,1-5.85,6.19,57.37,57.37,0,0,1-10,7.47,47.81,47.81,0,0,1-9.06,4.29c-2.75.93-5.57,1.66-8.38,2.37a32,32,0,0,1-4,.59c-1,.13-2,.21-3.13.33,0-1.1,0-2.11,0-3.12a.54.54,0,0,1,.36-.36,35.52,35.52,0,0,0,16.65-8,39.52,39.52,0,0,0,8.38-10.14,48.7,48.7,0,0,0,5.32-13c.63-2.53,1.21-5.08,1.69-7.64a48.22,48.22,0,0,0,.55-5c.21-2.57.36-5.14.54-7.81-1.25.44-2.31.85-3.38,1.2a18.91,18.91,0,0,1-5.25,1c-1.09.05-2.19.15-3.28.12a24.31,24.31,0,0,1-8.92-2A25.52,25.52,0,0,1,89.54,46a25.18,25.18,0,0,1-7-10.52,26.52,26.52,0,0,1,.8-19.31,25.36,25.36,0,0,1,6.34-8.67,24.73,24.73,0,0,1,11-5.76,42.1,42.1,0,0,1,4.37-.58,2,2,0,0,0,.39-.14Z"/></g></g></svg>