<svg xmlns="http://www.w3.org/2000/svg" width="120" height="120" viewBox="0 0 120 120">
  <g>
    <g>
      <path fill="rgb(29,102,175)" fill-rule="evenodd" d="M102.78045654 58.73901367c-9.63238525-9.94360351-19.55187988-19.6282959-29.13201904-29.6237793-2.81921387-2.92614746-5.58618164-5.87817382-8.32714844-8.8560791-.62646484-.69921875-1.48791504.18115235-1.87945556.64733887-9.3713379 10.8758545-19.42132569 21.15625-28.4533081 32.31689453-2.50592042 3.08154297-4.90753175 6.24072266-7.20465089 9.50354004-.49597168.72497559-.8092041 1.60546875-.83532715 2.48583984 0 .41442872.10443116 1.52783204.730896 1.57971192 3.68066406.36242676 7.33520508.72497558 11.01586914 1.08752441-.01812744.95166016.13952637 1.953125.29022217 2.91064453.06652832.42236329.13165283.8359375.17962646 1.23254395.26104737 2.149292.49597168 4.27270508.75701905 6.42199707.26104736 2.27868652.54821777 4.55749512.80926513 6.83630371.26098633 2.1751709.28710938 4.55749512 1.01800537 6.62902832.02612305.05187988.0522461.07775879.1305542.05187988 0 .07763672.02606201.10351563.10443116.10351563 15.50567626.46618652 31.06365966-.64733887 46.46496582-2.3046875.86138916-.10351563 1.8272705-.95800781 2.4798584-1.47595215.07055663-.05761719.15820312-.12438965.2555542-.1986084.51531982-.39245605 1.30236816-.99194336 1.25848388-1.53637695-.730896-7.43188477-1.35742188-14.88964844-2.14050293-22.29553223 1.62835693-.01159668 3.24121094-.2133789 4.8546753-.4152832 2.00891113-.2512207 4.01678466-.5024414 6.05676269-.38757324.83532715.05187988 1.56622314-1.45007325 1.7489624-2.0456543.26098633-.77685547.46984863-2.0197754-.18273926-2.66723633zm-13.26086425.59558106c.1305542-.05175782.2871704-.07763672.41766357-.07763672 2.11444092.1295166 4.20275879-.15539551 6.2388916-.44018555-1.43572998-1.47607422-2.897583-2.95202637-4.359375-4.42810059-9.475708-9.55517578-19.02978516-19.0328369-28.14001465-28.92468261-2.24493408 2.58947754-4.54211426 5.17895508-6.86535644 7.7425537-8.48376465 9.42578126-17.22857666 18.72216798-24.8248291 28.89892579 3.00195312.28479004 5.9777832.59558105 8.97973632.8803711.28717041-.36254883.57427979-.69921876.83532715-1.0357666 1.25299072-1.57958985 2.4798584-3.1850586 3.70678711-4.79064942 4.90753174-6.37011719 9.73675537-12.81799317 14.69647217-19.13635254.60040283-.75097656 1.38354492-1.39831543 2.19274902-1.94213867l.0321045-.02294922c.26855468-.1920166 1.47021484-1.05151367 1.76904296-.77978516 3.3413086 3.15917969 6.57818604 6.39611817 9.86730957 9.58117676 2.81921387 2.71899414 5.69067383 5.43786621 8.66650391 8.00158691 1.48791504 1.26879883 3.00195313 2.48583985 4.54205322 3.70288086 1.09637451.85461426 1.8012085 1.68322754 2.24493409 2.77075196zM45.89996338 88.82897949c0-.0258789 0-.07763672-.02606201-.10351562-.57427979-1.70910645-.6525879-3.57348633-.8614502-5.3602295-.23492431-2.07165527-.49597168-4.14331054-.730896-6.18896484l-.70483398-5.98168945c-.23492432-1.99401856-.60040283-4.03967285-.70477295-6.03356934-.09539795-1.8684082.87615967-3.08874511 1.96008301-4.45019531.10290527-.12927246.2067871-.25976563.31091309-.39221191l3.60235595-4.66113282c2.37548828-3.0814209 4.69873047-6.16296386 7.07415772-9.24450683 1.77508545-2.3305664 3.5501709-4.63513184 5.32519531-6.93981934 5.42962647 5.17895508 10.67651367 10.59106445 16.31500244 15.5369873 1.461792 1.29479981 2.94970703 2.53771973 4.46374512 3.75476075 1.461792 1.1652832 3.13244629 2.1751709 3.65454101 4.06555176.52209473 1.89038086.52209473 4.01367187.70483399 5.98168945.20880127 2.1751709.41766357 4.37634277.65258789 6.55151367.39154053 3.85827637.75701904 7.74255371 1.14855957 11.60095215-3.78509521.38842773-7.54400635.72509766-11.32910156 1.0098877-.41766358-4.63525391-.83532715-9.27038575-1.27911377-13.90563965-.20880127-2.22692871-.83532715-4.97180176-3.10632324-5.56738282-1.14862061-.31079101-2.40161133.10351563-3.3413086.77685547-2.83807373 2.05566407-2.60534668 4.0534668-2.25335693 7.0748291.05596924.48010254.1149292.98620606.16503906 1.52233887.11431885 1.31225586-.02685547 4.33752442-.1486206 6.9473877-.07275391 1.55932617-.1385498 2.96887207-.1385498 3.77307129-6.91754151.33666992-13.83508302.44018554-20.75262452.23303222z"/>
      <path fill="rgb(93,182,125)" fill-rule="evenodd" d="M57.38568115 73.00720215c.62652588.20727539 1.07025147.85461426 1.09637451 1.50195312.52209473 8.57128907-1.59234619 17.16845703-6.2649536 24.39306641-1.98388673 3.15917969-4.359375 6.24072266-7.5701294 8.20874023-1.61846924.9840088-3.44573975 1.73498536-5.35131836 1.91625977-2.14050293.20715332-4.28100586-.54382324-6.16052246-1.52783203-6.42156983-3.3404541-9.81506348-9.8659668-12.34716797-16.31384277-1.22686768-3.13330079-2.32324219-6.3701172-3.1324463-9.63293458-.03857421-.15856933-.07836913-.31835937-.11834716-.47912597-.33880615-1.36132813-.69494629-2.7923584-.50817871-4.18200684.2871704-2.0974121 1.5923462-3.05554199 3.44573975-3.75476074 3.02807617-1.1394043 6.0560913-2.74487305 8.8753662-4.3244629 2.55816651-1.42419433 4.8031006-3.2368164 6.89141846-5.28259276.02612305-.05175782.0783081-.07763672.13049317-.12939454.62652588-.62158203 1.51403808-.69921875 2.24493408-.44030761.31329346.07775879.57427978.20715332.83532715.38842773 5.61236572 3.91015625 11.45965576 7.35424805 17.93341064 9.65881348zm-12.8170166 29.39086914c2.24493408-2.38244629 4.1505127-5.25671387 5.63848877-8.18286133 2.94970703-5.72277832 4.20269775-12.11889648 4.04608154-18.48901367-5.71673584-2.149292-10.98974609-5.20495606-16.02783203-8.59716797-1.95776367 1.73498535-4.04608154 3.28869629-6.34326172 4.60925293-1.38348388.80285645-2.79309082 1.50195313-4.20269775 2.17529297-1.5923462.7508545-3.15856934 1.63134765-4.80310059 2.25280762-.36547851.1295166-.75701904.25891113-1.12249756.44018554-.13049316.05187989-.18273925.1295166-.23492431.15539551-.26104736.59558106-.15661621 1.34655762-.0783081 1.86450195.20880126 1.26879883.57427978 2.51171875.91363525 3.75476075.8614502 3.05554199 1.90557861 6.08532714 3.13244629 9.03735351 2.24493408 5.43786621 5.2468872 11.0571289 10.93756103 13.54309082 1.461792.64733887 2.74090576.77685547 4.20269776.12939453 1.46185302-.62145996 2.8453369-1.52770996 3.94171142-2.69299316z"/>
      <path fill="rgb(255,255,255)" fill-rule="evenodd" d="M37.96439649 64.61722407c5.56013547 3.85835536 11.25079054 7.4059707 18.37716135 9.91778593.67870199 10.668741-2.79311969 20.92316197-9.99780227 28.84703272-1.6445471 1.81265017-4.82922564 3.78067036-7.28299434 3.91014537-1.33130004.077685-2.66260008-.33663503-3.86338051-.90632509-4.48987465-1.96802018-7.25689043-5.3343705-9.5540356-9.6070459-2.63649616-4.89415546-5.6123433-13.56898128-6.39546098-18.1006067-.18272746-1.0099051-.15662353-1.91623019.339351-2.84845027.39155883-.72506007 2.03610594-1.1134851 2.76701576-1.47601514 7.43961788-3.57351034 10.5981925-4.76468045 15.61014559-9.73652092"/>
      <path fill="rgb(93,182,125)" fill-rule="evenodd" d="M37.91218864 68.83810947c4.46377073 3.1074003 9.03195715 5.95585056 14.74871615 7.97566075.54818237 8.5712458-2.24493733 16.80585658-8.0400081 23.17602718-1.33130004 1.45012014-3.88948443 3.02971529-5.8472786 3.1332953-1.07026083.05179-2.14052164-.28484503-3.10636677-.72506007-3.57623737-1.60549015-5.79507077-4.3244654-7.64844926-7.74260573-2.11441771-3.93604037-4.48987465-10.87590102-5.1424727-14.52709637-.13051962-.80274507-.13051962-1.52780514.28714314-2.27876021.31324707-.56969006 1.61844319-.88043009 2.2188334-1.19117012 5.97779823-2.90024027 8.5098787-3.85835536 12.52988274-7.82029073"/>
      <path fill="rgb(255,255,255)" fill-rule="evenodd" d="M29.89828447 84.60816595c1.9838981 1.83854518 3.4979256 4.03962038 4.90753741 6.3183806.5742863.90632508 1.09636474 2.1492852 1.95779418 2.79666026 1.22688435.9581151 2.34935301 0 3.00195107-1.0616951 2.7931197-4.42804542 5.50792762-8.93377584 9.03195715-12.8439212.4698706-.51790006.60039021-1.24296013.15662353-1.81265018-.39155884-.49200505-1.2790922-.64737506-1.7489628-.12947501-2.14052163 2.35644522-4.04610797 4.92005046-5.79507077 7.56134071-.75701375 1.1393801-1.48792357 2.27876022-2.2188334 3.44403533-.31324707.51790004-.65259806 1.0358001-.96584513 1.55370014-.15662353.23305502-.28714314.46611005-.44376668.69916507-.07831177.10358-.13051961.23305502-.20883138.33663503-.20883138.23305502-.15662353.25895002.20883138.05179.20883138.07768501.41766276.15537002.60039022.23305503-.60039022-.38842504-1.0441569-1.42422514-1.40961181-2.0198102-.4698706-.77685007-.96584513-1.52780514-1.46181966-2.30465521-1.20078043-1.81265017-2.61039223-3.44403533-4.22883542-4.94594547-.49597453-.46611004-1.38350789-.18126501-1.72285888.33663503-.39155883.62148006-.15662353 1.32064513.339351 1.78675517z"/>
    </g>
    <rect width="120" height="120" x="0" y="0" fill="none"/>
  </g>
</svg>
