<svg xmlns="http://www.w3.org/2000/svg" width="200" height="120" viewBox="0 0 200 120">
  <g>
    <path fill="rgb(96,173,128)" fill-rule="evenodd" d="M183.09375 18.88574219c.15625.09301758.34375.15490722.53125.15490722.3125 0 .59375-.12390136.78125-.43395996 3.71875-5.48693847 6.03125-11.40795898 6.875-17.5460205.0625-.52697754-.3125-.99194336-.8125-1.05395508-.53125-.06201172-1 .30993652-1.0625.80603027-.8125 5.85900879-3 11.50097656-6.5625 16.7709961-.28125.43395996-.1875 1.02294921.25 1.30200195zm-27.6875 24.2109375c-.3125 0-.625-.1550293-.8125-.4650879-.25-.43395995-.125-1.02294921.34375-1.27099609 6-3.50292968 11-6.881958 15.34375-10.41589355.40625-.3100586 1-.27905274 1.3125.12390137.3125.40307617.28125.99206543-.125 1.30200195-4.40625 3.59606933-9.5 7.0369873-15.5625 10.57104492-.15625.09301758-.3125.1550293-.5.1550293zM120.9375 58.93774414c.125.34094238.46875.5579834.84375.5579834q.1875 0 .375-.09301758c6.84375-2.97595215 12.28125-5.42504883 17.09375-7.75.46875-.21704101.65625-.77502441.4375-1.23999023-.21875-.46496582-.78125-.65100098-1.25-.43395996-4.8125 2.2939453-10.21875 4.74291992-17.03125 7.71899414-.46875.21691894-.6875.77502441-.46875 1.23999023zm-33.65625 15.1899414c-.375 0-.71875-.217041-.875-.5579834-.21875-.46508788 0-1.02307128.5-1.20898437 3.6875-1.58105468 7.25-3.0690918 10.65625-4.46411132 2.3125-.9609375 4.53125-1.85998536 6.625-2.75891114.46875-.18603515 1.03125.03100586 1.21875.49597168.21875.46496582-.03125 1.02294922-.5 1.20898438-2.125.89904785-4.3125 1.79797363-6.65625 2.7590332-3.40625 1.4260254-6.96875 2.88293457-10.625 4.46398926-.09375.03100586-.21875.06201172-.34375.06201172zM53.375 91.05371095c.1875.24804687.46875.4029541.78125.4029541.15625 0 .34375-.03100586.5-.15490723 4.84375-3.25500488 10.125-6.29309082 16.0625-9.36206054.46875-.21704102.65625-.77502442.40625-1.23999024-.21875-.46496582-.78125-.65100098-1.25-.4029541-6 3.06896973-11.3125 6.16894531-16.25 9.45495605-.4375.30993653-.53125.868042-.25 1.30200196zM26.59375 116.7836914c.15625.0928955.34375.15490722.53125.15490722.3125 0 .59375-.12390136.78125-.4029541 3.4375-4.83605957 7.53125-9.51696777 12.1875-13.8260498.375-.34094239.375-.92993164.03125-1.30200196-.34375-.37194824-.9375-.37194824-1.3125-.03100586-4.75 4.40209961-8.9375 9.14501954-12.4375 14.10510254-.3125.43395996-.21875.99194336.21875 1.30200196z"/>
    <rect width="200" height="119.93" x="0" y=".07" fill="none" rx="0" ry="0"/>
  </g>
</svg>
