<svg xmlns="http://www.w3.org/2000/svg" width="80" height="120" viewBox="0 0 80 120">
  <g>
    <path fill="rgb(96,173,128)" fill-rule="evenodd" d="M12.3227539 23.05639648c.14874268.44628907.56524659.74365235 1.01150513.74365235.08926392 0 .17849732-.02978516.29751587-.02978516.56524658-.14868164.86273194-.71386719.71398926-1.27929687-1.5767517-5.53344727-2.70724487-11.36450196-3.36175537-17.31445313-.05950928-.56518555-.59500122-.98168945-1.1602478-.92211914-.56524659.05932617-.9817505.5949707-.92224121 1.16015625.65447998 6.0690918 1.81472778 12.01904297 3.42123413 17.6418457zm16.51123047 32.6652832c-.32723999 0-.65447998-.14868163-.86273193-.44628906-3.6295166-5.14672851-6.63424682-10.20410156-9.19274902-15.4699707-.2380066-.50561523-.02975464-1.1303711.47598266-1.39819336.50576783-.2380371 1.13052369-.02978515 1.3982544.47607422 2.52874756 5.14672852 5.47399902 10.11499024 9.0142517 15.17236328.32724.47607422.20825196 1.13061524-.2677307 1.45776367-.1487732.14868165-.35702515.20825196-.5652771.20825196zm22.52078248 26.71557618c.20825195.20825195.47598266.32714844.7437439.32714844.23800658 0 .5057373-.08911133.71398925-.29736328.4165039-.3869629.4165039-1.04125977.02975464-1.45776368l-.2380066-.2380371c-3.92700195-4.10546876-7.97299194-8.35986329-11.89999389-12.82226563-.35699463-.4165039-1.04125977-.44628906-1.45773315-.08935547-.41650391.35717773-.47601319 1.01147461-.08926392 1.45776367 3.98651123 4.52197266 8.03250122 8.77636719 11.95950317 12.88183594l.2380066.2380371zm22.40176391 27.34033203c.1784668.3569336.53546143.53564453.89245606.53564453.14874267 0 .3272705-.02978515.5057373-.11914062.50579834-.29736328.68426514-.92211914.38677979-1.42797852-2.61798096-4.61132812-5.97973633-9.25219726-10.56124878-14.57739258-.35699463-.44628906-1.01150513-.50585937-1.45776367-.11914062-.44622803.3569336-.50573731 1.0114746-.11898804 1.45776367 4.49224853 5.23608398 7.76473999 9.75805664 10.35302734 14.25024414z"/>
    <rect width="80" height="120" x="0" y="0" fill="none" rx="0" ry="0"/>
  </g>
</svg>
