<svg xmlns="http://www.w3.org/2000/svg" width="120" height="120" viewBox="0 0 120 120">
  <defs>
    <linearGradient id="linearGradient-2" x1="24.126" x2="96.546" y1="65.682" y2="65.682" gradientUnits="userSpaceOnUse">
      <stop offset="0" stop-color="rgb(27,102,174)"/>
      <stop offset="1" stop-color="rgb(28,102,173)"/>
    </linearGradient>
  </defs>
  <g>
    <g>
      <path fill="url(#linearGradient-2)" fill-rule="evenodd" d="M96.67773438 102.23864746c-.32678223-4.78979492-3.2243042-8.85778809-5.55541993-12.11657715l-9.28082275-13.0131836 5.64257812-12.70703124c1.48144532-3.34631348 3.02825928-6.80187988 3.68182373-10.5855713 1.3725586-7.93920898-1.56860351-16.46887206-7.49438476-21.7178955-3.46398926-3.06201172-7.71228027-4.8334961-10.5880127-5.90515137-6.53582763-2.40588379-12.6795044-3.47753906-18.25671386-3.14941406-6.71008301.39367676-12.85375977 2.86499024-17.31988526 6.9329834-3.2678833 2.99633789-5.66436767 6.82385254-7.75585937 10.52001953-2.91931153 5.16149902-5.62078858 10.76049805-5.75146485 16.94995117-.1307373 6.34265137 2.74499512 13.05700684 7.66864014 17.91235352 4.24829102 4.17736816 10.043396 7.19555664 16.753479 8.70471191 9.19372559 2.05578614 18.21313477 1.48718262 26.07788086-1.64038086l.54467774.89672852c3.07183838 8.2890625 7.79937744 16.05334473 13.65985107 22.46154785.65356446.72167969 2.11322022 2.3182373 4.00860596 2.3182373.17425537 0 .34857178-.02185058.52288818-.04370117 2.5053711-.37182617 3.61645508-3.21496582 3.44213867-5.81762695zM49.0098877 81.50488281c-6.25256348-1.39978027-11.61193848-4.17736816-15.51165772-8.00476074-4.42254639-4.37426758-7.01507568-10.3449707-6.90612793-15.9876709.10888672-5.59899902 2.65789795-10.84802246 5.42468262-15.70336914 2.0043335-3.52124023 4.24829101-7.15185547 7.25476074-9.88574219 4.03045654-3.6743164 9.60766602-5.90515136 15.72955322-6.25512695 5.2286377-.30615234 11.00195313.69995117 17.2109375 2.99633789 2.70147705.98425293 6.62298584 2.62451172 9.76013184 5.40222168 5.18511963 4.5928955 7.84301758 12.35705566 6.64477539 19.31201172-.61004639 3.47753906-2.06970215 6.7800293-3.4857788 9.97314453l-5.66436769 12.7508545c-.8060913.8092041-1.85180664 1.46533202-2.96289062 2.14331054l-2.8540039 1.74963379v-.02185059c-7.40722657 2.95263672-15.92559815 3.47753906-24.64001465 1.53100586zm41.65490722 22.50524903c.61004639.67797851 1.50323487 1.55273437 2.22216797 1.46533203.82788086-.13122559 1.30718994-1.70593262 1.24182129-3.04003907-.28320313-4.06799316-2.94110107-7.7861328-5.07611084-10.7824707l-7.4944458-10.49804687c-.78430176.59057617-1.59033203 1.07165527-2.33105469 1.53100586l-1.30718994.78735351c2.96289063 7.56738281 7.34191895 14.63171387 12.74481201 20.53686524z"/>
      <path fill="rgb(93,182,125)" fill-rule="evenodd" d="M48.4434909 66.17332305c6.73188492.21870985 14.64021575-.32806476 21.3285286-1.07167823-.3703626-3.84929324-.7407252-7.72045747-1.13287383-11.5697507-.04357207-.50303265-.10893018-1.02793627-.3703626-1.44348497-.23964639-.37180673-.58822296-.67800052-.95858556-.94045233-3.79077015-2.97445387-6.79724303-6.2769725-10.52265508-9.84194294-3.18076116 4.08987407-5.88222954 7.8079414-9.04120467 11.89781547-.26143243.34993575-.54465089.6998715-.65358106 1.1154202-.13071621.43741969-.08714414.91858134-.02178604 1.37787201.34857657 3.04006682.71893917 6.10200463 1.06751574 9.14207145.04357207.43741969.10893017.87483937.26143242 1.29038807"/>
      <path fill="rgb(93,182,125)" fill-rule="evenodd" d="M75.5017468 51.34479568C69.7720195 45.37401696 63.86800394 39.6000771 58.3125649 33.4762015c-.30500449-.34993575-.7407252.08748394-.93679951.32806476-5.49008091 6.4300694-11.5248127 12.44459008-16.3830986 19.42143408-.19607431.2843228-.84965537 1.9683886-.04357206 2.05587253 1.93895714.19683886 3.85612826.37180673 5.7950854.5686456 1.00215763.10935491 1.67752473-2.3839373.80608331-2.47142124-1.4814504-.15309689-2.98468684-.2843228-4.46613725-.43741968 4.40077914-5.92703675 9.58585556-11.24168594 14.40056938-16.81878695 4.77114174 5.24903624 9.8037159 10.23562067 14.74914593 15.30968903-.89322744.10935492-1.76466886.19683886-2.67968234.15309689-.87144142-.04374197-1.52502248 2.44955024-.43572071 2.49329221 1.87359904.08748394 3.70362601-.43741968 5.57722505-.34993575.84965538.04374197 1.28537609-1.88090465.8060833-2.38393729z"/>
      <path fill="rgb(255,255,255)" fill-rule="evenodd" d="M57.2014771 65.6921614c-.4357207 2.0996145.15250225-4.57103573 0-6.29884349-.21786035-2.29645335-.69715313-3.65245438 1.22001799-5.05219738.54465088-.39367771 1.26359005-.63425854 1.93895714-.45929067 1.32894816.34993575 1.67752473 1.9465176 1.80824094 3.25877667.26143242 2.79948599.50107881 5.59897198.76251124 8.39845798"/>
    </g>
    <rect width="120" height="120" x="0" y="0" fill="none"/>
  </g>
</svg>
