<svg xmlns="http://www.w3.org/2000/svg" width="120" height="120" viewBox="0 0 120 120">
  <g>
    <g>
      <rect width="31.386" height="57.694" x="70.114" y="46.423" fill="rgb(29,102,175)" rx="0" ry="0"/>
      <rect width="31.386" height="52.193" x="17" y="51.898" fill="rgb(29,102,175)" rx="0" ry="0"/>
      <g>
        <rect width="31.386" height="73.623" x="42.338" y="30.493" fill="rgb(255,255,255)" rx="0" ry="0"/>
        <path fill="rgb(29,102,175)" fill-rule="evenodd" d="M40.86901855 105.585083h34.34753418V29H40.86901855v76.585083zm31.3857422-2.96179198H43.83093261V31.96191406h28.42382812v70.66137696z"/>
      </g>
      <path fill="rgb(93,182,125)" fill-rule="evenodd" d="M50.0533137 50.479676v3.11119292c.02488954.19911635.12444771.34845361.29867452.44801179.14933726.14933726.3484536.24889543.5724595.29867452.27378498.07466863.54756995.12444772.82135493.12444772.32356407.02488954.64712813 0 .94580265-.0497791.5724595-.1244477 1.19469809-.29867451 1.66759941-.67201766.12444772-.09955818.2240059-.19911635.34845361-.32356407.1742268-.19911635.24889544-.42312224.2240059-.67201767v-3.11119293c-.02488955-.19911635-.12444773-.34845361-.29867453-.44801179-.14933726-.14933726-.3484536-.24889543-.5724595-.29867452-.27378498-.07466863-.54756995-.12444771-.82135493-.12444771-.32356407-.02488955-.64712813 0-.94580265.04977908-.5724595.12444772-1.19469809.29867452-1.66759941.67201768-.12444772.09955817-.2240059.19911634-.34845361.32356406-.1742268.19911635-.24889544.42312224-.2240059.67201767z"/>
      <path fill="rgb(93,182,125)" fill-rule="evenodd" d="M50.0533137 61.4808542v3.11119293c.02488954.19911635.12444771.3484536.29867452.44801178.14933726.14933726.3484536.24889543.5724595.29867452.27378498.07466863.54756995.12444772.82135493.12444772.32356407.02488954.64712813 0 .94580265-.04977909.5724595-.12444772 1.19469809-.29867452 1.66759941-.67201767.12444772-.09955817.2240059-.19911635.34845361-.32356407.1742268-.19911634.24889544-.42312223.2240059-.67201767v-3.11119293c-.02488955-.19911635-.12444773-.3484536-.29867453-.44801178-.14933726-.14933726-.3484536-.24889544-.5724595-.29867452-.27378498-.07466863-.54756995-.12444772-.82135493-.12444772-.32356407-.02488954-.64712813 0-.94580265.04977909-.5724595.12444771-1.19469809.29867452-1.66759941.67201767-.12444772.09955817-.2240059.19911635-.34845361.32356406-.1742268.1742268-.24889544.3982327-.2240059.67201768z"/>
      <path fill="rgb(93,182,125)" fill-rule="evenodd" d="M60.93004418 61.4808542v3.11119293c.02488955.19911635.12444772.3484536.29867452.44801178.14933726.14933726.34845361.24889543.5724595.29867452.27378498.07466863.54756996.12444772.82135494.12444772.32356406.02488954.64712813 0 .94580265-.04977909.5724595-.12444772 1.19469808-.29867452 1.6675994-.67201767.12444773-.09955817.2240059-.19911635.34845362-.32356407.1742268-.19911634.24889543-.42312223.22400589-.67201767v-3.11119293c-.02488955-.19911635-.12444772-.3484536-.29867452-.44801178-.14933726-.14933726-.34845361-.24889544-.5724595-.29867452-.27378498-.07466863-.54756996-.12444772-.82135494-.12444772-.32356406-.02488954-.64712813 0-.94580265.04977909-.5724595.12444771-1.19469808.29867452-1.6675994.67201767-.12444773.09955817-.2240059.19911635-.34845362.32356406-.19911634.1742268-.27378497.3982327-.22400589.67201768z"/>
      <path fill="rgb(93,182,125)" fill-rule="evenodd" d="M50.0533137 73.55228277v3.11119293c.02488954.19911635.12444771.3484536.29867452.44801178.14933726.14933726.3484536.24889544.5724595.29867452.27378498.07466863.54756995.12444772.82135493.12444772.32356407.02488954.64712813 0 .94580265-.04977909.5724595-.12444771 1.19469809-.29867452 1.66759941-.67201767.12444772-.09955817.2240059-.19911635.34845361-.32356406.1742268-.19911635.24889544-.42312224.2240059-.67201768V72.7060383c-.02488955-.19911635-.12444773-.3484536-.29867453-.44801178-.14933726-.14933726-.3484536-.24889543-.5724595-.29867452-.27378498-.07466863-.54756995-.12444772-.82135493-.12444772-.32356407-.02488954-.64712813 0-.94580265.04977909-.5724595.12444772-1.19469809.29867452-1.66759941.67201767-.12444772.09955817-.2240059.19911635-.34845361.32356407-.1742268.19911634-.24889544.42312223-.2240059.67201767z"/>
      <path fill="rgb(93,182,125)" fill-rule="evenodd" d="M50.0533137 84.55346097v3.11119293c.02488954.19911635.12444771.34845361.29867452.44801178.14933726.14933727.3484536.24889544.5724595.29867453.27378498.07466863.54756995.12444771.82135493.12444771.32356407.02488955.64712813 0 .94580265-.04977908.5724595-.12444772 1.19469809-.29867452 1.66759941-.67201768.12444772-.09955817.2240059-.19911634.34845361-.32356406.1742268-.19911635.24889544-.42312224.2240059-.67201767v-3.11119294c-.02488955-.19911634-.12444773-.3484536-.29867453-.44801178-.14933726-.14933726-.3484536-.24889543-.5724595-.29867452-.27378498-.07466863-.54756995-.12444772-.82135493-.12444772-.32356407-.02488954-.64712813 0-.94580265.0497791-.5724595.1244477-1.19469809.29867451-1.66759941.67201766-.12444772.09955818-.2240059.19911635-.34845361.32356407-.1742268.1742268-.24889544.42312224-.2240059.67201767z"/>
      <path fill="rgb(93,182,125)" fill-rule="evenodd" d="M60.93004418 84.55346097v3.11119293c.02488955.19911635.12444772.34845361.29867452.44801178.14933726.14933727.34845361.24889544.5724595.29867453.27378498.07466863.54756996.12444771.82135494.12444771.32356406.02488955.64712813 0 .94580265-.04977908.5724595-.12444772 1.19469808-.29867452 1.6675994-.67201768.12444773-.09955817.2240059-.19911634.34845362-.32356406.1742268-.19911635.24889543-.42312224.22400589-.67201767v-3.11119294c-.02488955-.19911634-.12444772-.3484536-.29867452-.44801178-.14933726-.14933726-.34845361-.24889543-.5724595-.29867452-.27378498-.07466863-.54756996-.12444772-.82135494-.12444772-.32356406-.02488954-.64712813 0-.94580265.0497791-.5724595.1244477-1.19469808.29867451-1.6675994.67201766-.12444773.09955818-.2240059.19911635-.34845362.32356407-.19911634.1742268-.27378497.42312224-.22400589.67201767z"/>
      <path fill="rgb(93,182,125)" fill-rule="evenodd" d="M34.34801178 62.60088365v3.11119293c.02488955.19911635.12444772.34845361.29867452.44801179.14933726.14933726.34845361.24889543.5724595.29867452.27378498.07466863.54756996.12444771.82135494.12444771.32356406.02488955.64712813 0 .94580265-.04977908.5724595-.12444772 1.19469808-.29867452 1.6675994-.67201768.12444773-.09955817.2240059-.19911634.34845362-.32356406.1742268-.19911635.24889543-.42312224.22400589-.67201767v-3.11119293c-.02488955-.19911635-.12444772-.34845361-.29867452-.44801179-.14933726-.14933726-.34845361-.24889543-.5724595-.29867452-.27378498-.07466863-.54756996-.12444772-.82135494-.12444772-.32356406-.02488954-.64712813 0-.94580265.0497791-.5724595.1244477-1.19469808.29867451-1.6675994.67201766-.12444773.09955818-.2240059.19911635-.34845362.32356407-.1742268.19911635-.24889543.42312224-.22400589.67201767z"/>
      <path fill="rgb(93,182,125)" fill-rule="evenodd" d="M23.49617084 80.2724595v4.13166421c0 .37334315.59734904.64712813.87113402.7466863.54756996.1742268 1.24447717.1742268 1.79204713.0497791.5724595-.12444773 1.19469808-.29867453 1.6675994-.67201768.12444773-.09955818.2240059-.19911635.34845362-.32356407.1742268-.19911634.24889543-.42312223.22400589-.67201767v-4.13166421c0-.37334315-.59734904-.64712813-.87113402-.7466863-.54756996-.1742268-1.24447717-.1742268-1.79204713-.0497791-.5724595.12444773-1.19469809.29867453-1.66759941.67201768-.12444772.09955818-.2240059.19911635-.34845361.32356407-.19911635.1742268-.27378498.3982327-.2240059.67201767z"/>
      <path fill="rgb(255,255,255)" fill-rule="evenodd" d="M23.49617084 62.60088365v3.11119293c.02488954.19911635.12444772.34845361.29867452.44801179.14933726.14933726.3484536.24889543.5724595.29867452.27378498.07466863.54756996.12444771.82135493.12444771.32356407.02488955.64712813 0 .94580265-.04977908.5724595-.12444772 1.19469809-.29867452 1.66759942-.67201768.12444771-.09955817.22400589-.19911634.3484536-.32356406.1742268-.19911635.24889544-.42312224.2240059-.67201767v-3.11119293c-.02488955-.19911635-.12444772-.34845361-.29867453-.44801179-.14933726-.14933726-.3484536-.24889543-.5724595-.29867452-.27378497-.07466863-.54756995-.12444772-.82135493-.12444772-.32356406-.02488954-.64712813 0-.94580265.0497791-.5724595.1244477-1.19469809.29867451-1.66759941.67201766-.12444772.09955818-.2240059.19911635-.34845361.32356407-.19911635.19911635-.27378498.42312224-.2240059.67201767z"/>
      <path fill="rgb(255,255,255)" fill-rule="evenodd" d="M76.83446244 77.11148748v6.19749632c0 .37334315.59734905.64712813.87113403.7466863.54756995.1742268 1.24447717.1742268 1.79204712.04977909.84624448-.1742268 2.21516937-.59734904 2.21516937-1.66759941v-6.19749632c0-.37334315-.59734904-.64712813-.87113402-.7466863-.54756996-.1742268-1.24447717-.1742268-1.79204713-.04977909-.84624448.1742268-2.21516937.59734904-2.21516937 1.66759941z"/>
      <path fill="rgb(93,182,125)" fill-rule="evenodd" d="M89.7023564 61.72974963v6.19749632c0 .37334315.59734905.64712813.87113403.7466863.54756995.1742268 1.24447717.1742268 1.79204713.04977909.84624447-.1742268 2.21516936-.59734904 2.21516936-1.66759941V60.8586156c0-.37334315-.59734904-.64712813-.87113402-.7466863-.54756995-.1742268-1.24447717-.1742268-1.79204713-.04977909-.84624447.1742268-2.21516936.59734904-2.21516936 1.66759941z"/>
      <path fill="rgb(255,255,255)" fill-rule="evenodd" d="M76.93402062 59.46480118v3.11119293c.04977909.1742268.1742268.32356406.32356406.44801178.1742268.1742268.34845361.3484536.5724595.47290133.52268041.32356406 1.16980854.59734904 1.76715759.69690721.19911634.02488955.3982327.07466863.59734904.09955818.32356406.04977908.64712813.02488954.94580265-.04977909l.29867452-.14933726c.1742268-.12444772.2240059-.29867452.1742268-.49779087v-3.11119293c-.04977908-.1742268-.1742268-.32356407-.32356406-.44801178-.1742268-.1742268-.3484536-.34845361-.5724595-.47290133-.52268041-.32356406-1.16980854-.59734904-1.76715758-.69690721-.19911635-.02488955-.3982327-.07466863-.59734905-.09955818-.32356406-.04977909-.64712812-.02488954-.94580265.04977909l-.29867452.14933726c-.1742268.12444772-.22400589.29867452-.1742268.49779087z"/>
      <path fill="rgb(93,182,125)" fill-rule="evenodd" d="M61.02960236 48.11516937V53.640648c0 .37334315.59734904.64712813.87113402.7466863.54756995.1742268 1.24447717.1742268 1.79204713.0497791.84624447-.17422681 2.21516936-.59734905 2.21516936-1.66759942v-5.52547864c0-.37334316-.59734904-.64712813-.87113402-.7466863-.54756995-.17422681-1.24447717-.17422681-1.79204713-.0497791-.84624447.17422681-2.21516936.6222386-2.21516936 1.66759942z"/>
    </g>
    <rect width="120" height="120" x="0" y="0" fill="none"/>
  </g>
</svg>
