<svg xmlns="http://www.w3.org/2000/svg" width="120" height="120" viewBox="0 0 120 120">
  <defs>
    <linearGradient id="linearGradient-8" x1="28.756" x2="42.957" y1="76.61" y2="76.61" gradientUnits="userSpaceOnUse">
      <stop offset="0" stop-color="rgb(27,102,174)"/>
      <stop offset="1" stop-color="rgb(28,102,173)"/>
    </linearGradient>
    <linearGradient id="linearGradient-11" x1="47.035" x2="93.122" y1="69.945" y2="69.945" gradientUnits="userSpaceOnUse">
      <stop offset="0" stop-color="rgb(27,102,174)"/>
      <stop offset="1" stop-color="rgb(28,102,173)"/>
    </linearGradient>
    <linearGradient id="linearGradient-13" x1="59.113" x2="79.126" y1="55.893" y2="55.893" gradientUnits="userSpaceOnUse">
      <stop offset="0" stop-color="rgb(27,102,174)"/>
      <stop offset="1" stop-color="rgb(28,102,173)"/>
    </linearGradient>
    <linearGradient id="linearGradient-15" x1="59.113" x2="79.126" y1="65.719" y2="65.719" gradientUnits="userSpaceOnUse">
      <stop offset="0" stop-color="rgb(27,102,174)"/>
      <stop offset="1" stop-color="rgb(28,102,173)"/>
    </linearGradient>
    <linearGradient id="linearGradient-17" x1="59.113" x2="79.126" y1="76.528" y2="76.528" gradientUnits="userSpaceOnUse">
      <stop offset="0" stop-color="rgb(27,102,174)"/>
      <stop offset="1" stop-color="rgb(28,102,173)"/>
    </linearGradient>
    <linearGradient id="linearGradient-20" x1="81.262" x2="103.995" y1="77.227" y2="77.227" gradientUnits="userSpaceOnUse">
      <stop offset="0" stop-color="rgb(27,102,174)"/>
      <stop offset="1" stop-color="rgb(28,102,173)"/>
    </linearGradient>
  </defs>
  <g>
    <g>
      <g>
        <g>
          <path fill="rgb(255,255,255)" fill-rule="evenodd" d="M26.43222745 63.51062095c3.44855134-3.613547 8.86770344-4.60355987 13.79420534-4.08380311 4.92650191.54450708 9.60667873 2.3760309 14.41001809 3.66304764 4.80333936 1.28701674 9.97616636 2.0295264 14.63171066.39600515l-.29559011 19.52800399c0 .71775933-.0246325 1.48501931-.39412015 2.10377736-.29559012.51975676-.81287282.89101159-1.305523 1.2375161-4.9018694 3.36604378-10.76440668 5.69257404-16.70084148 5.24706824-4.33532168-.32175418-8.39968575-2.10377736-12.56257986-3.36604378-4.16289412-1.26226641-8.7691734-1.98002575-12.75963995-.24750322 1.15772795-8.31610816 1.94596826-16.68171696 2.38935343-25.04732577"/>
          <path fill="rgb(93,182,125)" fill-rule="evenodd" d="M27.63922042 64.40163254c3.57171388-3.66304764 9.18792606-4.33130633 13.99126542-3.56404635 6.15812738.96526255 11.8975021 3.68779796 18.080262 4.55405923 3.42391883.49500644 6.9463677.47025611 10.24712397-.6682587-.68971027-.51975675-1.37942053-1.03951351-2.04449829-1.55927027-.07389753 4.72731148-.14779506 9.45462297-.22169259 14.20668477-.0246325 1.18801546-.04926502 2.3760309-.04926502 3.53929604-.0246325.96526255.17242757 2.20277865-.19706007 3.14329088-.29559012.76725998-1.13309544 1.21276577-1.7981732 1.63352125-.93603536.61875804-1.92133574 1.18801545-2.90663612 1.7077722-3.52244887 1.85627415-7.4882829 3.06903992-11.50338196 2.99478896-4.4092192-.09900129-8.54748081-1.90577479-12.71037492-3.21754185-4.45848423-1.38601803-9.48351618-2.30177994-13.9420004-.42075547.66507775.61875805 1.35478802 1.2375161 2.01986578 1.88102446 1.15772795-8.41510945 1.97060076-16.87971954 2.43861844-25.34432963.07389753-1.38601803-2.63567852-2.40078123-2.73420856-.6682587-.44338517 8.26660752-1.20699297 16.53321504-2.3400884 24.75032192-.12316255.9157619.96066787 2.32653026 2.01986578 1.88102446 4.08899658-1.73252253 8.5228483-.89101159 12.61184488.39600515 4.31068917 1.3612677 8.54748082 3.14329088 13.12912759 3.29179282 4.26142415.14850193 8.47358328-1.03951352 12.26698975-2.94528831.93603537-.47025612 1.84743822-.96526256 2.73420856-1.50976964.91140285-.5692574 1.89670324-1.11376448 2.63567852-1.90577479.71434278-.74250965.91140286-1.7077722.96066788-2.7225354.04926501-1.13851481.04926501-2.30177994.04926501-3.44029475.09853004-5.51932179.17242757-11.03864357.2709576-16.55796536.02463252-.89101159-1.18236045-1.88102447-2.04449828-1.55927028-6.08422986 2.07902704-12.41478481.14850193-18.3019546-1.65827157-5.61621217-1.70777221-11.42948442-3.36604378-17.3166542-2.12852768-2.93126864.61875804-5.61621218 1.95527543-7.70997549 4.10855343-.5172827.51975676.07389753 1.460269.5172827 1.78202318.54191521.42075547 1.33015552.54450708 1.84743822 0z"/>
        </g>
        <g>
          <path fill="rgb(255,255,255)" fill-rule="evenodd" d="M20.93917782 60.1693275c3.42391883-3.58879668 8.84307093-4.60355988 13.76957284-4.0590528 4.9265019.54450708 9.60667872 2.3760309 14.41001808 3.66304764 4.77870685 1.28701674 9.97616636 2.0295264 14.63171067.39600515l-.29559012 19.528004c0 .71775933-.0246325 1.4850193-.39412015 2.10377736-.29559011.51975676-.81287281.89101158-1.305523 1.2375161-4.9018694 3.36604377-10.76440668 5.69257403-16.70084148 5.24706824-4.33532168-.32175419-8.39968575-2.10377737-12.56257986-3.36604378-4.16289412-1.26226642-8.7691734-1.98002576-12.75963995-.24750322 1.15772795-8.31610816 1.94596826-16.68171697 2.38935343-25.04732578"/>
          <path fill="rgb(93,182,125)" fill-rule="evenodd" d="M44.75878906 57.27355957c5.88720703 1.8067627 12.21777344 3.73730469 18.30200196 1.65820313.88671875-.29699708 2.0690918.66833496 2.01989746 1.5345459-.09863282 5.51940917-.17248536 11.03869628-.2709961 16.5579834 0 1.1385498 0 2.3017578-.0493164 3.4403076-.04919434 1.01477052-.2463379 1.97998048-.9605713 2.72253419-.73901366.79199219-1.72436523 1.33654785-2.63574218 1.90576172-.88671875.54455566-1.79821777 1.03955078-2.73425293 1.50976562-3.79333496 1.90576172-8.00549316 3.09375-12.26696777 2.9453125-4.58166504-.14855957-8.81835938-1.93054199-13.1291504-3.29174804-4.08898925-1.28710938-8.52282714-2.12854004-12.6118164-.39611817-1.0592041.44555664-2.14300537-.96520996-2.01983643-1.88098144 1.0592041-7.54882813 1.79815674-15.12243653 2.24157715-22.7208252-.14782715-.04943848-.2709961-.12365723-.39416504-.22265625-.44335937-.32177734-1.0345459-1.2623291-.51727295-1.7821045 2.09375-2.15319823 4.77868653-3.48974608 7.70996094-4.1085205 5.88720703-1.21276855 11.72509766.42077637 17.3166504 2.12854004zM60.1295166 82.34558105c.66503906-.42077636 1.50256348-.86621093 1.7980957-1.63354492.25073243-.66564941.22814942-1.50134277.20654297-2.29797363-.0081787-.29919434-.01611328-.5928955-.00939941-.86999512 0-1.16333008.0246582-2.35131836.04919434-3.53930664.0739746-4.00964355.12316894-8.04394531.19714355-12.0534668-2.6604004.54455567-5.44384766.47033692-8.15344238.09899903-6.18273926-.86621094-11.92211914-3.58874512-18.0802002-4.55407715-4.2368164-.66821289-9.08935547-.22265625-12.61187744 2.37609863v.04943848c-.4187622 7.59838867-1.10845947 15.19677734-2.09375 22.74560547 3.8180542-.81677246 7.88238525 0 11.57733154 1.163208 4.1628418 1.31176758 8.30114746 3.11853028 12.71032715 3.2175293 4.01513672.07434082 7.98095703-1.13842773 11.50341797-2.99475097.9852295-.5197754 1.97058106-1.08898926 2.90661621-1.70776368z"/>
        </g>
        <g>
          <path fill="rgb(255,255,255)" fill-rule="evenodd" d="M17.61378903 64.62438544c3.42391883-3.58879668 8.84307093-4.60355988 13.76957284-4.0590528 4.9265019.54450709 9.60667872 2.3760309 14.41001808 3.66304765 4.80333936 1.28701674 9.97616637 2.0295264 14.63171067.39600515l-.29559012 19.52800399c0 .71775933-.0246325 1.48501931-.39412015 2.10377736-.29559011.51975676-.81287281.89101159-1.305523 1.2375161-4.9018694 3.36604378-10.76440667 5.69257403-16.70084147 5.24706824-4.33532168-.32175418-8.39968576-2.10377736-12.56257987-3.36604378s-8.7691734-1.98002575-12.75963994-.24750322c1.15772794-8.31610816 1.0591979-16.65696665 1.50258308-25.02257545"/>
          <path fill="rgb(93,182,125)" fill-rule="evenodd" d="M41.4333496 61.70385742c5.88720704 1.8067627 12.21777345 3.73730469 18.30200196 1.65820313.88671875-.29699707 2.0690918.66833496 2.04455567 1.55932617-.09863282 5.5192871-.17248535 11.03857422-.2709961 16.5579834 0 1.13842773 0 2.30175781-.0493164 3.44018554-.04919434 1.01477051-.2463379 1.98010254-.9605713 2.72253418-.73901366.79211426-1.72436523 1.33654786-2.63574218 1.9058838-.88671875.54443359-1.79821777 1.0394287-2.73425293 1.50976562-3.79333496 1.90576172-8.00549316 3.09375-12.26696777 2.94519043-4.58166504-.1484375-8.81835938-1.93041992-13.1291504-3.29174805-4.08898925-1.2869873-8.52282714-2.12854004-12.6118164-.3959961-1.0592041.44555665-2.14300537-.96520995-2.01983643-1.88098144 1.08380127-7.74694824 1.0592041-15.6175537 1.37939454-23.43859863-.27093506-.42077637-.41876221-.96520996-.07385254-1.31176758.04925537-.07421875.1231079-.1237793.17242431-.17321777.09851074-.47033692.394104-.69299317.78820801-.71777344 1.92132568-1.63354492 4.26141357-2.6977539 6.74926758-3.2175293 5.88720703-1.23754883 11.70043945.42077637 17.31665039 2.12854004zm15.37072755 25.07214356c.66516113-.42077637 1.50268555-.86633301 1.79821777-1.63354493.26708985-.6619873.23815918-1.49206543.2109375-2.27514648-.01049804-.30041504-.02075195-.59375-.01391601-.86816406 0-1.16320801.0246582-2.35131836.0493164-3.53930664.07385254-4.00952149.12316895-8.04382324.19702149-12.05334473-2.66027832.5444336-5.44372559.47021484-8.15332032.09899902-6.18273925-.866333-11.92211914-3.58886718-18.08032226-4.55407714-4.63085938-.71777344-9.97613526-.14855957-13.54785156 3.11853027-.3694458 7.35083008-.394104 14.72644043-1.20697022 22.05249023 3.84265137-.84143066 7.93170166-.0246582 11.62652588 1.1385498 4.16296387 1.31176759 8.30114746 3.11853028 12.71044922 3.2175293 4.01501465.07421876 7.98083496-1.1385498 11.5032959-2.99475097.98535156-.5197754 1.97058105-1.08898926 2.9066162-1.70776367z"/>
        </g>
        <path fill="url(#linearGradient-8)" fill-rule="evenodd" d="M41.99997348 69.35169692c-3.79340647-1.55927028-8.20262568-.07425096-10.22249146 3.53929604-.04926502.07425096-.09853004.17325225-.12316255.24750322-.88677034.02475032-1.7981732.09900128-2.68494354.17325225-.5419152.04950064.09853004 1.0147632.22169259 1.16326513.32022262.39600515.91140285.96526255 1.47795057.91576191.04926502 0 .12316255 0 .17242757-.02475032-.07389753.37125483-.14779506.74250966-.17242757 1.1385148-.56654772.02475033-1.13309544.07425097-1.69964316.12375162-.5419152.04950064.09853004 1.0147632.22169259 1.16326513.32022262.39600515.91140285.96526255 1.47795057.9157619h.02463251c.29559012 2.1285277 1.42868555 4.08380312 3.54708138 5.073816 2.41398593 1.1385148 5.02503194.66825869 7.53754792.1237516.68971026-.14850192.61581273-1.11376448.36948764-1.5840206-.32022263-.61875804-.96066787-.96526255-1.65037814-.81676062-1.92133575.42075548-4.33532168.96526256-6.13349488-.14850193-.96066787-.59400772-1.33015551-1.68302189-1.37942053-2.79678637 1.67501065-.07425097 3.32538879-.07425097 5.00039944.02475032.56654772.02475032.39412015-.54450708.17242756-.8910116-.2709576-.44550579-.91140285-1.16326512-1.47795057-1.18801544-1.15772795-.07425097-2.3154559-.0990013-3.47318385-.07425097.09853004-.42075547.2463251-.81676062.39412016-1.21276577 1.45331806-.04950065 2.93126863-.02475032 4.3845867.04950064.56654772.02475032.39412015-.54450708.17242756-.89101159-.2709576-.4455058-.91140285-1.16326513-1.47795057-1.18801545-.56654772-.02475032-1.13309544-.04950064-1.67501065-.07425097.39412015-.39600515.83750533-.74250965 1.305523-1.03951352 1.5272156-.89101158 3.52244887-1.16326513 5.19745952-.49500643.56654772.2227529 1.25625799.1237516 1.42868555-.54450709.14779506-.64350837-.32022262-1.43551867-.93603536-1.68302189z"/>
      </g>
      <g>
        <path fill="rgb(255,255,255)" fill-rule="evenodd" d="M91.58521519 51.85321933c-3.8919365 13.90968092-.19706008 28.61137213 1.0345654 43.01605948.09853004 1.16326513.17242757 2.3760309-.34485513 3.41554443-.7882403 1.55927028-2.61104601 2.20277865-4.28605666 2.67303476-9.5327812 2.64828445-19.48431505 3.8362999-29.36195138 3.51454572-4.06436407-.12375161-8.7938059-.96526256-10.66587663-4.57880956-1.08383042-2.07902704-.88677034-4.55405923-.68971027-6.88058949 1.62574563-17.89448274 3.25149126-35.8137158 4.8772369-53.70819855.04926501-.51975676.12316254-1.08901416.49265018-1.46026899.34485514-.3465045.86213784-.42075547 1.35478803-.47025612 6.40445248-.71775933 12.80890496-1.38601802 19.23798995-2.00477607 1.25625799-.12375161 2.61104601-.2227529 3.71950894.42075547 2.19229335 1.28701674 1.99523328 4.4055573 2.48788347 6.90533982.96066787 4.90056373 6.05959734 8.61311202 10.98609925 7.99435397-1.23162548-6.85583917-6.35518746-12.8701674-12.907435-15.12244668"/>
        <path fill="url(#linearGradient-11)" fill-rule="evenodd" d="M94.5164795 96.03259277c-.12316895-2.10375976-.39404298-4.20751953-.64038087-6.3112793-.46801758-4.00964355-1.0345459-7.99438476-1.47802734-12.00390624-.88671875-8.11816407-1.25622559-16.45898438.91149902-24.4038086.32019043-1.16333008-.19714355-2.47509765-1.1085205-3.21765136-.07385254-.04943848-.14782715-.12365723-.2463379-.17321778-1.8474121-7.64782715-7.3651123-13.95910644-14.80407714-16.60742187-.34484864-.1237793-.61584473-.07421875-.83752442.07421875-.46801758-.17321778-.96069336-.29699707-1.52722168-.34643555-1.22729492-.11560059-2.484375.02368164-3.72485351.16125488-.35290528.0390625-.70458985.07800293-1.05383301.11096192-2.09375.19799804-4.16296387.42077636-6.25671387.61877441-1.77355957.17321777-3.52246094.37121582-5.2960205.56921387-1.87207032.19799805-3.81799317.2722168-5.64074708.64355469-1.74890136.34643554-2.3647461 1.53442382-2.56188965 3.2175293-.22167968 1.95520019-.34484863 3.91052245-.54187011 5.86584472-.71435547 7.82104492-1.42871094 15.61743164-2.1184082 23.43847656l-2.0690918 22.94360352-.0275879.30432129c-.31335449 3.44299316-.63391113 6.9654541 1.16064454 10.0908203 1.50256347 2.62353517 4.06433105 4.20751954 6.89709472 5.024292 2.93127442.81677246 6.05969239.81677246 9.06481934.81677246 3.54711914 0 7.11877441-.19799804 10.64123535-.59399414 3.69482422-.3959961 7.3651123-1.0147705 10.98608399-1.83154297 1.72424316-.3959961 3.47314453-.81677246 5.17285156-1.33654785 1.40405273-.42077637 2.78344726-.96520996 3.79333496-2.0789795 1.25634766-1.38610839 1.40405273-3.24230956 1.305542-4.9748535zm-6.37976075 2.3511963c1.23156738-.44543458 2.48779297-1.08898927 2.66027832-2.52453614.12902832-1.00012207-.01782227-2.08325195-.16186523-3.14587402-.04846192-.35754395-.09655762-.71276856-.13378907-1.06164551-.2668457-2.53015137-.58618164-5.06884766-.90625-7.61242676-1.3046875-10.37036133-2.61950683-20.8215332-.42382812-31.0970459-5.61621094-.3959961-10.46887207-4.97485351-11.60192871-10.5189209-.2463379-1.23754882-.2709961-2.5493164-.56652832-3.78686523-.2463379-1.01464844-.71435547-1.163208-2.09375-1.08898926-3.91662598.19799805-7.85778809.74255371-11.77441407 1.16333008-1.8227539.19799805-3.67016601.3959961-5.5177002.59399414-.86206054.09899902-1.74890136.19799805-2.6356201.29699707-.10205079.01135254-.19299317.01867676-.27441407.02526856-.44934082.03601074-.60668945.04870605-.7109375.59350585-.34484863 1.73254395-.34484863 3.6135254-.49255371 5.37084961-.17248535 1.78198243-.3203125 3.58874512-.49267578 5.37072754L51.01550293 72.9404297C50.375 80.06860352 49.66064453 87.22143555 49.06945801 94.3494873l-.00354004.04284668c-.19604492 2.41271973-.40136719 4.93994141 1.92492676 6.2685547 2.01989746 1.163208 4.55700683 1.4354248 6.84777832 1.50976562 6.94641113.2722168 13.9420166-.29699707 20.78991699-1.5345459 3.1529541-.56933594 6.47839355-1.16333008 9.50817871-2.25231934zm-.0739746-49.97094727c-1.92126466-.1484375-3.74414063-.96520996-5.12353517-2.3511963-1.8720703-1.8811035-1.74890136-4.15808105-2.24157714-6.58361816-.02453614-.09899902-.04919434-.22277832-.07385254-.32177734 3.47314453 2.0789795 6.20739746 5.42028809 7.43896484 9.2565918z"/>
        <path fill="url(#linearGradient-13)" fill-rule="evenodd" d="M59.26736267 57.76854627h20.00159775c1.0591979 0 2.38935342-.89101159 2.29082339-2.05427672-.09853004-1.28701674-1.5272156-1.68302189-2.5864135-1.68302189H58.97177255c-1.05919791 0-2.38935343.89101159-2.2908234 2.05427672.09853005 1.28701674 1.5272156 1.68302189 2.58641351 1.68302189z"/>
        <path fill="url(#linearGradient-15)" fill-rule="evenodd" d="M59.26736267 67.59442407h20.00159775c1.0591979 0 2.38935342-.89101159 2.29082339-2.05427672-.09853004-1.28701674-1.5272156-1.68302189-2.5864135-1.68302189H58.97177255c-1.05919791 0-2.38935343.89101159-2.2908234 2.05427672.09853005 1.28701674 1.5272156 1.68302189 2.58641351 1.68302189z"/>
        <path fill="url(#linearGradient-17)" fill-rule="evenodd" d="M59.26736267 78.41031474h20.00159775c1.0591979 0 2.38935342-.89101159 2.29082339-2.05427671-.09853004-1.28701674-1.5272156-1.6830219-2.5864135-1.6830219H58.97177255c-1.05919791 0-2.38935343.8910116-2.2908234 2.05427672.09853005 1.28701674 1.5272156 1.6830219 2.58641351 1.6830219z"/>
        <path fill="rgb(93,182,125)" fill-rule="evenodd" d="M81.65831384 96.23054652c1.05919792-.61875805.19706008-2.00477607-.36948764-2.72253541-.32022262-.42075547-.71434278-.69300901-1.15772795-.91576191-.09853004-.04950064-.29559011-.17325225-.39412015-.19800258.09853004 0-.09853004-.02475032-.09853004-.04950064-.0246325.02475032.91140286 1.18801545.2709576.2227529-.66507775-1.0147632-1.60111311-1.93052511-2.80810608-2.2522793-1.13309544-.29700386-1.92133574.14850193-2.8573711.71775934-.36948765.2227529-.7389753.42075547-1.13309545.19800257-.41875266-.24750322-.71434277-.74250965-1.10846293-1.03951352-.66507775-.47025611-1.45331806-.64350837-2.16766084-.19800257-1.08383042.69300901-1.69964315 2.89578766-3.17759373 2.87103734-.81287281 0-1.45331806-.86626127-2.04449829-1.33651738-.71434278-.54450709-1.57648061-1.0147632-2.46325095-.5692574-.81287282.39600514 1.00993289 3.56404635 1.99523327 3.09379023.71434278-.3465045 1.2808905.39600515 1.77354069.81676062.66507775.5692574 1.50258308 1.21276578 2.43861844 1.18801546 1.7981732-.04950065 2.16766084-2.2522793 3.54708138-3.01953928.88677034-.49500643 1.08383042.37125483 1.8228057.91576191 1.15772795.86626127 1.97060077.4455058 3.1036962-.2227529.4926502-.29700386.98530039-.44550579 1.57648062-.32175418.17242756.02475032.46801768.24750322.61581273.24750322-.46801768-.71775933-.5172827-.76725998-.14779505-.14850193.07389753.1237516.14779505.24750322.2463251.37125483.36948764.54450708.83750532 1.0147632 1.40405304 1.3612677.17242756.12375161.36948764.2227529.56654772.32175419.09853003.04950064.49265019.32175418.22169258.09900129-.29559011-.32175419-.59118023-.64350837-.88677034-.99001288 0 .02475032.0246325.02475032.0246325.04950064-.19706007-.51975676-.36948764-1.0147632-.56654771-1.53451996-.02463251-.27225354.09853004-.2227529-.19706008-.04950064-.83750532.47025612 1.05919791 3.613547 1.97060076 3.09379024z"/>
      </g>
      <path fill="url(#linearGradient-20)" fill-rule="evenodd" d="M99.64004581 60.49108168c-3.99046654 8.61311202-8.74454089 16.85496922-14.1883255 24.6265703-2.24155836 3.19279153-4.75407434 6.80633853-4.06436407 10.66738875 2.26619088-1.31176707 3.54708137-3.81154958 4.75407434-6.13807984C91.3635226 79.64783084 97.69407756 70.29220916 104 60.9613378c-.88677034-1.03951351-1.92133574-2.153278-3.27612377-2.27702961-1.35478802-.1237516-2.80810609 1.460269-2.01986578 2.57403348"/>
    </g>
    <rect width="120" height="120" x="0" y="0" fill="none"/>
  </g>
</svg>
