<svg xmlns="http://www.w3.org/2000/svg" viewBox="0 0 99.48 42.08"><defs><style>.cls-1{fill:#1d66af;}</style></defs><g id="Calque_2" data-name="Calque 2"><g id="Calque_1-2" data-name="Calque 1"><path class="cls-1" d="M2.44,10.5l35.7,26.42c3.28,2.43,6.73,5.92,11.19,5a12.42,12.42,0,0,0,4.59-2.37l4.88-3.42L76.67,23.6,97,9.36c2.13-1.5,3.34-4.44,1.79-6.84C97.41.39,94.23-.88,91.94.72Q74.57,12.9,57.21,25.09l-8.74,6.12a9.92,9.92,0,0,0-1.85,1.23l.45-.22a1.94,1.94,0,0,1,1.69.11l.22.12c-.25-.13-.48-.27-.71-.42-1.48-1-2.87-2.1-4.28-3.15L26.74,16.12,7.49,1.87C5.38.3,1.82,1.45.65,3.66-.73,6.27.19,8.83,2.44,10.5Z"/></g></g></svg>