<svg xmlns="http://www.w3.org/2000/svg" viewBox="0 0 122.06 141.16"><defs><style>.cls-1{fill:#1d66ae;}.cls-2{fill:#b63955;}.cls-3{fill:#fff;}</style></defs><title>conseiller</title><g id="Calque_2" data-name="Calque 2"><g id="Calque_1-2" data-name="Calque 1"><path class="cls-1" d="M50.29,93a17.56,17.56,0,0,0,12.89,4.06c3.85-.44,7.41-2.8,10-5.54,7.54-7.92,8.86-20.64,5.73-30.78-1.32-4.29-3.7-8.56-7.4-11.25a12.9,12.9,0,0,0-11.24-1.92,21.79,21.79,0,0,0-11.13,6.21,27.41,27.41,0,0,0-5.87,10.55,30.7,30.7,0,0,0-.07,17.41A24.3,24.3,0,0,0,50.29,93c.77.66,2.69-1.64,1.9-2.32a22.25,22.25,0,0,1-6.14-8.89,29.5,29.5,0,0,1-1.63-13.31c.75-7.27,4.38-14.6,11.48-17.38,3.66-1.44,7.61-2.32,11.35-.68,3.56,1.56,6.19,4.77,7.9,8.18a31.59,31.59,0,0,1,3.08,13.89c0,5.05-.89,10.37-3.56,14.73-2.1,3.44-5.47,6.4-9.51,7.22-4.6.93-9.43-.88-13-3.76C51.39,90,49.48,92.35,50.29,93Z" transform="translate(-2.23)"/><path class="cls-1" d="M62,90.1H76.92c1.45,0,3.16.2,4.06-1.22.7-1.09.6-2.65.63-3.9a44.86,44.86,0,0,0-.13-4.64,84.73,84.73,0,0,0-1.24-9.26,1.52,1.52,0,0,0-1.85-1,1.54,1.54,0,0,0-1,1.85c.48,2.58.87,5.18,1.09,7.79.11,1.33.18,2.66.19,4,0,.66,0,1.31,0,2a4.88,4.88,0,0,1-.13,1.62c0,.11,0,.06.17-.16H62a1.5,1.5,0,0,0,0,3Z" transform="translate(-2.23)"/><path class="cls-1" d="M54.55,97.07c0,1.09.22,2.18.29,3.26a18.44,18.44,0,0,1,0,2.23,8.55,8.55,0,0,1-.13,1c-.33,1.44.58-.87.64-.75s-5.91,2.08-6.47,2.2c-2.35.51-4.74.63-7.12.95-1.87.25-4,.53-5.41,1.86a11.15,11.15,0,0,0-2.78,4.42c-1.29,3.63-.77,7.65-.69,11.42,0,.31.79-.65.83-.71.28-.37.92-1.09.91-1.61,0-1.94-.17-3.88-.15-5.83a25.52,25.52,0,0,1,.22-3.15c.1-.66.27-2.3.79-2.77.16.13.32.09.47-.11s.45-.21.68-.3a13.46,13.46,0,0,1,1.54-.42,36.28,36.28,0,0,1,3.6-.52,48.57,48.57,0,0,0,6.47-1c1.84-.46,4.3-1,5.86-2.17a6.93,6.93,0,0,0,2.19-3.25c.74-2.3,0-4.74,0-7.08,0-.31-.78.65-.82.7-.29.37-.92,1.1-.91,1.61Z" transform="translate(-2.23)"/><path class="cls-1" d="M68.71,94.62c-1.43,3.53.39,7.26,3.46,9.22,3.75,2.39,8.27,2.09,12.45,3,6.75,1.46,12.58,8.54,11.72,15.61-.22,1.82,2.7,1.75,2.9.12.81-6.75-3.53-13.83-9.5-16.87-3.73-1.91-7.89-1.69-11.88-2.6-3.29-.75-8.15-3.52-6.47-7.68.71-1.77-2.06-2.34-2.68-.79Z" transform="translate(-2.23)"/><path class="cls-1" d="M33.54,124.64c16.28-.22,32.56.09,48.84.09q7.08,0,14.16-.09c1.46,0,2.46-2.31.5-2.28-16.28.22-32.56-.09-48.84-.09q-7.08,0-14.16.09c-1.46,0-2.45,2.31-.5,2.28Z" transform="translate(-2.23)"/><path class="cls-1" d="M55.55,58c4.3.23,7.22,4.27,10.57,7,5.08,4.11,11.27,5.65,17.71,6.8-.45-6.65-1-18-6.39-22s-13.23-5.88-19.89-5.68c-3.39.1-10.11,3.66-13.5,7.81-2.38,2.92-2.67,5.65-3.39,9.35a31.31,31.31,0,0,0,.27,11.25c1.27-3.38,5-4.94,8-7a21.09,21.09,0,0,0,6.5-7.11" transform="translate(-2.23)"/><path class="cls-1" d="M63.81,27a40.1,40.1,0,0,0-37,8c-9.93,8.63-15.27,21.58-15.39,34.62a58.62,58.62,0,0,0,5,23.74l1.44-2.11A72.7,72.7,0,0,1,4,82L2.93,84.7A73.9,73.9,0,0,1,17.5,94.08a1,1,0,0,0,1.41-.15l8.52-12.3a1.87,1.87,0,0,0,.14-2.12A1,1,0,0,0,26,79.4L17.42,91.71l1.41-.14a76.35,76.35,0,0,0-15.1-9.71c-1.4-.69-2,1.92-1.06,2.68A75.46,75.46,0,0,0,17,94.05c1.15.59,1.79-1.31,1.44-2.11C13.2,79.8,11.88,65.73,16.88,53.28,21.39,42,30.57,33.1,42.35,29.83a38.15,38.15,0,0,1,20.66,0c1.57.45,2.2-2.45.8-2.85Z" transform="translate(-2.23)"/><path class="cls-1" d="M91.74,98.11A31.55,31.55,0,0,0,111.1,63.73,31.93,31.93,0,0,0,106.5,52c-.72-1.11-2.45-.18-2.6.88A8.71,8.71,0,0,1,100,58.94l2.32,1.14a29.88,29.88,0,0,1,1.47-4.71c.38-.91.47-1,1.44-1,.75,0,1.5-.08,2.26-.1,3.06-.07,6.2.15,8.82,1.89,1.47,1,3.3-1.39,1.77-2.4-3.52-2.34-7.76-2.49-11.84-2.28-2,.1-3.74.21-4.73,2.17a27.52,27.52,0,0,0-2.07,6.32c-.32,1.41,1.42,1.74,2.31,1.14a11.68,11.68,0,0,0,5-8l-2.6.87A28.3,28.3,0,0,1,90.67,95.55a1.39,1.39,0,1,0,1.07,2.56Z" transform="translate(-2.23)"/><path class="cls-2" d="M34.09,121.74a30,30,0,0,0-2-2.53,7.14,7.14,0,0,1-1.32-1.74c-.81-2,.37-4.6,1-6.44.73-2.12,1.37-4.52.07-6.56-1.06-1.68-3.06-2.39-4.93-2.67a12.82,12.82,0,0,0-6.51.21,7.14,7.14,0,0,0-4.06,4.19c-1.81,4.54.66,9.59,3,13.43a71.88,71.88,0,0,0,8.77,11.12,35.22,35.22,0,0,0,11,8.36,20.56,20.56,0,0,0,13.21,1.56c3.58-.88,8.24-3.72,6.71-8.1-.9-2.58-3.42-3-5.83-2.58a16.25,16.25,0,0,1-7.9-.12,17.46,17.46,0,0,1-6.74-3.53c-1.7-1.51-3.08-3.34-4.73-4.9-1.4-1.33-3.53.79-2.12,2.12,2.55,2.41,4.56,5.22,7.65,7a19.74,19.74,0,0,0,11.5,2.87,24.6,24.6,0,0,0,2.93-.51c.81-.17,2-.41,2.38.52.66,1.51-.91,2.8-2.06,3.41-3.37,1.78-7.57,1.58-11.12.53-7.7-2.29-13.39-9-18.13-15.14-2.49-3.22-5.15-7-5.95-11.06a6.35,6.35,0,0,1,1-5.19c1.22-1.54,3.18-1.57,5-1.43,1.52.12,4.27.25,4.72,2.09a5.93,5.93,0,0,1-.52,3.15c-.39,1.15-.81,2.29-1.09,3.47a8.51,8.51,0,0,0,.23,5.7c.79,1.59,2.29,2.82,3.29,4.29s3.68.08,2.59-1.52Z" transform="translate(-2.23)"/><path class="cls-2" d="M80.38,44.51A31.43,31.43,0,0,0,88.21,35a10.29,10.29,0,0,0,1.32-3.47c.77-5.36-4.68-8.61-5.64-13.91a11,11,0,0,1,1.85-7.93,15.38,15.38,0,0,1,5.37-4.54A38,38,0,0,1,115,.32c2.59.34,5.39,1.13,7.05,3.86,1.49,2.45,1.71,5.86,1.85,9l.37,7.94a6.63,6.63,0,0,1-.39,3.29,3.51,3.51,0,0,1-1.52,1.4c-6.41,3.58-13.73,1.37-20.54,3s-13,7.27-17.9,14.13" transform="translate(-2.23)"/><path class="cls-3" d="M92.66,13.48h21.39c1.45,0,1.88-3,.48-3H93.14c-1.45,0-1.88,3-.48,3Z" transform="translate(-2.23)"/><path class="cls-3" d="M94.08,20.21q10-.6,20-.22c.6,0,1.49-.32,1.5-1s-.94-1-1.5-1a198.54,198.54,0,0,0-20,.22c-.6,0-1.49.28-1.5,1s.93,1.06,1.5,1Z" transform="translate(-2.23)"/><path class="cls-1" d="M53.79,104.71a25,25,0,0,0,12,5.25c4.16.56,8.95-.67,10.87-4.77.62-1.33-2.28-.91-2.73.06-1.56,3.32-5.22,3.23-8.33,2.53a23.28,23.28,0,0,1-9.24-4.49c-.89-.69-3.52.67-2.57,1.42Z" transform="translate(-2.23)"/></g></g></svg>