<svg xmlns="http://www.w3.org/2000/svg" viewBox="0 0 71.73 75.84"><defs><style>.cls-1{fill:#fff;}.cls-2{fill:#74b16d;}.cls-3{fill:none;stroke:#74b16d;stroke-linecap:round;stroke-linejoin:round;}</style></defs><title>dossier</title><g id="Calque_2" data-name="Calque 2"><g id="Calque_1-2" data-name="Calque 1"><polygon class="cls-1" points="69.84 64.03 17.85 64.03 17.85 1.84 59.01 1.04 62.58 5.46 69.52 13.68 69.84 64.03"/><path class="cls-2" d="M69.75,27.28a198.61,198.61,0,0,0,.62,23A48.26,48.26,0,0,1,69.84,64c-.26,1.23-.56,1.48-1.81,1.44-6.26-.22-12.51-.58-18.77-.59-4,0-8.09.47-12.13.8-5.2.42-10.25,1.1-15.45.33a30.15,30.15,0,0,1-3-.58c-.24-.06-1-.75-1-.94.8-5.81.1-11.62.07-17.43,0-4.7-.05-9.4-.2-14.09-.11-3.46-.53-6.91-.61-10.37s.08-6.67.22-10c.16-3.59.43-7.17.65-10.76,0-.4,0-.85.51-1a2.06,2.06,0,0,1-.47.46c0-1.23,1.32-1.44,1.95-1.25a22.83,22.83,0,0,0,9.08.59A103.06,103.06,0,0,1,46.22.18c3.89.21,7.8.19,11.7.24A1.21,1.21,0,0,1,59,1c1.14,1.51,2.29,3,3.57,4.42,2,2.18,4.09,4.33,6.26,6.35a2.16,2.16,0,0,1,.68,1.87C69.51,18.22,69.75,22.74,69.75,27.28ZM19.14,1.09c-.24,3.42-.48,6.8-.73,10.17a91,91,0,0,0,.21,11.9c.29,4.6.08,8.94.22,13.55.12,4,.08,8.06.13,12.09s.57,8.55.6,12.58a23.36,23.36,0,0,1-.25,2.9c2.45.25,4.38.56,6.8.68,5.48.26,10.91-.46,16.35-1a113.83,113.83,0,0,1,16.62-.17c3,.17,6,.31,8.79.46.34-.5.59-.82.8-1.15a1.5,1.5,0,0,0,.22-.54,47.6,47.6,0,0,0,.38-11.06c-.26-3.76-.7-7.52-.79-11.28-.18-7.49-.16-15-.23-22.48V14.72a27.92,27.92,0,0,0-9.88-1.29c-1,.05-1.07-.07-1-1,.09-2.62.18-5.23.26-7.85,0-1,0-1.92,0-2.78-4.27-.2-8.32-.45-12.37-.57-2.95-.08-5.9-.09-8.85,0-2,.07-4.08.4-6.13.58C26.49,2.14,22.73,2.24,19.14,1.09Zm39.56,11,9.75,1.21c-2.79-3.89-6.76-6.52-9.56-10.25l-.19,0Z"/><path class="cls-2" d="M18.82,1.42C18.79.18,20.32.29,21,.48A22.88,22.88,0,0,0,30,1.07,101.92,101.92,0,0,1,47.33.6C51.23.81,54.8.32,58.7.36c.54,0,1.11.69,1.42,1.1,1.15,1.51,2.29,3,3.57,4.42,2,2.18,4.09,4.32,6.27,6.35a2.15,2.15,0,0,1,.67,1.87V27.73a198.29,198.29,0,0,0,.86,23A48.92,48.92,0,0,1,71,64.44c-.26,1.24-.56,1.49-1.81,1.45-6.26-.22-12.52-.58-18.78-.59-4,0-8.09.47-12.13.8-5.2.42-10.39.84-15.59.07q-1.63-.26-3.24-.63c-.24-.06-.6-.45-.58-.63.81-5.81.1-11.62.07-17.43,0-4.7,0-9.4-.19-14.09-.11-3.46-.54-6.92-.61-10.38s.07-6.66.22-10c.16-3.59.42-7.18.64-10.76m1.3-.75c-.25,3.42-.49,6.8-.73,10.17a85,85,0,0,0-.22,11.62c.28,4.6.5,9.22.64,13.83.12,4,.08,8.06.13,12.09s.16,8.06.19,12.09c0,1-.19,2.08-.31,3.33,2.44.26,4.85.62,7.27.73,5.48.27,10.92-.45,16.36-1a113.71,113.71,0,0,1,16.61-.17c3,.17,6,.31,8.79.45.35-.49.59-.81.8-1.14A1.49,1.49,0,0,0,70,63,47.6,47.6,0,0,0,70.39,52c-.26-3.76-.7-7.52-.79-11.28-.17-7.5-.16-15-.22-22.48,0-1,0-2.05,0-3.06a28.19,28.19,0,0,0-9.88-1.3c-1,.06-2.2-.11-2.16-1.06.09-2.61,1.3-5.18,1.37-7.8,0-1-.44-1.69-.44-2.55-4.27-.2-7.87-.68-11.92-.8-3-.09-5.91-.09-8.85,0-2,.07-4.09.4-6.13.58C27.6,2.55,23.84,2.65,20.26,1.51Zm39.56,11,9.75,1.21C66.78,9.86,62.8,7.22,60,3.5l-.19,0Z"/><polygon class="cls-1" points="52.88 73.27 0.88 73.27 0.88 11.09 42.05 10.29 45.62 14.71 52.56 22.93 52.88 73.27"/><path class="cls-2" d="M52.78,36.53a198.68,198.68,0,0,0,.63,23,48.18,48.18,0,0,1-.53,13.72c-.26,1.24-.56,1.49-1.81,1.45-6.26-.22-12.52-.58-18.78-.59-4,0-8.09.47-12.13.8C15,75.35,9.92,76,4.72,75.26a30.15,30.15,0,0,1-3-.58c-.24-.06-1-.76-1-.94.81-5.81.11-11.62.07-17.43,0-4.7,0-9.4-.19-14.09C.52,38.76.09,35.3,0,31.84s.07-6.66.22-10c.16-3.59.42-7.18.64-10.76,0-.41,0-.86.52-1a2.28,2.28,0,0,1-.47.46c0-1.24,1.31-1.44,1.94-1.25A22.89,22.89,0,0,0,12,9.9a101.92,101.92,0,0,1,17.29-.47c3.9.21,7.8.19,11.7.24a1.23,1.23,0,0,1,1.1.62,56.21,56.21,0,0,0,3.56,4.41c2,2.19,4.09,4.33,6.27,6.36a2.18,2.18,0,0,1,.68,1.87C52.55,27.47,52.78,32,52.78,36.53ZM2.18,10.34c-.25,3.42-.48,6.8-.73,10.17A90.79,90.79,0,0,0,1.66,32.4c.28,4.61.07,9,.21,13.56C2,50,2,54,2,58.05s.58,8.55.6,12.58a25.11,25.11,0,0,1-.24,2.89c2.44.26,4.37.57,6.79.68,5.48.27,10.92-.45,16.36-1a113.71,113.71,0,0,1,16.61-.17c3,.17,6,.31,8.79.45.35-.49.59-.81.81-1.14a1.66,1.66,0,0,0,.22-.54,47.6,47.6,0,0,0,.37-11.06c-.25-3.76-.7-7.52-.79-11.29-.17-7.49-.16-15-.22-22.47,0-1,0-2.05,0-3.06a28.16,28.16,0,0,0-9.88-1.3c-1,.06-1.08-.06-1-1,.09-2.62.18-5.23.25-7.85,0-1,0-1.92,0-2.79-4.27-.2-8.32-.44-12.37-.56q-4.43-.14-8.85,0c-2.05.07-4.09.4-6.13.58C9.52,11.38,5.76,11.48,2.18,10.34Zm39.56,11,9.75,1.21c-2.79-3.89-6.76-6.53-9.56-10.25l-.19.05Z"/><path class="cls-2" d="M1.86,10.67c0-1.24,1.5-1.13,2.13-.94a22.69,22.69,0,0,0,9.09.58,102.94,102.94,0,0,1,17.29-.46c3.89.2,7.47-.28,11.37-.24.54,0,1.11.68,1.42,1.1,1.14,1.51,2.29,3,3.57,4.41,2,2.19,4.09,4.33,6.26,6.36a2.14,2.14,0,0,1,.68,1.86V37a196.26,196.26,0,0,0,.86,23A48.55,48.55,0,0,1,54,73.69c-.25,1.24-.56,1.49-1.81,1.45-6.25-.22-12.51-.58-18.77-.59-4,0-8.09.47-12.13.79-5.2.43-10.39.84-15.59.07-1.09-.16-2.18-.37-3.25-.63-.23,0-.6-.44-.57-.63.8-5.8.1-11.62.07-17.42,0-4.7-.05-9.4-.2-14.09-.1-3.47-.53-6.92-.61-10.38s.08-6.67.23-10c.15-3.58.42-7.17.64-10.75m1.29-.75c-.24,3.42-.48,6.79-.73,10.17a86.52,86.52,0,0,0-.22,11.61q.44,6.91.65,13.84c.12,4,.08,8.06.13,12.09s.15,8.06.18,12.09c0,1-.18,2.07-.3,3.33,2.44.25,4.85.61,7.27.73,5.48.27,10.91-.45,16.35-1a113.84,113.84,0,0,1,16.62-.17c3,.17,6,.31,8.79.45.35-.49.59-.81.8-1.15a1.73,1.73,0,0,0,.23-.54,48,48,0,0,0,.37-11.05c-.26-3.76-.7-7.52-.79-11.29-.17-7.49-.16-15-.22-22.48,0-1,0-2,0-3.05a28.22,28.22,0,0,0-9.89-1.3c-1,.06-2.19-.11-2.16-1.06.1-2.61,1.31-5.18,1.38-7.8,0-1-.45-1.69-.45-2.55-4.27-.21-7.87-.68-11.92-.8q-4.43-.14-8.85,0c-2,.07-4.08.4-6.12.58C10.64,11.8,6.88,11.9,3.29,10.76Zm39.56,11L52.6,23c-2.78-3.89-6.76-6.53-9.55-10.25l-.2.05Z"/><polygon class="cls-1" points="62.68 69.8 10.69 69.8 10.69 7.62 51.85 6.82 55.42 11.23 62.36 19.46 62.68 69.8"/><path class="cls-2" d="M62.59,33.06a198.68,198.68,0,0,0,.63,23,48.55,48.55,0,0,1-.54,13.72c-.25,1.24-.55,1.49-1.8,1.45-6.26-.22-12.52-.58-18.78-.59-4,0-8.09.47-12.13.8-5.2.42-10.25,1.1-15.45.33a30,30,0,0,1-3-.58c-.24-.06-1-.76-1-.94.81-5.81.1-11.62.07-17.43,0-4.7-.05-9.4-.19-14.09-.11-3.46-.54-6.92-.61-10.38s.07-6.66.22-10c.15-3.59.42-7.18.64-10.76,0-.41,0-.85.51-1,.06,0-.46.51-.47.46,0-1.24,1.32-1.44,1.95-1.25a22.88,22.88,0,0,0,9.09.59A101.89,101.89,0,0,1,39.06,6c3.89.21,7.8.19,11.7.24a1.2,1.2,0,0,1,1.09.62c1.14,1.51,2.29,3,3.57,4.42,2,2.18,4.09,4.32,6.26,6.35a2.15,2.15,0,0,1,.68,1.87C62.36,24,62.59,28.52,62.59,33.06ZM12,6.87c-.24,3.42-.48,6.8-.72,10.17a89.08,89.08,0,0,0,.21,11.89c.28,4.61.07,9,.21,13.56.12,4,.08,8.06.13,12.09s.57,8.55.6,12.58a25.11,25.11,0,0,1-.24,2.89c2.44.26,4.37.57,6.79.68,5.48.27,10.92-.45,16.36-1a113.69,113.69,0,0,1,16.61-.17c3,.17,6,.31,8.79.45.35-.49.59-.81.8-1.14a1.49,1.49,0,0,0,.23-.54,48.15,48.15,0,0,0,.37-11.06c-.26-3.76-.7-7.52-.79-11.29-.17-7.49-.16-15-.22-22.47,0-1,0-2,0-3.06a28.22,28.22,0,0,0-9.89-1.3c-1,.06-1.07-.06-1-1,.1-2.62.19-5.23.26-7.85,0-1,0-1.92,0-2.79-4.27-.2-8.32-.44-12.37-.56-2.94-.09-5.9-.09-8.84,0-2.05.07-4.09.4-6.13.58C19.33,7.91,15.57,8,12,6.87Zm39.57,11,9.74,1.21c-2.78-3.89-6.76-6.53-9.55-10.25l-.19.05Z"/><path class="cls-2" d="M11.67,7.2c0-1.24,1.49-1.13,2.13-.94a22.64,22.64,0,0,0,9.08.58,103.06,103.06,0,0,1,17.3-.46c3.89.2,7.47-.28,11.37-.24.53,0,1.11.68,1.42,1.1a55.9,55.9,0,0,0,3.57,4.41c2,2.19,4.09,4.33,6.26,6.36a2.14,2.14,0,0,1,.68,1.86c0,4.55,0,9.09,0,13.63a198.45,198.45,0,0,0,.85,23,48.18,48.18,0,0,1-.53,13.72c-.26,1.24-.56,1.49-1.81,1.45-6.26-.22-12.52-.58-18.77-.59-4,0-8.09.47-12.13.79-5.2.43-10.4.84-15.6.07q-1.63-.24-3.24-.63c-.24,0-.6-.44-.57-.63.8-5.8.1-11.62.07-17.42,0-4.7-.05-9.4-.2-14.09-.11-3.47-.53-6.92-.61-10.38s.08-6.67.22-10c.16-3.58.43-7.17.65-10.75m1.29-.75c-.25,3.42-.48,6.79-.73,10.17a86.52,86.52,0,0,0-.22,11.61c.28,4.61.51,9.23.65,13.84.12,4,.07,8.06.13,12.09s.15,8.06.18,12.09c0,1-.19,2.07-.31,3.33,2.45.25,4.86.61,7.28.73,5.48.27,10.91-.45,16.35-1A113.71,113.71,0,0,1,53,70c3,.17,6,.31,8.8.45.34-.49.58-.81.8-1.15a1.5,1.5,0,0,0,.22-.54,47.49,47.49,0,0,0,.37-11.05c-.25-3.76-.7-7.52-.78-11.29-.18-7.49-.16-15-.23-22.48,0-1,0-2,0-3a28.16,28.16,0,0,0-9.88-1.3c-1,.06-2.19-.11-2.16-1.06.09-2.61,1.3-5.18,1.38-7.8,0-1-.45-1.69-.45-2.55-4.27-.21-7.87-.68-11.92-.8q-4.42-.13-8.85,0c-2.05.07-4.08.4-6.13.58C20.44,8.33,16.69,8.43,13.1,7.29Zm39.56,11,9.75,1.21C59.62,15.64,55.65,13,52.85,9.28l-.19.05Z"/><path class="cls-3" d="M19.39,23.78H51.65"/><path class="cls-3" d="M20.51,32H52.76"/><path class="cls-3" d="M21.59,41.07H53.84"/><path class="cls-3" d="M21.59,49H53.84"/><path class="cls-3" d="M21.59,59.09H53.84"/></g></g></svg>