<svg width="42" height="40" viewBox="0 0 42 40" fill="none" xmlns="http://www.w3.org/2000/svg">
<path d="M4.33317 0.25C2.02067 0.25 0.166504 2.10417 0.166504 4.41667V25.25C0.166504 26.3551 0.605491 27.4149 1.38689 28.1963C2.16829 28.9777 3.2281 29.4167 4.33317 29.4167H20.9998V39.8333L27.2498 33.5833L33.4998 39.8333V29.4167H37.6665C38.7716 29.4167 39.8314 28.9777 40.6128 28.1963C41.3942 27.4149 41.8332 26.3551 41.8332 25.25V4.41667C41.8332 3.3116 41.3942 2.25179 40.6128 1.47039C39.8314 0.688987 38.7716 0.25 37.6665 0.25H4.33317ZM20.9998 4.41667L27.2498 8.58333L33.4998 4.41667V11.7083L39.7498 14.8333L33.4998 17.9583V25.25L27.2498 21.0833L20.9998 25.25V17.9583L14.7498 14.8333L20.9998 11.7083V4.41667ZM4.33317 4.41667H14.7498V8.58333H4.33317V4.41667ZM4.33317 12.75H10.5832V16.9167H4.33317V12.75ZM4.33317 21.0833H14.7498V25.25H4.33317V21.0833Z" fill="white"/>
</svg>
