<svg xmlns="http://www.w3.org/2000/svg" xmlns:xlink="http://www.w3.org/1999/xlink" width="80" height="85.1" viewBox="0 0 80 85.1">
  <defs>
    <rect id="rect-1" width="80" height="85.1" x="0" y="0"/>
    <mask id="mask-2" maskContentUnits="userSpaceOnUse" maskUnits="userSpaceOnUse">
      <rect width="80" height="85.1" x="0" y="0" fill="black"/>
      <use fill="white" xlink:href="#rect-1"/>
    </mask>
  </defs>
  <g>
    <use fill="none" xlink:href="#rect-1"/>
    <g mask="url(#mask-2)">
      <g>
        <path fill="rgb(255,255,255)" fill-rule="evenodd" d="M77.92477302 71.84714899H19.922179V2.08706315l45.91439689-.93917842 3.99481193 4.95677499 7.7302205 9.23525444.36316471 56.50723483z"/>
        <path fill="rgb(184,57,85)" fill-rule="evenodd" d="M77.82104492 30.62768555c-.3112793 8.60913086 0 17.21826172.72631836 25.82739257.41503906 5.16552735.46691895 10.2788086-.57067871 15.39208985-.3112793 1.40893555-.6225586 1.66967773-2.02337646 1.61767578-7.00384522-.26098633-13.95587159-.6262207-20.95977784-.6784668-4.51361084 0-9.02722168.52172852-13.54083252.8869629-.95404052.07714843-1.90246582.16259765-2.84710693.24780273-4.809021.43383789-9.52069092.85888672-14.37731934.11743164-1.1932373-.15649414-2.1270752-.36523438-3.3203125-.62597656-.25946044-.0522461-1.14141845-.83496094-1.08953857-1.04345704.61346436-4.53686523.42364502-9.07348632.23382568-13.61132812-.08306884-1.98510742-.1661377-3.9699707-.1819458-5.95507813-.05187988-5.26977539-.05187988-10.53955078-.20751953-15.80932617-.10375976-3.86108398-.6225586-7.77441406-.67443847-11.63549804-.08850098-3.20336914.04937744-6.36889649.18841552-9.56103516.02398682-.55151367.04803467-1.10375977.07098389-1.65698242.15563965-4.01757813.46691894-8.03515625.72631836-12.05273438.00897217-.08129883.01330566-.16259765.01751709-.24243164.00634765-.1196289.0125122-.2355957.03399658-.3425293C19.98181153.10327149 21.48052979-.10375976 22.20495605.1044922c3.32037354.99121093 6.74450684 1.04345703 10.11669922.67822265C38.75488281.0522461 45.13623047-.10424805 51.62127686.26098633c4.35797119.20874023 8.71594238.20874023 13.07391357.26098633.62261963 0 .88201904.26074218 1.19329834.67822265 1.29699707 1.66967774 2.54211426 3.39135742 3.99481201 4.95678711 2.23083496 2.45214844 4.56549072 4.85229492 7.00390625 7.14819336.72631836.67822266.77819824 1.30444336.77819824 2.08691406-.0604248 2.9465332.0022583 5.89257813.06524659 8.8515625.04510498 2.12158203.09039306 4.24829102.09039306 6.3840332zM21.3748169 1.25219727c-.25939941 3.80908203-.51879882 7.61791992-.83007812 11.4267578-.3112793 4.27856446-.05187988 8.92211915.20751953 13.30493165.1831665 3.0390625.18670654 5.9699707.19030762 8.93041992.00250244 2.0715332.00500488 4.1574707.0690918 6.30517578.15563964 4.53955078.10375976 9.02661133.15563964 13.56591797.05187989 4.53955078.6225586 9.60058594.67443848 14.08764648 0 1.14794922-.15563965 1.82617188-.25939941 3.23510743 2.74969482.26074218 4.87683105.62597656 7.57458496.7824707 4.9923706.2553711 9.9501953-.25268555 14.9017334-.7602539 1.12030029-.1147461 2.2402954-.2294922 3.36029052-.33544923 6.1737671-.57373046 12.34759522-.52172851 18.5213623-.20849609 3.37225343.2084961 6.74450684.36523438 9.80548096.52172852.36315918-.57397461.67443848-.8869629.88195801-1.30444336.10375977-.20874024.20751953-.41748047.25939942-.6262207.67443847-4.12182618.67443847-8.24389649.41503906-12.41796876-.25939942-4.22631836-.77819824-8.45263671-.881958-12.67895507-.20751954-8.40039063-.15563966-16.80078125-.25939942-25.20117188v-3.44360351c-3.37225342-1.09570313-7.41894532-1.66967774-11.05059815-1.4609375-1.08947754.05200195-1.1932373-.0522461-1.14135742-1.14794922.10375977-2.921875.20751953-5.84375.3112793-8.8178711.03485107-.73657226.02288818-1.44970703.01123047-2.13916015-.00567627-.33618164-.01123047-.6665039-.01123047-.99145508-4.77301026-.20874024-9.2866211-.52172852-13.80023194-.6262207-3.26849365-.10424805-6.58886718-.10424805-9.85736084 0-2.28271484.10449218-4.56549072.41748046-6.8482666.6262207-4.20233154.52172851-8.40466308.6262207-12.3994751-.6262207zm54.99353028 13.7224121c-3.78729248-.46948242-7.31518555-.88696289-10.8949585-1.3564453 0-3.33935548 0-6.73095704.05187988-10.07006837.05187989 0 .15563965-.0522461.20751954-.0522461 3.112854 4.17407227 7.52270507 7.09594727 10.63555908 11.47875977z"/>
        <path fill="rgb(184,57,85)" fill-rule="evenodd" d="M21.01165771 1.61743164C20.95977783.20874024 22.671875.36523438 23.39819336.57397461c3.32037353.99145508 6.74450684 1.04345703 10.11669922.67822266 6.43322754-.73046875 12.8145752-.8869629 19.29962158-.52172852 2.43811035.11669922 4.76257324.00488281 7.0914917-.10717773C61.74328613.5349121 63.57824707.44677734 65.47338867.46972656c.6225586 0 1.24517822.7824707 1.6083374 1.19995117 1.29699707 1.66967774 2.54211426 3.39160157 3.99481202 4.95678711 2.23083496 2.45239258 4.56549072 4.85229493 7.00390625 7.14819336.72631836.67822266.77819824 1.30444336.77819824 2.0871582v15.28759766c-.3112793 8.60913086.25939941 17.21826172.93383789 25.77539063.41503906 5.1652832.46691894 10.27856445-.57067871 15.39208984-.3112793 1.4086914-.6225586 1.6694336-2.02337647 1.61743164-7.00384521-.26098633-13.95587158-.6262207-20.95977783-.6784668-4.51361084 0-9.02722168.52197266-13.54083252.88720704l-.05358887.00439453c-5.79248046.46801758-11.5336914.93188476-17.32647705.04760742-1.1932373-.15649414-2.43835449-.41723633-3.63165283-.73046875-.25939941-.05200195-.67443848-.46948242-.6225586-.73046875.61346436-4.53686523.42364503-9.07348633.2338257-13.61132813-.08306886-1.98486328-.1661377-3.9699707-.18194581-5.95483398-.05187988-5.2697754-.05187988-10.53955078-.20751953-15.80957031-.10375977-3.86108399-.6225586-7.77416992-.67443848-11.6352539-.08850097-3.20361329.04937744-6.36938477.18841553-9.56152345.02404785-.55126953.0480957-1.10327148.07098389-1.65649414.15563965-4.01757812.46691894-8.03515625.72631836-12.05273437l-.20751954-.83496094zm1.60827637.10449219c-.25939941 3.80883789-.51879883 7.61767578-.83007812 11.42675781-.3112793 4.3305664-.51879883 8.66113281-.25939942 13.04394531.3112793 5.16552735.57067871 10.3310547.72631836 15.54882813.15563965 4.53930664.10375977 9.02636719.15563965 13.56591797.05187988 4.53930664.15563965 9.02636718.20751953 13.56591797 0 1.14770507-.20751953 2.34790039-.36315918 3.7565918 2.74969483.26098632 5.39562989.67822265 8.0933838.83496093 4.99163817.25512695 9.9487915-.25292969 14.90112304-.7602539 1.12054443-.11499024 2.24072265-.22973633 3.36090088-.33569337 6.17376709-.57373046 12.34759521-.52172851 18.5213623-.20849609 3.37225342.2084961 6.74450684.36523438 9.80548096.52172852.36315918-.57397461.67443848-.8869629.881958-1.30444336.10375977-.20874024.20751954-.41748047.25939942-.6262207.67443848-4.12182618.67443848-8.2438965.41503906-12.41796876-.25939941-4.22631836-.77819824-8.45263671-.881958-12.67895507-.20751954-8.40039063-.15563965-16.80078125-.25939942-25.20117188v-3.44360351c-3.37225342-1.09570313-7.41894531-1.66967774-11.05059814-1.4609375-1.08947754.05200195-2.4383545-.1044922-2.38647461-1.20019532.10375976-2.921875 1.45263672-5.7915039 1.55639648-8.765625.02752686-.58129883-.1203003-1.07470703-.26519775-1.5583496-.12799072-.42700196-.25360108-.84619141-.25360108-1.3112793-4.77301025-.20874024-8.76782226-.78271485-13.2814331-.88720703-3.26849365-.10424805-6.58886719-.10424805-9.85736084 0-2.28271485.10449218-4.56549072.41748046-6.8482666.6262207-4.20233155.41748047-8.3527832.52172851-12.34759522-.73046875zM77.6135254 15.4440918c-3.78729248-.46948243-7.31518555-.8869629-10.8949585-1.35644532 0-3.33935546 0-6.73095703.05187989-10.07006836.05187988 0 .15563965-.05224609.20751953-.05224609 3.112854 4.17407227 7.52270508 7.09594727 10.63555908 11.47875977z"/>
      </g>
      <g>
        <path fill="rgb(255,255,255)" fill-rule="evenodd" d="M69.93514916 78.31704476H11.93255512V8.55695892l45.91439689-.88700184 3.99481193 4.95677499 7.7302205 9.18307786.36316472 56.50723483z"/>
        <path fill="rgb(0,102,179)" fill-rule="evenodd" d="M69.8314209 37.0974121c-.3112793 8.60913087 0 17.21826173.72631836 25.82739259.41503906 5.16552734.46691894 10.2788086-.57067871 15.39208984-.3112793 1.40893555-.6225586 1.66967774-2.02337647 1.61767578-7.00384521-.26098633-13.95587158-.6262207-20.95977783-.6784668-4.51361084 0-9.02722168.52172852-13.54083252.8869629-.95404053.07714843-1.90246582.16259765-2.84710693.24780273-4.809021.4338379-9.52069092.85888672-14.37731934.11743164-1.1932373-.15649414-2.1270752-.36523437-3.3203125-.62597656-.25946045-.0522461-1.14141846-.83496094-1.08953857-1.04345703.61346435-4.53686524.42364502-9.07348633.23382568-13.61132813-.08306885-1.98510742-.1661377-3.9699707-.1819458-5.95507812-.05187988-5.2697754-.05187988-10.53955078-.20751953-15.80932617-.10375977-3.86108399-.6225586-7.77441407-.67443848-11.63549805-.08850097-3.20336914.04937744-6.36889649.18841553-9.56103516.02398682-.55151367.04803467-1.10375976.07098389-1.65698242.15563964-4.01757812.46691894-8.03515625.72631836-12.05273437.00897216-.08129883.01330566-.16259766.01751708-.24243164.00634766-.11962891.01251221-.2355957.03399659-.3425293-.04376221-1.39892578 1.45495605-1.60595703 2.17938232-1.39770508 3.32037354.99121094 6.74450684 1.04345703 10.11669922.67822266 6.43322754-.73046875 12.8145752-.8869629 19.29962158-.52172852 4.3579712.20874023 8.71594238.20874023 13.07391358.26098633.62261963 0 .88201904.26074219 1.19329834.67822265 1.29699707 1.66967774 2.54211425 3.39135743 3.994812 4.95678711 2.23083497 2.45214844 4.56549073 4.85229493 7.00390626 7.14819336.72631836.67822266.77819824 1.30444336.77819824 2.08691407-.0604248 2.9465332.0022583 5.89257812.06524658 8.8515625.04510498 2.12158203.09039307 4.24829101.09039307 6.3840332zM13.38519287 7.72216798c-.25939941 3.80883789-.51879883 7.61767578-.83007812 11.42651367-.3112793 4.33081055-.05187989 8.97436524.25939941 13.35717774.1831665 3.0390625.18670654 5.9699707.19030762 8.93041992.00250244 2.0715332.00500488 4.1574707.0690918 6.30517578.15563964 4.53955078.10375976 9.02661133.15563964 13.56591797.05187989 4.53955078.6225586 9.60058593.67443848 14.08764648 0 1.14794922-.15563965 1.82617188-.25939941 3.23510742 2.74969482.2607422 4.87683105.62597657 7.57458496.7824707 4.9923706.2553711 9.9501953-.25268554 14.9017334-.7602539 1.12030029-.1147461 2.2402954-.22949219 3.36029052-.33544922 6.1737671-.57373047 12.34759522-.52172851 18.5213623-.2084961 3.37225342.2084961 6.74450684.36523438 9.80548096.52172852.36315918-.5739746.67443848-.88696289.88195801-1.30444336.10375977-.20874023.20751953-.41748046.25939942-.6262207.67443847-4.12182617.67443847-8.24389648.41503906-12.41796875-.25939942-4.22631836-.77819824-8.45263672-.88195801-12.67895508-.20751953-8.40039062-.15563965-16.80078125-.25939941-25.20117187v-3.44360352c-3.37225342-1.09570312-7.41894532-1.66967773-11.05059815-1.4609375-1.08947754.05200196-1.1932373-.0522461-1.14135742-1.14794922.10375977-2.921875.20751953-5.84375.3112793-8.8178711.03485107-.73657226.02288818-1.44970702.01123047-2.13916015-.00567627-.33618164-.01123047-.6665039-.01123047-.99145507-4.77301026-.20874024-9.2866211-.52172852-13.80023194-.6262207-3.26849365-.10424806-6.58886718-.10424806-9.85736084 0-2.28271484.10449218-4.56549072.41748046-6.8482666.6262207-4.25421142.46948242-8.45654297.5739746-12.45135498-.67822266zm54.99353027 13.7224121c-3.78729248-.46948241-7.31518554-.88696288-10.8949585-1.3564453 0-3.33935547 0-6.73095704.0518799-10.07006836.05187987 0 .15563964-.0522461.20751952-.0522461 3.112854 4.17407227 7.52270508 7.09594727 10.63555908 11.47875977z"/>
        <path fill="rgb(0,102,179)" fill-rule="evenodd" d="M71.75097656 63.39453125c-.67443847-8.60913086-1.29699707-17.16625977-.93383789-25.77539063V22.33154297c0-.78271485-.05187988-1.4086914-.77819824-2.0871582-2.43841553-2.2956543-4.7211914-4.69580079-7.00390625-7.14819336-1.45269775-1.56518555-2.69781494-3.28710938-3.99481201-4.95678711-.36315918-.46948243-.98577881-1.19995118-1.6083374-1.19995118-1.92590332-.02319335-3.78082276.06591797-5.62908936.15478516-2.3289795.1118164-4.63110352.22241211-7.02978516.10595703-6.4331665-.36523437-12.86639404-.2084961-19.29962158.52197266-3.37219238.41723633-6.79632568.31298828-10.11669922-.6784668-.72631836-.20874023-2.43841552-.31298828-2.38653564 1.04370117l.15563965.93896485c-.25939942 4.01782226-.51879883 8.03540039-.72631836 12.05297851l-.00476074.1147461c-.15405274 3.71728515-.30596924 7.38476562-.25463868 11.10302734.10375977 3.86108399.57067871 7.77441406.67443848 11.63549805.15563965 5.26977539.20751953 10.53955078.20751953 15.80957031.0158081 1.98486328.09887695 3.9699707.1819458 5.95483398.18981934 4.5378418.37963867 9.0744629-.23382568 13.61132813-.05187988.20874023.36315918.6262207.6225586.73046875 1.19329833.31298828 2.38653564.52172852 3.63165282.73046875 5.79382325.88427734 11.53601075.42016602 17.32952881-.0480957l.05053711-.0041504c4.51361084-.36523437 9.02722168-.88696289 13.54083252-.88696289 7.00390625 0 13.95593262.41748047 20.95977783.67822266 1.40081787.0522461 1.71209717-.2084961 2.02337647-1.61743164 1.08947754-5.2175293 1.03759765-10.38305664.6225586-15.49633789zm-1.86773681 14.4008789c.10375976-.20874023.20751953-.41748046.25939941-.6262207.67443848-4.12182617.67443848-8.24389648.46691895-12.36572265-.3112793-4.22631836-.77819825-8.45263672-.88195801-12.67895508-.20751953-8.40039063-.20751953-16.80078125-.25939942-25.20141602V23.4794922c-3.4241333-1.14770508-7.4708252-1.66967774-11.05059814-1.4609375-1.03759766.0522461-2.4383545-.15649414-2.38647461-1.19995117.10375977-2.9741211 1.45263672-5.84375 1.55639648-8.765625 0-1.09570313-.51879882-1.87841797-.51879882-2.86987305-4.77301026-.20874024-8.76782227-.73046875-13.28143311-.8869629-3.26849365-.10424804-6.58886719-.10424804-9.85736084 0-2.28271484.0522461-4.56549072.41748048-6.8482666.62622071-4.20233154.36523438-8.40466309.52172852-12.3994751-.78271484-.3112793 3.86108398-.57067871 7.61767578-.83007812 11.42675781-.3112793 4.3305664-.51879883 8.7133789-.25939942 13.04394531.3112793 5.21777344.57067871 10.38330078.72631836 15.54882813.15563965 4.53930664.10375977 9.02636718.15563965 13.56591797.05187988 4.53930664.15563965 9.02636718.20751953 13.56591796 0 1.19995118-.20751953 2.3479004-.36315918 3.7565918 2.69781494.31298828 5.39562988.67822266 8.0933838.8347168 5.10583495.21777344 10.1755371-.29077149 15.2392578-.79833985 1.00775147-.10107421 2.0152588-.20214843 3.02276612-.29736328 6.17376709-.57373046 12.34759521-.57373046 18.5213623-.20849609 3.37225342.2084961 6.74450684.36523438 9.80548096.52172852.36315918-.57397461.6225586-.93920899.881958-1.30444336zM58.72894287 10.48754884c.05187988 0 .15563965-.0522461.20751953-.0522461 3.112854 4.17407227 7.57458496 7.14819336 10.63555908 11.47875977-3.7354126-.46948242-7.31518554-.93920898-10.8949585-1.35644531.0518799-3.33935547.0518799-6.73095703.0518799-10.07006836z"/>
      </g>
      <path fill="rgb(0,102,179)" fill-rule="evenodd" d="M57.58754864 27.23617413h-35.9533074c-.31128404 0-.57068741-.2608829-.57068741-.57394237 0-.31305947.25940337-.57394237.57068742-.57394237h35.95330739c.31128404 0 .57068742.2608829.57068742.57394237 0 .31305947-.25940338.57394237-.57068742.57394237z"/>
      <path fill="rgb(0,102,179)" fill-rule="evenodd" d="M58.83268482 36.419252H22.87937743c-.31128404 0-.57068742-.2608829-.57068742-.57394237 0-.31305948.25940338-.57394237.57068742-.57394237H58.8845655c.31128405 0 .57068742.2608829.57068742.57394237 0 .31305947-.31128405.57394236-.6225681.57394236z"/>
      <path fill="rgb(0,102,179)" fill-rule="evenodd" d="M60.07782101 46.64586143H24.07263294c-.31128404 0-.57068741-.26088289-.57068741-.57394236s.25940337-.57394237.57068741-.57394237h36.00518807c.31128405 0 .57068742.2608829.57068742.57394237 0 .31305947-.25940337.57394236-.57068742.57394236z"/>
      <path fill="rgb(0,102,179)" fill-rule="evenodd" d="M60.07782101 55.5680564H24.07263294c-.31128404 0-.57068741-.26088289-.57068741-.57394236s.25940337-.57394237.57068741-.57394237h36.00518807c.31128405 0 .57068742.2608829.57068742.57394237 0 .31305947-.25940337.57394237-.57068742.57394237z"/>
      <path fill="rgb(0,102,179)" fill-rule="evenodd" d="M60.07782101 66.83819742H24.07263294c-.31128404 0-.57068741-.26088289-.57068741-.57394236s.25940337-.57394237.57068741-.57394237h36.00518807c.31128405 0 .57068742.2608829.57068742.57394237 0 .31305947-.25940337.57394236-.57068742.57394236z"/>
    </g>
  </g>
</svg>
