<svg xmlns="http://www.w3.org/2000/svg" width="120" height="120" viewBox="0 0 120 120">
  <g>
    <g>
      <g>
        <g>
          <path fill="rgb(27,102,173)" fill-rule="evenodd" d="M65.71104048 60.1839543l-38.10493754-5.17471436c-.35401547-.03214108-.57929804-.35355191-.54711481-.70710383l2.05972635-15.10630899 39.32790006 5.33541977-2.05972635 15.106309c-.03218323.3535519-.35401547.57853949-.67584771.5463984z"/>
          <path fill="rgb(27,102,173)" fill-rule="evenodd" d="M69.09027903 39.83864878l-39.32790006-5.33541977.77239738-5.62468952c.06436645-.385693.38619869-.61068057.74021416-.5785395l38.04057108 5.17471437c.35401547.06428216.61148127.385693.54711482.7392449l-.77239738 5.62468952z"/>
        </g>
        <g>
          <g>
            <path fill="rgb(255,255,255)" fill-rule="evenodd" d="M11.99723917 49.86666667c-.48274837 6.65320417-.19309935 13.3706905.8045806 19.9917536.1287329.9320914.32183225 1.8963239.99767996 2.53914555.54711481.51425733 1.28732897.70710383 1.9953599.86780924 11.90779298 2.76413314 24.45925045 2.73199205 36.36704343-.09642325.8045806-.1928465 1.67352766-.41783408 2.2528257-1.06065574.74021416-.77138599.8045806-1.96060606.83676383-3.0212618.19309934-6.71748633.2574658-13.43497267.22528257-20.12031793 0-.51425732-.03218323-1.02851465-.32183224-1.44634873-.3861987-.48211624-1.02986318-.61068058-1.64134444-.67496274-3.76543724-.44997516-7.53087448-.64282166-11.32849495-.83566816-9.20440214-.44997516-18.4409875-.9320914-27.64538964-1.38206657-.80458061-.03214108-1.7057109-.03214108-2.22064248.5785395-.9333135 1.15707898.45056514 3.24624938-.6758477 4.24262295"/>
            <path fill="rgb(27,102,173)" fill-rule="evenodd" d="M56.12042236 46.71704102c-.32183838-.80371094-1.06207275-.96435547-1.86663818-1.09301758-1.35168457-.19262696-2.70336914-.2890625-4.05505371-.41772461-5.02062988-.38574219-10.07336426-.57861328-15.0939331-.83569336-5.69647217-.28930664-11.36071778-.57861328-17.05712891-.83569336-.34332276-.0180664-.69171143-.04614258-1.04229737-.0744629-.89837646-.0727539-1.81134033-.14648437-2.690979-.05395507-.93328857.09643555-1.48040771.6105957-1.99536133 1.31762695-.48272705.67504883-.7723999.9963379-.90112305 1.80004883-.06433105.44995117-.12872314 1.15698242-.09655761 1.6069336.02246094.13452148.01361084.36279296.00616455.55395507-.00323486.08300782-.00616455.1591797-.00616455.2175293l-.12872315 2.08911133c-.3540039 5.07836914-.28961181 10.15649414.22528076 15.23486328.12872315 1.22143555.25750733 2.41064453.45056153 3.63183594.12872314.96435547.22528076 1.99291992.61151123 2.89282226.90112305 1.96069336 3.99072266 2.0571289 5.82513428 2.37841797 9.52624511 1.79980469 19.34216308 1.83203125 28.86834716.09643555 1.15863038-.1928711 2.31719971-.44995117 3.47583008-.70703125 1.0298462-.22509766 2.15625-.41796875 2.993042-1.09277344 1.319458-1.06079101 2.18841552-2.92504883 2.34936523-4.56420898.16888428-1.80688477.1749878-3.64990235.18103027-5.47509766.00201416-.60961914.00402832-1.21728516.01208496-1.82080078.03216553-2.50708008.06433106-5.04614258.06433106-7.55322266v-3.6640625c.00750732-.2553711.02734375-.53344726.04797363-.8227539.06762695-.94970703.14398193-2.0209961-.17669678-2.80908203zm-1.737854 24.74853515c.03216553-2.25.22528076-4.49975586.25744629-6.74975586.09655762-4.66040039.12872314-9.32080078.06439209-13.91699218l.00006103-.08203125c.00073243-1.06494141.00152588-2.11303711-1.19085693-2.48925782-.93328857-.28930664-2.05975342-.28930664-3.02520752-.38574218-2.25286865-.22485352-4.50567627-.35351563-6.79064941-.4819336-4.6987915-.25732422-9.36535645-.48217773-14.03192139-.70727539-4.69873047-.22485351-9.36529541-.48217773-14.06408691-.70703125-.67584229-.03222656-1.31945801-.09643555-1.99536133-.09643555-.2574463 0-.57928467.06420899-.86889649.09643555 0 .83569336-.03222656 2.82836914-.03222656 3.14990234l-.00415039.171875c-.1272583 5.27148438-.24707031 10.23413086.32598877 15.44848633.12872314 1.25366211.28967285 2.53930664.48278809 3.82495117.16088867 1.09277344.3540039 2.24975586 1.28729248 2.9248047.86895752.6105957 2.18847656.7392578 3.21832275.96411132 1.22296143.25732422 2.47808838.48217773 3.7010498.67504883 9.01135254 1.47851562 18.2479248 1.38208008 27.19482422-.28930664 1.15863037-.22485352 2.31719971-.4819336 3.47583008-.73925782.48272705-.09643554.99768067-.19287109 1.48040772-.38574218.06439209-.03198242.3540039-.12841797.5149536-.22485352zm.12872314-.06445312c0-.03198242.03216553-.06420899.0643921-.03198242-.03222657 0-.03222657.03198242-.0643921.03198242z"/>
          </g>
          <path fill="rgb(27,102,173)" fill-rule="evenodd" d="M12.06160562 57.86979632c7.85270672.80352708 15.76977989.67496275 23.62248661 1.02851466 5.14931588.22498758 10.330815.48211624 15.48013088.32141083.96549672-.03214109 2.18845925.03214108 3.12177275-.32141083 1.02986318-.41783408 1.57697799-2.02488823 1.83444378-2.98912072.09654968-.28926974.54711482-2.6355688-.38619869-2.2498758-.74021416.28926974-1.67352766.28926974-2.44592504.32141082-1.83444379.09642325-3.7010708.06428217-5.5676978.03214109-6.82284355-.09642325-13.6456871-.51425733-20.50071386-.67496274-4.40910173-.09642325-8.81820345-.22498759-13.19512195-.67496275-1.576978-.22498758-2.96085664 5.1104322-1.96317668 5.20685544z"/>
          <path fill="rgb(27,102,173)" fill-rule="evenodd" d="M17.37183762 68.02637854h2.99303986c.1287329 0 .2574658-.25712867.28964902-.32141083.16091612-.28926975.32183224-.5785395.41838191-.89995032.1287329-.32141083.2574658-.61068058.32183225-.93209141 0-.06428217.09654967-.44997516 0-.44997516H18.4017008c-.1287329 0-.2574658.25712866-.28964902.32141083-.16091612.28926975-.32183224.5785395-.41838192.89995032-.1287329.32141083-.25746579.61068058-.32183224.9320914 0 .06428217-.09654967.44997517 0 .44997517z"/>
        </g>
      </g>
      <g>
        <g>
          <path fill="rgb(255,255,255)" fill-rule="evenodd" d="M44.88849437 57.9019374c.45056514 10.34942872.90113028 20.69885743 1.35169542 31.01614506 22.23860797 1.3177844 44.47721595 2.37844014 66.71582392 3.11768505.96549672.03214108 1.9953599.03214108 2.76775728-.51425733.9333135-.67496274 1.15859608-1.96060606 1.3195122-3.11768504 1.1907793-8.96736215 1.28732897-18.99538003 1.28732897-29.31266766-24.94199881-2.6355688-47.66335515-2.15345256-72.6697204-3.43909588"/>
          <path fill="rgb(182,57,85)" fill-rule="evenodd" d="M44.01954732 58.19120715c.45056514 10.34942872.90113028 20.69885743 1.35169542 31.01614506.03218322.385693.19309934.64282166.61148126.64282166 14.28935157.86780924 28.61088638 1.57491306 42.93242118 2.21773472 7.14467578.32141083 14.3215348.5785395 21.46621059.83566816 2.67120761.09642325 5.72861392.51425733 6.98375966-2.4427223.48274837-1.1249379.54711481-2.37844014.70803094-3.5998013.19309934-1.63919523.35401546-3.31053154.48274836-4.94972677.61148126-7.68171883.64366449-15.42771982.64366449-23.14157973 0-.22498758-.09654968-.61068058-.41838192-.64282166-18.76281975-1.96060606-37.6543724-2.24987581-56.4815586-2.8284153-5.47114812-.16070542-10.94229625-.385693-16.38126115-.64282166-.90113028-.03214109-1.67352766 1.83204173-.51493159 1.8963239 18.6984533.96423248 37.42908983.9320914 56.12754313 2.08917038 5.47114813.32141083 10.91011303.771386 16.34907793 1.34992549-.1287329-.22498758-.2574658-.41783408-.41838192-.64282166 0 6.49249876-.03218322 13.0171386-.41838191 19.50963736-.16091612 2.98912071-.41838192 6.01038251-.77239738 8.96736214-.16091612 1.34992549-.16091612 2.98912072-1.80226056 3.18196722-1.60916122.1928465-3.37923855-.06428217-5.02058299-.09642325-13.3882213-.48211625-26.7764426-1.06065574-40.13248067-1.73561848-7.62742415-.385693-15.22266508-.80352708-22.85008923-1.25350224.19309935.22498758.41838192.44997516.61148126.64282166-.45056514-10.34942871-.90113028-20.69885743-1.35169542-31.01614506-.03218322-1.22136115-1.7378941-.28926974-1.70571088.64282166z"/>
        </g>
        <path fill="rgb(182,57,85)" fill-rule="evenodd" d="M81.67391972 65.0693989c-.35401547-.32141082-1.51261155-.1928465-1.93099346-.12856433-1.09422963.16070542-2.22064248.28926975-3.3148721.44997517l-1.54479477.1928465c-.28964901.03214108-.57929803.06428216-.86894705.12856433.22528257-.03214109.2574658-.16070542.03218322-.385693-.06436645-.41783408-1.54479476-.32141083-1.77007733-.32141083-2.70339084.22498758-5.53551458.70710383-8.23890542.35355191-2.60684116-.35355191-5.1814991-1.1249379-7.75615704-1.73561848-.57929804-.12856433-1.41606187-.22498758-1.99535991 0-.41838192.16070542-.54711481.32141083 0 .44997516 3.02522308.73924491 6.08262939 1.63919524 9.17221892 1.96060607 2.63902439.25712866 5.310232 0 7.98143962-.25712867.64366448.771386 2.3815586.67496274 3.1861392.61068058 2.18845925-.16070542 4.34473528-.5785395 6.53319453-.86780924.32183224-.06428217.86894705-.12856433.51493159-.44997516z"/>
        <path fill="rgb(182,57,85)" fill-rule="evenodd" d="M81.6417365 73.3939394c-.35401548-.32141084-1.51261155-.1928465-1.93099347-.12856434-1.09422962.16070542-2.22064247.28926975-3.3148721.44997516l-1.54479476.1928465c-.28964902.03214108-.57929804.06428217-.86894706.12856433.22528257-.03214108.2574658-.16070541.03218323-.385693-.06436645-.41783407-1.54479477-.32141082-1.77007734-.32141082-2.70339084.22498758-5.53551457.70710382-8.23890541.35355191-2.60684117-.35355191-5.1814991-1.1249379-7.75615705-1.73561848-.57929804-.12856433-1.41606187-.22498758-1.9953599 0-.41838192.16070541-.54711482.32141083 0 .44997516 3.02522308.7392449 6.08262938 1.63919523 9.17221891 1.96060606 2.6390244.25712867 5.310232 0 7.98143962-.25712866.64366449.77138599 2.3815586.67496274 3.1861392.61068057 2.18845926-.16070541 4.34473528-.57853949 6.53319453-.86780924.35401547-.06428216.90113028-.12856433.5149316-.44997516z"/>
        <path fill="rgb(182,57,85)" fill-rule="evenodd" d="M81.60955327 81.71847988c-.35401547-.32141083-1.51261154-.1928465-1.93099346-.12856433-1.09422962.16070541-2.22064247.28926974-3.3148721.44997516l-1.54479476.1928465c-.28964902.03214108-.57929804.06428216-.86894706.12856433.22528257-.03214108.2574658-.16070542.03218322-.385693-.06436644-.41783407-1.54479476-.32141083-1.77007733-.32141083-2.70339084.22498758-5.53551458.70710383-8.23890541.35355192-2.60684117-.35355192-5.18149911-1.1249379-7.75615705-1.73561848-.57929804-.12856434-1.41606187-.22498758-1.9953599 0-.41838192.16070541-.54711482.32141083 0 .44997516 3.02522307.7392449 6.08262938 1.63919523 9.1722189 1.96060606 2.6390244.25712866 5.31023201 0 7.98143963-.25712866.64366448.77138599 2.3815586.67496274 3.1861392.61068057 2.18845925-.16070541 4.34473528-.5785395 6.53319453-.86780924.35401547-.06428216.90113028-.12856433.51493159-.44997516z"/>
        <path fill="rgb(182,57,85)" fill-rule="evenodd" d="M112.73073114 84.64331843c-1.15859608-1.57491307-2.99303986-1.86418281-4.79530042-2.2820169-.48274836-.09642324-1.0620464-.3535519-1.54479476-.3535519-.48274837 0-.86894706.12856433-1.35169542.03214108-.83676384-.1928465-1.51261154-.7392449-1.89881024-1.47848982-.22528257-.44997516-.86894705-.44997516-1.1907793-.12856433-1.09422962 1.15707899-2.57465794 2.79627422-4.34473527 2.6355688-.57929804-.03214108-1.12641285-.41783407-1.48042832-.86780924-.19309934-.22498758-.64366448-.89995032-.35401546-1.18922007.35401546-.3535519.61148126-.96423248.32183224-1.44634873-.2574658-.41783408-.83676383-.44997516-1.1907793-.12856433-1.64134444 1.67133631-.9333135 4.30690512 1.12641285 5.33541977 2.18845925 1.09279682 4.47346817-.5785395 6.08262939-2.12131147.86894705 1.02851465 2.15627602 1.5106309 3.5723379 1.44634873 1.02986317-.06428217 2.18845924.35355191 3.1861392.61068058.83676383.22498758 1.80226055.51425732 2.31719214 1.22136115.8045806 1.02851465 2.18845925-.44997516 1.54479477-1.28564332z"/>
        <path fill="rgb(182,57,85)" fill-rule="evenodd" d="M105.74697147 64.00874317c-2.73557406-.16070542-4.82748364 2.28201689-5.310232 4.78902136-.5149316 2.73199205.9333135 5.2711376 3.443605 6.3960755 1.35169541.61068059 2.83212373.771386 4.28036882.44997517.8045806-.1928465.99767995-2.28201689.06436645-2.0570293-2.41374182.5463984-5.53551458-.5785395-6.40446163-3.05340289-.3861987-1.06065574-.16091612-2.05702931.51493159-2.95697963.6758477-.9320914 1.80226056-1.57491307 2.99303985-1.5106309.48274837.03214108.74021416-.48211625.83676384-.89995032.06436644-.28926975.06436644-1.1249379-.41838192-1.157079z"/>
        <path fill="rgb(182,57,85)" fill-rule="evenodd" d="M98.82757825 69.89056135c2.47810827.28926975 4.95621654.12856433 7.36995836-.51425733.22528257-.06428216.74021416-.32141083.35401547-.5463984-.41838192-.22498759-1.02986318-.12856434-1.4482451-.03214109-.86894705.22498758-1.7378941.35355191-2.60684116.41783408-.83676383.06428216-1.73789411.03214108-2.6390244-.06428217-.45056513-.06428216-1.0620464-.03214108-1.41606186.25712867-.3861987.25712866.16091612.44997516.3861987.48211624z"/>
        <path fill="rgb(182,57,85)" fill-rule="evenodd" d="M97.9586312 72.91182315c3.0574063.51425733 6.1148126-.32141083 8.72165377-1.96060606.35401547-.22498758.86894706-.67496274.90113028-1.1249379.06436645-.44997517-.45056514-.25712867-.64366448-.12856434-2.28500893 1.47848982-4.98839976 2.0891704-7.6917906 1.63919523-.41838192-.06428216-.90113028.44997517-1.12641285.73924491-.09654968.09642325-.54711481.771386-.16091612.83566816z"/>
      </g>
    </g>
    <rect width="120" height="120" x="0" y="0" fill="none"/>
  </g>
</svg>
