<svg xmlns="http://www.w3.org/2000/svg" xmlns:xlink="http://www.w3.org/1999/xlink" width="110.8" height="82" viewBox="0 0 110.8 82">
  <defs>
    <rect id="rect-1" width="110.8" height="82" x="0" y="0"/>
    <mask id="mask-2" maskContentUnits="userSpaceOnUse" maskUnits="userSpaceOnUse">
      <rect width="110.8" height="82" x="0" y="0" fill="black"/>
      <use fill="white" xlink:href="#rect-1"/>
    </mask>
  </defs>
  <g>
    <use fill="none" xlink:href="#rect-1"/>
    <g mask="url(#mask-2)">
      <g>
        <path fill="rgb(29,102,174)" fill-rule="evenodd" d="M99.91785714 77.78918919H10.88214286c-3.62738096 0-6.70515873-2.9918919-6.70515873-6.75945946V6.75945946C4.17698413 2.99189189 7.2547619 0 10.88214286 0h89.03571428c3.62738096 0 6.70515873 2.9918919 6.70515873 6.75945946v64.27027027c0 3.65675676-3.07777777 6.75945946-6.70515873 6.75945946z"/>
        <path fill="rgb(255,255,255)" fill-rule="evenodd" d="M93.32261905 70.91891892H16.26825397c-3.62738095 0-6.70515873-2.9918919-6.70515873-6.75945946V12.4108108c0-3.65675676 2.96785714-6.75945946 6.70515873-6.75945946h77.05436508c3.62738095 0 6.70515873 2.9918919 6.70515873 6.75945946v51.74864865c0 3.76756757-2.96785715 6.75945946-6.70515873 6.75945946z"/>
        <path fill="rgb(182,57,85)" fill-rule="evenodd" d="M4.3968254 69.25675676h102.0063492c2.41825397 0 4.3968254 1.9945946 4.3968254 4.43243243v3.87837838C110.8 80.0054054 108.82142857 82 106.4031746 82H4.3968254C1.97857143 82 0 80.0054054 0 77.56756757v-3.87837838c0-2.43783784 1.97857143-4.43243243 4.3968254-4.43243243z"/>
        <path fill="rgb(29,102,174)" fill-rule="evenodd" d="M18.2468254 53.96486486h14.61944444c.76944445 0 1.64880953-.22162162 2.1984127-.77567567.43968254-.44324324.43968254-.77567568-.3297619-.77567568H20.11547618c-.76944444 0-1.64880952.22162163-2.1984127.77567568-.43968254.33243243-.3297619.77567567.3297619.77567567z"/>
        <path fill="rgb(29,102,174)" fill-rule="evenodd" d="M18.02698413 48.53513514h14.61944444c.65952381 0 1.53888889-.55405406 1.97857143-.9972973.21984127-.22162162.87936508-.77567568.21984127-.77567568H20.22539683c-.65952381 0-1.5388889.55405406-1.97857143.9972973-.21984127.11081081-.87936508.77567568-.21984127.77567568z"/>
        <path fill="rgb(29,102,174)" fill-rule="evenodd" d="M51.44285714 49.2h38.36230159c1.97857143 0 2.08849206-3.21351351 0-3.21351351H51.44285714c-1.97857143 0-2.08849206 3.21351351 0 3.21351351z"/>
        <path fill="rgb(182,57,85)" fill-rule="evenodd" d="M18.68650794 60.28108108c5.27619047-.66486486 10.55238095-.9972973 15.93849206-.9972973.87936508 0 .87936508-3.32432432-.10992063-3.32432432-5.27619048-.11081081-10.6623016.22162162-15.93849207.9972973-.87936508.1108108-.6595238 3.43513513.10992064 3.32432432z"/>
        <path fill="rgb(182,57,85)" fill-rule="evenodd" d="M18.35674603 20.5c0 5.98378378-.10992063 12.07837838-.54960317 18.06216216 5.16626984.44324325 10.33253968.22162162 15.38888889-.55405405-.21984127-5.65135135-.3297619-9.41891892-.3297619-17.28648649-4.83650795-1.1081081-8.35396826-1.32972973-13.30039683-1.1081081"/>
        <path fill="rgb(29,102,174)" fill-rule="evenodd" d="M49.79404762 52.96756757c13.19047619.66486486 26.38095238.9972973 39.57142857.88648648.3297619 0 1.97857143 0 1.97857143-.33243243.10992063-.44324324-.87936508-.33243243-1.20912699-.33243243-12.97063492 0-25.94126984-.22162162-38.80198412-.88648649-.54960318 0-1.75873016-.1108108-2.1984127.22162162-.3297619.44324325.3297619.44324325.6595238.44324325z"/>
        <path fill="rgb(29,102,174)" fill-rule="evenodd" d="M49.79404762 58.17567568c13.08055555.66486486 26.16111111.9972973 39.24166667.88648648.87936508 0 2.1984127-2.77027027 1.64880952-2.77027027-13.08055556 0-26.16111111-.22162162-39.24166667-.88648648-.76944444 0-2.1984127 2.77027027-1.64880952 2.77027027z"/>
        <path fill="rgb(29,102,174)" fill-rule="evenodd" d="M50.56349206 62.16486486c13.08055556.66486487 26.16111111.9972973 39.24166667.8864865.65952381 0 1.64880952-.11081082 1.75873016-.8864865.10992063-.77567567-.98928572-1.21891891-1.53888889-1.21891891-13.08055556 0-26.16111111-.22162163-39.24166667-.8864865-.6595238 0-1.64880952.11081082-1.75873016.8864865-.10992063.77567567.98928572 1.21891891 1.5388889 1.21891891z"/>
        <path fill="rgb(182,57,85)" fill-rule="evenodd" d="M49.79404762 39.44864865c12.64087301.33243243 25.39166667.33243243 38.03253968.1108108.76944445 0 1.53888889-.77567567 1.42896826-1.55135134-.10992064-.88648649-.98928572-1.21891892-1.75873016-1.21891892-12.42103175.22162162-24.8420635.11081081-37.1531746-.11081081-.76944445 0-1.75873017.33243243-1.8686508 1.21891892-.10992063.77567567.54960317 1.55135135 1.31904762 1.55135135z"/>
      </g>
      <g>
        <path fill="rgb(29,102,174)" fill-rule="evenodd" d="M50.23373016 22.38378378c0-1.44054054 1.09920635-2.32702702 2.74801587-2.32702702.76944445 0 1.42896826.22162162 2.08849207.55405405.3297619.22162162.43968253.33243243.43968253.55405405 0 .22162163-.21984126.55405406-.43968253.55405406-.10992064 0-.21984127-.11081081-.43968254-.22162162-.43968254-.33243244-.98928572-.44324325-1.5388889-.44324325-.9892857 0-1.64880952.55405406-1.64880952 1.21891892 0 1.88378379 4.28690476 1.44054054 4.28690476 4.21081081 0 1.55135136-1.31904761 2.43783784-2.96785714 2.43783784-.87936508 0-1.64880952-.22162162-2.1984127-.66486486-.3297619-.22162162-.43968254-.33243244-.43968254-.55405406 0-.22162162.21984127-.55405405.43968254-.55405405.10992064 0 .21984127.1108108.54960318.33243243.43968254.33243243.98928571.55405406 1.64880952.55405406.98928572 0 1.75873016-.55405406 1.75873016-1.44054055 0-1.99459459-4.28690476-1.55135135-4.28690476-4.2108108z"/>
        <path fill="rgb(29,102,174)" fill-rule="evenodd" d="M60.67619048 28.25675676c0 .1108108-.10992064.33243243-.21984127.44324324-.3297619.22162162-.76944445.33243243-1.20912699.33243243-.76944444 0-1.31904762-.33243243-1.53888889-.77567567-.21984127-.44324325-.21984127-.9972973-.21984127-1.55135135v-2.65945946h-.76944444c-.3297619 0-.43968254-.11081081-.43968254-.44324325 0-.33243243.10992063-.44324324.43968254-.44324324h.76944444v-1.44054054c0-.33243243.21984127-.44324324.54960318-.44324324.3297619 0 .54960317.1108108.54960317.44324324v1.44054054h1.5388889c.3297619 0 .43968253.11081081.43968253.44324324 0 .33243244-.10992063.44324325-.43968254.44324325h-1.53888889v2.54864864c0 .33243244 0 .77567568.10992064.9972973.10992063.22162162.3297619.33243243.6595238.33243243.21984128 0 .43968255 0 .54960318-.1108108.10992064 0 .21984127-.11081082.3297619-.11081082.32976191.11081081.43968255.44324325.43968255.55405406z"/>
        <path fill="rgb(29,102,174)" fill-rule="evenodd" d="M65.84246032 28.47837838v-.44324324c-.3297619.55405405-.98928572.88648648-1.8686508.88648648-.76944444 0-1.31904762-.22162162-1.64880952-.77567567-.21984127-.33243244-.3297619-.8864865-.3297619-1.55135136v-3.2135135c0-.33243244.21984127-.44324325.54960317-.44324325.3297619 0 .54960317.1108108.54960317.44324324v3.1027027c0 .44324325 0 .77567568.21984127 1.10810811.21984127.33243243.54960318.44324325.98928572.44324325.54960317 0 1.09920635-.22162163 1.42896825-.77567568v-3.87837838c0-.33243243.21984127-.44324324.54960318-.44324324.3297619 0 .54960317.1108108.54960317.44324324v5.0972973c0 .33243243-.21984127.44324324-.54960317.44324324-.3297619 0-.43968254-.22162162-.43968254-.44324324z"/>
        <path fill="rgb(29,102,174)" fill-rule="evenodd" d="M72.54761905 23.27027027c-.32974849-.22183805-.76942432-.33248654-1.3190275-.33248654-1.75873686 0-2.85794321 1.2187566-2.96787056 2.99183779 0 1.88372967 1.09920635 2.99183778 2.63808853 2.99183778q.98931255 0 1.64880953-.66470254v.332216c0 .22183805.21985469.33248654.54960317.33248654.32978203 0 .54960318-.11064849.54960318-.44313503v-8.20016232c0-.332216-.21982115-.44313503-.54960318-.44313503-.32974848 0-.54960317.11091903-.54960317.44313503v2.99210832zm-3.07776436 2.65935125c0-1.32967563.76945786-2.1052972 1.86866421-2.1052972.43967583 0 .87935166.11091903 1.20910015.33248654v3.32432433c-.43967583.33248654-.87935166.55405405-1.3190275.55405405-1.09920634 0-1.75873686-.77562157-1.75873686-2.10556772z"/>
        <path fill="rgb(29,102,174)" fill-rule="evenodd" d="M79.91228146 28.47832427c.21985469-.22156751.32978203-.33248654.32978203-.55405405 0-.22156752-.21985469-.44313503-.54960317-.33248654-.10992735 0-.21985469.11091902-.43967583.22156751-.32978204.22183805-.76945787.33248654-1.2091337.33248654-1.09920635 0-1.64880952-.66470254-1.75873686-1.77281065h3.40754639c.43967583 0 .65953052-.11091902.65953052-.7758921 0-1.55124314-.98931255-2.65935125-2.52819473-2.65935125-1.64880953 0-2.63808853 1.21902713-2.63808853 3.10275681 0 1.88372968 1.09920635 2.99183779 2.85794321 2.99183779.76942432 0 1.42895484-.22156752 1.86863067-.55405406zm-.65949697-3.1027568h-2.96787056c.10992734-.9971891.65953051-1.66216217 1.53888218-1.66216217.8793852 0 1.42898838.66497308 1.42898838 1.66216216z"/>
        <path fill="rgb(29,102,174)" fill-rule="evenodd" d="M82.88015873 28.47837838c0 .33243243-.21984127.44324324-.54960317.44324324-.3297619 0-.54960318-.1108108-.54960318-.44324324v-8.2c0-.33243243.21984127-.44324324.54960318-.44324324.3297619 0 .54960317.1108108.54960317.44324324v8.2z"/>
        <path fill="rgb(29,102,174)" fill-rule="evenodd" d="M89.6952381 23.27027027c0 .11081081 0 .44324324-.10992064.77567568-.54960317 2.21621621-1.97857143 5.31891891-3.51746032 6.98108108-.3297619.33243243-.43968254.44324324-.6595238.44324324-.32976191 0-.54960318-.22162162-.54960318-.55405405 0-.22162163.10992063-.33243244.3297619-.55405406.65952381-.55405405 1.09920635-1.32972973 1.31904762-1.66216216l-2.1984127-5.0972973c-.10992063-.1108108-.10992063-.22162162-.10992063-.33243243 0-.22162162.10992063-.33243243.54960317-.33243243s.54960318.1108108.65952381.44324324l1.64880953 4.21081081c.54960317-1.1081081 1.31904762-3.1027027 1.53888889-4.2108108.10992063-.33243244.10992063-.55405406.6595238-.55405406.32976191.1108108.43968255.22162162.43968255.44324324z"/>
      </g>
    </g>
  </g>
</svg>
