<svg xmlns="http://www.w3.org/2000/svg" viewBox="0 0 307.17 233.58"><defs><style>.cls-1{fill:#1d66af;}.cls-2{fill:#fff;}.cls-3{fill:#b73955;}</style></defs><title>habitation</title><g id="Calque_2" data-name="Calque 2"><g id="Calque_1-2" data-name="Calque 1"><path class="cls-1" d="M123.88,182.61c37.54,1.19,81.81-1.89,119.13-6l-6.29-64.42c-.27-2.78-.57-5.66-2-8.09a20.83,20.83,0,0,0-5.32-5.27c-21.13-16.56-38-34.95-58.76-54.73-17.73,22.76-32.81,43.47-50.54,66.23a19.92,19.92,0,0,0-3.69,6.15c-.75,2.48-.45,5.13-.15,7.71l6,50.83a31,31,0,0,0,1.44,7.22"/><path class="cls-1" d="M119.07,111.4l-32.4-3.19-.25,11.41c27-38.79,60.77-72.23,91.41-108.07l-5.21,1.78c31,34.09,64.1,66.21,96.05,99.43l4.39-13.27c-10.46-.51-20.68,2.48-31.15,2-4.87-.24-8.56,13.62-2.43,13.91,10.46.52,20.68-2.48,31.15-2,4.66.23,7.09-10.45,4.39-13.26C243.08,66.93,210,34.8,179,.71c-1.76-1.92-4.12.52-5.21,1.79-30.65,35.84-64.37,69.27-91.4,108.07-1.14,1.63-4.7,11-.25,11.4l32.39,3.19c5.61.55,9.37-13.28,4.56-13.76Z"/><path class="cls-2" d="M172.78,180c-2.42,11.65.87-25.49,0-35.05-1.15-12.73-3.91-20.32,6.77-28.06,3.06-2.22,7.1-3.51,10.81-2.54,7.39,2,9.4,10.88,10.06,18.16l4.22,46.74"/><path class="cls-2" d="M4.24,151.29c26.37-5.9,52.9-11.85,77.79-22.36,7.37-3.12,14.87-6.69,22.87-6.74,12.95-.1,23.9,8.82,34.95,15.57A117.55,117.55,0,0,0,185,153.83c8.76,1.2,20.11,3.6,21.13,12.38.66,5.74-4.33,10.91-9.89,12.51s-11.48.52-17.16-.57l-74.77-14.27c22.26-2.49,68,10.31,89.32,17.18,23.36,7.54,36.73.78,54.14-10.82,21.65-14.44,29.61-18.4,39.7-21.66,8.4-2.71,10.19-1.47,14.44,7.22,5.74,11.73-11.55,13-28.88,39.7-3.55,5.48-21.68,19.12-28.87,25.27-2.15,1.83-69,8.37-79.4,7.21"/><path class="cls-3" d="M1,154.72c21.42-4.79,42.9-9.6,63.63-16.9,10.17-3.58,20.15-9.31,30.73-11.48,10.11-2.08,19.4,1.85,27.92,7s16.68,10.83,25.88,14.91A119.24,119.24,0,0,0,178,156.89c7.15,1.18,16.77,1.51,21.76,7.62,2,2.4,3.4,7.63,1.26,10.21-1.34,1.6-5.94,1.29-7.86,1.25a54.68,54.68,0,0,1-8.64-1.06c-25.48-4.63-50.89-9.71-76.33-14.57l-7.71,7.07c13.88-1.41,28.29,1.51,41.81,4.39,14.57,3.1,29,7,43.19,11.43,7.87,2.45,15.69,4.8,24,4.53a51.68,51.68,0,0,0,20-5.11c14.6-6.78,27-17.48,41.23-25a83.53,83.53,0,0,1,12.81-5.45c2.38-.78,5.41-2,7.93-1.16s4.14,4.08,5.33,6.37c2,3.79,2.85,7.12-.32,10.43-4.2,4.39-9.16,8.06-13.43,12.41a108.86,108.86,0,0,0-7.73,8.75c-2.53,3.17-4.52,6.84-7.22,9.85-4.36,4.86-10,8.85-15,12.93-2.5,2-5,4-7.49,6.06a10.33,10.33,0,0,0-1.34,1.12c-1.29,1.5,1.81-1.67,2.67-1.45-.28-.07-.94.26-1.24.31-3.29.57-6.57,1.06-9.89,1.48-12.64,1.6-25.35,2.8-38.05,3.82-9.49.76-19.61,2.24-29.14,1.29-1.92-.19-4.48,2.28-5.75,3.47-.37.33-3.45,3.45-2,3.6,8.76.87,18-.43,26.76-1.1,12.35-1,24.69-2.13,37-3.59,7.21-.85,15-.83,20.9-5.56,5.7-4.61,11.43-9.2,17.05-13.91,4.85-4.08,10-8.22,13.82-13.32,5.55-7.37,10.73-14.31,17.65-20.48,4.07-3.62,8.94-7.15,11.74-11.93,2.4-4.08,1.28-7.54-.85-11.5-3.18-5.94-6.69-7.22-13.11-5.34-11.55,3.38-22,9.56-32.11,16-15.09,9.6-29.42,21.47-48.39,19.74-8.83-.8-17.19-4.1-25.64-6.6-8.65-2.55-17.37-4.91-26.15-7-16.45-3.93-34.38-8.29-51.41-6.56-2,.2-9.26,6.78-7.71,7.07,25.44,4.86,50.84,10,76.33,14.57,10.71,1.94,19.7.76,27.79-7,5.82-5.56,8.75-14.27,1-19.64-7.43-5.12-17.68-4.88-26.17-6.77a115.9,115.9,0,0,1-33.91-13.4c-8.83-5.22-17.08-11.86-27-15-10.62-3.35-20.47-.12-30.32,4-26,11-53.21,17.47-80.66,23.61-2.25.5-4.57,2.63-6.07,4.28-.59.64-2.61,3.08-.41,2.59Z"/><path class="cls-3" d="M15.74,204.42c36.52,7.36,72.61,16.76,109.21,23.82,8.4,1.62,16.81,3.19,25.29,4.33,4.81.65,10,1.52,14.86.63,20.37-3.77,40.8-8.62,60.79-14,11.07-3,21.05-6.22,30.43-13,15.53-11.21,28.32-25.82,44.74-35.84,3.79-2.31,3.21-12.89-1.74-9.87-14.38,8.78-26,20.91-39,31.46-4.92,4-10.19,8.19-16,10.79a90.84,90.84,0,0,1-11.38,3.89c-20.82,6.17-42.2,10.45-63.41,15a34.17,34.17,0,0,1-13.39.76c-7.86-.87-15.66-2.28-23.43-3.73-21.3-4-42.46-8.63-63.6-13.37C52,201.49,35,197.25,17.82,193.8c-4.73-1-6.84,9.67-2.08,10.62Z"/></g></g></svg>