<svg xmlns="http://www.w3.org/2000/svg" viewBox="0 0 312.3 304.42"><defs><style>.cls-1{fill:#b73955;}.cls-2{fill:#1d66af;}</style></defs><title>santé</title><g id="Calque_2" data-name="Calque 2"><g id="Calque_1-2" data-name="Calque 1"><path class="cls-1" d="M311.89,218.87c-24.14-5.4-48.42-10.83-71.53-19.83-10.67-4.15-21.51-10.58-33.37-9-10,1.34-18.72,7-27,12.34-10.14,6.54-20.59,12-32.2,15.4-9.72,2.87-20.29,3-29.72,6.63-6.48,2.51-15.39,8.28-16.22,15.91-1.11,10.28,10.7,14.31,18.85,13.76,6.6-.45,13.2-2.14,19.68-3.38l20.87-4,43.47-8.3c2-.38,4.24-2.44,5.6-3.82.34-.34,2.91-3,1.49-3.15-14.7-1.5-30,1.78-44.35,4.9-15.11,3.3-30,7.46-44.77,12.12-8.67,2.75-17.55,4.3-26.59,2.58-8.26-1.57-15.69-5.61-22.73-10.06-12.54-7.93-24.61-17-38.48-22.59-4.33-1.74-10-4.54-14.73-3.18-6.45,1.87-11.2,8.3-13.86,14.11C1.67,239.47,13.72,245.76,20,251.78a103.48,103.48,0,0,1,8.24,8.89c2.9,3.54,5.17,7.59,8.15,11.05,4.45,5.18,10.19,9.44,15.47,13.73,2.9,2.36,5.82,4.68,8.71,7,1.34,1.09,2.59,2.47,4.19,3.14,2.47,1,5.7,1.09,8.31,1.45,13,1.77,26,3,39.08,4.07,10.26.85,21.24,2.52,31.54,1.49,2.14-.22,4.25-2.07,5.76-3.47.29-.27,3.35-3.74,2-3.6-8.15.81-16.76-.35-24.89-1q-17.6-1.32-35.14-3.29c-4.43-.5-8.87-1-13.28-1.68-2.25-.34-4.61-.53-6.31-1.64-5.36-3.49-10.29-8.3-15.22-12.38C52,271.85,47,268,43.46,263.23c-5.16-7.12-10.27-13.83-16.74-19.83-3.82-3.54-8.71-6.76-11.67-11.13a7.41,7.41,0,0,1-1.5-4.72c.19-3,2.79-5,3.36-7.63l.27-.39q-5.91,3.16-2.76,2.44A10,10,0,0,0,16,222a20.28,20.28,0,0,1,4.42,1q3.52,1.08,7,2.48c26.6,10.88,47.85,38.15,79.05,32.4,8-1.48,15.71-4.47,23.49-6.73,8.4-2.43,16.86-4.68,25.37-6.67,15.69-3.67,32.66-7.65,48.88-6l7.09-7-67.81,12.95c-9.53,1.82-23,6.1-30.41-2.76a11.29,11.29,0,0,1-2.31-4.23c-.75-2.82.61-4.07.84-6.5-.14,1.48-1.89.76-.12.38,1.15-.24,2.35-.9,3.5-1.23a53.77,53.77,0,0,1,5.76-1.27c9.94-1.7,19.57-3.47,29-7.06a140.78,140.78,0,0,0,26.2-13.49c8.2-5.28,16.77-11.32,26.9-11.5,10.56-.19,20.27,5.54,29.84,9.26,23.12,9,47.39,14.43,71.54,19.83,1.74.39,4.62-2.41,5.76-3.47.43-.4,3.44-3.27,1.95-3.6Z"/><path class="cls-1" d="M295.57,264.92c-35.93,7.24-71.44,16.46-107.43,23.47-8.68,1.69-17.38,3.33-26.13,4.55-4.75.66-9.5,1.53-13.66.8-20.11-3.53-40.31-8.53-60-13.82-10.84-2.9-20.38-5.86-29.56-12.5C43.24,256.19,30.46,241.61,14,231.58c-4.48-2.73-7.78,7.49-3.87,9.88,14.71,9,26.49,21.55,39.92,32.18a78.27,78.27,0,0,0,27.47,14.45c21.09,6.34,42.78,10.64,64.28,15.3,12.42,2.69,25.17-.47,37.49-2.74,21.4-3.94,42.67-8.64,63.91-13.39,17.4-3.89,34.73-8.21,52.21-11.73,4.48-.9,5.26-11.64.14-10.61Z"/><path class="cls-1" d="M53.19,80.31l-9.92,9,1.93,4.95C46.76,90,59.07,68.45,64.56,76.86c1.27,2,1.51,5.13,2,7.35L68.51,92l4,16.45c.39,1.58,1.86,1.27,2.75.23l14.89-17.6-1.92-5C86.81,90,86,95.25,91.14,96.62c4.65,1.24,8.07-3.77,9.78-7.32,2.72-5.65,3.55-12.25,4.93-18.32L110.9,48.8l-5.32,6.39c12.16,26-1.24,56,8.8,82.61.78,2.08,2.55.73,3.47-.65a77.44,77.44,0,0,0,12.83-33.71c.45-3.75-.61-12.14,3.22-14.19,2.42-1.3,9.35-1.18,9.55,2.74.11,2.07,1.2,2.65,2.82,1.18l8.27-7.51-2.48.47c3,3.05,6.64,6.51,11.16,6.83,5.48.38,8.12-4.27,11.8-7.4,7.74-6.6,19.15-7.26,28-2.83,2.61,1.3,7.06-8.56,4.18-10a28.84,28.84,0,0,0-25.17-.08c-4.2,2-7.08,4.93-10.33,8.12-4.93,4.83-10.83-.06-14.6-3.84-.88-.88-1.7-.23-2.48.48l-8.27,7.51,2.82,1.17c-.25-5-3.53-7.8-8.55-7.71-5.56.11-9.21,4.27-11.57,8.92-3.18,6.25-3.2,13-4,19.74a53,53,0,0,1-8.61,23.61L120,130c-10.21-27.12,3.18-57.29-9.32-84-1.44-3.07-5.15,5.68-5.32,6.4L100.5,73.73c-.78,3.4-1.5,6.82-2.33,10.21-.38,1.55-.4,2.54-2.18,2.7-2.63.24-2.25-2.94-3.77,1.15.56-1.51,1.27-8.72-1.92-5l-14.9,17.6,2.74.22-5.49-22.5C71.53,73.56,70.94,63.82,64,65c-5.28.92-10.11,6.79-13.28,10.68a58.67,58.67,0,0,0-9.53,16.88c-.67,1.8-1.65,8.19,1.93,5l9.92-9c1.65-1.5,3.18-4.81,2.95-7.07-.22-2-1.15-2.69-2.82-1.17Z"/><path class="cls-2" d="M139.77,183.47a496.85,496.85,0,0,0,51.9-49.34c15.41-17,31.53-35.12,42.22-55.53,9.84-18.78,13.34-43-1.3-60.37C217.67.52,192.08-1.63,170.64.85a115.69,115.69,0,0,0-38.92,11.34c-9,4.62-18.25,11.66-18.88,22.6l21.61-1.38A74.8,74.8,0,0,0,80.92.81C58.28-1.75,33.09,2.93,16.27,19.29c-38.15,37.1-.94,89.05,27.25,119a274.5,274.5,0,0,0,63,49.68c3.63,2.08,9.45,1.27,13.4.77.82-.1,9.58-2.07,7.36-3.35A274.9,274.9,0,0,1,76.11,147.5C60.41,132.76,45.6,116,34.64,97.42,24.12,79.55,17,57.51,24.91,37.24,30.9,22,46.56,7.47,63,5.12a18.81,18.81,0,0,1,3,0,42.49,42.49,0,0,1,6.81,1.15,62.31,62.31,0,0,1,15.35,6.06,72,72,0,0,1,24.65,22.46c2.06,3,21.38,2.57,21.61-1.38.53-9,7.38-15.34,14.92-19.46a77.57,77.57,0,0,1,26.48-8.89c16.53-2.1,34.84,9.65,41.4,24.54,8.14,18.51,1.87,39.51-8.13,55.9-10.71,17.55-24.58,33.56-38.37,48.73a495.86,495.86,0,0,1-51.9,49.34c-2.28,1.88,7.27,2.38,7.73,2.38,3.78,0,10,.12,13.19-2.48Z"/></g></g></svg>