<svg xmlns="http://www.w3.org/2000/svg" xmlns:xlink="http://www.w3.org/1999/xlink" width="71.7" height="74.3" viewBox="0 0 71.7 74.3">
  <defs>
    <rect id="rect-1" width="71.7" height="74.3" x="0" y="0"/>
    <mask id="mask-2" maskContentUnits="userSpaceOnUse" maskUnits="userSpaceOnUse">
      <rect width="71.7" height="74.3" x="0" y="0" fill="black"/>
      <use fill="white" xlink:href="#rect-1"/>
    </mask>
  </defs>
  <g>
    <use fill="none" xlink:href="#rect-1"/>
    <g mask="url(#mask-2)">
      <path fill="rgb(0,102,173)" fill-rule="evenodd" d="M.42588036 9.0936144C2.1598218 8.78948016 4.25880356 8.0291445 5.992745 7.72501024c4.95846415-.88198935 10.00818838-1.33819075 15.02749258-1.82480556 4.10670344-.39537454 8.21340687-.76033566 12.32011031-.5778551"/>
      <path fill="rgb(0,102,173)" fill-rule="evenodd" d="M33.91832838 5.29193614c3.80250319-.18248055 7.6354264-.33454768 11.43792958-.51702824.79092066-.03041343 1.7947815.03041343 2.12940178.76033565-3.04200255 1.2773639-14.11489181 1.55108473-17.40025456 1.88563242-12.68515062 1.24695047-20.22931693 1.9768727-25.03568095 2.64596807-.18252016.03041343-4.56300382-.79074907-4.62384387-.97322963"/>
      <g>
        <path fill="rgb(255,255,255)" fill-rule="evenodd" d="M27.10424268 12.65198526c.57798049-3.80167826 1.186381-7.60335652 1.76436148-11.40503479 6.9357658.48661482 12.95893084 1.91604585 19.9555367 2.76762178 6.29694527.76033565 14.17573186 1.79439214 20.8072974 3.16299631-1.27764106 15.1458862-4.62384386 30.3830127-6.87492574 45.4072452-.85176072 5.62648382-1.39932118 11.28338108-2.67696224 16.84903806-.09126008.39537454-.21294018.8211625-.48672041 1.12529677-.30420026.33454769-.79092066.54744167-1.24722105.54744167-5.84064488 0-9.0955876-1.03405649-12.77641069-1.49025788"/>
        <path fill="rgb(0,102,173)" fill-rule="evenodd" d="M70.11815868 5.9306181c-6.5707255-1.33819076-13.20229105-2.22018011-19.8338566-3.04134262C43.28769622 2.03769955 36.38235045.51702824 29.35532457 0c-1.00386084-.06082685-2.34234196.18248056-2.52486212 1.33819075-.57798048 3.80167826-1.186381 7.60335653-1.76436147 11.4050348-.15210013.91240278 1.52100127 1.18612361 2.09898175 1.15571018.88218074-.03041342 1.85562156-.42578796 1.97730166-1.36860417.51714043-3.28465002 1.00386084-6.56930004 1.52100127-9.85395006 6.23610522.63868195 12.41137039 1.91604584 18.61705558 2.6763815 6.08400509.72992222 12.16801018 1.55108473 18.22159525 2.70679492-.9430208 10.3709783-2.76822232 20.6203029-4.5325838 30.90004093-.88218073 5.07904217-1.76436147 10.18849775-2.46402206 15.29795334-.3650403 2.61555465-.69966058 5.2311093-1.09512091 7.84666394-.18252016 1.33819075-.39546034 2.64596807-.66924056 3.9537454-.1216801.57785509-.21294018 1.15571019-.33462028 1.7639787-.1216801.60826853-.42588036 1.33819076-.45630039 1.94645928v.03041342c-.30420025-.03041342-.66924056.03041343-.97344081 0l-1.73394145-.09124027c-1.09512092-.09124028-2.22066186-.21289399-3.31578278-.39537454-1.94688163-.30413426-3.89376325-.6995088-5.8710649-.94281621-.79092067-.09124028-2.15982182.1216537-2.46402207 1.00364306-.33462028.91240278.82134069 1.3990176 1.52100127 1.45984445 4.22838354.51702825 8.27424693 1.42943103 12.56347051 1.49025788 1.27764107.03041343 2.58570217-.15206713 3.55914298-1.06446991.9430208-.91240279 1.03428087-2.34183381 1.3080611-3.55837086.54756046-2.70679492.94302079-5.44400327 1.33848112-8.1507982 1.5514213-11.22255423 3.589563-22.32345476 5.3843445-33.51559558 1.00386084-6.2955792 1.9164616-12.62157183 2.46402207-18.9779779.03042002-.76033564-1.09512092-1.03405648-1.61226135-1.12529676z"/>
      </g>
      <path fill="rgb(0,102,173)" fill-rule="evenodd" d="M0 9.61064265c.42588036 18.33929595.69966059 37.256447.30420025 53.01060172-.03042002 1.5206713-.2433602 3.19340974.73008062 4.34911994.45630038.51702824 1.09512091.88198935 1.70352142 1.15571019 6.84450573 3.19340974 14.87539245 2.2201801 22.26745863 3.77126484 2.15982181.45620139 5.20182436.54744167 7.3920662.79074908 3.37662282.3649611 5.93190495.2433074 9.2172677 1.06446991.8213407.21289398 1.61226135.51702824 2.46402207.54744167.8517607.03041343 1.76436147-.30413426 2.1598218-1.03405649.27378023-.54744167.18252016-1.18612362.18252016-1.79439214.15210012-6.69095374-.30420026-9.61064265.09126007-17.60937372.15210013-3.16299632-.1216801-12.77363897-.03042002-15.96704871.15210012-5.9306181-.27378023-11.83082276-.69966059-17.76144085-.1216801-1.5206713-.2433602-3.16299632-1.186381-4.34911994-1.06470088-1.36860417-2.92032244-1.85521899-4.62384386-2.15935325-9.06516759-1.61191158-19.07335596-2.73720835-27.86474332-3.2542366-3.74166313-.21289398-6.87492575-.85157593-10.61658888-1.2773639-.48672041-.06082684-1.03428087-.09124027-1.4297412.212894"/>
      <path fill="rgb(255,255,255)" fill-rule="evenodd" d="M33.21868896 30.9609375c.699646 1.27734375 1.24719239 2.67626953 1.6730957 4.07543945.42590333 1.42919922.48675538 2.98046875.39544679 4.44018555-.09124756 1.39916992-.33459473 2.7980957-.76049805 4.13623047-.36505127 1.0949707-.79089356 2.12890625-1.5209961 3.0415039-.8517456 1.06445313-1.88604736 2.00708008-2.98114013 2.76757813-1.21679688.8515625-2.6161499 1.58154297-4.07629395 1.97680664-1.5209961.39526367-3.13323974.42578125-4.71508789.18237305-1.36889648-.21289063-2.55529785-.72973633-3.77209472-1.30761719-1.18640137-.54760742-2.31195069-1.15576172-3.37664795-1.9465332-1.18634034-.88208008-2.43359375-1.9465332-3.1940918-3.22387696-.73010254-1.18603515-1.15594482-2.61547851-1.5209961-3.95361328-.21295165-.8515625-.36505126-1.73364258-.39544677-2.61572265-.21295166-.54736329-.36505127-.97314454.0303955-2.34179688.03045655-.03027344.06085206-.1520996.1217041-.33447265.39544679-2.67626954 1.61224366-5.2006836 3.52868653-7.11669922 2.03814697-2.06811524 4.65429688-3.40625 7.4833374-3.89306641.63885498-.15185547 1.27764893-.18237305 1.91650391-.18237305 1.399292 0 2.79858398.18237305 4.13708496.6081543.91259766.30419922 1.70355225.82128906 2.4944458 1.36865234.9734497.66918946 1.94689942 1.36865235 2.82904053 2.12890625.69970703.60839844 1.24725342 1.36865235 1.70355224 2.18994141zm-.76049804 13.7770996c.51715088-1.03393554.79089355-2.18969726 1.00384521-3.3149414.27380371-1.36865234.39544678-2.7980957.33465576-4.13623047-.06085205-.69946289-.18255615-1.36865234-.36505126-2.00732421-.24334717.42578125-.60839844.79077148-.9430542.94287109-.380188.16723633-.72241211.05322266-1.0645752-.06079102-.34228516-.11401367-.68450928-.22827148-1.06481934-.06079101-1.52099609.66894531-1.5513916 4.50097656-3.16369628 4.50097656-.39544678-.6081543-.76049805-1.21655273-1.15594483-1.82470703-.09124756-.12158203-.18249512-.27368164-.33459473-.33447266-.246521-.10961914-.49304199.00268555-.73956298.11499024l-.08178711.03710937c-.33465576.15185547-.6692505.18237305-1.00384522.12158203.03039551.06079102.09124756.0913086.15209961.12158204.42584229.21289062.9734497.1520996 1.27764893.51708984.1520996.18237305.18249511.42578125.21289062.66918945.21295166 1.3684082.6692505 1.42919922 1.7947998 2.25048828.48669434.2434082.39544678 1.00366211 0 1.00366211-.39544677 0-.42590331 1.21655274-.66925048 1.52075196-.08813477.11523437-.15356445.23486328-.21289063.34326171-.2067871.37817383-.33862304.61938477-1.0951538.05200196-1.06469727-1.18603516-2.6161499-2.22021485-4.137146-2.58520508-.18249512-.03027344-.33459473-.09106445-.48669434-.18237305-.2738037-.18261718-.36505127-.57788086-.33465576-.91235351 0-.12548828.01281738-.25097657.0256958-.37646485.02142334-.20922851.04278565-.41821289.00476074-.62719726-.1217041-.72998047-.9430542-1.1862793-1.6730957-1.36865235-.63885498-.1520996-1.30804443-.2434082-1.85565185-.57788086-.7300415.21289063-1.03424073.18237305-.5475464-.30419921.94299317-1.67260743.8213501-1.4597168 1.21679688-2.00732422.36505127-.5168457 1.24725342-.66894532 1.24725342-.66894532 1.61224365-1.1862793 1.64263916-2.43310546 2.19024658-2.58520507.26068116-.06860352.55853272-.02587891.85443116.0168457.36010742.05175781.71728515.10302734 1.00115966-.04736328.45629883-.27368164 1.7947998-1.09472656 2.09899903-1.5510254.7458496-1.15258788 1.58618164-1.09594726 2.71582031-1.02001952.8973999.06030273 1.97747803.1328125 3.33776856-.37890625-.48675538-.60839844-1.09515381-1.0949707-1.73394776-1.58154297-.8517456-.63867188-1.70355224-1.24682617-2.58569336-1.7944336-.18255615-.12158203-.33465576-.21289062-.51715088-.30419922-.06085205-.03027343-.24334717-.12158203-.03045654-.03027343-.09124756-.06079102-.18249512-.0913086-.27374268-.12158203-.51715087-.1826172-1.03430175-.30419922-1.58184814-.39550782-1.15594482-.18237304-2.3727417-.27368164-3.52874756 0q-.91259766.1369629-1.82519531.45629883c-2.4944458.8515625-4.65423584 2.4633789-6.17523194 4.59228516-.21295166.30419922-.3955078.60839844-.57800292.91259765.09124755.54736329.33459472 1.09472657.73010253 1.52050782.12164307.12182617.27374268.27368164.27374268.45629882 0 .24316407-.21295166.39526368-.39544678.54736329-.73010254.63867187-.88220215 1.703125-.66925049 2.64599609.21295166.9428711.76049805 1.76391602 1.27764893 2.5546875-.8213501.57788086-1.27764893 1.5510254-1.399292 2.5546875-.1217041.82128906-.06085204 1.64233398.06079102 2.46362305.33465577.6689453.76049805 1.24682617 1.30810547 1.7944336 1.79473877 1.763916 3.95458985 3.07177733 6.2664795 3.98413085 2.46405029.97314453 5.2322998.63867188 7.54418945-.54760742 2.12939453-1.09472656 4.25878906-2.79785156 5.29309082-4.98779297z"/>
      <path fill="rgb(0,102,173)" fill-rule="evenodd" d="M40.24569368 5.65689726c-.06084005-.06082685-.69966059-.6995088-.76050064-.60826852-.4867204.97322963-1.06470089 1.91604584-1.6731014 2.82844862-.30420025.42578797-.6084005.88198936-.94302079 1.2773639-.1216801.15206713-.2433602.33454769-.39546033.48661482-.09126007-.36496111-.21294018-.72992223-.30420025-1.06446992-.30420026-1.00364306-.57798049-2.00728612-.88218074-2.98051575-.09126008-.36496112-.45630038-.66909538-.69966059-.94281621-.1216801-.1216537-.27378023-.27372084-.42588035-.36496112-.03042003-.03041342-.18252016-.1216537-.15210013 0 .3650403 1.21653705.73008061 2.46348752 1.09512092 3.68002456.18252015.60826852.3650403 1.21653705.54756045 1.855219.09126008.30413426.18252016.54744167.39546034.79074907.2433602.3345477.6084005.8211625 1.00386084.97322964.21294017.09124028.30420025 0 .45630038-.18248056l.54756046-.63868195c.3650403-.45620139.69966058-.91240278 1.00386084-1.36860417.63882053-.94281621 1.24722104-1.94645927 1.76436147-2.95010233.06084005-.18248056-.45630038-.66909538-.57798048-.79074908z"/>
      <path fill="rgb(0,102,173)" fill-rule="evenodd" d="M43.71357658 6.6301269c0 .09124027.03042003.18248055.03042003.27372083 0 .06082685 0 .06082685 0 0v.1216537c0 .18248056 0 .36496112.03042002.54744167 0 .33454769 0 .6995088-.03042002 1.0340565-.03042003.6995088-.1216801 1.27736389-.27378023 1.97687269-.09126008.42578796.09126007.9428162.42588035 1.24695047.21294018.21289398.69966059.42578796.79092066-.03041343.36504031-1.55108473.42588036-3.13258289.30420026-4.71408105-.03042003-.39537453-.3650403-.9428162-.76050064-1.0644699-.45630038-.15206714-.54756046.30413425-.51714043.60826851z"/>
      <path fill="rgb(0,102,173)" fill-rule="evenodd" d="M52.10949707 10.40136719c.36505127.48657226.79089355 1.03417968.91259766 1.64233398.18249511.79077149-.42590332 1.27734375-1.21679688 1.24707031-.8517456.12158204-1.76434326-.18261718-2.4944458-.57788086-.1217041-.06079101-.21295166-.18261718-.30419922-.30419921-.1520996-.18237305-.30419922-.36499024-.42590332-.57788086-.09124756-.12158203-.21289062-.33447266-.27374267-.48657227 0 0-.06085205-.18261719.0303955-.12158203.7909546.42578125 1.85565186.79052734 2.73779297.5168457.33465576-.09106445.63885498-.27368164.76049805-.6081543.03045654-.12158203.06085205-.21289062.06085205-.33447265-.63879395-.36499023-1.33843994-.57788086-1.88604736-1.12548828-.48669434-.48657227-.97344971-1.12524414-1.21679688-1.79418945-.12164306-.3347168-.12164306-.79077149.21295166-1.0341797.27380371-.21289062.66925049-.18237304 1.00384522-.1520996.45629882.06079101.9430542.1520996 1.42974853.21289062.09124756.03051758.18255615.12158204.24334717.1826172.1520996.15185546.30419922.33447265.42590332.5168457.1217041.18261718.27380371.3955078.36505127.57788085-.03045654-.06079101.1520996.27368164.09124756.27368164-.57800293-.06079101-1.12554932-.18237304-1.6730957-.21289062-.36505127-.03027344-.8213501.06103516-1.00384522.45629883 0 .03051758-.03045654.06079101-.03045654.0913086.36505127.18237304.76049804.33447265 1.0951538.54736327.45629883.27368164.8213501.63867188 1.15594483 1.06445313zm-2.1940918-1.140625c.01904297-.00756836.01904297-.0913086-.05700683-.22802735 0 .16723633.0380249.2355957.05700683.22802735z"/>
      <path fill="rgb(0,102,173)" fill-rule="evenodd" d="M61.022583 11.4963379c.18249513.9123535.30419923 1.8552246.42590333 2.76757812.12164306.94262695-1.58184815.24316406-1.61230469-.39550782-.0303955-.24316406-.09124756-.5168457-.12164307-.7602539-.09130859 0-.18255615.03051757-.2738037.03051757h-.88220216c-.18249511 0-.33459472-.03051757-.48669433-.06103515h-.0303955c-.18255616.3347168-.36505128.66918945-.60839845 1.0036621-.2434082.3347168-.8213501.0913086-1.0951538-.060791-.27380372-.15209962-.76049805-.63867188-.51715088-.97314454.54754638-.79077148.91259765-1.64233398 1.24725341-2.5546875.27374268-.79077148.51715088-1.61206055.8213501-2.37231445.21289063-.54736328.79089356-.57788086 1.2775879-.36499024.48675536.21289063.91259765.6081543 1.15600585 1.0949707.21289063.39526368.30419922.82104493.39544678 1.24682618.12164307.45629883.21295166.9428711.30419922 1.39916992zm-2.52490234.45605468h.8213501c.04058838-.02026367.08111572-.01342774.12164307-.00683594.02026367.00341797.04058838.00683594.06085205.00683594-.06085205-.36499024-.12164307-.7602539-.21295166-1.12524414-.06079102-.21289063-.09124756-.42578125-.15209961-.63867188-.0303955.06079102-.0303955.0913086-.06079102.15209961-.1520996.45605469-.30419921.88183594-.45629882 1.33813477-.06085206.0913086-.0913086.18261718-.1217041.27368164z"/>
    </g>
  </g>
</svg>
