<svg xmlns="http://www.w3.org/2000/svg" viewBox="0 0 690.08 194.42"><defs><style>.cls-1{fill:#5db67d;}.cls-2{fill:#fff;}.cls-3{fill:#1b66ae;}</style></defs><g id="Calque_2" data-name="Calque 2"><g id="Calque_1-2" data-name="Calque 1"><g id="Calque_2-2" data-name="Calque 2"><g id="Calque_1-2-2" data-name="Calque 1-2"><g id="icone"><path class="cls-1" d="M84.43,0C88,1.7,91.75,2.92,95.35,4.75,102,8,108.57,11.46,115,15.05c9.56,5.29,19,10.86,28.21,16.62a2.12,2.12,0,0,1,.61.54L128.1,31,67.41,26.38a2.94,2.94,0,0,0-2.31.81C51,38.93,37,50.66,22.85,62.46Q13.7,70.19,4.54,77.78c0-7.19.34-14.37.82-21.56.13-2.31.61-4.61.68-7,.13-4.13,2.57-6.71,5.69-9A370.79,370.79,0,0,1,44,19.67,325.77,325.77,0,0,1,77.17,2c1.7-.74,3.46-1.28,5.22-2h2Z"/><path class="cls-1" d="M22.72,143.9a140.23,140.23,0,0,1-12.89-8.81c-2.44-1.83-3.12-4.41-3.59-7.12a58.47,58.47,0,0,1-1-9.7c0-3.46-.41-6.78-.41-10.17-.13-8.55-.4-17.16-.27-25.71H5.76L30.92,84.5l53.51,4.13a3.29,3.29,0,0,0,2.71-.88C103.21,74.73,119,61.3,135,48.08l14.58-12.34c2.17,1.76,4.48,3.46,6.78,5a10.15,10.15,0,0,1,4.27,7.86c.82,6.58,1.09,13.23,1.5,19.87.67,12.82.54,25.64.2,38.39-.2,6.64-.54,13.29-1.29,19.93a12.26,12.26,0,0,1-5.7,9,392.25,392.25,0,0,1-33.9,21.57c-7.19,4.13-14.45,8.13-21.84,11.93-3.59,1.83-7.32,3.46-10.92,5.22s-7.46,1.29-11.19-.34C71,171.3,64.76,168,58.52,164.79c-5.69-2.92-11.19-6.17-16.75-9.36-.34-.2-.61-.47-1-.68-.81-3.12-1.83-6.24-2.91-9.29a12.64,12.64,0,0,1-.68-2.85A43.76,43.76,0,0,0,30.11,123c-.34-.62-.61-1.36-1.49-.41a8.35,8.35,0,0,1-8.28,2.91c-.88-.2-1.08.21-1,1l.81,6.31C20.89,136.65,22.11,140.17,22.72,143.9ZM132,57.1l-1.63,1.29C116.71,69.65,103.15,81,89.51,92.23a5,5,0,0,1-4.27,1.35c-2.24-.34-4.54-.34-6.85-.54L47.54,90.8c-5.22-.4-10.51-.74-15.74-1.22-1.49-.13-1.69.34-1.28,1.63A14.27,14.27,0,0,1,31,92.84c2.51,7.8,4.88,15.66,7.53,23.46s.88,6.24,9.76,10a.61.61,0,0,0,.34.07,83.47,83.47,0,0,0,40.22,2.51,78.31,78.31,0,0,0,41.84-22.38,63.18,63.18,0,0,0,11-13.77,6,6,0,0,0,.55-4.68c-2.92-9.69-6-19.26-9.23-28.89A3.6,3.6,0,0,0,132,57.1Zm-114.2,61a5.2,5.2,0,0,0,3.39,5.22,5.05,5.05,0,0,0,6.51-2.78v-.2a5.33,5.33,0,0,0-2.85-6.92c-.27-.06-.47-.2-.75-.27a2.78,2.78,0,0,1-2-2.1c-2.17-7-4.41-13.9-6.65-20.89-.61-1.9-1.35-2.57-2.84-1.9s-.21,1.77,0,2.58c2.1,7,4.4,14,6.57,21a2.59,2.59,0,0,1-.4,2.92A4.77,4.77,0,0,0,17.77,118.13Z"/><path class="cls-2" d="M149.53,35.74,134.81,48.08C119,61.3,103.15,74.66,87,87.75a3.39,3.39,0,0,1-2.72.88L30.79,84.5C22.45,83.82,14,83.14,5.7,82.39H4.48c-1.36-.54-2.92,0-4.48-.67l4.54-4L22.85,62.46Q44,44.86,65.1,27.19a2.94,2.94,0,0,1,2.31-.81l60.69,4.68,15.8,1.15,8.61.75Z"/><path class="cls-2" d="M22.72,143.9c-.61-3.66-1.83-7.19-2.31-10.85-.27-2-.47-4.2-.81-6.31-.14-.81.13-1.22,1-1a8.33,8.33,0,0,0,8.27-2.92c.81-1,1.08-.13,1.49.41a43,43,0,0,1,7.05,19.53,10.94,10.94,0,0,0,.68,2.85A94.19,94.19,0,0,1,41,154.89a19,19,0,0,1,.27,4.41,2.21,2.21,0,0,1-.41,1.28,1.37,1.37,0,0,1-.74.34c-.34,0-.34-.4-.28-.67v-.89c0-1-.67-1.08-1.49-1-1,0-.61.74-.54,1.28s.54,1,.14,1.5-1-.14-1.56-.27c-1.5-.41-3.19-.41-4.07-2.17.13.74.2,1.56.34,2.3,0,.48,0,.95-.55,1.15a1.27,1.27,0,0,1-1.28-.27,9.32,9.32,0,0,1-1.7-2.3A92.47,92.47,0,0,1,22.72,143.9Z"/><path class="cls-2" d="M132,57.1a3.63,3.63,0,0,1,1,2c3.12,9.63,6.31,19.19,9.23,28.89a5.87,5.87,0,0,1-.61,4.74,61.49,61.49,0,0,1-11,13.77,78.1,78.1,0,0,1-41.77,22.44,82.33,82.33,0,0,1-40.15-2.5.5.5,0,0,1-.27-.14c-8.88-3.73-7.12-2-9.77-10s-5-15.66-7.52-23.46a14.34,14.34,0,0,1-.48-1.63c-.4-1.22-.13-1.76,1.29-1.63,5.22.48,10.51.82,15.73,1.22L78.53,93c2.3.14,4.61.2,6.85.54a5.05,5.05,0,0,0,4.13-1.35q20.35-17,40.83-33.84Z"/><path class="cls-2" d="M17.77,118.13a4.51,4.51,0,0,1,1-3.18,2.85,2.85,0,0,0,.41-2.92c-2.24-7-4.41-14-6.58-21-.2-.75-1.49-2,0-2.58s2.24,0,2.85,1.9c2.17,6.92,4.41,13.9,6.58,20.82a2.8,2.8,0,0,0,2,2.1,5.21,5.21,0,0,1,3.8,6.37,3.07,3.07,0,0,1-.27.75,5,5,0,0,1-6.37,3H21A5.43,5.43,0,0,1,17.77,118.13Z"/></g><g id="nom"><path class="cls-1" d="M690.08,46c-.41.54-.88,1-1.29,1.56q-29.29,43-58.46,86.05a3,3,0,0,1-2.78,1.5H612.43c.41-.68.75-1.22,1.09-1.7,7.93-11.73,15.86-23.46,23.8-35.06a3,3,0,0,0,.41-2.92c-5.09-16.2-10.24-32.34-15.26-48.55-.21-.68-.34-1.29-.61-2.17h7.52c2.78,0,5.63.07,8.41,0a1.82,1.82,0,0,1,2.11,1.63q4.68,16.07,9.56,32l.4,1.22c.48-.68.89-1.16,1.16-1.63q10.58-15.87,21.16-31.87a2.56,2.56,0,0,1,2.44-1.36c5.15.14,10.3.07,15.46.14V46Z"/><path class="cls-3" d="M486.16,133.19H470v-9.63a3.71,3.71,0,0,0-.88.54c-16.34,16.82-41.77,13.09-56.22,0C388.3,102,394.75,59.74,428.86,48.28c14.85-5,28.62-2.3,40.14,9l.95.81V8h16.28V133.19ZM470.09,90.8a40.5,40.5,0,0,0-.54-7.52c-3.46-14-18.31-23.06-32.62-20.08a28.06,28.06,0,0,0-21.64,33.3v.27a27.88,27.88,0,0,0,49.44,10.85,22.6,22.6,0,0,0,5.29-17Z"/><path class="cls-3" d="M574.66,64.22l-50.93,50.52a12.59,12.59,0,0,0,6.92,3.19c6.71,1.15,13.29,1.15,19.66-1.7a29.35,29.35,0,0,0,11.26-9.29,1.91,1.91,0,0,1,2.58-.74h0c4.81,1.83,9.63,3.52,14.51,5.29-10.72,17.22-26.58,27.05-48.89,23.19-17.23-2.92-33.71-18.92-35.54-39.54-1.76-19.59,9.7-38.79,27.87-45.84C538.85,42.72,560.21,45.37,574.66,64.22ZM550.72,65c-6.31-5.16-23.46-2-31.53,5.9s-11.4,25.22-6.45,31.8Z"/><path class="cls-3" d="M203.78,92.16c.68,3.12,1.09,6,1.83,9,2.31,8.82,7.67,14.72,16.69,16.82a23,23,0,0,0,21.29-38.72,46,46,0,0,0-16.68-10.58A53.86,53.86,0,0,1,207.1,56.9c-8.81-8.62-11.25-19.06-7.32-30.59s12.14-18.17,24.35-19.6c13.83-1.62,25.36,5.63,30.58,19,.54,1.36,1,2.71,1.56,4.27l-14.72,5.77c-.94-2-1.76-4-2.64-5.9a12,12,0,0,0-12.41-7.12,12.27,12.27,0,0,0-11.33,8.34,12.42,12.42,0,0,0,3.19,14.17,35.61,35.61,0,0,0,13.09,8c11.33,4.07,21.29,10.18,28.21,20.21a39,39,0,0,1-25.16,60.49c-21.77,3.8-40.42-9.29-45.3-31.39-1.08-4.75-1.08-4.75,3.46-6.38Z"/><path class="cls-3" d="M319.81,52.76H336V100.3a17,17,0,0,0,13.22,17.29,17.38,17.38,0,0,0,21.16-12.68h0a17.41,17.41,0,0,0,.54-4.21c-.2-15.25,0-30.44,0-45.7,0-2.38,0-2.38,2.24-2.38h12.55c.95,0,1.49.21,1.49,1.29-.14,16.89.2,33.77-.34,50.66-.47,15.19-12.61,27.6-27.74,29.36-9.49,1.09-18.58-.13-26.44-6a31.25,31.25,0,0,1-13-25.91c-.2-16.14,0-32.28,0-48.42A2.24,2.24,0,0,1,319.81,52.76Z"/><path class="cls-3" d="M281.23,68.9H266.85V52.62h14.31V22.51H297.3V52.56h14.37V68.7h-14.3v64.35H281.23Z"/><path class="cls-1" d="M587.88,8.61H604V133.87H587.88Z"/></g><path class="cls-3" d="M214,158.62c10,0,16.55,7,16.55,17.9s-6.51,17.9-16.55,17.9-16.61-7-16.61-17.9S203.92,158.62,214,158.62Zm0,31.8c7.19,0,11.87-5.42,11.87-14s-4.75-14-11.87-14-11.93,5.43-11.93,14,4.68,14,11.93,14Z"/><path class="cls-3" d="M235.32,176.52c0-4,3.25-6.65,8.4-6.65a13,13,0,0,1,6.72,1.7c1.08.75,1.56,1.36,1.56,2.1a2,2,0,0,1-1.83,2.1c-.48,0-.95-.33-1.9-.88a9.58,9.58,0,0,0-4.75-1.35c-2.51,0-3.93,1.08-3.93,2.71,0,4.41,12.75,2.78,12.75,10.85,0,4.27-3.39,6.92-8.68,6.92a12.12,12.12,0,0,1-7.12-2c-1.09-.68-1.56-1.29-1.56-2.1a2.08,2.08,0,0,1,1.9-2.1c.54,0,.88.4,1.76.88a9.56,9.56,0,0,0,5,1.63c2.51,0,4.27-1.16,4.27-3C248,182.76,235.32,184.45,235.32,176.52Z"/><path class="cls-3" d="M276.89,190.08c0,.75-.48,1.36-1.56,2.11a12.77,12.77,0,0,1-7.33,2c-7.12,0-11.39-4.61-11.39-12.07s4.14-12.28,10.65-12.28c6.1,0,10,4.41,10,10.38,0,2.85-1,3.12-2.78,3.12H261c.41,4.41,2.71,7,7.19,7a8.7,8.7,0,0,0,4.88-1.29,3.34,3.34,0,0,1,1.83-.88,1.78,1.78,0,0,1,2,1.83ZM261.15,180h11.94c0-3.87-2-6.65-5.77-6.65s-5.76,2.51-6.17,6.65Z"/><path class="cls-3" d="M283.46,174.28a1.57,1.57,0,0,1-1.83-1.35v-.48a1.69,1.69,0,0,1,1.43-1.9h14.85c1.29,0,1.9.61,1.9,1.7a4.47,4.47,0,0,1-1.29,2.78l-11.39,15h11.59a1.6,1.6,0,0,1,1.83,1.35v.48a1.67,1.67,0,0,1-1.42,1.9h-15.6c-1.29,0-2-.55-2-1.7s.41-1.56,1.36-2.78l11.39-15Z"/><path class="cls-3" d="M333,172c.61-1.55,1.08-2,2.58-2s2,.54,2,1.29a4.48,4.48,0,0,1-.34,1.63l-8,18.92c-.68,1.62-1.29,2.17-3.05,2.17-2,0-2.44-.61-3.05-2.17l-7.87-18.92a4.8,4.8,0,0,1-.34-1.63c0-.75.54-1.29,2-1.29s2.11.48,2.72,2l6.71,16.76Z"/><path class="cls-3" d="M352.43,169.81c7.05,0,11.6,4.81,11.6,12.2s-4.55,12.35-11.73,12.35-11.53-4.82-11.53-12.21S345.45,169.81,352.43,169.81Zm0,20.82c4.27,0,6.92-3.33,6.92-8.55s-2.71-8.68-6.92-8.68-7,3.32-7,8.61S348.23,190.63,352.43,190.63Z"/><path class="cls-3" d="M384.37,191.51a1.68,1.68,0,0,1-1.08,1.56,9.49,9.49,0,0,1-4.75,1.08,6.4,6.4,0,0,1-6.17-3.18,12.46,12.46,0,0,1-1-6.24V174.28h-2.91a1.61,1.61,0,0,1-1.84-1.35v-.48a1.69,1.69,0,0,1,1.36-1.9h3.39v-5.83c0-1.22.68-1.83,2.17-1.83s2.31.61,2.31,1.83v5.77h6a1.6,1.6,0,0,1,1.83,1.35v.48a1.66,1.66,0,0,1-1.42,1.89h-6.44v10.45a9.7,9.7,0,0,0,.54,4.2,3,3,0,0,0,2.78,1.49,5.31,5.31,0,0,0,2.24-.47,4.39,4.39,0,0,1,1.22-.41C383.9,189.41,384.37,190.83,384.37,191.51Z"/><path class="cls-3" d="M394.14,192.19c0,1.22-.68,1.83-2.17,1.83s-2.31-.61-2.31-1.83V171.91c0-1.22.68-1.83,2.17-1.83s2.1.74,2,1.83v2.64a7.47,7.47,0,0,1,7.25-4.61c1.49,0,2,.61,2,2s-.82,2-2.31,2.1c-3.39.13-5.36,1.29-6.71,4.07v14Z"/><path class="cls-3" d="M425.4,190.08c0,.75-.48,1.36-1.56,2.11a12.76,12.76,0,0,1-7.32,2c-7.13,0-11.33-4.61-11.33-12.07s4.14-12.28,10.65-12.28c6.1,0,10,4.41,10,10.38,0,2.85-1,3.12-2.78,3.12H409.67c.4,4.41,2.71,7,7.18,7a8.87,8.87,0,0,0,4.89-1.29,3.34,3.34,0,0,1,1.83-.88A1.78,1.78,0,0,1,425.4,190.08ZM409.67,180h11.86c0-3.87-2-6.65-5.76-6.65C412.24,173.33,410.07,175.84,409.67,180Z"/><path class="cls-3" d="M450.9,173.67a9.42,9.42,0,0,0-4.82,1.36c-.88.47-1.29.88-1.83.88a2.12,2.12,0,0,1-1.83-2.1c0-.61.48-1.29,1.56-2A13.82,13.82,0,0,1,451.3,170c3.39,0,5.9,1,7.33,2.92a9.09,9.09,0,0,1,1.49,5.76v13.56c0,1.29-.54,1.9-2.1,1.9-1.29,0-2-.4-2-1.49v-1.29a9.59,9.59,0,0,1-7.12,2.85c-4.75,0-7.53-2.64-7.53-6.65,0-4.81,4.21-7.32,14.38-8.2v-.68C455.78,175.37,454.42,173.67,450.9,173.67Zm-4.82,13.5c0,1.83,1.29,3.25,4.27,3.25a8.11,8.11,0,0,0,5.43-2.1v-6.1c-6.65.81-9.7,2-9.7,4.95Z"/><path class="cls-3" d="M483,172c.61-1.55,1.09-2,2.58-2s2,.54,2,1.29a4.47,4.47,0,0,1-.33,1.63l-8.07,18.92c-.68,1.62-1.29,2.17-3.06,2.17s-2.44-.61-3.05-2.17l-7.86-18.92a4.58,4.58,0,0,1-.34-1.63c0-.75.54-1.29,2-1.29s2.1.48,2.71,2l6.72,16.76Z"/><path class="cls-3" d="M511.05,190.08c0,.75-.48,1.36-1.56,2.11a12.77,12.77,0,0,1-7.33,2c-7.12,0-11.32-4.61-11.32-12.07s4.14-12.28,10.65-12.28c6.1,0,10,4.41,10,10.38,0,2.85-1,3.12-2.71,3.12H495.25c.4,4.41,2.71,7,7.19,7a8.86,8.86,0,0,0,4.88-1.29,3.34,3.34,0,0,1,1.83-.88,1.76,1.76,0,0,1,1.9,1.83ZM495.25,180h11.87c0-3.87-2-6.65-5.77-6.65C497.89,173.33,495.72,175.84,495.25,180Z"/><path class="cls-3" d="M521.76,171.91v1.69a8.62,8.62,0,0,1,7.6-3.66,7.56,7.56,0,0,1,6.78,3.05,11.22,11.22,0,0,1,1.49,6.24v12.89c0,1.22-.68,1.83-2.17,1.83s-2.3-.61-2.3-1.83V179.91a7.42,7.42,0,0,0-1.09-4.27,4.75,4.75,0,0,0-4.27-1.83,6.89,6.89,0,0,0-5.9,3.05v15.26c0,1.22-.68,1.83-2.17,1.83s-2.31-.61-2.31-1.83V171.84c0-1.22.68-1.83,2.17-1.83S521.83,170.76,521.76,171.91Z"/><path class="cls-3" d="M547.33,165.13a2.92,2.92,0,1,1,2.92-2.92,2.82,2.82,0,0,1-2.72,2.92A.12.12,0,0,1,547.33,165.13Zm2.17,27.06c0,1.22-.68,1.83-2.17,1.83s-2.31-.61-2.31-1.83V171.91c0-1.22.68-1.83,2.17-1.83s2.31.61,2.31,1.83Z"/><path class="cls-3" d="M561.64,192.19c0,1.22-.68,1.83-2.17,1.83s-2.31-.61-2.31-1.83V171.91c0-1.22.68-1.83,2.17-1.83s2.1.74,2.1,1.83v2.64a7.49,7.49,0,0,1,7.26-4.61c1.49,0,2,.61,2,2s-.82,2-2.31,2.1c-3.39.13-5.36,1.29-6.71,4.07Z"/></g></g></g></g></svg>