<svg width="200" height="74" viewBox="0 0 200 74" fill="none" xmlns="http://www.w3.org/2000/svg">
<path d="M16.0533 17.8065L63.4909 27.8897L31.0398 63.9303L16.0533 17.8065Z" stroke="white"/>
<path d="M66 40.6807L22.5 65.7954L22.5 15.5659L66 40.6807Z" fill="white"/>
<line x1="75.5" y1="11" x2="75.5" y2="63" stroke="white"/>
<path d="M82.918 25.376C82.918 24.424 83.105 23.591 83.479 22.877C83.8643 22.163 84.3913 21.6133 85.06 21.228C85.74 20.8427 86.5107 20.65 87.372 20.65C88.3467 20.65 89.174 20.888 89.854 21.364C90.534 21.84 91.01 22.4463 91.282 23.183V20.769H92.047V30H91.282V27.569C91.01 28.317 90.5283 28.9347 89.837 29.422C89.157 29.898 88.3353 30.136 87.372 30.136C86.5107 30.136 85.74 29.9433 85.06 29.558C84.3913 29.1613 83.8643 28.606 83.479 27.892C83.105 27.1667 82.918 26.328 82.918 25.376ZM91.282 25.376C91.282 24.5713 91.112 23.863 90.772 23.251C90.4433 22.6277 89.99 22.1517 89.412 21.823C88.834 21.483 88.188 21.313 87.474 21.313C86.726 21.313 86.0687 21.4773 85.502 21.806C84.9353 22.1233 84.4933 22.588 84.176 23.2C83.8587 23.812 83.7 24.5373 83.7 25.376C83.7 26.2147 83.8587 26.94 84.176 27.552C84.4933 28.164 84.9353 28.6343 85.502 28.963C86.08 29.2917 86.7373 29.456 87.474 29.456C88.188 29.456 88.834 29.2917 89.412 28.963C90.0013 28.623 90.4603 28.147 90.789 27.535C91.1177 26.9117 91.282 26.192 91.282 25.376ZM97.8415 21.449H95.4445V30H94.6795V21.449H93.2855V20.769H94.6795V20.123C94.6795 19.1597 94.9231 18.4457 95.4105 17.981C95.8978 17.505 96.6968 17.267 97.8075 17.267V17.947C96.9235 17.947 96.3058 18.117 95.9545 18.457C95.6145 18.797 95.4445 19.3523 95.4445 20.123V20.769H97.8415V21.449ZM100.056 22.673C100.283 21.993 100.685 21.4773 101.263 21.126C101.841 20.7633 102.578 20.582 103.473 20.582V21.381H103.218C102.311 21.381 101.558 21.6417 100.957 22.163C100.356 22.673 100.056 23.5117 100.056 24.679V30H99.291V20.769H100.056V22.673ZM105.115 18.712C104.934 18.712 104.781 18.6553 104.656 18.542C104.532 18.4173 104.469 18.253 104.469 18.049C104.469 17.8563 104.532 17.6977 104.656 17.573C104.781 17.4483 104.934 17.386 105.115 17.386C105.297 17.386 105.45 17.4483 105.574 17.573C105.699 17.6977 105.761 17.8563 105.761 18.049C105.761 18.253 105.699 18.4173 105.574 18.542C105.45 18.6553 105.297 18.712 105.115 18.712ZM105.489 20.769V30H104.724V20.769H105.489ZM107.308 25.376C107.308 24.4127 107.495 23.574 107.869 22.86C108.254 22.146 108.781 21.602 109.45 21.228C110.13 20.8427 110.906 20.65 111.779 20.65C112.935 20.65 113.881 20.939 114.618 21.517C115.366 22.095 115.83 22.8713 116.012 23.846H115.213C115.065 23.0527 114.68 22.4293 114.057 21.976C113.445 21.5227 112.685 21.296 111.779 21.296C111.099 21.296 110.481 21.449 109.926 21.755C109.37 22.0497 108.923 22.5087 108.583 23.132C108.254 23.744 108.09 24.492 108.09 25.376C108.09 26.2713 108.254 27.025 108.583 27.637C108.923 28.249 109.37 28.708 109.926 29.014C110.481 29.32 111.099 29.473 111.779 29.473C112.685 29.473 113.445 29.2463 114.057 28.793C114.68 28.3397 115.065 27.7163 115.213 26.923H116.012C115.83 27.8863 115.366 28.6627 114.618 29.252C113.87 29.8413 112.923 30.136 111.779 30.136C110.906 30.136 110.13 29.9433 109.45 29.558C108.781 29.1727 108.254 28.623 107.869 27.909C107.495 27.1837 107.308 26.3393 107.308 25.376ZM117.356 25.376C117.356 24.424 117.543 23.591 117.917 22.877C118.303 22.163 118.83 21.6133 119.498 21.228C120.178 20.8427 120.949 20.65 121.81 20.65C122.785 20.65 123.612 20.888 124.292 21.364C124.972 21.84 125.448 22.4463 125.72 23.183V20.769H126.485V30H125.72V27.569C125.448 28.317 124.967 28.9347 124.275 29.422C123.595 29.898 122.774 30.136 121.81 30.136C120.949 30.136 120.178 29.9433 119.498 29.558C118.83 29.1613 118.303 28.606 117.917 27.892C117.543 27.1667 117.356 26.328 117.356 25.376ZM125.72 25.376C125.72 24.5713 125.55 23.863 125.21 23.251C124.882 22.6277 124.428 22.1517 123.85 21.823C123.272 21.483 122.626 21.313 121.912 21.313C121.164 21.313 120.507 21.4773 119.94 21.806C119.374 22.1233 118.932 22.588 118.614 23.2C118.297 23.812 118.138 24.5373 118.138 25.376C118.138 26.2147 118.297 26.94 118.614 27.552C118.932 28.164 119.374 28.6343 119.94 28.963C120.518 29.2917 121.176 29.456 121.912 29.456C122.626 29.456 123.272 29.2917 123.85 28.963C124.44 28.623 124.899 28.147 125.227 27.535C125.556 26.9117 125.72 26.192 125.72 25.376ZM132.926 20.582C134.025 20.582 134.92 20.922 135.612 21.602C136.303 22.2707 136.649 23.268 136.649 24.594V30H135.901V24.645C135.901 23.5457 135.623 22.707 135.068 22.129C134.512 21.5397 133.759 21.245 132.807 21.245C131.809 21.245 131.01 21.5623 130.41 22.197C129.82 22.8317 129.526 23.7723 129.526 25.019V30H128.761V20.769H129.526V22.724C129.786 22.0327 130.217 21.5057 130.818 21.143C131.43 20.769 132.132 20.582 132.926 20.582ZM87.372 56.119C86.4993 56.119 85.7173 55.9773 85.026 55.694C84.3347 55.4107 83.7793 54.9913 83.36 54.436C82.952 53.8807 82.7367 53.212 82.714 52.43H85.808C85.8533 52.872 86.0063 53.212 86.267 53.45C86.5277 53.6767 86.8677 53.79 87.287 53.79C87.7177 53.79 88.0577 53.6937 88.307 53.501C88.5563 53.297 88.681 53.0193 88.681 52.668C88.681 52.3733 88.579 52.1297 88.375 51.937C88.1823 51.7443 87.9387 51.5857 87.644 51.461C87.3607 51.3363 86.9527 51.1947 86.42 51.036C85.6493 50.798 85.0203 50.56 84.533 50.322C84.0457 50.084 83.6263 49.7327 83.275 49.268C82.9237 48.8033 82.748 48.197 82.748 47.449C82.748 46.3383 83.1503 45.4713 83.955 44.848C84.7597 44.2133 85.808 43.896 87.1 43.896C88.4147 43.896 89.4743 44.2133 90.279 44.848C91.0837 45.4713 91.5143 46.344 91.571 47.466H88.426C88.4033 47.0807 88.2617 46.7803 88.001 46.565C87.7403 46.3383 87.406 46.225 86.998 46.225C86.6467 46.225 86.3633 46.3213 86.148 46.514C85.9327 46.6953 85.825 46.9617 85.825 47.313C85.825 47.6983 86.0063 47.9987 86.369 48.214C86.7317 48.4293 87.2983 48.6617 88.069 48.911C88.8397 49.1717 89.463 49.421 89.939 49.659C90.4263 49.897 90.8457 50.2427 91.197 50.696C91.5483 51.1493 91.724 51.733 91.724 52.447C91.724 53.127 91.5483 53.7447 91.197 54.3C90.857 54.8553 90.3583 55.2973 89.701 55.626C89.0437 55.9547 88.2673 56.119 87.372 56.119ZM98.29 53.535V56H96.811C95.757 56 94.9353 55.745 94.346 55.235C93.7567 54.7137 93.462 53.8693 93.462 52.702V48.928H92.306V46.514H93.462V44.202H96.369V46.514H98.273V48.928H96.369V52.736C96.369 53.0193 96.437 53.2233 96.573 53.348C96.709 53.4727 96.9357 53.535 97.253 53.535H98.29ZM98.8212 51.24C98.8212 50.2653 99.0026 49.4097 99.3652 48.673C99.7392 47.9363 100.244 47.3697 100.878 46.973C101.513 46.5763 102.221 46.378 103.003 46.378C103.672 46.378 104.256 46.514 104.754 46.786C105.264 47.058 105.655 47.415 105.927 47.857V46.514H108.834V56H105.927V54.657C105.644 55.099 105.247 55.456 104.737 55.728C104.239 56 103.655 56.136 102.986 56.136C102.216 56.136 101.513 55.9377 100.878 55.541C100.244 55.133 99.7392 54.5607 99.3652 53.824C99.0026 53.076 98.8212 52.2147 98.8212 51.24ZM105.927 51.257C105.927 50.5317 105.723 49.9593 105.315 49.54C104.919 49.1207 104.431 48.911 103.853 48.911C103.275 48.911 102.782 49.1207 102.374 49.54C101.978 49.948 101.779 50.5147 101.779 51.24C101.779 51.9653 101.978 52.5433 102.374 52.974C102.782 53.3933 103.275 53.603 103.853 53.603C104.431 53.603 104.919 53.3933 105.315 52.974C105.723 52.5547 105.927 51.9823 105.927 51.257ZM113.334 48.095C113.674 47.5737 114.099 47.1657 114.609 46.871C115.119 46.565 115.686 46.412 116.309 46.412V49.489H115.51C114.785 49.489 114.241 49.6477 113.878 49.965C113.516 50.271 113.334 50.815 113.334 51.597V56H110.427V46.514H113.334V48.095ZM122.476 53.535V56H120.997C119.943 56 119.121 55.745 118.532 55.235C117.942 54.7137 117.648 53.8693 117.648 52.702V48.928H116.492V46.514H117.648V44.202H120.555V46.514H122.459V48.928H120.555V52.736C120.555 53.0193 120.623 53.2233 120.759 53.348C120.895 53.4727 121.121 53.535 121.439 53.535H122.476ZM132.952 46.514V56H130.045V54.708C129.75 55.1273 129.348 55.4673 128.838 55.728C128.339 55.9773 127.784 56.102 127.172 56.102C126.447 56.102 125.806 55.9433 125.251 55.626C124.696 55.2973 124.265 54.827 123.959 54.215C123.653 53.603 123.5 52.8833 123.5 52.056V46.514H126.39V51.665C126.39 52.2997 126.554 52.7927 126.883 53.144C127.212 53.4953 127.654 53.671 128.209 53.671C128.776 53.671 129.223 53.4953 129.552 53.144C129.881 52.7927 130.045 52.2997 130.045 51.665V46.514H132.952ZM137.437 47.857C137.72 47.415 138.111 47.058 138.61 46.786C139.109 46.514 139.692 46.378 140.361 46.378C141.143 46.378 141.851 46.5763 142.486 46.973C143.121 47.3697 143.619 47.9363 143.982 48.673C144.356 49.4097 144.543 50.2653 144.543 51.24C144.543 52.2147 144.356 53.076 143.982 53.824C143.619 54.5607 143.121 55.133 142.486 55.541C141.851 55.9377 141.143 56.136 140.361 56.136C139.704 56.136 139.12 56 138.61 55.728C138.111 55.456 137.72 55.1047 137.437 54.674V60.522H134.53V46.514H137.437V47.857ZM141.585 51.24C141.585 50.5147 141.381 49.948 140.973 49.54C140.576 49.1207 140.083 48.911 139.494 48.911C138.916 48.911 138.423 49.1207 138.015 49.54C137.618 49.9593 137.42 50.5317 137.42 51.257C137.42 51.9823 137.618 52.5547 138.015 52.974C138.423 53.3933 138.916 53.603 139.494 53.603C140.072 53.603 140.565 53.3933 140.973 52.974C141.381 52.5433 141.585 51.9653 141.585 51.24ZM150.685 44.066V56H149.92V44.066H150.685ZM157.145 46.582C158.244 46.582 159.139 46.922 159.831 47.602C160.522 48.2707 160.868 49.268 160.868 50.594V56H160.12V50.645C160.12 49.5457 159.842 48.707 159.287 48.129C158.731 47.5397 157.978 47.245 157.026 47.245C156.028 47.245 155.229 47.5623 154.629 48.197C154.039 48.8317 153.745 49.7723 153.745 51.019V56H152.98V46.769H153.745V48.724C154.005 48.0327 154.436 47.5057 155.037 47.143C155.649 46.769 156.351 46.582 157.145 46.582ZM166.139 56.136C165.107 56.136 164.263 55.9093 163.606 55.456C162.96 55.0027 162.597 54.3567 162.518 53.518H163.3C163.356 54.1187 163.628 54.5947 164.116 54.946C164.614 55.2973 165.289 55.473 166.139 55.473C166.841 55.473 167.397 55.2973 167.805 54.946C168.224 54.5833 168.434 54.1413 168.434 53.62C168.434 53.2573 168.32 52.9627 168.094 52.736C167.878 52.498 167.606 52.3167 167.278 52.192C166.949 52.0673 166.501 51.9313 165.935 51.784C165.255 51.6027 164.705 51.427 164.286 51.257C163.866 51.0757 163.509 50.8093 163.215 50.458C162.92 50.1067 162.773 49.6363 162.773 49.047C162.773 48.6163 162.903 48.2197 163.164 47.857C163.424 47.483 163.787 47.1883 164.252 46.973C164.716 46.7577 165.243 46.65 165.833 46.65C166.796 46.65 167.572 46.8937 168.162 47.381C168.762 47.857 169.085 48.52 169.131 49.37H168.366C168.332 48.758 168.094 48.2593 167.652 47.874C167.21 47.4887 166.598 47.296 165.816 47.296C165.158 47.296 164.614 47.466 164.184 47.806C163.753 48.146 163.538 48.5597 163.538 49.047C163.538 49.4777 163.657 49.829 163.895 50.101C164.144 50.3617 164.444 50.5657 164.796 50.713C165.158 50.849 165.634 50.9963 166.224 51.155C166.87 51.325 167.385 51.495 167.771 51.665C168.167 51.8237 168.502 52.0617 168.774 52.379C169.046 52.685 169.182 53.0987 169.182 53.62C169.182 54.096 169.051 54.5267 168.791 54.912C168.53 55.2973 168.167 55.5977 167.703 55.813C167.238 56.0283 166.717 56.136 166.139 56.136ZM171.393 44.712C171.211 44.712 171.058 44.6553 170.934 44.542C170.809 44.4173 170.747 44.253 170.747 44.049C170.747 43.8563 170.809 43.6977 170.934 43.573C171.058 43.4483 171.211 43.386 171.393 43.386C171.574 43.386 171.727 43.4483 171.852 43.573C171.976 43.6977 172.039 43.8563 172.039 44.049C172.039 44.253 171.976 44.4173 171.852 44.542C171.727 44.6553 171.574 44.712 171.393 44.712ZM171.767 46.769V56H171.002V46.769H171.767ZM178.039 46.65C179.014 46.65 179.841 46.888 180.521 47.364C181.201 47.8287 181.677 48.4293 181.949 49.166V46.769H182.714V56.289C182.714 57.139 182.527 57.8813 182.153 58.516C181.779 59.162 181.275 59.655 180.64 59.995C180.005 60.3463 179.297 60.522 178.515 60.522C177.359 60.522 176.401 60.2443 175.642 59.689C174.883 59.1337 174.384 58.3857 174.146 57.445H174.911C175.138 58.1817 175.563 58.7653 176.186 59.196C176.809 59.638 177.586 59.859 178.515 59.859C179.161 59.859 179.745 59.7117 180.266 59.417C180.787 59.1337 181.195 58.72 181.49 58.176C181.796 57.6433 181.949 57.0143 181.949 56.289V53.586C181.677 54.3227 181.195 54.9347 180.504 55.422C179.824 55.898 179.002 56.136 178.039 56.136C177.178 56.136 176.407 55.9433 175.727 55.558C175.058 55.1613 174.531 54.606 174.146 53.892C173.772 53.1667 173.585 52.328 173.585 51.376C173.585 50.424 173.772 49.591 174.146 48.877C174.531 48.163 175.058 47.6133 175.727 47.228C176.407 46.8427 177.178 46.65 178.039 46.65ZM181.949 51.376C181.949 50.5713 181.779 49.863 181.439 49.251C181.11 48.6277 180.657 48.1517 180.079 47.823C179.501 47.483 178.855 47.313 178.141 47.313C177.393 47.313 176.736 47.4773 176.169 47.806C175.602 48.1233 175.16 48.588 174.843 49.2C174.526 49.812 174.367 50.5373 174.367 51.376C174.367 52.2147 174.526 52.94 174.843 53.552C175.16 54.164 175.602 54.6343 176.169 54.963C176.747 55.2917 177.404 55.456 178.141 55.456C178.855 55.456 179.501 55.2917 180.079 54.963C180.668 54.623 181.127 54.147 181.456 53.535C181.785 52.9117 181.949 52.192 181.949 51.376ZM189.172 46.582C190.26 46.582 191.149 46.922 191.841 47.602C192.532 48.2707 192.878 49.268 192.878 50.594V56H192.13V50.645C192.13 49.5457 191.852 48.707 191.297 48.129C190.741 47.5397 189.988 47.245 189.036 47.245C188.038 47.245 187.239 47.5623 186.639 48.197C186.049 48.8317 185.755 49.7723 185.755 51.019V56H184.99V43.42H185.755V48.724C186.015 48.0327 186.452 47.5057 187.064 47.143C187.676 46.769 188.378 46.582 189.172 46.582ZM196.21 47.432V53.535C196.21 54.215 196.335 54.6853 196.584 54.946C196.834 55.1953 197.276 55.32 197.91 55.32H198.947V56H197.791C196.987 56 196.392 55.813 196.006 55.439C195.632 55.0537 195.445 54.419 195.445 53.535V47.432H194.051V46.769H195.445V44.423H196.21V46.769H198.947V47.432H196.21Z" fill="white"/>
</svg>
