<svg width="35" height="35" viewBox="0 0 35 35" fill="none" xmlns="http://www.w3.org/2000/svg">
<path d="M24.2189 20.769C28.4203 14.8363 27.0152 6.62124 21.0825 2.42087C15.1498 -1.7795 6.93471 -0.375364 2.73434 5.55835C-1.46602 11.4911 -0.061887 19.7051 5.87182 23.9055C10.1063 26.9034 15.7048 27.1343 20.1711 24.4966L29.8756 34.1429C30.9235 35.246 32.6669 35.2901 33.7699 34.2423C34.8729 33.1955 34.9171 31.4521 33.8703 30.3491C33.8371 30.3139 33.805 30.2818 33.7699 30.2487L24.2189 20.769ZM13.4686 21.6683C8.78046 21.6693 4.97956 17.8714 4.97655 13.1832C4.97554 8.49509 8.77344 4.69418 13.4626 4.69218C18.1447 4.69017 21.9436 8.48204 21.9527 13.1642C21.9607 17.8533 18.1648 21.6603 13.4746 21.6683C13.4726 21.6683 13.4716 21.6683 13.4686 21.6683Z" fill="white"/>
</svg>
