<svg xmlns="http://www.w3.org/2000/svg" xmlns:xlink="http://www.w3.org/1999/xlink" viewBox="0 0 175.95 198.49"><defs><style>.cls-1{fill:#d7d7d7;}.cls-2{clip-path:url(#clip-path);}.cls-3{fill:#f1d8af;}.cls-4{fill:#b73955;}.cls-5{fill:#a08e73;}.cls-6{fill:#452e13;}.cls-7{fill:#910011;}.cls-8{fill:#661025;}.cls-9{fill:none;}</style><clipPath id="clip-path"><circle class="cls-1" cx="86.9" cy="100.57" r="75.38"/></clipPath></defs><g id="Calque_2" data-name="Calque 2"><g id="Calque_1-2" data-name="Calque 1"><circle class="cls-1" cx="86.9" cy="100.57" r="75.38"/><g class="cls-2"><path class="cls-3" d="M72.35,95.9l-2.07,18.61a12.76,12.76,0,0,0,.2,5.54,12.37,12.37,0,0,0,3.64,4.78c2,1.82,4,3.61,6,5.35a7.64,7.64,0,0,0,4,2.17c2.06.2,3.88-1.21,5.45-2.53l7.56-6.34c2.21-1.86,4.48-3.79,5.77-6.36a17.91,17.91,0,0,0,1.56-6.5,55.77,55.77,0,0,0,0-9.67,2,2,0,0,0-.37-1.17,2,2,0,0,0-1.69-.36c-10,.69-19.41-5.65-29.38-5"/><path class="cls-4" d="M19.68,144.69c.08-1.73,3.52-8.9,4.66-11.45a9.27,9.27,0,0,1,2.15-3.16,12.13,12.13,0,0,1,4.61-2.3l35.22-11.66a7,7,0,0,1,2.42-.49,7.8,7.8,0,0,1,2.56.73c11.37,4.59,21.25,6.56,31.3-.45.8-.56,1.68-2.63,2.65-2.74a5.33,5.33,0,0,1,2.27.28c9.36,3.06,22.43,4.2,31.79,7.26a30.25,30.25,0,0,1,7.9,3.44s7.7,6.18,10.07,19.3c6.15,34-15.5,59.35-73.83,54.43C42.32,194.41,17.69,184.84,19.68,144.69Z"/></g><path class="cls-3" d="M52.54,41.24A62.29,62.29,0,0,1,50,59c-2.17-2.49-6.54-1.88-8.74.58S38.64,65.67,39.07,69c.35,2.64,1.29,5.38,3.41,7s5.64,1.53,7.08-.71c4.26,10.08,10.63,19.63,19.84,25.55s21.6,7.62,31.21,2.38c4.44-2.42,8-6.12,11.35-10,4.08-4.72,8-10,8.75-16.22a8.2,8.2,0,0,0,11.87-11.13A8.47,8.47,0,0,0,122,63.47q.42-11.26-.2-22.52a7.3,7.3,0,0,0-.93-3.81,6.51,6.51,0,0,0-2.24-1.85c-7.24-4.19-15.92-5.16-24.29-4.95S77.67,31.83,69.3,31.73c-4-.05-8.11-.38-11.76,1.19s-6.53,5.85-5,9.51"/><path class="cls-5" d="M51,41.15a63.72,63.72,0,0,1-2.53,17.78l2.94.08c-2.22-2.38-6.59-2.48-9.41-1.18-3.47,1.59-4.69,5.54-4.61,9.11s1.13,7.87,4.53,9.6c2.6,1.33,7.17,1.53,9-1.12l-2.93-.27c5.11,12,13.35,23.7,25.86,28.75a37.09,37.09,0,0,0,19.23,2.4c6.79-1,12.39-4.6,17.12-9.46,5.29-5.44,10.86-12,11.94-19.76L119.26,77a11.93,11.93,0,0,0,10.26,1.73,8.2,8.2,0,0,0,6-7.36c.6-7.77-8.82-11.23-14.94-8.08l2.94.27a189,189,0,0,0-.25-23.32,5.65,5.65,0,0,0-1.66-3.92,16.37,16.37,0,0,0-4-2.33,39.37,39.37,0,0,0-9.54-3c-7.05-1.33-14.25-1.15-21.38-.63-3.93.29-7.85.67-11.79.88s-7.58,0-11.37.1c-3.43.1-7.18.6-9.88,2.92-2.29,2-3.79,5.11-2.64,8.09.29.74,3,.31,3,.17a6.88,6.88,0,0,1,1.74-7.15C58,33,61,32.22,64.08,32.07c3.33-.17,6.68.08,10,0,3.57-.13,7.12-.42,10.68-.71,6.65-.53,13.37-1.07,20-.11a36.81,36.81,0,0,1,9.28,2.54,22.25,22.25,0,0,1,4.07,2.14,5,5,0,0,1,2.09,3.77,109.83,109.83,0,0,1,.44,11.48q.08,6.12-.15,12.24c0,.66,2.59.45,2.94.27,5-2.55,9.43,2.78,9.07,7.55a8,8,0,0,1-3.23,5.93,5.65,5.65,0,0,1-7.14-.14c-.33-.26-2.86-.72-3-.08-.9,6.54-5,11.93-9.24,16.76s-9,9.22-15.16,11.15C82.59,108.63,70,102.16,62,93.13a64.57,64.57,0,0,1-10.93-17.8c-.22-.52-2.61-.73-2.93-.27a3.45,3.45,0,0,1-2.58,1.63c-1.08,0-2.19-1.16-2.82-1.93a12.77,12.77,0,0,1-2.3-7.64,10.57,10.57,0,0,1,2.28-7.34,6.24,6.24,0,0,1,3-1.85A2.78,2.78,0,0,1,48.55,59c.33.35,2.78.68,3,.07A63.63,63.63,0,0,0,54,41.32c0-.56-3-.65-3-.17Z"/><path class="cls-6" d="M68.87,62.13C67.74,64.44,70.56,67,73.14,67A5.45,5.45,0,0,0,78,64a4.1,4.1,0,0,0-1.46-5.19,4.47,4.47,0,0,0-5,.88,8.29,8.29,0,0,0-2.25,4.89"/><path class="cls-6" d="M94.47,62.13C93.35,64.44,96.16,67,98.74,67A5.48,5.48,0,0,0,103.56,64a4.11,4.11,0,0,0-1.47-5.19,4.47,4.47,0,0,0-5,.88,8.29,8.29,0,0,0-2.25,4.89"/><path class="cls-7" d="M78.33,85.31,91,85.75a1.05,1.05,0,0,1,.91.35,1,1,0,0,1,.08.61c-.12,1.74-.45,3.78-2,4.54a5,5,0,0,1-3.29,0c-2.78-.62-5.78-1.38-7.52-3.62"/><path class="cls-5" d="M64.61,100.1c1.35,2,4.1,2.38,5.32,4.46,1,1.76.84,4.07.61,6a23.18,23.18,0,0,0-.5,3.51c0,.7.89-1.08.31-.83a3.2,3.2,0,0,0-.5.41,14.27,14.27,0,0,1-1.52,1.06c-4.74,2.78-10.2,3.47-15.41,4.91-3.09.85-6.17,1.68-9.33,2.26a43.06,43.06,0,0,0-9.35,2.88,28.15,28.15,0,0,0-8.1,5.1,16.13,16.13,0,0,0-4.39,7.93c-.07.28-.31,1.14.15,1.15s.8-1.42.86-1.66c1.49-5.94,8.67-9.1,13.91-10.93A94,94,0,0,1,46.44,124c3.27-.77,6.48-1.8,9.76-2.56,4.62-1.07,10-2.1,13.6-5.47,1.51-1.41,1.49-3.86,1.77-5.77a16.83,16.83,0,0,0,0-7A5.32,5.32,0,0,0,69,100a9.06,9.06,0,0,1-3.29-2.55c-.23-.34-1.55,2-1.12,2.68Z"/><path class="cls-6" d="M61.07,44.26c4.64-1,9.66,1.68,14.11,0C76.66,43.74,80,39.2,81,38a77.4,77.4,0,0,0,7-9.29,9.74,9.74,0,0,0,1.8,10.07c2.43,2.65,8.13,5.73,11.56,4.65.25-3.26-.66-8.49.6-11.51.3,2.68.65,5.49,2.18,7.72s4.62,3.65,7,2.39L118,60.15a5.58,5.58,0,0,0,1.69,2.72c2.21,1.6,5.24-.63,8-.39,3.56.32,5.31,5,4,8.33s-4.39,5.56-7.35,7.57c-1.65,1.12-3.76,2.28-5.52,1.33-1.38,5.75-5.55,10.33-9.07,15.08s-6.63,10.54-5.39,16.32a173.54,173.54,0,0,0,35.44-10,4.64,4.64,0,0,0,3.54-5.1A101,101,0,0,0,132.07,41.6c-4.57-8.66-10.73-16.93-19.45-21.39-6.5-3.33-13.94-4.29-21.23-4.7-12.53-.71-23.22.87-33.83,7.57C46.28,30.21,37,42.4,34.24,55.46s-2,26.58-1.17,39.91c.11,1.92.27,4,1.45,5.48a8.94,8.94,0,0,0,3.58,2.44c7.59,3.41,15.79,5.21,23.92,7,3.75.83,9.06.71,9.81-3.06.63-3.18-2.85-5.46-5.58-7.2a33.08,33.08,0,0,1-12.94-15.8c-1.09-2.82-2-6-4.47-7.69A25.91,25.91,0,0,0,45,74.8,11.47,11.47,0,0,1,39.5,60.32,5.09,5.09,0,0,1,41,58.22c2.71-2,6.25.93,8.32,3.58,2.13-7.42,3.15-11.17,7.28-17.69,1.3-2,4-4.23,5.77-2.55"/><path class="cls-8" d="M69.73,117.87a34.48,34.48,0,0,0,35.75-2.11c1.36-1,.69-3.11-.93-2a32,32,0,0,1-33.24,1.6c-1.17-.64-2.94,1.75-1.58,2.49Z"/><circle class="cls-9" cx="87.97" cy="87.97" r="87.97"/></g></g></svg>