<svg xmlns="http://www.w3.org/2000/svg" xmlns:xlink="http://www.w3.org/1999/xlink" viewBox="0 0 103.62 76.58"><defs><style>.cls-1{fill:#fff;}.cls-2{fill:#5db57d;}.cls-3{fill:url(#Dégradé_sans_nom_12);}.cls-4{fill:url(#Dégradé_sans_nom_12-2);}.cls-5{fill:url(#Dégradé_sans_nom_12-3);}.cls-6{fill:#1d66ae;}</style><linearGradient id="Dégradé_sans_nom_12" x1="25.7" y1="35.77" x2="46.36" y2="35.77" gradientUnits="userSpaceOnUse"><stop offset="0" stop-color="#1b66ad"/><stop offset="1" stop-color="#1c66ac"/></linearGradient><linearGradient id="Dégradé_sans_nom_12-2" x1="22.59" y1="37.37" x2="38.7" y2="37.37" xlink:href="#Dégradé_sans_nom_12"/><linearGradient id="Dégradé_sans_nom_12-3" x1="22.59" y1="31.83" x2="38.7" y2="31.83" xlink:href="#Dégradé_sans_nom_12"/></defs><title>paie-rapide</title><g id="Calque_2" data-name="Calque 2"><g id="Calque_1-2" data-name="Calque 1"><path class="cls-1" d="M18.72,13.93c5.74-6,14.81-7.66,23.06-6.78s16.09,3.95,24.11,6.12,16.68,3.39,24.51.64l-.51,32.52a7.18,7.18,0,0,1-.66,3.51A6.88,6.88,0,0,1,87,52c-8.22,5.6-18,9.49-27.94,8.73-7.25-.56-14.05-3.52-21-5.62s-14.68-3.3-21.35-.41q2.9-20.77,4-41.74"/><path class="cls-2" d="M21,14.66C27.19,8.35,36.45,7,44.82,8.37,55.2,10,64.85,14.61,75.3,16a37.7,37.7,0,0,0,17.12-1.22L88,13.36l-.38,23.9-.09,5.67c0,1.83.23,4-.38,5.74-.5,1.46-1.87,2.28-3.1,3.09q-2.36,1.56-4.85,2.9c-6,3.22-12.93,5.48-19.85,5.23-7.23-.27-14-3.46-20.83-5.48-7.57-2.23-16.22-3.72-23.76-.56l4.46,1.4q2.88-20.78,4-41.73c.07-1.28-4.83-2-4.88-1.1q-1.11,20.94-4,41.74c-.16,1.2,3.75,1.7,4.46,1.4,6.66-2.8,13.66-1.43,20.29.69,7.35,2.35,14.62,5.2,22.43,5.49A43.21,43.21,0,0,0,81.83,57.1a37.64,37.64,0,0,0,8.73-5.28,5.38,5.38,0,0,0,1.74-4c.11-2.07.08-4.16.11-6.23l.43-27.1c0-1.27-3.64-1.68-4.46-1.4-10,3.41-20.16.16-29.81-2.77S39,4.7,29,6.72a24,24,0,0,0-12.53,6.49c-.69.7,3.71,2.37,4.61,1.45Z"/><path class="cls-1" d="M9.49,8.39c5.74-6,14.8-7.66,23.06-6.78s16.09,3.95,24.1,6.12,16.68,3.39,24.52.64l-.52,32.52A7.18,7.18,0,0,1,80,44.4a6.92,6.92,0,0,1-2.2,2.07c-8.22,5.6-18,9.49-27.93,8.73-7.25-.56-14.06-3.52-21-5.62s-14.67-3.3-21.34-.41q2.89-20.77,4-41.74"/><path class="cls-2" d="M11.56,9.8C17.82,3.38,27.36,2,35.9,3.2c10.44,1.42,20.11,6,30.51,7.62A35.4,35.4,0,0,0,83.24,9.77L79.1,7l-.39,24.14L78.62,37c0,1.69.19,3.62-.37,5.24S76.31,44.69,75,45.55Q72.84,47,70.55,48.24c-6.27,3.4-13.3,5.71-20.48,5.64-7.45-.08-14.41-2.92-21.4-5.16-7.44-2.39-15.73-4.1-23.23-1l4.14,2.81q2.88-20.77,4-41.74c0-.52-1.55-1.38-1.92-1.63A24.7,24.7,0,0,0,9.44,6Q8.32,27,5.44,47.76c-.08.61,3.59,3,4.14,2.81,14.36-6,28.47,5.18,42.67,6.07a40.72,40.72,0,0,0,20.11-4.4A37.81,37.81,0,0,0,81.09,47a5.4,5.4,0,0,0,1.62-4.25c.07-1.94.07-3.89.1-5.83l.43-27.1c0-.54-1.53-1.37-1.92-1.63S79.67,6.77,79.1,7C59.06,13.81,40.2-3.25,20,.56A23.55,23.55,0,0,0,7.42,7c-.09.09,3.66,3.3,4.14,2.81Z"/><path class="cls-1" d="M4,15.78C9.69,9.78,18.75,8.11,27,9S43.1,13,51.11,15.11s16.68,3.4,24.52.65l-.52,32.52a7.2,7.2,0,0,1-.65,3.51,6.79,6.79,0,0,1-2.2,2.06c-8.22,5.6-18,9.5-27.93,8.74-7.25-.56-14.06-3.52-21-5.63S8.64,53.66,2,56.55C3.9,42.71,3.75,28.82,4.49,14.86"/><path class="cls-2" d="M5.78,17.48c6.2-6.35,15.65-7.61,24.07-6.41,10.42,1.47,20.09,6.08,30.5,7.62A35.73,35.73,0,0,0,77.2,17.6l-3.54-3.28-.37,23.91-.09,5.66c0,1.81.26,4-.38,5.74-.52,1.4-1.93,2.22-3.11,3-1.61,1.06-3.27,2-5,3-6.09,3.19-13,5.38-19.9,5.22-7.46-.18-14.38-3.14-21.41-5.33C16,53.18,7.78,51.6.4,54.71L3.93,58c1.9-13.82,1.79-27.79,2.52-41.69,0-1.07-1-2.06-1.75-2.64-.31-.23-2.12-1.26-2.17-.22C1.8,27.33,1.91,41.3,0,55.12-.16,56.34,2.25,59,3.54,58.4c14.38-6,28.59,5.4,42.86,6.11a41.53,41.53,0,0,0,20.32-4.63,39,39,0,0,0,8.6-5.24,5.64,5.64,0,0,0,1.73-4.12c.11-2.07.07-4.16.11-6.23l.43-27.1c0-1.27-2.11-3.77-3.54-3.28-10.11,3.45-20.68.45-30.49-2.54C34.21,8.53,24.45,5.59,14.62,7.58a23.94,23.94,0,0,0-12.5,6.5c-1,1.06,2.58,4.5,3.66,3.4Z"/><path class="cls-3" d="M44.77,23.66a13.69,13.69,0,0,0-17.11,5.91c-3.34,6-2.69,15,4.14,18.17,4.06,1.89,8.43,1.09,12.62.19,1.14-.24,1-1.87.63-2.63a2.51,2.51,0,0,0-2.77-1.38c-3.22.69-7.25,1.62-10.27-.25-2.58-1.6-2.61-5.31-2-8a11.52,11.52,0,0,1,5.27-7.49,10.13,10.13,0,0,1,8.68-.81c1,.38,2.12.23,2.39-.92a2.72,2.72,0,0,0-1.55-2.83Z"/><path class="cls-4" d="M25.79,39.28a83.77,83.77,0,0,1,12.27-.23c1,.05.64-.92.28-1.47-.47-.72-1.51-1.93-2.48-2a88.18,88.18,0,0,0-12.9.21c-.92.09.14,1.67.36,1.93.56.66,1.51,1.63,2.47,1.54Z"/><path class="cls-5" d="M25.79,33.74a83.77,83.77,0,0,1,12.27-.23c1,.05.64-.92.28-1.47-.47-.72-1.51-1.93-2.48-2a88.18,88.18,0,0,0-12.9.21c-.92.09.14,1.67.36,1.93.56.66,1.51,1.63,2.47,1.54Z"/><path class="cls-1" d="M69.17,30.71a21.9,21.9,0,0,0-7,37.06,27.59,27.59,0,0,0,9.84,5.35,24.31,24.31,0,0,0,6.36,1.25c7,.32,13.8-3.6,17.94-9.26s5.81-12.84,5.75-19.85a11.63,11.63,0,0,0-.87-5,11.37,11.37,0,0,0-4-4.16,39.3,39.3,0,0,0-28.73-6.22"/><path class="cls-6" d="M68.26,29.55c-9.63,3.62-15.85,14.87-14.85,24.94a23.51,23.51,0,0,0,6.45,14.05A29,29,0,0,0,75.3,76.26c11.49,2,21.81-5.94,25.86-16.28a35.28,35.28,0,0,0,2.09-8.46,27.33,27.33,0,0,0,0-8.75,14.8,14.8,0,0,0-3-5.68,16.4,16.4,0,0,0-4-4.21,32.22,32.22,0,0,0-10.41-4.66c-5.9-1.28-11.89-.4-17.6,1.33-1.81.54-1,2.74.82,2.2a32.36,32.36,0,0,1,14.28-1.43,25.41,25.41,0,0,1,8.77,3.29,15.76,15.76,0,0,1,3.17,2.11,28.78,28.78,0,0,1,3.57,4.51c2.67,4,2,9.59,1,14.11-2,9.59-8.8,18.94-19.25,19.79-5.26.42-11-1.76-15.32-4.71a21.1,21.1,0,0,1-8.28-11.59c-2.83-9.74,2.17-22.38,12-26.08,1.76-.66.94-2.86-.82-2.2Z"/><path class="cls-6" d="M74.48,39.59a60.6,60.6,0,0,0,.09,9c.21,2.38.44,5.89,3.65,5.8a16,16,0,0,0,4.24-1.18l4.31-1.4L95.57,49c1.82-.59,1-3.49-.8-2.89L79.86,50.94a5.08,5.08,0,0,1-1.67.49c-.28,0,0,.11-.15,0s-.13-.31-.17-.44a16.11,16.11,0,0,1-.38-3.47,58.15,58.15,0,0,1,0-7.92c.12-1.93-2.88-1.92-3,0Z"/><path class="cls-6" d="M80.52,73.85a5.84,5.84,0,0,1-.18-.83l0,.4a4.86,4.86,0,0,1,0-1.32l-.06.4a.69.69,0,0,0,0-.13,1.22,1.22,0,0,0,0-.6,1.16,1.16,0,0,0-.18-.56,1.56,1.56,0,0,0-.9-.69,1.54,1.54,0,0,0-1.15.16l-.3.23a1.49,1.49,0,0,0-.39.66,6.74,6.74,0,0,0-.1,1.55,7.11,7.11,0,0,0,.27,1.53,1.55,1.55,0,0,0,.69.9A1.5,1.5,0,0,0,80.37,75a1.52,1.52,0,0,0,.15-1.16Z"/><path class="cls-6" d="M73.36,29.33a5.72,5.72,0,0,0-.07,1.43,5.61,5.61,0,0,0,.29,1.41,1,1,0,0,0,.27.51,1.13,1.13,0,0,0,.42.39,1,1,0,0,0,.55.17,1.11,1.11,0,0,0,.6,0,1.49,1.49,0,0,0,.9-.69,1.47,1.47,0,0,0,.15-1.16,4,4,0,0,1-.22-.9l0,.4a4.26,4.26,0,0,1,0-1.07l0,.4v-.07a1.11,1.11,0,0,0,0-.6,1.29,1.29,0,0,0-.56-1,1.26,1.26,0,0,0-.51-.27,1.51,1.51,0,0,0-1.16.15l-.3.24a1.39,1.39,0,0,0-.39.66Z"/><path class="cls-6" d="M99.33,52.57h2a1.5,1.5,0,0,0,1.06-.44,1,1,0,0,0,.31-.48,1.06,1.06,0,0,0,.13-.58,1.47,1.47,0,0,0-.44-1.06,1.54,1.54,0,0,0-1.06-.44h-2a1.56,1.56,0,0,0-1.06.44,1.11,1.11,0,0,0-.31.49,1,1,0,0,0-.13.57,1.5,1.5,0,0,0,.44,1.06,1.54,1.54,0,0,0,1.06.44Z"/><path class="cls-6" d="M56.63,55.3h5a1.5,1.5,0,1,0,0-3h-5a1.5,1.5,0,0,0,0,3Z"/><path class="cls-6" d="M83.19,30.48l-.45,2a1.66,1.66,0,0,0,.15,1.16,1.31,1.31,0,0,0,.39.42,1.14,1.14,0,0,0,.51.27,1.49,1.49,0,0,0,1.15-.15,1.51,1.51,0,0,0,.69-.9l.45-2a1.56,1.56,0,0,0-.15-1.16,1,1,0,0,0-.39-.42,1.14,1.14,0,0,0-.51-.27,1.49,1.49,0,0,0-1.15.15,1.51,1.51,0,0,0-.69.9Z"/><path class="cls-6" d="M96,35.91l-1.14,1.14a1.24,1.24,0,0,0-.31.48,1.36,1.36,0,0,0,0,1.16,1.24,1.24,0,0,0,.31.48l.31.24a1.5,1.5,0,0,0,.75.2l.4,0a1.39,1.39,0,0,0,.66-.39L98.1,38a1.17,1.17,0,0,0,.31-.48,1.36,1.36,0,0,0,0-1.16,1.24,1.24,0,0,0-.31-.48l-.31-.23a1.42,1.42,0,0,0-.75-.21l-.4.05a1.47,1.47,0,0,0-.66.39Z"/><path class="cls-6" d="M93.83,63.69l1.34.93a1.16,1.16,0,0,0,.56.18,1.12,1.12,0,0,0,.6,0,1,1,0,0,0,.51-.27,1.13,1.13,0,0,0,.39-.42l.15-.35a1.55,1.55,0,0,0,0-.8l-.15-.36a1.55,1.55,0,0,0-.54-.54l-1.35-.93a1.12,1.12,0,0,0-.56-.18,1.22,1.22,0,0,0-.6,0,1.26,1.26,0,0,0-.51.27,1.18,1.18,0,0,0-.38.42l-.15.36a1.36,1.36,0,0,0,0,.8l.15.36a1.45,1.45,0,0,0,.54.53Z"/><path class="cls-6" d="M86,70l1.13,1.82a1.52,1.52,0,0,0,.9.69,1.08,1.08,0,0,0,.59,0,1.12,1.12,0,0,0,.56-.18,1.5,1.5,0,0,0,.69-.89,1.52,1.52,0,0,0-.15-1.16L88.6,68.48a1.58,1.58,0,0,0-.9-.69,1.22,1.22,0,0,0-.6,0,1.16,1.16,0,0,0-.56.18A1.51,1.51,0,0,0,86,70Z"/><path class="cls-6" d="M69.22,72,70,70.68a1,1,0,0,0,.17-.56,1.08,1.08,0,0,0,0-.59,1.14,1.14,0,0,0-.27-.51,1.12,1.12,0,0,0-.42-.39l-.36-.15a1.55,1.55,0,0,0-.8,0l-.36.15a1.45,1.45,0,0,0-.53.54l-.75,1.32a1.73,1.73,0,0,0-.16,1.16,1.26,1.26,0,0,0,.27.51,1.18,1.18,0,0,0,.42.38l.36.16a1.55,1.55,0,0,0,.8,0l.36-.16a1.61,1.61,0,0,0,.54-.53Z"/><path class="cls-6" d="M58.9,64.4a4.27,4.27,0,0,0,1.38-.26,4.68,4.68,0,0,0,.79-.36,5.86,5.86,0,0,0,.71-.52,1.21,1.21,0,0,0,.31-.49,1.22,1.22,0,0,0,.13-.57,1.27,1.27,0,0,0-.13-.58,1.11,1.11,0,0,0-.31-.48,1.49,1.49,0,0,0-1.06-.44l-.4,0a1.47,1.47,0,0,0-.67.39l-.11.09.3-.23a3.14,3.14,0,0,1-.64.37l.35-.15a3.21,3.21,0,0,1-.75.21l.4-.06a1.53,1.53,0,0,1-.3,0,1.58,1.58,0,0,0-1.06.44,1.17,1.17,0,0,0-.31.48,1.27,1.27,0,0,0-.13.58A1.54,1.54,0,0,0,57.84,64a1.56,1.56,0,0,0,1.06.44Z"/><path class="cls-6" d="M57.91,43.08l2.25,1a1.12,1.12,0,0,0,.56.18,1,1,0,0,0,.59,0,1.48,1.48,0,0,0,1-1.84L62.21,42a1.55,1.55,0,0,0-.54-.54l-2.25-1a1,1,0,0,0-.56-.17,1.08,1.08,0,0,0-.59,0,1.56,1.56,0,0,0-.9.69,1.52,1.52,0,0,0-.15,1.16l.15.36a1.45,1.45,0,0,0,.54.53Z"/><path class="cls-6" d="M63.2,35.93,65,37.17a1.12,1.12,0,0,0,.55.18,1.22,1.22,0,0,0,.6,0,1,1,0,0,0,.51-.27,1,1,0,0,0,.39-.42,1.5,1.5,0,0,0,.15-1.15L67,35.12a1.4,1.4,0,0,0-.54-.54l-1.74-1.24a1.14,1.14,0,0,0-.56-.17,1.11,1.11,0,0,0-.6,0,1.14,1.14,0,0,0-.51.27,1.31,1.31,0,0,0-.39.42A1.56,1.56,0,0,0,62.51,35l.15.36a1.61,1.61,0,0,0,.54.53Z"/></g></g></svg>