<svg xmlns="http://www.w3.org/2000/svg" xmlns:xlink="http://www.w3.org/1999/xlink" viewBox="0 0 93.95 48.7"><defs><style>.cls-1{fill:#fff;}.cls-2{fill:url(#Dégradé_sans_nom_12);}.cls-3{fill:url(#Dégradé_sans_nom_12-2);}.cls-4{fill:url(#Dégradé_sans_nom_12-3);}.cls-5{fill:url(#Dégradé_sans_nom_12-4);}.cls-6{fill:url(#Dégradé_sans_nom_12-5);}.cls-7{fill:url(#Dégradé_sans_nom_12-6);}.cls-8{fill:url(#Dégradé_sans_nom_12-7);}.cls-9{fill:#1d66af;}</style><linearGradient id="Dégradé_sans_nom_12" x1="41.38" y1="43.5" x2="52.57" y2="43.5" gradientUnits="userSpaceOnUse"><stop offset="0" stop-color="#1b66ae"/><stop offset="1" stop-color="#1c66ad"/></linearGradient><linearGradient id="Dégradé_sans_nom_12-2" x1="10.94" y1="24.37" x2="74.11" y2="24.37" xlink:href="#Dégradé_sans_nom_12"/><linearGradient id="Dégradé_sans_nom_12-3" x1="19.91" y1="30.83" x2="29.09" y2="30.83" xlink:href="#Dégradé_sans_nom_12"/><linearGradient id="Dégradé_sans_nom_12-4" x1="22.94" y1="34.36" x2="37.4" y2="34.36" xlink:href="#Dégradé_sans_nom_12"/><linearGradient id="Dégradé_sans_nom_12-5" x1="27.85" y1="37.96" x2="43.03" y2="37.96" xlink:href="#Dégradé_sans_nom_12"/><linearGradient id="Dégradé_sans_nom_12-6" x1="30.69" y1="15.71" x2="88.22" y2="15.71" xlink:href="#Dégradé_sans_nom_12"/><linearGradient id="Dégradé_sans_nom_12-7" x1="79.52" y1="15.89" x2="93.95" y2="15.89" gradientTransform="translate(8.03 -23.88) rotate(16.43)" xlink:href="#Dégradé_sans_nom_12"/></defs><title>partenairespx</title><g id="Calque_2" data-name="Calque 2"><g id="Calque_1-2" data-name="Calque 1"><path class="cls-1" d="M46,40.72c-1.45,1.7-3.69,3.24-4,5.39a2.24,2.24,0,0,0,.85,1.7,5.61,5.61,0,0,0,1.48.27c3.31,0,6-2.64,7.25-5.51a3,3,0,0,0,.14-2.7c-.68-1.12-2.5-1.21-3.66-.5s-2.32,1.09-2.9,2.26"/><path class="cls-2" d="M45.61,40.32C44.12,42,41.79,43.59,41.4,46a2.48,2.48,0,0,0,1.23,2.41,5.24,5.24,0,0,0,2.83.17,9.08,9.08,0,0,0,5.62-3.91c1.14-1.64,2.64-4.94.09-6.08a3.83,3.83,0,0,0-3.42.27c-1.18.67-2.46,1.25-3.13,2.5a.59.59,0,1,0,1.05.53,4.69,4.69,0,0,1,2.14-1.71,3.33,3.33,0,0,1,2.32-.61c2.25.43.82,3.17.06,4.34a7.92,7.92,0,0,1-4.32,3.35,4.67,4.67,0,0,1-2.25.11c-.3,0-.45,0-.63-.28a1.59,1.59,0,0,1-.39-1,5,5,0,0,1,1.52-2.55c.76-.83,1.6-1.57,2.34-2.42.53-.61-.32-1.42-.85-.8Z"/><path class="cls-3" d="M10.94,26.09V7.6c2.09-.15,7.82.58,9.92.66,1.9.07,3.62-1,5.23-1.9C31.94,3,39,2.17,45.82,2.42a5,5,0,0,1,2.38.74c1.7,1,1.59,1.34,1.25,3.18s-.87,3.87.14,5.48a8.7,8.7,0,0,0,3.21,2.45c5.3,3.1,9.06,8.17,14.46,11.13a37.51,37.51,0,0,1,4.36,2.4,5.42,5.42,0,0,1,2.49,3.94c.07,2.43-1.13,3.73-3.71,4s-6.5-1.71-8.72-3a72,72,0,0,1-8.85-5.39l14.39,8.35c.47,1.27,1.26,3.88.44,5a4.52,4.52,0,0,1-3.61,1.66c-1.19,0-4-1.47-5.55-2.21-4.16-1.95-5.91-3.91-9.51-6.66L62.93,42.8l-1.06.9a6,6,0,0,1-1.64,1.09,6.33,6.33,0,0,1-3.15.05c-2.76-.44-5.59-2.05-8.09-3.21-1.58-.74-2.84-2.21-4.76-3.7l10.49,6.8c-2.08,2.29-5.95,1.72-9.07,1a31,31,0,0,1-6.18-2c-3.94-1.92-6.72-5.35-9.62-8.48s-6.36-6.21-10.73-7c-2.8-.48-6.06-.06-8.12-1.9"/><path class="cls-1" d="M11.58,26.15V7.66l-.5.25A55.37,55.37,0,0,1,19,8.44a11.6,11.6,0,0,0,3.72-.07,19.93,19.93,0,0,0,4.55-2.15A30.73,30.73,0,0,1,38.56,3a48.44,48.44,0,0,1,5.9-.25,6.24,6.24,0,0,1,3.27.64C48.32,3.67,49,4,49,4.77c.13,1.54-.65,3.13-.65,4.69a4.4,4.4,0,0,0,1.8,3.64c1.35,1,2.94,1.76,4.32,2.77s2.91,2.32,4.3,3.55a43.46,43.46,0,0,0,8.34,6.33c2.85,1.51,7.61,3.54,6.11,7.66-1.43,3.93-7.24,1.17-9.63,0A75.55,75.55,0,0,1,53.3,27.19l-.94.35,10.39,6,2.74,1.59a5,5,0,0,1,1.25.72,3.39,3.39,0,0,0,.13.64c.12.4.23.8.32,1.21a3.91,3.91,0,0,1-.13,2.84,3.82,3.82,0,0,1-3.15,1.49,7.59,7.59,0,0,1-2.55-.92,40.9,40.9,0,0,1-6.15-3.31c-2-1.36-3.76-3-5.65-4.43l-1,.27L62.46,43l-.06-.38a22.14,22.14,0,0,1-1.84,1.52,3.77,3.77,0,0,1-2.74.52A16.84,16.84,0,0,1,52.75,43a29,29,0,0,1-4.31-2.17c-1.3-.9-2.41-2.06-3.64-3l-1,.28,10.49,6.8-.14-.31c-2.27,2.35-6,1.37-8.82.67a21.52,21.52,0,0,1-9.69-4.75c-4.55-4.09-8-9.74-14-11.92a17.66,17.66,0,0,0-4.72-.89c-1.85-.15-3.85-.21-5.34-1.45-.3-.25-1.53-.13-1.13.21C13,28.55,16.28,28,19.27,28.59c3.78.76,6.84,3.39,9.43,6.1,2.43,2.54,4.64,5.3,7.47,7.42s6.47,3.23,10,4c3,.67,6.78,1.15,9.12-1.27.11-.11,0-.26-.13-.31L44.71,37.75c-.26-.16-1.46,0-1,.28A40.16,40.16,0,0,0,48,41.53a42.32,42.32,0,0,0,5.49,2.59,15,15,0,0,0,5.33,1.2c2,0,3.2-1.09,4.65-2.31.16-.14.09-.28-.07-.38L49.46,33.31c-.26-.17-1.45,0-1,.28,1.8,1.39,3.51,2.9,5.35,4.24a39.8,39.8,0,0,0,5.95,3.32c1.51.73,3.14,1.65,4.87,1.5s3.87-1,4-3A7.8,7.8,0,0,0,68.26,37a3.08,3.08,0,0,0-.61-1.47,9.7,9.7,0,0,0-1.68-1l-7.29-4.22L53.3,27.19c-.31-.18-1.54-.09-.94.35a77.83,77.83,0,0,0,10,6c2.73,1.42,6,3,9.16,2.3a3.8,3.8,0,0,0,2.83-2,4.6,4.6,0,0,0-.33-4.22,10.2,10.2,0,0,0-4.27-3.38,35.5,35.5,0,0,1-5.24-3.12c-3.12-2.36-5.82-5.22-9-7.53-1.52-1.12-3.49-1.87-4.83-3.2-1.66-1.63-1-4-.65-6,.2-1.1.42-2-.53-2.82a7.08,7.08,0,0,0-4.44-1.49,45.06,45.06,0,0,0-12.36,1.2,29.16,29.16,0,0,0-6.07,2.26c-2.08,1-4,2.53-6.41,2.37C17.14,7.71,14,7.1,10.8,7.29c-.13,0-.5,0-.5.25V26c0,.45,1.28.53,1.28.12Z"/><path class="cls-1" d="M22,29.79a4.19,4.19,0,0,0-1.68,2.57,1.56,1.56,0,0,0,.1.91,1.46,1.46,0,0,0,1.1.55C23.35,34,25,33,26.41,31.93c1.23-.88,2.59-2.11,2.2-3.5-1-1.6-5,.11-6.94,1.57"/><path class="cls-4" d="M22.14,29.46a8.18,8.18,0,0,0-1.86,2.24c-.32.63-.66,1.8,0,2.32a3.18,3.18,0,0,0,2.65.14,9.5,9.5,0,0,0,2.52-1.28,13.94,13.94,0,0,0,2.25-1.81,4.76,4.76,0,0,0,1.34-2.23,1.33,1.33,0,0,0-.13-1,1.35,1.35,0,0,0-.63-.42,3.5,3.5,0,0,0-1.76,0,11.92,11.92,0,0,0-4.66,2.2,1.87,1.87,0,0,0-.56.71c-.08.2,0,.27.16.12a11.94,11.94,0,0,1,3.24-1.7c.89-.31,2.16-.69,3.05-.2a1.11,1.11,0,0,1,.41,1.43,3.48,3.48,0,0,1-1.35,1.42,8.19,8.19,0,0,1-4.3,2,2.44,2.44,0,0,1-1.25-.21,1,1,0,0,1-.51-1A2.12,2.12,0,0,1,21.09,31a6.28,6.28,0,0,1,.85-.86c.17-.16.48-.47.5-.72s-.2,0-.3.06Z"/><path class="cls-1" d="M27.59,32a9.81,9.81,0,0,0-3.26,2.61,3,3,0,0,0-.24,3.7,3.52,3.52,0,0,0,3.65.73A9.88,9.88,0,0,0,31,37l3.39-2.89a13.58,13.58,0,0,0,2-2,1.75,1.75,0,0,0,.41-.87c.1-.85-.86-1.5-1.77-1.64a8.33,8.33,0,0,0-4.64,1.11L25.1,33.1"/><path class="cls-5" d="M27.39,31.46c-2.06,1-4.76,3.14-4.42,5.76s3.52,3.09,5.57,2.14A15.31,15.31,0,0,0,32,36.86c1.19-1,2.41-2,3.56-3.06.84-.76,2.14-1.9,1.82-3.18a2.71,2.71,0,0,0-2.56-1.71,9.68,9.68,0,0,0-4.71,1.26l-5.17,2.38c-.69.31-.36,1.45.39,1.1,2.24-1,4.47-2.21,6.78-3.07a4.59,4.59,0,0,1,3.37-.24c.31.14.77.43.77.82s-.72,1.1-1,1.42c-.83.81-1.76,1.55-2.65,2.3s-1.78,1.56-2.71,2.3A6,6,0,0,1,27,38.61a2.66,2.66,0,0,1-2.51-.84c-1.51-2.09,1.77-4.42,3.31-5.21.67-.34.35-1.48-.39-1.1Z"/><path class="cls-1" d="M29.17,38.67c-1.15,1.59-1.58,2.22-.79,4.43.17.48,1.23.68,1.59.74,2.21.38,3.83-.54,5.67-1.75a21.69,21.69,0,0,0,6.64-6.85A2.51,2.51,0,0,0,42.75,33a2.1,2.1,0,0,0-2.23-1,6.49,6.49,0,0,0-2.36,1.08l-5.24,3.38c-2,1.26-3.75,2.21-3.75,2.21"/><path class="cls-6" d="M29.21,38.05a6,6,0,0,0-1.33,3c-.08.87-.05,2.53.74,3.07a5,5,0,0,0,3.74.29,13.21,13.21,0,0,0,4-2.21,22.14,22.14,0,0,0,3.65-3.33,13.56,13.56,0,0,0,2.67-3.92c.38-1,.57-2.57-.5-3.23-1.34-.83-2.85,0-4,.78-3,1.89-5.88,3.92-9,5.58-.3.16-.06,1.23-.13,1.27,1.94-1,3.79-2.24,5.65-3.44,1.31-.84,2.6-1.72,3.94-2.52a3.4,3.4,0,0,1,3.23-.49c.84.42.84,1,.39,1.77a19,19,0,0,1-1.2,1.77,21.72,21.72,0,0,1-2.67,2.92,23,23,0,0,1-3.35,2.53,8.42,8.42,0,0,1-3.34,1.4c-.82.12-2.65.15-3.23-.64a2.62,2.62,0,0,1-.38-1.74,5.25,5.25,0,0,1,1-1.58,1.54,1.54,0,0,0,.15-.77c0-.06,0-.55-.08-.46Z"/><path class="cls-1" d="M78.41,7a13,13,0,0,1-14-1.35c-2.13-1.79-3.79-4.4-6.59-4.94-1.67-.31-3.36.19-5,.47-2.24.36-4.55.32-6.77.77C40.46,3,36.22,7,32.32,10.84a3.58,3.58,0,0,0-1,1.34c-.4,1.18.67,2.45,2,2.78a6.56,6.56,0,0,0,3.87-.48,22.51,22.51,0,0,0,7.65-4.73L42.2,12A15.1,15.1,0,0,0,52.83,7.74a16.06,16.06,0,0,1-3.41,3.72c5.57,8.35,13,14.94,23.35,16.85,0,0,2.44,2.24,1.21,2.47,4-.74,9-2.62,13.68-3.05q-3-9.78-6-19.56a2.25,2.25,0,0,0-.55-1c-1-.84-2-1.07-2.88-.21"/><path class="cls-7" d="M78.2,6.38A12.52,12.52,0,0,1,65,5.29C63.25,3.94,62,2.12,60.11,1c-2.26-1.42-4.58-.95-7-.51-2.71.48-5.51.35-8.17,1.08a20.82,20.82,0,0,0-6.41,3.15A47.75,47.75,0,0,0,33,9.39c-1.38,1.32-3.18,2.91-1.74,4.89,1.58,2.19,4.55,1.42,6.65.59a23.67,23.67,0,0,0,7.26-4.62c.53-.49-.05-1.53-.68-1l-2.59,2.21c-.33.28-.29,1.13.26,1.13A15.78,15.78,0,0,0,53.17,8.24l-.79-.88a16.37,16.37,0,0,1-3.3,3.6.7.7,0,0,0-.12.9A43.45,43.45,0,0,0,61,24.24,31.94,31.94,0,0,0,68.72,28c.67.21,1.35.4,2,.57a11.34,11.34,0,0,1,1.72.35,2.76,2.76,0,0,1,.61.62,5.08,5.08,0,0,1,.41.51,2.4,2.4,0,0,1,.19.29c.07.23.14.18.22-.14-.67.19-.62,1.4.15,1.26,4.59-.89,9-2.58,13.68-3.05.42,0,.56-.55.46-.88l-4.29-14-1-3.39a15,15,0,0,0-.94-2.89,2.63,2.63,0,0,0-4-.79c-.56.47,0,1.52.68,1,2.2-1.88,3,2.54,3.42,3.8l1.71,5.59q1.71,5.6,3.43,11.18l.45-.89c-4.68.47-9.09,2.16-13.69,3l.15,1.26c1.9-.55,0-3-.91-3.6a6.38,6.38,0,0,0-1.91-.48c-.8-.19-1.58-.41-2.36-.66a31.07,31.07,0,0,1-4.64-2c-6-3.11-10.65-8.11-14.36-13.64l-.11.9a17.56,17.56,0,0,0,3.51-3.84c.34-.51-.24-1.41-.78-.88a14.64,14.64,0,0,1-10.21,4.08l.26,1.14,2.59-2.21-.68-1a22.48,22.48,0,0,1-5.84,3.94,13.65,13.65,0,0,1-3.28,1.17c-1.19.21-3,.07-3.47-1.35-.32-1.08,1.34-2.2,2-2.86s1.68-1.59,2.55-2.34A27.3,27.3,0,0,1,42,4a18.17,18.17,0,0,1,6.66-1.79c1.26-.12,2.53-.18,3.79-.36s2.45-.52,3.69-.6c2.38-.16,4,1.13,5.65,2.71a18.54,18.54,0,0,0,4.42,3.62,13.65,13.65,0,0,0,12.44,0c.64-.33.28-1.53-.42-1.16Z"/><rect class="cls-8" x="82.05" y="2.26" width="9.37" height="27.26" rx="4.69" transform="translate(-0.95 25.18) rotate(-16.43)"/><rect class="cls-9" x="0.72" y="1.81" width="9.37" height="27.26" rx="4.69" transform="translate(1.26 -0.38) rotate(4.6)"/></g></g></svg>