<svg xmlns="http://www.w3.org/2000/svg" viewBox="0 0 384.65 267.26"><defs><style>.cls-1{fill:#1b66aa;}.cls-2{fill:#fff;}.cls-3{fill:#b63956;}</style></defs><title>porte</title><g id="Calque_2" data-name="Calque 2"><g id="Calque_1-2" data-name="Calque 1"><path class="cls-1" d="M37.69,139.12a115.1,115.1,0,0,1-26.23,9.08C-3.11,151.25.36,184.12.36,184.12s58.63,21,123.31,2c5.38-8.14,1-36.26-7.16-38.64S89,143.65,86.77,139.83,37.69,139.12,37.69,139.12Z"/><path class="cls-1" d="M58.58,117.3c-18,0-32.65-16.19-32.65-36.08S40.58,45.15,58.58,45.15,91.24,61.33,91.24,81.22,76.59,117.3,58.58,117.3Zm0-68.72c-16.11,0-29.22,14.64-29.22,32.64s13.11,32.64,29.22,32.64S87.81,99.22,87.81,81.22,74.7,48.58,58.58,48.58Z"/><path class="cls-2" d="M44.17,133A18.82,18.82,0,0,0,61,139.28C68.88,138.33,76,133,76,133l10.81,3.81-17.41,14.7L59,142.26l-7.3,9.26L34.31,139.09Z"/><path class="cls-1" d="M52,153.83,31.27,139l13.3-8.21.94,1.2a17.06,17.06,0,0,0,15.31,5.63c7.3-.89,14.06-5.9,14.12-6l.72-.54,14.45,5.09L69.33,153.75l-10.15-9Zm8.16-12.77,9.23,8.22,14-11.85-7.21-2.54c-2.09,1.43-8.2,5.24-15,6.07C60.87,141,60.51,141,60.16,141.06ZM37.35,139.2l14,10,6.37-8.09a20.42,20.42,0,0,1-13.86-5.94Z"/><path class="cls-2" d="M51.84,152.69,32.76,139l11.62-7.16.47.61a17.8,17.8,0,0,0,16.07,5.94c7.53-.92,14.45-6.05,14.52-6.1l.37-.28,12.66,4.46L69.35,152.65l-10.27-9.14Zm7-11.67,10.52,9.36,15.69-13.25-9-3.16c-1.59,1.13-7.91,5.31-15,6.17a19.73,19.73,0,0,1-17.14-6l-8.13,5,15.65,11.2Z"/><path class="cls-1" d="M52.17,155,29.72,138.93l15.06-9.29,1.41,1.82c.2.27,5,6.45,14.53,5.3,7-.85,13.44-5.59,13.72-5.79l1.07-.81,16.3,5.73-22.49,19-10-8.92Zm10-13.3,7.25,6.45,12.32-10.41-5.39-1.89A37.93,37.93,0,0,1,62.16,141.7ZM38.9,139.25,51.18,148,56,141.87a21.58,21.58,0,0,1-12.3-5.6Z"/><path class="cls-1" d="M48,134.38l-2.08-2.73c2.63-2,2.15-12,1-18.38l3.37-.62C50.76,115.58,53.18,130.39,48,134.38Z"/><path class="cls-1" d="M75.49,134.28c-7.79-7.14-3.88-23.22-3.71-23.9l3.33.83c0,.15-3.59,14.78,2.7,20.54Z"/><path class="cls-1" d="M46.87,52.05S49,69.24,65,70.35s28.23,6.72,27.15,14.54,5.75-18.3-3.85-33.61S66.05,31.85,46.87,37.39,22.3,56.81,22.3,63.35s2.51,23,2.51,23-1.07-12.87,8.81-19.08A34.17,34.17,0,0,0,46.87,52.05Z"/><path class="cls-1" d="M294.64,122.29c3.92,7.83-3.43,22.31-3.43,22.31l56.62,1.71s-8.58-20.59-6.87-24S347.83,88,347.83,88l-62.9,1.72S287.78,108.57,294.64,122.29Z"/><path class="cls-1" d="M296.3,142.49a115.1,115.1,0,0,1-26.23,9.08C255.5,154.62,259,187.5,259,187.5s58.62,21,123.31,2c5.37-8.13,1-36.26-7.17-38.63s-27.53-3.88-29.74-7.7S296.3,142.49,296.3,142.49Z"/><path class="cls-1" d="M317.2,120.67c-18,0-32.65-18.25-32.65-40.67s14.64-40.67,32.65-40.67S349.85,57.57,349.85,80,335.2,120.67,317.2,120.67Zm0-77.91C301.09,42.76,288,59.46,288,80s13.11,37.24,29.22,37.24S346.42,100.53,346.42,80,333.31,42.76,317.2,42.76Z"/><path class="cls-2" d="M302.78,136.38a18.85,18.85,0,0,0,16.86,6.28c7.86-1,14.93-6.28,14.93-6.28l10.81,3.81L328,154.89l-10.4-9.25-7.29,9.25-17.36-12.43Z"/><path class="cls-1" d="M310.62,157.2l-20.74-14.84,13.31-8.21.93,1.21A17.08,17.08,0,0,0,319.43,141c7.3-.89,14.06-5.89,14.13-5.94l.72-.54,14.44,5.08L328,157.12l-10.15-9Zm8.15-12.76,9.24,8.22,14-11.85-7.22-2.55c-2.08,1.43-8.2,5.24-15,6.07ZM296,142.57l14,10,6.38-8.08a20.52,20.52,0,0,1-13.87-5.94Z"/><path class="cls-2" d="M310.46,156.06l-19.08-13.65L303,135.25l.47.61a17.82,17.82,0,0,0,16.08,5.95c7.53-.92,14.45-6.06,14.52-6.11l.36-.28,12.66,4.46L328,156l-10.27-9.14Zm7-11.67L328,153.75l15.7-13.25-9-3.16c-1.59,1.13-7.91,5.31-15,6.17a19.72,19.72,0,0,1-17.13-6l-8.13,5,15.64,11.19Z"/><path class="cls-1" d="M310.78,158.37l-22.44-16.06L303.4,133l1.4,1.83a16.11,16.11,0,0,0,14.53,5.29c7-.85,13.45-5.59,13.72-5.79l1.08-.81,16.29,5.74-22.49,19-10-8.93Zm10-13.3,7.25,6.45,12.33-10.4-5.39-1.9A37.83,37.83,0,0,1,320.77,145.07Zm-23.25-2.45,12.28,8.79,4.86-6.17a21.44,21.44,0,0,1-12.3-5.6Z"/><path class="cls-3" d="M306.56,137.75,304.48,135c2.64-2,2.16-12,1-18.38l3.37-.62C309.37,119,311.8,133.76,306.56,137.75Z"/><path class="cls-2" d="M301.51,139.45c6.86,1.71,3.92-21.4,3.92-21.4l24.92-2.17s-3.93,15.69,3.2,22.22l-17.17,9.06Z"/><path class="cls-1" d="M316.38,148.88a1.84,1.84,0,0,1-.79-.19L300.72,141a1.71,1.71,0,0,1-.82-2.13,1.73,1.73,0,0,1,2-1.06.64.64,0,0,0,.68-.12c2.2-1.95,2-12.73,1.13-19.4a1.71,1.71,0,0,1,.36-1.29,1.74,1.74,0,0,1,1.19-.63l24.92-2.17A1.72,1.72,0,0,1,332,116.3c0,.15-3.59,14.78,2.7,20.53a1.73,1.73,0,0,1,.54,1.49,1.7,1.7,0,0,1-.9,1.3l-17.17,9.06A1.72,1.72,0,0,1,316.38,148.88Zm-10.9-9.31,10.89,5.66,14.45-7.63c-4.34-5.93-3.37-15.43-2.61-19.81l-20.88,1.81C307.83,124.43,308.58,135.51,305.48,139.57Z"/><ellipse class="cls-2" cx="315.48" cy="81.71" rx="30.94" ry="38.96"/><path class="cls-1" d="M315.48,122.38c-18,0-32.65-18.24-32.65-40.67S297.48,41,315.48,41s32.66,18.25,32.66,40.67S333.49,122.38,315.48,122.38Zm0-77.91c-16.11,0-29.22,16.71-29.22,37.24S299.37,119,315.48,119s29.22-16.7,29.22-37.24S331.6,44.47,315.48,44.47Z"/><path class="cls-1" d="M328.22,52.21S326.13,67.9,310.64,68.9c-13.34.87-22.71,14.2-24.38,22.43a10.58,10.58,0,0,0-.2,3.51c1.05,7.14-7.38-29.37,1.95-43.33s21.57-17.73,40.21-12.67,23.86,17.71,23.86,23.68-2.44,20.95-2.44,20.95,1.05-11.74-8.56-17.4A31.58,31.58,0,0,1,328.22,52.21Z"/><path class="cls-2" d="M212.26,181.2c-10-9.2-4.51-31.3-4.51-31.3l-35.11,3s5.11,30.9-3.11,30.15"/><path class="cls-1" d="M169.83,185.53a4.61,4.61,0,0,1-.52,0l.44-4.82c.14,0,.2,0,.37-.16,2.43-2.61,2-16.14.14-27.19l-.43-2.57,41.08-3.57-.81,3.29c-.06.2-5.06,20.82,3.8,28.93L210.63,183c-8.62-7.89-7.07-23.57-5.89-30.39l-29.32,2.55c1,7.14,2.81,23.77-1.76,28.68A5.08,5.08,0,0,1,169.83,185.53Z"/><path class="cls-1" d="M157.37,189.8a161.61,161.61,0,0,1-37,12.8c-20.52,4.3-15.62,50.61-15.62,50.61s82.59,29.6,173.72,2.86c7.57-11.45,1.37-51.08-10.09-54.42s-38.8-5.46-41.9-10.85S157.37,189.8,157.37,189.8Z"/><ellipse class="cls-2" cx="186.81" cy="101.76" rx="43.59" ry="54.88"/><path class="cls-1" d="M186.81,159.06c-25.37,0-46-25.7-46-57.3s20.63-57.3,46-57.3,46,25.7,46,57.3S212.18,159.06,186.81,159.06Zm0-109.77c-22.7,0-41.17,23.54-41.17,52.47s18.47,52.47,41.17,52.47S228,130.69,228,101.76,209.51,49.29,186.81,49.29Z"/><path class="cls-2" d="M166.5,181.2A26.51,26.51,0,0,0,190.25,190c11.07-1.35,21-8.84,21-8.84l15.24,5.37L202,207.27l-14.65-13-10.28,13-24.46-17.5Z"/><path class="cls-1" d="M177.4,209.58l-27.83-19.92L166.91,179l.93,1.2c.31.41,7.85,10,22.2,8.19,10.51-1.28,20.13-8.44,20.23-8.51l.72-.54L229.86,186,202,209.5l-14.4-12.81Zm9.91-17.64L202,205l21.15-17.86-11.63-4.1c-2.57,1.79-11.33,7.44-21.1,8.63C189.37,191.84,188.32,191.92,187.31,191.94Zm-31.65-2.07L176.75,205,187,192a28.42,28.42,0,0,1-20.84-8.56Z"/><path class="cls-2" d="M177.31,208.93l-26.88-19.24,16.36-10.09.67.87c.32.41,8,10.16,22.64,8.37,10.61-1.29,20.36-8.53,20.46-8.6l.52-.39,17.83,6.28L202,208.87,187.51,196Zm9.89-16.45L202,205.67,224.13,187l-12.65-4.46c-2.25,1.59-11.15,7.48-21.09,8.69a27.74,27.74,0,0,1-24.14-8.47l-11.45,7.07,22,15.78Z"/><path class="cls-1" d="M177.64,211.24l-30.25-21.65,19.81-12.22,1.6,2.07c.29.38,7.38,9.41,21.1,7.73,9.95-1.22,19.26-8,19.65-8.29l1.23-.92,21.47,7.56L202,211.1l-14.23-12.66ZM190.26,193l11.79,10.49,18.74-15.82-9.06-3.19c-3.26,2.2-11.7,7.33-21.13,8.48Zm-32.42-3,18.67,13.36,8.05-10.21A29.51,29.51,0,0,1,166,184.92Z"/><path class="cls-1" d="M202.33,62.62s-2.94,22.09-24.76,23.51-38.64,8.64-37.16,18.69-7.87-23.52,5.27-43.2,30.39-25,56.65-17.85S236,68.73,236,77.14s-3.43,29.52-3.43,29.52S234,90.12,220.46,82.13,202.33,62.62,202.33,62.62Z"/><g id="icone"><path class="cls-1" d="M124.85,69.71c0-2.88-.42-5.74-.26-8.63.09-1.61.19-3.27.26-4.91,0-.64.24-.91.89-.66a6.39,6.39,0,0,0,6.71-1.11c.74-.6.85,0,1.05.53,2,5.12,3.27,10.38,2.72,15.95a8.92,8.92,0,0,0,.1,2.25,68,68,0,0,1,.93,7.52,15.74,15.74,0,0,1-.4,3.42,1.42,1.42,0,0,1-.49.91.86.86,0,0,1-.6.14c-.28-.05-.18-.35-.13-.56s.11-.43.15-.65c.14-.75-.38-.9-.94-1-.77-.11-.57.48-.6.88s.27.86-.12,1.11-.78-.22-1.15-.41c-1.08-.53-2.38-.78-2.79-2.21,0,.6,0,1.2-.09,1.8,0,.36-.13.73-.55.8a1,1,0,0,1-.94-.38,6.67,6.67,0,0,1-1-2A68.52,68.52,0,0,1,124.85,69.71Z"/><path class="cls-1" d="M220.11,19.47a2.81,2.81,0,0,1,.52,1.65c1.11,7.65,2.23,15.27,3.15,22.92a4.33,4.33,0,0,1-1.08,3.47,47.23,47.23,0,0,1-10.23,8.8,61,61,0,0,1-35,11.06A65.65,65.65,0,0,1,147.12,60a.58.58,0,0,1-.24-.11c-6.3-4-5.17-2.52-6.12-8.82S139,38.63,138.18,32.41c-.06-.43-.09-.86-.16-1.29-.15-1,.12-1.32,1.21-1,6.54,1.55,12.7.53,16.66,1.55l18.45,4.06c1.72.43,3.48.76,5.16,1.33a3.9,3.9,0,0,0,3.48-.44c11.9-6.62,23.82-9.85,35.76-16.41Z"/><path class="cls-2" d="M177.36,69.06a67.65,67.65,0,0,1-30.78-7.45l-.11,0L144,60.07c-3.71-2.29-4.13-2.68-4.62-6.57-.08-.61-.17-1.32-.3-2.19-.68-4.49-1.27-8.91-1.86-13.33l-.79-5.91c0-.23,0-.45-.08-.68a2.7,2.7,0,0,1,.68-2.52,2.77,2.77,0,0,1,2.63-.41,45.9,45.9,0,0,0,9.77.93,31.88,31.88,0,0,1,6.87.61l18.39,4,1.66.4a35.78,35.78,0,0,1,3.69,1,2.22,2.22,0,0,0,2-.24,167.8,167.8,0,0,1,18.36-8.47,170.66,170.66,0,0,0,17.52-8l2.71-1.4.85,1.19a4.55,4.55,0,0,1,.84,2.64l.23,1.43c1,7,2,14.17,2.9,21.28a5.94,5.94,0,0,1-1.5,4.8,48.74,48.74,0,0,1-10.54,9.07A63,63,0,0,1,177.5,69.06ZM147.65,58.38l.25.12a63.79,63.79,0,0,0,29.59,7.19,59.64,59.64,0,0,0,34-10.77,46.12,46.12,0,0,0,9.88-8.49,2.64,2.64,0,0,0,.7-2.17c-.85-7.09-1.89-14.27-2.89-21.22l-.16-1.11a175.66,175.66,0,0,1-17.37,7.91,166.78,166.78,0,0,0-17.88,8.22,5.5,5.5,0,0,1-4.86.56,33.44,33.44,0,0,0-3.34-.89l-1.67-.4-18.4-4a29.35,29.35,0,0,0-6.17-.51,52.38,52.38,0,0,1-9.53-.82l.74,5.58c.59,4.4,1.18,8.8,1.85,13.28.14.9.23,1.64.31,2.26.31,2.43.31,2.43,3.05,4.13Z"/><path class="cls-1" d="M124.6,49.36a3.4,3.4,0,0,1,1.25-2.29,2.15,2.15,0,0,0,.7-2.23c-.75-5.66-1.48-11.33-2.14-17-.07-.63-.82-1.69.31-2s1.71.31,1.91,1.86c.74,5.62,1.49,11.24,2.2,16.86a2.14,2.14,0,0,0,1.28,1.91,4.09,4.09,0,0,1,2.07,5.42,3.5,3.5,0,0,1-.29.54,3.88,3.88,0,0,1-5.3,1.46l-.12-.08A4.19,4.19,0,0,1,124.6,49.36Z"/><path class="cls-1" d="M234.59,14.72l-12.2,5.72c-13.15,6.17-26.27,12.37-39.58,18.4a3.4,3.4,0,0,1-2.18.26l-41-7.31c-6.41-1.15-12.81-2.34-19.23-3.51l-.92-.11c-1-.45-2.25-.26-3.41-.81l3.76-1.89L135,18.4,170.05,2a2.83,2.83,0,0,1,1.83-.25L218.38,10l12,2.16L237,13.4Z"/><path class="cls-2" d="M181.35,40.86a5.31,5.31,0,0,1-1-.1l-40.95-7.31q-6.47-1.16-12.91-2.35l-7.63-1.38a4.36,4.36,0,0,0-1.11-.23,7.56,7.56,0,0,1-2.33-.6l-3.17-1.47L119.1,24l15.22-7.09q17.52-8.21,35-16.41A4.39,4.39,0,0,1,172.2.09l46.47,8.27L242,12.61l-6.69,3.64-17.61,8.26C206.53,29.75,195,35.17,183.51,40.38A4.87,4.87,0,0,1,181.35,40.86ZM121.18,26.71l5.88,1.07Q133.51,29,140,30.13l41,7.31a1.76,1.76,0,0,0,1.13-.11c11.52-5.22,23.05-10.63,34.19-15.87l15.57-7.3-13.74-2.48Q194.83,7.56,171.59,3.4a1.18,1.18,0,0,0-.73.07c-11.76,5.52-23.43,11-35.11,16.45Z"/></g><g id="icone-2" data-name="icone"><path class="cls-1" d="M9.48,51.28c.33-2.29.26-4.61.7-6.89.24-1.27.5-2.58.72-3.88.09-.51.29-.7.78-.43a5.15,5.15,0,0,0,5.46-.17c.65-.4.67.12.78.53a27.28,27.28,0,0,1,.48,13,6.79,6.79,0,0,0-.16,1.8,55.88,55.88,0,0,1-.06,6.07A12.83,12.83,0,0,1,17.51,64a1.21,1.21,0,0,1-.49.68.78.78,0,0,1-.5,0c-.22-.08-.1-.3,0-.47s.14-.33.19-.5c.19-.58-.21-.76-.65-.88-.6-.17-.5.33-.56.64s.12.71-.22.87-.59-.26-.87-.45c-.8-.54-1.81-.87-2-2-.08.47-.15,1-.26,1.42,0,.28-.18.57-.52.58a.76.76,0,0,1-.71-.4,5.27,5.27,0,0,1-.55-1.71A54.81,54.81,0,0,1,9.48,51.28Z"/><path class="cls-1" d="M90.82,20.55a2.25,2.25,0,0,1,.24,1.39c0,6.31.09,12.6,0,18.89a3.57,3.57,0,0,1-1.24,2.71,38.6,38.6,0,0,1-9.12,6.08A48.7,48.7,0,0,1,51.6,55a51.69,51.69,0,0,1-23.37-9.11.58.58,0,0,1-.18-.11c-4.57-3.91-3.84-2.58-3.9-7.78s0-10.25,0-15.37c0-.36,0-.72,0-1.07,0-.81.23-1.06,1.07-.71,3,1.27,6.08,2.47,9.12,3.7l17.85,7.2c1.32.53,2.69,1,4,1.61a3.11,3.11,0,0,0,2.82,0Q74.32,27.12,89.66,21Z"/><path class="cls-2" d="M57.76,57.06a50.7,50.7,0,0,1-6.37-.41A53.73,53.73,0,0,1,27.48,47.4l-.1,0-1.85-1.54c-2.76-2.29-3.11-2.71-3.07-6,0-.49,0-1.08,0-1.79,0-3.72,0-7.37,0-11l0-5.4a2.47,2.47,0,0,1,1-2.23,2.51,2.51,0,0,1,2.45-.08c2.12.89,4.26,1.75,6.39,2.6l21.78,8.76c1,.37,1.94.74,2.86,1.2a1.45,1.45,0,0,0,1.3,0C68.58,27.62,78.8,23.51,89,19.42l2.61-1,.68,1.32a3.89,3.89,0,0,1,.41,2.39l0,1.22c0,5.83.06,11.65,0,17.47a5.21,5.21,0,0,1-1.83,4,40.38,40.38,0,0,1-9.46,6.31A51.25,51.25,0,0,1,57.76,57.06ZM29,44.34l.22.15A50.14,50.14,0,0,0,51.82,53.3,47.23,47.23,0,0,0,79.9,48.12a37.54,37.54,0,0,0,8.73-5.81,1.92,1.92,0,0,0,.72-1.48c.1-5.82.07-11.61,0-17.42v-.5q-14.85,5.94-29.75,12a4.69,4.69,0,0,1-4.22-.06,24.47,24.47,0,0,0-2.53-1l-1.29-.5L31,25c-1.73-.7-3.46-1.39-5.19-2.11V27c0,3.63,0,7.25,0,11,0,.74,0,1.36,0,1.87,0,1.86,0,1.86,1.86,3.42Z"/><path class="cls-1" d="M11.43,35.07a2.69,2.69,0,0,1,1.23-1.69,1.73,1.73,0,0,0,.8-1.7c0-4.58,0-9.17.09-13.75,0-.51-.47-1.43.46-1.54s1.33.43,1.32,1.68c0,4.55,0,9.1,0,13.65a1.71,1.71,0,0,0,.83,1.65,3.3,3.3,0,0,1,1.07,4.53,4.1,4.1,0,0,1-.29.4,3.12,3.12,0,0,1-4.37.6l-.09-.08A3.35,3.35,0,0,1,11.43,35.07Z"/><path class="cls-1" d="M101.24,20.35,91.3,22.53c-10.72,2.35-21.4,8.09-32.23,10.34a3.36,3.36,0,0,1-1.74-.08L25.21,23.71c-5-1.42-10-2.87-15.07-4.31l-.73-.17c-.79-.39-1.77-.42-2.67-.88l3.08-.75,12.36-2.68L50.71,8.67a2.92,2.92,0,0,1,1.46.05c12.15,3.44,24.3,3.5,36.45,6.92l9.44,2.68,5.16,1.49Z"/><path class="cls-2" d="M58.41,34.64a5.67,5.67,0,0,1-1.56-.23l-32.1-9.08c-3.37-.95-6.72-1.91-10.08-2.88l-6-1.71a5.53,5.53,0,0,0-.88-.27A8.28,8.28,0,0,1,6,19.85L2,17.78,9.42,16,50.35,7a4.43,4.43,0,0,1,2.3.07,138.8,138.8,0,0,0,18,3.43A140.19,140.19,0,0,1,89.08,14l20.36,5.83L101.6,22l-9.94,2.18a117,117,0,0,0-15.51,5,114.58,114.58,0,0,1-16.74,5.33A4,4,0,0,1,58.41,34.64ZM13.33,18.56l2.27.65,10.07,2.88,32.11,9.08a1.92,1.92,0,0,0,.89.06A112.53,112.53,0,0,0,75,26a121.12,121.12,0,0,1,16-5.15l5.63-1.23-8.41-2.38a136.62,136.62,0,0,0-18-3.4,141.63,141.63,0,0,1-18.49-3.52,1.16,1.16,0,0,0-.55,0Z"/></g><g id="icone-3" data-name="icone"><path class="cls-1" d="M368.17,56c0-2.32.35-4.62.21-6.94-.07-1.3-.15-2.64-.2-4,0-.52-.2-.74-.72-.53a5.16,5.16,0,0,1-5.4-.9c-.6-.48-.68,0-.84.42A27.09,27.09,0,0,0,359,56.94a7.33,7.33,0,0,1-.08,1.81,55.84,55.84,0,0,0-.75,6,13.41,13.41,0,0,0,.32,2.75,1.19,1.19,0,0,0,.4.73.68.68,0,0,0,.48.12c.23-.05.15-.28.11-.46s-.1-.35-.13-.52c-.11-.6.31-.73.76-.79.62-.09.46.39.48.71s-.22.69.1.89.62-.17.93-.33c.86-.43,1.91-.62,2.24-1.78,0,.49,0,1,.07,1.45,0,.29.1.59.45.65a.76.76,0,0,0,.75-.31,5.33,5.33,0,0,0,.78-1.63A54.62,54.62,0,0,0,368.17,56Z"/><path class="cls-1" d="M291.39,14.72a2.39,2.39,0,0,0-.42,1.35c-.87,6.27-1.74,12.51-2.46,18.77a3.53,3.53,0,0,0,.88,2.85,38.28,38.28,0,0,0,8.26,7.25c6.65,3.56,17.83,5.75,28.17,5.79a51.85,51.85,0,0,0,24.43-6,.42.42,0,0,0,.19-.09c5.07-3.27,4.45-2.91,4.45-2.91.75-5.16,1.82-11.12,2.48-16.21.05-.35.07-.71.12-1.06.13-.8-.09-1.08-1-.85-3.17.86-6.36,1.65-9.55,2.47l-18.68,4.8c-1.39.35-2.81.61-4.15,1.08a3.15,3.15,0,0,1-2.81-.37q-14.4-8.21-28.83-16.32Z"/><path class="cls-2" d="M326.1,52.42h-.29c-10.87-.05-22.24-2.4-29-6a40.47,40.47,0,0,1-8.77-7.67,5.24,5.24,0,0,1-1.24-4.14c.66-5.76,1.46-11.54,2.26-17.33l.2-1.45a3.71,3.71,0,0,1,.71-2.09l.86-1.22,2.41,1.28q14.5,8.16,28.89,16.34a1.54,1.54,0,0,0,1.4.25,27.32,27.32,0,0,1,3-.82l1.26-.3,21.58-5.54c2.21-.56,4.43-1.13,6.63-1.72a2.27,2.27,0,0,1,3.08,2.72l-.12,1c-.38,3-.91,6.22-1.42,9.44-.34,2.1-.68,4.19-1,6.17.27.56.16.95-.93,1.79l0,0-.38.22c-.84.61-2.12,1.44-4,2.66l-.43.22A53.67,53.67,0,0,1,326.1,52.42ZM292.51,17.24l-.07.51c-.8,5.77-1.59,11.52-2.26,17.29a1.94,1.94,0,0,0,.46,1.53,37.54,37.54,0,0,0,8,7c6.11,3.26,16.86,5.45,27.23,5.49a51.31,51.31,0,0,0,23.64-5.77l.21-.11c2-1.31,3.09-2,3.65-2.38.29-2,.62-4,1-6.1.49-3.09,1-6.2,1.37-9.06L350.28,27l-22.91,5.85a26.4,26.4,0,0,0-2.68.72,4.79,4.79,0,0,1-4.31-.57C311.18,27.78,301.85,22.5,292.51,17.24Z"/><path class="cls-1" d="M368.37,39.63a2.7,2.7,0,0,0-1-1.85,1.72,1.72,0,0,1-.56-1.79c.6-4.55,1.19-9.11,1.72-13.67.06-.51.66-1.36-.25-1.59s-1.38.24-1.54,1.49c-.59,4.52-1.19,9-1.76,13.57a1.73,1.73,0,0,1-1,1.53,3.3,3.3,0,0,0-1.66,4.36,3.68,3.68,0,0,0,.23.44,3.12,3.12,0,0,0,4.26,1.16l.11-.06A3.35,3.35,0,0,0,368.37,39.63Z"/><path class="cls-1" d="M277.16,19.26l9.68,2.95c10.45,3.18,20.87,6.37,31.44,9.45a3.09,3.09,0,0,0,1.71,0l32-7.31c5-1.15,10-2.33,15-3.49l.73-.13c.79-.35,1.75-.31,2.66-.74l-3-1-12.05-3.64L327.5,7a2.58,2.58,0,0,0-1.44,0q-18.15,4.15-36.29,8.29l-9.4,2.16-5.14,1.21Z"/><path class="cls-2" d="M319.17,33.48a4.4,4.4,0,0,1-1.42-.22c-9-2.63-18-5.37-27-8.11l-16.06-5-5.31-1.93,20.05-4.66,36.29-8.29a4.15,4.15,0,0,1,2.4.1l46.83,14.39-3.82,1.8a7.61,7.61,0,0,1-1.85.54,4.09,4.09,0,0,0-.84.21l-.4.12-.72.13L320.37,33.34A5.46,5.46,0,0,1,319.17,33.48ZM281.51,18.82l10.19,3.1c9,2.74,18,5.47,27.05,8.12a1.5,1.5,0,0,0,.85,0l44.55-10.23L327,8.56a1,1,0,0,0-.55,0q-18.18,4.17-36.32,8.3Z"/></g></g></g></svg>