<svg xmlns="http://www.w3.org/2000/svg" viewBox="0 0 4000 2000"><defs><style>.cls-1{fill:#1d66ac;}.cls-2{fill:#fff;}</style></defs><g id="Calque_2" data-name="Calque 2"><g id="Calque_1-2" data-name="Calque 1"><rect class="cls-1" width="4000" height="2000"/><path class="cls-2" d="M3433.05,1695.56c-20.63,0-77.18-1.5-77.5-17.92l.26-20.28,8.74.12-.25,19.65c2.94,3.8,28.07,10.53,75.21,9.63s72.11-8.66,74.8-12.56l0-17.06,8.74,0,0,17.33c.14,6.64-8.29,11.57-26.51,15.4-15.2,3.2-35.39,5.2-56.86,5.61C3438.54,1695.52,3436.22,1695.56,3433.05,1695.56Zm81.26-21.06v0Z"/><path class="cls-2" d="M3383.23,1674.78l-.05-2-8.18,1.69,5.14,12.63a4.35,4.35,0,0,0,2,2.49,4.07,4.07,0,0,0,3.17.22,4.54,4.54,0,0,0,2.5-2.18,4.33,4.33,0,0,0,.37-3.3l-5.14-12.63a4.21,4.21,0,0,0-2-2.49,4.07,4.07,0,0,0-2.64-.33,4.55,4.55,0,0,0-3.56,4.5l0,2a4.06,4.06,0,0,0,4.25,4,4.61,4.61,0,0,0,4.09-4.61Z"/><path class="cls-2" d="M3408.6,1680.68a47.57,47.57,0,0,0,5,12.86c1,1.68,3.16.69,4.29-.3a7.09,7.09,0,0,0,2-2.69,3.17,3.17,0,0,0,.22-2.48,47.92,47.92,0,0,1-5-12.86c-.16-.7-1.12-1-1.71-.92a4.89,4.89,0,0,0-2.57,1.22c-1.48,1.29-2.73,3.15-2.26,5.17Z"/><path class="cls-2" d="M3446.13,1682l3.45,9.33a2.67,2.67,0,0,0,1.56,1.82,2.59,2.59,0,0,0,2.32-.61,5.71,5.71,0,0,0,1.73-2.71,5.38,5.38,0,0,0,.11-3.2l-3.45-9.33a2.67,2.67,0,0,0-1.56-1.82,2.59,2.59,0,0,0-2.32.61,5.71,5.71,0,0,0-1.73,2.71,5.46,5.46,0,0,0-.11,3.2Z"/><path class="cls-2" d="M3475.41,1674.8a29.43,29.43,0,0,0,2.3,13.07c.84,2,3.57,2.71,5.5,2.11s3.71-2.29,2.83-4.38a26.83,26.83,0,0,1-1.5-4.65l.2.9a27.44,27.44,0,0,1-.59-7.51,3.18,3.18,0,0,0-1.41-2.35,5.06,5.06,0,0,0-3.14-.84c-2.13.19-4,1.38-4.19,3.65Z"/><path class="cls-2" d="M3498.6,1673.52c.12.14.25.28.37.43l-.66-.8a21.13,21.13,0,0,1,2.9,4.68l-.42-1a21.66,21.66,0,0,1,1.49,4.92l-.18-1.07c.09.5.15,1,.2,1.52a4.24,4.24,0,0,0,1.27,2.82,3.76,3.76,0,0,0,2.94.91,4.67,4.67,0,0,0,3.84-4.8,24.25,24.25,0,0,0-1.79-7.31,22.7,22.7,0,0,0-4.45-7.06,3.66,3.66,0,0,0-2.94-.91,4.45,4.45,0,0,0-2.76,1.58,4.85,4.85,0,0,0-1.08,3.22,4.69,4.69,0,0,0,1.27,2.83Z"/><path class="cls-2" d="M3433.07,1676.66c-20.61,0-77.2-1.5-77.52-17.92-.36-18.94,74.8-21,83.38-21.12s83.76-1.07,84.12,17.87h0c.14,6.74-8.29,11.67-26.51,15.51-15.2,3.19-35.39,5.19-56.86,5.6C3438.54,1676.62,3436.23,1676.66,3433.07,1676.66Zm-68.47-18.1c4.08,3.85,29.09,10.19,74.91,9.3s70.56-8.19,74.49-12.19c-4.08-3.85-29.16-10.18-74.9-9.3S3368.53,1654.56,3364.6,1658.56Z"/><path class="cls-1" d="M3322.39,1631l-.26,20.13c.16,8.35,35.83,14.43,79.67,13.58s79.24-8.3,79.08-16.65l0-17.33"/><path class="cls-2" d="M3395.25,1669.1c-20.63,0-77.18-1.5-77.5-17.92l.26-20.28,8.75.12-.26,19.65c2.95,3.8,28.08,10.54,75.21,9.63s72.11-8.66,74.8-12.56l0-17.06,8.74,0,0,17.33c.14,6.64-8.29,11.57-26.51,15.4-15.19,3.2-35.39,5.2-56.86,5.61C3400.74,1669.06,3398.42,1669.1,3395.25,1669.1Zm81.26-21.06v0Z"/><path class="cls-2" d="M3345.43,1648.32l0-2-8.18,1.69,5.14,12.63a4.35,4.35,0,0,0,2,2.49,4.07,4.07,0,0,0,3.17.22,4.54,4.54,0,0,0,2.5-2.18,4.28,4.28,0,0,0,.37-3.3l-5.14-12.63a4.21,4.21,0,0,0-2-2.49,4.07,4.07,0,0,0-2.64-.33A4.56,4.56,0,0,0,3337,1647l.05,2a4.06,4.06,0,0,0,4.26,4,4.6,4.6,0,0,0,4.08-4.61Z"/><path class="cls-2" d="M3370.8,1654.22a47.27,47.27,0,0,0,5,12.86c1,1.68,3.15.69,4.28-.3a7.09,7.09,0,0,0,2-2.69,3.13,3.13,0,0,0,.22-2.48,47.57,47.57,0,0,1-5-12.86c-.17-.7-1.13-1-1.72-.92a4.89,4.89,0,0,0-2.57,1.22c-1.48,1.29-2.73,3.15-2.26,5.17Z"/><path class="cls-2" d="M3408.33,1655.49l3.46,9.33a2.25,2.25,0,0,0,3.88,1.21,5.69,5.69,0,0,0,1.72-2.71,5.38,5.38,0,0,0,.11-3.2l-3.45-9.33a2.67,2.67,0,0,0-1.56-1.82,2.57,2.57,0,0,0-2.32.62,5.54,5.54,0,0,0-1.72,2.7,5.38,5.38,0,0,0-.12,3.2Z"/><path class="cls-2" d="M3437.62,1648.35a29.27,29.27,0,0,0,2.29,13.06c.84,2,3.57,2.71,5.5,2.11s3.71-2.29,2.83-4.38a26.83,26.83,0,0,1-1.5-4.65l.2.91a27.51,27.51,0,0,1-.59-7.52,3.18,3.18,0,0,0-1.41-2.35,5.06,5.06,0,0,0-3.14-.84c-2.13.19-4.05,1.38-4.18,3.66Z"/><path class="cls-2" d="M3460.8,1647.06l.37.43-.66-.8a21.55,21.55,0,0,1,2.91,4.68l-.43-1a21.17,21.17,0,0,1,1.49,4.92l-.18-1.07c.09.51.15,1,.2,1.52a4.29,4.29,0,0,0,1.27,2.82,3.72,3.72,0,0,0,2.94.91,4.67,4.67,0,0,0,3.84-4.8,24.25,24.25,0,0,0-1.79-7.31,22.7,22.7,0,0,0-4.45-7.06,3.69,3.69,0,0,0-2.93-.91,4.39,4.39,0,0,0-2.76,1.59,4.76,4.76,0,0,0-1.09,3.21,4.69,4.69,0,0,0,1.27,2.83Z"/><path class="cls-2" d="M3395.25,1650.2c-20.63,0-77.18-1.5-77.5-17.92-.13-6.74,8.3-11.67,26.52-15.5,15.2-3.2,35.39-5.2,56.86-5.61s41.72.79,57,3.4c18.36,3.13,27,7.72,27.09,14.46h0c.14,6.74-8.29,11.67-26.51,15.51-15.2,3.2-35.39,5.19-56.86,5.6C3400.74,1650.16,3398.42,1650.2,3395.25,1650.2Zm-68.44-18.1c4.07,3.85,29.12,10.16,74.9,9.3s70.56-8.19,74.49-12.19c-4.08-3.85-29.14-10.17-74.9-9.3S3330.73,1628.1,3326.81,1632.1Z"/><path class="cls-1" d="M3375.3,1608.28l-.26,20.13c.17,8.35,35.84,14.43,79.68,13.58s79.24-8.3,79.08-16.65l0-17.33"/><path class="cls-2" d="M3448.17,1646.42c-20.63,0-77.18-1.5-77.5-17.92l.26-20.28,8.75.12-.26,19.65c2.94,3.8,28.11,10.55,75.21,9.63,47.25-.92,72.11-8.66,74.8-12.56l0-17.06,8.74,0,0,17.33c.13,6.64-8.29,11.57-26.51,15.41-15.2,3.2-35.39,5.19-56.86,5.6C3453.66,1646.38,3451.34,1646.42,3448.17,1646.42Zm81.26-21.06v0Z"/><path class="cls-2" d="M3398.35,1625.64l0-2-8.18,1.69,5.14,12.63a4.35,4.35,0,0,0,2,2.49,4.07,4.07,0,0,0,3.17.22,4.54,4.54,0,0,0,2.5-2.18,4.33,4.33,0,0,0,.37-3.3l-5.14-12.63a4.21,4.21,0,0,0-2-2.49,4,4,0,0,0-2.64-.32,4.53,4.53,0,0,0-3.56,4.5l.05,2a4.05,4.05,0,0,0,4.25,4,4.61,4.61,0,0,0,4.09-4.61Z"/><path class="cls-2" d="M3423.71,1631.54a47.92,47.92,0,0,0,5,12.86c1,1.68,3.16.69,4.29-.3a7.19,7.19,0,0,0,2-2.69,3.17,3.17,0,0,0,.22-2.48,47.59,47.59,0,0,1-5-12.86c-.16-.7-1.12-1-1.71-.91a4.8,4.8,0,0,0-2.57,1.21c-1.48,1.29-2.73,3.15-2.27,5.17Z"/><path class="cls-2" d="M3461.25,1632.81l3.45,9.33a2.71,2.71,0,0,0,1.56,1.83,2.62,2.62,0,0,0,2.32-.62,5.73,5.73,0,0,0,1.73-2.7,5.5,5.5,0,0,0,.11-3.21l-3.45-9.33a2.67,2.67,0,0,0-1.56-1.82,2.57,2.57,0,0,0-2.32.62,5.63,5.63,0,0,0-1.73,2.7,5.38,5.38,0,0,0-.11,3.2Z"/><path class="cls-2" d="M3490.53,1625.67a29.41,29.41,0,0,0,2.3,13.06c.84,2,3.56,2.71,5.5,2.11s3.71-2.29,2.83-4.38a26.83,26.83,0,0,1-1.5-4.65l.2.91a27.51,27.51,0,0,1-.59-7.52,3.18,3.18,0,0,0-1.41-2.35,5.07,5.07,0,0,0-3.14-.84c-2.13.19-4,1.38-4.19,3.66Z"/><path class="cls-2" d="M3513.72,1624.38c.12.14.24.29.37.43l-.67-.8a20.65,20.65,0,0,1,2.91,4.69l-.42-1a21.66,21.66,0,0,1,1.49,4.92l-.18-1.07c.09.51.15,1,.2,1.52a4.22,4.22,0,0,0,1.27,2.82,3.68,3.68,0,0,0,2.94.91,4.68,4.68,0,0,0,3.84-4.79,24.24,24.24,0,0,0-1.79-7.32,27.89,27.89,0,0,0-1.85-3.66,27.55,27.55,0,0,0-2.6-3.4,3.7,3.7,0,0,0-2.94-.91,4.46,4.46,0,0,0-2.76,1.59,4.8,4.8,0,0,0-1.08,3.21,4.63,4.63,0,0,0,1.27,2.83Z"/><path class="cls-2" d="M3448.17,1627.52c-20.63,0-77.18-1.5-77.5-17.92-.13-6.74,8.3-11.67,26.52-15.5,15.19-3.2,35.38-5.2,56.85-5.61,8.59-.14,83.77-1.08,84.13,17.86.13,6.75-8.29,11.67-26.51,15.51-15.2,3.2-35.39,5.19-56.86,5.6C3453.66,1627.48,3451.34,1627.52,3448.17,1627.52Zm-68.45-18.1c4.08,3.85,29.12,10.19,74.91,9.3s70.57-8.19,74.49-12.19c-4.08-3.85-29.11-10.19-74.91-9.3S3383.65,1605.42,3379.72,1609.42Z"/><path class="cls-1" d="M3386.06,1575.63l6.46,23.3c3.78,12.62,40.9,16.42,82.9,3.83s73-36.8,69.21-49.41l-7-24.72"/><path class="cls-2" d="M3386.49,1575.52l3,6.51,2.81,6.56c1,2.18,1.79,4.39,2.69,6.59l.66,1.65a5.41,5.41,0,0,0,.62,1.33,5.79,5.79,0,0,0,1.41,1.45c2.45,2,6.67,3.13,10.82,3.72a79.23,79.23,0,0,0,13.07.77,161.35,161.35,0,0,0,26.79-2.88,200.35,200.35,0,0,0,26.39-6.47,213.22,213.22,0,0,0,25.52-9.44,171.2,171.2,0,0,0,23.87-12.61,86.12,86.12,0,0,0,10.43-7.93c3.11-2.78,5.83-6.25,6.48-9a4.7,4.7,0,0,0,.13-1,4.09,4.09,0,0,0,0-.49l-.15-.88-.63-3.51c-.43-2.33-.82-4.68-1.17-7-.78-4.7-1.41-9.43-2-14.17l.84-.24,3.91,13.62,2,6.8,1,3.4a10.24,10.24,0,0,1,.57,3.65,15.41,15.41,0,0,1-2.33,6.9,36.87,36.87,0,0,1-4.31,5.75,74.89,74.89,0,0,1-10.64,9.5c-15.3,11.3-32.82,19.22-50.86,25-18.13,5.46-37.08,8.77-56.09,7.94a76.68,76.68,0,0,1-14.13-1.9c-4.58-1.19-9.33-2.75-12.85-6.3a9.49,9.49,0,0,1-2-3.14c-.45-1.18-.66-2.29-1-3.44l-1.87-6.83-3.73-13.67Z"/><path class="cls-2" d="M3420.6,1587.82l-.79-2.86a4,4,0,0,0-5.15-2.7,4.65,4.65,0,0,0-2.88,5.47l4.77,18.56a4,4,0,0,0,5.15,2.71,4.66,4.66,0,0,0,2.88-5.48l-4.77-18.56-8,2.77.8,2.86a4,4,0,0,0,5.15,2.71,4.65,4.65,0,0,0,2.87-5.48Z"/><path class="cls-2" d="M3446.3,1587.37c1.47,6.43,2.73,12.89,3.74,19.41.3,1.9,2.15,1.91,3.56,1s3.6-3.11,3.29-5.08c-1.08-7-2.47-13.94-4-20.84-.16-.71-1.13-1-1.71-.92a4.89,4.89,0,0,0-2.57,1.22c-1.48,1.29-2.73,3.15-2.27,5.17Z"/><path class="cls-2" d="M3472.21,1579.88l4.85,17.91a2.32,2.32,0,0,0,3.88,1.21,6.08,6.08,0,0,0,1.84-5.91l-4.85-17.91a2.31,2.31,0,0,0-3.88-1.2,6.05,6.05,0,0,0-1.84,5.9Z"/><path class="cls-2" d="M3495.82,1565.69a71,71,0,0,0,7.42,18.84,4.72,4.72,0,0,0,5.5,2.1c1.59-.49,4-2.39,2.83-4.37a71.36,71.36,0,0,1-7.43-18.84c-.2-.86-1.37-1.64-2.11-1.94a5.5,5.5,0,0,0-3.38-.16,4.35,4.35,0,0,0-2.53,1.71,3.22,3.22,0,0,0-.3,2.66Z"/><path class="cls-2" d="M3517.85,1552.78a34.71,34.71,0,0,1,3.29,3.24l.34.4.17.2c-.39-.46,0,0,.09.11l.4.53c.49.64,1,1.29,1.4,2a41.11,41.11,0,0,1,2.41,4.1c.18.37.37.74.54,1.11.06.13.39.87.13.28s0,0,.07.15c.35.81.66,1.62,1,2.45a3.77,3.77,0,0,0,5,2.4c2-.92,3.45-3.39,2.66-5.59a43,43,0,0,0-12-18.06,4,4,0,0,0-5.7.68c-1.3,1.72-1.61,4.49.18,6Z"/><path class="cls-2" d="M3455.4,1530.69c6.76-2.26,13.59-4.31,20.5-6s13.87-3.39,20.93-4.53a128.6,128.6,0,0,1,21.44-2.06,50.9,50.9,0,0,1,11,1.11,19.87,19.87,0,0,1,5.48,2.11,9.92,9.92,0,0,1,4.4,5,10.22,10.22,0,0,1-.19,6.75,20.71,20.71,0,0,1-2.89,5.34,49.93,49.93,0,0,1-7.8,8.21,121.42,121.42,0,0,1-18.09,12.45,204.16,204.16,0,0,1-19.48,9.7c-6.66,2.85-13.44,5.38-20.29,7.7A222.87,222.87,0,0,1,3428,1586a118.9,118.9,0,0,1-22,.68,49.72,49.72,0,0,1-11.15-2,20.5,20.5,0,0,1-5.49-2.6,10.27,10.27,0,0,1-4.17-5.34,9.9,9.9,0,0,1,.61-6.62,19.51,19.51,0,0,1,3.17-4.95,50,50,0,0,1,8.2-7.39,127.8,127.8,0,0,1,18.5-11c6.36-3.26,12.94-6.07,19.55-8.74S3448.62,1532.87,3455.4,1530.69Zm0,0a217.64,217.64,0,0,0-39.07,17.09,114.73,114.73,0,0,0-17.43,12,45.81,45.81,0,0,0-7.09,7.48c-1.94,2.66-3.25,5.91-2.36,8s3.79,3.52,6.91,4.22a47.78,47.78,0,0,0,10,1,127,127,0,0,0,20.65-2c6.89-1.11,13.71-2.73,20.5-4.45s13.52-3.73,20.19-5.93,13.29-4.51,19.77-7.16,12.95-5.37,19.16-8.55a124.75,124.75,0,0,0,17.85-10.6,47.15,47.15,0,0,0,7.48-6.67c2.09-2.41,3.64-5.29,3.06-7.52s-3.54-4.1-6.68-5.09a45,45,0,0,0-10.14-1.83,115.45,115.45,0,0,0-21.17.64A218.65,218.65,0,0,0,3455.4,1530.69Z"/><path class="cls-2" d="M3481.09,1548.45c2.17-7.06-7.16-11.55-17.89-11.11s-24.85,6.1-27.84,13.92c-1.77,4.64-1.13,7.43,0,8.87.88,1.14,3.6,2.87,4.93,2s2.11-2.35,1.36-3.22c-2.11-2.44-1.76-6.07.3-9.78,1.75-3.18,7.71-5.31,12.13-6.29,5.11-1.13,10.26-1.12,13.66.39,3.18,1.43,4.94,4.1,4,7.2-.32,1,3.38,1.39,5.3,1s3.71-1.85,4.06-3Z"/><path class="cls-2" d="M3447.05,1541.18a42.66,42.66,0,0,1,4.18,10.67c.22.88,1.69,0,2.45-.58,1-.83,2.63-2.42,2.41-3.31a45.37,45.37,0,0,0-4.35-11.24c-.42-.75-2.64,1.08-3,1.42-.88.86-2.14,2.24-1.7,3Z"/><path class="cls-2" d="M3455.94,1538.05a42.82,42.82,0,0,1,4.18,10.66c.21.88,1.68,0,2.44-.58,1-.82,2.63-2.42,2.42-3.3a44.72,44.72,0,0,0-4.36-11.24c-.42-.76-2.64,1.07-3,1.41-.89.86-2.14,2.25-1.7,3Z"/><path class="cls-1" d="M3386.2,1484.41l17,17.21c9.44,9.18,43.72-5.55,74.29-37s45.87-67.66,36.43-76.84l-18.14-18.18"/><path class="cls-2" d="M3386.51,1484.1l5.78,4.23,5.65,4.37c1.9,1.44,3.7,3,5.55,4.45l1.38,1.12a5.72,5.72,0,0,0,1.19.86,5.62,5.62,0,0,0,1.94.58c3.09.52,7.35-.51,11.26-2a79.76,79.76,0,0,0,11.8-5.69,161.83,161.83,0,0,0,22-15.54A202.4,202.4,0,0,0,3473,1458a213.49,213.49,0,0,0,17.69-20.66,171.54,171.54,0,0,0,14.73-22.63,86.88,86.88,0,0,0,5.25-12c1.37-4,2.06-8.3,1.29-11a4.81,4.81,0,0,0-.35-.9,3.61,3.61,0,0,0-.24-.41l-.57-.7-2.25-2.76c-1.51-1.83-3-3.69-4.45-5.58-3-3.72-5.82-7.54-8.64-11.39l.62-.62,10,10,5,5,2.51,2.5a10.12,10.12,0,0,1,2.28,2.91,15.24,15.24,0,0,1,1.31,7.16,35.46,35.46,0,0,1-1,7.12,74.89,74.89,0,0,1-4.67,13.48c-7.88,17.31-19.33,32.75-32.3,46.54-13.18,13.59-28.13,25.71-45.14,34.23a77.3,77.3,0,0,1-13.27,5.21c-4.58,1.19-9.49,2.13-14.29.74a9.32,9.32,0,0,1-3.28-1.76c-1-.81-1.69-1.68-2.55-2.52l-5-5.06-9.91-10.13Z"/><path class="cls-2" d="M3422.4,1478.2l-2.09-2.12a4.15,4.15,0,0,0-5.9.35,4.52,4.52,0,0,0,0,6.1l13.2,13.9a4.14,4.14,0,0,0,5.9-.36,4.49,4.49,0,0,0,0-6.09l-13.2-13.9-5.86,6.45,2.09,2.11a4.14,4.14,0,0,0,5.9-.35,4.49,4.49,0,0,0,0-6.09Z"/><path class="cls-2" d="M3443.18,1464.66c4.57,5.08,9,10.3,13.19,15.69.44.57,1.62.36,2.15.18a6.17,6.17,0,0,0,2.58-1.84c1.09-1.31,2.26-3.34,1-4.91-4.2-5.39-8.62-10.61-13.19-15.69-.49-.55-1.57-.38-2.15-.18a6.23,6.23,0,0,0-2.58,1.84c-1,1.22-2.36,3.44-1,4.91Z"/><path class="cls-2" d="M3462.9,1446.57l12.95,13.28a2.11,2.11,0,0,0,2.25.24,4.59,4.59,0,0,0,2-2.1c.88-1.79,1.19-4.19-.31-5.73l-13-13.29a2.14,2.14,0,0,0-2.24-.24,4.58,4.58,0,0,0-2,2.11c-.87,1.79-1.19,4.19.32,5.73Z"/><path class="cls-2" d="M3476.66,1421.24a74,74,0,0,0,16.37,13.5c1.82,1.1,4.54,1.25,6.17-.32a2.94,2.94,0,0,0-.25-4.84,69.07,69.07,0,0,1-8.08-5.69c-.62-.51-1.23-1-1.82-1.54-.24-.21-.8-.56-1-.85.34.31.4.37.2.18l-.21-.19-.41-.38q-1.91-1.8-3.66-3.72a5.1,5.1,0,0,0-6-.92c-1.63,1-2.85,3.11-1.32,4.77Z"/><path class="cls-2" d="M3490.14,1400.31c.73.16,1.46.33,2.18.53a3.44,3.44,0,0,0,.55.15c-.24,0-.71-.22-.2,0l1.09.37a37.08,37.08,0,0,1,4.43,1.93c.71.36,1.41.75,2.1,1.15l1,.63.51.33c.5.3-.6-.42-.12-.09a49.77,49.77,0,0,1,4,3.09,4,4,0,0,0,5.7-.67c1.3-1.73,1.6-4.48-.19-6a42.8,42.8,0,0,0-19.33-9.84c-2.19-.46-4.47,1.59-4.8,3.67a4,4,0,0,0,3.08,4.84Z"/><path class="cls-2" d="M3424.9,1411.41c4.81-5.26,9.78-10.38,15-15.25s10.46-9.71,16.08-14.14a128.46,128.46,0,0,1,17.73-12.22,50.15,50.15,0,0,1,10.13-4.38,20,20,0,0,1,5.82-.82,9.85,9.85,0,0,1,6.25,2.2,10.22,10.22,0,0,1,3.12,6,21,21,0,0,1,.08,6.07,49.91,49.91,0,0,1-2.83,11,120.44,120.44,0,0,1-9.75,19.67,202.72,202.72,0,0,1-12.3,18c-4.43,5.73-9.13,11.23-14,16.6a222.1,222.1,0,0,1-32.36,28.94,118.1,118.1,0,0,1-18.85,11.28,49.58,49.58,0,0,1-10.71,3.68,20.82,20.82,0,0,1-6.06.41,10.3,10.3,0,0,1-6.24-2.65,9.9,9.9,0,0,1-2.69-6.07,19.92,19.92,0,0,1,.36-5.87,50.88,50.88,0,0,1,3.57-10.45,128,128,0,0,1,10.8-18.64c4-6,8.35-11.6,12.82-17.14S3420,1416.62,3424.9,1411.41Zm0,0a218.38,218.38,0,0,0-25.81,33.94,114.23,114.23,0,0,0-9.38,19,44.59,44.59,0,0,0-2.55,10c-.41,3.26,0,6.74,1.84,8.17s5,1.24,8.09.33a46.75,46.75,0,0,0,9.17-4,126.43,126.43,0,0,0,17.07-11.81c5.48-4.32,10.65-9,15.75-13.86s10-9.83,14.74-15,9.43-10.4,13.8-15.88,8.7-11,12.58-16.79a122.91,122.91,0,0,0,10.43-17.94,46.57,46.57,0,0,0,3.3-9.47c.65-3.12.6-6.39-1-8.06s-5.09-1.86-8.32-1.19a44.26,44.26,0,0,0-9.75,3.33A114.62,114.62,0,0,0,3456.7,1383,218.67,218.67,0,0,0,3424.9,1411.41Z"/><path class="cls-2" d="M3456,1414.44c-1.53-7.24-11.87-6.62-21-1s-18.74,17.43-17.55,25.71c.71,4.92,2.62,7,4.31,7.76,1.32.56,4.54.75,5.29-.65s.7-3.07-.38-3.47c-3-1.12-4.49-4.45-4.5-8.69,0-3.64,4.16-8.39,7.54-11.4,3.91-3.48,8.42-6,12.13-6.3,3.47-.31,6.31,1.17,7,4.34.23,1.07,3.64-.43,5.11-1.72s2.35-3.42,2.1-4.56Z"/><path class="cls-2" d="M3422.72,1424.64a43,43,0,0,1,8.84,7.28c.62.67,1.49-.78,1.86-1.69.48-1.21,1.11-3.39.5-4.06a44.9,44.9,0,0,0-9.28-7.7c-.73-.46-1.78,2.22-1.91,2.68-.36,1.19-.78,3,0,3.49Z"/><path class="cls-2" d="M3429,1417.58a42.72,42.72,0,0,1,8.84,7.28c.62.67,1.49-.78,1.86-1.69.48-1.22,1.11-3.4.5-4.07a45.22,45.22,0,0,0-9.28-7.7c-.73-.46-1.78,2.23-1.92,2.69-.35,1.18-.78,3,0,3.49Z"/><path class="cls-2" d="M1057.35,1694.26a4,4,0,0,1-.32-8,555.32,555.32,0,0,0,59-8.37,4,4,0,0,1,1.5,7.86,563,563,0,0,1-59.82,8.48Zm-59.88-.49-.49,0-3.72-.49c-19.17-2.66-37.92-6-55.73-9.84a4,4,0,1,1,1.7-7.81c17.61,3.82,36.16,7.09,55.13,9.73,1.19.16,2.38.32,3.58.46a4,4,0,0,1-.47,8Zm177.84-21.08a4,4,0,0,1-1-7.88c17.05-4.29,36-9.38,57.85-15.57a4,4,0,0,1,2.18,7.7c-21.95,6.2-40.95,11.32-58.08,15.63A4.17,4.17,0,0,1,1175.31,1672.69ZM880.47,1668a4,4,0,0,1-1.23-.19,518.69,518.69,0,0,1-56.35-21.76,4,4,0,0,1,3.33-7.28,507.43,507.43,0,0,0,55.47,21.42,4,4,0,0,1-1.22,7.81Zm410.46-27.66a4,4,0,0,1-1.12-7.84l10.54-3.1c15.35-4.52,31.23-9.19,47.08-13.78a4,4,0,0,1,2.22,7.68c-15.83,4.59-31.7,9.26-47,13.77l-10.55,3.11A4,4,0,0,1,1290.93,1640.37Zm-519.08-22.44a4,4,0,0,1-2.14-.62,397.94,397.94,0,0,1-48.47-36.22,4,4,0,1,1,5.27-6A389.83,389.83,0,0,0,774,1610.55a4,4,0,0,1-2.15,7.38Zm634.45-10.7a4,4,0,0,1-1-7.87c21-5.68,40-10.58,58.26-15a4,4,0,1,1,1.87,7.78c-18.17,4.37-37.15,9.25-58,14.92A4.21,4.21,0,0,1,1406.3,1607.23Zm116.81-27.81a4,4,0,0,1-.76-7.92c20.56-4,40.55-7.37,59.41-9.94a4,4,0,1,1,1.08,7.93c-18.7,2.54-38.54,5.86-58.95,9.86A4.11,4.11,0,0,1,1523.11,1579.42Zm269.81-4.19a4,4,0,0,1-1-.12c-10-2.45-20.45-4.58-31-6.31a4,4,0,0,1,1.3-7.9c10.72,1.77,21.34,3.94,31.58,6.44a4,4,0,0,1-.95,7.89ZM1642,1563.6a4,4,0,0,1-.23-8c12.86-.76,25.58-1.14,37.82-1.14,7.59,0,15.18.15,22.54.44a4,4,0,0,1-.31,8c-7.27-.29-14.74-.43-22.23-.43-12.08,0-24.65.38-37.35,1.13Zm-959.94-24.42a4,4,0,0,1-3.07-1.44,402.74,402.74,0,0,1-35-49.36,4,4,0,0,1,6.85-4.13,395.2,395.2,0,0,0,34.32,48.38,4,4,0,0,1-3.08,6.55Zm-62-102.19a4,4,0,0,1-3.67-2.41,534.88,534.88,0,0,1-20.72-56.74,4,4,0,0,1,7.66-2.33,528.48,528.48,0,0,0,20.4,55.89,4,4,0,0,1-2.08,5.26A3.91,3.91,0,0,1,620.05,1437Zm-28.79-115.42h-.07a4,4,0,0,1-3.93-4.07c.31-17.6,2.28-37.31,6-60.26a4,4,0,1,1,7.89,1.29c-3.68,22.57-5.61,41.9-5.92,59.11A4,4,0,0,1,591.26,1321.57ZM609.11,1203a3.59,3.59,0,0,1-.91-.11,4,4,0,0,1-3-4.8c4-17.23,8.84-36.31,14.75-58.33a4,4,0,1,1,7.73,2.07C621.8,1163.81,617,1182.81,613,1200A4,4,0,0,1,609.11,1203ZM639.82,1087a4,4,0,0,1-3.86-5.08l.74-2.61C642.1,1060,647.2,1041.8,652,1024a4,4,0,1,1,7.73,2.07c-4.79,17.81-9.89,36-15.3,55.31l-.73,2.61A4,4,0,0,1,639.82,1087Zm30.44-116.16a4.09,4.09,0,0,1-.85-.09,4,4,0,0,1-3.07-4.76c1.4-6.46,2.64-12.62,3.69-18.31,2.23-12.18,5.39-25.41,9.64-40.45a4,4,0,0,1,7.7,2.17c-4.19,14.8-7.28,27.8-9.47,39.73-1.06,5.77-2.32,12-3.74,18.56A4,4,0,0,1,670.26,970.79Zm-69.94-94.54c-7.78,0-15.49,0-22.92-.14a4,4,0,0,1,.05-8h0c7.4.09,15.08.14,22.82.14,12,0,24.44-.11,37.09-.33a4,4,0,1,1,.14,8C624.86,876.14,612.33,876.25,600.32,876.25Zm-82.84-2.11h-.23c-22.8-1.29-43-3.2-60.08-5.66a4,4,0,1,1,1.14-7.91c16.84,2.42,36.82,4.3,59.39,5.59a4,4,0,0,1-.22,8Zm180,0a4,4,0,0,1-.16-8c20.24-.84,40.38-1.91,59.84-3.17a4,4,0,0,1,.52,8c-19.53,1.27-39.72,2.34-60,3.18Zm119.76-8a4,4,0,0,1-.39-8l3.79-.39c17.79-1.86,36.36-4.62,55.21-8.2a4,4,0,0,1,1.49,7.86c-19.07,3.62-37.86,6.41-55.87,8.3l-3.82.39Zm-115.38-11a4,4,0,0,1-3.78-5.31c5.53-15.9,11.3-31.85,17.42-48.75l2.83-7.83a4,4,0,1,1,7.52,2.72L723,803.77c-6.11,16.86-11.87,32.8-17.38,48.64A4,4,0,0,1,701.84,855.1Zm-302.39-.44a4,4,0,0,1-1.22-.19,461.57,461.57,0,0,1-56.36-21.88,4,4,0,0,1,3.41-7.24,451.67,451.67,0,0,0,55.38,21.5,4,4,0,0,1-1.21,7.81Zm535.6-10.54a4,4,0,0,1-1-7.86c18.39-4.86,37.15-10.38,57.36-16.87a4,4,0,1,1,2.44,7.62c-20.34,6.53-39.23,12.08-57.76,17A4,4,0,0,1,935.05,844.12Zm114.33-36.36A4,4,0,0,1,1048,800c17-6.13,35.33-13,56.14-21.06a4,4,0,0,1,2.88,7.46c-20.87,8.06-39.28,15-56.3,21.13A4.06,4.06,0,0,1,1049.38,807.76ZM292,802.56a4,4,0,0,1-2.37-.79,231.56,231.56,0,0,1-44-42.06,4,4,0,1,1,6.25-5,224.06,224.06,0,0,0,42.47,40.62,4,4,0,0,1-2.39,7.22Zm869.5-37.83A4,4,0,0,1,1160,757l7.79-3.08c15.75-6.24,32-12.69,48.06-18.95a4,4,0,1,1,2.91,7.45c-16,6.25-32.28,12.7-48,18.93l-7.78,3.09A4.08,4.08,0,0,1,1161.49,764.73ZM742.07,742a4.08,4.08,0,0,1-1.28-.21,4,4,0,0,1-2.5-5.08c7.24-21.32,13.1-40,17.92-57.06a4,4,0,1,1,7.7,2.18c-4.86,17.21-10.76,36-18,57.46A4,4,0,0,1,742.07,742Zm531.32-20.66a4,4,0,0,1-1.39-7.75c20.42-7.56,39-14.11,56.68-20a4,4,0,1,1,2.53,7.59c-17.63,5.89-36.09,12.42-56.43,19.94A4,4,0,0,1,1273.39,721.31ZM217.65,710.09a4,4,0,0,1-3.62-2.3C204.72,688,198.59,669,195.28,649.85a4,4,0,0,1,7.88-1.36c3.19,18.48,9.11,36.76,18.11,55.9a4,4,0,0,1-3.62,5.7Zm1169.57-26.5a4,4,0,0,1-1.09-7.85c20.15-5.69,39.81-10.59,58.46-14.58a4,4,0,1,1,1.67,7.83c-18.48,4-38,8.81-58,14.45A4.15,4.15,0,0,1,1387.22,683.59Zm117.3-24.69a4,4,0,0,1-.5-8,588.34,588.34,0,0,1,60.13-4.66,4,4,0,0,1,.2,8,581,581,0,0,0-59.32,4.59ZM773.77,626.3a3.33,3.33,0,0,1-.7-.07,4,4,0,0,1-3.24-4.63c3.74-21.06,5.56-39.8,5.56-57.27,0-.56,0-1.11,0-1.67a4,4,0,1,1,8,0c0,.57,0,1.14,0,1.72,0,17.95-1.86,37.14-5.69,58.66A4,4,0,0,1,773.77,626.3ZM199,593.47a4,4,0,0,1-3.95-4.68,186.69,186.69,0,0,1,20.3-57.55,4,4,0,1,1,7,3.82,178.2,178.2,0,0,0-19.44,55.08A4,4,0,0,1,199,593.47Zm571-85.8a4,4,0,0,1-3.77-2.67c-.8-2.25-1.66-4.49-2.57-6.66a202.48,202.48,0,0,0-25.87-44.49,4,4,0,0,1,6.37-4.84A211.25,211.25,0,0,1,771,495.26c1,2.3,1.87,4.68,2.72,7.07a4,4,0,0,1-2.43,5.11A4.19,4.19,0,0,1,770,507.67ZM249,485.3a4,4,0,0,1-3.4-6.1,522.74,522.74,0,0,1,34.36-49.63,4,4,0,1,1,6.27,5,518,518,0,0,0-33.83,48.87A4,4,0,0,1,249,485.3Zm450.5-73.08a4,4,0,0,1-2.59-1,415.34,415.34,0,0,0-48.1-34.87,4,4,0,1,1,4.26-6.77,423.06,423.06,0,0,1,49,35.54,4,4,0,0,1-2.59,7.05ZM324.07,392.46a4,4,0,0,1-2.68-7c12.23-11,26.22-22.39,46.77-38a4,4,0,1,1,4.83,6.37c-20.36,15.46-34.19,26.7-46.24,37.57A4,4,0,0,1,324.07,392.46Zm274.86-45.53a4,4,0,0,1-2-.52c-2.24-1.27-4.34-2.47-6.28-3.62-12.73-7.51-29.42-13.49-48.27-17.31a4,4,0,1,1,1.59-7.84c20,4.05,37.07,10.19,50.74,18.26,1.91,1.12,4,2.31,6.16,3.55a4,4,0,0,1-2,7.48ZM424.21,328.8a4,4,0,0,1-1-7.86,262.53,262.53,0,0,1,60.24-8.33,4,4,0,0,1,.21,8,254.76,254.76,0,0,0-58.38,8.05A3.77,3.77,0,0,1,424.21,328.8Z"/><path class="cls-2" d="M3391.85,1093.8h0c-17.57-.11-34.9-.89-51.5-2.32q-4.4-.37-8.77-.82a4,4,0,0,1,.8-8q4.32.43,8.66.81c16.39,1.41,33.5,2.18,50.86,2.29a4,4,0,0,1,0,8Zm59.94-2a4,4,0,0,1-.28-8c18.84-1.32,38.29-3.25,59.47-5.92a4,4,0,1,1,1,7.94c-21.33,2.69-40.93,4.63-59.91,6Zm-179.15-9.92a4.08,4.08,0,0,1-.77-.07c-18.9-3.66-38.64-8.29-58.69-13.74a4,4,0,0,1,2.1-7.72c19.86,5.4,39.41,10,58.11,13.61a4,4,0,0,1-.75,7.92Zm298.21-4.66a4,4,0,0,1-.64-8c20.76-3.37,41.51-7,59.07-10.15a4,4,0,1,1,1.41,7.87c-17.59,3.14-38.38,6.8-59.2,10.18A4.6,4.6,0,0,1,3570.85,1077.22Zm118.21-20.7a4,4,0,0,1-.69-7.94c23.11-4,42-7.16,59.3-9.79a4,4,0,0,1,1.2,7.91c-17.29,2.62-36.07,5.72-59.12,9.76A4.11,4.11,0,0,1,3689.06,1056.52Zm-532.22-5.79a4,4,0,0,1-1.27-.21c-17.92-6-36.45-12.65-56.63-20.32a4,4,0,0,1,2.84-7.48c20.08,7.64,38.51,14.25,56.33,20.21a4,4,0,0,1-1.27,7.8Zm650.91-11.82a4,4,0,0,1-.43-8c21.26-2.3,40.91-3.84,60.06-4.69a4,4,0,0,1,.36,8c-19,.85-38.47,2.37-59.56,4.66Zm175.47-.2a3.27,3.27,0,0,1-.54,0c-17.81-2.39-36.41-4-55.3-4.71a4,4,0,0,1,.31-8c19.14.74,38,2.35,56.06,4.78a4,4,0,0,1-.53,8Zm-938.65-30.34a3.84,3.84,0,0,1-1.51-.3c-18.11-7.39-35.82-14.8-55.44-23a4,4,0,1,1,3.09-7.38c19.6,8.21,37.3,15.61,55.38,23a4,4,0,0,1-1.52,7.7Z"/><path class="cls-2" d="M903.78,645.51s1.93-64.34,93.51-121c65.87-40.78,96.64-67.57,96.64-67.57,44.87-42.62,95.41-82.47,155.47-98.23,76.06-20,156.18,1.13,232.46,20.35,195.76,49.33,405.22,86.21,597,23.43,143.14-46.86,219.63-86.75,369-66.76,48.91,6.55,210.49,44.79,255.84,64.12,109.81,46.82,170.24,20,227.34,124.18,50.85,92.77,7.34,205.08,40.65,305.37,36.21,109,98.94,198.2,79.71,311.36-17.61,103.62-57.59,183-141.37,247.33-80.35,61.65-121.12,23.8-186.41,101-42.4,50.14-91.16,130-151.08,157.35-44.12,20.15-111.62,24.4-160.17,23-92.3-2.74-137.09-5-223.66-36.94-108.75-40.1-212-74-318.92-92.86-114.12-20.14-277.74-61.35-389.47-30.46-39.4,10.9-76.66,28.9-116.56,37.82-121.67,27.22-258-44.61-303.48-159.86-52.6-133.41,10.77-288.1-29.45-425.68-17-58-29.67-59.73-53.14-115.48-10.22-24.28-26.61-65-51.93-100.63-14.38-20.25-28.77-73.74-22-99.74"/><path class="cls-2" d="M3582.68,434.28c-3.45-5.55-9.23-8.93-14.91-11.82a122.39,122.39,0,0,1-18.29-10.92c-10.92-8.22-20.36-18.21-31.38-26.3-5.34-3.91-12.2-6.55-16.91-11.18-5.78-5.69-3.55-14-2.26-21,.71-3.86,1.45-7.14-1.86-9.87-4.49-3.69-9.83-5-15.52-5.19-14.47-.39-29.13.58-43.19,4.19a103.37,103.37,0,0,0-21.2,7.89c-7.26,3.69-13.87,8.83-22.42,8.28-11-.71-22.12-2.85-33.12-2.2-.45,0-1.73.17-1.73.88v64.62a.93.93,0,0,0,.39.72c-.25.2-.29.45.08.76,8.77,7.31,20.4,5.38,30.85,7.47,13.22,2.66,23.9,11.84,33,21.31,8.49,8.87,16.23,18.53,26.11,25.94,10.33,7.75,22.6,11.28,35,14.07,10.44,2.34,23.69,4,31.89-4.44a.39.39,0,0,0,.12-.36,45.72,45.72,0,0,0,12.09,2c7,.1,11.19-3.82,16.24-8.09.57-.48.32-1-.22-1.34l-.23-.15a16.8,16.8,0,0,0,4.43.23c5.91-.51,13.5-3.58,14.1-10.33a27.51,27.51,0,0,0-1.32-9.48,17.8,17.8,0,0,0-1.37-4.18A29.93,29.93,0,0,0,3574,456c4.13-.89,8.06-3,9.87-7A16,16,0,0,0,3582.68,434.28Zm-2.86,13.13c-4,10.88-17.54,7.07-27.18,2.89L3529,436.58l-18.83-10.91c-1.07-.62-5.37-.31-3.28,1.22,11,8,23,14.8,35.1,21.08,2.56,1.32,5.26,2.69,8.06,3.93l2.75,1.59c1.15.67,3.51,1.48,4.36,2.53a13.76,13.76,0,0,0,.44,2.22c.43,1.39.82,2.8,1.14,4.22.68,3.12,1.33,7.07-.47,9.93-2.12,3.34-7.16,5.39-11,5.22-3-.14-6.25-2-8.91-3.23l-2.34-1.1-39.25-26.21c-.91-.61-5.06-.14-3.61,1,6.3,4.84,12.26,10.14,18.7,14.8s13.58,8.08,20.73,11.57l8.62,5.76a61.79,61.79,0,0,1-5.65,4.61c-3,2-6.08,2.25-9.59,1.84-5.86-.68-11.38-2.75-16.72-5.16l-29.1-18.88c-.88-.57-5.08-.19-3.61,1,5,4,9.55,9,15.14,12.22a131.47,131.47,0,0,0,14.83,7.27l6,3.91c-8,7.58-20.83,4.26-30.34,1.89-12.81-3.21-23.95-7.71-33.87-16.63-15.9-14.27-27.86-34-48.82-41.64a61.75,61.75,0,0,0-16.49-3.13c-6.47-.51-13.46-.71-18.67-5.06l-.06,0a.63.63,0,0,0,.09-.31v-63.8c8.61-.26,17.4,1.15,25.94,1.89,4.35.38,8.69.83,13-.21,5.79-1.42,10.73-4.78,15.92-7.55,12.17-6.5,25.77-9.93,39.43-11.39a173.45,173.45,0,0,1,20.64-.9c4.08,0,7.77.16,11.42,2.23,2.08,1.18,4.27,2.42,4.5,5,.46,5.37-2.26,10.93-2.26,16.37a15.4,15.4,0,0,0,6.28,12.75c4.74,3.63,10.27,6.15,15.12,9.66,5.26,3.81,10.14,8.11,15,12.41,9.14,8.11,18.29,16.38,29.17,22.13C3568.43,425.9,3585.06,433,3579.82,447.41Z"/><path class="cls-2" d="M3400.9,434.76c-2.77,2.58-5.54,5.17-5.85,9a5.2,5.2,0,0,0,.35,3.2,5,5,0,0,0,3.82,1.92c6.25.73,12-3,17-6.62,4.27-3.06,9-7.36,7.67-12.21-3.57-5.6-17.58.38-24.23,5.46"/><path class="cls-2" d="M3425,427.87a4.55,4.55,0,0,0-2.2-1.47,12.13,12.13,0,0,0-6.16,0,41.26,41.26,0,0,0-16.27,7.66,6.66,6.66,0,0,0-1.91,2.39,21.49,21.49,0,0,0-3.65,5c-1.11,2.2-2.3,6.29,0,8.1s6.57,1.3,9.27.5a32.38,32.38,0,0,0,8.78-4.48,47.07,47.07,0,0,0,7.88-6.32c2-2.14,4.14-4.81,4.69-7.8A4.63,4.63,0,0,0,3425,427.87Zm-2.63,7.4c-.76,2.16-3,3.66-4.72,5-4.37,3.25-9.38,6.69-15,6.92a8.91,8.91,0,0,1-4.36-.71,3.4,3.4,0,0,1-1.8-3.62,7.37,7.37,0,0,1,1.15-3.9,21.72,21.72,0,0,1,3-3l.38-.37a42.91,42.91,0,0,1,9.3-4.56c3.12-1.08,7.54-2.42,10.67-.68C3422.76,431.33,3423,433.35,3422.32,435.27Z"/><path class="cls-2" d="M3420.29,442.51a34.38,34.38,0,0,0-11.39,9.13c-3,3.71-3.94,9.29-.83,12.91,2.9,3.37,8.36,4,12.74,2.56s7.93-4.4,11.34-7.32l11.84-10.1a45.65,45.65,0,0,0,7.06-7,6.41,6.41,0,0,0,1.45-3c.34-3-3-5.25-6.2-5.74-5.61-.87-11.13,1.54-16.22,3.88l-18.47,8.5"/><path class="cls-2" d="M3454.42,437.66c-1-3.9-5.32-5.72-9-6-5.81-.45-11.33,2-16.47,4.41q-9,4.14-18.07,8.31a2.27,2.27,0,0,0-1.09,3.06c-3.7,3.65-6.33,8.18-5.67,13.28,1.22,9.42,12.28,10.77,19.46,7.48,4.53-2.08,8.25-5.56,12-8.76,4.15-3.54,8.41-7,12.43-10.67C3451,446.12,3455.54,442.12,3454.42,437.66Zm-7.58,6.83c-2.93,2.86-6.17,5.41-9.28,8.07s-6.23,5.45-9.47,8c-2.9,2.31-6.16,4.49-9.92,5-3.09.41-6.85-.25-8.78-2.93-5.27-7.31,6.2-15.46,11.59-18.2a2.26,2.26,0,0,0,.83-.72c4.67-2.24,9.37-4.43,14.18-6.21,3.57-1.33,8.13-2.52,11.79-.85,1.08.5,2.69,1.51,2.67,2.89C3450.44,441.29,3448,443.39,3446.84,444.49Z"/><path class="cls-2" d="M3425.83,465.78c-4,5.58-5.54,7.75-2.77,15.51.6,1.67,4.3,2.37,5.54,2.58,7.75,1.33,13.4-1.91,19.84-6.15a76,76,0,0,0,23.21-23.93c1.48-2.45,2.84-5.41,1.64-8s-4.77-3.76-7.82-3.3-5.69,2.14-8.23,3.78l-18.31,11.78c-6.89,4.43-13.1,7.73-13.1,7.73"/><path class="cls-2" d="M3471.46,441.33c-4.68-2.9-10,.16-14,2.72-10.38,6.62-20.54,13.71-31.41,19.51a.18.18,0,0,0-.07.05h0l0,0a.91.91,0,0,0-.18.27c-2.25,3.13-4,6.07-4.43,10-.3,3-.2,8.82,2.56,10.71,3.48,2.38,9.29,2.07,13.11,1,5.14-1.41,9.84-4.65,14.12-7.74a77.79,77.79,0,0,0,12.78-11.61c3.51-4,7.43-8.69,9.31-13.73C3474.52,449,3475.18,443.64,3471.46,441.33Zm.32,10.31a66.48,66.48,0,0,1-4.2,6.18,75.14,75.14,0,0,1-9.32,10.21,81.89,81.89,0,0,1-11.71,8.84c-3.59,2.26-7.42,4.32-11.68,4.9-2.86.39-9.26.52-11.3-2.25a9.36,9.36,0,0,1-1.31-6.07c.5-2,2.27-3.9,3.43-5.51,6.78-3.61,13.21-7.8,19.66-12,4.58-2.94,9.09-6,13.77-8.81,3.36-2,7.53-3.59,11.31-1.71C3473.34,446.91,3473.34,449,3471.78,451.64Z"/><path class="cls-2" d="M3597.9,355c-15.2,8.24-36,6.24-49.07-4.73-7.45-6.23-13.24-15.36-23-17.24-5.81-1.12-11.74.65-17.58,1.61-7.83,1.29-15.89,1.12-23.65,2.7-19.28,3.93-34.11,17.9-47.74,31.22a12.64,12.64,0,0,0-3.5,4.67c-1.37,4.13,2.37,8.56,6.83,9.72s9.22-.08,13.53-1.68a79,79,0,0,0,26.73-16.53l-9,7.72a52.54,52.54,0,0,0,37.12-14.75,55.88,55.88,0,0,1-11.91,13c19.48,29.18,45.47,52.22,81.62,58.89,0,0,8.52,7.81,4.2,8.61,13.85-2.58,31.37-9.13,47.83-10.63l-21-68.36a7.43,7.43,0,0,0-1.89-3.6c-3.36-2.94-7.12-3.74-10.09-.76"/><path class="cls-1" d="M3584.86,440c16.06-3.09,29.26-8.57,45.62-10.19,1.45-.14,1.94-1.95,1.58-3.1q-7.47-24.42-15-48.83L3613.46,366c-1-3.29-1.64-7.08-3.3-10.1a9.19,9.19,0,0,0-14.06-2.77,2.27,2.27,0,0,0-.45.54c-14.19,6.72-32.3,5.31-44.76-4.51-6-4.71-10.46-11.09-16.95-15.17-7.87-5-16-3.31-24.63-1.78-9.47,1.67-19.24,1.23-28.57,3.78a72.62,72.62,0,0,0-22.38,11,165.59,165.59,0,0,0-19.29,16.49c-4.81,4.63-11.13,10.17-6.09,17.11,5.54,7.63,15.89,5,23.24,2a80.8,80.8,0,0,0,15-8,49.15,49.15,0,0,0,21.94-4.9c-.46.78,1.32,1.6,1.81,2.34,11.26,16.77,25,32.15,42,43.26a110.72,110.72,0,0,0,27.09,13c2.34.74,6.18-1.76,8.55-1.16,1.74.43,9.62,1.77,12.26,12.8m-5.38-12.12c-1.78-1.15-4.63-1.18-6.68-1.67q-4.17-1-8.23-2.33a107.28,107.28,0,0,1-16.24-6.87c-20.2-10.55-36.17-27.27-48.95-45.89A61,61,0,0,0,3510,359c1.2-1.77-.82-4.93-2.74-3.07a50.9,50.9,0,0,1-29.61,13.91c1.33-1.1,2.65-2.22,3.91-3.39,1.86-1.73-.19-5.35-2.37-3.49l-5.14,4.38a77.79,77.79,0,0,1-15.26,9.4,48.59,48.59,0,0,1-11.48,4.06c-4.17.76-10.67.26-12.13-4.72-1.11-3.76,4.69-7.69,7.09-10,2.92-2.79,5.87-5.55,8.93-8.18a95.79,95.79,0,0,1,19.31-13.38,64,64,0,0,1,23.26-6.25c4.43-.4,8.87-.63,13.27-1.26s8.54-1.81,12.89-2.1c8.3-.54,14.16,3.94,19.74,9.5,4.8,4.76,9.38,9.46,15.44,12.61a47.81,47.81,0,0,0,43.49,0,2.13,2.13,0,0,0,1.05-1.3c6.79-4,9.46,10,10.74,14.16q3,9.76,6,19.53,5.55,18.12,11.11,36.24c-14.41,1.8-28.13,6.69-42.29,9.72A16.67,16.67,0,0,0,3579.48,427.84Z"/><rect class="cls-2" x="3610.62" y="338.54" width="32.75" height="95.26" rx="4.69" transform="translate(38.86 1041.56) rotate(-16.43)"/><rect class="cls-2" x="3326.39" y="336.99" width="32.75" height="95.26" rx="4.69" transform="translate(41.64 -266.97) rotate(4.6)"/><path class="cls-2" d="M405.81,512H529.15a0,0,0,0,1,0,0v47.38a2,2,0,0,1-2,2H407.77a2,2,0,0,1-2-2V512A0,0,0,0,1,405.81,512Z" transform="translate(76.53 -58.06) rotate(7.74)"/><path d="M523.6,569.34l-.28,0L405,553.24a2.09,2.09,0,0,1-1.78-2.34l6.4-47.08,122.46,16.64,0,.13-6.38,46.95A2.08,2.08,0,0,1,523.6,569.34Zm-.25-.27a1.83,1.83,0,0,0,2.06-1.56l6.36-46.83-122-16.58-6.36,46.83A1.84,1.84,0,0,0,405,553Z"/><path class="cls-2" d="M414.49,478H533.76a2,2,0,0,1,2,2v17.7a0,0,0,0,1,0,0H412.46a0,0,0,0,1,0,0V480A2,2,0,0,1,414.49,478Z" transform="translate(70 -59.4) rotate(7.74)"/><path d="M534,506.05,411.55,489.41l0-.13L414,471.74a2.11,2.11,0,0,1,.83-1.42,2.18,2.18,0,0,1,1.6-.43L534.56,486a2.15,2.15,0,0,1,1.85,2.42ZM411.83,489.19l122,16.58,2.36-17.42a1.87,1.87,0,0,0-.37-1.41,1.9,1.9,0,0,0-1.26-.74L416.34,470.14a1.9,1.9,0,0,0-2.14,1.63Z"/><path class="cls-1" d="M356.45,537.15A278,278,0,0,0,359,599.3c.44,2.85,1,5.91,3.13,7.89,1.67,1.57,4,2.18,6.24,2.7a247.15,247.15,0,0,0,113-.32c2.54-.61,5.23-1.34,7-3.25,2.28-2.43,2.52-6.09,2.61-9.43q.9-31.3.68-62.64c0-1.56-.06-3.24-1-4.48-1.16-1.52-3.24-1.88-5.13-2.11-11.68-1.44-23.45-2-35.2-2.62l-85.93-4.28c-2.46-.13-5.31-.09-6.87,1.82-2.93,3.57,1.4,10.13-2.09,13.16"/><path class="cls-2" d="M493.61,527.3c-1-2.51-3.33-3-5.78-3.36-4.18-.59-8.43-.92-12.64-1.26-15.6-1.25-31.27-1.78-46.9-2.56l-53-2.65c-3.78-.19-7.79-.8-11.56-.39-2.87.31-4.59,1.85-6.21,4.13-1.47,2.06-2.4,3-2.82,5.59a22.36,22.36,0,0,0-.31,5c.06.58,0,1.79,0,2.37l-.37,6.49a282.07,282.07,0,0,0,.67,47.4q.57,5.64,1.36,11.25c.42,3,.65,6.25,1.94,9,2.83,6.07,12.38,6.35,18.11,7.44a248.21,248.21,0,0,0,89.72.34q5.4-1,10.77-2.19c3.18-.72,6.65-1.29,9.26-3.4,4.09-3.32,6.82-9.08,7.34-14.24.75-7.5.48-15.22.61-22.75q.21-11.75.25-23.49,0-5.7,0-11.39C494.09,535.23,494.91,530.48,493.61,527.3Zm-5.07,76.81c0-.11.1-.17.16-.1Zm.46-20.82c-.13,7-.65,14-.77,21-.54.26-1.39.63-1.55.69a36.47,36.47,0,0,1-4.61,1.25q-5.34,1.24-10.75,2.25a246.83,246.83,0,0,1-84.48.92q-5.76-.95-11.47-2.15c-3.22-.69-7.28-1.08-10-3-2.95-2.09-3.53-5.72-4-9.06-.61-4-1.12-8-1.55-11.94-1.77-16.44-1.4-32-.95-48.57,0-1,.11-7.24.1-9.85a21.89,21.89,0,0,1,2.74-.31c2.06,0,4.13.2,6.19.31l43.68,2.18c14.52.72,29.05,1.41,43.57,2.18,7.05.37,14.1.8,21.13,1.48,3,.3,6.48.27,9.4,1.21,3.8,1.23,3.67,4.6,3.69,8.05Q489.41,561.58,489,583.29Z"/><path class="cls-2" d="M356.67,562c24.37,2.53,49,2.14,73.45,3.2,16,.69,32.08,1.46,48.1,1,3-.09,6.81.15,9.67-1,3.21-1.33,4.9-6.27,5.74-9.32.26-.94,1.72-8.19-1.17-7-2.29,1-5.2.85-7.62,1-5.75.26-11.52.19-17.27.09-21.24-.34-42.45-1.63-63.69-2.11-13.68-.3-27.35-.68-41-2.09-5-.51-9.31,16-6.24,16.34Z"/><path class="cls-2" d="M373.2,593.61l9.32,0c.39,0,.81-.79.94-1a18,18,0,0,0,1.34-2.8,17.76,17.76,0,0,0,1-2.94c0-.16.32-1.37,0-1.37l-9.32,0c-.4,0-.81.79-.94,1a17.08,17.08,0,0,0-1.35,2.79,17.76,17.76,0,0,0-1,2.94c0,.17-.31,1.38,0,1.38Z"/><path class="cls-2" d="M458.63,562.1l4.19,96.54q103.59,6.2,207.33,9.75c3,.1,6.19.13,8.6-1.62,2.93-2.14,3.64-6.14,4.12-9.74,3.71-27.86,4-59.1,4-91.16-77.46-8.19-148-6.71-225.84-10.72"/><path class="cls-1" d="M456,563l4.19,96.55a1.86,1.86,0,0,0,1.89,2q66.66,4,133.36,6.88,33.36,1.46,66.72,2.62c8.33.29,17.79,1.62,21.7-7.58,1.48-3.47,1.74-7.44,2.19-11.15.62-5.13,1.12-10.27,1.53-15.43,1.91-23.93,2-48,2-72,0-.75-.34-1.9-1.26-2-58.33-6.13-117-7-175.53-8.76-17-.52-34-1.16-50.94-2-2.83-.15-5.22,5.71-1.56,5.9,58.1,3,116.31,2.92,174.37,6.48,17,1,33.93,2.41,50.84,4.19l-1.26-2c0,20.24-.13,40.5-1.27,60.71-.53,9.34-1.29,18.67-2.45,27.95-.52,4.15-.49,9.32-5.64,9.94s-10.52-.16-15.56-.34q-62.37-2.22-124.71-5.41-35.52-1.8-71-3.93l1.89,2L461.3,561.2c-.17-4-5.46-1.12-5.34,1.8Z"/><path class="cls-1" d="M572.93,584.39c-1.1-1-4.68-.56-6-.38l-10.3,1.36-4.81.64-2.75.37c.72-.11.76-.52.14-1.24-.25-1.31-4.84-1-5.53-1-8.38.67-17.23,2.24-25.6,1.11C510,584.15,502,581.75,494,579.81a12.21,12.21,0,0,0-6.18,0c-1.31.46-1.73,1,0,1.42,9.41,2.29,18.86,5.08,28.51,6.08,8.23.84,16.54,0,24.78-.76,2,2.43,7.41,2.08,9.94,1.88,6.77-.53,13.55-1.76,20.28-2.65C572.4,585.61,574.1,585.41,572.93,584.39Z"/><path class="cls-1" d="M572.87,610.27c-1.1-1-4.68-.56-6-.38l-10.3,1.36-4.81.64-2.75.37c.72-.11.76-.52.14-1.24-.25-1.31-4.84-1-5.53-1-8.38.67-17.23,2.24-25.6,1.11-8.11-1.11-16.11-3.51-24.06-5.45a12.1,12.1,0,0,0-6.18,0c-1.31.45-1.73,1,0,1.41,9.41,2.29,18.86,5.08,28.51,6.08,8.23.84,16.54,0,24.78-.76,2,2.43,7.41,2.08,9.94,1.88,6.77-.53,13.55-1.76,20.28-2.65C572.35,611.49,574,611.29,572.87,610.27Z"/><path class="cls-1" d="M572.81,636.15c-1.1-1-4.68-.56-6-.38l-10.3,1.36-4.81.64-2.75.37c.72-.11.76-.52.14-1.24-.25-1.31-4.84-1-5.53-1-8.38.67-17.23,2.24-25.6,1.11-8.11-1.11-16.11-3.51-24.06-5.45a12.1,12.1,0,0,0-6.18,0c-1.31.45-1.73,1,0,1.41,9.41,2.29,18.86,5.08,28.51,6.08,8.23.85,16.54,0,24.78-.76,2,2.43,7.41,2.08,9.94,1.88,6.77-.53,13.55-1.76,20.28-2.65C572.29,637.37,574,637.17,572.81,636.15Z"/><path class="cls-1" d="M669.51,645.31c-3.61-4.85-9.35-5.79-14.92-7a27.47,27.47,0,0,0-4.84-1.09c-1.45,0-2.68.42-4.17.1a8.53,8.53,0,0,1-5.87-4.64,2.31,2.31,0,0,0-3.66-.36c-3.43,3.58-8,8.67-13.47,8.23a6.87,6.87,0,0,1-4.62-2.66c-.58-.73-2-2.8-1.06-3.75,1.1-1.12,1.86-3,1-4.46a2.31,2.31,0,0,0-3.66-.37c-5.15,5.24-2.86,13.4,3.46,16.57,6.84,3.43,13.91-1.79,18.92-6.64a13.27,13.27,0,0,0,11.06,4.49c3.17-.16,6.83,1.11,9.91,1.9,2.59.67,5.57,1.6,7.24,3.84C667.14,652.52,671.43,647.89,669.51,645.31Z"/><path class="cls-1" d="M647.76,581.09c-8.52-.49-15,7.07-16.48,14.93A18,18,0,0,0,642,616a21,21,0,0,0,13.27,1.39c2.49-.56,3.09-7.05.24-6.4-7.54,1.71-17.16-1.78-19.94-9.51a9.5,9.5,0,0,1,1.58-9.21,11,11,0,0,1,9.27-4.71c1.51.09,2.34-1.53,2.6-2.81.19-.93.21-3.52-1.27-3.61Z"/><path class="cls-1" d="M624.87,599.14a44.49,44.49,0,0,0,24.2-2.46c.76-.29,2.41-1.59,1.11-2.66s-3.38-.68-4.76-.15a31.18,31.18,0,0,1-17.22,1.69c-1.45-.26-3.49-.21-4.7,1.18s.61,2.26,1.37,2.4Z"/><path class="cls-1" d="M623.61,608.77c9.54,1.6,19-1,27.07-6.15,1.12-.71,2.66-2.1,2.84-3.51s-1.36-.81-2-.37a33.78,33.78,0,0,1-23.88,5.06c-1.29-.21-2.76,1.37-3.47,2.25-.33.43-1.76,2.51-.51,2.72Z"/></g></g></svg>