<svg xmlns="http://www.w3.org/2000/svg" viewBox="0 0 4000 2000"><defs><style>.cls-1{fill:#1d66ac;}.cls-2{fill:#fff;}</style></defs><g id="Calque_2" data-name="Calque 2"><g id="Calque_1-2" data-name="Calque 1"><rect class="cls-1" width="4000" height="2000"/><path class="cls-2" d="M3512.2,1154.69h0c-17.58-.1-34.91-.88-51.51-2.31-2.92-.25-5.85-.53-8.77-.82a4,4,0,1,1,.81-8q4.32.44,8.65.81c16.39,1.41,33.5,2.18,50.87,2.28a4,4,0,0,1,0,8Zm59.94-2a4,4,0,0,1-.28-8c18.84-1.31,38.29-3.25,59.48-5.91a4,4,0,0,1,1,7.94c-21.32,2.68-40.92,4.63-59.91,6ZM3393,1142.78a3.91,3.91,0,0,1-.76-.07c-18.9-3.67-38.65-8.29-58.7-13.75a4,4,0,0,1,2.1-7.72c19.86,5.41,39.41,10,58.12,13.61a4,4,0,0,1-.76,7.93Zm298.21-4.67a4,4,0,0,1-.64-7.95c20.77-3.36,41.52-7,59.08-10.15a4,4,0,1,1,1.4,7.88c-17.59,3.13-38.38,6.8-59.2,10.17A3.45,3.45,0,0,1,3691.2,1138.11Zm118.21-20.7a4,4,0,0,1-.69-7.94c23.11-4,42-7.15,59.3-9.78a4,4,0,0,1,1.2,7.91c-17.29,2.62-36.07,5.72-59.12,9.75A4,4,0,0,1,3809.41,1117.41Zm-532.22-5.79a4,4,0,0,1-1.27-.21c-17.92-6-36.44-12.64-56.63-20.32a4,4,0,0,1,2.85-7.47c20.08,7.63,38.5,14.24,56.32,20.21a4,4,0,0,1-1.27,7.79Zm650.91-11.81a4,4,0,0,1-.43-8c21.26-2.3,40.91-3.84,60.06-4.7a4,4,0,1,1,.36,8c-19,.84-38.46,2.37-59.55,4.65Zm-763.18-30.54a4.06,4.06,0,0,1-1.51-.3c-18.1-7.4-35.82-14.81-55.44-23a4,4,0,1,1,3.09-7.38c19.6,8.22,37.3,15.62,55.38,23a4,4,0,0,1-1.52,7.71Z"/><path class="cls-2" d="M385.2,768.18h0c17.57.11,34.9.89,51.5,2.31q4.39.39,8.77.82a4,4,0,1,1-.8,8c-2.88-.29-5.77-.56-8.65-.8-16.39-1.42-33.51-2.19-50.87-2.29a4,4,0,0,1,0-8Zm-59.93,2a4,4,0,0,1,.27,8c-18.84,1.31-38.29,3.25-59.47,5.91a4,4,0,1,1-1-7.93c21.33-2.69,40.93-4.64,59.91-6Zm179.14,9.91a4,4,0,0,1,.77.08c18.9,3.66,38.65,8.28,58.69,13.74a4,4,0,1,1-2.1,7.72c-19.85-5.41-39.41-10-58.11-13.61a4,4,0,0,1,.75-7.93Zm-298.2,4.67a4,4,0,0,1,.63,8c-20.76,3.36-41.51,7-59.07,10.15a4,4,0,1,1-1.41-7.87c17.59-3.14,38.38-6.81,59.2-10.18A4.74,4.74,0,0,1,206.21,784.76ZM88,805.46a4,4,0,0,1,.68,7.94c-23.1,4.05-42,7.16-59.29,9.79a4,4,0,1,1-1.2-7.91c17.28-2.63,36.07-5.73,59.11-9.76A4.23,4.23,0,0,1,88,805.46Zm532.21,5.79a4,4,0,0,1,1.27.21c17.93,6,36.45,12.64,56.63,20.32a4,4,0,1,1-2.84,7.48c-20.08-7.64-38.51-14.25-56.33-20.21a4,4,0,0,1,1.27-7.8ZM732.48,853.6a4,4,0,0,1,1.51.3c18.11,7.4,35.83,14.81,55.45,23a4,4,0,0,1-3.09,7.38c-19.61-8.22-37.31-15.62-55.38-23a4,4,0,0,1,1.51-7.71Z"/><path class="cls-2" d="M2557.71,880.06h0c17.57.11,34.9.89,51.5,2.32q4.39.38,8.77.82a4,4,0,1,1-.8,8q-4.32-.43-8.65-.81c-16.39-1.41-33.51-2.18-50.87-2.29a4,4,0,0,1,0-8Zm-59.94,2a4,4,0,0,1,.27,8c-18.84,1.32-38.29,3.25-59.47,5.92a4,4,0,1,1-1-7.94c21.33-2.68,40.93-4.63,59.92-6ZM2676.92,892a4,4,0,0,1,.76.07c18.9,3.66,38.65,8.29,58.69,13.74a4,4,0,1,1-2.1,7.72c-19.85-5.4-39.41-10-58.11-13.61a4,4,0,0,1,.76-7.92Zm-298.21,4.66a4,4,0,0,1,.63,8c-20.76,3.37-41.51,7-59.07,10.16a4,4,0,0,1-1.41-7.88c17.59-3.14,38.38-6.8,59.2-10.18A4.74,4.74,0,0,1,2378.71,896.64Zm-118.21,20.7a4,4,0,0,1,.68,7.94c-23.1,4.05-41.94,7.16-59.29,9.79a4,4,0,1,1-1.2-7.91c17.28-2.62,36.07-5.72,59.11-9.76A4.23,4.23,0,0,1,2260.5,917.34Zm532.21,5.8a4,4,0,0,1,1.27.2c17.93,6,36.45,12.65,56.63,20.32a4,4,0,1,1-2.84,7.48c-20.08-7.64-38.5-14.25-56.32-20.21a4,4,0,0,1,1.26-7.79ZM2905,965.49a3.8,3.8,0,0,1,1.51.3c18.11,7.39,35.83,14.8,55.45,23a4,4,0,0,1-3.09,7.38c-19.61-8.21-37.31-15.61-55.38-23a4,4,0,0,1,1.51-7.7Z"/><path class="cls-2" d="M242.75,1103c1.76,17.71-8.78,35.21-24.33,43.39a40,40,0,0,1-14,4.37,1.53,1.53,0,0,0-1.44,1.9l1.5,10.13a1.49,1.49,0,0,0,1.45,1.1c13.84-.64,27.7-.72,41.56-.48,14.11.25,28.21.73,42.32,1q14.3.26,28.59.19a1.53,1.53,0,0,0,1.44-1.11,20.12,20.12,0,0,0,.84-6.49c-.18-1.9-.62-3.75-.78-5.65a1.54,1.54,0,0,0-1.5-1.5c-8.89.22-19.22.57-26.82-4.82-3.78-2.68-6-6.67-7.57-10.92a58.25,58.25,0,0,1-3.42-16,111.52,111.52,0,0,1,.35-21c.2-1.92-2.8-1.9-3,0-1.31,12.16-1.31,25.22,2.84,36.86,1.69,4.71,3.89,9.27,7.83,12.51a27.18,27.18,0,0,0,12.53,5.46,83.75,83.75,0,0,0,17.26.88l-1.5-1.5c.15,1.84.54,3.62.75,5.44a16.71,16.71,0,0,1-.7,5.91l1.45-1.1c-16,.08-32-.22-48-.63-13.51-.35-27-.73-40.53-.67q-12,.06-23.94.61l1.44,1.1-1.5-10.13-1.45,1.9c18.9-2.1,34.95-17,40-35.09a43,43,0,0,0,1.4-15.67c-.19-1.9-3.19-1.92-3,0Z"/><path class="cls-2" d="M207.18,985.29l-43.85-1.48a1.53,1.53,0,0,0-1.45,1.9c2.3,15.42,2.71,31.43,8.24,46.18a55.08,55.08,0,0,0,11.49,18.84,53.05,53.05,0,0,0,17.35,12,52.34,52.34,0,0,0,23.52,4.3c1.92-.11,1.93-3.11,0-3A50.22,50.22,0,0,1,185.07,1050c-10.79-10.49-14.88-25.12-17-39.58-1.27-8.47-2-17-3.26-25.47l-1.44,1.9,43.85,1.48c1.93.06,1.93-2.94,0-3Z"/><path class="cls-2" d="M321.63,989.45a241,241,0,0,1,36.24,1.08l-1.5-1.5a89.85,89.85,0,0,1-5.68,39.29c-4.27,11-11.24,21.43-21.47,27.73a37.44,37.44,0,0,1-18.76,5.73c-1.93,0-1.94,3,0,3,12.49-.23,24-6.88,32-16.3,8.45-10,13.4-22.86,15.72-35.67A92.92,92.92,0,0,0,359.37,989a1.55,1.55,0,0,0-1.5-1.5,241,241,0,0,0-36.24-1.08c-1.92.09-1.93,3.09,0,3Z"/><path class="cls-2" d="M208.09,965.42a108,108,0,0,1,41.77-13.54,110.62,110.62,0,0,1,43.54,3.81A97,97,0,0,1,305,959.93c3.73,1.65,7.52,3.69,10,7l1.3-2.26q-42.57,1.47-85.15-.48-12-.56-24-1.38c-1.93-.13-1.92,2.87,0,3q42.48,2.92,85.11,2.42,12-.15,24.08-.56c1,0,2-1.3,1.29-2.26-4.61-6.1-12.34-8.9-19.33-11.3A110.61,110.61,0,0,0,276,949a114.18,114.18,0,0,0-45.59,3.67,108.87,108.87,0,0,0-23.87,10.12,1.5,1.5,0,0,0,1.51,2.59Z"/><path class="cls-2" d="M322.34,975c-2.58-3-7.11-3.28-11.11-3.29l-96.08-.06-9.65.12c2.72,28.84-2.92,58.3,2.75,86.71s28.69,57.18,57.53,54.45c17.18-1.62,31.78-14.31,40.05-29.46s11.21-32.56,13.47-49.66q3.22-24.22,5-48.63C324.53,981.65,324.64,977.71,322.34,975Zm-45.57,62.27a114.75,114.75,0,0,1-11.69-11.4,1.48,1.48,0,0,0-1.37-.36,2.1,2.1,0,0,0-1,.62c-3.82,3.55-7.65,7.48-11.65,10.27-.62-1.05-.06-3.87.31-5q1.85-5.67,3.68-11.33a133.17,133.17,0,0,0-13.86-10.62q7.77-.23,15.55-.1l1.33,0q2.25-5.5,4.92-10.82c.06-.11.14-.25.27-.26a.4.4,0,0,1,.33.18,63,63,0,0,1,8.14,11.12h.45l16.12.19c-5.3,3-9.27,6.59-14.38,9.86C274.54,1024.61,276.17,1032.62,276.77,1037.28Z"/><path class="cls-2" d="M3759.56,906.88c-3.45-5.55-9.23-8.93-14.91-11.82a122.39,122.39,0,0,1-18.29-10.92c-10.92-8.22-20.36-18.21-31.38-26.3-5.34-3.91-12.2-6.55-16.91-11.18-5.78-5.69-3.56-14-2.26-21,.71-3.86,1.45-7.14-1.86-9.87-4.49-3.69-9.83-5-15.52-5.19-14.47-.39-29.13.59-43.19,4.2a102.76,102.76,0,0,0-21.2,7.88c-7.26,3.69-13.87,8.83-22.42,8.28-11-.71-22.12-2.85-33.12-2.2-.45,0-1.73.17-1.73.88v64.62a1,1,0,0,0,.39.73c-.25.19-.29.44.08.75,8.77,7.31,20.4,5.38,30.85,7.48,13.22,2.65,23.9,11.84,33,21.31,8.49,8.87,16.23,18.52,26.11,25.93,10.33,7.75,22.6,11.28,35,14.07,10.44,2.34,23.69,4,31.89-4.44a.39.39,0,0,0,.12-.36,45.72,45.72,0,0,0,12.09,1.95c7,.1,11.19-3.82,16.24-8.09.57-.48.32-1-.22-1.34l-.24-.15a16.9,16.9,0,0,0,4.44.23c5.91-.51,13.5-3.58,14.1-10.33a27.54,27.54,0,0,0-1.32-9.48,17.8,17.8,0,0,0-1.37-4.18,29.93,29.93,0,0,0,12.91.31c4.13-.89,8.06-3,9.87-7A16,16,0,0,0,3759.56,906.88ZM3756.7,920c-3.95,10.89-17.54,7.07-27.18,2.89l-23.68-13.72L3687,898.27c-1.07-.62-5.37-.3-3.28,1.22,11,8,23,14.8,35.1,21.08,2.56,1.33,5.26,2.69,8.06,3.93l2.75,1.59c1.15.67,3.51,1.48,4.36,2.53a13.76,13.76,0,0,0,.44,2.22c.43,1.39.82,2.8,1.13,4.23.69,3.11,1.34,7.06-.47,9.92-2.11,3.34-7.15,5.4-11,5.22-3-.14-6.25-2-8.91-3.23l-2.34-1.09-39.25-26.22c-.91-.61-5.06-.14-3.61,1,6.3,4.84,12.26,10.14,18.7,14.8s13.58,8.08,20.73,11.57l8.62,5.76a61.79,61.79,0,0,1-5.65,4.61c-3,2-6.08,2.25-9.59,1.85-5.86-.68-11.38-2.76-16.72-5.17L3657,935.18c-.88-.57-5.08-.19-3.61,1,5,4,9.55,9,15.14,12.22a131.47,131.47,0,0,0,14.83,7.27l6,3.91c-8,7.58-20.83,4.26-30.34,1.89-12.81-3.21-23.95-7.71-33.87-16.63-15.9-14.27-27.86-34-48.82-41.64a61.75,61.75,0,0,0-16.49-3.13c-6.47-.51-13.46-.71-18.67-5.06l-.06,0a.63.63,0,0,0,.09-.31V830.85c8.61-.27,17.4,1.14,25.94,1.88,4.35.38,8.69.84,13-.21,5.79-1.42,10.73-4.77,15.92-7.55,12.17-6.5,25.77-9.93,39.43-11.39a173.45,173.45,0,0,1,20.64-.9c4.08.05,7.77.16,11.42,2.23,2.08,1.18,4.27,2.42,4.5,5,.46,5.37-2.26,10.93-2.26,16.37a15.4,15.4,0,0,0,6.28,12.75c4.74,3.63,10.27,6.15,15.12,9.66,5.26,3.82,10.14,8.11,15,12.41,9.14,8.11,18.29,16.38,29.17,22.13C3745.31,898.5,3761.94,905.61,3756.7,920Z"/><path class="cls-2" d="M3577.78,907.36c-2.77,2.58-5.54,5.17-5.86,9a5.27,5.27,0,0,0,.36,3.2,5,5,0,0,0,3.82,1.92c6.25.73,12-3,17-6.62,4.27-3.06,9-7.36,7.67-12.21-3.57-5.6-17.58.38-24.23,5.46"/><path class="cls-2" d="M3601.83,900.47a4.55,4.55,0,0,0-2.2-1.47,12.13,12.13,0,0,0-6.16,0,41.4,41.4,0,0,0-16.27,7.66,6.56,6.56,0,0,0-1.91,2.39,21.49,21.49,0,0,0-3.65,5c-1.11,2.2-2.3,6.29,0,8.1s6.57,1.3,9.27.5a32.38,32.38,0,0,0,8.78-4.48,47.07,47.07,0,0,0,7.88-6.32c2-2.14,4.14-4.81,4.69-7.8A4.63,4.63,0,0,0,3601.83,900.47Zm-2.63,7.4c-.76,2.16-2.95,3.66-4.72,5-4.37,3.24-9.38,6.68-15,6.91a8.91,8.91,0,0,1-4.36-.71,3.39,3.39,0,0,1-1.8-3.61,7.38,7.38,0,0,1,1.15-3.91,21.12,21.12,0,0,1,3-3l.38-.37a42,42,0,0,1,9.3-4.56c3.12-1.09,7.54-2.43,10.67-.69C3599.64,903.93,3599.88,906,3599.2,907.87Z"/><path class="cls-2" d="M3597.17,915.11a34.38,34.38,0,0,0-11.39,9.13c-3,3.71-3.94,9.29-.83,12.91,2.9,3.37,8.36,4,12.74,2.56s7.93-4.4,11.34-7.32l11.84-10.1a45.65,45.65,0,0,0,7.06-7,6.36,6.36,0,0,0,1.45-3c.34-3-3-5.24-6.2-5.74-5.61-.87-11.13,1.54-16.23,3.88l-18.46,8.5"/><path class="cls-2" d="M3631.3,910.26c-1-3.9-5.32-5.72-9-6-5.81-.44-11.33,2-16.47,4.41q-9,4.14-18.07,8.31a2.28,2.28,0,0,0-1.09,3.07c-3.7,3.64-6.33,8.17-5.67,13.28,1.22,9.41,12.28,10.77,19.46,7.47,4.53-2.08,8.25-5.56,12-8.76,4.15-3.54,8.41-7,12.43-10.67C3627.85,918.72,3632.42,914.72,3631.3,910.26Zm-7.58,6.83c-2.93,2.86-6.17,5.42-9.28,8.07s-6.23,5.45-9.47,8c-2.9,2.31-6.16,4.49-9.92,5-3.09.41-6.85-.25-8.78-2.93-5.27-7.31,6.2-15.45,11.59-18.2a2.26,2.26,0,0,0,.83-.72c4.67-2.24,9.37-4.43,14.18-6.21,3.57-1.33,8.13-2.52,11.79-.85,1.08.5,2.69,1.51,2.67,2.89C3627.32,913.89,3624.84,916,3623.72,917.09Z"/><path class="cls-2" d="M3602.71,938.38c-4,5.58-5.54,7.75-2.77,15.51.6,1.67,4.3,2.37,5.54,2.58,7.75,1.33,13.4-1.91,19.84-6.15a76,76,0,0,0,23.21-23.93c1.48-2.45,2.84-5.41,1.64-8s-4.77-3.76-7.82-3.29-5.69,2.14-8.23,3.77l-18.31,11.78c-6.89,4.43-13.1,7.73-13.1,7.73"/><path class="cls-2" d="M3648.34,913.93c-4.68-2.9-10,.16-14,2.72-10.38,6.62-20.54,13.71-31.41,19.51,0,0,0,0-.07.05s0,0,0,0l0,0a.91.91,0,0,0-.18.27c-2.25,3.13-4,6.07-4.43,10-.3,3-.2,8.82,2.56,10.71,3.48,2.38,9.29,2.07,13.11,1,5.14-1.4,9.84-4.65,14.12-7.74a77.34,77.34,0,0,0,12.78-11.61c3.51-4,7.43-8.69,9.31-13.73C3651.4,921.64,3652.06,916.24,3648.34,913.93Zm.32,10.31a66.48,66.48,0,0,1-4.2,6.18,75.14,75.14,0,0,1-9.32,10.21,81.89,81.89,0,0,1-11.71,8.84c-3.59,2.26-7.42,4.32-11.68,4.9-2.86.4-9.26.52-11.3-2.24a9.4,9.4,0,0,1-1.31-6.08c.5-2,2.27-3.9,3.43-5.5,6.78-3.62,13.21-7.81,19.66-12,4.58-3,9.09-6.05,13.77-8.82,3.36-2,7.53-3.59,11.31-1.71C3650.22,919.51,3650.22,921.59,3648.66,924.24Z"/><path class="cls-2" d="M3774.78,827.58c-15.2,8.24-36,6.24-49.07-4.72-7.45-6.24-13.25-15.37-23-17.25-5.81-1.12-11.74.65-17.58,1.61-7.83,1.29-15.89,1.12-23.65,2.71-19.28,3.93-34.11,17.89-47.74,31.21a12.64,12.64,0,0,0-3.5,4.67c-1.37,4.13,2.37,8.56,6.83,9.72s9.22-.08,13.53-1.68a79.14,79.14,0,0,0,26.73-16.52l-9,7.71a52.49,52.49,0,0,0,37.12-14.75,55.68,55.68,0,0,1-11.91,13c19.48,29.19,45.47,52.22,81.62,58.89,0,0,8.52,7.81,4.2,8.62,13.85-2.59,31.37-9.14,47.83-10.64l-21-68.36a7.43,7.43,0,0,0-1.89-3.6c-3.36-2.94-7.12-3.73-10.09-.76"/><path class="cls-1" d="M3761.73,912.56c16.07-3.09,29.27-8.57,45.63-10.19,1.45-.14,1.94-2,1.58-3.1q-7.47-24.42-15-48.83l-3.64-11.86c-1-3.29-1.64-7.08-3.3-10.1a9.19,9.19,0,0,0-14.06-2.77,2.13,2.13,0,0,0-.45.55c-14.19,6.71-32.3,5.3-44.76-4.52-6-4.7-10.46-11.08-16.95-15.17-7.88-4.94-16-3.31-24.63-1.78-9.47,1.67-19.24,1.23-28.57,3.78a72.62,72.62,0,0,0-22.38,11A165.59,165.59,0,0,0,3616,836.06c-4.81,4.63-11.13,10.18-6.09,17.11,5.54,7.63,15.89,5,23.24,2a80.8,80.8,0,0,0,15-8,49,49,0,0,0,21.94-4.9c-.46.78,1.32,1.6,1.81,2.34,11.26,16.77,25,32.15,42,43.26a110.72,110.72,0,0,0,27.09,13c2.34.75,6.18-1.75,8.55-1.16,1.74.44,9.62,1.77,12.25,12.8m-5.37-12.12c-1.78-1.15-4.63-1.18-6.68-1.67q-4.17-1-8.23-2.33a107.28,107.28,0,0,1-16.24-6.87C3705,879,3689,862.3,3676.26,843.68a61.2,61.2,0,0,0,10.66-12c1.2-1.78-.82-4.94-2.74-3.08a50.84,50.84,0,0,1-29.61,13.91c1.33-1.09,2.65-2.22,3.91-3.39,1.86-1.73-.19-5.35-2.38-3.49L3651,840a77.79,77.79,0,0,1-15.26,9.4,48.59,48.59,0,0,1-11.48,4.06c-4.17.76-10.67.26-12.13-4.72-1.11-3.76,4.68-7.69,7.09-10,2.92-2.79,5.87-5.55,8.93-8.18a95.79,95.79,0,0,1,19.31-13.38,64,64,0,0,1,23.26-6.25c4.43-.4,8.87-.63,13.26-1.26s8.55-1.81,12.9-2.1c8.3-.54,14.16,3.94,19.74,9.5,4.8,4.76,9.38,9.46,15.44,12.61a47.81,47.81,0,0,0,43.49,0,2.13,2.13,0,0,0,1.05-1.3c6.79-4,9.46,10,10.74,14.16q3,9.76,6,19.53,5.55,18.12,11.11,36.24c-14.41,1.8-28.13,6.69-42.29,9.72A16.67,16.67,0,0,0,3756.36,900.44Z"/><rect class="cls-2" x="3787.5" y="811.15" width="32.75" height="95.26" rx="4.69" transform="translate(-87.58 1110.89) rotate(-16.43)"/><rect class="cls-2" x="3503.27" y="809.59" width="32.75" height="95.26" rx="4.69" transform="translate(80.13 -279.64) rotate(4.6)"/><path class="cls-2" d="M450.45,634.66s1.42-47.41,74.28-89C577.12,515.68,601.59,496,601.59,496c35.67-31.33,75.86-60.6,123.67-72.11,60.57-14.58,124.43,1.11,185.23,15.41,156,36.7,323,64.25,475.61,18.33C1500,423.36,1560.91,394.1,1680,409.1c39,4.91,167.76,33.38,203.92,47.71,87.57,34.69,135.66,15,181.33,91.91,40.67,68.46,6.21,151.15,32.93,225.11,29,80.41,79.17,146.24,64,229.6-13.84,76.33-45.55,134.79-112.18,182-63.89,45.29-96.44,17.33-148.31,74.1-33.69,36.87-72.39,95.61-120.08,115.68-35.11,14.78-88.87,17.79-127.56,16.64-73.53-2.18-109.21-3.95-178.23-27.62-86.71-29.75-169-54.91-254.23-69-90.95-15-221.37-45.71-310.32-23.14-31.37,8-61,21.15-92.79,27.66-96.88,19.84-205.63-33.34-242-118.36-42.15-98.4,8-212.29-24.23-313.74-13.61-42.8-23.74-44.08-42.54-85.2-8.18-17.91-21.31-47.94-41.55-74.26-11.48-14.94-23.05-54.39-17.69-73.54"/></g></g></svg>