<svg xmlns="http://www.w3.org/2000/svg" xmlns:xlink="http://www.w3.org/1999/xlink" viewBox="0 0 259.57 355.52"><defs><style>.cls-1{fill:url(#Dégradé_sans_nom_12);}.cls-2{fill:url(#Dégradé_sans_nom_12-2);}.cls-3{fill:url(#Dégradé_sans_nom_12-3);}.cls-4{fill:url(#Dégradé_sans_nom_12-4);}.cls-5{fill:url(#Dégradé_sans_nom_12-5);}.cls-6{fill:url(#Dégradé_sans_nom_12-6);}.cls-7{fill:url(#Dégradé_sans_nom_12-7);}.cls-8{fill:url(#Dégradé_sans_nom_12-8);}.cls-9{fill:url(#Dégradé_sans_nom_12-9);}.cls-10{fill:url(#Dégradé_sans_nom_12-10);}.cls-11{fill:#5db67d;}.cls-12{fill:#fff;}</style><linearGradient id="Dégradé_sans_nom_12" x1="0.99" y1="156.42" x2="228.32" y2="156.42" gradientUnits="userSpaceOnUse"><stop offset="0" stop-color="#1b66ae"/><stop offset="1" stop-color="#1c66ad"/></linearGradient><linearGradient id="Dégradé_sans_nom_12-2" x1="51.56" y1="100.2" x2="97.25" y2="100.2" xlink:href="#Dégradé_sans_nom_12"/><linearGradient id="Dégradé_sans_nom_12-3" x1="61.51" y1="104.08" x2="96.76" y2="104.08" xlink:href="#Dégradé_sans_nom_12"/><linearGradient id="Dégradé_sans_nom_12-4" x1="102.91" y1="100.35" x2="151.2" y2="100.35" xlink:href="#Dégradé_sans_nom_12"/><linearGradient id="Dégradé_sans_nom_12-5" x1="155.59" y1="68.13" x2="183.74" y2="68.13" xlink:href="#Dégradé_sans_nom_12"/><linearGradient id="Dégradé_sans_nom_12-6" x1="156.13" y1="100.21" x2="173.63" y2="100.21" xlink:href="#Dégradé_sans_nom_12"/><linearGradient id="Dégradé_sans_nom_12-7" x1="144.9" y1="132.13" x2="178.59" y2="132.13" xlink:href="#Dégradé_sans_nom_12"/><linearGradient id="Dégradé_sans_nom_12-8" x1="79.58" y1="167.57" x2="178.97" y2="167.57" xlink:href="#Dégradé_sans_nom_12"/><linearGradient id="Dégradé_sans_nom_12-9" x1="79.58" y1="207.66" x2="178.97" y2="207.66" xlink:href="#Dégradé_sans_nom_12"/><linearGradient id="Dégradé_sans_nom_12-10" x1="66.23" y1="247.68" x2="165.62" y2="247.68" xlink:href="#Dégradé_sans_nom_12"/></defs><title>fiable</title><g id="Calque_2" data-name="Calque 2"><g id="Calque_1-2" data-name="Calque 1"><path class="cls-1" d="M30.48,29.48C11,62.17,18.05,101.14,25.87,136.19c4.25,19,8.45,38.13,8.78,57.72a176.89,176.89,0,0,1-7.33,52.87,177.21,177.21,0,0,1-26.64,54c-1.84,2.53.4,5.54,2.57,6.83a8.33,8.33,0,0,0,8.93-.14c11.75-7.78,26.9-8.34,40.52-7.64,14.89.77,29.51,3.65,44.21,5.95,19.41,3,39,4.15,58.59,5.31,9.08.53,18.53,2.05,27.6,1.68,9.45-.39,13.75-5.88,18-13.61,12.64-23.15,26.2-48.39,27.66-75.26a252.62,252.62,0,0,0-2.8-51.62c-2.6-17-8.84-33-11.58-50A186.58,186.58,0,0,1,232.17,8.1c2.19-4.26-2.76-8.4-6.93-8.08L121.43,8,70,11.94l-12.87,1c-3.7.29-8,0-11.5,1.18-5.41,1.75-7.51,7.07-11.23,10.82-5.66,5.7,6,12.36,10.55,7.74a61.34,61.34,0,0,0,4.83-5.84c2.54-3.25,2.12-2.86,6-3.16l23.88-1.83,48.7-3.74,98.3-7.55-6.93-8.08a195.73,195.73,0,0,0-21.17,99.88c1,17.29,5,33.46,9.59,50s6.33,34,6.94,51.16c.49,14,0,27.64-4.21,41.11-3.94,12.59-9.7,24.52-15.64,36.27-1.82,3.58-3.67,7.15-5.58,10.68-1.61,3-3.46,8.32-6.53,10.08-2.88,1.65-8,.26-11.13,0-5.37-.39-10.73-.72-16.1-1-19.23-1.14-38.52-2.07-57.57-5.09-30.75-4.89-68.62-14.42-96.68,4.16l11.51,6.69a185.62,185.62,0,0,0,35-99.24c.94-19-1.43-37.58-5.34-56.16-4-19.16-9.15-38.21-10.75-57.79-1.63-20,.51-40.66,10.94-58.13,3.78-6.33-9.08-11.3-12.46-5.64Z"/><path class="cls-2" d="M59.05,134.21,81.64,82.85l3.16-7.18c.23-.53.46-1.06.7-1.59.07-.15.14-.3.22-.45s.54-1,.23-.47.11-.17.15-.23c.14-.21.28-.42.44-.62a6.49,6.49,0,0,1,1-1l-.72.57A4.43,4.43,0,0,1,88.42,71l-.89.23a5.36,5.36,0,0,1,.7-.09c.11,0,.84,0,.14,0s0,0,.11.07c.72.16-.82-.4-.37-.16s.35.48-.39-.34c.06.07.36.4.44.41s-.85-1.08-.48-.5c.64,1-.43-.86-.22-.4.07.17.17.33.25.5.22.46.28,1.13-.18-.48.11.38.26.74.36,1.12l.12.45c.24.9-.23-1.31-.08-.39.08.52.16,1,.22,1.57q.88,7.17,1.21,14.39c0,1.14.09,2.29.12,3.43,0,.63,0,1.26,0,1.9,0,.27,0,1.1,0,0,0,.35,0,.69,0,1q0,3.8-.13,7.57-.27,7.22-1.09,14.4-.94,8.2-2.62,16.29a6.89,6.89,0,0,0,.81,3.83,7.09,7.09,0,0,0,2.59,2.94,3,3,0,0,0,2.85.32,3.29,3.29,0,0,0,1.44-2.48A189.7,189.7,0,0,0,95.9,75.83c-.6-5-2.13-10.89-6.81-13.69a6.45,6.45,0,0,0-6.63-.21,11.76,11.76,0,0,0-4.07,5.21c-2.2,4.61-4.13,9.36-6.19,14L65.89,95.53l-14.06,32a5.7,5.7,0,0,0,.05,3.56A7.93,7.93,0,0,0,54,134.59c1.62,1.39,4,2,5-.38Z"/><path class="cls-3" d="M61.8,105.85a184,184,0,0,1,25.49,1.23,6.7,6.7,0,0,0,2.47-.52,26,26,0,0,0,3.79-1.64,12.32,12.32,0,0,0,2.73-1.72c.19-.17.85-.79.2-.87A185.59,185.59,0,0,0,71,101.11c-2.15,0-4.4,1.16-6.26,2.15A12.84,12.84,0,0,0,62,105c-.14.13-.89.89-.2.87Z"/><path class="cls-4" d="M102.94,68.55c-.29,5.15,1.52,10.08,3.28,14.82a73.22,73.22,0,0,1,3.72,13.87l-.17-1c2,12.28,1.77,25.15,6.58,36.81a5.47,5.47,0,0,0,5.12,3,7.8,7.8,0,0,0,7.52-4.9c.85-2,1.5-4.07,2.25-6.1l4.82-13.17,9.58-26.18L151,71c.88-2.43-1.45-4.49-3.66-4.91s-5.71.1-6.63,2.64q-9.1,24.84-18.19,49.68l-2.56,7c-.39,1.07-.76,2.15-1.18,3.21l-.18.43c-.37.8-.16,0,.09-.1,0,0-.74.77,0,.12.32-.27.36-.31.09-.11a5.09,5.09,0,0,1,2.82-.82l5.11,3a60.39,60.39,0,0,1-3.6-13.23l.18,1c-1-6-1.43-12.11-2.19-18.16a83.32,83.32,0,0,0-4.24-18.53,57.73,57.73,0,0,1-3.14-10.11l.17,1a19.82,19.82,0,0,1-.25-4.42c.14-2.58-3.12-4.06-5.29-4s-5.27,1.13-5.42,3.83Z"/><path class="cls-5" d="M161.45,71.94l19.43,1.85c2.52.25,3.29-2.69,2.63-4.61a7,7,0,0,0-5.64-4.86l-19.43-1.86c-2.52-.24-3.29,2.7-2.62,4.61a7,7,0,0,0,5.63,4.87Z"/><path class="cls-6" d="M163.88,67.77q-1.33,23.87-3.6,47.68c-.2,2.18-.42,4.35-.63,6.52-.12,1.12-.23,2.24-.34,3.35-.06.55-.1,1.1-.18,1.64a3.07,3.07,0,0,0-.1.58l.13-.56a2.71,2.71,0,0,1-.24.52l.63-1a2.84,2.84,0,0,1-.5.59l.91-.71c-.24.17-.73.25-.11.16a3.33,3.33,0,0,1,2.87.41c-2-1.1-5.34-1.21-6.31,1.36s.59,5.4,2.86,6.64c3.2,1.77,7.35,1.11,8.95-2.45.93-2.09.89-4.73,1.11-7q.66-6.52,1.25-13,1.2-13.32,2.11-26.66.51-7.52.93-15a6.17,6.17,0,0,0-4.38-6.07,4.58,4.58,0,0,0-3.54.23,3.63,3.63,0,0,0-1.82,2.8Z"/><path class="cls-7" d="M151.43,137.34c1.86-.17,3.72-.32,5.58-.43.93-.06,1.86-.11,2.8-.15.46,0,.93,0,1.39-.06l.7,0c1,0-.8,0-.14,0,3.79-.09,7.58-.1,11.37,0,2.55.08,5.5-1.48,5.46-4.39a5.52,5.52,0,0,0-5.15-5.31,203.22,203.22,0,0,0-24.43.75,4.6,4.6,0,0,0-3.95,5.6,5.83,5.83,0,0,0,6.37,4Z"/><path class="cls-8" d="M85.53,172.17q49.56,3.15,99.22,1.73c3.88-.11,1-3.81-.5-5.26-2.5-2.47-7.34-6.21-11.17-6.1q-49.62,1.43-99.22-1.73c-4-.25-.74,4,.51,5.26,2.73,2.7,7.15,5.84,11.16,6.1Z"/><path class="cls-9" d="M85.25,210.37q50.31,3.19,100.74,1.82c4-.11-1-3.51-2-4.08-3.46-1.94-8.07-3.87-12.14-3.75q-48.85,1.39-97.7-1.65c-3.19-.2-3.83,1-1.14,3a25.93,25.93,0,0,0,12.24,4.66Z"/><path class="cls-10" d="M62.79,253.79q50.61,3.22,101.36,1.75c4.19-.12,9.3-3.84,10-8.1.8-4.64-3.3-6.43-7.19-6.32q-48.57,1.38-97.08-1.72c-4.52-.29-9.49,2-11.53,6.22-1.75,3.63.09,7.9,4.41,8.17Z"/><circle class="cls-11" cx="177.61" cy="273.56" r="80.11"/><path class="cls-12" d="M177.61,355.52a82,82,0,1,1,82-82A82.06,82.06,0,0,1,177.61,355.52Zm0-160.21a78.25,78.25,0,1,0,78.25,78.25A78.34,78.34,0,0,0,177.61,195.31Z"/><path class="cls-12" d="M130.93,261.75a250.21,250.21,0,0,1,29.82,57.56c1,2.82,9.62,13.15,12.42,7.45,18.63-37.93,37.82-76.63,68.77-106.22,4.57-4.37-7.41-18.47-11.68-14.39-31.5,30.12-51.19,69.59-70.16,108.2l12.42,7.45a268.49,268.49,0,0,0-31.92-61.55c-1.81-2.61-5.72-7.87-9.56-6.93s-1.44,6.51-.11,8.43Z"/></g></g></svg>