<svg xmlns="http://www.w3.org/2000/svg" viewBox="0 0 4000 2000"><defs><style>.cls-1{fill:#b53955;}.cls-2{fill:#fff;}</style></defs><g id="Calque_2" data-name="Calque 2"><g id="Calque_1-2" data-name="Calque 1"><rect class="cls-1" width="4000" height="2000"/><path class="cls-2" d="M946.76,1522.91a4,4,0,0,1-.32-8,557.55,557.55,0,0,0,59-8.37,4,4,0,1,1,1.5,7.86,565.26,565.26,0,0,1-59.82,8.48Zm-59.88-.5-.49,0-3.72-.48c-19.17-2.66-37.92-6-55.73-9.84a4,4,0,0,1,1.7-7.82c17.61,3.83,36.16,7.1,55.13,9.74,1.19.16,2.38.32,3.58.46a4,4,0,0,1-.47,8Zm177.84-21.07a4,4,0,0,1-1-7.88c17.06-4.29,36-9.39,57.85-15.57a4,4,0,1,1,2.18,7.69c-22,6.21-41,11.33-58.08,15.64A4.17,4.17,0,0,1,1064.72,1501.34Zm-294.84-4.66a3.77,3.77,0,0,1-1.23-.2,518.66,518.66,0,0,1-56.35-21.75,4,4,0,0,1,3.33-7.28,509.47,509.47,0,0,0,55.47,21.42,4,4,0,0,1-1.22,7.81ZM1180.34,1469a4,4,0,0,1-1.12-7.84l10.54-3.1c15.35-4.52,31.23-9.19,47.08-13.78a4,4,0,1,1,2.23,7.68c-15.84,4.59-31.71,9.26-47,13.77l-10.55,3.11A4,4,0,0,1,1180.34,1469Zm-519.07-22.44a4,4,0,0,1-2.15-.63,396.84,396.84,0,0,1-48.47-36.21,4,4,0,1,1,5.27-6,389.83,389.83,0,0,0,47.49,35.48,4,4,0,0,1-2.14,7.38Zm634.44-10.71a4,4,0,0,1-1-7.86c21-5.68,40-10.58,58.27-15a4,4,0,0,1,1.87,7.78c-18.18,4.37-37.16,9.25-58,14.91A3.79,3.79,0,0,1,1295.71,1435.87Zm116.81-27.8a4,4,0,0,1-.76-7.92c20.57-4,40.56-7.37,59.42-9.94a4,4,0,1,1,1.07,7.93c-18.7,2.54-38.54,5.86-59,9.86A4.11,4.11,0,0,1,1412.52,1408.07Zm269.81-4.2a3.91,3.91,0,0,1-.95-.11c-10-2.46-20.46-4.58-31-6.31a4,4,0,0,1,1.31-7.9c10.71,1.77,21.33,3.93,31.57,6.44a4,4,0,0,1-1,7.88Zm-150.92-11.62a4,4,0,0,1-.23-8c12.86-.76,25.58-1.14,37.82-1.14,7.59,0,15.18.14,22.55.44a4,4,0,0,1-.32,8c-7.26-.29-14.74-.43-22.23-.43-12.08,0-24.65.38-37.35,1.13Zm-959.93-24.42a4,4,0,0,1-3.08-1.44,402.74,402.74,0,0,1-35-49.36,4,4,0,0,1,6.86-4.13,393.93,393.93,0,0,0,34.31,48.37,4,4,0,0,1-3.07,6.56Zm-62-102.19a4,4,0,0,1-3.67-2.41,537.08,537.08,0,0,1-20.71-56.74,4,4,0,1,1,7.65-2.33,529.29,529.29,0,0,0,20.4,55.89,4,4,0,0,1-2.08,5.26A4.08,4.08,0,0,1,509.46,1265.64Zm-28.79-115.42h-.07a4,4,0,0,1-3.93-4.08c.31-17.59,2.29-37.3,6-60.25a4,4,0,1,1,7.89,1.28c-3.68,22.57-5.61,41.91-5.92,59.12A4,4,0,0,1,480.67,1150.22Zm17.85-118.53a4.11,4.11,0,0,1-.91-.11,4,4,0,0,1-3-4.8c4-17.23,8.84-36.31,14.75-58.34a4,4,0,0,1,7.73,2.08c-5.89,21.94-10.69,40.94-14.68,58.07A4,4,0,0,1,498.52,1031.69ZM529.23,915.6a4,4,0,0,1-3.85-5.09l.73-2.6c5.4-19.27,10.5-37.46,15.27-55.22a4,4,0,1,1,7.73,2.07c-4.78,17.8-9.89,36-15.3,55.31l-.73,2.6A4,4,0,0,1,529.23,915.6Zm30.44-116.16a4.09,4.09,0,0,1-.85-.09,4,4,0,0,1-3.06-4.76c1.4-6.46,2.63-12.62,3.68-18.31,2.23-12.18,5.39-25.41,9.64-40.46a4,4,0,1,1,7.7,2.18c-4.18,14.8-7.28,27.79-9.47,39.73-1.06,5.77-2.32,12-3.74,18.56A4,4,0,0,1,559.67,799.44ZM489.73,704.9c-7.77,0-15.48,0-22.92-.14a4,4,0,0,1,.05-8h.05c7.4.09,15.08.14,22.82.14,12,0,24.45-.11,37.09-.33a4,4,0,1,1,.14,8C514.27,704.79,501.74,704.9,489.73,704.9Zm-82.84-2.11h-.23c-22.8-1.29-43-3.2-60.08-5.66a4,4,0,0,1,1.14-7.92c16.84,2.43,36.82,4.31,59.39,5.6a4,4,0,0,1-.22,8Zm180,0a4,4,0,0,1-.16-8c20.24-.84,40.38-1.91,59.84-3.18a4,4,0,0,1,.52,8c-19.53,1.27-39.72,2.34-60,3.18Zm119.77-8a4,4,0,0,1-.4-8l3.79-.39c17.79-1.86,36.36-4.62,55.21-8.21a4,4,0,0,1,1.49,7.86c-19.06,3.63-37.86,6.42-55.87,8.31l-3.82.39Zm-115.39-11a4,4,0,0,1-1.31-.22,4,4,0,0,1-2.46-5.09c5.52-15.9,11.29-31.85,17.41-48.75l2.83-7.83a4,4,0,1,1,7.52,2.72l-2.83,7.83c-6.1,16.87-11.87,32.81-17.38,48.65A4,4,0,0,1,591.25,683.75Zm-302.39-.44a4,4,0,0,1-1.22-.19,461.57,461.57,0,0,1-56.36-21.88,4,4,0,0,1,3.41-7.24,453.29,453.29,0,0,0,55.38,21.5,4,4,0,0,1-1.21,7.81Zm535.6-10.54a4,4,0,0,1-1-7.87C841.83,660,860.59,654.53,880.8,648a4,4,0,1,1,2.44,7.62c-20.33,6.53-39.23,12.08-57.76,17A4,4,0,0,1,824.46,672.77ZM938.79,636.4a4,4,0,0,1-1.36-7.76c17-6.13,35.33-13,56.14-21.06a4,4,0,1,1,2.89,7.46c-20.87,8.06-39.29,15-56.31,21.13A4,4,0,0,1,938.79,636.4ZM181.4,631.2a4,4,0,0,1-2.37-.78,232.17,232.17,0,0,1-44-42.06,4,4,0,1,1,6.26-5A223.44,223.44,0,0,0,183.79,624a4,4,0,0,1-2.39,7.21Zm869.51-37.82a4,4,0,0,1-1.48-7.72l7.79-3.09c15.75-6.23,32-12.69,48.06-19a4,4,0,1,1,2.91,7.46c-16,6.25-32.28,12.7-48,18.93l-7.78,3.09A4,4,0,0,1,1050.91,593.38ZM631.48,570.62a4.08,4.08,0,0,1-1.28-.21,4,4,0,0,1-2.5-5.08c7.24-21.32,13.1-40,17.92-57.06a4,4,0,1,1,7.7,2.18c-4.86,17.21-10.76,36-18.05,57.46A4,4,0,0,1,631.48,570.62ZM1162.8,550a4,4,0,0,1-1.39-7.75c20.42-7.56,39-14.11,56.68-20a4,4,0,1,1,2.53,7.59c-17.63,5.89-36.09,12.41-56.43,19.94A4,4,0,0,1,1162.8,550ZM107.07,538.74a4,4,0,0,1-3.63-2.3C94.13,516.64,88,497.69,84.69,478.5a4,4,0,0,1,7.89-1.36c3.18,18.47,9.1,36.76,18.1,55.9a4,4,0,0,1-1.92,5.32A3.92,3.92,0,0,1,107.07,538.74Zm1169.56-26.5a4,4,0,0,1-1.09-7.85c20.15-5.69,39.82-10.59,58.46-14.58a4,4,0,1,1,1.67,7.83c-18.47,3.95-38,8.81-58,14.45A4.09,4.09,0,0,1,1276.63,512.24Zm117.3-24.69a4,4,0,0,1-.5-8,591.12,591.12,0,0,1,60.13-4.65,4,4,0,1,1,.2,8,581.19,581.19,0,0,0-59.32,4.59A4.36,4.36,0,0,1,1393.93,487.55ZM663.18,454.94a4.14,4.14,0,0,1-.7-.06,4,4,0,0,1-3.24-4.64c3.74-21.06,5.56-39.79,5.56-57.26,0-.56,0-1.11,0-1.67a4,4,0,0,1,8-.06c0,.58,0,1.15,0,1.73,0,17.95-1.86,37.14-5.68,58.66A4,4,0,0,1,663.18,454.94ZM88.41,422.12a4,4,0,0,1-3.94-4.68,186.55,186.55,0,0,1,20.29-57.56,4,4,0,0,1,7,3.83,178.72,178.72,0,0,0-19.44,55.08A4,4,0,0,1,88.41,422.12Zm571-85.8a4,4,0,0,1-3.77-2.67c-.8-2.25-1.66-4.49-2.57-6.66a202.48,202.48,0,0,0-25.87-44.49,4,4,0,0,1,6.37-4.84,210.79,210.79,0,0,1,26.89,46.25c1,2.3,1.87,4.68,2.72,7.07a4,4,0,0,1-2.43,5.1A3.91,3.91,0,0,1,659.37,336.32ZM138.37,314a3.92,3.92,0,0,1-2.1-.6,4,4,0,0,1-1.3-5.51,525.59,525.59,0,0,1,34.37-49.62,4,4,0,0,1,6.27,5,517.61,517.61,0,0,0-33.84,48.88A4,4,0,0,1,138.37,314Zm450.5-73.08a4,4,0,0,1-2.59-1,414.48,414.48,0,0,0-48.1-34.87,4,4,0,1,1,4.26-6.77,423.06,423.06,0,0,1,49,35.54,4,4,0,0,1-2.59,7.05ZM213.48,221.1a4,4,0,0,1-2.68-7c12.23-11,26.22-22.39,46.77-38a4,4,0,0,1,4.84,6.38C242,198,228.21,209.2,216.16,220.07A4,4,0,0,1,213.48,221.1Zm274.86-45.52a4,4,0,0,1-2-.52q-3.36-1.91-6.28-3.63c-12.72-7.5-29.41-13.48-48.27-17.3a4,4,0,0,1,1.59-7.84c20,4.05,37.07,10.19,50.74,18.25,1.91,1.13,4,2.31,6.16,3.56a4,4,0,0,1-2,7.48ZM313.62,157.45a4,4,0,0,1-1-7.86,262.54,262.54,0,0,1,60.25-8.33,4,4,0,0,1,.2,8,254.76,254.76,0,0,0-58.38,8.05A3.72,3.72,0,0,1,313.62,157.45Z"/><path class="cls-2" d="M3420.41,1009.22h0c-17.58-.11-34.91-.89-51.51-2.32-2.92-.25-5.85-.52-8.77-.82a4,4,0,1,1,.81-8q4.32.43,8.65.81c16.39,1.41,33.5,2.18,50.86,2.29a4,4,0,0,1,0,8Zm59.94-2a4,4,0,0,1-.28-8c18.84-1.32,38.29-3.25,59.48-5.92a4,4,0,0,1,1,7.94c-21.33,2.68-40.92,4.63-59.91,6ZM3301.2,997.3a4.08,4.08,0,0,1-.77-.07c-18.89-3.66-38.64-8.29-58.69-13.74a4,4,0,0,1,2.1-7.72c19.86,5.4,39.41,10,58.12,13.61a4,4,0,0,1-.76,7.92Zm298.21-4.66a4,4,0,0,1-.64-7.95c20.77-3.37,41.52-7,59.08-10.16a4,4,0,1,1,1.4,7.88c-17.59,3.14-38.38,6.8-59.2,10.18A4.6,4.6,0,0,1,3599.41,992.64Zm118.21-20.7a4,4,0,0,1-.69-7.94c23.11-4,42-7.16,59.3-9.79a4,4,0,0,1,1.2,7.91c-17.29,2.62-36.07,5.72-59.12,9.76A4,4,0,0,1,3717.62,971.94Zm-532.22-5.8a4,4,0,0,1-1.27-.2c-17.92-6-36.45-12.65-56.63-20.32a4,4,0,0,1,2.85-7.48c20.08,7.64,38.5,14.25,56.32,20.21a4,4,0,0,1-1.27,7.79Zm650.91-11.81a4,4,0,0,1-.43-8c21.26-2.3,40.91-3.84,60.06-4.69a4,4,0,0,1,.36,8c-19,.85-38.46,2.37-59.56,4.66Zm150.86-.2a3.27,3.27,0,0,1-.54,0c-17.81-2.39-36.42-4-55.3-4.71a4,4,0,0,1,.31-8c19.14.74,38,2.35,56.06,4.77a4,4,0,0,1-.53,8Zm-914-30.34a3.87,3.87,0,0,1-1.51-.3c-18.11-7.39-35.82-14.8-55.44-23a4,4,0,1,1,3.09-7.38c19.6,8.21,37.3,15.61,55.38,23a4,4,0,0,1-1.52,7.7Z"/><path class="cls-2" d="M886.84,643s1.92-64.35,93.51-121.06c65.86-40.78,96.64-67.56,96.64-67.56,44.86-42.62,95.4-82.47,155.46-98.24,76.07-20,156.19,1.13,232.47,20.35,195.75,49.33,405.22,86.21,597,23.44,143.13-46.86,219.63-86.75,369-66.76,48.91,6.54,210.5,44.79,255.84,64.12,109.82,46.82,170.24,20,227.34,124.17,50.85,92.78,7.34,205.08,40.65,305.38,36.21,109,98.95,198.19,79.71,311.36-17.61,103.62-57.59,183-141.37,247.32-80.35,61.65-121.12,23.81-186.41,101-42.4,50.13-91.16,130-151.08,157.34-44.11,20.16-111.61,24.41-160.17,23-92.3-2.74-137.09-5-223.65-37-108.76-40.09-212-74-318.93-92.85-114.11-20.15-277.74-61.35-389.47-30.46-39.4,10.89-76.66,28.89-116.56,37.82-121.66,27.22-258-44.61-303.47-159.87-52.61-133.4,10.76-288.09-29.46-425.67-17-58-29.67-59.73-53.14-115.48-10.22-24.28-26.61-65-51.92-100.64-14.38-20.24-28.77-73.73-22-99.73"/><path class="cls-2" d="M3292.09,501.7c22.16-4.31,47.26-14.11,69.41-18.41-5.27-11.8,1.77-29,20.26-42.44s43.92-26.06,66.46-29.78c17.23-2.84,28.42-3.94,41,5.18,13.32,9.66,25.34,32.1,31,47.52-11.12-10.53-33.87-7.22-49.58-1.76-14.45,5-51.1,19.79-64.5,27.18-22.21,12.26-26.43,19.85-24.63,29.23a76.28,76.28,0,0,1-20-35.13"/><path class="cls-2" d="M3296.41,504.22a1149.35,1149.35,0,0,1,68.94-130.75l-4.32,2.47a1269.21,1269.21,0,0,0,195.7,7.24l-3.54-8.54a541.86,541.86,0,0,0-44.89,56.22c-3.68,5.3,5,10.3,8.64,5.05a521.38,521.38,0,0,1,43.32-54.2c2.78-3,1-8.72-3.53-8.53a1269.21,1269.21,0,0,1-195.7-7.24,4.94,4.94,0,0,0-4.32,2.48,1149.27,1149.27,0,0,0-68.93,130.75c-2.61,5.83,6,10.92,8.63,5.05Z"/><path class="cls-2" d="M3374.7,515.06c1.24,16.65,18.09,22.37,32.55,20.62,16.42-2,33-4.37,48.53-10.13,21.66-8,45.71-18.45,61-36.51,5.9-7,16-20.34,7-28.8-4.68-4.41-11.77,2.65-7.07,7.07,4.24,4-10.09,18.29-12.81,20.81-8.11,7.54-18.72,13.58-28.6,18.48a174.53,174.53,0,0,1-45.14,15.59,250.8,250.8,0,0,1-25.42,3.76c-7.64.63-19.32-1.2-20.05-10.89-.47-6.38-10.48-6.43-10,0Z"/><path class="cls-2" d="M3328.41,476.81l37.16,87,8.63-5c-4.09-9.13-18.21-8.64-22.88-.31-6.06,10.8,5,22.93,16.09,21.9,10.07-.93,18-9.08,17.25-19.25-.63-8.62-6.11-17.53-15.88-15.22-6.26,1.47-3.61,11.12,2.66,9.64,2.27-.54,3,3.93,3.23,5.48.42,3.47-.4,5.54-3.33,7.58-3.71,2.59-10.47,2.79-11.49-2.87a3,3,0,0,1,5.72-1.9c2.64,5.9,11.12.77,8.63-5l-37.16-87c-2.52-5.9-11.13-.81-8.63,5Z"/><path class="cls-2" d="M3354.08,479.41q-30.66,6.76-60.56,16.42c-6.09,2-3.49,11.63,2.66,9.64q29.88-9.64,60.56-16.42c6.28-1.38,3.62-11-2.66-9.64Z"/><path class="cls-2" d="M3495.54,1500.65q.24,10.08.47,20.15a31,31,0,0,0-1,13.24c1.68,10.41,10.26,18.9,19.14,23.8,20.12,11.1,47.48,5.45,58.8-15.17a53.61,53.61,0,0,0,5.89-17.68c.38-2.41,1.3-6,.44-8.34A3.58,3.58,0,0,0,3578,1515a62.46,62.46,0,0,0-1.11-27.37l25.64-11.06q-30.6-8.83-61.64-16a45.24,45.24,0,0,0-11.06-1.59c-6.22.12-12.13,2.72-17.86,5.28l-56.77,25.36a149.53,149.53,0,0,0,35.1,9.83Zm70.55,13.26c-1.07.26-1.88.69-1.9,1.42s.61,1,1.49,1.34c.84,1.86,0,5.24-.28,6.92a59.39,59.39,0,0,1-1.59,7.81,44.81,44.81,0,0,1-7.65,15.62c-5.33,6.84-14.95,14.49-24.12,11.75-10-3-20.19-12-22.9-22.33a29.33,29.33,0,0,1,.5-15.38A81.86,81.86,0,0,1,3566.09,1513.91Z"/><path class="cls-2" d="M3600,1599.36c-3.69-13-9.74-27.19-22.74-31.95-8.94-3.27-19.11-1.07-27.72,2.94-8.9,4.14-17.11,10.49-21.13,19.21-3.25,7-3.53,15-6.08,22.31-2.78,8-8.2,14.89-14.43,20.78a91.86,91.86,0,0,1-49.06,23.78,25.17,25.17,0,0,1-.41,22.62,86.41,86.41,0,0,0,59.66-19.12,160.29,160.29,0,0,1-2.25,51.65q46.26.93,92.54.46C3613.81,1672.61,3610.93,1637.71,3600,1599.36Z"/><path class="cls-2" d="M3354.89,1716.8c-12.63,0-24.31-4.94-33.9-14.38-4.73-4.65-5.25-30.24-1.18-58.26,2.93-20.15,16.88-50.16,25.83-59.43,2.13-3.41,14.13-19.87,43.89-13.42,21.59,4.69,22.14,26.43,22.58,43.91.23,8.85.46,18,3.64,21.13,10.42,10.26,31.91,18,50,18,10.5,0,18.67,3.57,21.86,9.54a10,10,0,0,1-.47,10.52c-4,6-14,8.63-27.36,7.27a240.25,240.25,0,0,1-32.23-5.51c-9.69-2.21-13.74-3-16.91-1s-3.06,10.23-2.86,16.71c.16,5.22.31,10.15-1,13.92-3.08,9.08-20.88,10.22-43.84,10.75-2.31.06-4.41.11-6.2.18C3356.14,1716.79,3355.52,1716.8,3354.89,1716.8Zm-27.91-20c5.9,5.72,15.74,12.33,29.47,11.76,1.83-.07,4-.12,6.33-.18,22.73-.53,34.94-2.28,36.28-5.21.8-2.36.66-6.77.53-11-.28-9-.59-19.12,6.55-23.81,6.21-4.07,12.61-2.6,23.22-.18a235,235,0,0,0,31.22,5.35c12.79,1.28,18.43-1.72,19.75-3.68a1.86,1.86,0,0,0,.05-2.12c-1.38-2.59-6.44-5.2-14.64-5.2-20.31,0-43.75-8.56-55.73-20.34-5.54-5.46-5.79-15.33-6.08-26.76-.48-19.21-1.93-33-16.13-36.12-26.17-5.68-35,9.28-35.32,9.92l-.28.5-.43.44c-7.73,7.61-21.2,36.83-23.86,55.17C3323.65,1674.71,3325.45,1693.48,3327,1696.83Z"/><path class="cls-2" d="M3398,1572a29.89,29.89,0,0,1-6.94-.81c-19-4.46-30.17-26.28-24.92-48.63s25-36.91,44-32.45,30.18,26.28,24.92,48.64h0C3430.43,1558.42,3414.65,1572,3398,1572Zm5.13-74.51c-12.91,0-25.29,11.07-29,26.94-4.22,18,4.22,35.37,18.82,38.8s29.92-8.4,34.14-26.35h0c4.22-18-4.23-35.37-18.83-38.8A22.27,22.27,0,0,0,3403.14,1497.53Z"/><path class="cls-2" d="M470.61,444.18c-3.45-5.56-9.23-8.93-14.91-11.83a121.55,121.55,0,0,1-18.29-10.92c-10.92-8.22-20.36-18.21-31.38-26.3-5.34-3.91-12.2-6.54-16.91-11.18-5.78-5.69-3.55-14-2.26-21,.71-3.85,1.45-7.14-1.86-9.86-4.49-3.7-9.83-5-15.52-5.19-14.47-.39-29.13.58-43.19,4.19a103.34,103.34,0,0,0-21.2,7.88c-7.26,3.69-13.87,8.84-22.42,8.28-11-.71-22.12-2.85-33.12-2.2-.45,0-1.73.18-1.73.88v64.62a1,1,0,0,0,.39.73c-.25.19-.29.45.08.76,8.77,7.3,20.4,5.37,30.85,7.47,13.22,2.65,23.9,11.84,33,21.31,8.49,8.87,16.23,18.52,26.11,25.94,10.33,7.75,22.6,11.27,35,14.06,10.44,2.35,23.69,4,31.89-4.43a.41.41,0,0,0,.12-.36,45.71,45.71,0,0,0,12.09,1.94c7,.1,11.19-3.82,16.24-8.09.57-.48.32-1-.22-1.33l-.23-.16a16.8,16.8,0,0,0,4.43.23c5.91-.51,13.5-3.57,14.1-10.33a27.48,27.48,0,0,0-1.32-9.47A17.5,17.5,0,0,0,449,465.6a30.09,30.09,0,0,0,12.91.31c4.14-.89,8.06-3,9.87-7A16,16,0,0,0,470.61,444.18Zm-2.86,13.13c-3.95,10.88-17.54,7.06-27.18,2.89l-23.68-13.73-18.83-10.91c-1.07-.62-5.37-.3-3.28,1.22,11,8,23,14.8,35.1,21.08,2.56,1.33,5.26,2.69,8.06,3.93l2.75,1.6c1.15.66,3.51,1.47,4.36,2.53a14.91,14.91,0,0,0,.44,2.21c.43,1.39.82,2.8,1.14,4.23.68,3.11,1.33,7.07-.47,9.93-2.12,3.34-7.16,5.39-11,5.21-3-.13-6.25-2-8.91-3.22l-2.34-1.1Q404.29,470.07,384.66,457c-.91-.61-5.06-.15-3.61,1,6.3,4.85,12.26,10.14,18.7,14.8s13.58,8.08,20.73,11.58l8.62,5.75a61.9,61.9,0,0,1-5.65,4.62c-3,2-6.08,2.25-9.59,1.84-5.86-.68-11.38-2.76-16.72-5.16L368,472.48c-.88-.58-5.08-.19-3.61,1,5,4,9.55,9,15.14,12.23a133.14,133.14,0,0,0,14.83,7.26l6,3.91c-8,7.58-20.83,4.27-30.34,1.89-12.81-3.2-23.95-7.71-33.87-16.62-15.9-14.28-27.86-34-48.82-41.64a61.77,61.77,0,0,0-16.49-3.14c-6.47-.51-13.46-.7-18.67-5.05l-.06,0a.62.62,0,0,0,.09-.3v-63.8c8.61-.27,17.4,1.15,25.94,1.89,4.35.37,8.69.83,13-.22,5.79-1.41,10.73-4.77,15.92-7.55,12.17-6.5,25.77-9.92,39.43-11.39a173.45,173.45,0,0,1,20.64-.9c4.08,0,7.77.16,11.42,2.23,2.08,1.18,4.27,2.43,4.5,5,.46,5.37-2.26,10.93-2.26,16.38a15.38,15.38,0,0,0,6.28,12.74c4.74,3.64,10.27,6.15,15.12,9.67,5.26,3.81,10.14,8.1,15,12.4,9.14,8.12,18.29,16.39,29.17,22.14C456.36,435.79,473,442.91,467.75,457.31Z"/><path class="cls-2" d="M288.83,444.65c-2.77,2.59-5.54,5.17-5.85,9a5.16,5.16,0,0,0,.35,3.19,5.05,5.05,0,0,0,3.82,1.93c6.25.73,12-3.05,17-6.63,4.27-3.05,9-7.36,7.67-12.21-3.57-5.6-17.58.39-24.23,5.46"/><path class="cls-2" d="M312.89,437.76a4.7,4.7,0,0,0-2.21-1.47,12.24,12.24,0,0,0-6.16-.05,41.42,41.42,0,0,0-16.27,7.67,6.54,6.54,0,0,0-1.91,2.38,21.49,21.49,0,0,0-3.65,5c-1.11,2.21-2.3,6.29,0,8.11s6.57,1.3,9.27.49a32.38,32.38,0,0,0,8.78-4.48,46.52,46.52,0,0,0,7.88-6.31c2-2.15,4.14-4.82,4.69-7.81A4.68,4.68,0,0,0,312.89,437.76Zm-2.64,7.4c-.76,2.17-2.95,3.67-4.72,5-4.37,3.25-9.38,6.69-15,6.91a8.91,8.91,0,0,1-4.36-.71,3.39,3.39,0,0,1-1.8-3.61,7.32,7.32,0,0,1,1.15-3.9,20.68,20.68,0,0,1,3-3l.38-.37a42,42,0,0,1,9.3-4.56c3.12-1.09,7.54-2.43,10.67-.69C310.69,441.23,310.93,443.25,310.25,445.16Z"/><path class="cls-2" d="M308.22,452.41a34.35,34.35,0,0,0-11.39,9.12c-3,3.72-3.94,9.29-.83,12.92,2.9,3.37,8.36,4,12.74,2.55s7.93-4.4,11.34-7.31l11.84-10.11a45.59,45.59,0,0,0,7.06-7,6.44,6.44,0,0,0,1.45-3.05c.34-3-3-5.24-6.2-5.74-5.61-.87-11.13,1.54-16.22,3.88l-18.47,8.5"/><path class="cls-2" d="M342.35,447.55c-1-3.89-5.32-5.71-9-6-5.81-.44-11.33,2.05-16.47,4.41l-18.07,8.31a2.29,2.29,0,0,0-1.09,3.07c-3.7,3.64-6.33,8.17-5.67,13.28,1.22,9.42,12.28,10.77,19.46,7.47,4.53-2.08,8.25-5.56,12-8.76,4.15-3.54,8.41-7,12.43-10.66C338.9,456,343.47,452,342.35,447.55Zm-7.58,6.84c-2.93,2.85-6.17,5.41-9.28,8.06s-6.23,5.45-9.47,8c-2.9,2.31-6.16,4.48-9.92,5-3.09.41-6.85-.24-8.78-2.92-5.27-7.32,6.2-15.46,11.59-18.21a2.17,2.17,0,0,0,.83-.72c4.67-2.23,9.37-4.42,14.18-6.21,3.57-1.33,8.13-2.51,11.79-.84,1.08.49,2.69,1.51,2.68,2.88C338.37,451.18,335.89,453.29,334.77,454.39Z"/><path class="cls-2" d="M313.76,475.67c-4,5.59-5.54,7.76-2.77,15.51.6,1.67,4.3,2.37,5.54,2.59,7.75,1.32,13.4-1.92,19.84-6.15a75.92,75.92,0,0,0,23.21-23.94c1.48-2.45,2.84-5.4,1.65-8s-4.78-3.76-7.83-3.3-5.69,2.14-8.23,3.77l-18.31,11.78c-6.89,4.43-13.1,7.73-13.1,7.73"/><path class="cls-2" d="M359.39,451.22c-4.67-2.9-10,.16-14,2.72C335,460.57,324.87,467.65,314,473.45c0,0-.05,0-.07.06s0,0,0,0l0,0a.86.86,0,0,0-.18.26c-2.25,3.14-4,6.07-4.43,10-.3,3-.2,8.82,2.56,10.71,3.48,2.38,9.3,2.07,13.11,1,5.14-1.41,9.85-4.65,14.12-7.75a77.34,77.34,0,0,0,12.78-11.61c3.51-4,7.43-8.68,9.31-13.73C362.45,458.93,363.11,453.54,359.39,451.22Zm.32,10.31a68,68,0,0,1-4.2,6.19,75.66,75.66,0,0,1-9.32,10.2,82.71,82.71,0,0,1-11.71,8.85c-3.59,2.26-7.42,4.31-11.68,4.9-2.86.39-9.26.51-11.29-2.25a9.34,9.34,0,0,1-1.32-6.08c.5-2,2.27-3.9,3.43-5.5,6.78-3.62,13.21-7.81,19.66-12,4.58-2.94,9.09-6,13.77-8.82,3.36-2,7.53-3.59,11.31-1.7C361.27,456.81,361.27,458.88,359.71,461.53Z"/><path class="cls-2" d="M485.83,364.87c-15.2,8.24-36,6.24-49.07-4.72-7.44-6.24-13.24-15.36-23-17.25-5.81-1.11-11.74.66-17.58,1.62-7.83,1.28-15.89,1.12-23.65,2.7-19.28,3.93-34.11,17.89-47.74,31.21a12.76,12.76,0,0,0-3.5,4.68c-1.37,4.12,2.37,8.55,6.83,9.72s9.23-.08,13.53-1.68a79,79,0,0,0,26.73-16.53l-9,7.71a52.45,52.45,0,0,0,37.12-14.75,55.48,55.48,0,0,1-11.91,13C404,409.78,430,432.81,466.13,439.48c0,0,8.52,7.81,4.2,8.62,13.85-2.59,31.37-9.13,47.83-10.64q-10.48-34.17-20.95-68.36a7.45,7.45,0,0,0-1.9-3.59c-3.35-2.95-7.12-3.74-10.09-.76"/><path class="cls-1" d="M472.79,449.86c16.06-3.1,29.26-8.57,45.62-10.19,1.45-.15,1.94-2,1.59-3.11l-15-48.83q-1.81-5.93-3.64-11.86c-1-3.28-1.64-7.07-3.3-10.1A9.19,9.19,0,0,0,484,363a2.31,2.31,0,0,0-.45.55c-14.19,6.71-32.3,5.3-44.76-4.51-6-4.71-10.46-11.09-16.95-15.17-7.87-4.95-16-3.32-24.63-1.79-9.47,1.67-19.24,1.23-28.57,3.79a72.37,72.37,0,0,0-22.38,11A165.59,165.59,0,0,0,327,373.35c-4.81,4.63-11.13,10.18-6.09,17.11,5.54,7.63,15.89,5,23.24,2a79.91,79.91,0,0,0,15-7.95,49,49,0,0,0,21.94-4.9c-.46.78,1.32,1.6,1.81,2.34,11.26,16.77,25,32.15,42,43.27a110.72,110.72,0,0,0,27.09,13c2.34.74,6.18-1.76,8.55-1.17,1.75.44,9.62,1.77,12.26,12.81m-5.38-12.13c-1.78-1.14-4.63-1.17-6.68-1.66-2.77-.67-5.52-1.44-8.23-2.34a108.26,108.26,0,0,1-16.24-6.86c-20.19-10.55-36.17-27.28-48.95-45.9A60.6,60.6,0,0,0,398,368.92c1.2-1.78-.82-4.93-2.74-3.08a50.81,50.81,0,0,1-29.61,13.91c1.33-1.09,2.65-2.21,3.91-3.39,1.86-1.72-.19-5.35-2.37-3.48L362,377.26a78.23,78.23,0,0,1-15.26,9.39,48.15,48.15,0,0,1-11.48,4.06c-4.17.76-10.67.26-12.13-4.71-1.11-3.76,4.69-7.69,7.09-10,2.92-2.79,5.87-5.54,8.93-8.18a95.13,95.13,0,0,1,19.32-13.37,63.74,63.74,0,0,1,23.25-6.26c4.43-.4,8.87-.62,13.27-1.26s8.54-1.81,12.89-2.09c8.3-.55,14.16,3.94,19.74,9.49,4.8,4.77,9.38,9.46,15.44,12.62a47.84,47.84,0,0,0,43.49,0,2.12,2.12,0,0,0,1.05-1.29c6.79-4,9.46,10,10.74,14.15q3,9.76,6,19.53,5.55,18.12,11.11,36.25c-14.41,1.8-28.13,6.68-42.29,9.72A16.65,16.65,0,0,0,467.41,437.73Z"/><rect class="cls-2" x="498.55" y="348.44" width="32.75" height="95.26" rx="4.69" transform="translate(-90.99 161.8) rotate(-16.43)"/><rect class="cls-2" x="214.32" y="346.89" width="32.75" height="95.26" rx="4.69" transform="translate(32.4 -17.24) rotate(4.6)"/></g></g></svg>