<svg xmlns="http://www.w3.org/2000/svg" xmlns:xlink="http://www.w3.org/1999/xlink" viewBox="0 0 360.2 276.46"><defs><style>.cls-1{fill:#1d66af;}.cls-2{fill:#fff;}.cls-3{fill:#b73955;}.cls-4{fill:url(#Dégradé_sans_nom_12);}.cls-5{fill:url(#Dégradé_sans_nom_12-2);}.cls-6{fill:url(#Dégradé_sans_nom_12-3);}</style><linearGradient id="Dégradé_sans_nom_12" x1="219.67" y1="90.31" x2="245.79" y2="90.31" gradientUnits="userSpaceOnUse"><stop offset="0" stop-color="#1b66ae"/><stop offset="1" stop-color="#1c66ad"/></linearGradient><linearGradient id="Dégradé_sans_nom_12-2" x1="215.74" y1="92.34" x2="236.1" y2="92.34" xlink:href="#Dégradé_sans_nom_12"/><linearGradient id="Dégradé_sans_nom_12-3" x1="215.74" y1="85.34" x2="236.1" y2="85.34" xlink:href="#Dégradé_sans_nom_12"/></defs><title>en ligne</title><g id="Calque_2" data-name="Calque 2"><g id="Calque_1-2" data-name="Calque 1"><rect class="cls-1" x="14.9" width="343.32" height="258.67" rx="6.08"/><rect class="cls-2" x="33.07" y="18.81" width="303.16" height="217.1" rx="6.08"/><rect class="cls-2" x="0.8" y="230.39" width="355.72" height="42.39" rx="4" transform="translate(357.31 503.16) rotate(-180)"/><path class="cls-1" d="M15.54,230.39c32.12.2,64.23-2.76,96.35-3.72l96.35,0H340.73a25.12,25.12,0,0,1,3.5.18,17.68,17.68,0,0,1,3.65.89A18.5,18.5,0,0,1,360.19,245v12.06a24,24,0,0,1-.2,3.52,16.82,16.82,0,0,1-.91,3.65,18.47,18.47,0,0,1-17.32,12.21H52.71l-24.09-1-12-.63a16.88,16.88,0,0,1-12-5A15.9,15.9,0,0,1,0,258.13l.43-12A15.48,15.48,0,0,1,4.74,235,14.74,14.74,0,0,1,15.54,230.39Zm0,0A14.5,14.5,0,0,0,1.15,246.08l.44,12a13.55,13.55,0,0,0,4.88,9.7,13.39,13.39,0,0,0,10.11,2.94l12-.63,24.09-1H341.77a11,11,0,0,0,8-3.52,11.19,11.19,0,0,0,2.35-3.82,9.66,9.66,0,0,0,.54-2.18,16.1,16.1,0,0,0,.13-2.49v-12a11.1,11.1,0,0,0-7.4-10.34,10.2,10.2,0,0,0-2.18-.53,16.48,16.48,0,0,0-2.51-.12H208.24l-96.35,0C79.77,233.14,47.66,230.18,15.54,230.39Z"/><path class="cls-1" d="M63.39,181h48.88c2.56,0,5.42-2.26,6.33-4.59s-.48-4-2.87-4H66.85c-2.56,0-5.42,2.26-6.33,4.59s.48,4,2.87,4Z"/><path class="cls-1" d="M63.39,162.59h48.88c2.56,0,5.42-2.26,6.33-4.59s-.48-4-2.87-4H66.85c-2.56,0-5.42,2.26-6.33,4.59s.48,4,2.87,4Z"/><path class="cls-1" d="M171.56,162.59h128.5c4.44,0,10.1-8.55,3.46-8.55H175c-4.44,0-10.1,8.55-3.46,8.55Z"/><path class="cls-3" d="M63.25,200.28a355.49,355.49,0,0,1,52.37-3.23c2.64,0,4.21-2.22,4.73-4.65.34-1.62.17-6.13-2.44-6.17a370,370,0,0,0-54.36,3.21c-4.63.62-5.66,11.56-.3,10.84Z"/><path class="cls-3" d="M62.47,59.51q.24,34.38-1.88,68.67a187.07,187.07,0,0,0,51.73-2.29c-.69-21.55-.94-35.87-.94-65.74-16.16-4.4-28-4.91-44.48-4.27"/><path class="cls-3" d="M165.64,66.6c-2.23,20.09.7,40.07.72,60.18,0,2.08,1.52,3.06,3.45,3,41.27-.6,82.53-.89,123.79-1.65,2.8,0,6.34-3,6.39-5.93.39-21.79-.53-43.54-1.19-65.32a2.79,2.79,0,0,0-2.31-3c-13.28-1.43-26.38-2.8-39.73-3.06-27.69-.54-55.2,2.66-82.69,5.41a7.4,7.4,0,0,0-6.17,4.8c-.69,2.3.69,4.41,3.23,4.15,26.89-2.69,53.8-5.82,80.88-5.43,13.32.19,25.69,1.5,39.26,3l-2.31-3c.66,21.78,1.58,43.53,1.19,65.32l6.39-5.93c-41.26.76-82.53,1-123.79,1.65l3.45,3c0-20.12-2.95-40.09-.72-60.19.65-5.88-9.33-1.69-9.84,2.91Z"/><path class="cls-1" d="M171.93,176.58q66.38,3.28,132.85,3.07c1.44,0,3.51-.23,2.21-1.75s-5.73-1.43-7.45-1.43q-65.13.19-130.19-3c-1.06-.05-4.35-.32-4,1.32.26,1.43,5.76,1.79,6.63,1.83Z"/><path class="cls-1" d="M171.93,190.69q66.38,3.27,132.85,3.07c1.44,0,3.51-.23,2.21-1.75s-5.73-1.43-7.45-1.43q-65.13.19-130.19-3c-1.06,0-4.35-.32-4,1.32.26,1.43,5.76,1.78,6.63,1.83Z"/><path class="cls-1" d="M171.93,204.8q66.38,3.27,132.85,3.06c1.44,0,3.51-.22,2.21-1.74s-5.73-1.43-7.45-1.43q-65.13.19-130.19-3c-1.06-.05-4.35-.32-4,1.32.26,1.43,5.76,1.78,6.63,1.83Z"/><path class="cls-4" d="M243.78,75a17.31,17.31,0,0,0-21.63,7.47c-4.23,7.55-3.4,18.93,5.24,23,5.12,2.39,10.65,1.38,16,.25,1.43-.31,1.3-2.36.79-3.33a3.18,3.18,0,0,0-3.5-1.74c-4.07.87-9.17,2-13-.32-3.27-2-3.31-6.72-2.57-10.06a14.54,14.54,0,0,1,6.66-9.47,12.83,12.83,0,0,1,11-1c1.19.48,2.67.28,3-1.16A3.45,3.45,0,0,0,243.78,75Z"/><path class="cls-5" d="M219.79,94.75a105.52,105.52,0,0,1,15.5-.29c1.22.07.81-1.17.36-1.86-.6-.91-1.91-2.44-3.13-2.5a109.62,109.62,0,0,0-16.31.27c-1.16.1.18,2.11.45,2.44.71.83,1.91,2.06,3.13,1.94Z"/><path class="cls-6" d="M219.79,87.75a105.52,105.52,0,0,1,15.5-.29c1.22.07.81-1.17.36-1.86-.6-.91-1.91-2.44-3.13-2.51a111,111,0,0,0-16.31.28c-1.16.1.18,2.11.45,2.43.71.84,1.91,2.06,3.13,2Z"/><path class="cls-1" d="M31.61,246.34q27.15,1.49,54.34.48a6.15,6.15,0,0,0,5.88-5.07c.41-2.49-1.24-5.59-4.1-5.49q-27.18,1-54.35-.47c-6.08-.33-8.56,10.19-1.77,10.55Z"/><path class="cls-1" d="M267.52,246.34q27.15,1.49,54.35.48a6.15,6.15,0,0,0,5.87-5.07c.41-2.49-1.23-5.59-4.09-5.49q-27.18,1-54.35-.47c-6.08-.33-8.57,10.19-1.78,10.55Z"/><path class="cls-1" d="M131.13,246.34q50.49,1.49,101,.48c6-.12,8.54-10.69,1.77-10.56q-50.5,1-101-.47c-6.08-.18-8.57,10.36-1.78,10.55Z"/><path class="cls-1" d="M.76,257.65Q137.93,263.76,275.3,261q38.44-.79,76.85-2.28c1.79-.07,4.22-3,5.37-4.23.35-.37,3.09-3.45,2.08-3.42Q222.4,256.34,85,252.74q-38.43-1-76.82-2.73c-1.67-.08-4.32,3.13-5.37,4.22-.38.39-3.13,3.37-2.08,3.42Z"/></g></g></svg>